<svg width="48" height="68" viewBox="0 0 48 68" fill="none" xmlns="http://www.w3.org/2000/svg">
<g clip-path="url(#clip0_529_4)">
<path d="M47.4003 0.29989C47.2103 0.15989 46.9803 0.0698904 46.7103 0.0698904H19.9803C15.5703 0.0698904 11.1103 -0.0901096 6.69027 0.0698904C2.96027 0.19989 0.160269 2.95989 0.0202691 6.68989C-0.0297309 7.84989 0.0202691 9.02989 0.0202691 10.1899V54.9499C0.0202691 55.0299 0.0202691 55.1099 0.0402691 55.1799C0.0502691 55.4799 0.0802691 55.7899 0.130269 56.0999C0.710269 59.5099 3.69027 61.5299 7.00027 61.5699C11.5503 61.6299 18.9703 61.6299 26.4603 61.6099V65.8799C26.4603 66.6999 27.3603 67.5699 28.2203 67.2299C28.9103 66.9499 29.6103 66.6599 30.3003 66.3899C30.8603 66.1599 31.4103 65.9399 31.9703 65.7099C32.0603 65.6699 32.2303 65.6299 32.3703 65.5799C32.5203 65.6299 32.6903 65.6799 32.7803 65.7099C33.2703 65.9099 33.7703 66.1099 34.2703 66.3199C35.0303 66.6199 35.7803 66.9299 36.5403 67.2399C37.4003 67.5899 38.3003 66.7099 38.3003 65.8899V61.5999C41.5703 61.5999 44.4903 61.5799 46.7203 61.5799C47.4603 61.6599 47.8503 61.1599 47.9003 60.5799C48.0203 59.8899 47.6303 59.0899 46.7203 59.0899C45.4303 58.9499 45.2203 55.8399 45.2203 54.9499C45.2203 53.6699 45.4503 51.0299 47.0503 50.7699C47.6103 50.6799 47.8803 50.2799 47.9303 49.8299C47.9503 49.7499 47.9603 49.6599 47.9603 49.5699V1.30989C47.9603 0.83989 47.7303 0.49989 47.4003 0.29989ZM35.5103 63.6999C34.4603 63.1799 33.3303 62.6699 32.3703 62.6599C31.6303 62.6599 30.7603 63.2099 30.0903 63.4799C29.8103 63.5999 29.5203 63.7099 29.2403 63.8299V57.1699H35.5103V63.7099V63.6999ZM38.3003 59.0899V55.7699C38.3003 55.3599 38.1503 55.0499 37.9303 54.8299C37.9203 54.8099 37.9003 54.7999 37.8903 54.7799C37.8903 54.7799 37.8703 54.7599 37.8603 54.7599C37.6403 54.5299 37.3203 54.3799 36.9103 54.3799H27.8603C27.1103 54.3799 26.4703 55.0199 26.4703 55.7699V59.0899H21.4203C16.7203 59.0899 12.0203 59.1299 7.33027 59.0899C6.76027 59.0899 6.21027 59.0999 5.64027 58.9599C3.56027 58.4299 2.35027 56.3999 2.58027 54.4299C2.81027 52.9199 3.74027 51.7599 5.05027 51.1999C6.04027 50.8299 7.17027 50.8299 8.30027 50.8299H43.4503C42.2903 53.1899 42.3303 56.7299 43.5303 59.0999H38.3203L38.3003 59.0899ZM45.4703 48.3299H19.6403C15.3203 48.3299 10.9603 48.1699 6.64027 48.3299C6.21027 48.3499 5.79027 48.3999 5.38027 48.4899C5.38027 48.4899 5.36027 48.4899 5.35027 48.4899C5.16027 48.5299 4.97027 48.5799 4.78027 48.6399C4.72027 48.6599 4.66027 48.6799 4.59027 48.6999C4.50027 48.7299 4.41027 48.7699 4.32027 48.7999C4.15027 48.8599 3.99027 48.9399 3.83027 49.0099C3.83027 49.0099 3.81027 49.0099 3.80027 49.0299C3.33027 49.2499 2.90027 49.5199 2.50027 49.8399V9.73989C2.50027 8.61989 2.42027 7.47989 2.52027 6.36989C2.79027 3.44989 5.27027 2.54989 7.78027 2.54989H45.4603V48.3299H45.4703Z" fill="white"/>
<path d="M25.0042 42C33.2769 42 40 35.2667 40 27C40 18.7333 33.2685 12 25.0042 12C16.7398 12 10 18.725 10 27C10 35.275 16.7315 42 25.0042 42ZM25.0042 14.525C31.8856 14.525 37.4757 20.125 37.4757 27C37.4757 33.875 31.8773 39.475 25.0042 39.475C18.1311 39.475 12.5326 33.875 12.5326 27C12.5326 20.125 18.1311 14.525 25.0042 14.525Z" fill="white"/>
<path d="M23.0391 34.0391V23.4336H26.3398V34.0391H23.0391ZM24.6992 22.1641C23.7617 22.1641 23 21.4609 23 20.582C23 19.7031 23.7617 19 24.6992 19C25.6367 19 26.418 19.7031 26.418 20.582C26.418 21.4609 25.6367 22.1641 24.6992 22.1641Z" fill="white"/>
</g>
<defs>
<clipPath id="clip0_529_4">
<rect width="47.96" height="67.31" fill="white"/>
</clipPath>
</defs>
</svg>
