<svg width="53" height="57" viewBox="0 0 53 57" fill="none" xmlns="http://www.w3.org/2000/svg">
<circle cx="16.6003" cy="20.0583" r="5.42065" fill="url(#paint0_linear_195_5405)"/>
<circle cx="16.6012" cy="20.0585" r="7.74378" stroke="url(#paint1_linear_195_5405)"/>
<path d="M15.8242 21.6071L16.9858 20.4455L17.7602 20.0583H19.3089L22.7936 25.8662H23.568L25.1168 24.3174L27.8271 25.0918L28.6015 24.3174L30.1502 23.5431L32.0862 24.3174L33.2477 23.1559H35.9581L40.6043 30.1253L41.7659 35.1587L40.2171 39.805L37.1196 42.5153L31.699 44.8385L28.6015 44.4513L16.9858 37.0947V35.5459L18.1474 33.9972H19.6961L23.1808 34.7715L19.6961 28.5765L15.8242 21.6071Z" fill="#888888"/>
<path d="M33.1351 26.0362C32.8228 25.4952 32.7206 24.8625 32.851 24.2772C32.9815 23.6919 33.3338 23.2019 33.8305 22.9151C34.3273 22.6283 34.9278 22.5681 35.4999 22.7479C36.072 22.9276 36.5689 23.3325 36.8812 23.8734L40.4141 29.9925C41.6634 32.1564 42.0721 34.6873 41.5505 37.0286C41.0288 39.3699 39.6195 41.3297 37.6325 42.4769L35.1351 43.9187L35.3948 43.7688C34.1542 44.4854 32.7392 44.8552 31.2769 44.845C29.8145 44.8349 28.3507 44.4451 27.0167 43.7106L26.5365 43.444C25.7711 43.018 22.9044 41.2113 17.9364 38.024C17.4299 37.6991 17.0506 37.1897 16.8791 36.604C16.7076 36.0184 16.7575 35.4027 17.0182 34.888C17.2963 34.3402 17.7489 33.9185 18.3044 33.6897C18.8599 33.461 19.4865 33.4382 20.085 33.6251L23.0747 34.5642" stroke="white" stroke-width="1.2" stroke-linecap="round" stroke-linejoin="round"/>
<path d="M23.0735 34.5641L16.4003 23.0058C16.088 22.4648 15.9858 21.8321 16.1162 21.2467C16.2466 20.6614 16.5989 20.1715 17.0957 19.8847C17.5924 19.5979 18.1929 19.5377 18.765 19.7174C19.3371 19.8972 19.834 20.302 20.1463 20.843L26.0344 31.0415M25.6419 30.3616L24.0717 27.642C23.9171 27.3741 23.8124 27.0809 23.7636 26.7791C23.7149 26.4773 23.723 26.1728 23.7876 25.883C23.8522 25.5932 23.9719 25.3237 24.14 25.09C24.3081 24.8563 24.5212 24.6629 24.7671 24.5209C25.0131 24.3789 25.2871 24.291 25.5735 24.2623C25.86 24.2336 26.1532 24.2647 26.4365 24.3537C26.7197 24.4427 26.9875 24.5879 27.2245 24.781C27.4615 24.9741 27.6631 25.2114 27.8178 25.4792L29.7805 28.8787M28.6028 26.839C28.2905 26.2981 28.1883 25.6653 28.3187 25.08C28.4491 24.4947 28.8015 24.0047 29.2982 23.7179C29.795 23.4311 30.3955 23.371 30.9676 23.5507C31.5397 23.7304 32.0366 24.1353 32.3489 24.6762L33.5265 26.7159" stroke="white" stroke-width="1.2" stroke-linecap="round" stroke-linejoin="round"/>
<defs>
<linearGradient id="paint0_linear_195_5405" x1="11.1797" y1="14.6377" x2="22.4575" y2="15.1126" gradientUnits="userSpaceOnUse">
<stop stop-color="#FFA700"/>
<stop offset="1" stop-color="#FF7600"/>
</linearGradient>
<linearGradient id="paint1_linear_195_5405" x1="8.85742" y1="12.3147" x2="24.9686" y2="12.9931" gradientUnits="userSpaceOnUse">
<stop stop-color="#FFA700"/>
<stop offset="1" stop-color="#FF7600"/>
</linearGradient>
</defs>
</svg>
