<svg width="50" height="50" viewBox="0 0 50 50" fill="none" xmlns="http://www.w3.org/2000/svg">
<circle cx="25" cy="25" r="25" fill="#FEE500"/>
<path d="M25 16C30.8 16 35.501 19.664 35.501 24.185C35.501 28.705 30.8 32.369 25.001 32.369C24.4236 32.368 23.8468 32.3312 23.274 32.259L18.866 35.142C18.365 35.407 18.188 35.378 18.394 34.729L19.286 31.051C16.406 29.591 14.501 27.061 14.501 24.185C14.501 19.665 19.201 16 25.001 16M30.909 24.06L32.379 22.636C32.4638 22.5479 32.5111 22.4303 32.511 22.308C32.5108 22.1858 32.4632 22.0683 32.3782 21.9804C32.2931 21.8925 32.1773 21.8411 32.0551 21.8369C31.9329 21.8327 31.8138 21.8761 31.723 21.958L29.795 23.824V22.282C29.795 22.1568 29.7452 22.0368 29.6567 21.9482C29.5682 21.8597 29.4482 21.81 29.323 21.81C29.1978 21.81 29.0777 21.8597 28.9892 21.9482C28.9007 22.0368 28.851 22.1568 28.851 22.282V24.839C28.8343 24.9121 28.8343 24.9879 28.851 25.061V26.5C28.851 26.6252 28.9007 26.7452 28.9892 26.8338C29.0777 26.9223 29.1978 26.972 29.323 26.972C29.4482 26.972 29.5682 26.9223 29.6567 26.8338C29.7452 26.7452 29.795 26.6252 29.795 26.5V25.137L30.222 24.724L31.65 26.757C31.6856 26.8078 31.7309 26.851 31.7833 26.8842C31.8357 26.9175 31.8941 26.9401 31.9552 26.9508C32.0163 26.9615 32.0789 26.96 32.1394 26.9465C32.1999 26.933 32.2572 26.9077 32.308 26.872C32.3587 26.8363 32.402 26.791 32.4352 26.7387C32.4685 26.6863 32.4911 26.6279 32.5018 26.5668C32.5124 26.5057 32.511 26.4431 32.4975 26.3826C32.4839 26.322 32.4586 26.2648 32.423 26.214L30.909 24.06ZM27.951 25.984H26.491V22.297C26.4854 22.1757 26.4333 22.0612 26.3455 21.9774C26.2576 21.8935 26.1409 21.8467 26.0195 21.8467C25.8981 21.8467 25.7813 21.8935 25.6935 21.9774C25.6057 22.0612 25.5536 22.1757 25.548 22.297V26.456C25.548 26.716 25.758 26.928 26.019 26.928H27.951C28.0762 26.928 28.1962 26.8783 28.2847 26.7898C28.3732 26.7012 28.423 26.5812 28.423 26.456C28.423 26.3308 28.3732 26.2108 28.2847 26.1222C28.1962 26.0337 28.0762 25.984 27.951 25.984ZM22.094 24.893L22.79 23.185L23.428 24.892L22.094 24.893ZM24.617 25.38L24.619 25.364C24.6186 25.2451 24.5733 25.1308 24.492 25.044L23.446 22.244C23.4021 22.1106 23.3186 21.9937 23.2066 21.909C23.0945 21.8243 22.9593 21.7758 22.819 21.77C22.6777 21.7699 22.5398 21.8126 22.4233 21.8924C22.3067 21.9721 22.217 22.0853 22.166 22.217L20.504 26.292C20.4566 26.4079 20.4573 26.5379 20.5058 26.6533C20.5542 26.7687 20.6466 26.8602 20.7625 26.9075C20.8784 26.9548 21.0083 26.9542 21.1238 26.9057C21.2392 26.8572 21.3306 26.7649 21.378 26.649L21.71 25.836H23.78L24.078 26.636C24.0983 26.6958 24.1304 26.7509 24.1724 26.7981C24.2145 26.8452 24.2655 26.8835 24.3226 26.9105C24.3796 26.9376 24.4416 26.9529 24.5047 26.9557C24.5678 26.9584 24.6308 26.9484 24.6899 26.9263C24.7491 26.9042 24.8032 26.8704 24.8491 26.8271C24.895 26.7837 24.9317 26.7315 24.9571 26.6737C24.9825 26.6158 24.996 26.5535 24.9968 26.4903C24.9977 26.4272 24.9858 26.3645 24.962 26.306L24.617 25.38ZM21.294 22.302C21.2942 22.24 21.2822 22.1786 21.2587 22.1213C21.2351 22.064 21.2004 22.0119 21.1567 21.968C21.1129 21.9241 21.0609 21.8894 21.0036 21.8657C20.9463 21.842 20.885 21.8299 20.823 21.83H17.578C17.4528 21.83 17.3327 21.8797 17.2442 21.9682C17.1557 22.0568 17.106 22.1768 17.106 22.302C17.106 22.4272 17.1557 22.5472 17.2442 22.6358C17.3327 22.7243 17.4528 22.774 17.578 22.774H18.738V26.51C18.738 26.6352 18.7877 26.7552 18.8762 26.8438C18.9647 26.9323 19.0848 26.982 19.21 26.982C19.3352 26.982 19.4552 26.9323 19.5437 26.8438C19.6322 26.7552 19.682 26.6352 19.682 26.51V22.774H20.822C20.884 22.7743 20.9455 22.7622 21.0029 22.7386C21.0603 22.715 21.1124 22.6802 21.1563 22.6363C21.2002 22.5925 21.235 22.5403 21.2586 22.4829C21.2822 22.4256 21.2942 22.3641 21.294 22.302Z" fill="#191600"/>
</svg>
