<svg width="40" height="42" viewBox="0 0 40 42" fill="none" xmlns="http://www.w3.org/2000/svg">
<path d="M10.9884 14.4187V27.9365H3.77893L1.97656 26.1341V16.2211L3.77893 14.4187H10.9884Z" fill="#FFA700" fill-opacity="0.2"/>
<path d="M29.0116 27.9368L29.0116 14.419L36.2211 14.419L38.0234 16.2214L38.0234 26.1344L36.2211 27.9368L29.0116 27.9368Z" fill="#FFA700" fill-opacity="0.2"/>
<path fill-rule="evenodd" clip-rule="evenodd" d="M19.9999 3.14845C13.4095 3.14845 8.29541 7.40934 7.42306 12.5938H11.8661C12.2706 12.5938 12.6585 12.7596 12.9445 13.0549C13.2305 13.3501 13.3912 13.7505 13.3912 14.168V28.8608C13.3912 29.2783 13.2305 29.6787 12.9445 29.9739C12.6585 30.2691 12.2706 30.435 11.8661 30.435H5.7658C4.28272 30.435 2.86038 29.8268 1.81168 28.7444C0.762981 27.6619 0.173828 26.1937 0.173828 24.6628V18.3659C0.17357 17.0963 0.578867 15.862 1.32695 14.8541C2.07504 13.8463 3.12418 13.1212 4.31189 12.7911C5.08866 5.43632 12.0166 0 19.9999 0C27.9832 0 34.9112 5.43632 35.6879 12.7911C36.8757 13.1212 37.9248 13.8463 38.6729 14.8541C39.421 15.862 39.8263 17.0963 39.826 18.3659V24.6628C39.8264 25.9363 39.4188 27.1742 38.6667 28.1837C37.9145 29.1931 36.8601 29.9175 35.6676 30.244C35.3444 32.6257 34.198 34.8065 32.4398 36.3845C30.6816 37.9625 28.4301 38.8313 26.1002 38.8308H23.772C23.418 39.7339 22.7708 40.4819 21.9413 40.9465C21.1117 41.411 20.1514 41.5633 19.225 41.3772C18.2986 41.1912 17.4637 40.6783 16.8635 39.9265C16.2632 39.1747 15.935 38.2308 15.935 37.2566C15.935 36.2824 16.2632 35.3385 16.8635 34.5867C17.4637 33.835 18.2986 33.3221 19.225 33.136C20.1514 32.9499 21.1117 33.1022 21.9413 33.5668C22.7708 34.0313 23.418 34.7793 23.772 35.6824H26.1002C27.5881 35.6827 29.0324 35.1648 30.1997 34.2126C31.3669 33.2603 32.1887 31.9293 32.532 30.435H28.1337C27.7292 30.435 27.3413 30.2691 27.0553 29.9739C26.7693 29.6787 26.6086 29.2783 26.6086 28.8608V14.168C26.6086 13.7505 26.7693 13.3501 27.0553 13.0549C27.3413 12.7596 27.7292 12.5938 28.1337 12.5938H32.5768C31.7044 7.40934 26.5903 3.14845 19.9999 3.14845ZM5.7658 15.7422C4.36272 15.7422 3.224 16.9177 3.224 18.3659V24.6628C3.224 26.1111 4.36272 27.2865 5.7658 27.2865H10.3411V15.7422H5.7658ZM36.7758 18.3659C36.7758 16.9177 35.6371 15.7422 34.234 15.7422H29.6588V27.2865H34.234C35.6371 27.2865 36.7758 26.1111 36.7758 24.6628V18.3659Z" fill="#FFA700"/>
</svg>
