<svg width="26" height="24" viewBox="0 0 26 24" fill="none" xmlns="http://www.w3.org/2000/svg">
<circle cx="15" cy="13" r="10" fill="#FFEDCC" stroke="#FFA700" stroke-width="2"/>
<circle cx="11" cy="11" r="10" fill="#FFEDCC" stroke="#FFA700" stroke-width="2"/>
<path d="M7.33594 15.1914L6.39648 11.2051H5V9.98633H6.10449L5.16504 6H6.91699L7.74219 9.98633H8.97363L9.8877 6H11.5254L12.4395 9.98633H13.6836L14.4961 6H16.248L15.3086 9.98633H16.4131V11.2051H15.0166L14.0771 15.1914H12.2236L11.3223 11.2051H10.1035L9.18945 15.1914H7.33594ZM7.99609 11.2051L8.28809 12.6396H8.36426L8.69434 11.2051H7.99609ZM10.3828 9.98633H11.043L10.7383 8.66602H10.6748L10.3828 9.98633ZM12.7188 11.2051L13.0488 12.6523H13.125L13.4297 11.2051H12.7188Z" fill="#FFA700"/>
</svg>
