<svg width="7" height="13" viewBox="0 0 7 13" fill="none" xmlns="http://www.w3.org/2000/svg">
<path d="M0.26768 0.28615C0.0962854 0.469427 9.63302e-07 0.717971 9.51974e-07 0.977124C9.40646e-07 1.23628 0.0962853 1.48482 0.26768 1.6681L4.7932 6.5059L0.26768 11.3437C0.101142 11.528 0.00899137 11.7749 0.0110744 12.0312C0.0131574 12.2874 0.109308 12.5325 0.278816 12.7137C0.448325 12.895 0.67763 12.9977 0.917343 13C1.15706 13.0022 1.388 12.9037 1.56042 12.7257L6.73232 7.19688C6.90372 7.0136 7 6.76505 7 6.5059C7 6.24675 6.90372 5.9982 6.73232 5.81493L1.56043 0.28615C1.38898 0.102928 1.15648 -2.55428e-07 0.914053 -2.66025e-07C0.671627 -2.76622e-07 0.439127 0.102928 0.26768 0.28615Z" fill="white"/>
</svg>
