<svg width="15" height="20" viewBox="0 0 15 20" fill="none" xmlns="http://www.w3.org/2000/svg">
<path d="M5.16602 16.4153L5.99935 18.4986H8.49935L9.33268 16.4153V14.332V13.4986L10.166 12.6653L11.8327 11.4153L12.666 9.74862L13.0827 7.24862L12.666 4.74862L10.9993 2.24862L8.49935 1.41528H5.58268L3.08268 2.66528L1.41602 5.58195V8.91528L3.08268 11.832L5.16602 13.082V14.332V16.4153Z" fill="#FFA700" fill-opacity="0.2"/>
<path d="M7.25042 14.7486V10.3736M7.25042 10.3736C7.67206 10.374 8.09206 10.3211 8.50042 10.2161M7.25042 10.3736C6.82878 10.374 6.40878 10.3211 6.00042 10.2161M9.12542 16.4477C7.88642 16.6822 6.61442 16.6822 5.37542 16.4477M8.50042 18.4336C7.66936 18.5206 6.83148 18.5206 6.00042 18.4336M9.12542 14.7486V14.5886C9.12542 13.7694 9.67375 13.0694 10.3821 12.6586C11.5721 11.9694 12.5016 10.9071 13.0266 9.6361C13.5516 8.36512 13.6428 6.95648 13.286 5.62843C12.9292 4.30038 12.1444 3.12707 11.0531 2.2903C9.96189 1.45352 8.62514 1 7.25 1C5.87486 1 4.53811 1.45352 3.44687 2.2903C2.35562 3.12707 1.57081 4.30038 1.21403 5.62843C0.857245 6.95648 0.948414 8.36512 1.47341 9.6361C1.9984 10.9071 2.92792 11.9694 4.11792 12.6586C4.82625 13.0694 5.37542 13.7694 5.37542 14.5886V14.7486" stroke="#FFA700" stroke-width="1.2" stroke-linecap="round" stroke-linejoin="round"/>
</svg>
