<svg width="25" height="25" viewBox="0 0 25 25" fill="none" xmlns="http://www.w3.org/2000/svg">
<circle cx="12.5" cy="12.5" r="12.5" fill="#FFA700"/>
<path d="M10.13 15.5991L18.351 7.29399C18.545 7.098 18.7713 7 19.03 7C19.2886 7 19.515 7.098 19.709 7.29399C19.903 7.48998 20 7.72288 20 7.99269C20 8.26251 19.903 8.49509 19.709 8.69042L10.809 17.706C10.615 17.902 10.3886 18 10.13 18C9.87128 18 9.64494 17.902 9.45094 17.706L5.27982 13.4922C5.08581 13.2962 4.99269 13.0636 5.00045 12.7945C5.00821 12.5253 5.10941 12.2924 5.30407 12.0958C5.49872 11.8991 5.72926 11.8011 5.9957 11.8018C6.26213 11.8024 6.49235 11.9004 6.68636 12.0958L10.13 15.5991Z" fill="white"/>
</svg>
