<svg width="69" height="55" viewBox="0 0 69 55" fill="none" xmlns="http://www.w3.org/2000/svg">
<path d="M59.4277 2L59.4278 0.8H59.4277V2ZM59.4277 43.541V44.741H59.4278L59.4277 43.541ZM29.4678 43.541V42.341C29.0301 42.341 28.6272 42.5793 28.4163 42.9628L29.4678 43.541ZM24.3271 52.8887L23.2757 53.4669C23.4866 53.8504 23.8895 54.0887 24.3271 54.0887C24.7648 54.0887 25.1677 53.8504 25.3786 53.4669L24.3271 52.8887ZM19.1865 43.541L20.238 42.9628C20.0271 42.5793 19.6242 42.341 19.1865 42.341V43.541ZM2 10L0.8 10V10H2ZM59.4277 2L59.4277 3.2C63.1831 3.20022 66.2277 6.2447 66.2277 10H67.4277H68.6277C68.6277 4.91907 64.5085 0.8003 59.4278 0.8L59.4277 2ZM67.4277 10H66.2277V35.541H67.4277L68.6277 35.541V10H67.4277ZM67.4277 35.541H66.2277C66.2277 39.2963 63.1831 42.3408 59.4277 42.341L59.4277 43.541L59.4278 44.741C64.5085 44.7407 68.6277 40.6219 68.6277 35.541L67.4277 35.541ZM59.4277 43.541V42.341H29.4678V43.541V44.741H59.4277V43.541ZM29.4678 43.541L28.4163 42.9628L23.2757 52.3104L24.3271 52.8887L25.3786 53.4669L30.5193 44.1193L29.4678 43.541ZM24.3271 52.8887L25.3786 52.3104L20.238 42.9628L19.1865 43.541L18.135 44.1193L23.2757 53.4669L24.3271 52.8887ZM19.1865 43.541V42.341H10V43.541V44.741H19.1865V43.541ZM10 43.541V42.341C6.24446 42.341 3.2 39.2966 3.2 35.541H2H0.8C0.8 40.622 4.91898 44.741 10 44.741V43.541ZM2 35.541H3.2L3.2 10H2H0.8L0.8 35.541H2ZM2 10L3.2 10C3.20001 6.24447 6.24447 3.2 10 3.2V2V0.8C4.91898 0.8 0.800007 4.91899 0.8 10L2 10ZM10 2V3.2L59.4277 3.2V2V0.8L10 0.8V2Z" fill="#FFA700"/>
<path d="M45.1016 23.9609H47.8164L48.7344 25.0938C49.2715 24.3809 49.5742 23.3066 49.5742 21.9297C49.5742 19.1172 48.3242 17.5938 46.2539 17.5938C44.1836 17.5938 42.9336 19.1172 42.9336 21.9297C42.9336 24.7422 44.1836 26.2656 46.2539 26.2656C46.4492 26.2656 46.6445 26.2559 46.8398 26.2266L45.1016 23.9609ZM52.9727 21.9297C52.9727 24.4199 52.1426 26.3145 50.7852 27.5547L52.8555 30.1133H49.8281L48.7344 28.7852C47.9727 29.0586 47.1328 29.1953 46.2539 29.1953C42.4453 29.1953 39.5352 26.5781 39.5352 21.9297C39.5352 17.2617 42.4453 14.6641 46.2539 14.6641C50.043 14.6641 52.9727 17.2617 52.9727 21.9297Z" fill="#FFA700"/>
<path d="M28.4609 29H24.8672L29.6719 14.8594H34.0859L38.8711 29H35.2969L34.3398 25.9727H29.418L28.4609 29ZM30.2188 23.4336H33.5391L31.9375 18.3555H31.8203L30.2188 23.4336Z" fill="#FFA700"/>
<path d="M16 29V14.8594H25.5898V17.5742H19.3203V20.5625H24.9648V23.2773H19.3203V29H16Z" fill="#FFA700"/>
</svg>
