<svg width="22" height="22" viewBox="0 0 22 22" fill="none" xmlns="http://www.w3.org/2000/svg">
<path fill-rule="evenodd" clip-rule="evenodd" d="M8.99967 2.33325C7.23156 2.33325 5.53587 3.03563 4.28563 4.28587C3.03539 5.53612 2.33301 7.23181 2.33301 8.99992C2.33301 10.768 3.03539 12.4637 4.28563 13.714C5.53587 14.9642 7.23156 15.6666 8.99967 15.6666C10.7678 15.6666 12.4635 14.9642 13.7137 13.714C14.964 12.4637 15.6663 10.768 15.6663 8.99992C15.6663 7.23181 14.964 5.53612 13.7137 4.28587C12.4635 3.03563 10.7678 2.33325 8.99967 2.33325ZM0.333008 8.99992C0.333008 6.70138 1.2461 4.49697 2.87142 2.87166C4.49673 1.24634 6.70113 0.333252 8.99967 0.333252C11.2982 0.333252 13.5026 1.24634 15.1279 2.87166C16.7533 4.49697 17.6663 6.70138 17.6663 8.99992C17.6663 11.2985 16.7533 13.5029 15.1279 15.1282C13.5026 16.7535 11.2982 17.6666 8.99967 17.6666C6.70113 17.6666 4.49673 16.7535 2.87142 15.1282C1.2461 13.5029 0.333008 11.2985 0.333008 8.99992Z" fill="#DADADA"/>
<path fill-rule="evenodd" clip-rule="evenodd" d="M14.2934 14.2932C14.4809 14.1059 14.7351 14.0007 15.0001 14.0007C15.2651 14.0007 15.5193 14.1059 15.7068 14.2932L21.0401 19.6265C21.1383 19.7181 21.2171 19.8285 21.2718 19.9511C21.3265 20.0738 21.3558 20.2062 21.3582 20.3405C21.3606 20.4748 21.3359 20.6081 21.2856 20.7326C21.2353 20.8572 21.1604 20.9703 21.0655 21.0652C20.9705 21.1602 20.8574 21.2351 20.7329 21.2853C20.6084 21.3356 20.475 21.3603 20.3407 21.358C20.2065 21.3556 20.074 21.3262 19.9514 21.2716C19.8287 21.2169 19.7183 21.1381 19.6268 21.0399L14.2934 15.7065C14.1062 15.519 14.001 15.2649 14.001 14.9999C14.001 14.7349 14.1062 14.4807 14.2934 14.2932Z" fill="#DADADA"/>
</svg>
