<svg width="13" height="7" viewBox="0 0 13 7" fill="none" xmlns="http://www.w3.org/2000/svg">
<path d="M0.28615 6.73232C0.469427 6.90371 0.717971 7 0.977125 7C1.23628 7 1.48482 6.90371 1.6681 6.73232L6.5059 2.2068L11.3437 6.73232C11.528 6.89886 11.7749 6.99101 12.0312 6.98892C12.2874 6.98684 12.5325 6.89069 12.7137 6.72118C12.895 6.55167 12.9977 6.32237 13 6.08266C13.0022 5.84294 12.9037 5.612 12.7257 5.43957L7.19688 0.267679C7.0136 0.0962842 6.76505 0 6.5059 0C6.24675 0 5.9982 0.0962842 5.81493 0.267679L0.28615 5.43957C0.102928 5.61102 0 5.84352 0 6.08595C0 6.32837 0.102928 6.56087 0.28615 6.73232Z" fill="black"/>
</svg>
