<svg width="33" height="22" viewBox="0 0 33 22" fill="none" xmlns="http://www.w3.org/2000/svg">
<g clip-path="url(#clip0_152_6235)">
<path d="M28.0482 10.8831C27.6253 10.8831 27.2812 10.5357 27.2812 10.1037C27.2812 9.67391 27.6231 9.32428 28.0482 9.32428L32.2334 9.31982C32.6564 9.31982 33.0004 9.66723 33.0004 10.0993C33.0004 10.5291 32.6585 10.8787 32.2334 10.8787L28.0482 10.8831Z" fill="#FFA700"/>
<path d="M30.0742 17.7355C29.9537 17.7355 29.8288 17.7065 29.7149 17.6442L26.2878 15.7914C25.9131 15.5887 25.7728 15.1166 25.9701 14.738C26.1695 14.3572 26.634 14.2125 27.0065 14.4151L30.4336 16.2679C30.8083 16.4706 30.9507 16.9427 30.7513 17.3213C30.6133 17.5841 30.3481 17.7355 30.0742 17.7355Z" fill="#FFA700"/>
<path d="M26.7324 5.89471C26.4804 5.89471 26.235 5.77 26.0882 5.5384C25.8581 5.17763 25.9589 4.69439 26.3161 4.46056L29.5744 2.31601C29.9294 2.08218 30.4049 2.18462 30.635 2.54761C30.8651 2.90837 30.7643 3.39162 30.4071 3.62545L27.1487 5.77C27.0194 5.85462 26.8748 5.89471 26.7324 5.89471Z" fill="#FFA700"/>
<path d="M1 6.5H4V4H13L20.5 0.5V6C21.6667 6.33333 24 7.6 24 10C24 12.4 21.6667 13 20.5 13V19L13 16H8L10 21H6.5L4 15.5V13.5H1V6.5Z" fill="#FFA700" fill-opacity="0.2"/>
<path d="M20.3436 19.7575C20.1486 19.7575 19.9514 19.7152 19.7586 19.6328L13.7765 17.0874C13.4281 16.9382 12.7663 16.8045 12.3873 16.8045H5.0028C4.09563 16.8045 3.35938 16.0563 3.35938 15.1343V4.66768C3.35938 3.74572 4.09563 2.99747 5.0028 2.99747H12.3873C12.7642 2.99747 13.4237 2.86163 13.7699 2.71019L19.7542 0.126936C19.9492 0.042312 20.1486 0 20.3458 0C21.0755 0 21.6277 0.596822 21.6277 1.38739V18.3679C21.6277 19.1606 21.0755 19.7575 20.3414 19.7575H20.3436ZM5.0028 4.55633C4.94364 4.55633 4.89324 4.60755 4.89324 4.66768V15.1343C4.89324 15.1945 4.94364 15.2457 5.0028 15.2457H12.3873C12.9745 15.2457 13.8269 15.4194 14.3681 15.651L20.0938 18.0873V1.67466L14.3703 4.14435C13.8291 4.37818 12.9767 4.5541 12.3873 4.5541H5.0028V4.55633Z" fill="#FFA700"/>
<path d="M10.277 22C10.277 22 10.2748 22 10.2726 22H6.77538C6.47299 22 6.20127 21.8197 6.07637 21.5413L3.82159 16.4661C3.71422 16.2256 3.73613 15.945 3.87637 15.7223C4.01661 15.4996 4.25984 15.366 4.5206 15.366H8.01781C8.3202 15.366 8.59191 15.5463 8.71681 15.8247L10.9387 20.8264C11.0045 20.9422 11.0439 21.0759 11.0439 21.2184C11.0439 21.6482 10.6999 21.9978 10.277 21.9978V22ZM7.2706 20.4412H9.08494L7.52478 16.9248H5.71044L7.27279 20.4412H7.2706Z" fill="#FFA700"/>
<path d="M12.4173 16.8046C11.9944 16.8046 11.6504 16.455 11.6504 16.0252V3.77699C11.6504 3.34719 11.9944 2.99756 12.4173 2.99756C12.8402 2.99756 13.1843 3.34719 13.1843 3.77699V16.0252C13.1843 16.455 12.8402 16.8046 12.4173 16.8046Z" fill="#FFA700"/>
<path d="M3.81275 14.6599H0.766932C0.344024 14.6599 0 14.3102 0 13.8804V5.99037C0 5.56057 0.344024 5.21094 0.766932 5.21094H3.81275C4.23566 5.21094 4.57968 5.56057 4.57968 5.99037C4.57968 6.42017 4.23566 6.7698 3.81275 6.7698H1.53386V13.101H3.81275C4.23566 13.101 4.57968 13.4506 4.57968 13.8804C4.57968 14.3102 4.23566 14.6599 3.81275 14.6599Z" fill="#FFA700"/>
<path d="M20.9132 13.6156C20.5495 13.6156 20.2559 13.3172 20.2559 12.9475C20.2559 12.5778 20.5495 12.2794 20.9132 12.2794C22.3047 12.2794 23.2776 11.1748 23.2776 9.59147C23.2776 8.00812 22.3047 6.90355 20.9132 6.90355C20.5495 6.90355 20.2559 6.60514 20.2559 6.23547C20.2559 5.86579 20.5495 5.56738 20.9132 5.56738C23.0102 5.56738 24.5923 7.29772 24.5923 9.59147C24.5923 11.8852 23.0102 13.6156 20.9132 13.6156Z" fill="#FFA700"/>
</g>
<defs>
<clipPath id="clip0_152_6235">
<rect width="33" height="22" fill="white"/>
</clipPath>
</defs>
</svg>
