<svg width="26" height="20" viewBox="0 0 26 20" fill="none" xmlns="http://www.w3.org/2000/svg">
<path d="M23.4482 0.5C24.0088 0.500077 24.4972 0.724302 24.8936 1.13379C25.2929 1.54649 25.4999 2.05139 25.5 2.62402C25.5 3.19631 25.2928 3.70056 24.8936 4.1123L24.8945 4.11328L10.6543 18.8662H10.6533C10.2569 19.2758 9.76865 19.5 9.20801 19.5C8.71744 19.5 8.28178 19.3289 7.91504 19.0117L7.7627 18.8662L1.08887 11.9717C0.686172 11.5556 0.48471 11.0448 0.500977 10.4678L0.516602 10.2578C0.573674 9.77671 0.780106 9.34971 1.12695 8.99121L1.28223 8.84473C1.65346 8.52528 2.09634 8.35617 2.59473 8.35742C3.09118 8.35875 3.53227 8.52723 3.90234 8.84473L4.05664 8.99023L4.05859 8.99219L9.20898 14.3506L22.002 1.13379L22.1553 0.988281C22.522 0.671176 22.9577 0.5 23.4482 0.5Z" fill="white" stroke="white"/>
</svg>
