<svg width="22" height="22" viewBox="0 0 22 22" fill="none" xmlns="http://www.w3.org/2000/svg">
<rect width="22" height="22" rx="11" fill="#FFA700"/>
<path d="M10.1115 13.1668L13.2832 11.3334L10.1115 9.50011V13.1668ZM17.176 8.38178C17.2554 8.669 17.3104 9.054 17.3471 9.54289C17.3899 10.0318 17.4082 10.4534 17.4082 10.8201L17.4449 11.3334C17.4449 12.6718 17.3471 13.6557 17.176 14.2851C17.0232 14.8351 16.6688 15.1896 16.1188 15.3423C15.8315 15.4218 15.306 15.4768 14.4993 15.5134C13.7049 15.5562 12.9777 15.5746 12.3054 15.5746L11.3338 15.6112C8.77321 15.6112 7.17821 15.5134 6.54877 15.3423C5.99877 15.1896 5.64432 14.8351 5.49155 14.2851C5.4121 13.9979 5.3571 13.6129 5.32043 13.124C5.27766 12.6351 5.25932 12.2134 5.25932 11.8468L5.22266 11.3334C5.22266 9.99511 5.32043 9.01122 5.49155 8.38178C5.64432 7.83178 5.99877 7.47733 6.54877 7.32455C6.83599 7.24511 7.36155 7.19011 8.16821 7.15344C8.96266 7.11066 9.68988 7.09233 10.3621 7.09233L11.3338 7.05566C13.8943 7.05566 15.4893 7.15344 16.1188 7.32455C16.6688 7.47733 17.0232 7.83178 17.176 8.38178Z" fill="white"/>
</svg>
