<svg width="7" height="13" viewBox="0 0 7 13" fill="none" xmlns="http://www.w3.org/2000/svg">
<path d="M6.73232 12.7138C6.90371 12.5306 7 12.282 7 12.0229C7 11.7637 6.90371 11.5152 6.73232 11.3319L2.2068 6.4941L6.73232 1.6563C6.89886 1.47197 6.99101 1.22509 6.98892 0.96884C6.98684 0.712586 6.89069 0.467458 6.72118 0.286253C6.55167 0.105047 6.32237 0.00226317 6.08266 3.64095e-05C5.84294 -0.00219036 5.612 0.0963193 5.43957 0.274349L0.267679 5.80312C0.0962839 5.9864 -2.9571e-07 6.23495 -2.84382e-07 6.4941C-2.73054e-07 6.75325 0.0962839 7.0018 0.267679 7.18507L5.43957 12.7138C5.61102 12.8971 5.84352 13 6.08595 13C6.32837 13 6.56087 12.8971 6.73232 12.7138Z" fill="white"/>
</svg>
