<svg width="17" height="13" viewBox="0 0 17 13" fill="none" xmlns="http://www.w3.org/2000/svg">
<path d="M5.81395 10.1626L15.1311 0.347439C15.351 0.115813 15.6075 0 15.9006 0C16.1938 0 16.4503 0.115813 16.6702 0.347439C16.8901 0.579065 17 0.854313 17 1.17318C17 1.49206 16.8901 1.76692 16.6702 1.99777L6.58351 12.6526C6.36364 12.8842 6.10712 13 5.81395 13C5.52079 13 5.26427 12.8842 5.0444 12.6526L0.317125 7.67261C0.0972517 7.44098 -0.00828753 7.16612 0.000507399 6.84802C0.00930233 6.52992 0.124003 6.25467 0.344609 6.02227C0.565215 5.78987 0.826498 5.67406 1.12846 5.67483C1.43042 5.6756 1.69133 5.79142 1.9112 6.02227L5.81395 10.1626Z" fill="#FFA700"/>
</svg>
