<svg width="22" height="22" viewBox="0 0 22 22" fill="none" xmlns="http://www.w3.org/2000/svg">
<rect width="22" height="22" rx="11" fill="#FFA700"/>
<path fill-rule="evenodd" clip-rule="evenodd" d="M6 10.8889C6 8.58439 6 7.43183 6.71622 6.71622C7.43244 6.00061 8.58439 6 10.8889 6H12.1111C14.4156 6 15.5682 6 16.2838 6.71622C16.9994 7.43244 17 8.58439 17 10.8889V12.1111C17 14.4156 17 15.5682 16.2838 16.2838C15.5676 16.9994 14.4156 17 12.1111 17H10.8889C8.58439 17 7.43183 17 6.71622 16.2838C6.00061 15.5676 6 14.4156 6 12.1111V10.8889ZM15.1667 8.75C15.1667 8.99312 15.0701 9.22627 14.8982 9.39818C14.7263 9.57009 14.4931 9.66667 14.25 9.66667C14.0069 9.66667 13.7737 9.57009 13.6018 9.39818C13.4299 9.22627 13.3333 8.99312 13.3333 8.75C13.3333 8.50688 13.4299 8.27373 13.6018 8.10182C13.7737 7.92991 14.0069 7.83333 14.25 7.83333C14.4931 7.83333 14.7263 7.92991 14.8982 8.10182C15.0701 8.27373 15.1667 8.50688 15.1667 8.75ZM12.7222 12.1111C12.7222 12.4353 12.5935 12.7461 12.3642 12.9754C12.135 13.2046 11.8242 13.3333 11.5 13.3333C11.1758 13.3333 10.865 13.2046 10.6358 12.9754C10.4065 12.7461 10.2778 12.4353 10.2778 12.1111C10.2778 11.787 10.4065 11.4761 10.6358 11.2469C10.865 11.0177 11.1758 10.8889 11.5 10.8889C11.8242 10.8889 12.135 11.0177 12.3642 11.2469C12.5935 11.4761 12.7222 11.787 12.7222 12.1111ZM13.9444 12.1111C13.9444 12.7594 13.6869 13.3812 13.2285 13.8396C12.7701 14.298 12.1483 14.5556 11.5 14.5556C10.8517 14.5556 10.2299 14.298 9.77152 13.8396C9.31309 13.3812 9.05556 12.7594 9.05556 12.1111C9.05556 11.4628 9.31309 10.8411 9.77152 10.3826C10.2299 9.92421 10.8517 9.66667 11.5 9.66667C12.1483 9.66667 12.7701 9.92421 13.2285 10.3826C13.6869 10.8411 13.9444 11.4628 13.9444 12.1111Z" fill="white"/>
</svg>
