<svg width="254" height="63" viewBox="0 0 254 63" fill="none" xmlns="http://www.w3.org/2000/svg">
<mask id="mask0_3_5462" style="mask-type:alpha" maskUnits="userSpaceOnUse" x="0" y="0" width="254" height="63">
<rect y="0.767578" width="254" height="62" rx="8" fill="#D9D9D9"/>
</mask>
<g mask="url(#mask0_3_5462)">
<path d="M248.92 -2.23242H5.08C2.27439 -2.23242 0 0.050926 0 2.86758V60.6676C0 63.4842 2.27439 65.7676 5.08 65.7676H248.92C251.726 65.7676 254 63.4842 254 60.6676V2.86758C254 0.050926 251.726 -2.23242 248.92 -2.23242Z" fill="#03C75A"/>
</g>
<path d="M57.9289 32.4816L50.3258 21.5676H44.0266V41.9676H50.6306V31.0536L58.2167 41.9676H64.5159V21.5676H57.9289V32.4816Z" fill="white"/>
<path d="M82.7532 35.6268V21.6358H84.836V33.7908H85.6149C86.9188 33.7908 88.1041 33.7058 89.1878 33.5188C90.2716 33.3318 91.1521 33.1618 91.8633 33.0088V34.7598C91.4908 34.8788 91.0336 34.9808 90.5425 35.0828C90.0345 35.1848 89.4926 35.2868 88.9169 35.3548C88.3412 35.4228 87.7485 35.5078 87.1558 35.5418C86.5632 35.5928 85.9705 35.6098 85.3948 35.6098H82.7701L82.7532 35.6268ZM93.3026 20.2418H95.3177V41.1858H93.3026V28.7078H88.6121V26.9228H93.3026V20.2418ZM100.144 41.7468H98.1117V20.0208H100.144V41.7468Z" fill="white"/>
<path d="M113.995 29.0137C113.995 30.2887 113.86 31.4107 113.572 32.3797C113.284 33.3487 112.894 34.1647 112.403 34.8277C111.912 35.4737 111.32 35.9667 110.625 36.3067C109.948 36.6467 109.22 36.7997 108.441 36.7997C107.662 36.7997 106.934 36.6297 106.274 36.3067C105.596 35.9667 105.004 35.4737 104.496 34.8277C103.988 34.1817 103.581 33.3657 103.293 32.3797C103.005 31.3937 102.853 30.2717 102.853 29.0137C102.853 27.7557 103.005 26.6167 103.293 25.6477C103.581 24.6787 103.988 23.8627 104.496 23.2167C105.004 22.5707 105.596 22.0777 106.274 21.7377C106.951 21.3977 107.679 21.2447 108.441 21.2447C109.203 21.2447 109.948 21.4147 110.625 21.7377C111.303 22.0607 111.895 22.5707 112.403 23.2167C112.894 23.8627 113.301 24.6787 113.572 25.6477C113.86 26.6167 113.995 27.7387 113.995 29.0137ZM111.912 29.0137C111.912 28.1297 111.828 27.3137 111.675 26.5827C111.523 25.8517 111.286 25.2227 110.998 24.7127C110.71 24.1857 110.338 23.7947 109.914 23.5057C109.474 23.2167 108.983 23.0807 108.424 23.0807C107.865 23.0807 107.374 23.2167 106.934 23.5057C106.494 23.7947 106.138 24.1857 105.85 24.7127C105.562 25.2397 105.325 25.8687 105.173 26.5827C105.02 27.3137 104.936 28.1127 104.936 29.0137C104.936 29.9147 105.02 30.7137 105.173 31.4447C105.325 32.1757 105.562 32.8047 105.85 33.3147C106.138 33.8417 106.511 34.2497 106.934 34.5387C107.374 34.8277 107.865 34.9807 108.424 34.9807C108.983 34.9807 109.474 34.8277 109.914 34.5387C110.354 34.2497 110.71 33.8417 110.998 33.3147C111.286 32.7877 111.523 32.1587 111.675 31.4447C111.828 30.7137 111.912 29.9147 111.912 29.0137ZM118.076 20.0037H120.108V41.7297H118.076V20.0037Z" fill="white"/>
<path d="M133.316 27.6538H138.396V20.0208H140.428V41.7468H138.396V29.4388H133.316V35.8138H123.647V21.6528H125.764V27.0248H131.318V21.6528H133.333V27.6538H133.316ZM131.318 28.7758H125.73V34.0798H131.318V28.7758Z" fill="white"/>
<path d="M151.604 33.0596V26.4976H163.102V23.3526H151.587V21.5676H165.151V28.1806H153.653V31.3256H165.862V33.0596H159.444V36.9356H168.453V38.6696H148.302V36.9356H157.311V33.0596H151.621H151.604Z" fill="white"/>
<path d="M183.49 23.7947H171.687V21.9587H185.572C185.539 23.1317 185.488 24.3557 185.403 25.6477C185.318 26.9227 185.2 28.2147 185.081 29.4897C184.946 30.7817 184.793 32.0397 184.624 33.2637C184.455 34.4877 184.285 35.6267 184.116 36.6807H188.739V38.4147H168.605V36.6807H182.016C182.406 34.7257 182.745 32.6347 183.015 30.4077C183.286 28.1807 183.439 25.9707 183.49 23.8117V23.7947Z" fill="white"/>
<path d="M189.687 26.4807C189.687 25.6817 189.823 24.9507 190.111 24.2707C190.398 23.5907 190.788 22.9957 191.296 22.5027C191.804 22.0097 192.397 21.6187 193.074 21.3467C193.751 21.0747 194.496 20.9217 195.292 20.9217C196.088 20.9217 196.85 21.0577 197.544 21.3467C198.239 21.6187 198.831 22.0097 199.339 22.5027C199.847 22.9957 200.237 23.5737 200.525 24.2707C200.812 24.9507 200.948 25.6987 200.948 26.4807C200.948 27.2627 200.812 27.9767 200.525 28.6397C200.237 29.3027 199.847 29.8807 199.339 30.3567C198.831 30.8497 198.239 31.2237 197.544 31.4957C196.85 31.7677 196.105 31.9207 195.292 31.9207C194.479 31.9207 193.751 31.7847 193.074 31.4957C192.397 31.2067 191.804 30.8327 191.296 30.3567C190.788 29.8807 190.398 29.3027 190.111 28.6397C189.823 27.9767 189.687 27.2457 189.687 26.4807ZM191.855 26.4637C191.855 26.9907 191.939 27.4667 192.109 27.9257C192.278 28.3847 192.515 28.7587 192.82 29.0817C193.125 29.4047 193.497 29.6427 193.921 29.8297C194.344 30.0167 194.818 30.1017 195.343 30.1017C195.868 30.1017 196.342 30.0167 196.765 29.8297C197.189 29.6427 197.561 29.4047 197.866 29.0817C198.171 28.7587 198.408 28.3847 198.594 27.9257C198.78 27.4667 198.848 26.9907 198.848 26.4637C198.848 25.9027 198.764 25.4097 198.594 24.9507C198.425 24.4917 198.188 24.1007 197.866 23.7607C197.544 23.4207 197.189 23.1657 196.765 22.9957C196.342 22.8087 195.868 22.7237 195.343 22.7237C194.818 22.7237 194.344 22.8087 193.921 22.9957C193.497 23.1827 193.125 23.4377 192.82 23.7607C192.515 24.1007 192.278 24.4917 192.109 24.9507C191.939 25.4097 191.855 25.9197 191.855 26.4637ZM207.416 41.3047H193.413V34.5727H195.495V39.5197H207.416V41.3047ZM206.908 35.7117H204.893V20.0037H206.908V35.7117Z" fill="white"/>
</svg>
