<svg width="120" height="40" viewBox="0 0 120 40" fill="none" xmlns="http://www.w3.org/2000/svg">
<g clip-path="url(#clip0_3_5133)">
<path d="M105.18 2.03575V0.564941H101.371C100.016 0.564941 98.9141 1.59794 98.9141 2.869C98.9141 4.14007 100.016 5.17306 101.371 5.17306H105.18V2.03575Z" fill="white"/>
<path d="M38.732 5.76218H44.0638V22.512H38.7018L38.2199 21.1562C37.3764 21.8059 36.4125 22.286 35.3883 22.625C34.3039 22.9357 33.2194 23.0769 32.1049 23.0769C30.6891 23.0487 29.3938 22.8227 28.2491 22.3708C27.0743 21.9188 26.0802 21.2974 25.2368 20.5066C24.3933 19.7157 23.7306 18.7836 23.2788 17.7102C22.7968 16.6369 22.5859 15.4788 22.5859 14.1795C22.5859 12.8802 22.8269 11.6656 23.339 10.5357C23.821 9.4624 24.4837 8.50204 25.3573 7.71115C26.2007 6.92027 27.1948 6.29886 28.3696 5.84692C29.5143 5.42323 30.7493 5.19727 32.0747 5.19727C33.2194 5.19727 34.334 5.3385 35.3582 5.62095C36.3824 5.90341 37.3162 6.35535 38.1897 6.94851L38.732 5.76218ZM33.0387 18.2186C34.3039 18.2186 35.2979 17.8514 36.0811 17.0888C36.8342 16.3544 37.2258 15.3658 37.2258 14.1795C37.2258 12.9931 36.8342 11.948 36.0811 11.1854C35.2979 10.451 34.3039 10.0838 33.0387 10.0838C31.7735 10.0838 30.7493 10.451 29.9962 11.1854C29.213 11.948 28.8516 12.9366 28.8516 14.1795C28.8516 15.4223 29.213 16.3544 29.9962 17.0888C30.7493 17.8514 31.7735 18.2186 33.0387 18.2186Z" fill="white"/>
<path d="M52.8297 7.23099C53.2815 6.75081 53.8539 6.38362 54.5768 6.1294C55.2697 5.90344 55.9926 5.76221 56.7758 5.76221H60.6919L59.6074 10.6205H55.9926C55.6312 10.6205 55.2697 10.7052 54.9684 10.8465C54.6371 11.0159 54.366 11.2137 54.125 11.4679C53.884 11.7503 53.6731 12.061 53.5527 12.4C53.402 12.7672 53.3418 13.1626 53.3418 13.5581V22.512H47.0762V5.76221H52.4381L52.8297 7.23099Z" fill="white"/>
<path d="M75.8737 0H82.1092V22.512H76.7472L76.2653 21.1562C75.4218 21.8058 74.4579 22.286 73.4337 22.625C72.3493 22.9357 71.2648 23.0769 70.1503 23.0769C68.7345 23.0487 67.4392 22.8227 66.2945 22.3708C65.1197 21.9188 64.1256 21.2974 63.2822 20.5065C62.4387 19.7157 61.776 18.7835 61.3242 17.7102C60.8422 16.6368 60.6313 15.4788 60.6313 14.1795C60.6313 12.8801 60.8723 11.6656 61.3844 10.5357C61.8664 9.46238 62.5291 8.50202 63.4027 7.71114C64.2461 6.92025 65.2402 6.29884 66.415 5.84691C67.5597 5.42322 68.7947 5.19725 70.1202 5.19725C71.2046 5.19725 72.2288 5.33848 73.1927 5.56445C74.1265 5.81866 75.0302 6.2141 75.8737 6.72253V0ZM71.0841 18.2186C72.3493 18.2186 73.3433 17.8514 74.1265 17.0888C74.8796 16.3544 75.2712 15.3658 75.2712 14.1795C75.2712 12.9931 74.8796 11.948 74.1265 11.1854C73.3433 10.451 72.3493 10.0838 71.0841 10.0838C69.8189 10.0838 68.7947 10.451 68.0417 11.1854C67.2584 11.948 66.897 12.9366 66.897 14.1795C66.897 15.4223 67.2584 16.3544 68.0417 17.0888C68.7947 17.8514 69.8189 18.2186 71.0841 18.2186Z" fill="white"/>
<path d="M93.6122 23.0769H87.3466V11.7503H84.0933V6.89203H87.3466V5.56447C87.3466 4.83008 87.4972 4.12393 87.7984 3.50252C88.0695 2.88111 88.4611 2.37268 89.0033 1.92075C89.4853 1.49706 90.0878 1.15811 90.7505 0.903892C91.4132 0.677925 92.106 0.564941 92.8892 0.564941H98.0102V5.42324H95.2087C94.6966 5.42324 94.305 5.56447 94.0339 5.81868C93.7327 6.10114 93.6122 6.46834 93.6122 6.89203H97.7089V11.7503H93.6122V23.0769Z" fill="white"/>
<path d="M105.18 6.32715H98.9141V23.077H105.18V6.32715Z" fill="white"/>
<path d="M110.481 0.564941H116.747V6.32711H120V11.1854H116.747V18.0774C116.747 18.8683 116.596 19.5462 116.295 20.1676C116.024 20.7608 115.632 21.2692 115.09 21.7211C114.608 22.1448 114.005 22.4838 113.343 22.738C112.68 22.964 111.987 23.0769 111.204 23.0769H106.083V18.2186H108.884C109.397 18.2186 109.788 18.0774 110.059 17.795C110.361 17.5407 110.481 17.1735 110.481 16.7216V11.1854H106.384V6.32711H110.481V0.564941Z" fill="white"/>
<path d="M9.50374 17.2679C7.84482 17.2679 6.49573 15.8314 6.49573 14.064C6.49573 12.2966 7.84482 10.8601 9.50374 10.8601H21.0269V5.21094H9.50374C4.92072 5.21296 1.19189 9.18352 1.19189 14.064C1.19189 18.9445 4.92072 22.9171 9.50374 22.9171H21.0269V17.2679H9.50374Z" fill="white"/>
</g>
<path d="M87.7847 34.0498C87.9617 33.6575 88.2309 33.3536 88.5924 33.1383C88.9617 32.9229 89.4117 32.8152 89.9424 32.8152V33.6575H89.7232C89.1386 33.6575 88.6694 33.8152 88.3155 34.1306C87.9617 34.446 87.7847 34.9729 87.7847 35.7113V39.2306H86.9771V32.9306H87.7847V34.0498Z" fill="white"/>
<path d="M85.4994 35.7576C85.4994 36.0345 85.4917 36.2461 85.4763 36.3922H80.2494C80.2725 36.8691 80.3879 37.2768 80.5956 37.6153C80.8033 37.9538 81.0763 38.2115 81.4148 38.3884C81.7533 38.5576 82.1225 38.6422 82.5225 38.6422C83.0456 38.6422 83.484 38.5153 83.8379 38.2615C84.1994 38.0076 84.4379 37.6653 84.5533 37.2345H85.4071C85.2533 37.8499 84.9225 38.3538 84.4148 38.7461C83.9148 39.1307 83.284 39.323 82.5225 39.323C81.9302 39.323 81.3994 39.1922 80.9302 38.9307C80.4609 38.6615 80.0917 38.2845 79.8225 37.7999C79.5609 37.3076 79.4302 36.7345 79.4302 36.0807C79.4302 35.4268 79.5609 34.8538 79.8225 34.3615C80.084 33.8691 80.4494 33.4922 80.9186 33.2307C81.3879 32.9691 81.9225 32.8384 82.5225 32.8384C83.1225 32.8384 83.6456 32.9691 84.0917 33.2307C84.5456 33.4922 84.8917 33.8461 85.1302 34.2922C85.3763 34.7307 85.4994 35.2191 85.4994 35.7576ZM84.6802 35.7345C84.6879 35.2653 84.5917 34.8653 84.3917 34.5345C84.1994 34.2038 83.934 33.9538 83.5956 33.7845C83.2571 33.6153 82.8879 33.5307 82.4879 33.5307C81.8879 33.5307 81.3763 33.723 80.9533 34.1076C80.5302 34.4922 80.2956 35.0345 80.2494 35.7345H84.6802Z" fill="white"/>
<path d="M76.7362 33.6114V37.5229C76.7362 37.9075 76.8093 38.1729 76.9554 38.3191C77.1016 38.4652 77.3593 38.5383 77.7285 38.5383H78.467V39.2306H77.6016C77.0323 39.2306 76.6093 39.0999 76.3323 38.8383C76.0554 38.5691 75.917 38.1306 75.917 37.5229V33.6114H75.04V32.9306H75.917V31.3499H76.7362V32.9306H78.467V33.6114H76.7362Z" fill="white"/>
<path d="M71.3386 32.8152C72.0925 32.8152 72.7078 33.0498 73.1848 33.519C73.6617 33.9806 73.9002 34.6536 73.9002 35.5383V39.2306H73.104V35.6306C73.104 34.946 72.9309 34.4229 72.5848 34.0613C72.2463 33.6998 71.7809 33.519 71.1886 33.519C70.5809 33.519 70.0963 33.7113 69.7348 34.096C69.3732 34.4806 69.1925 35.046 69.1925 35.7921V39.2306H68.3848V32.9306H69.1925V34.0036C69.3925 33.619 69.6809 33.3267 70.0578 33.1267C70.4348 32.919 70.8617 32.8152 71.3386 32.8152Z" fill="white"/>
<path d="M66.9071 35.7576C66.9071 36.0345 66.8994 36.2461 66.884 36.3922H61.6571C61.6802 36.8691 61.7956 37.2768 62.0033 37.6153C62.211 37.9538 62.484 38.2115 62.8225 38.3884C63.161 38.5576 63.5302 38.6422 63.9302 38.6422C64.4533 38.6422 64.8917 38.5153 65.2456 38.2615C65.6071 38.0076 65.8456 37.6653 65.961 37.2345H66.8148C66.661 37.8499 66.3302 38.3538 65.8225 38.7461C65.3225 39.1307 64.6917 39.323 63.9302 39.323C63.3379 39.323 62.8071 39.1922 62.3379 38.9307C61.8687 38.6615 61.4994 38.2845 61.2302 37.7999C60.9687 37.3076 60.8379 36.7345 60.8379 36.0807C60.8379 35.4268 60.9687 34.8538 61.2302 34.3615C61.4917 33.8691 61.8571 33.4922 62.3264 33.2307C62.7956 32.9691 63.3302 32.8384 63.9302 32.8384C64.5302 32.8384 65.0533 32.9691 65.4994 33.2307C65.9533 33.4922 66.2994 33.8461 66.5379 34.2922C66.784 34.7307 66.9071 35.2191 66.9071 35.7576ZM66.0879 35.7345C66.0956 35.2653 65.9994 34.8653 65.7994 34.5345C65.6071 34.2038 65.3417 33.9538 65.0033 33.7845C64.6648 33.6153 64.2956 33.5307 63.8956 33.5307C63.2956 33.5307 62.784 33.723 62.361 34.1076C61.9379 34.4922 61.7033 35.0345 61.6571 35.7345H66.0879Z" fill="white"/>
<path d="M53.7617 36.0807C53.7617 35.4268 53.8925 34.8576 54.154 34.373C54.4156 33.8807 54.7771 33.5038 55.2386 33.2422C55.7002 32.973 56.2271 32.8384 56.8194 32.8384C57.5963 32.8384 58.2348 33.0307 58.7348 33.4153C59.2425 33.7999 59.5694 34.323 59.7156 34.9845H58.8502C58.7425 34.5307 58.5079 34.1768 58.1463 33.923C57.7925 33.6615 57.3502 33.5307 56.8194 33.5307C56.3963 33.5307 56.0156 33.6268 55.6771 33.8191C55.3386 34.0115 55.0694 34.2999 54.8694 34.6845C54.6771 35.0615 54.581 35.5268 54.581 36.0807C54.581 36.6345 54.6771 37.1038 54.8694 37.4884C55.0694 37.873 55.3386 38.1615 55.6771 38.3538C56.0156 38.5461 56.3963 38.6422 56.8194 38.6422C57.3502 38.6422 57.7925 38.5153 58.1463 38.2615C58.5079 37.9999 58.7425 37.6384 58.8502 37.1768H59.7156C59.5694 37.823 59.2425 38.3422 58.7348 38.7345C58.2271 39.1268 57.5886 39.323 56.8194 39.323C56.2271 39.323 55.7002 39.1922 55.2386 38.9307C54.7771 38.6615 54.4156 38.2845 54.154 37.7999C53.8925 37.3076 53.7617 36.7345 53.7617 36.0807Z" fill="white"/>
<path d="M47.2518 39.323C46.5288 39.323 45.9365 39.1576 45.4749 38.8268C45.0211 38.4884 44.7672 38.0307 44.7134 37.4538H45.5441C45.5826 37.8076 45.748 38.0961 46.0403 38.3191C46.3403 38.5345 46.7403 38.6422 47.2403 38.6422C47.6788 38.6422 48.0211 38.5384 48.2672 38.3307C48.5211 38.123 48.648 37.8653 48.648 37.5576C48.648 37.3422 48.5788 37.1653 48.4403 37.0268C48.3018 36.8884 48.1249 36.7807 47.9095 36.7038C47.7018 36.6191 47.4172 36.5307 47.0557 36.4384C46.5865 36.3153 46.2057 36.1922 45.9134 36.0691C45.6211 35.9461 45.3711 35.7653 45.1634 35.5268C44.9634 35.2807 44.8634 34.9538 44.8634 34.5461C44.8634 34.2384 44.9557 33.9538 45.1403 33.6922C45.3249 33.4307 45.5865 33.223 45.9249 33.0691C46.2634 32.9153 46.648 32.8384 47.0788 32.8384C47.7557 32.8384 48.3018 33.0115 48.7172 33.3576C49.1326 33.6961 49.3557 34.1653 49.3865 34.7653H48.5788C48.5557 34.3961 48.4095 34.0999 48.1403 33.8768C47.8788 33.6461 47.5172 33.5307 47.0557 33.5307C46.648 33.5307 46.3172 33.6268 46.0634 33.8191C45.8095 34.0115 45.6826 34.2499 45.6826 34.5345C45.6826 34.7807 45.7557 34.9845 45.9018 35.1461C46.0557 35.2999 46.2441 35.423 46.4672 35.5153C46.6903 35.5999 46.9903 35.6961 47.3672 35.8038C47.8211 35.9268 48.1826 36.0461 48.4518 36.1615C48.7211 36.2768 48.9518 36.4461 49.1441 36.6691C49.3365 36.8922 49.4365 37.1884 49.4441 37.5576C49.4441 37.8961 49.3518 38.1999 49.1672 38.4691C48.9826 38.7307 48.7249 38.9384 48.3941 39.0922C48.0634 39.2461 47.6826 39.323 47.2518 39.323Z" fill="white"/>
<path d="M36.9268 36.0693C36.9268 35.4232 37.0575 34.8578 37.3191 34.3732C37.5806 33.8808 37.9383 33.5039 38.3921 33.2424C38.8537 32.9732 39.3729 32.8385 39.9498 32.8385C40.5037 32.8385 41.0037 32.9732 41.4498 33.2424C41.896 33.5116 42.2229 33.8616 42.4306 34.2924V30.6924H43.2383V39.2308H42.4306V37.8231C42.2383 38.2616 41.9229 38.6231 41.4845 38.9078C41.046 39.1847 40.5306 39.3231 39.9383 39.3231C39.3614 39.3231 38.8421 39.1885 38.3806 38.9193C37.9268 38.6501 37.5691 38.2693 37.3075 37.777C37.0537 37.2847 36.9268 36.7155 36.9268 36.0693ZM42.4306 36.0808C42.4306 35.5732 42.3268 35.127 42.1191 34.7424C41.9114 34.3578 41.6268 34.0616 41.2652 33.8539C40.9114 33.6462 40.5191 33.5424 40.0883 33.5424C39.6421 33.5424 39.2421 33.6424 38.8883 33.8424C38.5345 34.0424 38.2537 34.3347 38.046 34.7193C37.846 35.0962 37.746 35.5462 37.746 36.0693C37.746 36.5847 37.846 37.0385 38.046 37.4308C38.2537 37.8155 38.5345 38.1116 38.8883 38.3193C39.2421 38.5193 39.6421 38.6193 40.0883 38.6193C40.5191 38.6193 40.9114 38.5155 41.2652 38.3078C41.6268 38.1001 41.9114 37.8039 42.1191 37.4193C42.3268 37.0347 42.4306 36.5885 42.4306 36.0808Z" fill="white"/>
<path d="M34.4423 37.3154H30.773L30.0692 39.2308H29.2153L32.1576 31.2693H33.0692L35.9999 39.2308H35.1461L34.4423 37.3154ZM34.1999 36.6462L32.6076 32.2847L31.0153 36.6462H34.1999Z" fill="white"/>
<defs>
<clipPath id="clip0_3_5133">
<rect width="120" height="23.0769" fill="white"/>
</clipPath>
</defs>
</svg>
