<svg width="120" height="40" viewBox="0 0 120 40" fill="none" xmlns="http://www.w3.org/2000/svg">
<g clip-path="url(#clip0_3_5422)">
<path d="M105.18 2.03575V0.564941H101.371C100.016 0.564941 98.9141 1.59794 98.9141 2.869C98.9141 4.14007 100.016 5.17306 101.371 5.17306H105.18V2.03575Z" fill="black"/>
<path d="M38.732 5.76218H44.0638V22.512H38.7018L38.2199 21.1562C37.3764 21.8059 36.4125 22.286 35.3883 22.625C34.3039 22.9357 33.2194 23.0769 32.1049 23.0769C30.6891 23.0487 29.3938 22.8227 28.2491 22.3708C27.0743 21.9188 26.0802 21.2974 25.2368 20.5066C24.3933 19.7157 23.7306 18.7836 23.2788 17.7102C22.7968 16.6369 22.5859 15.4788 22.5859 14.1795C22.5859 12.8802 22.8269 11.6656 23.339 10.5357C23.821 9.4624 24.4837 8.50204 25.3573 7.71115C26.2007 6.92027 27.1948 6.29886 28.3696 5.84692C29.5143 5.42323 30.7493 5.19727 32.0747 5.19727C33.2194 5.19727 34.334 5.3385 35.3582 5.62095C36.3824 5.90341 37.3162 6.35535 38.1897 6.94851L38.732 5.76218ZM33.0387 18.2186C34.3039 18.2186 35.2979 17.8514 36.0811 17.0888C36.8342 16.3544 37.2258 15.3658 37.2258 14.1795C37.2258 12.9931 36.8342 11.948 36.0811 11.1854C35.2979 10.451 34.3039 10.0838 33.0387 10.0838C31.7735 10.0838 30.7493 10.451 29.9962 11.1854C29.213 11.948 28.8516 12.9366 28.8516 14.1795C28.8516 15.4223 29.213 16.3544 29.9962 17.0888C30.7493 17.8514 31.7735 18.2186 33.0387 18.2186Z" fill="black"/>
<path d="M52.8297 7.23099C53.2815 6.75081 53.8539 6.38362 54.5768 6.1294C55.2697 5.90344 55.9926 5.76221 56.7758 5.76221H60.6919L59.6074 10.6205H55.9926C55.6312 10.6205 55.2697 10.7052 54.9684 10.8465C54.6371 11.0159 54.366 11.2137 54.125 11.4679C53.884 11.7503 53.6731 12.061 53.5527 12.4C53.402 12.7672 53.3418 13.1626 53.3418 13.5581V22.512H47.0762V5.76221H52.4381L52.8297 7.23099Z" fill="black"/>
<path d="M75.8742 0H82.1097V22.512H76.7477L76.2658 21.1562C75.4223 21.8058 74.4584 22.286 73.4342 22.625C72.3498 22.9357 71.2653 23.0769 70.1508 23.0769C68.735 23.0487 67.4397 22.8227 66.295 22.3708C65.1202 21.9188 64.1261 21.2974 63.2827 20.5065C62.4392 19.7157 61.7765 18.7835 61.3247 17.7102C60.8427 16.6368 60.6318 15.4788 60.6318 14.1795C60.6318 12.8801 60.8728 11.6656 61.3849 10.5357C61.8669 9.46238 62.5296 8.50202 63.4032 7.71114C64.2466 6.92025 65.2407 6.29884 66.4155 5.84691C67.5602 5.42322 68.7952 5.19725 70.1206 5.19725C71.2051 5.19725 72.2293 5.33848 73.1932 5.56445C74.127 5.81866 75.0307 6.2141 75.8742 6.72253V0ZM71.0846 18.2186C72.3498 18.2186 73.3438 17.8514 74.127 17.0888C74.8801 16.3544 75.2717 15.3658 75.2717 14.1795C75.2717 12.9931 74.8801 11.948 74.127 11.1854C73.3438 10.451 72.3498 10.0838 71.0846 10.0838C69.8194 10.0838 68.7952 10.451 68.0421 11.1854C67.2589 11.948 66.8975 12.9366 66.8975 14.1795C66.8975 15.4223 67.2589 16.3544 68.0421 17.0888C68.7952 17.8514 69.8194 18.2186 71.0846 18.2186Z" fill="black"/>
<path d="M93.6117 23.0769H87.3461V11.7503H84.0928V6.89203H87.3461V5.56447C87.3461 4.83008 87.4967 4.12393 87.7979 3.50252C88.069 2.88111 88.4606 2.37268 89.0029 1.92075C89.4848 1.49706 90.0873 1.15811 90.75 0.903892C91.4127 0.677925 92.1055 0.564941 92.8887 0.564941H98.0097V5.42324H95.2082C94.6961 5.42324 94.3045 5.56447 94.0334 5.81868C93.7322 6.10114 93.6117 6.46834 93.6117 6.89203H97.7085V11.7503H93.6117V23.0769Z" fill="black"/>
<path d="M105.18 6.32715H98.9141V23.077H105.18V6.32715Z" fill="black"/>
<path d="M110.481 0.564941H116.747V6.32711H120V11.1854H116.747V18.0774C116.747 18.8683 116.596 19.5462 116.295 20.1676C116.024 20.7608 115.632 21.2692 115.09 21.7211C114.608 22.1448 114.005 22.4838 113.343 22.738C112.68 22.964 111.987 23.0769 111.204 23.0769H106.083V18.2186H108.884C109.397 18.2186 109.788 18.0774 110.059 17.795C110.361 17.5407 110.481 17.1735 110.481 16.7216V11.1854H106.384V6.32711H110.481V0.564941Z" fill="black"/>
<path d="M9.50423 17.2679C7.84531 17.2679 6.49621 15.8314 6.49621 14.064C6.49621 12.2966 7.84531 10.8601 9.50423 10.8601H21.0274V5.21094H9.50423C4.92121 5.21296 1.19238 9.18352 1.19238 14.064C1.19238 18.9445 4.92121 22.9171 9.50423 22.9171H21.0274V17.2679H9.50423Z" fill="black"/>
</g>
<path d="M87.7852 34.0498C87.9622 33.6575 88.2314 33.3536 88.5929 33.1383C88.9622 32.9229 89.4122 32.8152 89.9429 32.8152V33.6575H89.7237C89.1391 33.6575 88.6698 33.8152 88.316 34.1306C87.9622 34.446 87.7852 34.9729 87.7852 35.7113V39.2306H86.9775V32.9306H87.7852V34.0498Z" fill="black"/>
<path d="M85.4999 35.7576C85.4999 36.0345 85.4922 36.2461 85.4768 36.3922H80.2499C80.273 36.8691 80.3884 37.2768 80.5961 37.6153C80.8037 37.9538 81.0768 38.2115 81.4153 38.3884C81.7537 38.5576 82.123 38.6422 82.523 38.6422C83.046 38.6422 83.4845 38.5153 83.8384 38.2615C84.1999 38.0076 84.4384 37.6653 84.5537 37.2345H85.4076C85.2537 37.8499 84.923 38.3538 84.4153 38.7461C83.9153 39.1307 83.2845 39.323 82.523 39.323C81.9307 39.323 81.3999 39.1922 80.9307 38.9307C80.4614 38.6615 80.0922 38.2845 79.823 37.7999C79.5614 37.3076 79.4307 36.7345 79.4307 36.0807C79.4307 35.4268 79.5614 34.8538 79.823 34.3615C80.0845 33.8691 80.4499 33.4922 80.9191 33.2307C81.3884 32.9691 81.923 32.8384 82.523 32.8384C83.123 32.8384 83.646 32.9691 84.0922 33.2307C84.546 33.4922 84.8922 33.8461 85.1307 34.2922C85.3768 34.7307 85.4999 35.2191 85.4999 35.7576ZM84.6807 35.7345C84.6884 35.2653 84.5922 34.8653 84.3922 34.5345C84.1999 34.2038 83.9345 33.9538 83.596 33.7845C83.2576 33.6153 82.8884 33.5307 82.4884 33.5307C81.8884 33.5307 81.3768 33.723 80.9537 34.1076C80.5307 34.4922 80.296 35.0345 80.2499 35.7345H84.6807Z" fill="black"/>
<path d="M76.7372 33.6114V37.5229C76.7372 37.9075 76.8102 38.1729 76.9564 38.3191C77.1026 38.4652 77.3602 38.5383 77.7295 38.5383H78.4679V39.2306H77.6026C77.0333 39.2306 76.6102 39.0999 76.3333 38.8383C76.0564 38.5691 75.9179 38.1306 75.9179 37.5229V33.6114H75.041V32.9306H75.9179V31.3499H76.7372V32.9306H78.4679V33.6114H76.7372Z" fill="black"/>
<path d="M71.3386 32.8152C72.0925 32.8152 72.7078 33.0498 73.1848 33.519C73.6617 33.9806 73.9002 34.6536 73.9002 35.5383V39.2306H73.104V35.6306C73.104 34.946 72.9309 34.4229 72.5848 34.0613C72.2463 33.6998 71.7809 33.519 71.1886 33.519C70.5809 33.519 70.0963 33.7113 69.7348 34.096C69.3732 34.4806 69.1925 35.046 69.1925 35.7921V39.2306H68.3848V32.9306H69.1925V34.0036C69.3925 33.619 69.6809 33.3267 70.0578 33.1267C70.4348 32.919 70.8617 32.8152 71.3386 32.8152Z" fill="black"/>
<path d="M66.9071 35.7576C66.9071 36.0345 66.8994 36.2461 66.884 36.3922H61.6571C61.6802 36.8691 61.7956 37.2768 62.0033 37.6153C62.211 37.9538 62.484 38.2115 62.8225 38.3884C63.161 38.5576 63.5302 38.6422 63.9302 38.6422C64.4533 38.6422 64.8917 38.5153 65.2456 38.2615C65.6071 38.0076 65.8456 37.6653 65.961 37.2345H66.8148C66.661 37.8499 66.3302 38.3538 65.8225 38.7461C65.3225 39.1307 64.6917 39.323 63.9302 39.323C63.3379 39.323 62.8071 39.1922 62.3379 38.9307C61.8687 38.6615 61.4994 38.2845 61.2302 37.7999C60.9687 37.3076 60.8379 36.7345 60.8379 36.0807C60.8379 35.4268 60.9687 34.8538 61.2302 34.3615C61.4917 33.8691 61.8571 33.4922 62.3264 33.2307C62.7956 32.9691 63.3302 32.8384 63.9302 32.8384C64.5302 32.8384 65.0533 32.9691 65.4994 33.2307C65.9533 33.4922 66.2994 33.8461 66.5379 34.2922C66.784 34.7307 66.9071 35.2191 66.9071 35.7576ZM66.0879 35.7345C66.0956 35.2653 65.9994 34.8653 65.7994 34.5345C65.6071 34.2038 65.3417 33.9538 65.0033 33.7845C64.6648 33.6153 64.2956 33.5307 63.8956 33.5307C63.2956 33.5307 62.784 33.723 62.361 34.1076C61.9379 34.4922 61.7033 35.0345 61.6571 35.7345H66.0879Z" fill="black"/>
<path d="M53.7617 36.0807C53.7617 35.4268 53.8925 34.8576 54.154 34.373C54.4156 33.8807 54.7771 33.5038 55.2386 33.2422C55.7002 32.973 56.2271 32.8384 56.8194 32.8384C57.5963 32.8384 58.2348 33.0307 58.7348 33.4153C59.2425 33.7999 59.5694 34.323 59.7156 34.9845H58.8502C58.7425 34.5307 58.5079 34.1768 58.1463 33.923C57.7925 33.6615 57.3502 33.5307 56.8194 33.5307C56.3963 33.5307 56.0156 33.6268 55.6771 33.8191C55.3386 34.0115 55.0694 34.2999 54.8694 34.6845C54.6771 35.0615 54.581 35.5268 54.581 36.0807C54.581 36.6345 54.6771 37.1038 54.8694 37.4884C55.0694 37.873 55.3386 38.1615 55.6771 38.3538C56.0156 38.5461 56.3963 38.6422 56.8194 38.6422C57.3502 38.6422 57.7925 38.5153 58.1463 38.2615C58.5079 37.9999 58.7425 37.6384 58.8502 37.1768H59.7156C59.5694 37.823 59.2425 38.3422 58.7348 38.7345C58.2271 39.1268 57.5886 39.323 56.8194 39.323C56.2271 39.323 55.7002 39.1922 55.2386 38.9307C54.7771 38.6615 54.4156 38.2845 54.154 37.7999C53.8925 37.3076 53.7617 36.7345 53.7617 36.0807Z" fill="black"/>
<path d="M47.2523 39.323C46.5293 39.323 45.9369 39.1576 45.4754 38.8268C45.0216 38.4884 44.7677 38.0307 44.7139 37.4538H45.5446C45.5831 37.8076 45.7485 38.0961 46.0408 38.3191C46.3408 38.5345 46.7408 38.6422 47.2408 38.6422C47.6793 38.6422 48.0216 38.5384 48.2677 38.3307C48.5216 38.123 48.6485 37.8653 48.6485 37.5576C48.6485 37.3422 48.5793 37.1653 48.4408 37.0268C48.3023 36.8884 48.1254 36.7807 47.91 36.7038C47.7023 36.6191 47.4177 36.5307 47.0562 36.4384C46.5869 36.3153 46.2062 36.1922 45.9139 36.0691C45.6216 35.9461 45.3716 35.7653 45.1639 35.5268C44.9639 35.2807 44.8639 34.9538 44.8639 34.5461C44.8639 34.2384 44.9562 33.9538 45.1408 33.6922C45.3254 33.4307 45.5869 33.223 45.9254 33.0691C46.2639 32.9153 46.6485 32.8384 47.0793 32.8384C47.7562 32.8384 48.3023 33.0115 48.7177 33.3576C49.1331 33.6961 49.3562 34.1653 49.3869 34.7653H48.5793C48.5562 34.3961 48.41 34.0999 48.1408 33.8768C47.8793 33.6461 47.5177 33.5307 47.0562 33.5307C46.6485 33.5307 46.3177 33.6268 46.0639 33.8191C45.81 34.0115 45.6831 34.2499 45.6831 34.5345C45.6831 34.7807 45.7562 34.9845 45.9023 35.1461C46.0562 35.2999 46.2446 35.423 46.4677 35.5153C46.6908 35.5999 46.9908 35.6961 47.3677 35.8038C47.8216 35.9268 48.1831 36.0461 48.4523 36.1615C48.7216 36.2768 48.9523 36.4461 49.1446 36.6691C49.3369 36.8922 49.4369 37.1884 49.4446 37.5576C49.4446 37.8961 49.3523 38.1999 49.1677 38.4691C48.9831 38.7307 48.7254 38.9384 48.3946 39.0922C48.0639 39.2461 47.6831 39.323 47.2523 39.323Z" fill="black"/>
<path d="M36.9277 36.0693C36.9277 35.4232 37.0585 34.8578 37.32 34.3732C37.5816 33.8808 37.9393 33.5039 38.3931 33.2424C38.8547 32.9732 39.3739 32.8385 39.9508 32.8385C40.5047 32.8385 41.0047 32.9732 41.4508 33.2424C41.897 33.5116 42.2239 33.8616 42.4316 34.2924V30.6924H43.2393V39.2308H42.4316V37.8231C42.2393 38.2616 41.9239 38.6231 41.4854 38.9078C41.047 39.1847 40.5316 39.3231 39.9393 39.3231C39.3623 39.3231 38.8431 39.1885 38.3816 38.9193C37.9277 38.6501 37.57 38.2693 37.3085 37.777C37.0547 37.2847 36.9277 36.7155 36.9277 36.0693ZM42.4316 36.0808C42.4316 35.5732 42.3277 35.127 42.12 34.7424C41.9124 34.3578 41.6277 34.0616 41.2662 33.8539C40.9123 33.6462 40.52 33.5424 40.0893 33.5424C39.6431 33.5424 39.2431 33.6424 38.8893 33.8424C38.5354 34.0424 38.2547 34.3347 38.047 34.7193C37.847 35.0962 37.747 35.5462 37.747 36.0693C37.747 36.5847 37.847 37.0385 38.047 37.4308C38.2547 37.8155 38.5354 38.1116 38.8893 38.3193C39.2431 38.5193 39.6431 38.6193 40.0893 38.6193C40.52 38.6193 40.9123 38.5155 41.2662 38.3078C41.6277 38.1001 41.9124 37.8039 42.12 37.4193C42.3277 37.0347 42.4316 36.5885 42.4316 36.0808Z" fill="black"/>
<path d="M34.4427 37.3154H30.7735L30.0697 39.2308H29.2158L32.1581 31.2693H33.0697L36.0004 39.2308H35.1466L34.4427 37.3154ZM34.2004 36.6462L32.6081 32.2847L31.0158 36.6462H34.2004Z" fill="black"/>
<defs>
<clipPath id="clip0_3_5422">
<rect width="120" height="23.0769" fill="white"/>
</clipPath>
</defs>
</svg>
