<svg width="176" height="53" viewBox="0 0 176 53" fill="none" xmlns="http://www.w3.org/2000/svg">
<path d="M129.387 44.9897C129.648 44.4111 130.045 43.9629 130.579 43.6452C131.123 43.3275 131.787 43.1687 132.57 43.1687V44.4111H132.246C131.384 44.4111 130.692 44.6437 130.17 45.1088C129.648 45.574 129.387 46.3512 129.387 47.4404V52.6311H128.196V43.3389H129.387V44.9897Z" fill="#FFA700"/>
<path d="M126.016 47.5086C126.016 47.9171 126.005 48.2291 125.982 48.4446H118.273C118.307 49.1481 118.477 49.7494 118.783 50.2486C119.09 50.7479 119.492 51.1279 119.992 51.3889C120.491 51.6385 121.035 51.7633 121.625 51.7633C122.397 51.7633 123.044 51.5761 123.566 51.2017C124.099 50.8273 124.451 50.3224 124.621 49.687H125.88C125.653 50.5947 125.165 51.3378 124.417 51.9165C123.679 52.4838 122.749 52.7674 121.625 52.7674C120.752 52.7674 119.969 52.5745 119.277 52.1888C118.585 51.7917 118.04 51.2357 117.643 50.5209C117.257 49.7948 117.064 48.9495 117.064 47.9851C117.064 47.0208 117.257 46.1755 117.643 45.4494C118.029 44.7232 118.568 44.1673 119.26 43.7815C119.952 43.3958 120.74 43.2029 121.625 43.2029C122.51 43.2029 123.282 43.3958 123.94 43.7815C124.609 44.1673 125.12 44.6892 125.472 45.3472C125.835 45.994 126.016 46.7144 126.016 47.5086ZM124.808 47.4746C124.819 46.7825 124.677 46.1925 124.383 45.7046C124.099 45.2168 123.707 44.848 123.208 44.5984C122.709 44.3488 122.164 44.224 121.574 44.224C120.689 44.224 119.935 44.5076 119.311 45.0749C118.687 45.6422 118.341 46.4421 118.273 47.4746H124.808Z" fill="#FFA700"/>
<path d="M113.091 44.343V50.1123C113.091 50.6796 113.199 51.0711 113.415 51.2866C113.63 51.5022 114.01 51.61 114.555 51.61H115.644V52.6311H114.368C113.528 52.6311 112.904 52.4382 112.496 52.0525C112.087 51.6554 111.883 51.0087 111.883 50.1123V44.343H110.59V43.3389H111.883V41.0073H113.091V43.3389H115.644V44.343H113.091Z" fill="#FFA700"/>
<path d="M105.13 43.1687C106.242 43.1687 107.15 43.5147 107.853 44.2068C108.556 44.8876 108.908 45.8804 108.908 47.1851V52.6311H107.734V47.3213C107.734 46.3115 107.479 45.54 106.968 45.0067C106.469 44.4735 105.782 44.2068 104.909 44.2068C104.012 44.2068 103.298 44.4905 102.764 45.0578C102.231 45.6251 101.965 46.459 101.965 47.5595V52.6311H100.773V43.3389H101.965V44.9216C102.259 44.3543 102.685 43.9232 103.241 43.6282C103.797 43.3219 104.427 43.1687 105.13 43.1687Z" fill="#FFA700"/>
<path d="M98.5936 47.5086C98.5936 47.9171 98.5822 48.2291 98.5595 48.4446H90.8501C90.8841 49.1481 91.0543 49.7494 91.3606 50.2486C91.667 50.7479 92.0697 51.1279 92.5689 51.3889C93.0682 51.6385 93.6128 51.7633 94.2027 51.7633C94.9743 51.7633 95.621 51.5761 96.1429 51.2017C96.6761 50.8273 97.0279 50.3224 97.198 49.687H98.4574C98.2305 50.5947 97.7426 51.3378 96.9938 51.9165C96.2563 52.4838 95.326 52.7674 94.2027 52.7674C93.3291 52.7674 92.5463 52.5745 91.8542 52.1888C91.1621 51.7917 90.6175 51.2357 90.2204 50.5209C89.8346 49.7948 89.6417 48.9495 89.6417 47.9851C89.6417 47.0208 89.8346 46.1755 90.2204 45.4494C90.6061 44.7232 91.145 44.1673 91.8371 43.7815C92.5292 43.3958 93.3178 43.2029 94.2027 43.2029C95.0877 43.2029 95.8592 43.3958 96.5173 43.7815C97.1867 44.1673 97.6973 44.6892 98.049 45.3472C98.412 45.994 98.5936 46.7144 98.5936 47.5086ZM97.3852 47.4746C97.3966 46.7825 97.2548 46.1925 96.9598 45.7046C96.6761 45.2168 96.2847 44.848 95.7855 44.5984C95.2863 44.3488 94.7417 44.224 94.1517 44.224C93.2667 44.224 92.5122 44.5076 91.8882 45.0749C91.2642 45.6422 90.9181 46.4421 90.8501 47.4746H97.3852Z" fill="#FFA700"/>
<path d="M79.2045 47.9851C79.2045 47.0208 79.3973 46.1812 79.7831 45.4664C80.1689 44.7402 80.7021 44.1843 81.3829 43.7985C82.0636 43.4014 82.8408 43.2029 83.7144 43.2029C84.8604 43.2029 85.8021 43.4865 86.5395 44.0538C87.2884 44.6211 87.7706 45.3926 87.9861 46.3684H86.7097C86.5509 45.699 86.2048 45.1771 85.6716 44.8026C85.1497 44.4169 84.4973 44.224 83.7144 44.224C83.0904 44.224 82.5288 44.3658 82.0296 44.6495C81.5304 44.9331 81.1333 45.3586 80.8383 45.9259C80.5546 46.4818 80.4128 47.1682 80.4128 47.9851C80.4128 48.802 80.5546 49.4941 80.8383 50.0614C81.1333 50.6287 81.5304 51.0542 82.0296 51.3378C82.5288 51.6215 83.0904 51.7633 83.7144 51.7633C84.4973 51.7633 85.1497 51.5761 85.6716 51.2017C86.2048 50.8159 86.5509 50.2827 86.7097 49.6019H87.9861C87.7706 50.555 87.2884 51.3208 86.5395 51.8995C85.7907 52.4781 84.849 52.7674 83.7144 52.7674C82.8408 52.7674 82.0636 52.5745 81.3829 52.1888C80.7021 51.7917 80.1689 51.2357 79.7831 50.5209C79.3973 49.7948 79.2045 48.9495 79.2045 47.9851Z" fill="#FFA700"/>
<path d="M69.6028 52.7674C68.5363 52.7674 67.6626 52.5235 66.9819 52.0356C66.3125 51.5364 65.9381 50.8613 65.8586 50.0104H67.084C67.1407 50.5323 67.3847 50.9577 67.8158 51.2868C68.2583 51.6045 68.8483 51.7633 69.5857 51.7633C70.2325 51.7633 70.7373 51.6101 71.1004 51.3038C71.4748 50.9975 71.662 50.6174 71.662 50.1635C71.662 49.8459 71.5599 49.5849 71.3557 49.3807C71.1515 49.1765 70.8905 49.0176 70.5728 48.9042C70.2665 48.7794 69.8467 48.6489 69.3134 48.5127C68.6214 48.3312 68.0597 48.1497 67.6286 47.9681C67.1975 47.7866 66.8287 47.52 66.5224 47.1682C66.2274 46.8052 66.0799 46.323 66.0799 45.7217C66.0799 45.2678 66.216 44.848 66.4883 44.4623C66.7606 44.0765 67.1464 43.7702 67.6456 43.5433C68.1448 43.3163 68.7121 43.2029 69.3475 43.2029C70.3459 43.2029 71.1515 43.4582 71.7641 43.9687C72.3768 44.4679 72.7058 45.16 72.7512 46.045H71.5599C71.5259 45.5004 71.3103 45.0636 70.9132 44.7346C70.5274 44.3942 69.9942 44.224 69.3134 44.224C68.7121 44.224 68.2242 44.3658 67.8498 44.6495C67.4754 44.9331 67.2882 45.2848 67.2882 45.7046C67.2882 46.0677 67.396 46.3684 67.6116 46.6066C67.8385 46.8335 68.1165 47.0151 68.4455 47.1512C68.7745 47.276 69.217 47.4179 69.773 47.5767C70.4424 47.7582 70.9756 47.9341 71.3727 48.1043C71.7698 48.2745 72.1102 48.5241 72.3938 48.8531C72.6775 49.1821 72.825 49.6189 72.8363 50.1635C72.8363 50.6628 72.7002 51.1109 72.4279 51.508C72.1556 51.8938 71.7755 52.2001 71.2876 52.427C70.7997 52.6539 70.2381 52.7674 69.6028 52.7674Z" fill="#FFA700"/>
<path d="M54.3744 47.9683C54.3744 47.0153 54.5673 46.1814 54.953 45.4666C55.3388 44.7404 55.8664 44.1845 56.5358 43.7987C57.2165 43.4016 57.9824 43.2031 58.8333 43.2031C59.6502 43.2031 60.3877 43.4016 61.0457 43.7987C61.7038 44.1958 62.186 44.7121 62.4923 45.3474V40.0376H63.6836V52.6315H62.4923V50.5552C62.2087 51.2019 61.7435 51.7351 61.0968 52.1549C60.4501 52.5634 59.6899 52.7676 58.8163 52.7676C57.9653 52.7676 57.1995 52.5691 56.5187 52.172C55.8493 51.7748 55.3218 51.2132 54.936 50.4871C54.5616 49.761 54.3744 48.9214 54.3744 47.9683ZM62.4923 47.9853C62.4923 47.2365 62.3392 46.5785 62.0328 46.0112C61.7265 45.4439 61.3067 45.0071 60.7734 44.7007C60.2515 44.3944 59.6729 44.2412 59.0375 44.2412C58.3795 44.2412 57.7895 44.3887 57.2676 44.6837C56.7457 44.9787 56.3315 45.4098 56.0252 45.9771C55.7302 46.5331 55.5827 47.1968 55.5827 47.9683C55.5827 48.7285 55.7302 49.3979 56.0252 49.9765C56.3315 50.5438 56.7457 50.9806 57.2676 51.287C57.7895 51.582 58.3795 51.7295 59.0375 51.7295C59.6729 51.7295 60.2515 51.5763 60.7734 51.27C61.3067 50.9636 61.7265 50.5268 62.0328 49.9595C62.3392 49.3922 62.4923 48.7342 62.4923 47.9853Z" fill="#FFA700"/>
<path d="M50.7095 49.8062H45.2975L44.2594 52.6314H43L47.3398 40.8884H48.6843L53.007 52.6314H51.7476L50.7095 49.8062ZM50.3521 48.8192L48.0035 42.3861L45.6549 48.8192H50.3521Z" fill="#FFA700"/>
<path d="M153.377 3.00263V0.833252H147.76C145.76 0.833252 144.135 2.35687 144.135 4.23164C144.135 6.10641 145.76 7.63003 147.76 7.63003H153.377V3.00263Z" fill="#FFA700"/>
<path d="M55.3697 8.499H63.2339V33.2043H55.3253L54.6144 31.2045C53.3704 32.1627 51.9486 32.871 50.438 33.3709C48.8385 33.8292 47.239 34.0375 45.5951 34.0375C43.5068 33.9958 41.5963 33.6626 39.908 32.996C38.1752 32.3294 36.709 31.4128 35.4649 30.2463C34.2209 29.0798 33.2434 27.705 32.577 26.1218C31.8661 24.5387 31.5551 22.8306 31.5551 20.9141C31.5551 18.9977 31.9105 17.2063 32.6658 15.5398C33.3767 13.9567 34.3542 12.5402 35.6426 11.3736C36.8867 10.2071 38.3529 9.29057 40.0857 8.62399C41.774 7.99906 43.5957 7.66577 45.5506 7.66577C47.239 7.66577 48.8829 7.87408 50.3935 8.29069C51.9042 8.70731 53.2815 9.37389 54.57 10.2488L55.3697 8.499ZM46.9724 26.8717C48.8385 26.8717 50.3047 26.3301 51.4599 25.2053C52.5706 24.1221 53.1482 22.6639 53.1482 20.9141C53.1482 19.1643 52.5706 17.6229 51.4599 16.498C50.3047 15.4148 48.8385 14.8732 46.9724 14.8732C45.1063 14.8732 43.5957 15.4148 42.4849 16.498C41.3297 17.6229 40.7966 19.081 40.7966 20.9141C40.7966 22.7472 41.3297 24.1221 42.4849 25.2053C43.5957 26.3301 45.1063 26.8717 46.9724 26.8717Z" fill="#FFA700"/>
<path d="M76.1632 10.6654C76.8297 9.95718 77.6738 9.41558 78.7402 9.04062C79.7621 8.70733 80.8284 8.49902 81.9836 8.49902H87.7595L86.16 15.6648H80.8284C80.2952 15.6648 79.7621 15.7898 79.3178 15.9981C78.829 16.2481 78.4292 16.5397 78.0737 16.9146C77.7183 17.3313 77.4073 17.7895 77.2295 18.2895C77.0074 18.8311 76.9185 19.4143 76.9185 19.9976V33.2043H67.677V8.49902H75.5856L76.1632 10.6654Z" fill="#FFA700"/>
<path d="M110.152 0H119.35V33.2042H111.441L110.73 31.2045C109.486 32.1627 108.064 32.8709 106.554 33.3709C104.954 33.8292 103.355 34.0375 101.711 34.0375C99.6224 33.9958 97.7119 33.6625 96.0236 32.9959C94.2908 32.3293 92.8246 31.4128 91.5805 30.2463C90.3365 29.0797 89.359 27.7049 88.6926 26.1218C87.9817 24.5386 87.6707 22.8305 87.6707 20.9141C87.6707 18.9977 88.0261 17.2062 88.7814 15.5397C89.4923 13.9566 90.4698 12.5401 91.7583 11.3736C93.0023 10.2071 94.4685 9.29052 96.2013 8.62393C97.8896 7.99901 99.7113 7.66572 101.666 7.66572C103.266 7.66572 104.776 7.87403 106.198 8.20732C107.575 8.58227 108.908 9.16553 110.152 9.91544V0ZM103.088 26.8717C104.954 26.8717 106.42 26.3301 107.575 25.2052C108.686 24.122 109.264 22.6639 109.264 20.9141C109.264 19.1643 108.686 17.6228 107.575 16.498C106.42 15.4148 104.954 14.8732 103.088 14.8732C101.222 14.8732 99.7113 15.4148 98.6005 16.498C97.4453 17.6228 96.9122 19.081 96.9122 20.9141C96.9122 22.7472 97.4453 24.122 98.6005 25.2052C99.7113 26.3301 101.222 26.8717 103.088 26.8717Z" fill="#FFA700"/>
<path d="M136.316 34.0375H127.074V17.3312H122.276V10.1654H127.074V8.20734C127.074 7.12414 127.296 6.0826 127.74 5.16605C128.14 4.2495 128.718 3.49959 129.518 2.833C130.229 2.20808 131.117 1.70814 132.095 1.33319C133.072 0.999898 134.094 0.833252 135.249 0.833252H142.802V7.99903H138.67C137.915 7.99903 137.337 8.20734 136.938 8.58229C136.493 8.99891 136.316 9.54051 136.316 10.1654H142.358V17.3312H136.316V34.0375Z" fill="#FFA700"/>
<path d="M153.377 9.33228H144.135V34.0376H153.377V9.33228Z" fill="#FFA700"/>
<path d="M161.197 0.833252H170.438V9.3322H175.237V16.498H170.438V26.6634C170.438 27.8299 170.216 28.8298 169.772 29.7463C169.372 30.6212 168.794 31.3711 167.994 32.0377C167.284 32.6627 166.395 33.1626 165.417 33.5375C164.44 33.8708 163.418 34.0375 162.263 34.0375H154.71V26.8717H158.842C159.597 26.8717 160.175 26.6634 160.575 26.2468C161.019 25.8718 161.197 25.3302 161.197 24.6636V16.498H155.154V9.3322H161.197V0.833252Z" fill="#FFA700"/>
<path d="M12.2596 25.4693C9.81277 25.4693 7.82292 23.3505 7.82292 20.7437C7.82292 18.1369 9.81277 16.0181 12.2596 16.0181H29.2558V7.68579H12.2596C5.49985 7.68877 0 13.5452 0 20.7437C0 27.9422 5.49985 33.8016 12.2596 33.8016H29.2558V25.4693H12.2596Z" fill="#FFA700"/>
</svg>
