<svg width="97" height="22" viewBox="0 0 97 22" fill="none" xmlns="http://www.w3.org/2000/svg">
<mask id="mask0_152_6538" style="mask-type:luminance" maskUnits="userSpaceOnUse" x="0" y="0" width="97" height="22">
<path d="M96.5455 0H0V21.9724H96.5455V0Z" fill="white"/>
</mask>
<g mask="url(#mask0_152_6538)">
<path d="M11.3861 0.757569C10.3431 0.757193 9.30573 0.910128 8.30735 1.21145C8.75854 1.99555 8.99506 2.88434 8.99315 3.78854C8.99375 4.6982 8.75471 5.59202 8.29998 6.38038C7.84526 7.16873 7.19085 7.8239 6.40238 8.28018C5.61391 8.73646 4.7191 8.97781 3.80768 8.98003C2.89626 8.98224 2.00028 8.74525 1.20959 8.29281C0.562124 10.428 0.605596 12.7126 1.33383 14.8218C2.06206 16.9309 3.43798 18.7573 5.26595 20.0411C7.09392 21.3249 9.2809 22.0009 11.5159 21.9729C13.7509 21.9449 15.9202 21.2144 17.7153 19.8852C19.5105 18.556 20.84 16.6958 21.515 14.5691C22.19 12.4423 22.176 10.1574 21.4751 8.03902C20.7741 5.92068 19.4219 4.07682 17.6107 2.76959C15.7994 1.46236 13.6213 0.758322 11.3861 0.757569Z" fill="black"/>
<path d="M6.97258 1.71627C6.47393 0.954414 5.71713 0.397196 4.84063 0.146535C3.96413 -0.104126 3.02651 -0.031475 2.19927 0.351199C1.37204 0.733874 0.71048 1.40099 0.335611 2.23053C-0.0392576 3.06006 -0.10238 3.99657 0.157789 4.86874C0.417958 5.74092 0.984028 6.49046 1.75246 6.98027C2.52089 7.47008 3.44031 7.66742 4.34255 7.53619C5.24479 7.40495 6.06954 6.95392 6.66595 6.26559C7.26235 5.57727 7.59053 4.69765 7.59047 3.78764C7.59042 3.05185 7.37546 2.33203 6.97192 1.71627" fill="black"/>
<path d="M36.353 7.16814H33.1736V16.4717H30.8246V7.16814H27.54V5.50146H36.6007L36.353 7.16814Z" fill="black"/>
<path d="M45.6805 11.5654H41.3353V16.4704H39.0049V5.50146H41.3353V9.89874H45.6805V5.50146H48.0296V16.4704H45.6805V11.5654Z" fill="black"/>
<path d="M57.4655 13.9318H53.4199L52.6608 16.4717H50.2412L54.0364 5.50146H56.9155L60.6954 16.4717H58.2219L57.4655 13.9318ZM57.006 12.3443L55.434 7.105L53.8793 12.3469L57.006 12.3443Z" fill="black"/>
<path d="M69.6547 7.16814H66.4754V16.4717H64.1263V7.16814H60.8418V5.50146H69.9024L69.6547 7.16814Z" fill="black"/>
<path d="M79.6371 7.12029L74.0021 14.7565H79.6903L79.4433 16.4704H71.2822V14.8675L77.0197 7.16814H71.8622V5.50146H79.6337L79.6371 7.12029Z" fill="black"/>
<path d="M84.957 5.50146H82.626V16.4711H84.957V5.50146Z" fill="black"/>
<path d="M96.2966 7.16814H93.118V16.4717H90.7689V7.16814H87.4844V5.50146H96.545L96.2966 7.16814Z" fill="black"/>
</g>
</svg>
