<svg width="14" height="16" viewBox="0 0 14 16" fill="none" xmlns="http://www.w3.org/2000/svg">
<path d="M9.44976 14.002C9.33501 14.5671 9.0284 15.0752 8.58189 15.4402C8.13539 15.8051 7.57644 16.0045 6.99976 16.0045C6.42309 16.0045 5.86414 15.8051 5.41764 15.4402C4.97113 15.0752 4.66452 14.5671 4.54977 14.002H9.44976ZM6.99777 0C10.1468 0 12.7418 2.335 12.9818 5.355L12.9948 5.578L12.9998 5.802L12.9988 9.408L13.9528 11.995L13.9778 12.08L13.9938 12.166L13.9988 12.255C13.9988 12.57 13.8028 12.845 13.4768 12.962L13.3628 12.995L13.2488 13.005H0.750766C0.662429 13.0037 0.574912 12.9879 0.491766 12.958C0.204766 12.853 0.0157656 12.586 0.00976562 12.242L0.0137656 12.125L0.0477657 11.995L0.997765 9.411L0.999766 5.793L1.00377 5.568C1.12677 2.451 3.77077 0 6.99777 0Z" fill="black"/>
</svg>
