<svg width="104" height="104" viewBox="0 0 104 104" fill="none" xmlns="http://www.w3.org/2000/svg">
<circle cx="52" cy="52" r="52" fill="#EEEEEE"/>
<path d="M58.2371 52L75.695 34.5421C76.5235 33.715 76.9896 32.5927 76.9906 31.422C76.9916 30.2513 76.5276 29.1281 75.7005 28.2995C74.8734 27.471 73.751 27.0049 72.5803 27.0039C71.4096 27.0029 70.2864 27.4669 69.4579 28.294L52 45.7519L34.5421 28.294C33.7136 27.4655 32.5898 27 31.4181 27C30.2463 27 29.1226 27.4655 28.294 28.294C27.4655 29.1226 27 30.2463 27 31.4181C27 32.5898 27.4655 33.7136 28.294 34.5421L45.7519 52L28.294 69.4579C27.4655 70.2864 27 71.4102 27 72.5819C27 73.7537 27.4655 74.8774 28.294 75.706C29.1226 76.5345 30.2463 77 31.4181 77C32.5898 77 33.7136 76.5345 34.5421 75.706L52 58.2481L69.4579 75.706C70.2864 76.5345 71.4102 77 72.5819 77C73.7537 77 74.8774 76.5345 75.706 75.706C76.5345 74.8774 77 73.7537 77 72.5819C77 71.4102 76.5345 70.2864 75.706 69.4579L58.2371 52Z" fill="black"/>
</svg>
