<svg width="14" height="16" viewBox="0 0 14 16" fill="none" xmlns="http://www.w3.org/2000/svg">
<path d="M0 15V6.30801C0 6.05201 0.0573333 5.80967 0.172 5.58101C0.286667 5.35234 0.444667 5.16401 0.646 5.01601L6.031 0.938006C6.313 0.722673 6.635 0.615005 6.997 0.615005C7.359 0.615005 7.683 0.722673 7.969 0.938006L13.354 5.01501C13.556 5.16301 13.714 5.35167 13.828 5.58101C13.9427 5.80967 14 6.05201 14 6.30801V15C14 15.268 13.9003 15.5017 13.701 15.701C13.5017 15.9003 13.268 16 13 16H9.616C9.38667 16 9.19467 15.9227 9.04 15.768C8.88533 15.6127 8.808 15.4207 8.808 15.192V10.423C8.808 10.1943 8.73067 10.0027 8.576 9.84801C8.42067 9.69267 8.22867 9.61501 8 9.61501H6C5.77133 9.61501 5.57967 9.69267 5.425 9.84801C5.26967 10.0027 5.192 10.1943 5.192 10.423V15.193C5.192 15.4217 5.11467 15.6133 4.96 15.768C4.80533 15.9227 4.61367 16 4.385 16H1C0.732 16 0.498333 15.9003 0.299 15.701C0.0996664 15.5017 0 15.268 0 15Z" fill="white" fill-opacity="0.2"/>
</svg>
