<svg width="30" height="30" viewBox="0 0 30 30" fill="none" xmlns="http://www.w3.org/2000/svg">
<path fill-rule="evenodd" clip-rule="evenodd" d="M22.0689 29.9957C19.9053 29.9161 13.7734 29.0689 7.35154 22.6498C0.931188 16.2293 0.0852571 10.1002 0.00411996 7.93546C-0.116083 4.63656 2.41119 1.43229 5.33062 0.180935C5.68218 0.0291598 6.06717 -0.0286256 6.44781 0.0132491C6.82845 0.0551238 7.19165 0.19522 7.50179 0.41979C9.90586 2.17139 11.5647 4.82133 12.9891 6.90493C13.3025 7.3627 13.4365 7.91975 13.3655 8.46995C13.2946 9.02014 13.0237 9.52501 12.6044 9.88836L9.67296 12.0651C9.53134 12.1673 9.43165 12.3175 9.3924 12.4877C9.35316 12.6579 9.37704 12.8365 9.4596 12.9905C10.1237 14.1968 11.3047 15.9934 12.657 17.3454C14.0093 18.6974 15.892 19.9563 17.1827 20.6954C17.3445 20.7862 17.535 20.8116 17.7149 20.7664C17.8949 20.7211 18.0507 20.6086 18.1503 20.4521L20.0585 17.5482C20.4093 17.0823 20.9269 16.7702 21.5027 16.6772C22.0786 16.5843 22.6681 16.7177 23.1477 17.0495C25.2618 18.5127 27.729 20.1426 29.535 22.4545C29.7779 22.7669 29.9324 23.1387 29.9823 23.5311C30.0323 23.9235 29.9759 24.3222 29.819 24.6853C28.5614 27.6192 25.379 30.1174 22.0689 29.9957Z" fill="white" fill-opacity="0.4"/>
</svg>
