<svg width="127" height="150" viewBox="0 0 127 150" fill="none" xmlns="http://www.w3.org/2000/svg">
<path d="M105.296 143.982C97.1301 151.898 88.2145 150.648 79.6323 146.898C70.5501 143.065 62.2178 142.899 52.6357 146.898C40.6372 152.064 34.3047 150.564 27.1389 143.982C-13.5226 102.07 -7.5234 38.2452 38.6374 35.9121C49.886 36.4954 57.7184 42.078 64.3009 42.578C74.133 40.5782 83.5484 34.8289 94.0471 35.5788C106.629 36.5787 116.128 41.5781 122.377 50.577C96.3802 66.1583 102.546 100.404 126.376 109.986C121.627 122.485 115.461 134.9 105.212 144.065L105.296 143.982ZM63.4676 35.4122C62.2178 16.8312 77.2992 1.49981 94.6304 0C97.0467 21.4973 75.1328 37.4953 63.4676 35.4122Z" fill="#667DF8"/>
</svg>
