<svg width="45" height="35" viewBox="0 0 45 35" fill="none" xmlns="http://www.w3.org/2000/svg">
<path d="M15 10.2083C15 11.4236 14.5625 12.4566 13.6875 13.3073C12.8125 14.158 11.75 14.5833 10.5 14.5833C9.25 14.5833 8.1875 14.158 7.3125 13.3073C6.4375 12.4566 6 11.4236 6 10.2083C6 8.99306 6.4375 7.96007 7.3125 7.10938C8.1875 6.25868 9.25 5.83333 10.5 5.83333C11.75 5.83333 12.8125 6.25868 13.6875 7.10938C14.5625 7.96007 15 8.99306 15 10.2083ZM39 18.9583V29.1667H6V24.7917L13.5 17.5L17.25 21.1458L29.25 9.47917L39 18.9583ZM41.25 2.91667H3.75C3.54688 2.91667 3.37109 2.98882 3.22266 3.13314C3.07422 3.27745 3 3.44835 3 3.64583V31.3542C3 31.5517 3.07422 31.7225 3.22266 31.8669C3.37109 32.0112 3.54688 32.0833 3.75 32.0833H41.25C41.4531 32.0833 41.6289 32.0112 41.7773 31.8669C41.9258 31.7225 42 31.5517 42 31.3542V3.64583C42 3.44835 41.9258 3.27745 41.7773 3.13314C41.6289 2.98882 41.4531 2.91667 41.25 2.91667ZM45 3.64583V31.3542C45 32.3568 44.6328 33.2151 43.8984 33.929C43.1641 34.643 42.2812 35 41.25 35H3.75C2.71875 35 1.83594 34.643 1.10156 33.929C0.367188 33.2151 0 32.3568 0 31.3542V3.64583C0 2.64323 0.367188 1.78494 1.10156 1.07096C1.83594 0.356988 2.71875 0 3.75 0H41.25C42.2812 0 43.1641 0.356988 43.8984 1.07096C44.6328 1.78494 45 2.64323 45 3.64583Z" fill="#ADADAD"/>
</svg>
