<svg width="11" height="19" viewBox="0 0 11 19" fill="none" xmlns="http://www.w3.org/2000/svg">
<path fill-rule="evenodd" clip-rule="evenodd" d="M1.23709 18.2876C1.07663 18.2907 0.917152 18.2619 0.767892 18.2029C0.618632 18.1439 0.482552 18.0559 0.367528 17.944C0.252502 17.8321 0.160816 17.6984 0.0977739 17.5509C0.0347315 17.4033 0.00158261 17.2446 0.000250223 17.0841C-0.00108326 16.9237 0.0294259 16.7645 0.0900072 16.6159C0.150134 16.4684 0.238702 16.3342 0.350651 16.2209L7.23709 9.14389L0.350713 2.06695C0.238735 1.95365 0.150146 1.81942 0.0900085 1.67189C0.0294272 1.52327 -0.0010819 1.36412 0.000251612 1.20363C0.00158403 1.04314 0.0347329 0.884514 0.0977753 0.736924C0.160817 0.589337 0.252502 0.455712 0.36753 0.343788C0.482556 0.231865 0.618636 0.143865 0.767894 0.0848822C0.917156 0.0258969 1.07663 -0.00289895 1.23709 0.000155897C1.39755 0.00321074 1.55581 0.0380584 1.70272 0.102682C1.84854 0.166824 1.98029 0.259037 2.09047 0.374055L9.79974 8.29747C10.0202 8.52406 10.1436 8.82775 10.1436 9.14389C10.1436 9.46003 10.0202 9.7637 9.79975 9.9903L2.09048 17.9137C1.98029 18.0287 1.84854 18.121 1.70272 18.1851C1.55581 18.2497 1.39755 18.2846 1.23709 18.2876ZM1.18774 17.1405C1.19652 17.1439 1.2059 17.1456 1.21534 17.1455C1.22478 17.1453 1.23409 17.1432 1.24273 17.1394C1.25137 17.1356 1.25917 17.1301 1.26569 17.1233L1.2699 17.1189L8.98096 9.19368C8.99392 9.18035 9.00118 9.16248 9.00118 9.14389C9.00118 9.1253 8.99393 9.10744 8.98097 9.09411L1.26566 1.16449C1.25915 1.15766 1.25138 1.15216 1.24273 1.14835C1.23409 1.14455 1.22478 1.14251 1.21534 1.14233C1.2059 1.14215 1.19652 1.14384 1.18774 1.14731C1.17896 1.15078 1.17096 1.15596 1.16419 1.16254C1.15743 1.16912 1.15204 1.17698 1.14833 1.18566C1.14462 1.19435 1.14267 1.20368 1.14259 1.21312C1.14251 1.22255 1.1443 1.23192 1.14787 1.24066C1.15143 1.24941 1.15669 1.25736 1.16335 1.26405L1.16766 1.26839L8.83105 9.14389L1.16337 17.0238C1.15672 17.0304 1.15143 17.0384 1.14787 17.0471C1.1443 17.0559 1.14251 17.0652 1.14259 17.0747C1.14267 17.0841 1.14462 17.0934 1.14832 17.1021C1.15203 17.1108 1.15743 17.1187 1.16419 17.1252C1.17096 17.1318 1.17896 17.137 1.18774 17.1405Z" fill="white"/>
</svg>
