<svg width="11" height="19" viewBox="0 0 11 19" fill="none" xmlns="http://www.w3.org/2000/svg">
<path d="M2.1049 9.14493L9.36776 1.68108C9.42756 1.62093 9.47483 1.54952 9.50685 1.47098C9.53887 1.39244 9.55499 1.30833 9.55429 1.22352C9.55358 1.13871 9.53606 1.05488 9.50275 0.976879C9.46943 0.898882 9.42098 0.828266 9.36019 0.769119C9.2994 0.709971 9.22749 0.663466 9.14861 0.632294C9.06973 0.601123 8.98545 0.585904 8.90065 0.587519C8.81585 0.589133 8.73222 0.607549 8.65458 0.6417C8.57694 0.675851 8.50685 0.72506 8.44836 0.786479L0.751027 8.69763C0.634522 8.81738 0.569336 8.97786 0.569336 9.14493C0.569336 9.312 0.634522 9.47248 0.751027 9.59223L8.44836 17.5034C8.50685 17.5648 8.57694 17.614 8.65458 17.6482C8.73222 17.6823 8.81585 17.7007 8.90065 17.7023C8.98545 17.704 9.06973 17.6887 9.14861 17.6576C9.22749 17.6264 9.2994 17.5799 9.36019 17.5207C9.42098 17.4616 9.46943 17.391 9.50275 17.313C9.53606 17.235 9.55358 17.1512 9.55429 17.0663C9.55499 16.9815 9.53887 16.8974 9.50685 16.8189C9.47483 16.7403 9.42756 16.6689 9.36776 16.6088L2.1049 9.14493Z" fill="white"/>
<path fill-rule="evenodd" clip-rule="evenodd" d="M8.89064 0.0175535C9.05081 0.014504 9.21 0.0432503 9.359 0.10213C9.50799 0.16101 9.64383 0.248854 9.75865 0.360576C9.87347 0.4723 9.96499 0.605685 10.0279 0.753012C10.0909 0.900339 10.1239 1.05868 10.1253 1.21889C10.1266 1.37909 10.0962 1.53796 10.0357 1.68631C9.97566 1.83355 9.88725 1.96753 9.7755 2.08061L2.9013 9.14504L9.77544 16.2094C9.88721 16.3225 9.97565 16.4565 10.0357 16.6038C10.0962 16.7521 10.1266 16.911 10.1253 17.0712C10.1239 17.2314 10.0909 17.3897 10.0279 17.5371C9.965 17.6844 9.87347 17.8178 9.75865 17.9295C9.64383 18.0412 9.50799 18.1291 9.359 18.1879C9.21 18.2468 9.05081 18.2756 8.89064 18.2725C8.73046 18.2695 8.57248 18.2347 8.42583 18.1702C8.28028 18.1061 8.14876 18.0141 8.03877 17.8993L0.343206 9.98995C0.123141 9.76376 0 9.46062 0 9.14504C0 8.82945 0.123129 8.52633 0.343194 8.30013L8.03877 0.390795C8.14875 0.275982 8.28027 0.183928 8.42583 0.119896C8.57248 0.0553887 8.73046 0.0206031 8.89064 0.0175535ZM8.93989 1.16267C8.93113 1.15921 8.92177 1.15751 8.91234 1.15769C8.90292 1.15787 8.89363 1.15992 8.885 1.16371C8.87638 1.16751 8.86859 1.17297 8.86209 1.1798L8.85788 1.18422L1.16053 9.09534C1.16053 9.09534 1.16054 9.09533 1.16053 9.09534C1.1476 9.10864 1.14035 9.12648 1.14035 9.14504C1.14035 9.16359 1.14758 9.18142 1.16052 9.19472C1.16053 9.19473 1.16052 9.19472 1.16052 9.19472L8.86211 17.1103C8.86861 17.1171 8.87637 17.1226 8.885 17.1264C8.89363 17.1302 8.90292 17.1322 8.91234 17.1324C8.92177 17.1326 8.93113 17.1309 8.93989 17.1274C8.94866 17.1239 8.95665 17.1188 8.9634 17.1122C8.97015 17.1056 8.97554 17.0978 8.97924 17.0891C8.98294 17.0804 8.98489 17.0711 8.98497 17.0617C8.98505 17.0523 8.98326 17.0429 8.9797 17.0342C8.97614 17.0255 8.97089 17.0176 8.96424 17.0109L8.95994 17.0065L1.31018 9.14504L8.96422 1.27918C8.97086 1.27249 8.97614 1.26458 8.9797 1.25586C8.98326 1.24713 8.98505 1.23778 8.98497 1.22836C8.98489 1.21894 8.98294 1.20962 8.97924 1.20096C8.97554 1.19229 8.97016 1.18444 8.9634 1.17787C8.95665 1.1713 8.94866 1.16613 8.93989 1.16267Z" fill="white"/>
</svg>
