<svg width="130" height="150" viewBox="0 0 130 150" fill="none" xmlns="http://www.w3.org/2000/svg">
<path d="M2.50998 0.659913C3.27182 0.224112 4.13496 -0.00347069 5.01263 4.00102e-05C5.89031 0.00355071 6.7516 0.238031 7.50993 0.679913L85.9392 46.4295L61.6694 68.2693L1.69288e-06 12.7698V4.99987C-0.000722621 4.11954 0.230993 3.25463 0.671724 2.49257C1.11246 1.73051 1.74658 1.09832 2.50998 0.659913ZM1.69288e-06 26.2297V123.769L54.1995 74.9992L1.69288e-06 26.2297ZM1.69288e-06 137.229V144.999C-0.000259044 145.878 0.231613 146.743 0.672205 147.504C1.1128 148.266 1.74651 148.897 2.50936 149.336C3.2722 149.774 4.13717 150.003 5.01693 150C5.89668 149.997 6.76008 149.762 7.51993 149.319L85.9392 103.569L61.6694 81.7292L1.69288e-06 137.229ZM95.0091 98.279L127.509 79.3192C128.264 78.879 128.891 78.2485 129.326 77.4904C129.762 76.7324 129.991 75.8735 129.991 74.9992C129.991 74.125 129.762 73.266 129.326 72.508C128.891 71.75 128.264 71.1194 127.509 70.6793L95.0091 51.7194L69.1393 74.9992L95.0091 98.279Z" fill="white"/>
</svg>
