<svg width="11" height="19" viewBox="0 0 11 19" fill="none" xmlns="http://www.w3.org/2000/svg">
<path fill-rule="evenodd" clip-rule="evenodd" d="M8.90647 0.000219935C9.06693 -0.00283503 9.2264 0.0259625 9.37566 0.0849471C9.52492 0.143932 9.661 0.231932 9.77603 0.343853C9.89105 0.455776 9.98274 0.589399 10.0458 0.736988C10.1088 0.884577 10.142 1.0432 10.1433 1.20369C10.1446 1.36418 10.1141 1.52334 10.0535 1.67195C9.99342 1.81945 9.90485 1.95367 9.7929 2.06695L2.90647 9.14395L9.79284 16.2209C9.90482 16.3342 9.99341 16.4684 10.0535 16.616C10.1141 16.7646 10.1446 16.9237 10.1433 17.0842C10.142 17.2447 10.1088 17.4033 10.0458 17.5509C9.98274 17.6985 9.89105 17.8321 9.77603 17.9441C9.661 18.056 9.52492 18.144 9.37566 18.203C9.2264 18.2619 9.06693 18.2907 8.90647 18.2877C8.746 18.2846 8.58774 18.2498 8.44084 18.1852C8.29502 18.121 8.16327 18.0288 8.05309 17.9138L0.343817 9.99037C0.12336 9.76378 0 9.4601 0 9.14395C0 8.82781 0.123348 8.52414 0.343805 8.29755L8.05308 0.374126C8.16326 0.259109 8.29502 0.166891 8.44084 0.102745C8.58774 0.0381224 8.746 0.00327494 8.90647 0.000219935ZM8.95581 1.14737C8.94703 1.1439 8.93765 1.14221 8.92821 1.14239C8.91877 1.14257 8.90946 1.14462 8.90082 1.14842C8.89218 1.15222 8.88438 1.1577 8.87787 1.16454L8.87365 1.16896L1.1626 9.09416C1.14964 9.10749 1.14238 9.12536 1.14238 9.14395C1.14238 9.16254 1.14963 9.1804 1.16259 9.19373L8.87789 17.1233C8.8844 17.1302 8.89218 17.1357 8.90082 17.1395C8.90946 17.1433 8.91877 17.1453 8.92821 17.1455C8.93765 17.1457 8.94704 17.144 8.95581 17.1405C8.96459 17.1371 8.9726 17.1319 8.97936 17.1253C8.98613 17.1187 8.99152 17.1109 8.99523 17.1022C8.99894 17.0935 9.00089 17.0842 9.00097 17.0747C9.00105 17.0653 8.99925 17.0559 8.99569 17.0472C8.99212 17.0384 8.98686 17.0305 8.98021 17.0238L8.9759 17.0195L1.31251 9.14395L8.98018 1.26409C8.98684 1.2574 8.99212 1.24947 8.99569 1.24073C8.99925 1.23198 9.00105 1.22262 9.00097 1.21318C9.00089 1.20374 8.99894 1.19441 8.99523 1.18573C8.99152 1.17705 8.98613 1.16919 8.97936 1.1626C8.9726 1.15602 8.96459 1.15084 8.95581 1.14737Z" fill="white"/>
</svg>
