<svg width="8" height="13" viewBox="0 0 8 13" fill="none" xmlns="http://www.w3.org/2000/svg">
<path d="M6.31511 6.5L1.00761 11.9544C0.963909 11.9983 0.929363 12.0505 0.905967 12.1079C0.88257 12.1653 0.870788 12.2268 0.871303 12.2887C0.871818 12.3507 0.884619 12.412 0.908966 12.469C0.933313 12.526 0.968721 12.5776 1.01314 12.6208C1.05756 12.664 1.11012 12.698 1.16776 12.7208C1.2254 12.7436 1.28699 12.7547 1.34896 12.7535C1.41093 12.7523 1.47205 12.7389 1.52878 12.7139C1.58552 12.689 1.63674 12.653 1.67948 12.6081L7.30448 6.82687C7.38962 6.73936 7.43726 6.62209 7.43726 6.5C7.43726 6.3779 7.38962 6.26063 7.30448 6.17312L1.67948 0.39187C1.63674 0.346987 1.58552 0.311027 1.52878 0.28607C1.47205 0.261114 1.41093 0.247656 1.34896 0.246477C1.28699 0.245297 1.2254 0.256418 1.16776 0.279197C1.11012 0.301977 1.05756 0.33596 1.01314 0.379184C0.96872 0.422408 0.933312 0.474012 0.908965 0.53101C0.884618 0.588008 0.871817 0.649269 0.871302 0.711247C0.870787 0.773225 0.882569 0.834691 0.905966 0.892086C0.929362 0.949481 0.963908 1.00167 1.00761 1.04562L6.31511 6.5Z" fill="white"/>
</svg>
