<svg width="34" height="24" viewBox="0 0 34 24" fill="none" xmlns="http://www.w3.org/2000/svg">
<path fill-rule="evenodd" clip-rule="evenodd" d="M13.5583 16.3802V7.0135L22.5633 11.7135L13.5583 16.3802ZM33.3333 5.39183C33.3333 5.39183 33.0083 3.0935 32.0083 2.08183C30.7416 0.755162 29.32 0.748496 28.6683 0.670163C24.005 0.333496 17.0066 0.333496 17.0066 0.333496H16.9933C16.9933 0.333496 9.99665 0.333496 5.33165 0.670163C4.67998 0.748496 3.25998 0.753496 1.99165 2.08183C0.991646 3.0935 0.666646 5.39183 0.666646 5.39183C0.666646 5.39183 0.333313 8.0885 0.333313 10.7868V13.3152C0.333313 16.0118 0.666646 18.7102 0.666646 18.7102C0.666646 18.7102 0.991646 21.0068 1.99165 22.0185C3.25831 23.3468 4.92498 23.3035 5.66665 23.4435C8.33331 23.6985 17 23.7768 17 23.7768C17 23.7768 24.005 23.7668 28.6683 23.4302C29.32 23.3518 30.7416 23.3468 32.0083 22.0185C33.0083 21.0068 33.3333 18.7102 33.3333 18.7102C33.3333 18.7102 33.6666 16.0118 33.6666 13.3152V10.7868C33.6666 8.0885 33.3333 5.39183 33.3333 5.39183Z" fill="white" fill-opacity="0.4"/>
</svg>
