<svg width="200" height="31" viewBox="0 0 200 31" fill="none" xmlns="http://www.w3.org/2000/svg">
<mask id="mask0_76_307" style="mask-type:alpha" maskUnits="userSpaceOnUse" x="0" y="0" width="200" height="31">
<path d="M8.87524 9.22556L0 0H39.8186L42.2773 3.15455L35.6809 27.4386L31.663 30.5336H2.87846L7.79582 12.2611H20.569L18.1703 21.4866H24.7067L28.005 9.22556H8.87524Z" fill="white"/>
<path d="M175.007 6.11496V0.410431H200V6.11496H190.971V30.1233H184.035V6.11496H175.007Z" fill="white"/>
<path d="M164.911 11.1218C164.501 8.08484 162.325 6.15597 159.001 6.15597C154.61 6.15597 151.942 9.4802 151.942 15.2668C151.942 21.2586 154.692 24.3776 158.96 24.3776C162.161 24.3776 164.377 22.654 164.911 19.7402L171.97 19.7812C171.395 25.0753 166.881 30.5336 158.837 30.5336C150.793 30.5336 144.801 25.0343 144.801 15.2668C144.801 5.4583 150.916 0 158.837 0C165.978 0 171.231 4.0219 171.97 11.1218H164.911Z" fill="white"/>
<path d="M120.136 30.1233V0.410431H140.697V6.11496H127.113V12.3941H139.63V18.0986H127.113V24.4187H140.738V30.1233H120.136Z" fill="white"/>
<path d="M93.2554 30.1233V0.410431H105.403C112.093 0.410431 116.197 4.18609 116.197 10.26C116.197 14.3434 114.329 17.2778 111.067 18.7552L117.264 30.1233H109.589L104.131 19.9043H100.232V30.1233H93.2554ZM100.232 14.3229H103.926C107.209 14.3229 108.974 13.0507 108.974 10.26C108.974 7.46928 107.209 6.07393 103.926 6.07393H100.232V14.3229Z" fill="white"/>
<path d="M88.741 0.410431V30.1233H81.7643V0.410431H88.741Z" fill="white"/>
<path d="M62.9681 30.1233H52.0925V0.410431H62.9681C72.0379 0.410431 77.6193 5.99185 77.6193 15.2668C77.6193 24.5418 72.0379 30.1233 62.9681 30.1233ZM59.0693 24.1314H62.7218C67.8108 24.1314 70.6015 21.7101 70.6015 15.2668C70.6015 8.82359 67.8108 6.3612 62.6398 6.3612H59.0693V24.1314Z" fill="white"/>
</mask>
<g mask="url(#mask0_76_307)">
<rect width="200.817" height="30.5336" fill="url(#paint0_linear_76_307)"/>
</g>
<defs>
<linearGradient id="paint0_linear_76_307" x1="1.09248e-06" y1="2.10072" x2="115.12" y2="115.461" gradientUnits="userSpaceOnUse">
<stop stop-color="#667DF8"/>
<stop offset="1" stop-color="#6628E1"/>
</linearGradient>
</defs>
</svg>
