<svg width="171" height="26" viewBox="0 0 171 26" fill="none" xmlns="http://www.w3.org/2000/svg">
<path d="M7.55745 7.85575L0 0H33.9064L36 2.68616L30.383 23.3645L26.9617 26H2.45106L6.6383 10.4405H17.5149L15.4723 18.2963H21.0383L23.8468 7.85575H7.55745Z" fill="white"/>
<path d="M149.022 5.20701V0.349487H170.304V5.20701H162.616V25.6506H156.71V5.20701H149.022Z" fill="white"/>
<path d="M140.425 9.47043C140.076 6.88441 138.223 5.24194 135.393 5.24194C131.654 5.24194 129.382 8.07258 129.382 13C129.382 18.1021 131.723 20.7581 135.358 20.7581C138.084 20.7581 139.971 19.2903 140.425 16.8091L146.436 16.8441C145.947 21.3521 142.102 26 135.253 26C128.404 26 123.301 21.3172 123.301 13C123.301 4.64785 128.508 0 135.253 0C141.334 0 145.807 3.42473 146.436 9.47043H140.425Z" fill="white"/>
<path d="M102.299 25.6506V0.349487H119.807V5.20701H108.24V10.5538H118.898V15.4113H108.24V20.793H119.842V25.6506H102.299Z" fill="white"/>
<path d="M79.4089 25.6506V0.349487H89.753C95.4492 0.349487 98.9438 3.56454 98.9438 8.73658C98.9438 12.2137 97.3538 14.7124 94.5755 15.9705L99.8524 25.6506H93.3175L88.6696 16.9489H85.3497V25.6506H79.4089ZM85.3497 12.1963H88.4949C91.2906 12.1963 92.7933 11.1129 92.7933 8.73658C92.7933 6.36024 91.2906 5.17207 88.4949 5.17207H85.3497V12.1963Z" fill="white"/>
<path d="M75.5648 0.349487V25.6506H69.624V0.349487H75.5648Z" fill="white"/>
<path d="M53.6186 25.6506H44.3578V0.349487H53.6186C61.3417 0.349487 66.0944 5.10218 66.0944 13C66.0944 20.8979 61.3417 25.6506 53.6186 25.6506ZM50.2987 20.5484H53.4089C57.7423 20.5484 60.1186 18.4866 60.1186 13C60.1186 7.51347 57.7423 5.41669 53.339 5.41669H50.2987V20.5484Z" fill="white"/>
</svg>
