<svg width="14" height="8" viewBox="0 0 14 8" fill="none" xmlns="http://www.w3.org/2000/svg">
<path d="M6.64429 7.99219C6.38143 7.99207 6.12906 7.88795 5.94312 7.70215L5.24194 7.00098L6.65015 5.5918L11.6003 0.641601C11.7863 0.455717 12.0386 0.351619 12.3015 0.351562C12.5646 0.351562 12.8176 0.455595 13.0037 0.641602C13.1895 0.827545 13.2936 1.07992 13.2937 1.34277C13.2937 1.60581 13.1896 1.85887 13.0037 2.04492L7.34644 7.70215C7.16038 7.88808 6.90733 7.99219 6.64429 7.99219ZM0.285889 2.04492C0.10525 1.85781 0.00530903 1.60675 0.00756894 1.34668C0.0098803 1.08665 0.114742 0.838198 0.298585 0.654296C0.482443 0.470437 0.730974 0.365651 0.990967 0.36328C1.21857 0.361302 1.43909 0.437965 1.61597 0.578124L1.68921 0.641601L6.6394 5.5918L5.23608 6.99512L0.285889 2.04492Z" fill="black" stroke="white" stroke-width="0.015625"/>
</svg>
