<svg width="8" height="14" viewBox="0 0 8 14" fill="none" xmlns="http://www.w3.org/2000/svg">
<path d="M7.64868 6.65723C7.64857 6.92008 7.54444 7.17246 7.35864 7.3584L6.65747 8.05957L5.24829 6.65137L0.298096 1.70117C0.112211 1.51517 0.00811321 1.26296 0.00805665 1C0.00805665 0.736908 0.112089 0.483914 0.298096 0.297852C0.484039 0.11205 0.73641 0.00792901 0.999268 0.00781258C1.26231 0.00781258 1.51536 0.111916 1.70142 0.297852L7.35864 5.95508C7.54458 6.14113 7.64868 6.39419 7.64868 6.65723ZM1.70142 13.0156C1.5143 13.1963 1.26325 13.2962 1.00317 13.2939C0.74315 13.2916 0.494693 13.1868 0.310791 13.0029C0.126932 12.8191 0.0221462 12.5705 0.0197755 12.3105C0.0177978 12.0829 0.0944601 11.8624 0.234619 11.6855L0.298096 11.6123L5.24829 6.66211L6.65161 8.06543L1.70142 13.0156Z" fill="url(#paint0_linear_228_1394)" stroke="white" stroke-width="0.015625"/>
<defs>
<linearGradient id="paint0_linear_228_1394" x1="7.65649" y1="0" x2="-3.8456" y2="6.62081" gradientUnits="userSpaceOnUse">
<stop stop-color="#17C1EA"/>
<stop offset="1" stop-color="#6672E3"/>
</linearGradient>
</defs>
</svg>
