<svg width="49" height="49" viewBox="0 0 49 49" fill="none" xmlns="http://www.w3.org/2000/svg">
<circle cx="24.5" cy="24.5" r="24.5" fill="#DFF2FF"/>
<path d="M34.4482 15.5C35.0088 15.5001 35.4972 15.7243 35.8936 16.1338C36.2929 16.5465 36.4999 17.0514 36.5 17.624C36.5 18.1963 36.2928 18.7006 35.8936 19.1123L35.8945 19.1133L21.6543 33.8662H21.6533C21.2569 34.2758 20.7687 34.5 20.208 34.5C19.6473 34.5 19.1591 34.2758 18.7627 33.8662L12.0889 26.9717C11.6862 26.5556 11.4847 26.0448 11.501 25.4678C11.517 24.9004 11.7304 24.4011 12.127 23.9912C12.5276 23.5773 13.0251 23.356 13.5947 23.3574C14.0912 23.3587 14.5323 23.5272 14.9023 23.8447L15.0566 23.9902L15.0586 23.9922L20.209 29.3506L33.002 16.1338C33.3984 15.7242 33.8876 15.5 34.4482 15.5Z" fill="#3E9BE7" stroke="#3E9BE7"/>
</svg>
