<svg width="16" height="16" viewBox="0 0 16 16" fill="none" xmlns="http://www.w3.org/2000/svg">
<path d="M7.68068 5.21855C7.03821 5.21855 6.51679 5.73318 6.51679 6.36727V6.4656C6.51679 6.64839 6.44321 6.8237 6.31225 6.95296C6.18129 7.08221 6.00366 7.15483 5.81845 7.15483C5.63324 7.15483 5.45562 7.08221 5.32466 6.95296C5.19369 6.8237 5.12012 6.64839 5.12012 6.4656V6.36727C5.12012 5.69702 5.38989 5.05422 5.87009 4.58028C6.35029 4.10634 7.00158 3.84009 7.68068 3.84009H7.78869C8.2896 3.84032 8.77844 3.99192 9.18945 4.27451C9.60046 4.5571 9.91395 4.95713 10.0878 5.42079C10.2616 5.88446 10.2873 6.38954 10.1616 6.8681C10.0359 7.34666 9.76477 7.77576 9.38462 8.0977L8.66766 8.70422C8.57771 8.78128 8.50544 8.87639 8.45567 8.98319C8.4059 9.09 8.37976 9.20605 8.37902 9.32361V9.81342C8.37902 9.99622 8.30544 10.1715 8.17448 10.3008C8.04352 10.43 7.86589 10.5027 7.68068 10.5027C7.49547 10.5027 7.31785 10.43 7.18688 10.3008C7.05592 10.1715 6.98235 9.99622 6.98235 9.81342V9.32361C6.98235 8.68308 7.2654 8.07472 7.75796 7.65843L8.47585 7.0519C8.63966 6.91333 8.75652 6.72856 8.81072 6.52246C8.86492 6.31635 8.85384 6.09881 8.77899 5.89911C8.70414 5.6994 8.5691 5.52712 8.39205 5.40545C8.215 5.28377 8.00443 5.21855 7.78869 5.21855H7.68068ZM7.68068 12.8001C7.92763 12.8001 8.16446 12.7033 8.33908 12.5309C8.5137 12.3586 8.6118 12.1248 8.6118 11.8811C8.6118 11.6374 8.5137 11.4036 8.33908 11.2313C8.16446 11.059 7.92763 10.9621 7.68068 10.9621C7.43373 10.9621 7.1969 11.059 7.02228 11.2313C6.84767 11.4036 6.74957 11.6374 6.74957 11.8811C6.74957 12.1248 6.84767 12.3586 7.02228 12.5309C7.1969 12.7033 7.43373 12.8001 7.68068 12.8001Z" fill="#DEDEDE"/>
<path d="M0 8C0 5.87827 0.842855 3.84344 2.34315 2.34315C3.84344 0.842855 5.87827 0 8 0C10.1217 0 12.1566 0.842855 13.6569 2.34315C15.1571 3.84344 16 5.87827 16 8C16 10.1217 15.1571 12.1566 13.6569 13.6569C12.1566 15.1571 10.1217 16 8 16C5.87827 16 3.84344 15.1571 2.34315 13.6569C0.842855 12.1566 0 10.1217 0 8ZM8 1.37143C7.12952 1.37143 6.26757 1.54288 5.46336 1.876C4.65914 2.20912 3.92841 2.69737 3.31289 3.31289C2.69737 3.92841 2.20912 4.65914 1.876 5.46336C1.54288 6.26757 1.37143 7.12952 1.37143 8C1.37143 8.87048 1.54288 9.73243 1.876 10.5366C2.20912 11.3409 2.69737 12.0716 3.31289 12.6871C3.92841 13.3026 4.65914 13.7909 5.46336 14.124C6.26757 14.4571 7.12952 14.6286 8 14.6286C9.75801 14.6286 11.444 13.9302 12.6871 12.6871C13.9302 11.444 14.6286 9.75801 14.6286 8C14.6286 6.24199 13.9302 4.55599 12.6871 3.31289C11.444 2.06979 9.75801 1.37143 8 1.37143Z" fill="#DEDEDE"/>
</svg>
