<svg width="17" height="13" viewBox="0 0 17 13" fill="none" xmlns="http://www.w3.org/2000/svg">
<path d="M6.28846 9.775L14.7635 1.3C14.9635 1.1 15.1968 1 15.4635 1C15.7301 1 15.9635 1.1 16.1635 1.3C16.3635 1.5 16.4635 1.73767 16.4635 2.013C16.4635 2.28833 16.3635 2.52567 16.1635 2.725L6.98846 11.925C6.78846 12.125 6.55513 12.225 6.28846 12.225C6.02179 12.225 5.78846 12.125 5.58846 11.925L1.28846 7.625C1.08846 7.425 0.992462 7.18767 1.00046 6.913C1.00846 6.63833 1.11279 6.40067 1.31346 6.2C1.51413 5.99933 1.75179 5.89933 2.02646 5.9C2.30113 5.90067 2.53846 6.00067 2.73846 6.2L6.28846 9.775Z" fill="white" stroke="white"/>
</svg>
