<svg width="16" height="16" viewBox="0 0 16 16" fill="none" xmlns="http://www.w3.org/2000/svg">
<path d="M1.61274 1.6L6.84029 8.0808C7.06912 8.36466 7.1937 8.71734 7.19353 9.0808V14.4L8.80647 13.2V9.08C8.80648 8.71682 8.93105 8.36445 9.15971 8.0808L14.3873 1.6H1.61274ZM1.61274 0H14.3873C14.6911 3.76005e-05 14.9888 0.0852189 15.246 0.245733C15.5032 0.406246 15.7094 0.635563 15.841 0.90727C15.9725 1.17898 16.0241 1.48202 15.9896 1.7815C15.9551 2.08097 15.8361 2.3647 15.6462 2.6L10.4194 9.08V13.2C10.4194 13.4484 10.3611 13.6934 10.2491 13.9155C10.1371 14.1377 9.97456 14.331 9.77424 14.48L8.16129 15.68C7.92166 15.8583 7.63671 15.9669 7.33838 15.9935C7.04005 16.0202 6.74012 15.964 6.4722 15.8311C6.20428 15.6982 5.97896 15.4939 5.82148 15.2412C5.664 14.9884 5.58058 14.6971 5.58058 14.4V9.08L0.353841 2.6C0.163928 2.3647 0.0448808 2.08097 0.010412 1.7815C-0.0240568 1.48202 0.0274547 1.17898 0.159013 0.90727C0.290572 0.635563 0.496826 0.406246 0.754019 0.245733C1.01121 0.0852189 1.30888 3.76005e-05 1.61274 0Z" fill="url(#paint0_linear_624_6)"/>
<defs>
<linearGradient id="paint0_linear_624_6" x1="0" y1="0" x2="16" y2="16" gradientUnits="userSpaceOnUse">
<stop stop-color="#17C1EA"/>
<stop offset="1" stop-color="#6672E3"/>
</linearGradient>
</defs>
</svg>
