<svg width="22" height="22" viewBox="0 0 22 22" fill="none" xmlns="http://www.w3.org/2000/svg">
<path d="M2.83333 21.5C2.19167 21.5 1.64256 21.2717 1.186 20.8152C0.729444 20.3586 0.500778 19.8091 0.5 19.1667V2.83333C0.5 2.19167 0.728667 1.64256 1.186 1.186C1.64333 0.729444 2.19244 0.500778 2.83333 0.5H9.83333C10.1639 0.5 10.4412 0.612 10.6652 0.836C10.8892 1.06 11.0008 1.33689 11 1.66667C10.9992 1.99644 10.8872 2.27372 10.664 2.4985C10.4408 2.72328 10.1639 2.83489 9.83333 2.83333H2.83333V19.1667H9.83333C10.1639 19.1667 10.4412 19.2787 10.6652 19.5027C10.8892 19.7267 11.0008 20.0036 11 20.3333C10.9992 20.6631 10.8872 20.9404 10.664 21.1652C10.4408 21.3899 10.1639 21.5016 9.83333 21.5H2.83333ZM17.0375 12.1667H8.66667C8.33611 12.1667 8.05922 12.0547 7.836 11.8307C7.61278 11.6067 7.50078 11.3298 7.5 11C7.49922 10.6702 7.61122 10.3933 7.836 10.1693C8.06078 9.94533 8.33767 9.83333 8.66667 9.83333H17.0375L14.85 7.64583C14.6361 7.43194 14.5292 7.16944 14.5292 6.85833C14.5292 6.54722 14.6361 6.275 14.85 6.04167C15.0639 5.80833 15.3361 5.68661 15.6667 5.6765C15.9972 5.66639 16.2792 5.77839 16.5125 6.0125L20.6833 10.1833C20.9167 10.4167 21.0333 10.6889 21.0333 11C21.0333 11.3111 20.9167 11.5833 20.6833 11.8167L16.5125 15.9875C16.2792 16.2208 16.0023 16.3328 15.6818 16.3235C15.3614 16.3142 15.0841 16.1924 14.85 15.9583C14.6361 15.725 14.5342 15.4481 14.5443 15.1277C14.5544 14.8072 14.6661 14.5397 14.8792 14.325L17.0375 12.1667Z" fill="black"/>
</svg>
