<svg width="10" height="6" viewBox="0 0 10 6" fill="none" xmlns="http://www.w3.org/2000/svg">
<path d="M4.99512 5.99219C4.79822 5.99209 4.60916 5.91075 4.46973 5.76562L0.216797 1.33203C0.0812785 1.18573 0.00611667 0.989618 0.00781296 0.786132C0.00956562 0.582694 0.0876596 0.387909 0.225586 0.24414C0.363501 0.100387 0.550236 0.0194016 0.745118 0.0175773C0.940082 0.0158111 1.12821 0.0940635 1.26856 0.235351L1.26953 0.235351L4.99023 4.11426L4.99512 4.1084L5.00098 4.10352L5.13184 3.97754L8.72266 0.234375C8.8621 0.0892502 9.05114 0.00790024 9.24805 0.00781243C9.44514 0.00781245 9.63489 0.089066 9.77441 0.234375C9.91387 0.379778 9.99212 0.577477 9.99219 0.783203C9.99219 0.988971 9.91386 1.18658 9.77441 1.33203L5.52148 5.76562C5.38196 5.91093 5.19221 5.99219 4.99512 5.99219Z" fill="#3E9BE7" stroke="white" stroke-width="0.015625"/>
</svg>
