<svg width="17" height="17" viewBox="0 0 17 17" fill="none" xmlns="http://www.w3.org/2000/svg">
<path d="M15.8449 2.55248H13.7583V0.856952C13.7583 0.481227 13.4539 0.176291 13.0789 0.176291C12.7038 0.176291 12.3994 0.481227 12.3994 0.856952V2.55248H4.6006V0.680661C4.6006 0.304936 4.2962 0 3.92114 0C3.54608 0 3.24169 0.304936 3.24169 0.680661V2.55248H1.15508C0.517066 2.55248 0 3.07046 0 3.7096V4.92458H17V3.7096C17 3.07046 16.4829 2.55248 15.8449 2.55248Z" fill="url(#paint0_linear_234_2828)"/>
<path d="M0 6.01367V15.5096C0 16.1487 0.517066 16.6667 1.15508 16.6667H15.8449C16.4829 16.6667 17 16.1487 17 15.5096V6.01367H0ZM4.71475 14.539H3.47338C3.17306 14.539 2.92982 14.2953 2.92982 13.9944C2.92982 13.6936 3.17306 13.4499 3.47338 13.4499H4.71475C5.01507 13.4499 5.25831 13.6936 5.25831 13.9944C5.25831 14.2953 5.01507 14.539 4.71475 14.539ZM4.71475 11.5052H3.47338C3.17306 11.5052 2.92982 11.2616 2.92982 10.9607C2.92982 10.6599 3.17306 10.4162 3.47338 10.4162H4.71475C5.01507 10.4162 5.25831 10.6599 5.25831 10.9607C5.25831 11.2616 5.01507 11.5052 4.71475 11.5052ZM4.71475 8.47086H3.47338C3.17306 8.47086 2.92982 8.22718 2.92982 7.92633C2.92982 7.62548 3.17306 7.3818 3.47338 7.3818H4.71475C5.01507 7.3818 5.25831 7.62548 5.25831 7.92633C5.25831 8.22718 5.01507 8.47086 4.71475 8.47086ZM9.20256 14.539H7.96119C7.66087 14.539 7.41763 14.2953 7.41763 13.9944C7.41763 13.6936 7.66087 13.4499 7.96119 13.4499H9.20256C9.50288 13.4499 9.74612 13.6936 9.74612 13.9944C9.74612 14.2953 9.50288 14.539 9.20256 14.539ZM9.20256 11.5052H7.96119C7.66087 11.5052 7.41763 11.2616 7.41763 10.9607C7.41763 10.6599 7.66087 10.4162 7.96119 10.4162H9.20256C9.50288 10.4162 9.74612 10.6599 9.74612 10.9607C9.74612 11.2616 9.50288 11.5052 9.20256 11.5052ZM9.20256 8.47086H7.96119C7.66087 8.47086 7.41763 8.22718 7.41763 7.92633C7.41763 7.62548 7.66087 7.3818 7.96119 7.3818H9.20256C9.50288 7.3818 9.74612 7.62548 9.74612 7.92633C9.74612 8.22718 9.50288 8.47086 9.20256 8.47086ZM13.6183 14.539H12.377C12.0767 14.539 11.8334 14.2953 11.8334 13.9944C11.8334 13.6936 12.0767 13.4499 12.377 13.4499H13.6183C13.9187 13.4499 14.1619 13.6936 14.1619 13.9944C14.1619 14.2953 13.9187 14.539 13.6183 14.539ZM13.6183 11.5052H12.377C12.0767 11.5052 11.8334 11.2616 11.8334 10.9607C11.8334 10.6599 12.0767 10.4162 12.377 10.4162H13.6183C13.9187 10.4162 14.1619 10.6599 14.1619 10.9607C14.1619 11.2616 13.9187 11.5052 13.6183 11.5052ZM13.6183 8.47086H12.377C12.0767 8.47086 11.8334 8.22718 11.8334 7.92633C11.8334 7.62548 12.0767 7.3818 12.377 7.3818H13.6183C13.9187 7.3818 14.1619 7.62548 14.1619 7.92633C14.1619 8.22718 13.9187 8.47086 13.6183 8.47086Z" fill="url(#paint1_linear_234_2828)"/>
<defs>
<linearGradient id="paint0_linear_234_2828" x1="0" y1="0" x2="2.63223" y2="9.08666" gradientUnits="userSpaceOnUse">
<stop stop-color="#17C1EA"/>
<stop offset="1" stop-color="#6672E3"/>
</linearGradient>
<linearGradient id="paint1_linear_234_2828" x1="0" y1="6.01367" x2="9.58679" y2="21.3122" gradientUnits="userSpaceOnUse">
<stop stop-color="#17C1EA"/>
<stop offset="1" stop-color="#6672E3"/>
</linearGradient>
</defs>
</svg>
