<svg width="115" height="36" viewBox="0 0 115 36" fill="none" xmlns="http://www.w3.org/2000/svg">
<path d="M14.168 35.672C11.416 35.672 8.76 35.336 6.2 34.664C3.672 33.96 1.608 33.064 0.00800008 31.976L3.128 24.968C4.632 25.928 6.36 26.728 8.312 27.368C10.296 27.976 12.264 28.28 14.216 28.28C15.528 28.28 16.584 28.168 17.384 27.944C18.184 27.688 18.76 27.368 19.112 26.984C19.496 26.568 19.688 26.088 19.688 25.544C19.688 24.776 19.336 24.168 18.632 23.72C17.928 23.272 17.016 22.904 15.896 22.616C14.776 22.328 13.528 22.04 12.152 21.752C10.808 21.464 9.448 21.096 8.072 20.648C6.728 20.2 5.496 19.624 4.376 18.92C3.256 18.184 2.344 17.24 1.64 16.088C0.936 14.904 0.584 13.416 0.584 11.624C0.584 9.608 1.128 7.784 2.216 6.152C3.336 4.52 5 3.208 7.208 2.216C9.416 1.224 12.168 0.727998 15.464 0.727998C17.672 0.727998 19.832 0.983998 21.944 1.496C24.088 1.976 25.992 2.696 27.656 3.656L24.728 10.712C23.128 9.848 21.544 9.208 19.976 8.792C18.408 8.344 16.888 8.12 15.416 8.12C14.104 8.12 13.048 8.264 12.248 8.552C11.448 8.808 10.872 9.16 10.52 9.608C10.168 10.056 9.992 10.568 9.992 11.144C9.992 11.88 10.328 12.472 11 12.92C11.704 13.336 12.616 13.688 13.736 13.976C14.888 14.232 16.136 14.504 17.48 14.792C18.856 15.08 20.216 15.448 21.56 15.896C22.936 16.312 24.184 16.888 25.304 17.624C26.424 18.328 27.32 19.272 27.992 20.456C28.696 21.608 29.048 23.064 29.048 24.824C29.048 26.776 28.488 28.584 27.368 30.248C26.28 31.88 24.632 33.192 22.424 34.184C20.248 35.176 17.496 35.672 14.168 35.672ZM40.7421 35L29.8461 1.4H39.6381L48.8061 30.488H43.8621L53.5101 1.4H62.2461L71.3661 30.488H66.6141L76.0701 1.4H85.1421L74.2461 35H64.0701L56.2941 10.28H59.0301L50.9181 35H40.7421ZM99.3555 35.672C96.6035 35.672 93.9475 35.336 91.3875 34.664C88.8595 33.96 86.7955 33.064 85.1955 31.976L88.3155 24.968C89.8195 25.928 91.5475 26.728 93.4995 27.368C95.4835 27.976 97.4515 28.28 99.4035 28.28C100.716 28.28 101.772 28.168 102.572 27.944C103.372 27.688 103.948 27.368 104.3 26.984C104.684 26.568 104.876 26.088 104.876 25.544C104.876 24.776 104.524 24.168 103.82 23.72C103.116 23.272 102.204 22.904 101.084 22.616C99.9635 22.328 98.7155 22.04 97.3395 21.752C95.9955 21.464 94.6355 21.096 93.2595 20.648C91.9155 20.2 90.6835 19.624 89.5635 18.92C88.4435 18.184 87.5315 17.24 86.8275 16.088C86.1235 14.904 85.7715 13.416 85.7715 11.624C85.7715 9.608 86.3155 7.784 87.4035 6.152C88.5235 4.52 90.1875 3.208 92.3955 2.216C94.6035 1.224 97.3555 0.727998 100.652 0.727998C102.86 0.727998 105.02 0.983998 107.132 1.496C109.276 1.976 111.18 2.696 112.844 3.656L109.916 10.712C108.316 9.848 106.732 9.208 105.164 8.792C103.596 8.344 102.076 8.12 100.604 8.12C99.2915 8.12 98.2355 8.264 97.4355 8.552C96.6355 8.808 96.0595 9.16 95.7075 9.608C95.3555 10.056 95.1795 10.568 95.1795 11.144C95.1795 11.88 95.5155 12.472 96.1875 12.92C96.8915 13.336 97.8035 13.688 98.9235 13.976C100.076 14.232 101.324 14.504 102.668 14.792C104.044 15.08 105.404 15.448 106.748 15.896C108.124 16.312 109.372 16.888 110.492 17.624C111.612 18.328 112.508 19.272 113.18 20.456C113.884 21.608 114.236 23.064 114.236 24.824C114.236 26.776 113.676 28.584 112.556 30.248C111.468 31.88 109.82 33.192 107.612 34.184C105.436 35.176 102.684 35.672 99.3555 35.672Z" fill="url(#paint0_linear_217_429)"/>
<defs>
<linearGradient id="paint0_linear_217_429" x1="-1" y1="-6" x2="32.7107" y2="76.1699" gradientUnits="userSpaceOnUse">
<stop stop-color="#17C1EA"/>
<stop offset="1" stop-color="#6672E3"/>
</linearGradient>
</defs>
</svg>
