<svg width="313" height="82" viewBox="0 0 313 82" fill="none" xmlns="http://www.w3.org/2000/svg">
<path d="M15.5118 41.672C12.7598 41.672 10.1038 41.336 7.54375 40.664C5.01575 39.96 2.95175 39.064 1.35175 37.976L4.47175 30.968C5.97575 31.928 7.70375 32.728 9.65575 33.368C11.6398 33.976 13.6078 34.28 15.5598 34.28C16.8718 34.28 17.9278 34.168 18.7278 33.944C19.5278 33.688 20.1038 33.368 20.4558 32.984C20.8398 32.568 21.0318 32.088 21.0318 31.544C21.0318 30.776 20.6798 30.168 19.9758 29.72C19.2718 29.272 18.3598 28.904 17.2398 28.616C16.1198 28.328 14.8718 28.04 13.4958 27.752C12.1518 27.464 10.7918 27.096 9.41575 26.648C8.07175 26.2 6.83975 25.624 5.71975 24.92C4.59975 24.184 3.68775 23.24 2.98375 22.088C2.27975 20.904 1.92775 19.416 1.92775 17.624C1.92775 15.608 2.47175 13.784 3.55975 12.152C4.67975 10.52 6.34375 9.208 8.55175 8.216C10.7598 7.224 13.5118 6.728 16.8078 6.728C19.0158 6.728 21.1758 6.984 23.2878 7.496C25.4318 7.976 27.3358 8.696 28.9998 9.656L26.0718 16.712C24.4718 15.848 22.8878 15.208 21.3198 14.792C19.7518 14.344 18.2318 14.12 16.7598 14.12C15.4478 14.12 14.3918 14.264 13.5918 14.552C12.7918 14.808 12.2158 15.16 11.8638 15.608C11.5118 16.056 11.3358 16.568 11.3358 17.144C11.3358 17.88 11.6718 18.472 12.3438 18.92C13.0478 19.336 13.9598 19.688 15.0798 19.976C16.2318 20.232 17.4798 20.504 18.8238 20.792C20.1998 21.08 21.5598 21.448 22.9038 21.896C24.2798 22.312 25.5278 22.888 26.6478 23.624C27.7678 24.328 28.6638 25.272 29.3358 26.456C30.0398 27.608 30.3918 29.064 30.3918 30.824C30.3918 32.776 29.8318 34.584 28.7118 36.248C27.6238 37.88 25.9758 39.192 23.7678 40.184C21.5918 41.176 18.8398 41.672 15.5118 41.672ZM40.4651 41V14.936H30.1451V7.4H60.2411V14.936H49.9691V41H40.4651ZM57.0624 41L71.8944 7.4H81.2544L96.1344 41H86.2464L74.6304 12.056H78.3744L66.7584 41H57.0624ZM65.1744 34.472L67.6224 27.464H84.0384L86.4864 34.472H65.1744ZM97.8288 41V7.4H105.653L119.573 30.248H115.445L128.981 7.4H136.805L136.901 41H128.165L128.069 20.696H129.557L119.429 37.688H115.205L104.789 20.696H106.613V41H97.8288ZM142.626 41V7.4H157.986C161.058 7.4 163.698 7.896 165.906 8.888C168.146 9.88 169.874 11.32 171.09 13.208C172.306 15.064 172.914 17.272 172.914 19.832C172.914 22.36 172.306 24.552 171.09 26.408C169.874 28.264 168.146 29.704 165.906 30.728C163.698 31.72 161.058 32.216 157.986 32.216H147.906L152.13 28.088V41H142.626ZM152.13 29.096L147.906 24.728H157.41C159.394 24.728 160.866 24.296 161.826 23.432C162.818 22.568 163.314 21.368 163.314 19.832C163.314 18.264 162.818 17.048 161.826 16.184C160.866 15.32 159.394 14.888 157.41 14.888H147.906L152.13 10.52V29.096Z" fill="url(#paint0_linear_215_6)"/>
<path d="M188.344 41L176.92 7.4H179.512L190.36 39.512H189.064L200.248 7.4H202.6L213.688 39.512H212.44L223.384 7.4H225.784L214.408 41H211.816L201.064 9.944H201.688L190.936 41H188.344ZM223.193 41L238.649 7.4H241.097L256.553 41H253.913L239.321 8.936H240.377L225.833 41H223.193ZM228.857 31.544L229.673 29.48H249.785L250.601 31.544H228.857ZM259.653 41V7.4H262.101V38.792H281.445V41H259.653ZM286.843 32.504L286.747 29.432L308.155 7.4H311.131L296.155 22.904L294.763 24.392L286.843 32.504ZM284.731 41V7.4H287.179V41H284.731ZM309.163 41L294.043 23.72L295.723 21.944L312.139 41H309.163Z" fill="url(#paint1_linear_215_6)"/>
<path d="M40.16 75L50.464 52.6H52.096L62.4 75H60.64L50.912 53.624H51.616L41.92 75H40.16ZM43.936 68.696L44.48 67.32H57.888L58.432 68.696H43.936ZM72.2303 75.128C70.6729 75.128 69.2649 74.776 68.0063 74.072C66.7689 73.3467 65.7876 72.344 65.0623 71.064C64.3369 69.784 63.9743 68.312 63.9743 66.648C63.9743 64.9627 64.3369 63.4907 65.0623 62.232C65.7876 60.952 66.7689 59.96 68.0063 59.256C69.2649 58.5307 70.6729 58.168 72.2303 58.168C73.7023 58.168 75.0249 58.5093 76.1983 59.192C77.3929 59.8747 78.3316 60.8453 79.0143 62.104C79.7183 63.3627 80.0703 64.8773 80.0703 66.648C80.0703 68.376 79.7289 69.88 79.0463 71.16C78.3636 72.44 77.4249 73.4213 76.2303 74.104C75.0569 74.7867 73.7236 75.128 72.2303 75.128ZM72.3263 73.688C73.6063 73.688 74.7476 73.4 75.7503 72.824C76.7743 72.2267 77.5743 71.3947 78.1503 70.328C78.7476 69.2613 79.0463 68.0347 79.0463 66.648C79.0463 65.24 78.7476 64.0133 78.1503 62.968C77.5743 61.9013 76.7743 61.08 75.7503 60.504C74.7476 59.9067 73.6063 59.608 72.3263 59.608C71.0463 59.608 69.8943 59.9067 68.8703 60.504C67.8676 61.08 67.0676 61.9013 66.4703 62.968C65.8943 64.0133 65.6063 65.24 65.6063 66.648C65.6063 68.0347 65.8943 69.2613 66.4703 70.328C67.0676 71.3947 67.8676 72.2267 68.8703 72.824C69.8943 73.4 71.0463 73.688 72.3263 73.688ZM79.0783 75V69.528L79.3663 66.616L79.0463 63.704V51.256H80.6463V75H79.0783ZM108.192 58.168C109.536 58.168 110.699 58.4347 111.68 58.968C112.683 59.48 113.461 60.2693 114.016 61.336C114.571 62.3813 114.848 63.6827 114.848 65.24V75H113.248V65.368C113.248 63.4907 112.789 62.0613 111.872 61.08C110.955 60.0987 109.675 59.608 108.032 59.608C106.773 59.608 105.685 59.8747 104.768 60.408C103.851 60.9413 103.147 61.688 102.656 62.648C102.165 63.608 101.92 64.76 101.92 66.104V75H100.32V65.368C100.32 63.4907 99.8613 62.0613 98.944 61.08C98.0267 60.0987 96.7467 59.608 95.104 59.608C93.8453 59.608 92.7573 59.8747 91.84 60.408C90.9227 60.9413 90.2187 61.688 89.728 62.648C89.2373 63.608 88.992 64.76 88.992 66.104V75H87.392V58.296H88.928V62.904L88.704 62.392C89.1947 61.0907 90.016 60.0667 91.168 59.32C92.32 58.552 93.7067 58.168 95.328 58.168C96.992 58.168 98.3893 58.5947 99.52 59.448C100.672 60.28 101.397 61.528 101.696 63.192L101.152 62.968C101.6 61.5387 102.443 60.3867 103.68 59.512C104.917 58.616 106.421 58.168 108.192 58.168ZM121.455 75V58.296H123.055V75H121.455ZM122.255 54.232C121.892 54.232 121.583 54.104 121.327 53.848C121.071 53.592 120.943 53.2933 120.943 52.952C120.943 52.5893 121.071 52.28 121.327 52.024C121.583 51.768 121.892 51.64 122.255 51.64C122.639 51.64 122.948 51.768 123.183 52.024C123.439 52.2587 123.567 52.5573 123.567 52.92C123.567 53.2827 123.439 53.592 123.183 53.848C122.948 54.104 122.639 54.232 122.255 54.232ZM137.958 58.168C139.324 58.168 140.508 58.4347 141.51 58.968C142.534 59.48 143.324 60.2693 143.878 61.336C144.454 62.3813 144.742 63.6827 144.742 65.24V75H143.142V65.368C143.142 63.4907 142.662 62.0613 141.702 61.08C140.764 60.0987 139.441 59.608 137.734 59.608C136.433 59.608 135.302 59.8747 134.342 60.408C133.382 60.9413 132.646 61.688 132.134 62.648C131.644 63.608 131.398 64.76 131.398 66.104V75H129.798V58.296H131.334V62.936L131.11 62.424C131.622 61.1013 132.465 60.0667 133.638 59.32C134.812 58.552 136.252 58.168 137.958 58.168ZM165.948 75.16C164.284 75.16 162.706 74.8827 161.212 74.328C159.74 73.752 158.599 73.016 157.788 72.12L158.524 70.904C159.292 71.6933 160.338 72.3653 161.66 72.92C163.004 73.4533 164.423 73.72 165.916 73.72C167.41 73.72 168.626 73.528 169.564 73.144C170.524 72.7387 171.228 72.2053 171.676 71.544C172.146 70.8827 172.38 70.1467 172.38 69.336C172.38 68.376 172.124 67.608 171.612 67.032C171.1 66.456 170.428 65.9973 169.596 65.656C168.764 65.3147 167.858 65.0267 166.876 64.792C165.895 64.5573 164.903 64.312 163.9 64.056C162.898 63.7787 161.98 63.4267 161.148 63C160.316 62.5733 159.644 61.9973 159.132 61.272C158.642 60.5253 158.396 59.5653 158.396 58.392C158.396 57.3253 158.674 56.344 159.228 55.448C159.783 54.552 160.647 53.8267 161.82 53.272C162.994 52.7173 164.498 52.44 166.332 52.44C167.57 52.44 168.786 52.6213 169.98 52.984C171.196 53.3467 172.231 53.8373 173.084 54.456L172.476 55.768C171.538 55.128 170.524 54.6587 169.436 54.36C168.37 54.04 167.335 53.88 166.332 53.88C164.903 53.88 163.719 54.0827 162.78 54.488C161.842 54.8933 161.148 55.4373 160.7 56.12C160.252 56.7813 160.028 57.528 160.028 58.36C160.028 59.32 160.274 60.088 160.764 60.664C161.276 61.24 161.948 61.6987 162.78 62.04C163.612 62.3813 164.53 62.6693 165.532 62.904C166.535 63.1387 167.527 63.3947 168.508 63.672C169.49 63.928 170.396 64.2693 171.228 64.696C172.06 65.1227 172.732 65.6987 173.244 66.424C173.756 67.1493 174.012 68.088 174.012 69.24C174.012 70.2853 173.724 71.2667 173.148 72.184C172.572 73.08 171.687 73.8053 170.492 74.36C169.319 74.8933 167.804 75.16 165.948 75.16ZM178.352 81.336C177.584 81.336 176.858 81.208 176.176 80.952C175.514 80.696 174.949 80.3227 174.48 79.832L175.28 78.616C175.706 79.064 176.165 79.3947 176.656 79.608C177.168 79.8213 177.744 79.928 178.384 79.928C179.152 79.928 179.824 79.7147 180.4 79.288C180.997 78.8613 181.552 78.0827 182.064 76.952L183.216 74.392L183.44 74.104L190.512 58.296H192.144L183.568 77.272C183.12 78.296 182.629 79.096 182.096 79.672C181.584 80.2693 181.018 80.696 180.4 80.952C179.781 81.208 179.098 81.336 178.352 81.336ZM183.184 75.416L175.44 58.296H177.136L184.176 74.008L183.184 75.416ZM199.679 75.128C198.292 75.128 196.991 74.9253 195.775 74.52C194.58 74.1147 193.652 73.6027 192.991 72.984L193.727 71.704C194.367 72.2587 195.22 72.7387 196.286 73.144C197.353 73.528 198.505 73.72 199.743 73.72C201.492 73.72 202.751 73.432 203.519 72.856C204.287 72.28 204.671 71.5227 204.671 70.584C204.671 69.9013 204.468 69.368 204.063 68.984C203.679 68.5787 203.156 68.2693 202.495 68.056C201.833 67.8427 201.108 67.672 200.319 67.544C199.529 67.3947 198.74 67.2347 197.951 67.064C197.161 66.8933 196.436 66.648 195.775 66.328C195.113 66.008 194.58 65.5707 194.174 65.016C193.791 64.44 193.599 63.6827 193.599 62.744C193.599 61.8907 193.833 61.1227 194.303 60.44C194.772 59.7573 195.476 59.2133 196.415 58.808C197.353 58.3813 198.527 58.168 199.935 58.168C200.98 58.168 202.025 58.3173 203.071 58.616C204.137 58.9147 205.001 59.3093 205.663 59.8L204.927 61.08C204.223 60.5467 203.433 60.1627 202.559 59.928C201.684 59.6933 200.799 59.576 199.903 59.576C198.281 59.576 197.087 59.8747 196.319 60.472C195.572 61.0693 195.199 61.816 195.199 62.712C195.199 63.416 195.391 63.9813 195.775 64.408C196.18 64.8133 196.713 65.1333 197.375 65.368C198.036 65.5813 198.761 65.7627 199.551 65.912C200.34 66.04 201.129 66.1893 201.919 66.36C202.708 66.5307 203.433 66.776 204.095 67.096C204.756 67.3947 205.279 67.8213 205.663 68.376C206.068 68.9093 206.271 69.6347 206.271 70.552C206.271 71.4693 206.015 72.2693 205.503 72.952C205.012 73.6347 204.276 74.168 203.295 74.552C202.313 74.936 201.108 75.128 199.679 75.128ZM215.6 75.128C214.128 75.128 212.997 74.7227 212.208 73.912C211.44 73.1013 211.056 71.992 211.056 70.584V54.648H212.656V70.424C212.656 71.4907 212.922 72.312 213.456 72.888C213.989 73.464 214.757 73.752 215.76 73.752C216.805 73.752 217.669 73.4427 218.352 72.824L219.024 73.944C218.597 74.3493 218.074 74.648 217.456 74.84C216.858 75.032 216.24 75.128 215.6 75.128ZM207.984 59.672V58.296H217.968V59.672H207.984ZM229.676 75.128C227.991 75.128 226.497 74.7653 225.196 74.04C223.916 73.3147 222.903 72.312 222.156 71.032C221.431 69.752 221.068 68.2907 221.068 66.648C221.068 64.984 221.409 63.5227 222.092 62.264C222.796 60.984 223.756 59.9813 224.972 59.256C226.188 58.5307 227.553 58.168 229.068 58.168C230.583 58.168 231.937 58.52 233.132 59.224C234.348 59.928 235.297 60.92 235.98 62.2C236.684 63.4587 237.036 64.92 237.036 66.584C237.036 66.648 237.025 66.7227 237.004 66.808C237.004 66.872 237.004 66.9467 237.004 67.032H222.252V65.784H236.14L235.5 66.392C235.521 65.0907 235.244 63.928 234.668 62.904C234.113 61.8587 233.356 61.048 232.396 60.472C231.436 59.8747 230.327 59.576 229.068 59.576C227.831 59.576 226.721 59.8747 225.74 60.472C224.78 61.048 224.023 61.8587 223.468 62.904C222.913 63.928 222.636 65.1013 222.636 66.424V66.712C222.636 68.0773 222.935 69.2933 223.532 70.36C224.151 71.4053 224.993 72.2267 226.06 72.824C227.127 73.4 228.343 73.688 229.708 73.688C230.775 73.688 231.767 73.496 232.684 73.112C233.623 72.728 234.412 72.1413 235.052 71.352L235.98 72.408C235.255 73.304 234.337 73.9867 233.228 74.456C232.14 74.904 230.956 75.128 229.676 75.128ZM262.786 58.168C264.13 58.168 265.292 58.4347 266.274 58.968C267.276 59.48 268.055 60.2693 268.61 61.336C269.164 62.3813 269.442 63.6827 269.442 65.24V75H267.842V65.368C267.842 63.4907 267.383 62.0613 266.466 61.08C265.548 60.0987 264.268 59.608 262.626 59.608C261.367 59.608 260.279 59.8747 259.362 60.408C258.444 60.9413 257.74 61.688 257.25 62.648C256.759 63.608 256.514 64.76 256.514 66.104V75H254.914V65.368C254.914 63.4907 254.455 62.0613 253.538 61.08C252.62 60.0987 251.34 59.608 249.698 59.608C248.439 59.608 247.351 59.8747 246.434 60.408C245.516 60.9413 244.812 61.688 244.322 62.648C243.831 63.608 243.586 64.76 243.586 66.104V75H241.986V58.296H243.522V62.904L243.298 62.392C243.788 61.0907 244.61 60.0667 245.762 59.32C246.914 58.552 248.3 58.168 249.922 58.168C251.586 58.168 252.983 58.5947 254.114 59.448C255.266 60.28 255.991 61.528 256.29 63.192L255.746 62.968C256.194 61.5387 257.036 60.3867 258.274 59.512C259.511 58.616 261.015 58.168 262.786 58.168Z" fill="url(#paint2_linear_215_6)"/>
<defs>
<linearGradient id="paint0_linear_215_6" x1="0" y1="0" x2="24.4891" y2="89.283" gradientUnits="userSpaceOnUse">
<stop stop-color="#17C1EA"/>
<stop offset="1" stop-color="#6672E3"/>
</linearGradient>
<linearGradient id="paint1_linear_215_6" x1="175" y1="0" x2="204.788" y2="85.6391" gradientUnits="userSpaceOnUse">
<stop stop-color="#17C1EA"/>
<stop offset="1" stop-color="#6672E3"/>
</linearGradient>
<linearGradient id="paint2_linear_215_6" x1="40" y1="48" x2="48.627" y2="110.815" gradientUnits="userSpaceOnUse">
<stop stop-color="#17C1EA"/>
<stop offset="1" stop-color="#6672E3"/>
</linearGradient>
</defs>
</svg>
