<svg width="20" height="21" viewBox="0 0 20 21" fill="none" xmlns="http://www.w3.org/2000/svg">
<path d="M9.15479 15.2453C9.24219 15.3324 9.31154 15.4359 9.35886 15.5498C9.40617 15.6638 9.43053 15.786 9.43053 15.9094C9.43053 16.0327 9.40617 16.1549 9.35886 16.2689C9.31154 16.3828 9.24219 16.4863 9.15479 16.5734L8.75479 16.9734C8.33018 17.3996 7.82529 17.7374 7.26932 17.9672C6.71335 18.1971 6.11733 18.3144 5.51573 18.3125C4.60974 18.3128 3.72402 18.0443 2.97062 17.5411C2.21723 17.0379 1.63001 16.3226 1.28326 15.4856C0.936516 14.6486 0.84582 13.7275 1.02265 12.8389C1.19948 11.9504 1.63589 11.1342 2.27667 10.4937L4.99151 7.77889C5.56896 7.20153 6.29023 6.789 7.08066 6.58401C7.87109 6.37902 8.70194 6.38903 9.4872 6.61299C10.2725 6.83695 10.9836 7.26673 11.547 7.85784C12.1104 8.44894 12.5055 9.17988 12.6915 9.97499C12.7223 10.0959 12.7287 10.2217 12.7102 10.3451C12.6918 10.4685 12.6489 10.5869 12.5841 10.6935C12.5193 10.8001 12.4338 10.8927 12.3328 10.9659C12.2317 11.039 12.1171 11.0913 11.9956 11.1196C11.8741 11.1479 11.7482 11.1516 11.6252 11.1306C11.5022 11.1096 11.3847 11.0643 11.2794 10.9972C11.1742 10.9302 11.0834 10.8429 11.0124 10.7403C10.9413 10.6378 10.8915 10.5221 10.8657 10.4C10.7554 9.93063 10.5216 9.49928 10.1887 9.15052C9.85577 8.80175 9.43574 8.54824 8.97202 8.41618C8.5083 8.28412 8.01773 8.27831 7.55101 8.39935C7.0843 8.52039 6.65838 8.76389 6.31729 9.10467L3.60245 11.8195C3.22402 12.1976 2.96622 12.6795 2.86165 13.2041C2.75709 13.7288 2.81046 14.2727 3.01501 14.767C3.21955 15.2613 3.5661 15.6838 4.01081 15.9812C4.45552 16.2785 4.97842 16.4373 5.51339 16.4375C5.86884 16.4385 6.22097 16.3691 6.54939 16.2331C6.87781 16.0971 7.17599 15.8973 7.42667 15.6453L7.82589 15.2453C7.913 15.1578 8.01654 15.0883 8.13057 15.0409C8.24459 14.9936 8.36686 14.9692 8.49034 14.9692C8.61382 14.9692 8.73609 14.9936 8.85011 15.0409C8.96414 15.0883 9.06768 15.1578 9.15479 15.2453ZM17.7212 4.02889C16.8619 3.16992 15.6967 2.68738 14.4817 2.68738C13.2668 2.68738 12.1015 3.16992 11.2423 4.02889L10.8431 4.42811C10.667 4.60423 10.568 4.8431 10.568 5.09217C10.568 5.34124 10.667 5.58011 10.8431 5.75624C11.0192 5.93236 11.2581 6.0313 11.5071 6.0313C11.7562 6.0313 11.9951 5.93236 12.1712 5.75624L12.5712 5.35624C13.0788 4.84859 13.7673 4.5634 14.4853 4.5634C15.2032 4.5634 15.8917 4.84859 16.3993 5.35624C16.907 5.86388 17.1922 6.55239 17.1922 7.2703C17.1922 7.98821 16.907 8.67672 16.3993 9.18436L13.6798 11.8953C13.4291 12.1473 13.1309 12.3471 12.8025 12.4831C12.4741 12.6191 12.122 12.6885 11.7665 12.6875C11.1567 12.6871 10.565 12.4806 10.0872 12.1017C9.6095 11.7228 9.27376 11.1936 9.13448 10.6C9.07812 10.3578 8.92785 10.1479 8.71672 10.0164C8.5056 9.88502 8.25092 9.84285 8.0087 9.8992C7.76648 9.95556 7.55657 10.1058 7.42515 10.317C7.29373 10.5281 7.25156 10.7828 7.30792 11.025C7.54316 12.0304 8.11112 12.9268 8.91971 13.5689C9.72829 14.211 10.7301 14.5611 11.7626 14.5625H11.7665C12.3684 14.5641 12.9646 14.4464 13.5207 14.2162C14.0769 13.9859 14.5818 13.6477 15.0064 13.2211L17.7212 10.5062C18.1466 10.081 18.484 9.57605 18.7142 9.02036C18.9444 8.46466 19.0629 7.86906 19.0629 7.26756C19.0629 6.66607 18.9444 6.07047 18.7142 5.51477C18.484 4.95907 18.1466 4.45417 17.7212 4.02889Z" fill="#EF8625"/>
</svg>
