<svg width="20" height="20" viewBox="0 0 20 20" fill="none" xmlns="http://www.w3.org/2000/svg">
<path d="M9.15479 14.7454C9.24219 14.8325 9.31154 14.936 9.35886 15.05C9.40617 15.1639 9.43053 15.2861 9.43053 15.4095C9.43053 15.5329 9.40617 15.655 9.35886 15.769C9.31154 15.883 9.24219 15.9864 9.15479 16.0735L8.75479 16.4735C8.33018 16.8997 7.82529 17.2375 7.26932 17.4674C6.71335 17.6972 6.11733 17.8145 5.51573 17.8126C4.60974 17.8129 3.72402 17.5445 2.97062 17.0413C2.21723 16.5381 1.63001 15.8227 1.28326 14.9857C0.936516 14.1487 0.84582 13.2276 1.02265 12.3391C1.19948 11.4505 1.63589 10.6343 2.27667 9.99386L4.99151 7.27901C5.56896 6.70165 6.29023 6.28912 7.08066 6.08413C7.87109 5.87915 8.70194 5.88915 9.4872 6.11311C10.2725 6.33708 10.9836 6.76686 11.547 7.35796C12.1104 7.94906 12.5055 8.68 12.6915 9.47511C12.7223 9.596 12.7287 9.72183 12.7102 9.84521C12.6918 9.9686 12.6489 10.0871 12.5841 10.1937C12.5193 10.3003 12.4338 10.3928 12.3328 10.466C12.2317 10.5392 12.1171 10.5914 11.9956 10.6197C11.8741 10.648 11.7482 10.6517 11.6252 10.6307C11.5022 10.6097 11.3847 10.5644 11.2794 10.4974C11.1742 10.4303 11.0834 10.343 11.0124 10.2404C10.9413 10.1379 10.8915 10.0222 10.8657 9.90011C10.7554 9.43076 10.5216 8.9994 10.1887 8.65064C9.85577 8.30188 9.43574 8.04836 8.97202 7.9163C8.5083 7.78425 8.01773 7.77844 7.55101 7.89948C7.0843 8.02052 6.65838 8.26401 6.31729 8.60479L3.60245 11.3196C3.22402 11.6978 2.96622 12.1796 2.86165 12.7043C2.75709 13.2289 2.81046 13.7728 3.01501 14.2671C3.21955 14.7614 3.5661 15.184 4.01081 15.4813C4.45552 15.7787 4.97842 15.9375 5.51339 15.9376C5.86884 15.9387 6.22097 15.8692 6.54939 15.7332C6.87781 15.5972 7.17599 15.3974 7.42667 15.1454L7.82589 14.7454C7.913 14.6579 8.01654 14.5885 8.13057 14.5411C8.24459 14.4937 8.36686 14.4693 8.49034 14.4693C8.61382 14.4693 8.73608 14.4937 8.85011 14.5411C8.96414 14.5885 9.06768 14.6579 9.15479 14.7454ZM17.7212 3.52901C16.8619 2.67004 15.6967 2.1875 14.4817 2.1875C13.2668 2.1875 12.1015 2.67004 11.2423 3.52901L10.8431 3.92823C10.667 4.10435 10.568 4.34322 10.568 4.59229C10.568 4.84137 10.667 5.08024 10.8431 5.25636C11.0192 5.43248 11.2581 5.53142 11.5071 5.53142C11.7562 5.53142 11.9951 5.43248 12.1712 5.25636L12.5712 4.85636C13.0788 4.34872 13.7673 4.06353 14.4853 4.06353C15.2032 4.06353 15.8917 4.34872 16.3993 4.85636C16.907 5.364 17.1922 6.05251 17.1922 6.77042C17.1922 7.48833 16.907 8.17684 16.3993 8.68448L13.6798 11.3954C13.4291 11.6474 13.1309 11.8472 12.8025 11.9832C12.4741 12.1192 12.122 12.1887 11.7665 12.1876C11.1567 12.1872 10.565 11.9808 10.0872 11.6019C9.6095 11.2229 9.27376 10.6938 9.13448 10.1001C9.07812 9.85789 8.92785 9.64798 8.71672 9.51656C8.5056 9.38514 8.25092 9.34297 8.0087 9.39933C7.76648 9.45568 7.55657 9.60596 7.42515 9.81708C7.29373 10.0282 7.25156 10.2829 7.30792 10.5251C7.54316 11.5305 8.11112 12.4269 8.91971 13.069C9.7283 13.7111 10.7301 14.0612 11.7626 14.0626H11.7665C12.3684 14.0643 12.9646 13.9466 13.5207 13.7163C14.0769 13.4861 14.5818 13.1478 15.0064 12.7212L17.7212 10.0064C18.1466 9.58108 18.484 9.07618 18.7142 8.52048C18.9444 7.96478 19.0629 7.36918 19.0629 6.76769C19.0629 6.16619 18.9444 5.57059 18.7142 5.01489C18.484 4.45919 18.1466 3.95429 17.7212 3.52901Z" fill="#999999"/>
</svg>
