<svg width="40" height="40" viewBox="0 0 40 40" fill="none" xmlns="http://www.w3.org/2000/svg">
<g filter="url(#filter0_i_352_302)">
<path d="M34 32C34 34.1217 33.1572 36.1566 31.6569 37.6569C30.1566 39.1571 28.1218 40 26 40H14C12.9478 40 11.9058 39.7924 10.9339 39.3891C9.96202 38.9858 9.07922 38.3948 8.33609 37.6498C7.59296 36.9048 7.0041 36.0205 6.60324 35.0476C6.20238 34.0747 5.99739 33.0323 6.00003 31.98V8C6.00003 7.46957 6.21074 6.96086 6.58581 6.58579C6.96088 6.21071 7.46959 6 8.00003 6C8.53046 6 9.03917 6.21071 9.41424 6.58579C9.78931 6.96086 10 7.46957 10 8V20H12V4C12 3.46957 12.2107 2.96086 12.5858 2.58579C12.9609 2.21071 13.4696 2 14 2C14.5305 2 15.0392 2.21071 15.4142 2.58579C15.7893 2.96086 16 3.46957 16 4V20H18V2C18 1.46957 18.2107 0.960859 18.5858 0.585786C18.9609 0.210714 19.4696 0 20 0C20.5305 0 21.0392 0.210714 21.4142 0.585786C21.7893 0.960859 22 1.46957 22 2V20H24V4C24 3.46957 24.2107 2.96086 24.5858 2.58579C24.9609 2.21071 25.4696 2 26 2C26.5305 2 27.0392 2.21071 27.4142 2.58579C27.7893 2.96086 28 3.46957 28 4V30H30V18C30 17.4696 30.2107 16.9609 30.5858 16.5858C30.9609 16.2107 31.4696 16 32 16H34V32Z" fill="white"/>
<path d="M34 32C34 34.1217 33.1572 36.1566 31.6569 37.6569C30.1566 39.1571 28.1218 40 26 40H14C12.9478 40 11.9058 39.7924 10.9339 39.3891C9.96202 38.9858 9.07922 38.3948 8.33609 37.6498C7.59296 36.9048 7.0041 36.0205 6.60324 35.0476C6.20238 34.0747 5.99739 33.0323 6.00003 31.98V8C6.00003 7.46957 6.21074 6.96086 6.58581 6.58579C6.96088 6.21071 7.46959 6 8.00003 6C8.53046 6 9.03917 6.21071 9.41424 6.58579C9.78931 6.96086 10 7.46957 10 8V20H12V4C12 3.46957 12.2107 2.96086 12.5858 2.58579C12.9609 2.21071 13.4696 2 14 2C14.5305 2 15.0392 2.21071 15.4142 2.58579C15.7893 2.96086 16 3.46957 16 4V20H18V2C18 1.46957 18.2107 0.960859 18.5858 0.585786C18.9609 0.210714 19.4696 0 20 0C20.5305 0 21.0392 0.210714 21.4142 0.585786C21.7893 0.960859 22 1.46957 22 2V20H24V4C24 3.46957 24.2107 2.96086 24.5858 2.58579C24.9609 2.21071 25.4696 2 26 2C26.5305 2 27.0392 2.21071 27.4142 2.58579C27.7893 2.96086 28 3.46957 28 4V30H30V18C30 17.4696 30.2107 16.9609 30.5858 16.5858C30.9609 16.2107 31.4696 16 32 16H34V32Z" fill="url(#paint0_linear_352_302)"/>
</g>
<defs>
<filter id="filter0_i_352_302" x="6" y="0" width="28" height="42" filterUnits="userSpaceOnUse" color-interpolation-filters="sRGB">
<feFlood flood-opacity="0" result="BackgroundImageFix"/>
<feBlend mode="normal" in="SourceGraphic" in2="BackgroundImageFix" result="shape"/>
<feColorMatrix in="SourceAlpha" type="matrix" values="0 0 0 0 0 0 0 0 0 0 0 0 0 0 0 0 0 0 127 0" result="hardAlpha"/>
<feOffset dy="2"/>
<feGaussianBlur stdDeviation="1"/>
<feComposite in2="hardAlpha" operator="arithmetic" k2="-1" k3="1"/>
<feColorMatrix type="matrix" values="0 0 0 0 0 0 0 0 0 0 0 0 0 0 0 0 0 0 0.25 0"/>
<feBlend mode="normal" in2="shape" result="effect1_innerShadow_352_302"/>
</filter>
<linearGradient id="paint0_linear_352_302" x1="20" y1="0" x2="20" y2="40" gradientUnits="userSpaceOnUse">
<stop stop-color="#977F68"/>
<stop offset="1" stop-color="#B49E89"/>
</linearGradient>
</defs>
</svg>
