<svg width="36" height="36" viewBox="0 0 36 36" fill="none" xmlns="http://www.w3.org/2000/svg">
<rect width="36" height="36" rx="4" fill="white"/>
<path d="M23.7857 11.5714H21.8571V9.96429C21.8571 9.43172 21.4254 9 20.8929 9H9.96429C9.43172 9 9 9.43172 9 9.96429V26.0357C9 26.5683 9.43172 27 9.96429 27H20.8929C21.4254 27 21.8571 26.5683 21.8571 26.0357V24.3438L25.0958 22.8983C26.2525 22.382 27 21.2299 27 19.9631V14.7857C27 13.0134 25.5581 11.5714 23.7857 11.5714ZM24.4286 19.9631C24.4285 20.0873 24.3925 20.2088 24.3249 20.3129C24.2573 20.4171 24.1611 20.4995 24.0477 20.5502L21.8571 21.5279V14.1429H23.7857C24.1402 14.1429 24.4286 14.4313 24.4286 14.7857V19.9631ZM17.3571 23.1429C17.0021 23.1429 16.7143 22.855 16.7143 22.5V13.5C16.7143 13.145 17.0021 12.8571 17.3571 12.8571C17.7122 12.8571 18 13.145 18 13.5V22.5C18 22.855 17.7122 23.1429 17.3571 23.1429ZM13.5 23.1429C13.145 23.1429 12.8571 22.855 12.8571 22.5V13.5C12.8571 13.145 13.145 12.8571 13.5 12.8571C13.855 12.8571 14.1429 13.145 14.1429 13.5V22.5C14.1429 22.855 13.855 23.1429 13.5 23.1429Z" fill="url(#paint0_linear_959_643)"/>
<defs>
<linearGradient id="paint0_linear_959_643" x1="18" y1="9" x2="18" y2="27" gradientUnits="userSpaceOnUse">
<stop stop-color="#F9C20C"/>
<stop offset="1" stop-color="#F4AC0F"/>
</linearGradient>
</defs>
</svg>
