<svg width="20" height="20" viewBox="0 0 20 20" fill="none" xmlns="http://www.w3.org/2000/svg">
<g clip-path="url(#clip0_600_1336)">
<path d="M18.9966 10.3059C19.0074 10.4297 18.9923 10.5543 18.9523 10.6718C18.9124 10.7894 18.8484 10.8974 18.7645 10.9889C18.6805 11.0805 18.5785 11.1536 18.4648 11.2036C18.3512 11.2536 18.2283 11.2795 18.1042 11.2795L16.3931 11.2795C16.1555 11.2795 15.9276 11.1851 15.7595 11.0171C15.5915 10.849 15.4971 10.6211 15.4971 10.3834L15.4971 1.87082C15.4971 1.63317 15.5915 1.40525 15.7595 1.2372C15.9276 1.06916 16.1555 0.974751 16.3931 0.974751L17.3636 0.974751C17.5878 0.974695 17.804 1.05874 17.9693 1.21029C18.1346 1.36184 18.2371 1.56988 18.2565 1.79331L18.9966 10.3059ZM12.8089 10.6635C12.8089 11.038 12.5759 11.3731 12.2376 11.5326C11.4988 11.8812 10.2403 12.5815 9.67263 13.5282C8.94099 14.7486 8.803 16.9534 8.7806 17.4583C8.77746 17.5291 8.77925 17.5999 8.76984 17.6698C8.64843 18.5448 6.95979 17.5228 6.31238 16.4422C5.96068 15.8562 5.91587 15.086 5.95261 14.4843C5.99249 13.8409 6.18111 13.2195 6.36615 12.6021L6.76041 11.2862L1.89612 11.2862C1.75768 11.2862 1.62111 11.2542 1.49714 11.1925C1.37318 11.1309 1.26517 11.0414 1.18162 10.931C1.09806 10.8206 1.04121 10.6924 1.01554 10.5563C0.989868 10.4203 0.99607 10.2801 1.03366 10.1469L3.43959 1.62709C3.49271 1.43918 3.60574 1.27377 3.76151 1.15602C3.91727 1.03826 4.10724 0.974614 4.30251 0.974752L11.9128 0.974751C12.1504 0.974751 12.3784 1.06916 12.5464 1.2372C12.7145 1.40525 12.8089 1.63317 12.8089 1.87082L12.8089 10.6635Z" stroke="#999999" stroke-width="1.5" stroke-linecap="round" stroke-linejoin="round"/>
</g>
<defs>
<clipPath id="clip0_600_1336">
<rect width="20" height="20" fill="white" transform="translate(20 20) rotate(180)"/>
</clipPath>
</defs>
</svg>
