<svg width="32" height="32" viewBox="0 0 32 32" fill="none" xmlns="http://www.w3.org/2000/svg">
<path d="M0.1888 17.8202C0.318867 18.8149 0.806343 19.7284 1.5603 20.3901C2.31425 21.0519 3.2832 21.4169 4.2864 21.4169C5.2896 21.4169 6.25855 21.0519 7.0125 20.3901C7.76646 19.7284 8.25393 18.8149 8.384 17.8202H0.1888ZM22.5165 26.1395C22.5167 26.2236 22.5004 26.3069 22.4684 26.3847C22.4365 26.4625 22.3895 26.5332 22.3302 26.5929C22.2708 26.6525 22.2004 26.6998 22.1227 26.7322C22.0451 26.7645 21.9619 26.7813 21.8778 26.7814H9.93792C9.5872 26.7814 9.29792 26.4934 9.29792 26.1395C9.2991 25.9706 9.36705 25.8089 9.48695 25.6899C9.60684 25.5708 9.76895 25.504 9.93792 25.504H21.8771C22.2304 25.504 22.5165 25.7882 22.5165 26.1395ZM9.36768 27.1085H22.4474V28.9562H9.36768V27.1085ZM23.616 17.8202C23.7456 18.8154 24.2327 19.7295 24.9866 20.392C25.7405 21.0545 26.7097 21.4202 27.7133 21.4208C28.717 21.4211 29.6864 21.0557 30.4401 20.393C31.1939 19.7303 31.6804 18.8156 31.8086 17.8202H23.616ZM31.5834 16.5344L28.2278 11.9123H30.0218C30.4582 11.9123 30.8096 11.5546 30.8096 11.1123C30.8096 10.6739 30.4576 10.32 30.0218 10.32H20.519C20.2371 9.54288 19.7554 8.85378 19.1224 8.32211C18.4894 7.79044 17.7274 7.43497 16.9133 7.29152V4.79744C16.9133 4.35392 16.5574 4 16.1165 4L16.0422 4.00832L15.968 4C15.8633 3.99975 15.7596 4.02021 15.6628 4.06022C15.5661 4.10023 15.4782 4.15899 15.4042 4.23312C15.3303 4.30724 15.2717 4.39527 15.232 4.49212C15.1922 4.58897 15.172 4.69274 15.1725 4.79744V7.29024C14.3586 7.4339 13.5969 7.78946 12.9641 8.32112C12.3313 8.85278 11.8498 9.54177 11.568 10.3187H2.06336C1.63008 10.3187 1.2768 10.6726 1.2768 11.111C1.2768 11.5539 1.63008 11.911 2.06336 11.911H3.77536L0.4192 16.5331H0V17.3869H8.57472V16.5331H8.1536L4.79872 11.9123H12.5869C12.5869 11.7318 12.6067 11.5546 12.6336 11.385C12.6611 11.305 12.6797 11.2237 12.6797 11.1398C12.8242 10.5319 13.1332 9.97552 13.5729 9.53155C14.0126 9.08757 14.566 8.77315 15.1725 8.62272V17.3888H15.1392C15.0707 20.6861 13.5021 23.5616 11.175 25.1776H20.912C18.5843 23.5616 17.017 20.6861 16.9446 17.3888H16.9139V8.62272C17.5203 8.77325 18.0735 9.08772 18.5131 9.53169C18.9527 9.97566 19.2616 10.532 19.4061 11.1398C19.4095 11.2235 19.4255 11.3052 19.4541 11.385C19.4797 11.5552 19.4957 11.7318 19.4957 11.9123H27.2026L23.8464 16.5344H23.4278V17.3882H32V16.5344H31.5834ZM3.9456 16.5344H1.2672L3.9456 12.8448V16.5344ZM4.63104 16.5344V12.8448L7.30944 16.5344H4.63104ZM27.3715 16.5344H24.6918L27.3715 12.8448V16.5344ZM28.0538 16.5344V12.8448L30.7354 16.5344H28.0538ZM5.08224 9.20768C5.07637 9.41468 4.99001 9.61122 4.84152 9.75556C4.69304 9.89989 4.49412 9.98064 4.28704 9.98064C4.07996 9.98064 3.88104 9.89989 3.73256 9.75556C3.58407 9.61122 3.49771 9.41468 3.49184 9.20768C3.49184 8.76864 3.84896 8.41024 4.28864 8.41024C4.7264 8.4096 5.08224 8.76864 5.08224 9.20768ZM28.5088 9.16544C28.5088 9.60768 28.153 9.9584 27.7139 9.9584C27.6095 9.95908 27.506 9.93905 27.4094 9.89946C27.3128 9.85987 27.2249 9.80152 27.151 9.72778C27.0771 9.65404 27.0185 9.56637 26.9787 9.46984C26.9389 9.37332 26.9186 9.26986 26.919 9.16544C26.9147 9.05837 26.9321 8.95154 26.9701 8.85135C27.0081 8.75117 27.066 8.65969 27.1402 8.58242C27.2145 8.50514 27.3035 8.44366 27.4021 8.40166C27.5007 8.35967 27.6068 8.33802 27.7139 8.33802C27.8211 8.33802 27.9271 8.35967 28.0257 8.40166C28.1243 8.44366 28.2134 8.50514 28.2876 8.58242C28.3618 8.65969 28.4197 8.75117 28.4577 8.85135C28.4957 8.95154 28.5131 9.05837 28.5088 9.16544Z" fill="white"/>
</svg>
