<svg width="16" height="16" viewBox="0 0 16 16" fill="none" xmlns="http://www.w3.org/2000/svg">
<path fill-rule="evenodd" clip-rule="evenodd" d="M13.2429 2.10036C13.3983 2.00687 13.5839 1.97722 13.7607 2.01763C13.9375 2.05804 14.0918 2.16537 14.1912 2.31709L14.8855 3.37618C14.9761 3.51453 15.0148 3.68042 14.9949 3.84455C14.975 4.00869 14.8978 4.16052 14.7768 4.27325L14.7747 4.27605L14.7649 4.28517L14.7249 4.32235L14.5671 4.47314C13.6939 5.32018 12.8472 6.19405 12.0281 7.09351C10.4872 8.78805 8.65726 11.0058 7.42563 13.1577C7.08195 13.7581 6.24239 13.8871 5.74441 13.3688L1.19594 8.64287C1.13076 8.57512 1.07986 8.49495 1.04628 8.40714C1.01269 8.31932 0.997105 8.22565 1.00044 8.1317C1.00378 8.03774 1.02597 7.94541 1.0657 7.8602C1.10543 7.77499 1.16189 7.69864 1.23171 7.63568L2.60642 6.39563C2.72723 6.28672 2.88214 6.22317 3.04463 6.21588C3.20712 6.20859 3.3671 6.258 3.49718 6.35566L5.81806 8.09579C9.44351 4.52084 11.4993 3.14893 13.2429 2.10036Z" fill="url(#paint0_linear_367_574)"/>
<defs>
<linearGradient id="paint0_linear_367_574" x1="8" y1="2" x2="8" y2="13.6924" gradientUnits="userSpaceOnUse">
<stop stop-color="#FAC60F"/>
<stop offset="1" stop-color="#E5852B"/>
</linearGradient>
</defs>
</svg>
