<svg width="28" height="40" viewBox="0 0 28 40" fill="none" xmlns="http://www.w3.org/2000/svg">
<path d="M28 32C28 34.1217 27.1572 36.1566 25.6569 37.6569C24.1566 39.1571 22.1218 40 20 40H8.00002C6.94776 40 5.90584 39.7924 4.93393 39.3891C3.96202 38.9858 3.07922 38.3948 2.33609 37.6498C1.59296 36.9048 1.0041 36.0205 0.603239 35.0476C0.202379 34.0747 -0.00260565 33.0323 2.50023e-05 31.98V8C2.50023e-05 7.46957 0.210739 6.96086 0.585811 6.58579C0.960884 6.21071 1.46959 6 2.00003 6C2.53046 6 3.03917 6.21071 3.41424 6.58579C3.78931 6.96086 4.00002 7.46957 4.00002 8V20H6.00002V4C6.00002 3.46957 6.21074 2.96086 6.58581 2.58579C6.96088 2.21071 7.46959 2 8.00002 2C8.53046 2 9.03917 2.21071 9.41424 2.58579C9.78931 2.96086 10 3.46957 10 4V20H12V2C12 1.46957 12.2107 0.960859 12.5858 0.585786C12.9609 0.210714 13.4696 0 14 0C14.5305 0 15.0392 0.210714 15.4142 0.585786C15.7893 0.960859 16 1.46957 16 2V20H18V4C18 3.46957 18.2107 2.96086 18.5858 2.58579C18.9609 2.21071 19.4696 2 20 2C20.5305 2 21.0392 2.21071 21.4142 2.58579C21.7893 2.96086 22 3.46957 22 4V30H24V18C24 17.4696 24.2107 16.9609 24.5858 16.5858C24.9609 16.2107 25.4696 16 26 16H28V32Z" fill="white"/>
</svg>
