<svg width="23" height="24" viewBox="0 0 23 24" fill="none" xmlns="http://www.w3.org/2000/svg">
<path d="M1.36278 12.5004L0.0294111 4.39273C-0.0297121 4.0302 0.00474666 3.65752 0.129157 3.31396C0.253567 2.9704 0.463323 2.66868 0.736323 2.44058C1.00932 2.21249 1.33546 2.06647 1.68037 2.0179C2.02529 1.96934 2.3762 2.02003 2.69615 2.16463L22.0149 10.9185C22.3074 11.0515 22.5565 11.2723 22.7316 11.5534C22.9067 11.8346 23 12.1638 23 12.5004C23 12.837 22.9067 13.1663 22.7316 13.4474C22.5565 13.7286 22.3074 13.9493 22.0149 14.0823L2.69471 22.8362C2.37463 22.9804 2.0237 23.0307 1.67886 22.9819C1.33401 22.933 1.00799 22.7868 0.735085 22.5587C0.462181 22.3305 0.252482 22.0288 0.128047 21.6853C0.0036127 21.3418 -0.0309588 20.9691 0.0279696 20.6066L1.36278 12.5004ZM2.232 4.44149L3.36788 11.3574H10.3879C10.6746 11.3574 10.9496 11.4778 11.1524 11.6922C11.3551 11.9066 11.469 12.1973 11.469 12.5004C11.469 12.8036 11.3551 13.0943 11.1524 13.3087C10.9496 13.523 10.6746 13.6434 10.3879 13.6434H3.36788L2.232 20.5594L20.0156 12.5004L2.232 4.44149Z" fill="#B19B86"/>
</svg>
