<svg width="25" height="24" viewBox="0 0 25 24" fill="none" xmlns="http://www.w3.org/2000/svg">
<path d="M12.5 0C5.59808 0 0 4.62169 0 10.3267C0 14.0371 2.37184 17.2918 5.93183 19.1098C5.66928 20.1281 4.98398 22.8062 4.84603 23.3781C4.67693 24.0895 5.09523 24.0802 5.37113 23.8896C5.58473 23.7408 8.79761 21.4579 10.1816 20.4721C10.9336 20.5884 11.7079 20.6488 12.5 20.6488C19.4019 20.6488 25 16.0271 25 10.3221C25 4.62169 19.4019 0 12.5 0Z" fill="#361C1C"/>
<path d="M3.89435 8.08432H5.16104C5.16104 8.08432 5.16981 11.5892 5.16104 12.4058C5.16104 13.0017 6.48033 13.0105 6.47595 12.4146L6.48033 8.12846C6.48033 8.12846 6.90548 8.13287 7.74264 8.13287C8.53159 8.13287 8.53159 6.88366 7.74264 6.88366C6.85289 6.88366 3.88996 6.85718 3.88996 6.85718C3.14923 6.86159 3.14923 8.08432 3.89435 8.08432Z" fill="#EFD94F"/>
<mask id="mask0_600_1642" style="mask-type:luminance" maskUnits="userSpaceOnUse" x="3" y="6" width="6" height="7">
<path d="M3.89532 8.08432H5.16202C5.16202 8.08432 5.17078 11.5892 5.16202 12.4058C5.16202 13.0017 6.48131 13.0105 6.47692 12.4146L6.48131 8.12846C6.48131 8.12846 6.90646 8.13287 7.74362 8.13287C8.53256 8.13287 8.53256 6.88366 7.74362 6.88366C6.85386 6.88366 3.89094 6.85718 3.89094 6.85718C3.15021 6.86159 3.15021 8.08432 3.89532 8.08432Z" fill="white"/>
</mask>
<g mask="url(#mask0_600_1642)">
<path d="M8.33594 6.85718H3.33594V12.8572H8.33594V6.85718Z" fill="#EFD94F"/>
</g>
<path d="M10.02 8.27752L10.6925 10.5008H9.29319L10.02 8.27752ZM9.26395 7.23644C8.96738 7.92902 7.89389 11.1934 7.53885 12.0581C7.27987 12.6845 8.39095 13.1962 8.64993 12.5698L8.89219 11.6787H11.1018C11.1018 11.6787 11.0266 11.714 11.319 12.5345C11.5571 13.1962 12.7058 12.7374 12.4677 12.0757C12.1294 11.1273 10.9556 7.72169 10.7426 7.24085C10.6424 7.01587 10.2915 6.85706 9.94898 6.85706C9.66076 6.85265 9.38508 6.96293 9.26395 7.23644Z" fill="#EFD94F"/>
<mask id="mask1_600_1642" style="mask-type:luminance" maskUnits="userSpaceOnUse" x="7" y="6" width="6" height="7">
<path d="M10.02 8.27752L10.6925 10.5008H9.29319L10.02 8.27752ZM9.26395 7.23644C8.96738 7.92902 7.89389 11.1934 7.53885 12.0581C7.27987 12.6845 8.39095 13.1962 8.64993 12.5698L8.89219 11.6787H11.1018C11.1018 11.6787 11.0266 11.714 11.319 12.5345C11.5571 13.1962 12.7058 12.7374 12.4677 12.0757C12.1294 11.1273 10.9556 7.72169 10.7426 7.24085C10.6424 7.01587 10.2915 6.85706 9.94898 6.85706C9.66076 6.85265 9.38508 6.96293 9.26395 7.23644Z" fill="white"/>
</mask>
<g mask="url(#mask1_600_1642)">
<path d="M13.3343 6.85693H7.50098V12.8569H13.3343V6.85693Z" fill="#EFD94F"/>
</g>
<path d="M13.3358 7.44542C13.34 8.55603 13.34 12.1445 13.34 12.1445C13.34 12.1445 13.244 12.8569 13.8197 12.8569C14.3953 12.8569 15.676 12.848 16.2433 12.848C16.8106 12.848 16.8064 11.5693 16.2391 11.5693C15.6718 11.5693 14.6373 11.5649 14.6373 11.5649C14.6373 11.5649 14.6415 8.2463 14.6415 7.441C14.6415 7.05162 14.3161 6.85693 13.9907 6.85693C13.6612 6.86136 13.3358 7.05605 13.3358 7.44542Z" fill="#EFD94F"/>
<mask id="mask2_600_1642" style="mask-type:luminance" maskUnits="userSpaceOnUse" x="13" y="6" width="4" height="7">
<path d="M13.3368 7.44542C13.341 8.55603 13.341 12.1445 13.341 12.1445C13.341 12.1445 13.245 12.8569 13.8207 12.8569C14.3963 12.8569 15.677 12.848 16.2443 12.848C16.8116 12.848 16.8074 11.5693 16.2401 11.5693C15.6728 11.5693 14.6383 11.5649 14.6383 11.5649C14.6383 11.5649 14.6424 8.2463 14.6424 7.441C14.6424 7.05162 14.3171 6.85693 13.9917 6.85693C13.6622 6.86136 13.3368 7.05605 13.3368 7.44542Z" fill="white"/>
</mask>
<g mask="url(#mask2_600_1642)">
<path d="M16.6683 6.85693H13.335V12.8569H16.6683V6.85693Z" fill="#EFD94F"/>
</g>
<path d="M16.6841 7.26364C16.6988 7.74851 16.6645 12.1432 16.6694 12.4694C16.6694 12.9851 18.1209 12.9807 18.1209 12.4694C18.1209 11.8743 18.1209 10.7415 18.1209 10.7415L18.5461 10.4329L20.408 12.725C20.7844 13.1746 21.9719 12.3636 21.5956 11.914L19.6163 9.56456C19.6163 9.56456 20.9603 8.25542 21.4881 7.77937C21.796 7.50167 20.843 6.63332 20.5302 6.91101C20.2321 7.17989 18.1258 9.07969 18.1258 9.07969C18.1258 9.07969 18.1453 7.88516 18.1258 7.22838C18.116 6.97713 17.7788 6.85812 17.4318 6.85812C17.0555 6.85812 16.6743 6.99917 16.6841 7.26364Z" fill="#EFD94F"/>
<mask id="mask3_600_1642" style="mask-type:luminance" maskUnits="userSpaceOnUse" x="16" y="6" width="6" height="7">
<path d="M16.686 7.26364C16.7007 7.74851 16.6665 12.1432 16.6714 12.4694C16.6714 12.9851 18.1228 12.9807 18.1228 12.4694C18.1228 11.8743 18.1228 10.7415 18.1228 10.7415L18.548 10.4329L20.41 12.725C20.7863 13.1746 21.9739 12.3636 21.5976 11.914L19.6183 9.56456C19.6183 9.56456 20.9622 8.25542 21.49 7.77937C21.7979 7.50167 20.8449 6.63332 20.5322 6.91101C20.2341 7.17989 18.1277 9.07969 18.1277 9.07969C18.1277 9.07969 18.1473 7.88516 18.1277 7.22838C18.118 6.97713 17.7807 6.85812 17.4338 6.85812C17.0575 6.85812 16.6763 6.99917 16.686 7.26364Z" fill="white"/>
</mask>
<g mask="url(#mask3_600_1642)">
<path d="M21.6709 6.85693H16.6709V13.7141H21.6709V6.85693Z" fill="#EFD94F"/>
</g>
</svg>
