<svg width="68" height="68" viewBox="0 0 68 68" fill="none" xmlns="http://www.w3.org/2000/svg">
<path d="M34 62C18.5356 62 6 49.4644 6 34C6 18.5356 18.5356 6 34 6C49.4644 6 62 18.5384 62 34C62 49.4616 49.4644 62 34 62ZM34 20C33.2574 20 32.5452 20.295 32.0201 20.8201C31.495 21.3452 31.2 22.0574 31.2 22.8V36.8C31.2 37.5426 31.495 38.2548 32.0201 38.7799C32.5452 39.305 33.2574 39.6 34 39.6C34.7426 39.6 35.4548 39.305 35.9799 38.7799C36.505 38.2548 36.8 37.5426 36.8 36.8V22.8C36.8 22.0574 36.505 21.3452 35.9799 20.8201C35.4548 20.295 34.7426 20 34 20ZM34 48C34.7426 48 35.4548 47.705 35.9799 47.1799C36.505 46.6548 36.8 45.9426 36.8 45.2C36.8 44.4574 36.505 43.7452 35.9799 43.2201C35.4548 42.695 34.7426 42.4 34 42.4C33.2574 42.4 32.5452 42.695 32.0201 43.2201C31.495 43.7452 31.2 44.4574 31.2 45.2C31.2 45.9426 31.495 46.6548 32.0201 47.1799C32.5452 47.705 33.2574 48 34 48Z" fill="#222222"/>
</svg>
