<svg width="20" height="22" viewBox="0 0 20 22" fill="none" xmlns="http://www.w3.org/2000/svg">
<path d="M1.53846 18.855C1.53846 19.6891 1.86264 20.489 2.43967 21.0788C3.01671 21.6687 3.79933 22 4.61538 22H9.03846C9.08947 22 9.13838 21.9793 9.17444 21.9424C9.21051 21.9056 9.23077 21.8556 9.23077 21.8034V12.7615C9.23077 12.7094 9.21051 12.6594 9.17444 12.6225C9.13838 12.5857 9.08947 12.565 9.03846 12.565H1.92308C1.82107 12.565 1.72324 12.6064 1.65111 12.6801C1.57898 12.7538 1.53846 12.8538 1.53846 12.9581V18.855ZM9.23077 10.7959V5.48867H10.7692V10.7959C10.7692 10.848 10.7895 10.898 10.8256 10.9349C10.8616 10.9717 10.9105 10.9924 10.9615 10.9924H17.6923C17.9544 10.9925 18.2145 10.9468 18.4615 10.8573C18.9111 10.6942 19.3002 10.3929 19.5757 9.9948C19.8511 9.59671 19.9993 9.12127 20 8.63369V7.84743C20 7.22185 19.7569 6.62189 19.3241 6.17953C18.8913 5.73718 18.3043 5.48867 17.6923 5.48867H15.7433C15.7265 5.4884 15.7101 5.48366 15.6957 5.47492C15.6813 5.46618 15.6694 5.45375 15.6611 5.43886C15.6529 5.42396 15.6486 5.40712 15.6487 5.39C15.6487 5.37288 15.6532 5.35607 15.6615 5.34125C16.1067 4.57312 16.2512 3.66139 16.0663 2.78888C15.8813 1.91638 15.3805 1.14759 14.6642 0.63668C13.9479 0.12577 13.0692 -0.0894927 12.2042 0.0340553C11.3392 0.157603 10.5518 0.610828 10 1.30285C9.44819 0.610828 8.66084 0.157603 7.79582 0.0340553C6.93079 -0.0894927 6.05205 0.12577 5.33579 0.63668C4.61953 1.14759 4.11871 1.91638 3.93375 2.78888C3.74878 3.66139 3.89335 4.57312 4.33846 5.34125C4.34684 5.35607 4.35128 5.37288 4.35135 5.39C4.35142 5.40712 4.34711 5.42396 4.33885 5.43886C4.3306 5.45375 4.31867 5.46618 4.30427 5.47492C4.28987 5.48366 4.27348 5.4884 4.25673 5.48867H2.30769C1.69565 5.48867 1.10868 5.73718 0.675907 6.17953C0.243131 6.62189 0 7.22185 0 7.84743V8.63369C0.000678953 9.12127 0.148896 9.59671 0.424328 9.9948C0.699761 10.3929 1.08892 10.6942 1.53846 10.8573C1.78548 10.9468 2.04563 10.9925 2.30769 10.9924H9.03846C9.08947 10.9924 9.13838 10.9717 9.17444 10.9349C9.21051 10.898 9.23077 10.848 9.23077 10.7959ZM10.7692 3.52304C10.7692 3.13427 10.882 2.75423 11.0933 2.43099C11.3046 2.10774 11.605 1.8558 11.9564 1.70703C12.3078 1.55825 12.6944 1.51933 13.0675 1.59517C13.4405 1.67101 13.7832 1.85822 14.0521 2.13312C14.3211 2.40802 14.5042 2.75826 14.5784 3.13956C14.6526 3.52086 14.6146 3.91608 14.469 4.27525C14.3234 4.63442 14.077 4.94141 13.7607 5.1574C13.4445 5.37339 13.0727 5.48867 12.6923 5.48867H10.7692V3.52304ZM7.17019 1.56232C7.43365 1.54301 7.69818 1.57939 7.94728 1.66918C8.19638 1.75897 8.42471 1.90025 8.61804 2.08421C8.81137 2.26817 8.96555 2.49087 9.07097 2.73842C9.17639 2.98596 9.23079 3.25305 9.23077 3.52304V5.48867H7.30769C6.81043 5.48737 6.33299 5.28923 5.97558 4.93585C5.61817 4.58246 5.40857 4.10131 5.39078 3.59337C5.37299 3.08542 5.54839 2.59018 5.88016 2.21158C6.21194 1.83298 6.67429 1.60045 7.17019 1.56281V1.56232ZM10.9615 22H15.3846C16.2007 22 16.9833 21.6687 17.5603 21.0788C18.1374 20.489 18.4615 19.6891 18.4615 18.855V12.9581C18.4615 12.8538 18.421 12.7538 18.3489 12.6801C18.2768 12.6064 18.1789 12.565 18.0769 12.565H10.9615C10.9105 12.565 10.8616 12.5857 10.8256 12.6225C10.7895 12.6594 10.7692 12.7094 10.7692 12.7615V21.8034C10.7692 21.8556 10.7895 21.9056 10.8256 21.9424C10.8616 21.9793 10.9105 22 10.9615 22Z" fill="#6D45E6"/>
</svg>
