<svg width="72" height="72" viewBox="0 0 72 72" fill="none" xmlns="http://www.w3.org/2000/svg">
<g opacity="0.9">
<path d="M70.6646 36.1569C70.6646 55.2547 55.1987 70.7366 36.1204 70.7366C17.0422 70.7366 1.57617 55.2547 1.57617 36.1569C1.57617 17.059 17.0422 1.57715 36.1204 1.57715C55.1987 1.57715 70.6646 17.059 70.6646 36.1569Z" fill="url(#paint0_linear_461_189)"/>
<path d="M69.1807 36C69.1807 17.6748 54.3252 2.81928 36 2.81928C17.6748 2.81928 2.81928 17.6748 2.81928 36C2.81928 54.3252 17.6748 69.1807 36 69.1807V72C16.1177 72 0 55.8823 0 36C0 16.1178 16.1177 0 36 0C55.8822 0 72 16.1178 72 36C72 55.8823 55.8822 72 36 72V69.1807C54.3252 69.1807 69.1807 54.3252 69.1807 36Z" fill="url(#paint1_linear_461_189)"/>
<path opacity="0.7" d="M67.1573 36.1501C67.1573 19.0226 53.2727 5.13805 36.1452 5.13805C19.0177 5.13805 5.13317 19.0226 5.13317 36.1501C5.13317 53.2776 19.0177 67.1621 36.1452 67.1621V68.2465C18.4189 68.2465 4.04883 53.8764 4.04883 36.1501C4.04883 18.4238 18.4189 4.05371 36.1452 4.05371C53.8716 4.05371 68.2416 18.4238 68.2416 36.1501C68.2416 53.8764 53.8716 68.2465 36.1452 68.2465V67.1621C53.2727 67.1621 67.1573 53.2776 67.1573 36.1501Z" fill="white"/>
<path d="M57.1602 36.1963C57.1602 47.8142 47.742 57.2324 36.124 57.2324C24.5061 57.2324 15.0879 47.8142 15.0879 36.1963C15.0879 24.5784 24.5061 15.1602 36.124 15.1602C47.742 15.1602 57.1602 24.5784 57.1602 36.1963Z" fill="url(#paint2_linear_461_189)"/>
<path d="M56.0758 36.1963C56.0758 25.1772 47.1431 16.2445 36.124 16.2445C25.105 16.2445 16.1722 25.1772 16.1722 36.1963C16.1722 47.2154 25.105 56.1481 36.124 56.1481V57.2324C24.5061 57.2324 15.0879 47.8142 15.0879 36.1963C15.0879 24.5784 24.5061 15.1602 36.124 15.1602C47.742 15.1602 57.1602 24.5784 57.1602 36.1963C57.1602 47.8142 47.742 57.2324 36.124 57.2324V56.1481C47.1431 56.1481 56.0758 47.2154 56.0758 36.1963Z" fill="white" fill-opacity="0.5"/>
<path d="M54.7739 36.1975C54.7739 46.4979 46.4237 54.8481 36.1233 54.8481C25.8228 54.8481 17.4727 46.4979 17.4727 36.1975C17.4727 25.897 25.8228 17.5469 36.1233 17.5469C46.4237 17.5469 54.7739 25.897 54.7739 36.1975Z" fill="url(#paint3_linear_461_189)"/>
<path d="M50.4365 36.1975C50.4365 28.2925 44.0282 21.8842 36.1233 21.8842C28.2183 21.8842 21.81 28.2925 21.81 36.1975C21.81 44.1025 28.2183 50.5107 36.1233 50.5107V54.8481C25.8228 54.8481 17.4727 46.4979 17.4727 36.1975C17.4727 25.897 25.8228 17.5469 36.1233 17.5469C46.4237 17.5469 54.7739 25.897 54.7739 36.1975C54.7739 46.4979 46.4237 54.8481 36.1233 54.8481V50.5107C44.0282 50.5107 50.4365 44.1025 50.4365 36.1975Z" fill="white" fill-opacity="0.5"/>
<path d="M36.1359 52.2451C36.3754 52.2449 36.5699 52.4391 36.57 52.6786C36.5701 52.9181 36.376 53.1124 36.1365 53.1126H36.1128C35.8733 53.1124 35.6791 52.9181 35.6793 52.6786C35.6794 52.4391 35.8739 52.2449 36.1134 52.2451H36.1359ZM32.0213 52.1699C32.0746 51.9364 32.3071 51.7903 32.5406 51.8436C32.5479 51.8452 32.5552 51.8468 32.5624 51.8484C32.796 51.9014 32.9426 52.1337 32.8896 52.3673C32.8367 52.6009 32.6044 52.7474 32.3708 52.6945C32.3631 52.6928 32.3553 52.691 32.3477 52.6892C32.1142 52.6359 31.9681 52.4034 32.0213 52.1699ZM39.7087 51.8436C39.9422 51.7903 40.1747 51.9364 40.228 52.1699C40.2812 52.4034 40.1351 52.6359 39.9016 52.6892C39.8939 52.691 39.8862 52.6928 39.8785 52.6945C39.6449 52.7474 39.4126 52.6009 39.3597 52.3673C39.3067 52.1337 39.4532 51.9014 39.6869 51.8484C39.6941 51.8468 39.7014 51.8452 39.7087 51.8436ZM28.5711 50.8564C28.6754 50.6408 28.9347 50.5504 29.1504 50.6546C29.1571 50.6578 29.1638 50.6611 29.1705 50.6643C29.3863 50.7683 29.4771 51.0275 29.3732 51.2434C29.2692 51.4592 29.01 51.5498 28.7941 51.4458C28.7871 51.4424 28.78 51.4391 28.773 51.4357C28.5573 51.3314 28.4669 51.0721 28.5711 50.8564ZM43.0989 50.6546C43.3146 50.5504 43.5739 50.6408 43.6782 50.8564C43.7824 51.0721 43.692 51.3314 43.4763 51.4357C43.4693 51.4391 43.4622 51.4424 43.4551 51.4458C43.2393 51.5498 42.9801 51.4592 42.8761 51.2434C42.7722 51.0275 42.863 50.7683 43.0788 50.6643C43.0855 50.6611 43.0922 50.6578 43.0989 50.6546ZM25.5003 48.8055C25.6499 48.6184 25.9229 48.5881 26.11 48.7377C26.1158 48.7423 26.1216 48.7469 26.1274 48.7515C26.3146 48.9008 26.3455 49.1739 26.1962 49.3612C26.0468 49.5485 25.7739 49.5792 25.5867 49.4298C25.5805 49.425 25.5744 49.4201 25.5682 49.4152C25.3812 49.2656 25.3507 48.9926 25.5003 48.8055ZM46.1393 48.7377C46.3264 48.5881 46.5994 48.6184 46.749 48.8055C46.8986 48.9926 46.8681 49.2656 46.681 49.4152C46.6749 49.4201 46.6687 49.425 46.6626 49.4298C46.4753 49.5792 46.2024 49.5485 46.0531 49.3612C45.9038 49.1739 45.9346 48.9008 46.1219 48.7515C46.1277 48.7469 46.1335 48.7423 46.1393 48.7377ZM22.9603 46.1254C23.1476 45.976 23.4207 46.0069 23.5701 46.1942C23.5747 46.2 23.5792 46.2058 23.5838 46.2116C23.7334 46.3987 23.7031 46.6717 23.516 46.8213C23.329 46.9709 23.0559 46.9404 22.9063 46.7533C22.9014 46.7472 22.8966 46.741 22.8917 46.7349C22.7424 46.5476 22.7731 46.2747 22.9603 46.1254ZM48.6792 46.1942C48.8286 46.0069 49.1017 45.976 49.289 46.1254C49.4762 46.2747 49.5069 46.5476 49.3576 46.7349C49.3527 46.741 49.3479 46.7472 49.343 46.7533C49.1934 46.9404 48.9203 46.9709 48.7332 46.8213C48.5462 46.6717 48.5159 46.3987 48.6655 46.2116C48.6701 46.2058 48.6746 46.2 48.6792 46.1942ZM21.0782 42.9484C21.294 42.8445 21.5533 42.9352 21.6572 43.1511C21.6604 43.1578 21.6637 43.1645 21.667 43.1712C21.7712 43.3869 21.6808 43.6462 21.4651 43.7504C21.2495 43.8546 20.9901 43.7643 20.8859 43.5486C20.8825 43.5415 20.8791 43.5345 20.8757 43.5274C20.7718 43.3116 20.8624 43.0523 21.0782 42.9484ZM50.5921 43.1511C50.696 42.9352 50.9553 42.8445 51.1711 42.9484C51.3869 43.0523 51.4775 43.3116 51.3736 43.5274C51.3702 43.5345 51.3668 43.5415 51.3634 43.5486C51.2592 43.7643 50.9998 43.8546 50.7842 43.7504C50.5685 43.6462 50.4781 43.3869 50.5823 43.1712C50.5856 43.1645 50.5888 43.1578 50.5921 43.1511ZM19.9543 39.4319C20.1879 39.379 20.4202 39.5255 20.4731 39.7591C20.4748 39.7664 20.4763 39.7737 20.478 39.7809C20.5313 40.0145 20.3852 40.247 20.1516 40.3002C19.9181 40.3535 19.6856 40.2074 19.6323 39.9739C19.6306 39.9662 19.6288 39.9585 19.627 39.9508C19.5741 39.7172 19.7206 39.4849 19.9543 39.4319ZM51.7762 39.7591C51.8291 39.5255 52.0614 39.379 52.295 39.4319C52.5286 39.4849 52.6752 39.7172 52.6222 39.9508C52.6205 39.9585 52.6187 39.9662 52.6169 39.9739C52.5636 40.2074 52.3312 40.3535 52.0976 40.3002C51.8641 40.247 51.718 40.0145 51.7713 39.7809C51.7729 39.7737 51.7745 39.7664 51.7762 39.7591ZM19.209 36.1851C19.2092 35.9455 19.4034 35.7514 19.6429 35.7515C19.8825 35.7517 20.0766 35.9461 20.0765 36.1857V36.2081C20.0766 36.4477 19.8825 36.6421 19.6429 36.6423C19.4034 36.6424 19.2092 36.4483 19.209 36.2088V36.1851ZM52.1728 36.1857C52.1727 35.9461 52.3668 35.7517 52.6064 35.7515C52.8459 35.7514 53.0401 35.9455 53.0403 36.1851V36.2088C53.0401 36.4483 52.8459 36.6424 52.6064 36.6423C52.3668 36.6421 52.1727 36.4477 52.1728 36.2081V36.1857ZM19.6323 32.4199C19.6856 32.1864 19.9181 32.0403 20.1516 32.0936C20.3852 32.1469 20.5313 32.3793 20.478 32.6129C20.4763 32.6201 20.4748 32.6274 20.4731 32.6347C20.4202 32.8683 20.1879 33.0148 19.9543 32.9619C19.7206 32.909 19.5741 32.6766 19.627 32.443C19.6288 32.4354 19.6306 32.4276 19.6323 32.4199ZM52.0976 32.0936C52.3312 32.0403 52.5636 32.1864 52.6169 32.4199C52.6187 32.4276 52.6205 32.4354 52.6222 32.443C52.6752 32.6766 52.5286 32.909 52.295 32.9619C52.0614 33.0148 51.8291 32.8683 51.7762 32.6347C51.7745 32.6274 51.7729 32.6201 51.7713 32.6129C51.718 32.3793 51.8641 32.1469 52.0976 32.0936ZM20.8859 28.8452C20.9901 28.6296 21.2495 28.5392 21.4651 28.6434C21.6808 28.7476 21.7712 29.007 21.667 29.2226C21.6637 29.2293 21.6604 29.236 21.6572 29.2428C21.5533 29.4586 21.294 29.5494 21.0782 29.4454C20.8624 29.3415 20.7718 29.0822 20.8757 28.8664C20.8791 28.8594 20.8825 28.8523 20.8859 28.8452ZM50.7842 28.6434C50.9998 28.5392 51.2592 28.6296 51.3634 28.8452C51.3668 28.8523 51.3702 28.8594 51.3736 28.8664C51.4775 29.0822 51.3869 29.3415 51.1711 29.4454C50.9553 29.5494 50.696 29.4586 50.5921 29.2428C50.5888 29.236 50.5856 29.2293 50.5823 29.2226C50.4781 29.007 50.5685 28.7476 50.7842 28.6434ZM22.9063 25.6405C23.0559 25.4534 23.329 25.4229 23.516 25.5725C23.7031 25.7221 23.7334 25.9952 23.5838 26.1823C23.5792 26.188 23.5747 26.1938 23.5701 26.1996C23.4207 26.3869 23.1476 26.4178 22.9603 26.2684C22.7731 26.1191 22.7424 25.8462 22.8917 25.6589C22.8966 25.6528 22.9014 25.6466 22.9063 25.6405ZM48.7332 25.5725C48.9203 25.4229 49.1934 25.4534 49.343 25.6405C49.3479 25.6466 49.3527 25.6528 49.3576 25.6589C49.5069 25.8462 49.4762 26.1191 49.289 26.2684C49.1017 26.4178 48.8286 26.3869 48.6792 26.1996C48.6746 26.1938 48.6701 26.188 48.6655 26.1823C48.5159 25.9952 48.5462 25.7221 48.7332 25.5725ZM25.5867 22.964C25.7739 22.8147 26.0468 22.8453 26.1962 23.0326C26.3455 23.2199 26.3146 23.493 26.1274 23.6423C26.1216 23.6469 26.1158 23.6515 26.11 23.6561C25.9229 23.8057 25.6499 23.7754 25.5003 23.5883C25.3507 23.4012 25.3812 23.1282 25.5682 22.9786C25.5744 22.9737 25.5805 22.9689 25.5867 22.964ZM46.0531 23.0326C46.2024 22.8453 46.4753 22.8147 46.6626 22.964C46.6687 22.9689 46.6749 22.9737 46.681 22.9786C46.8681 23.1282 46.8986 23.4012 46.749 23.5883C46.5994 23.7754 46.3264 23.8057 46.1393 23.6561C46.1335 23.6515 46.1277 23.6469 46.1219 23.6423C45.9346 23.493 45.9038 23.2199 46.0531 23.0326ZM28.7941 20.948C29.01 20.8441 29.2692 20.9347 29.3732 21.1505C29.4771 21.3663 29.3863 21.6255 29.1705 21.7295C29.1638 21.7327 29.1571 21.736 29.1504 21.7392C28.9347 21.8435 28.6754 21.7531 28.5711 21.5374C28.4669 21.3217 28.5573 21.0624 28.773 20.9582C28.78 20.9548 28.7871 20.9514 28.7941 20.948ZM42.8761 21.1505C42.9801 20.9347 43.2393 20.8441 43.4551 20.948C43.4622 20.9514 43.4693 20.9548 43.4763 20.9582C43.692 21.0624 43.7824 21.3217 43.6782 21.5374C43.5739 21.7531 43.3146 21.8435 43.0989 21.7392C43.0922 21.736 43.0855 21.7327 43.0788 21.7295C42.863 21.6255 42.7722 21.3663 42.8761 21.1505ZM32.3708 19.6993C32.6044 19.6464 32.8367 19.7929 32.8896 20.0265C32.9426 20.2601 32.796 20.4925 32.5624 20.5454C32.5552 20.547 32.5479 20.5486 32.5406 20.5503C32.3071 20.6035 32.0746 20.4574 32.0213 20.2239C31.9681 19.9904 32.1142 19.7579 32.3477 19.7046C32.3553 19.7029 32.3631 19.7011 32.3708 19.6993ZM39.3597 20.0265C39.4126 19.7929 39.6449 19.6464 39.8785 19.6993C39.8862 19.7011 39.8939 19.7029 39.9016 19.7046C40.1351 19.7579 40.2812 19.9904 40.228 20.2239C40.1747 20.4574 39.9422 20.6035 39.7087 20.5503C39.7014 20.5486 39.6941 20.547 39.6869 20.5454C39.4532 20.4925 39.3067 20.2601 39.3597 20.0265ZM36.1365 19.2812C36.376 19.2814 36.5701 19.4757 36.57 19.7152C36.5699 19.9547 36.3754 20.1489 36.1359 20.1487H36.1134C35.8739 20.1489 35.6794 19.9547 35.6793 19.7152C35.6791 19.4757 35.8733 19.2814 36.1128 19.2812H36.1365Z" fill="url(#paint4_linear_461_189)"/>
<path d="M12.7578 24.0548L13.0574 22.7719L12.0527 21.909L13.38 21.7949L13.8961 20.585L14.4123 21.7949L15.7395 21.909L14.7348 22.7719L15.0344 24.0548L13.8961 23.3746L12.7578 24.0548Z" fill="white"/>
<path d="M57.2129 24.0548L57.5125 22.7719L56.5078 21.909L57.835 21.7949L58.3512 20.585L58.8673 21.7949L60.1946 21.909L59.1899 22.7719L59.4895 24.0548L58.3512 23.3746L57.2129 24.0548Z" fill="white"/>
<path d="M12.7559 51.8117L13.0554 50.5287L12.0508 49.6658L13.378 49.5517L13.8942 48.3418L14.4103 49.5517L15.7375 49.6658L14.7329 50.5287L15.0324 51.8117L13.8942 51.1314L12.7559 51.8117Z" fill="white"/>
<path d="M57.2149 51.8107L57.5144 50.5278L56.5098 49.6649L57.837 49.5507L58.3531 48.3408L58.8693 49.5507L60.1965 49.6649L59.1919 50.5278L59.4914 51.8107L58.3531 51.1304L57.2149 51.8107Z" fill="white"/>
<path d="M19.2023 16.3971C19.0043 16.2334 18.7395 16.2848 18.5135 16.5064C18.2711 16.7441 18.2388 17.0162 18.4044 17.185C18.5887 17.3729 18.8624 17.2434 19.055 17.1293L19.2963 16.9941C19.6083 16.8056 20.0576 16.6374 20.4102 16.9914C20.7333 17.3263 20.7096 17.8304 20.2439 18.2871C19.8028 18.7198 19.3088 18.7716 18.9372 18.4309L19.2367 18.1371C19.4667 18.3335 19.7561 18.2527 19.9876 18.0257C20.2381 17.78 20.295 17.4731 20.1081 17.2771C19.9371 17.1082 19.707 17.195 19.4439 17.3462L19.1483 17.5132C18.747 17.7359 18.3907 17.7702 18.1209 17.4951C17.7871 17.1548 17.8704 16.6296 18.2679 16.2397C18.6682 15.8471 19.173 15.8008 19.4937 16.1114L19.2023 16.3971Z" fill="white"/>
<path d="M21.4218 14.0772L21.2227 13.7744L23.01 12.5989L23.2091 12.9017L22.4923 13.3731L23.8109 15.3779L23.4604 15.6084L22.1418 13.6036L21.4218 14.0772Z" fill="white"/>
<path d="M26.9528 13.6754L26.5399 13.844L26.4136 10.9142L26.8618 10.7311L28.8267 12.9098L28.4138 13.0785L27.9055 12.4996L26.9103 12.9062L26.9528 13.6754ZM26.8906 12.5354L27.6599 12.2211L26.8368 11.2849L26.8192 11.2921L26.8906 12.5354Z" fill="white"/>
<path d="M30.002 9.71094L30.5032 9.6125L31.7719 11.5428L31.8056 11.5362L32.2501 9.26942L32.7513 9.17098L33.2832 11.8792L32.8905 11.9564L32.5062 9.99999L32.4801 10.0051L32.0705 12.1135L31.7451 12.1774L30.5641 10.3775L30.5417 10.3819L30.9266 12.342L30.5338 12.4192L30.002 9.71094Z" fill="white"/>
<path d="M35.2148 12.0871V9.32715H36.1984C36.8388 9.32715 37.1552 9.71217 37.1552 10.223C37.1552 10.73 36.8388 11.1188 36.1984 11.1188H35.6342V12.0871H35.2148ZM35.6342 10.7605H36.1564C36.5643 10.7605 36.7321 10.5318 36.7321 10.223C36.7321 9.9104 36.5643 9.68549 36.1564 9.68549H35.6342V10.7605Z" fill="white"/>
<path d="M39.9165 9.62196L39.9863 9.2666L42.0848 9.67874L42.0151 10.0341L41.1734 9.8688L40.7113 12.2217L40.2998 12.1409L40.7619 9.78799L39.9165 9.62196Z" fill="white"/>
<path d="M46.5513 12.7015C46.2183 13.5167 45.5244 13.8139 44.8645 13.5443C44.1975 13.2718 43.9138 12.5752 44.2469 11.76C44.5814 10.9413 45.2702 10.6462 45.9372 10.9187C46.5971 11.1883 46.8858 11.8828 46.5513 12.7015ZM46.1666 12.5444C46.4204 11.9233 46.2292 11.4539 45.7916 11.2751C45.3504 11.0949 44.8853 11.2961 44.6315 11.9172C44.3778 12.5383 44.569 13.0076 45.0101 13.1878C45.4477 13.3666 45.9129 13.1655 46.1666 12.5444Z" fill="white"/>
<path d="M50.8389 13.655L51.1894 13.8855L50.1915 15.4027C49.8729 15.8871 49.2833 15.9925 48.7321 15.63C48.1746 15.2633 48.0409 14.6823 48.3596 14.1978L49.3574 12.6807L49.7079 12.9112L48.7289 14.3996C48.5235 14.712 48.5913 15.0808 48.9417 15.3113C49.289 15.5397 49.6545 15.4558 49.8599 15.1435L50.8389 13.655Z" fill="white"/>
<path d="M51.3809 17.6131L53.3145 15.6416L54.017 16.3306C54.4744 16.7793 54.4494 17.2569 54.0942 17.6191C53.8338 17.8846 53.5164 17.9686 53.1899 17.8221L52.8431 19.0472L52.5027 18.7134L52.8315 17.5774L52.8125 17.5587L52.4095 17.1635L51.6804 17.9068L51.3809 17.6131ZM52.6632 16.9048L53.0363 17.2706C53.3276 17.5564 53.5729 17.5459 53.7919 17.3226C54.0109 17.0994 54.0273 16.843 53.736 16.5572L53.3629 16.1913L52.6632 16.9048Z" fill="white"/>
<path d="M53.0438 56.0941C53.2418 56.2578 53.5066 56.2065 53.7326 55.9848C53.975 55.7471 54.0073 55.475 53.8417 55.3062C53.6574 55.1183 53.3837 55.2478 53.1911 55.3619L52.9498 55.4971C52.6378 55.6856 52.1885 55.8538 51.8359 55.4998C51.5128 55.1649 51.5365 54.6608 52.0022 54.2041C52.4433 53.7715 52.9373 53.7196 53.3089 54.0604L53.0094 54.3541C52.7794 54.1577 52.49 54.2385 52.2585 54.4655C52.008 54.7112 51.9511 55.0181 52.138 55.2141C52.309 55.383 52.5391 55.2962 52.8022 55.1451L53.0978 54.978C53.4991 54.7554 53.8554 54.7211 54.1252 54.9961C54.459 55.3365 54.3757 55.8616 53.9782 56.2515C53.5779 56.6441 53.0731 56.6904 52.7524 56.3798L53.0438 56.0941Z" fill="white"/>
<path d="M50.8223 58.4101L51.0215 58.7129L49.2342 59.8884L49.035 59.5856L49.7519 59.1142L48.4333 57.1094L48.7837 56.8789L50.1023 58.8837L50.8223 58.4101Z" fill="white"/>
<path d="M45.2913 58.8129L45.7042 58.6442L45.8305 61.5741L45.3823 61.7572L43.4174 59.5785L43.8303 59.4098L44.3386 59.9887L45.3338 59.5821L45.2913 58.8129ZM45.3535 59.9529L44.5842 60.2672L45.4073 61.2034L45.4249 61.1962L45.3535 59.9529Z" fill="white"/>
<path d="M42.2441 62.7783L41.7429 62.8768L40.4741 60.9465L40.4405 60.9531L39.996 63.2198L39.4948 63.3183L38.9629 60.61L39.3556 60.5329L39.7399 62.4893L39.766 62.4841L40.1756 60.3758L40.501 60.3118L41.682 62.1117L41.7044 62.1073L41.3195 60.1472L41.7123 60.0701L42.2441 62.7783Z" fill="white"/>
<path d="M37.0313 60.4041L37.0312 63.1641L36.0477 63.1641C35.4073 63.1641 35.0909 62.779 35.0909 62.2682C35.0909 61.7612 35.4073 61.3724 36.0477 61.3724L36.6119 61.3724L36.6119 60.4041L37.0313 60.4041ZM36.6119 61.7307L36.0897 61.7307C35.6818 61.7307 35.514 61.9594 35.514 62.2682C35.514 62.5808 35.6818 62.8057 36.0897 62.8057L36.6119 62.8057L36.6119 61.7307Z" fill="white"/>
<path d="M32.3296 62.8673L32.2598 63.2227L30.1613 62.8105L30.231 62.4552L31.0727 62.6205L31.5348 60.2676L31.9463 60.3484L31.4842 62.7013L32.3296 62.8673Z" fill="white"/>
<path d="M25.6948 59.7878C26.0278 58.9726 26.7217 58.6754 27.3816 58.945C28.0486 59.2175 28.3323 59.914 27.9992 60.7292C27.6647 61.5479 26.9759 61.843 26.3089 61.5705C25.649 61.3009 25.3603 60.6065 25.6948 59.7878ZM26.0795 59.9449C25.8257 60.566 26.0169 61.0353 26.4545 61.2141C26.8957 61.3943 27.3608 61.1932 27.6146 60.5721C27.8683 59.951 27.6771 59.4816 27.236 59.3014C26.7984 59.1226 26.3332 59.3238 26.0795 59.9449Z" fill="white"/>
<path d="M21.4072 58.8362L21.0567 58.6057L22.0546 57.0885C22.3732 56.6041 22.9628 56.4987 23.514 56.8612C24.0715 57.2279 24.2051 57.8089 23.8865 58.2934L22.8887 59.8105L22.5382 59.58L23.5172 58.0916C23.7226 57.7792 23.6548 57.4105 23.3044 57.18C22.9571 56.9516 22.5916 57.0354 22.3862 57.3477L21.4072 58.8362Z" fill="white"/>
<path d="M20.8633 54.8762L18.9297 56.8477L18.2272 56.1586C17.7697 55.71 17.7947 55.2323 18.15 54.8702C18.4103 54.6047 18.7278 54.5207 19.0542 54.6672L19.4011 53.4421L19.7414 53.7759L19.4126 54.9119L19.4317 54.9305L19.8347 55.3258L20.5638 54.5824L20.8633 54.8762ZM19.5809 55.5845L19.2079 55.2186C18.9165 54.9329 18.6712 54.9433 18.4522 55.1666C18.2332 55.3899 18.2168 55.6463 18.5082 55.932L18.8812 56.2979L19.5809 55.5845Z" fill="white"/>
<path d="M34.014 38.0679H30.7433C30.1999 38.0665 29.676 38.2692 29.2868 38.6343C28.9021 38.9937 28.6836 39.4868 28.6836 40.0014C28.6971 41.0825 29.6191 41.9479 30.7433 41.9364H41.4535C42.5657 41.9623 43.4908 41.1184 43.5177 40.0489C43.5447 38.9808 42.666 38.0923 41.5523 38.0665C41.5194 38.0665 41.4864 38.0665 41.452 38.0665H38.1529L39.8968 32.0776C40.2829 30.0621 38.8968 28.1286 36.7982 27.7563C34.6996 27.3854 32.6863 28.718 32.2986 30.732C32.2147 31.1705 32.2132 31.6204 32.2956 32.0603L34.0125 38.0679H34.014Z" fill="white" fill-opacity="0.8"/>
<path d="M32.3946 43.1221H39.8087C40.4913 43.1221 41.0451 43.654 41.0451 44.3095C41.0451 44.965 40.4913 45.4969 39.8087 45.4969H32.3946C31.7121 45.4969 31.1582 44.965 31.1582 44.3095C31.1582 43.654 31.7121 43.1221 32.3946 43.1221Z" fill="white" fill-opacity="0.8"/>
</g>
<defs>
<linearGradient id="paint0_linear_461_189" x1="1.57617" y1="1.57715" x2="70.7355" y2="70.6656" gradientUnits="userSpaceOnUse">
<stop stop-color="#8E2CDE"/>
<stop offset="1" stop-color="#5426ED"/>
</linearGradient>
<linearGradient id="paint1_linear_461_189" x1="0" y1="0" x2="72" y2="72" gradientUnits="userSpaceOnUse">
<stop stop-color="#8E2CDE"/>
<stop offset="1" stop-color="#5426ED"/>
</linearGradient>
<linearGradient id="paint2_linear_461_189" x1="15.0879" y1="15.1602" x2="57.1602" y2="57.2324" gradientUnits="userSpaceOnUse">
<stop stop-color="#8E2CDE"/>
<stop offset="1" stop-color="#5426ED"/>
</linearGradient>
<linearGradient id="paint3_linear_461_189" x1="17.4727" y1="17.5469" x2="54.7739" y2="54.8481" gradientUnits="userSpaceOnUse">
<stop stop-color="#8E2CDE"/>
<stop offset="1" stop-color="#5426ED"/>
</linearGradient>
<linearGradient id="paint4_linear_461_189" x1="19.209" y1="19.2812" x2="53.0403" y2="53.1126" gradientUnits="userSpaceOnUse">
<stop stop-color="#8E2CDE"/>
<stop offset="1" stop-color="#5426ED"/>
</linearGradient>
</defs>
</svg>
