<svg width="14" height="17" viewBox="0 0 14 17" fill="none" xmlns="http://www.w3.org/2000/svg">
<path d="M13.3835 2.71643H12.3542V0.612731C12.3374 0.274215 12.0675 0.00694189 11.736 0.000135272H1.9773C0.897885 -0.0125704 0.0128713 0.871382 0 1.97496C0 1.97541 0 1.97587 0 1.97632V15.0237C0.0119836 16.1273 0.896554 17.0117 1.97553 16.9999C1.97597 16.9999 1.97641 16.9999 1.97686 16.9999H13.3831C13.7182 17.0035 13.9938 16.7299 14 16.3873V3.33356C13.996 2.98915 13.7199 2.7128 13.3831 2.71597L13.3835 2.71643ZM7.16577 9.28164L5.68335 8.06779C5.48007 7.94572 5.22753 7.94572 5.02425 8.06779L3.54183 9.28164V3.95115H7.16533V9.28164H7.16577ZM11.1199 2.71643H1.9773C1.5774 2.71643 1.25296 2.38472 1.25296 1.97587C1.25296 1.56702 1.5774 1.23531 1.9773 1.23531H11.119L11.1204 2.71643H11.1199Z" fill="#36C0D5"/>
</svg>
