<svg width="26" height="22" viewBox="0 0 26 22" fill="none" xmlns="http://www.w3.org/2000/svg">
<path d="M2.6 2.44444H6.5L9.1 0H16.9L19.5 2.44444H23.4C24.0896 2.44444 24.7509 2.70198 25.2385 3.16041C25.7261 3.61883 26 4.24058 26 4.88889V19.5556C26 20.2039 25.7261 20.8256 25.2385 21.284C24.7509 21.7425 24.0896 22 23.4 22H2.6C1.91044 22 1.24912 21.7425 0.761522 21.284C0.273928 20.8256 0 20.2039 0 19.5556V4.88889C0 4.24058 0.273928 3.61883 0.761522 3.16041C1.24912 2.70198 1.91044 2.44444 2.6 2.44444ZM13 6.11111C11.2761 6.11111 9.62279 6.75496 8.40381 7.90101C7.18482 9.04707 6.5 10.6015 6.5 12.2222C6.5 13.843 7.18482 15.3974 8.40381 16.5434C9.62279 17.6895 11.2761 18.3333 13 18.3333C14.7239 18.3333 16.3772 17.6895 17.5962 16.5434C18.8152 15.3974 19.5 13.843 19.5 12.2222C19.5 10.6015 18.8152 9.04707 17.5962 7.90101C16.3772 6.75496 14.7239 6.11111 13 6.11111ZM13 8.55556C14.0343 8.55556 15.0263 8.94186 15.7577 9.6295C16.4891 10.3171 16.9 11.2498 16.9 12.2222C16.9 13.1947 16.4891 14.1273 15.7577 14.8149C15.0263 15.5026 14.0343 15.8889 13 15.8889C11.9657 15.8889 10.9737 15.5026 10.2423 14.8149C9.51089 14.1273 9.1 13.1947 9.1 12.2222C9.1 11.2498 9.51089 10.3171 10.2423 9.6295C10.9737 8.94186 11.9657 8.55556 13 8.55556Z" fill="#6D45E6"/>
</svg>
