<svg width="186" height="186" viewBox="0 0 186 186" fill="none" xmlns="http://www.w3.org/2000/svg">
<path d="M45.0371 36.9072C49.8075 36.9073 54.023 39.878 55.6816 44.2803C59.9585 44.6825 63.6749 47.4681 65.2363 51.5137L65.3916 51.9424L65.3984 51.9609C66.9006 56.425 65.5005 61.3391 61.9023 64.3408C62.989 68.2091 61.9483 72.3149 59.2744 75.1875H126.587C123.915 72.3166 122.868 68.2163 123.955 64.3438C120.369 61.3423 118.96 56.4282 120.467 51.959L120.47 51.9502C121.919 47.6749 125.743 44.6935 130.176 44.2793C131.833 39.8699 136.06 36.9072 140.822 36.9072C145.584 36.9072 149.82 39.8663 151.479 44.2832C155.897 44.7114 159.706 47.6939 161.144 51.959C162.65 56.4283 161.24 61.3423 157.654 64.3438C158.828 68.5275 157.514 72.9896 154.337 75.8672C156.295 76.5749 158.043 77.8127 159.37 79.4717L159.575 79.7363L159.584 79.7461L178.729 105.312L178.738 105.323C181.304 108.771 181.721 113.374 179.813 117.224L179.81 117.231C177.887 121.095 173.939 123.537 169.626 123.537H158.806C160.567 124.311 161.797 126.069 161.797 128.116V149.338C161.797 154.171 158.741 158.464 154.203 160.071L154.198 160.073L96.7383 180.349L96.7393 180.35C95.5332 180.778 94.2533 181.004 92.9424 180.999V181C92.9373 181 92.9319 180.999 92.9268 180.999C92.9206 180.999 92.9144 181 92.9082 181V180.999C91.6425 180.995 90.3721 180.786 89.1445 180.35C89.0991 180.333 89.0545 180.315 89.0098 180.298L31.71 160.073V160.072C27.1554 158.466 24.1162 154.157 24.1162 149.338V128.116C24.1162 126.07 25.3466 124.311 27.1074 123.537H16.3613C12.0661 123.519 8.13825 121.094 6.2041 117.252C6.2007 117.245 6.19771 117.238 6.19434 117.231C4.27798 113.381 4.68944 108.763 7.2793 105.312H7.27832L26.4248 79.7461L26.4268 79.7441C27.7505 77.9791 29.535 76.6669 31.541 75.915C28.3291 73.0399 26.9874 68.5568 28.1689 64.3447C24.6756 61.4399 23.25 56.7224 24.5498 52.3701L24.6895 51.9346C26.1431 47.6676 29.9632 44.6929 34.3906 44.2793C36.0499 39.8649 40.2791 36.9156 45.0283 36.9072H45.0371ZM90.5703 108.814C91.2905 108.425 92.1045 108.212 92.9453 108.212C93.8394 108.212 94.7039 108.451 95.457 108.888L92.9863 105.588L90.5703 108.814ZM92.957 5C97.6393 5.00002 101.814 7.86898 103.531 12.1738L103.69 12.5947L103.691 12.5977L107.04 22.0781H118.49C123.502 22.0782 127.91 25.3587 129.372 30.1318C130.85 34.9298 129.005 40.1388 124.814 42.9277L124.815 42.9287L116.382 48.5605L119.462 57.2627H119.461C121.111 61.8928 119.584 67.0426 115.716 70.041L115.717 70.042C113.715 71.601 111.253 72.4424 108.729 72.4424C106.481 72.4424 104.287 71.7785 102.416 70.5342C102.352 70.4915 102.289 70.4466 102.228 70.4014L92.9531 64.2012L83.5049 70.5254C83.5003 70.5284 83.4958 70.5321 83.4912 70.5352C79.4141 73.2445 74.0557 73.0559 70.1846 70.0439C66.3201 67.037 64.8066 61.8902 66.4355 57.2686L66.4375 57.2627L69.5176 48.5586L61.0957 42.9277V42.9268C56.9186 40.1412 55.0677 34.9477 56.5254 30.1504L56.5293 30.1396C57.9951 25.3543 62.407 22.0781 67.4238 22.0781H78.8838L82.2324 12.5977C83.8312 8.04967 88.1316 5 92.957 5Z" fill="#F6F5FA" stroke="white" stroke-width="10" stroke-linejoin="round"/>
<g opacity="0.6">
<path d="M90.828 175.638L33.3746 155.358C30.8238 154.46 29.1166 152.043 29.1166 149.338V128.116H73.8059C78.8331 128.106 83.5626 125.744 86.5749 121.724L92.947 113.212L99.3291 121.724C102.346 125.744 107.081 128.111 112.108 128.116H156.797V149.338C156.797 152.043 155.085 154.455 152.534 155.358L95.0661 175.638C94.3813 175.881 93.6666 176.005 92.9421 176C92.2175 176 91.5029 175.881 90.818 175.638H90.828ZM112.118 118.537C110.103 118.537 108.202 117.589 107.006 115.972L92.9867 97.2458L78.9671 115.972C77.7611 117.585 75.8654 118.537 73.8555 118.537H16.3823C13.9655 118.527 11.7571 117.163 10.6702 115.004C9.59332 112.84 9.82656 110.244 11.2806 108.309L30.4268 82.7437C31.6327 81.1357 33.5285 80.1927 35.5384 80.1878H150.46C152.475 80.1878 154.371 81.1357 155.581 82.7437L174.728 108.309C176.172 110.249 176.405 112.84 175.333 115.004C174.256 117.168 172.043 118.537 169.626 118.537H112.113H112.118ZM142.892 72.5148L140.847 70.9664L138.807 72.5148C136.599 74.2023 133.557 74.2718 131.279 72.6786C128.996 71.0904 127.999 68.2119 128.808 65.5566L129.755 62.5043L127.373 60.6779C125.205 59.0103 124.331 56.1466 125.205 53.5559C126.083 50.9652 128.515 49.2232 131.249 49.2281H133.855L134.728 46.4091C135.552 43.734 138.023 41.9076 140.822 41.9076C143.626 41.9076 146.103 43.734 146.926 46.4091L147.75 49.2281H150.356C153.095 49.2182 155.532 50.9652 156.405 53.5559C157.279 56.1466 156.405 59.0103 154.237 60.6779L151.854 62.5043L152.802 65.5566C153.611 68.2119 152.614 71.0954 150.331 72.6786C149.259 73.4231 147.984 73.8251 146.678 73.8251C145.304 73.8102 143.979 73.3486 142.887 72.5148H142.897H142.892ZM47.1114 72.5148L45.0668 70.9664L43.0221 72.5148C40.8137 74.2023 37.7716 74.2718 35.4937 72.6786C33.2109 71.0904 32.2134 68.2119 33.0223 65.5566L33.9702 62.5043L31.5881 60.6779C29.4045 59.0203 28.531 56.1466 29.4194 53.5559C30.2978 50.9652 32.7295 49.2232 35.4639 49.2281H38.0694L38.9428 46.4091C39.7666 43.734 42.238 41.9125 45.037 41.9076C47.836 41.9076 50.3024 43.734 51.1312 46.4091L52.0047 49.2281H54.6101C57.3445 49.2281 59.7763 50.9652 60.6596 53.5559C61.5331 56.1516 60.6596 59.0153 58.481 60.6779L56.1039 62.5043L57.0517 65.5566C57.8607 68.2119 56.8632 71.0954 54.5803 72.6786C53.5084 73.4231 52.2329 73.8251 50.9277 73.8251C49.5481 73.8152 48.2082 73.3536 47.1065 72.5148H47.1164H47.1114ZM105.195 66.3706L92.952 58.1865L80.7239 66.3706C78.4311 67.8942 75.4237 67.785 73.255 66.0976C71.0863 64.4101 70.2377 61.5216 71.1508 58.9309L75.5279 46.5629L63.8755 38.7709C61.5331 37.2125 60.4909 34.2992 61.3097 31.6042C62.1336 28.9143 64.6099 27.0779 67.4238 27.0779H82.4211L86.9471 14.2633C87.8404 11.7123 90.2523 10 92.957 10C95.6616 10 98.0735 11.7123 98.9767 14.2633L103.503 27.0779H118.49C121.299 27.0779 123.775 28.9192 124.594 31.6042C125.423 34.2942 124.386 37.2125 122.038 38.7709L110.371 46.5629L114.748 58.9309C115.676 61.5216 114.823 64.4151 112.644 66.0976C111.522 66.9711 110.143 67.4426 108.728 67.4426C107.468 67.4426 106.237 67.0704 105.185 66.3706H105.195Z" fill="url(#paint0_linear_223_5)"/>
<path d="M90.828 175.638L33.3746 155.358C30.8238 154.46 29.1166 152.043 29.1166 149.338V128.116H73.8059C78.8331 128.106 83.5626 125.744 86.5749 121.724L92.947 113.212L99.3291 121.724C102.346 125.744 107.081 128.111 112.108 128.116H156.797V149.338C156.797 152.043 155.085 154.455 152.534 155.358L95.0661 175.638C94.3813 175.881 93.6666 176.005 92.9421 176C92.2175 176 91.5029 175.881 90.818 175.638H90.828ZM112.118 118.537C110.103 118.537 108.202 117.589 107.006 115.972L92.9867 97.2458L78.9671 115.972C77.7611 117.585 75.8654 118.537 73.8555 118.537H16.3823C13.9655 118.527 11.7571 117.163 10.6702 115.004C9.59332 112.84 9.82656 110.244 11.2806 108.309L30.4268 82.7437C31.6327 81.1357 33.5285 80.1927 35.5384 80.1878H150.46C152.475 80.1878 154.371 81.1357 155.581 82.7437L174.728 108.309C176.172 110.249 176.405 112.84 175.333 115.004C174.256 117.168 172.043 118.537 169.626 118.537H112.113H112.118ZM142.892 72.5148L140.847 70.9664L138.807 72.5148C136.599 74.2023 133.557 74.2718 131.279 72.6786C128.996 71.0904 127.999 68.2119 128.808 65.5566L129.755 62.5043L127.373 60.6779C125.205 59.0103 124.331 56.1466 125.205 53.5559C126.083 50.9652 128.515 49.2232 131.249 49.2281H133.855L134.728 46.4091C135.552 43.734 138.023 41.9076 140.822 41.9076C143.626 41.9076 146.103 43.734 146.926 46.4091L147.75 49.2281H150.356C153.095 49.2182 155.532 50.9652 156.405 53.5559C157.279 56.1466 156.405 59.0103 154.237 60.6779L151.854 62.5043L152.802 65.5566C153.611 68.2119 152.614 71.0954 150.331 72.6786C149.259 73.4231 147.984 73.8251 146.678 73.8251C145.304 73.8102 143.979 73.3486 142.887 72.5148H142.897H142.892ZM47.1114 72.5148L45.0668 70.9664L43.0221 72.5148C40.8137 74.2023 37.7716 74.2718 35.4937 72.6786C33.2109 71.0904 32.2134 68.2119 33.0223 65.5566L33.9702 62.5043L31.5881 60.6779C29.4045 59.0203 28.531 56.1466 29.4194 53.5559C30.2978 50.9652 32.7295 49.2232 35.4639 49.2281H38.0694L38.9428 46.4091C39.7666 43.734 42.238 41.9125 45.037 41.9076C47.836 41.9076 50.3024 43.734 51.1312 46.4091L52.0047 49.2281H54.6101C57.3445 49.2281 59.7763 50.9652 60.6596 53.5559C61.5331 56.1516 60.6596 59.0153 58.481 60.6779L56.1039 62.5043L57.0517 65.5566C57.8607 68.2119 56.8632 71.0954 54.5803 72.6786C53.5084 73.4231 52.2329 73.8251 50.9277 73.8251C49.5481 73.8152 48.2082 73.3536 47.1065 72.5148H47.1164H47.1114ZM105.195 66.3706L92.952 58.1865L80.7239 66.3706C78.4311 67.8942 75.4237 67.785 73.255 66.0976C71.0863 64.4101 70.2377 61.5216 71.1508 58.9309L75.5279 46.5629L63.8755 38.7709C61.5331 37.2125 60.4909 34.2992 61.3097 31.6042C62.1336 28.9143 64.6099 27.0779 67.4238 27.0779H82.4211L86.9471 14.2633C87.8404 11.7123 90.2523 10 92.957 10C95.6616 10 98.0735 11.7123 98.9767 14.2633L103.503 27.0779H118.49C121.299 27.0779 123.775 28.9192 124.594 31.6042C125.423 34.2942 124.386 37.2125 122.038 38.7709L110.371 46.5629L114.748 58.9309C115.676 61.5216 114.823 64.4151 112.644 66.0976C111.522 66.9711 110.143 67.4426 108.728 67.4426C107.468 67.4426 106.237 67.0704 105.185 66.3706H105.195Z" fill="black" fill-opacity="0.2"/>
</g>
<defs>
<linearGradient id="paint0_linear_223_5" x1="10" y1="10" x2="199.356" y2="142.662" gradientUnits="userSpaceOnUse">
<stop stop-color="#D93582"/>
<stop offset="1" stop-color="#6945E2"/>
</linearGradient>
</defs>
</svg>
