<svg width="26" height="26" viewBox="0 0 26 26" fill="none" xmlns="http://www.w3.org/2000/svg">
<path d="M25.1036 1.7931C24.8659 1.7931 24.6379 1.88756 24.4698 2.0557C24.3017 2.22383 24.2073 2.45187 24.2073 2.68966C24.1851 3.35723 24.0499 4.01621 23.8073 4.63853C23.3535 5.74017 22.6051 6.27586 21.5182 6.27586C20.279 6.27586 19.4062 5.18207 18.2141 3.51336C17.0365 1.86707 15.7054 0 13.4511 0C11.6147 0 10.2018 0.996293 9.48136 2.80172C9.2702 3.34296 9.12353 3.90719 9.04438 4.48276L7.17661 4.48276C6.70116 4.48276 6.24518 4.67167 5.90898 5.00795C5.57278 5.34422 5.38391 5.8003 5.38391 6.27586V7.3506C3.41008 8.35645 1.8324 9.99784 0.90521 12.0102C-0.0219812 14.0225 -0.24466 16.2885 0.273071 18.4428C0.790802 20.5972 2.01878 22.5144 3.75903 23.8854C5.49929 25.2564 7.65043 26.0013 9.86567 26H10.0438C12.244 25.9622 14.3683 25.1893 16.0785 23.8043C17.7888 22.4194 18.9867 20.502 19.4816 18.3574C19.9765 16.2128 19.7399 13.9642 18.8095 11.9697C17.8792 9.97508 16.3084 8.34912 14.3474 7.3506V6.27586C14.3474 5.8003 14.1586 5.34422 13.8224 5.00795C13.4862 4.67167 13.0302 4.48276 12.5547 4.48276H10.8606C10.9243 4.12319 11.0253 3.77125 11.162 3.43267C11.6158 2.32879 12.3642 1.7931 13.4511 1.7931C14.6903 1.7931 15.5631 2.8869 16.7553 4.5556C17.9328 6.2019 19.2639 8.06897 21.5182 8.06897C23.3546 8.06897 24.7675 7.07267 25.488 5.26724C25.8051 4.44375 25.9783 3.57185 26 2.68966C26 2.45187 25.9056 2.22383 25.7375 2.0557C25.5694 1.88756 25.3414 1.7931 25.1036 1.7931ZM9.85334 21.6652C9.81835 21.8744 9.71032 22.0644 9.54846 22.2015C9.3866 22.3386 9.1814 22.4138 8.96932 22.4138C8.9194 22.4136 8.86957 22.4095 8.8203 22.4015C7.52083 22.1708 6.32352 21.5466 5.3903 20.6132C4.45708 19.6798 3.83298 18.4822 3.60241 17.1824C3.58179 17.0658 3.58448 16.9462 3.61031 16.8306C3.63615 16.7151 3.68463 16.6057 3.75295 16.509C3.82126 16.4123 3.90807 16.33 4.00834 16.267C4.10862 16.2041 4.22037 16.1616 4.33716 16.142C4.45395 16.1225 4.57345 16.1263 4.68876 16.1532C4.80407 16.1801 4.91291 16.2296 5.00899 16.2988C5.10506 16.3681 5.18647 16.4556 5.24852 16.5565C5.31056 16.6574 5.35201 16.7696 5.37046 16.8866C5.53619 17.8195 5.98426 18.679 6.65413 19.3491C7.324 20.0191 8.18336 20.4673 9.11609 20.633C9.23228 20.6523 9.34353 20.6943 9.44348 20.7567C9.54343 20.819 9.63011 20.9004 9.69858 20.9963C9.76705 21.0921 9.81596 21.2005 9.84251 21.3153C9.86907 21.4301 9.87275 21.549 9.85334 21.6652Z" fill="white"/>
</svg>
