<svg width="25" height="25" viewBox="0 0 25 25" fill="none" xmlns="http://www.w3.org/2000/svg">
<path d="M12.4993 15.0488C10.6689 15.0488 9.18359 16.533 9.18359 18.3646V24.9925H15.8139V18.3622C15.8127 16.5318 14.3285 15.05 12.4981 15.05L12.4993 15.0488Z" fill="#412F75"/>
<path d="M17.7082 18.7418V24.9924H21.8753C23.6006 24.9924 24.9988 23.5942 25 21.8688V12.3622C25 11.8201 24.791 11.2995 24.4137 10.9103L15.5554 1.33561C13.9937 -0.350322 11.3621 -0.4542 9.6738 1.10397C9.5938 1.178 9.51619 1.25561 9.44216 1.33561L0.605359 10.9079C0.217308 11.2984 0 11.8273 0 12.3777V21.87C0 23.5966 1.39937 24.9959 3.1247 24.9959H7.29177V18.7453C7.31326 15.9215 9.55201 13.6147 12.3734 13.5108C15.288 13.4798 17.676 15.8165 17.7082 18.731C17.7082 18.7346 17.7082 18.7382 17.7082 18.7418Z" fill="#412F75"/>
<path d="M12.4993 15.0498C10.6689 15.0498 9.18359 16.5339 9.18359 18.3655V24.9934H15.8139V18.3632C15.8127 16.5328 14.3285 15.051 12.4981 15.051L12.4993 15.0498Z" fill="#412F75"/>
</svg>
