<svg width="17" height="17" viewBox="0 0 17 17" fill="none" xmlns="http://www.w3.org/2000/svg">
<path d="M1.88889 17H15.1111C15.6121 17 16.0925 16.801 16.4468 16.4468C16.801 16.0925 17 15.6121 17 15.1111V1.88889C17 1.38792 16.801 0.907478 16.4468 0.553243C16.0925 0.199007 15.6121 0 15.1111 0H1.88889C1.38792 0 0.907478 0.199007 0.553243 0.553243C0.199007 0.907478 0 1.38792 0 1.88889V15.1111C0 15.6121 0.199007 16.0925 0.553243 16.4468C0.907478 16.801 1.38792 17 1.88889 17ZM4.72222 10.3889L6.95394 12.6206L10.3889 7.55556L15.1111 14.1667H1.88889L4.72222 10.3889Z" fill="#D5D2E1"/>
</svg>
