<svg width="18" height="18" viewBox="0 0 18 18" fill="none" xmlns="http://www.w3.org/2000/svg">
<path d="M1.8996 1.8996V5.6988H5.6988V1.8996H1.8996ZM1.8996 0H5.6988C6.20261 0 6.68578 0.200136 7.04203 0.55638C7.39827 0.912625 7.59841 1.3958 7.59841 1.8996V5.6988C7.59841 6.20261 7.39827 6.68578 7.04203 7.04203C6.68578 7.39827 6.20261 7.59841 5.6988 7.59841H1.8996C1.3958 7.59841 0.912625 7.39827 0.55638 7.04203C0.200136 6.68578 0 6.20261 0 5.6988V1.8996C0 1.3958 0.200136 0.912625 0.55638 0.55638C0.912625 0.200136 1.3958 0 1.8996 0Z" fill="white"/>
<path d="M5.6988 9.49854H1.8996C0.85048 9.49854 0 10.349 0 11.3981V15.1973C0 16.2465 0.85048 17.0969 1.8996 17.0969H5.6988C6.74793 17.0969 7.59841 16.2465 7.59841 15.1973V11.3981C7.59841 10.349 6.74793 9.49854 5.6988 9.49854Z" fill="white"/>
<path d="M15.1969 0H11.3976C10.3485 0 9.49805 0.85048 9.49805 1.8996V5.6988C9.49805 6.74793 10.3485 7.59841 11.3976 7.59841H15.1969C16.246 7.59841 17.0965 6.74793 17.0965 5.6988V1.8996C17.0965 0.85048 16.246 0 15.1969 0Z" fill="white"/>
<path d="M11.3976 9.49854H10.4478C9.92329 9.49854 9.49805 9.92378 9.49805 10.4483V11.3981C9.49805 11.9227 9.92329 12.3479 10.4478 12.3479H11.3976C11.9222 12.3479 12.3474 11.9227 12.3474 11.3981V10.4483C12.3474 9.92378 11.9222 9.49854 11.3976 9.49854Z" fill="white"/>
<path d="M11.3976 14.2471H10.4478C9.92329 14.2471 9.49805 14.6723 9.49805 15.1969V16.1467C9.49805 16.6712 9.92329 17.0965 10.4478 17.0965H11.3976C11.9222 17.0965 12.3474 16.6712 12.3474 16.1467V15.1969C12.3474 14.6723 11.9222 14.2471 11.3976 14.2471Z" fill="white"/>
<path d="M16.1476 9.49854H15.1978C14.6733 9.49854 14.248 9.92378 14.248 10.4483V11.3981C14.248 11.9227 14.6733 12.3479 15.1978 12.3479H16.1476C16.6722 12.3479 17.0974 11.9227 17.0974 11.3981V10.4483C17.0974 9.92378 16.6722 9.49854 16.1476 9.49854Z" fill="white"/>
<path d="M16.1476 14.2471H15.1978C14.6733 14.2471 14.248 14.6723 14.248 15.1969V16.1467C14.248 16.6712 14.6733 17.0965 15.1978 17.0965H16.1476C16.6722 17.0965 17.0974 16.6712 17.0974 16.1467V15.1969C17.0974 14.6723 16.6722 14.2471 16.1476 14.2471Z" fill="white"/>
</svg>
