<svg width="17" height="17" viewBox="0 0 17 17" fill="none" xmlns="http://www.w3.org/2000/svg">
<path d="M8.27756 16.9629L2.39379 14.8861C2.13256 14.7941 1.95773 14.5466 1.95773 14.2696V12.0962H6.53434C7.04917 12.0952 7.53351 11.8533 7.84201 11.4416L8.49458 10.5699L9.14816 11.4416C9.45716 11.8533 9.94201 12.0957 10.4569 12.0962H15.0335V14.2696C15.0335 14.5466 14.8581 14.7936 14.5969 14.8861L8.71159 16.9629C8.64145 16.9878 8.56827 17.0005 8.49407 17C8.41987 17 8.34668 16.9878 8.27655 16.9629H8.27756ZM10.4579 11.1153C10.2515 11.1153 10.0569 11.0182 9.93439 10.8525L8.49864 8.93481L7.06289 10.8525C6.93939 11.0177 6.74525 11.1153 6.53942 11.1153H0.65361C0.406102 11.1143 0.17994 10.9745 0.0686375 10.7534C-0.0416483 10.5318 -0.0177615 10.266 0.13115 10.0677L2.0919 7.44966C2.2154 7.28498 2.40954 7.18841 2.61538 7.1879H14.3844C14.5908 7.1879 14.7849 7.28498 14.9089 7.44966L16.8697 10.0677C17.0176 10.2665 17.0415 10.5318 16.9317 10.7534C16.8214 10.975 16.5947 11.1153 16.3472 11.1153H10.4574H10.4579ZM13.6094 6.40212L13.4 6.24354L13.1911 6.40212C12.965 6.57493 12.6534 6.58205 12.4201 6.4189C12.1864 6.25625 12.0842 5.96146 12.167 5.68953L12.2641 5.37695L12.0202 5.18991C11.7981 5.01913 11.7086 4.72586 11.7981 4.46055C11.888 4.19523 12.1371 4.01683 12.4171 4.01734H12.6839L12.7734 3.72864C12.8577 3.45469 13.1108 3.26764 13.3975 3.26764C13.6846 3.26764 13.9382 3.45469 14.0226 3.72864L14.107 4.01734H14.3738C14.6543 4.01632 14.9039 4.19523 14.9933 4.46055C15.0828 4.72586 14.9933 5.01913 14.7712 5.18991L14.5273 5.37695L14.6243 5.68953C14.7072 5.96146 14.605 6.25676 14.3712 6.4189C14.2615 6.49514 14.1308 6.53631 13.9972 6.53631C13.8564 6.53478 13.7207 6.48751 13.6089 6.40212H13.6099H13.6094ZM3.80057 6.40212L3.59118 6.24354L3.38179 6.40212C3.15562 6.57493 2.84408 6.58205 2.6108 6.4189C2.37702 6.25625 2.27486 5.96146 2.3577 5.68953L2.45478 5.37695L2.21083 5.18991C1.9872 5.02015 1.89776 4.72586 1.98873 4.46055C2.07869 4.19523 2.32772 4.01683 2.60775 4.01734H2.87457L2.96402 3.72864C3.04839 3.45469 3.30149 3.26815 3.58813 3.26764C3.87477 3.26764 4.12736 3.45469 4.21223 3.72864L4.30168 4.01734H4.5685C4.84854 4.01734 5.09757 4.19523 5.18803 4.46055C5.27748 4.72637 5.18803 5.01964 4.96492 5.18991L4.72148 5.37695L4.81855 5.68953C4.90139 5.96146 4.79924 6.25676 4.56545 6.4189C4.45568 6.49514 4.32506 6.53631 4.1914 6.53631C4.05011 6.53529 3.91289 6.48802 3.80006 6.40212H3.80108H3.80057ZM9.74889 5.77289L8.49508 4.93476L7.24281 5.77289C7.008 5.92893 6.70002 5.91775 6.47792 5.74493C6.25582 5.57212 6.16892 5.27631 6.26243 5.011L6.71069 3.7444L5.51737 2.94642C5.27748 2.78682 5.17075 2.48847 5.25461 2.21248C5.33898 1.937 5.59259 1.74894 5.88075 1.74894H7.41662L7.88013 0.436601C7.97161 0.175352 8.21861 0 8.49559 0C8.77258 0 9.01958 0.175352 9.11207 0.436601L9.57558 1.74894H11.1104C11.3981 1.74894 11.6517 1.93751 11.7356 2.21248C11.8204 2.48796 11.7142 2.78682 11.4738 2.94642L10.279 3.7444L10.7272 5.011C10.8223 5.27631 10.7349 5.57263 10.5117 5.74493C10.3969 5.83439 10.2556 5.88267 10.1107 5.88267C9.98166 5.88267 9.85562 5.84455 9.74787 5.77289H9.74889Z" fill="#D53685"/>
</svg>
