<svg width="49" height="49" viewBox="0 0 49 49" fill="none" xmlns="http://www.w3.org/2000/svg">
<path d="M48 24.5C48 37.4787 37.4787 48 24.5 48C11.5213 48 1 37.4787 1 24.5C1 11.5213 11.5213 1 24.5 1C37.4787 1 48 11.5213 48 24.5Z" fill="white"/>
<path d="M47.0628 24.4652C47.0628 12.0116 36.9567 1.91595 24.4903 1.91595C12.0239 1.91595 1.91792 12.0116 1.91792 24.4652C1.91792 36.9188 12.0239 47.0145 24.4903 47.0145V48.9304C10.9647 48.9304 0 37.977 0 24.4652C0 10.9535 10.9647 0 24.4903 0C38.016 0 48.9807 10.9535 48.9807 24.4652C48.9807 37.977 38.016 48.9304 24.4903 48.9304V47.0145C36.9567 47.0145 47.0628 36.9188 47.0628 24.4652Z" fill="url(#paint0_linear_509_166)"/>
<path d="M46.4078 24.5995C46.4078 36.6461 36.632 46.4118 24.573 46.4118C12.514 46.4118 2.73828 36.6461 2.73828 24.5995C2.73828 12.5528 12.514 2.78711 24.573 2.78711C36.632 2.78711 46.4078 12.5528 46.4078 24.5995Z" fill="white"/>
<path d="M45.6701 24.5995C45.6701 12.9598 36.2246 3.52401 24.573 3.52401C12.9214 3.52401 3.47594 12.9598 3.47594 24.5995C3.47594 36.2391 12.9214 45.6749 24.573 45.6749V46.4118C12.514 46.4118 2.73828 36.6461 2.73828 24.5995C2.73828 12.5528 12.514 2.78711 24.573 2.78711C36.632 2.78711 46.4078 12.5528 46.4078 24.5995C46.4078 36.6461 36.632 46.4118 24.573 46.4118V45.6749C36.2246 45.6749 45.6701 36.2391 45.6701 24.5995Z" fill="#6D45E6"/>
<path d="M38.8849 24.5987C38.8849 32.4941 32.4778 38.8946 24.5743 38.8946C16.6708 38.8946 10.2637 32.4941 10.2637 24.5987C10.2637 16.7032 16.6708 10.3027 24.5743 10.3027C32.4778 10.3027 38.8849 16.7032 38.8849 24.5987Z" fill="white"/>
<path d="M38.1472 24.5987C38.1472 17.1102 32.0704 11.0396 24.5743 11.0396C17.0782 11.0396 11.0013 17.1102 11.0013 24.5987C11.0013 32.0871 17.0782 38.1577 24.5743 38.1577V38.8946C16.6708 38.8946 10.2637 32.4941 10.2637 24.5987C10.2637 16.7032 16.6708 10.3027 24.5743 10.3027C32.4778 10.3027 38.8849 16.7032 38.8849 24.5987C38.8849 32.4941 32.4778 38.8946 24.5743 38.8946V38.1577C32.0704 38.1577 38.1472 32.0871 38.1472 24.5987Z" fill="#6D45E6"/>
<path d="M37.2613 24.5996C37.2613 31.5996 31.5808 37.2743 24.5735 37.2743C17.5662 37.2743 11.8857 31.5996 11.8857 24.5996C11.8857 17.5995 17.5662 11.9248 24.5735 11.9248C31.5808 11.9248 37.2613 17.5995 37.2613 24.5996Z" fill="white"/>
<path d="M34.3106 24.5996C34.3106 19.2274 29.9512 14.8724 24.5735 14.8724C19.1958 14.8724 14.8364 19.2274 14.8364 24.5996C14.8364 29.9717 19.1958 34.3267 24.5735 34.3267V37.2743C17.5662 37.2743 11.8857 31.5996 11.8857 24.5996C11.8857 17.5995 17.5662 11.9248 24.5735 11.9248C31.5808 11.9248 37.2613 17.5995 37.2613 24.5996C37.2613 31.5996 31.5808 37.2743 24.5735 37.2743V34.3267C29.9512 34.3267 34.3106 29.9717 34.3106 24.5996Z" fill="#6D45E6"/>
<path d="M24.5825 35.5054C24.7455 35.5053 24.8778 35.6372 24.8779 35.8C24.878 35.9628 24.7459 36.0948 24.583 36.0949H24.5668C24.4039 36.0948 24.2718 35.9628 24.2719 35.8C24.272 35.6372 24.4043 35.5053 24.5673 35.5054H24.5825ZM21.7835 35.4543C21.8197 35.2956 21.9778 35.1963 22.1367 35.2325C22.1417 35.2336 22.1466 35.2347 22.1516 35.2358C22.3105 35.2718 22.4102 35.4297 22.3742 35.5884C22.3381 35.7472 22.1801 35.8468 22.0212 35.8108C22.016 35.8096 22.0107 35.8084 22.0055 35.8072C21.8466 35.771 21.7472 35.613 21.7835 35.4543ZM27.0131 35.2325C27.1719 35.1963 27.3301 35.2956 27.3663 35.4543C27.4026 35.613 27.3032 35.771 27.1443 35.8072C27.1391 35.8084 27.1338 35.8096 27.1286 35.8108C26.9697 35.8468 26.8116 35.7472 26.7756 35.5884C26.7396 35.4297 26.8393 35.2718 26.9982 35.2358C27.0032 35.2347 27.0081 35.2336 27.0131 35.2325ZM19.4363 34.5617C19.5072 34.4151 19.6837 34.3537 19.8304 34.4245C19.8349 34.4267 19.8395 34.4289 19.8441 34.4311C19.9909 34.5018 20.0526 34.678 19.9819 34.8246C19.9112 34.9713 19.7349 35.0328 19.588 34.9622C19.5832 34.9599 19.5784 34.9576 19.5736 34.9553C19.4269 34.8845 19.3654 34.7082 19.4363 34.5617ZM29.3194 34.4245C29.4661 34.3537 29.6425 34.4151 29.7134 34.5617C29.7843 34.7082 29.7229 34.8845 29.5761 34.9553C29.5713 34.9576 29.5665 34.9599 29.5617 34.9622C29.4149 35.0329 29.2385 34.9713 29.1678 34.8246C29.0971 34.678 29.1589 34.5018 29.3057 34.4311C29.3103 34.4289 29.3148 34.4267 29.3194 34.4245ZM17.3473 33.1679C17.449 33.0407 17.6348 33.0202 17.762 33.1218C17.766 33.125 17.7699 33.1281 17.7739 33.1312C17.9013 33.2327 17.9223 33.4183 17.8207 33.5455C17.7191 33.6728 17.5334 33.6936 17.406 33.5922C17.4019 33.5889 17.3977 33.5856 17.3935 33.5823C17.2662 33.4806 17.2455 33.295 17.3473 33.1679ZM31.3877 33.1218C31.515 33.0202 31.7008 33.0407 31.8025 33.1679C31.9043 33.295 31.8835 33.4806 31.7563 33.5823C31.7521 33.5856 31.7479 33.5889 31.7437 33.5922C31.6163 33.6936 31.4307 33.6728 31.3291 33.5455C31.2275 33.4183 31.2485 33.2327 31.3759 33.1312C31.3799 33.1281 31.3838 33.125 31.3877 33.1218ZM15.6194 31.3465C15.7468 31.245 15.9326 31.266 16.0342 31.3933C16.0373 31.3972 16.0404 31.4012 16.0435 31.4051C16.1453 31.5322 16.1247 31.7178 15.9974 31.8194C15.8702 31.9211 15.6844 31.9004 15.5826 31.7732C15.5793 31.7691 15.576 31.7649 15.5727 31.7607C15.4711 31.6334 15.492 31.448 15.6194 31.3465ZM33.1156 31.3933C33.2172 31.266 33.403 31.245 33.5304 31.3465C33.6578 31.448 33.6787 31.6334 33.5771 31.7607C33.5738 31.7649 33.5705 31.7691 33.5671 31.7732C33.4654 31.9004 33.2796 31.9211 33.1524 31.8194C33.0251 31.7178 33.0045 31.5322 33.1063 31.4051C33.1094 31.4012 33.1125 31.3972 33.1156 31.3933ZM14.339 29.1875C14.4858 29.1168 14.6622 29.1785 14.7329 29.3252C14.7351 29.3298 14.7373 29.3343 14.7395 29.3389C14.8104 29.4854 14.7489 29.6617 14.6022 29.7325C14.4555 29.8033 14.2791 29.7419 14.2082 29.5953C14.2058 29.5905 14.2036 29.5857 14.2012 29.5809C14.1305 29.4343 14.1922 29.2581 14.339 29.1875ZM34.4169 29.3252C34.4876 29.1785 34.664 29.1168 34.8108 29.1875C34.9576 29.2581 35.0192 29.4343 34.9485 29.5809C34.9462 29.5857 34.9439 29.5905 34.9416 29.5953C34.8707 29.7419 34.6943 29.8033 34.5476 29.7325C34.4009 29.6617 34.3394 29.4854 34.4103 29.3389C34.4125 29.3343 34.4147 29.3298 34.4169 29.3252ZM13.5744 26.7977C13.7333 26.7617 13.8913 26.8613 13.9274 27.0201C13.9285 27.025 13.9296 27.03 13.9307 27.0349C13.9669 27.1936 13.8675 27.3516 13.7087 27.3878C13.5498 27.424 13.3916 27.3247 13.3554 27.166C13.3542 27.1608 13.353 27.1555 13.3518 27.1503C13.3158 26.9916 13.4155 26.8337 13.5744 26.7977ZM35.2224 27.0201C35.2584 26.8613 35.4165 26.7617 35.5754 26.7977C35.7343 26.8337 35.834 26.9916 35.798 27.1503C35.7968 27.1555 35.7956 27.1608 35.7944 27.166C35.7581 27.3247 35.6 27.424 35.4411 27.3878C35.2822 27.3516 35.1829 27.1936 35.2191 27.0349C35.2202 27.03 35.2213 27.025 35.2224 27.0201ZM13.0674 24.5912C13.0675 24.4284 13.1997 24.2965 13.3626 24.2965C13.5256 24.2967 13.6576 24.4288 13.6575 24.5916V24.6068C13.6576 24.7696 13.5256 24.9018 13.3626 24.9019C13.1997 24.902 13.0675 24.77 13.0674 24.6073V24.5912ZM35.4923 24.5916C35.4922 24.4288 35.6242 24.2967 35.7872 24.2965C35.9501 24.2965 36.0823 24.4284 36.0824 24.5912V24.6073C36.0823 24.77 35.9501 24.902 35.7872 24.9019C35.6242 24.9018 35.4922 24.7696 35.4923 24.6068V24.5916ZM13.3554 22.0324C13.3916 21.8737 13.5498 21.7744 13.7087 21.8106C13.8675 21.8468 13.9669 22.0048 13.9307 22.1635C13.9296 22.1685 13.9285 22.1734 13.9274 22.1784C13.8913 22.3371 13.7333 22.4367 13.5744 22.4007C13.4155 22.3648 13.3158 22.2069 13.3518 22.0481C13.353 22.0429 13.3542 22.0376 13.3554 22.0324ZM35.4411 21.8106C35.6 21.7744 35.7581 21.8737 35.7944 22.0324C35.7956 22.0376 35.7968 22.0429 35.798 22.0481C35.834 22.2069 35.7343 22.3648 35.5754 22.4007C35.4165 22.4367 35.2584 22.3371 35.2224 22.1784C35.2213 22.1734 35.2202 22.1685 35.2191 22.1635C35.1829 22.0048 35.2822 21.8468 35.4411 21.8106ZM14.2082 19.6031C14.2791 19.4565 14.4555 19.3951 14.6022 19.4659C14.7489 19.5368 14.8104 19.713 14.7395 19.8596C14.7373 19.8641 14.7351 19.8687 14.7329 19.8732C14.6622 20.0199 14.4858 20.0816 14.339 20.011C14.1922 19.9403 14.1305 19.7642 14.2012 19.6175C14.2036 19.6127 14.2058 19.6079 14.2082 19.6031ZM34.5476 19.4659C34.6943 19.3951 34.8707 19.4565 34.9416 19.6031C34.9439 19.6079 34.9462 19.6127 34.9485 19.6175C35.0192 19.7642 34.9576 19.9403 34.8108 20.011C34.664 20.0816 34.4876 20.0199 34.4169 19.8732C34.4147 19.8687 34.4125 19.8641 34.4103 19.8596C34.3394 19.713 34.4009 19.5368 34.5476 19.4659ZM15.5826 17.4252C15.6844 17.2981 15.8702 17.2773 15.9974 17.379C16.1247 17.4807 16.1453 17.6662 16.0435 17.7934C16.0404 17.7973 16.0373 17.8012 16.0342 17.8052C15.9326 17.9324 15.7468 17.9534 15.6194 17.8519C15.492 17.7504 15.4711 17.565 15.5727 17.4377C15.576 17.4336 15.5793 17.4294 15.5826 17.4252ZM33.1524 17.379C33.2796 17.2773 33.4654 17.2981 33.5671 17.4252C33.5705 17.4294 33.5738 17.4336 33.5771 17.4377C33.6787 17.565 33.6578 17.7504 33.5304 17.8519C33.403 17.9534 33.2172 17.9324 33.1156 17.8052C33.1125 17.8012 33.1094 17.7973 33.1063 17.7934C33.0045 17.6662 33.0251 17.4807 33.1524 17.379ZM17.406 15.6063C17.5334 15.5048 17.7191 15.5256 17.8207 15.6529C17.9223 15.7802 17.9013 15.9658 17.7739 16.0673C17.7699 16.0704 17.766 16.0735 17.762 16.0766C17.6348 16.1783 17.449 16.1577 17.3473 16.0306C17.2455 15.9034 17.2662 15.7178 17.3935 15.6162C17.3977 15.6129 17.4019 15.6096 17.406 15.6063ZM31.3291 15.6529C31.4307 15.5256 31.6163 15.5048 31.7437 15.6063C31.7479 15.6096 31.7521 15.6129 31.7563 15.6162C31.8835 15.7178 31.9043 15.9034 31.8025 16.0306C31.7008 16.1577 31.515 16.1783 31.3877 16.0766C31.3838 16.0735 31.3799 16.0704 31.3759 16.0673C31.2485 15.9658 31.2275 15.7802 31.3291 15.6529ZM19.588 14.2362C19.7349 14.1656 19.9112 14.2272 19.9819 14.3738C20.0526 14.5205 19.9909 14.6967 19.8441 14.7673C19.8395 14.7695 19.8349 14.7717 19.8304 14.7739C19.6837 14.8448 19.5072 14.7833 19.4363 14.6368C19.3654 14.4902 19.4269 14.314 19.5736 14.2431C19.5784 14.2408 19.5832 14.2385 19.588 14.2362ZM29.1678 14.3738C29.2385 14.2272 29.4149 14.1656 29.5617 14.2362C29.5665 14.2385 29.5713 14.2408 29.5761 14.2431C29.7229 14.314 29.7843 14.4902 29.7134 14.6368C29.6425 14.7833 29.4661 14.8448 29.3194 14.7739C29.3148 14.7717 29.3103 14.7695 29.3057 14.7673C29.1589 14.6967 29.0971 14.5205 29.1678 14.3738ZM22.0212 13.3876C22.1801 13.3517 22.3381 13.4512 22.3742 13.61C22.4102 13.7688 22.3105 13.9266 22.1516 13.9626C22.1466 13.9637 22.1417 13.9648 22.1367 13.9659C21.9778 14.0021 21.8197 13.9028 21.7835 13.7441C21.7472 13.5854 21.8466 13.4274 22.0055 13.3912C22.0107 13.39 22.016 13.3888 22.0212 13.3876ZM26.7756 13.61C26.8116 13.4512 26.9697 13.3517 27.1286 13.3876C27.1338 13.3888 27.1391 13.39 27.1443 13.3912C27.3032 13.4274 27.4026 13.5854 27.3663 13.7441C27.3301 13.9028 27.1719 14.0021 27.0131 13.9659C27.0081 13.9648 27.0032 13.9637 26.9982 13.9626C26.8393 13.9266 26.7396 13.7688 26.7756 13.61ZM24.583 13.1035C24.7459 13.1036 24.878 13.2357 24.8779 13.3984C24.8778 13.5612 24.7455 13.6932 24.5825 13.693H24.5673C24.4043 13.6932 24.272 13.5612 24.2719 13.3984C24.2718 13.2357 24.4039 13.1036 24.5668 13.1035H24.583Z" fill="white"/>
<path d="M8.67888 16.3474L8.88266 15.4755L8.19922 14.8891L9.10212 14.8115L9.45324 13.9893L9.80437 14.8115L10.7073 14.8891L10.0238 15.4755L10.2276 16.3474L9.45324 15.885L8.67888 16.3474Z" fill="#6D45E6"/>
<path d="M38.9211 16.3474L39.1248 15.4755L38.4414 14.8891L39.3443 14.8115L39.6954 13.9893L40.0466 14.8115L40.9495 14.8891L40.266 15.4755L40.4698 16.3474L39.6954 15.885L38.9211 16.3474Z" fill="#6D45E6"/>
<path d="M8.67693 35.2106L8.88071 34.3388L8.19727 33.7523L9.10016 33.6748L9.45129 32.8525L9.80242 33.6748L10.7053 33.7523L10.0219 34.3388L10.2256 35.2106L9.45129 34.7483L8.67693 35.2106Z" fill="#6D45E6"/>
<path d="M38.922 35.2097L39.1258 34.3378L38.4424 33.7514L39.3453 33.6738L39.6964 32.8516L40.0475 33.6738L40.9504 33.7514L40.267 34.3378L40.4708 35.2097L39.6964 34.7473L38.922 35.2097Z" fill="#6D45E6"/>
<path d="M13.0628 11.1433C12.9281 11.032 12.748 11.0669 12.5942 11.2176C12.4294 11.3791 12.4074 11.564 12.52 11.6787C12.6454 11.8064 12.8316 11.7184 12.9626 11.6409L13.1268 11.549C13.339 11.4209 13.6447 11.3066 13.8846 11.5472C14.1044 11.7748 14.0882 12.1173 13.7714 12.4277C13.4713 12.7217 13.1352 12.757 12.8824 12.5254L13.0862 12.3258C13.2427 12.4592 13.4396 12.4043 13.597 12.2501C13.7674 12.0831 13.8062 11.8745 13.679 11.7413C13.5627 11.6265 13.4062 11.6855 13.2272 11.7882L13.0261 11.9018C12.7531 12.0531 12.5107 12.0764 12.3272 11.8895C12.1001 11.6582 12.1567 11.3013 12.4272 11.0363C12.6995 10.7695 13.0429 10.738 13.261 10.9491L13.0628 11.1433Z" fill="#6D45E6"/>
<path d="M14.573 9.5671L14.4375 9.36133L15.6534 8.56244L15.7889 8.76821L15.3012 9.08862L16.1982 10.4511L15.9598 10.6077L15.0628 9.24527L14.573 9.5671Z" fill="#6D45E6"/>
<path d="M18.3357 9.29357L18.0548 9.40821L17.9689 7.41713L18.2738 7.29269L19.6105 8.7733L19.3296 8.88794L18.9838 8.49454L18.3068 8.77084L18.3357 9.29357ZM18.2934 8.51885L18.8168 8.30525L18.2568 7.66903L18.2448 7.67393L18.2934 8.51885Z" fill="#6D45E6"/>
<path d="M20.4102 6.59961L20.7511 6.53271L21.6143 7.84451L21.6372 7.84001L21.9395 6.29956L22.2805 6.23266L22.6424 8.07315L22.3752 8.12557L22.1138 6.79604L22.096 6.79954L21.8174 8.23237L21.596 8.2758L20.7926 7.05262L20.7773 7.05561L21.0392 8.38768L20.772 8.4401L20.4102 6.59961Z" fill="#6D45E6"/>
<path d="M23.9561 8.21452V6.33887H24.6251C25.0608 6.33887 25.2761 6.60053 25.2761 6.94768C25.2761 7.29224 25.0608 7.55649 24.6251 7.55649H24.2413V8.21452H23.9561ZM24.2413 7.31296H24.5966C24.8741 7.31296 24.9882 7.15752 24.9882 6.94768C24.9882 6.73524 24.8741 6.58239 24.5966 6.58239H24.2413V7.31296Z" fill="#6D45E6"/>
<path d="M27.1556 6.53838L27.2031 6.29688L28.6307 6.57696L28.5832 6.81846L28.0107 6.70613L27.6963 8.30512L27.4164 8.2502L27.7308 6.65121L27.1556 6.53838Z" fill="#6D45E6"/>
<path d="M31.6686 8.63157C31.4421 9.18556 30.9701 9.38752 30.5211 9.2043C30.0674 9.01912 29.8744 8.54576 30.101 7.99176C30.3285 7.43536 30.7971 7.23482 31.2509 7.42C31.6998 7.60322 31.8962 8.07517 31.6686 8.63157ZM31.407 8.52477C31.5796 8.10267 31.4495 7.78372 31.1518 7.66223C30.8517 7.53975 30.5353 7.67646 30.3626 8.09856C30.19 8.52065 30.3201 8.8396 30.6202 8.96208C30.9179 9.08357 31.2343 8.94686 31.407 8.52477Z" fill="#6D45E6"/>
<path d="M34.585 9.28034L34.8234 9.43699L34.1446 10.468C33.9278 10.7973 33.5267 10.8688 33.1518 10.6225C32.7725 10.3733 32.6816 9.97843 32.8983 9.64919L33.5771 8.61816L33.8156 8.77481L33.1496 9.78634C33.0098 9.99862 33.056 10.2492 33.2944 10.4059C33.5306 10.5611 33.7792 10.5042 33.919 10.2919L34.585 9.28034Z" fill="#6D45E6"/>
<path d="M34.9532 11.9697L36.2686 10.6299L36.7465 11.0981C37.0577 11.4031 37.0406 11.7276 36.799 11.9738C36.6219 12.1542 36.4059 12.2113 36.1838 12.1117L35.9479 12.9443L35.7163 12.7174L35.94 11.9454L35.9271 11.9327L35.6529 11.6641L35.1569 12.1693L34.9532 11.9697ZM35.8255 11.4883L36.0793 11.737C36.2775 11.9312 36.4444 11.924 36.5934 11.7723C36.7424 11.6206 36.7535 11.4463 36.5553 11.2521L36.3015 11.0035L35.8255 11.4883Z" fill="#6D45E6"/>
<path d="M36.0846 38.1214C36.2193 38.2326 36.3995 38.1977 36.5532 38.0471C36.7181 37.8856 36.7401 37.7006 36.6274 37.5859C36.5021 37.4582 36.3159 37.5462 36.1849 37.6238L36.0207 37.7157C35.8085 37.8437 35.5028 37.9581 35.2629 37.7175C35.0431 37.4899 35.0593 37.1473 35.376 36.8369C35.6761 36.5429 36.0122 36.5077 36.265 36.7393L36.0613 36.9389C35.9048 36.8054 35.7079 36.8603 35.5504 37.0146C35.38 37.1816 35.3413 37.3901 35.4685 37.5233C35.5848 37.6381 35.7413 37.5791 35.9203 37.4764L36.1214 37.3629C36.3944 37.2116 36.6368 37.1883 36.8203 37.3752C37.0474 37.6065 36.9907 37.9633 36.7203 38.2283C36.448 38.4951 36.1046 38.5266 35.8864 38.3156L36.0846 38.1214Z" fill="#6D45E6"/>
<path d="M34.5735 39.6946L34.709 39.9004L33.4931 40.6993L33.3576 40.4935L33.8453 40.1731L32.9483 38.8107L33.1867 38.654L34.0837 40.0165L34.5735 39.6946Z" fill="#6D45E6"/>
<path d="M30.8108 39.9691L31.0917 39.8545L31.1776 41.8456L30.8727 41.97L29.536 40.4894L29.8169 40.3748L30.1627 40.7682L30.8397 40.4919L30.8108 39.9691ZM30.8531 40.7438L30.3297 40.9574L30.8897 41.5937L30.9017 41.5888L30.8531 40.7438Z" fill="#6D45E6"/>
<path d="M28.7373 42.6631L28.3963 42.73L27.5332 41.4182L27.5103 41.4227L27.2079 42.9631L26.8669 43.03L26.5051 41.1895L26.7723 41.1371L27.0337 42.4667L27.0515 42.4632L27.3301 41.0303L27.5515 40.9869L28.3549 42.2101L28.3702 42.2071L28.1083 40.875L28.3755 40.8226L28.7373 42.6631Z" fill="#6D45E6"/>
<path d="M25.1924 41.0501L25.1924 42.9258L24.5233 42.9258C24.0876 42.9258 23.8724 42.6641 23.8724 42.317C23.8724 41.9724 24.0876 41.7082 24.5233 41.7082L24.9071 41.7082L24.9071 41.0501L25.1924 41.0501ZM24.9071 41.9517L24.5518 41.9517C24.2743 41.9517 24.1602 42.1071 24.1602 42.317C24.1602 42.5294 24.2743 42.6823 24.5518 42.6823L24.9071 42.6823L24.9071 41.9517Z" fill="#6D45E6"/>
<path d="M21.9928 42.7243L21.9453 42.9658L20.5177 42.6857L20.5652 42.4442L21.1378 42.5566L21.4521 40.9576L21.732 41.0125L21.4177 42.6115L21.9928 42.7243Z" fill="#6D45E6"/>
<path d="M17.4798 40.6311C17.7064 40.0771 18.1784 39.8752 18.6273 40.0584C19.081 40.2436 19.274 40.7169 19.0475 41.2709C18.8199 41.8273 18.3513 42.0279 17.8976 41.8427C17.4486 41.6595 17.2523 41.1875 17.4798 40.6311ZM17.7415 40.7379C17.5689 41.16 17.699 41.479 17.9966 41.6005C18.2967 41.7229 18.6132 41.5862 18.7858 41.1641C18.9584 40.742 18.8283 40.4231 18.5282 40.3006C18.2305 40.1791 17.9141 40.3158 17.7415 40.7379Z" fill="#6D45E6"/>
<path d="M14.5635 39.9843L14.325 39.8277L15.0039 38.7966C15.2206 38.4674 15.6217 38.3958 15.9967 38.6422C16.376 38.8914 16.4669 39.2862 16.2501 39.6155L15.5713 40.6465L15.3329 40.4898L15.9989 39.4783C16.1386 39.266 16.0925 39.0154 15.8541 38.8588C15.6178 38.7035 15.3692 38.7605 15.2294 38.9728L14.5635 39.9843Z" fill="#6D45E6"/>
<path d="M14.1933 37.293L12.8779 38.6328L12.4 38.1646C12.0888 37.8596 12.1058 37.5351 12.3475 37.2889C12.5246 37.1085 12.7406 37.0514 12.9626 37.151L13.1986 36.3184L13.4301 36.5453L13.2064 37.3173L13.2194 37.33L13.4936 37.5986L13.9896 37.0934L14.1933 37.293ZM13.321 37.7744L13.0672 37.5257C12.869 37.3315 12.7021 37.3386 12.5531 37.4904C12.4041 37.6421 12.393 37.8164 12.5912 38.0106L12.845 38.2592L13.321 37.7744Z" fill="#6D45E6"/>
<path d="M23.1399 25.8711H20.9149C20.5452 25.8701 20.1888 26.0078 19.9241 26.256C19.6623 26.5002 19.5137 26.8353 19.5137 27.1851C19.5228 27.9197 20.1501 28.5078 20.9149 28.5H28.2009C28.9575 28.5176 29.5868 27.9441 29.6051 27.2173C29.6235 26.4914 29.0257 25.8877 28.2681 25.8701C28.2457 25.8701 28.2233 25.8701 28.1999 25.8701H25.9555L27.1418 21.8001C27.4046 20.4304 26.4616 19.1164 25.0339 18.8634C23.6063 18.6113 22.2366 19.517 21.9729 20.8857C21.9159 21.1836 21.9148 21.4894 21.9709 21.7884L23.1389 25.8711H23.1399Z" fill="#6D45E6"/>
<path d="M22.0374 29.3057H27.0811C27.5455 29.3057 27.9222 29.6671 27.9222 30.1126C27.9222 30.5581 27.5455 30.9196 27.0811 30.9196H22.0374C21.5731 30.9196 21.1963 30.5581 21.1963 30.1126C21.1963 29.6671 21.5731 29.3057 22.0374 29.3057Z" fill="#6D45E6"/>
<defs>
<linearGradient id="paint0_linear_509_166" x1="0" y1="0" x2="48.9304" y2="48.9807" gradientUnits="userSpaceOnUse">
<stop stop-color="#8E2CDE"/>
<stop offset="1" stop-color="#5426ED"/>
</linearGradient>
</defs>
</svg>
