<svg width="12" height="16" viewBox="0 0 12 16" fill="none" xmlns="http://www.w3.org/2000/svg">
<path d="M0.4375 0.0682254C0.703125 -0.0536496 1.01563 -0.00989936 1.2375 0.180726L2.5 1.26198L3.7625 0.180726C4.04375 -0.0598994 4.45938 -0.0598994 4.7375 0.180726L6 1.26198L7.2625 0.180726C7.54375 -0.0598994 7.95625 -0.0598994 8.2375 0.180726L9.5 1.26198L10.7625 0.180726C10.9844 -0.00989936 11.2969 -0.0536496 11.5625 0.0682254C11.8281 0.1901 12 0.455726 12 0.749476V15.2495C12 15.5432 11.8281 15.8089 11.5625 15.9307C11.2969 16.0526 10.9844 16.0089 10.7625 15.8182L9.5 14.737L8.2375 15.8182C7.95625 16.0589 7.54375 16.0589 7.2625 15.8182L6 14.737L4.7375 15.8182C4.45625 16.0589 4.04062 16.0589 3.7625 15.8182L2.5 14.737L1.2375 15.8182C1.01563 16.0089 0.703125 16.0526 0.4375 15.9307C0.171875 15.8089 0 15.5432 0 15.2495V0.749476C0 0.455726 0.171875 0.1901 0.4375 0.0682254ZM3.25 4.24948C2.83437 4.24948 2.5 4.58385 2.5 4.99948C2.5 5.4151 2.83437 5.74948 3.25 5.74948H8.75C9.16563 5.74948 9.5 5.4151 9.5 4.99948C9.5 4.58385 9.16563 4.24948 8.75 4.24948H3.25ZM2.5 10.9995C2.5 11.4151 2.83437 11.7495 3.25 11.7495H8.75C9.16563 11.7495 9.5 11.4151 9.5 10.9995C9.5 10.5839 9.16563 10.2495 8.75 10.2495H3.25C2.83437 10.2495 2.5 10.5839 2.5 10.9995ZM3.25 7.24948C2.83437 7.24948 2.5 7.58385 2.5 7.99948C2.5 8.4151 2.83437 8.74948 3.25 8.74948H8.75C9.16563 8.74948 9.5 8.4151 9.5 7.99948C9.5 7.58385 9.16563 7.24948 8.75 7.24948H3.25Z" fill="white"/>
</svg>
