<svg width="26" height="26" viewBox="0 0 26 26" fill="none" xmlns="http://www.w3.org/2000/svg">
<path d="M12.1338 0.602148C12.3148 0.120942 12.8492 -0.121344 13.3284 0.0603704C13.578 0.154593 13.774 0.353132 13.8679 0.602148L16.6708 8.05243C16.7998 8.39398 17.1131 8.62786 17.475 8.65141L25.1349 9.16963C25.6459 9.20328 26.033 9.64747 25.9978 10.1606C25.981 10.408 25.8671 10.6385 25.6811 10.8017L19.7033 16.0361C19.4419 16.2649 19.3297 16.6199 19.4118 16.9581L21.3217 24.8475C21.4424 25.3472 21.1374 25.8503 20.6398 25.9731C20.3885 26.0354 20.1221 25.9883 19.906 25.8436L13.5127 21.5699C13.201 21.3613 12.7956 21.3613 12.4856 21.5699L6.0923 25.8436C5.66675 26.1279 5.09041 26.0135 4.80727 25.5845C4.66318 25.3674 4.61627 25.0999 4.67826 24.8475L6.58822 16.9581C6.67032 16.6199 6.55807 16.2649 6.2967 16.0361L0.318861 10.8017C-0.0681577 10.4635 -0.108367 9.8763 0.228389 9.48763C0.390903 9.30087 0.620433 9.18646 0.866718 9.16963L8.52666 8.65141C8.88855 8.62617 9.20353 8.3923 9.33086 8.05243L12.1338 0.602148Z" fill="#B0ADB6"/>
</svg>
