<svg width="12" height="12" viewBox="0 0 12 12" fill="none" xmlns="http://www.w3.org/2000/svg">
<path d="M5.60022 0.277914C5.68373 0.0558193 5.9304 -0.0560048 6.15156 0.0278633C6.26677 0.0713504 6.35724 0.162984 6.40055 0.277914L7.69422 3.71651C7.75376 3.87415 7.89836 3.98209 8.06538 3.99296L11.6007 4.23214C11.8366 4.24767 12.0152 4.45268 11.999 4.68953C11.9912 4.80368 11.9387 4.91007 11.8528 4.9854L9.09382 7.40126C8.9732 7.50688 8.92139 7.67073 8.95928 7.82682L9.8408 11.4681C9.89647 11.6987 9.75574 11.9309 9.52608 11.9876C9.41009 12.0163 9.28714 11.9946 9.18739 11.9278L6.23662 9.95536C6.09279 9.85906 5.90566 9.85906 5.76261 9.95536L2.81183 11.9278C2.61542 12.059 2.34942 12.0062 2.21874 11.8082C2.15224 11.708 2.13059 11.5846 2.1592 11.4681L3.04072 7.82682C3.07861 7.67073 3.0268 7.50688 2.90617 7.40126L0.147166 4.9854C-0.0314574 4.82931 -0.0500157 4.55829 0.10541 4.37891C0.180417 4.29271 0.286354 4.2399 0.400024 4.23214L3.93538 3.99296C4.10241 3.98131 4.24778 3.87337 4.30655 3.71651L5.60022 0.277914Z" fill="#6D45E6"/>
</svg>
