<svg width="20" height="21" viewBox="0 0 20 21" fill="none" xmlns="http://www.w3.org/2000/svg">
<path d="M18.6416 0.0136719C18.7766 0.0319353 18.9085 0.0687566 19.0342 0.121094L19.2188 0.211914L19.3896 0.326172C19.4979 0.409643 19.5947 0.507634 19.6777 0.616211L19.791 0.786133L19.8818 0.970703C19.9599 1.15985 20 1.3634 20 1.56934V15.5557C19.9996 15.8304 19.9273 16.1009 19.79 16.3389C19.6527 16.5765 19.4553 16.7745 19.2178 16.9121C18.98 17.0498 18.7093 17.1233 18.4346 17.124C18.1602 17.1246 17.8906 17.0522 17.6523 16.916L11.752 13.5449H10.1113L10.6357 17.207C10.7379 17.9786 10.5316 18.7606 10.0615 19.3809C9.59141 20.0011 8.89443 20.4104 8.12402 20.5205C7.35367 20.6305 6.57027 20.4324 5.94531 19.9688C5.32027 19.5049 4.90304 18.8123 4.78516 18.043L4.78418 18.0332L4.13184 13.4688C3.12643 13.2946 2.19126 12.8161 1.45996 12.085C0.525743 11.1507 7.41028e-05 9.88368 0 8.5625C0 7.24123 0.525692 5.97432 1.45996 5.04004C2.39423 4.10585 3.66122 3.58008 4.98242 3.58008H11.75L17.6523 0.207031C17.8907 0.0708633 18.161 -0.000762569 18.4355 0L18.6416 0.0136719Z" fill="white"/>
</svg>
