<svg width="36" height="36" viewBox="0 0 36 36" fill="none" xmlns="http://www.w3.org/2000/svg">
<circle cx="18" cy="18" r="18" fill="#E7E6EE"/>
<path d="M18 0C20.3638 2.8188e-08 22.7044 0.465584 24.8883 1.37017C27.0722 2.27475 29.0565 3.60062 30.7279 5.27208C32.3994 6.94353 33.7252 8.92784 34.6298 11.1117C35.5344 13.2956 36 15.6362 36 18L18 18V0Z" fill="#412F75"/>
<circle cx="18.0008" cy="17.9998" r="13.5789" fill="#D5D2E1"/>
<path d="M19.8594 12.6875V24H17.8125V14.6719H17.75L15.1094 16.3594V14.5L17.9062 12.6875H19.8594Z" fill="#412F75"/>
<path d="M18 36C27.9411 36 36 27.9411 36 18C36 8.05887 27.9411 0 18 0C8.05887 0 0 8.05887 0 18C0 27.9411 8.05887 36 18 36Z" fill="url(#paint0_linear_461_691)"/>
<path opacity="0.4" d="M17.9992 34.0814C9.13192 34.0814 1.91797 26.8674 1.91797 18.0002C1.91797 9.1329 9.13192 1.91895 17.9992 1.91895C26.8664 1.91895 34.0804 9.1329 34.0804 18.0002C34.0804 26.8674 26.8664 34.0814 17.9992 34.0814ZM17.9992 3.11021C9.78882 3.11021 3.10923 9.7898 3.10923 18.0002C3.10923 26.2105 9.78882 32.8901 17.9992 32.8901C26.2095 32.8901 32.8891 26.2105 32.8891 18.0002C32.8891 9.7898 26.2095 3.11021 17.9992 3.11021Z" fill="white"/>
<path d="M16.3304 19.3736H13.0597C12.5163 19.3721 11.9924 19.5748 11.6032 19.94C11.2185 20.2994 11 20.7924 11 21.3071C11.0135 22.3881 11.9356 23.2535 13.0597 23.242H23.7699C24.8821 23.2679 25.8072 22.4241 25.8341 21.3545C25.8611 20.2864 24.9824 19.398 23.8687 19.3721C23.8358 19.3721 23.8028 19.3721 23.7684 19.3721H20.4693L22.2132 13.3833C22.5994 11.3678 21.2132 9.43428 19.1146 9.06195C17.016 8.69106 15.0027 10.0237 14.615 12.0377C14.5311 12.4762 14.5297 12.9261 14.612 13.366L16.3289 19.3736H16.3304Z" fill="white" fill-opacity="0.8"/>
<path d="M14.711 24.4277H22.1251C22.8077 24.4277 23.3615 24.9596 23.3615 25.6152C23.3615 26.2707 22.8077 26.8026 22.1251 26.8026H14.711C14.0285 26.8026 13.4746 26.2707 13.4746 25.6152C13.4746 24.9596 14.0285 24.4277 14.711 24.4277Z" fill="white" fill-opacity="0.8"/>
<defs>
<linearGradient id="paint0_linear_461_691" x1="5.182" y1="7.65983" x2="33.2022" y2="30.2632" gradientUnits="userSpaceOnUse">
<stop stop-color="#D93582"/>
<stop offset="1" stop-color="#720B42"/>
</linearGradient>
</defs>
</svg>
