<svg width="28" height="22" viewBox="0 0 28 22" fill="none" xmlns="http://www.w3.org/2000/svg">
<path d="M25.3184 0.5C25.9179 0.5 26.4384 0.745276 26.8594 1.19141C27.2832 1.64061 27.5 2.18683 27.5 2.80469C27.5 3.42223 27.2822 3.9669 26.8584 4.41504L26.8594 4.41602L11.4326 20.8086C11.0116 21.2547 10.4912 21.5 9.8916 21.5C9.29221 21.4999 8.77247 21.2546 8.35156 20.8086L1.12109 13.1475C0.694065 12.6949 0.483886 12.1433 0.500977 11.5215C0.517858 10.9089 0.741898 10.3683 1.16309 9.92188C1.58841 9.47117 2.11797 9.2289 2.72754 9.23047C3.25884 9.23192 3.72883 9.41661 4.12207 9.7627L4.28613 9.9209L4.28809 9.92285L9.89258 15.9043L23.7783 1.19141C24.1992 0.745423 24.719 0.50007 25.3184 0.5Z" fill="white" stroke="white"/>
</svg>
