<svg width="12" height="10" viewBox="0 0 12 10" fill="none" xmlns="http://www.w3.org/2000/svg">
<path d="M1.2 1.11111H3L4.2 0H7.8L9 1.11111H10.8C11.1183 1.11111 11.4235 1.22817 11.6485 1.43655C11.8736 1.64492 12 1.92754 12 2.22222V8.88889C12 9.18357 11.8736 9.46619 11.6485 9.67456C11.4235 9.88294 11.1183 10 10.8 10H1.2C0.88174 10 0.576515 9.88294 0.351472 9.67456C0.126428 9.46619 0 9.18357 0 8.88889V2.22222C0 1.92754 0.126428 1.64492 0.351472 1.43655C0.576515 1.22817 0.88174 1.11111 1.2 1.11111ZM6 2.77778C5.20435 2.77778 4.44129 3.07044 3.87868 3.59137C3.31607 4.1123 3 4.81884 3 5.55556C3 6.29227 3.31607 6.99881 3.87868 7.51974C4.44129 8.04068 5.20435 8.33333 6 8.33333C6.79565 8.33333 7.55871 8.04068 8.12132 7.51974C8.68393 6.99881 9 6.29227 9 5.55556C9 4.81884 8.68393 4.1123 8.12132 3.59137C7.55871 3.07044 6.79565 2.77778 6 2.77778ZM6 3.88889C6.47739 3.88889 6.93523 4.06448 7.27279 4.37704C7.61036 4.6896 7.8 5.11353 7.8 5.55556C7.8 5.99758 7.61036 6.42151 7.27279 6.73407C6.93523 7.04663 6.47739 7.22222 6 7.22222C5.52261 7.22222 5.06477 7.04663 4.72721 6.73407C4.38964 6.42151 4.2 5.99758 4.2 5.55556C4.2 5.11353 4.38964 4.6896 4.72721 4.37704C5.06477 4.06448 5.52261 3.88889 6 3.88889Z" fill="#B0ADB6"/>
</svg>
