<svg width="16" height="16" viewBox="0 0 16 16" fill="none" xmlns="http://www.w3.org/2000/svg">
<path fill-rule="evenodd" clip-rule="evenodd" d="M13.8475 0.083991C14.7053 -0.201021 15.6312 0.262822 15.9162 1.11972C16.0279 1.45503 16.0279 1.81735 15.9162 2.15265L11.6801 14.8785C11.396 15.7364 10.4702 16.2011 9.61239 15.9161C9.22772 15.7885 8.90359 15.5221 8.70334 15.1691L6.1727 10.7188L8.67446 8.21707C8.90918 7.96 8.89055 7.56229 8.63348 7.32757C8.39318 7.10869 8.02527 7.10869 7.78497 7.32757L5.28134 9.82934L0.831066 7.2987C0.0440256 6.85442 -0.232603 5.85594 0.212611 5.06983C0.412864 4.71683 0.736063 4.45045 1.12167 4.32284L13.8475 0.083991Z" fill="white"/>
</svg>
