<svg width="55" height="55" viewBox="0 0 55 55" fill="none" xmlns="http://www.w3.org/2000/svg">
<rect width="55" height="55" rx="27.5" fill="#D5D2E1"/>
<path d="M27.4995 27.7221C31.6113 27.7221 34.9444 24.389 34.9444 20.2772C34.9444 16.1654 31.6113 12.833 27.4995 12.833C23.3877 12.833 20.0547 16.1661 20.0547 20.2779C20.0654 24.3846 23.3921 27.7114 27.4995 27.7227V27.7221Z" fill="#A6A1B3"/>
<path d="M40.2751 33.6704C40.0778 33.189 39.827 32.7308 39.5278 32.3046C38.0652 30.1098 35.7353 28.6435 33.1238 28.2739C32.7919 28.2324 32.4569 28.3129 32.181 28.5015C29.3923 30.5385 25.6067 30.5385 22.8186 28.5015C22.5489 28.2984 22.2076 28.2161 21.8758 28.2739C19.2611 28.6353 16.928 30.1036 15.4718 32.3046C15.1789 32.7346 14.9287 33.1915 14.7244 33.6704C14.6377 33.8703 14.6496 34.0991 14.7571 34.2883C15.0236 34.7389 15.3165 35.1732 15.6358 35.588C16.0814 36.1958 16.5824 36.7621 17.1317 37.2788C17.6081 37.7376 18.1071 38.1719 18.6276 38.5798C23.8776 42.481 31.0635 42.481 36.3129 38.5798C36.8409 38.1813 37.3406 37.7464 37.8088 37.2788C38.3493 36.7533 38.849 36.1883 39.3047 35.588C39.6271 35.1751 39.9206 34.7408 40.1834 34.2883C40.338 34.1204 40.3751 33.8759 40.2776 33.6704H40.2751Z" fill="#A6A1B3"/>
</svg>
