<svg width="26" height="26" viewBox="0 0 26 26" fill="none" xmlns="http://www.w3.org/2000/svg">
<path d="M25.5 12.75C25.5 11.0756 25.1702 9.41769 24.5295 7.87079C23.8887 6.32388 22.9496 4.91834 21.7656 3.73439C20.5817 2.55044 19.1761 1.61128 17.6292 0.970536C16.0823 0.329789 14.4244 0 12.75 0C11.0756 0 9.41769 0.329789 7.87079 0.970536C6.32388 1.61128 4.91834 2.55044 3.73439 3.73439C2.55044 4.91834 1.61128 6.32388 0.970536 7.87079C0.329788 9.41769 -2.49498e-08 11.0756 0 12.75C5.03884e-08 16.1315 1.3433 19.3745 3.73439 21.7656C6.12548 24.1567 9.36849 25.5 12.75 25.5C16.1315 25.5 19.3745 24.1567 21.7656 21.7656C24.1567 19.3745 25.5 16.1315 25.5 12.75ZM2.125 12.75C2.125 9.93207 3.24442 7.22956 5.23699 5.23699C7.22956 3.24442 9.93207 2.125 12.75 2.125C15.5679 2.125 18.2704 3.24442 20.263 5.23699C22.2556 7.22956 23.375 9.93207 23.375 12.75C23.375 15.5679 22.2556 18.2704 20.263 20.263C18.2704 22.2556 15.5679 23.375 12.75 23.375C9.93207 23.375 7.22956 22.2556 5.23699 20.263C3.24442 18.2704 2.125 15.5679 2.125 12.75ZM10.625 10.0938C10.625 10.303 10.5838 10.5103 10.5037 10.7037C10.4236 10.897 10.3062 11.0727 10.1582 11.2207C10.0102 11.3687 9.83451 11.4861 9.64115 11.5662C9.44779 11.6463 9.24054 11.6875 9.03125 11.6875C8.82196 11.6875 8.61471 11.6463 8.42135 11.5662C8.22799 11.4861 8.05229 11.3687 7.9043 11.2207C7.75631 11.0727 7.63891 10.897 7.55882 10.7037C7.47872 10.5103 7.4375 10.303 7.4375 10.0938C7.4375 9.67106 7.60541 9.26568 7.9043 8.9668C8.20318 8.66791 8.60856 8.5 9.03125 8.5C9.45394 8.5 9.85932 8.66791 10.1582 8.9668C10.4571 9.26568 10.625 9.67106 10.625 10.0938ZM18.0625 10.0938C18.0625 10.5164 17.8946 10.9218 17.5957 11.2207C17.2968 11.5196 16.8914 11.6875 16.4688 11.6875C16.0461 11.6875 15.6407 11.5196 15.3418 11.2207C15.0429 10.9218 14.875 10.5164 14.875 10.0938C14.875 9.67106 15.0429 9.26568 15.3418 8.9668C15.6407 8.66791 16.0461 8.5 16.4688 8.5C16.8914 8.5 17.2968 8.66791 17.5957 8.9668C17.8946 9.26568 18.0625 9.67106 18.0625 10.0938ZM8.7805 18.7467C10.7461 16.4177 14.7517 16.4177 16.7195 18.7467C16.8073 18.8597 16.917 18.9538 17.0421 19.0233C17.1671 19.0928 17.3049 19.1364 17.4472 19.1513C17.5895 19.1663 17.7333 19.1524 17.8701 19.1104C18.0069 19.0684 18.1338 18.9993 18.2432 18.9071C18.3525 18.8148 18.4422 18.7015 18.5067 18.5738C18.5712 18.4461 18.6093 18.3067 18.6186 18.1639C18.6279 18.0211 18.6083 17.878 18.561 17.743C18.5136 17.608 18.4395 17.4839 18.343 17.3783C15.5274 14.042 9.9705 14.042 7.157 17.3783C7.06053 17.4839 6.98639 17.608 6.93903 17.743C6.89167 17.878 6.87207 18.0211 6.88139 18.1639C6.89072 18.3067 6.92878 18.4461 6.99329 18.5738C7.05781 18.7015 7.14745 18.8148 7.25685 18.9071C7.36624 18.9993 7.49313 19.0684 7.6299 19.1104C7.76668 19.1524 7.91052 19.1663 8.05281 19.1513C8.19509 19.1364 8.33289 19.0928 8.45793 19.0233C8.58298 18.9538 8.69269 18.8597 8.7805 18.7467Z" fill="#B0ADB6"/>
</svg>
