<svg width="17" height="21" viewBox="0 0 17 21" fill="none" xmlns="http://www.w3.org/2000/svg">
<path d="M6.10843 11.8755H2.36035C1.73767 11.8739 1.13729 12.1059 0.691294 12.5239C0.250444 12.9353 0 13.4998 0 14.089C0.0154383 15.3265 1.07211 16.3172 2.36035 16.3041H14.6338C15.9083 16.3337 16.9684 15.3677 16.9993 14.1433C17.0302 12.9205 16.0233 11.9035 14.747 11.8739C14.7093 11.8739 14.6716 11.8739 14.6321 11.8739H10.8514L12.8498 5.01788C13.2924 2.71062 11.704 0.497156 9.29902 0.0709204C6.89407 -0.353669 4.5869 1.17189 4.14262 3.47751C4.04656 3.97945 4.04484 4.49455 4.13919 4.99813L6.10671 11.8755H6.10843Z" fill="#6D45E6"/>
<path d="M4.25088 17.6621H12.7471C13.5293 17.6621 14.164 18.271 14.164 19.0215C14.164 19.7719 13.5293 20.3808 12.7471 20.3808H4.25088C3.46867 20.3808 2.83398 19.7719 2.83398 19.0215C2.83398 18.271 3.46867 17.6621 4.25088 17.6621Z" fill="#6D45E6"/>
</svg>
