<svg width="6" height="30" viewBox="0 0 6 30" fill="none" xmlns="http://www.w3.org/2000/svg">
<path d="M2.75098 1.5C2.07568 1.5 1.45809 2.06245 1.50332 2.72271L2.12715 19.2293C2.12715 19.3914 2.19287 19.5469 2.30986 19.6616C2.42685 19.7762 2.58553 19.8406 2.75098 19.8406C2.91643 19.8406 3.0751 19.7762 3.19209 19.6616C3.30908 19.5469 3.37481 19.3914 3.37481 19.2293L3.99864 2.72271C4.04386 2.06245 3.42627 1.5 2.75098 1.5Z" fill="white" stroke="white" stroke-width="3" stroke-linecap="round" stroke-linejoin="round"/>
<path d="M2.75059 28.4005C3.43965 28.4005 3.99825 27.8531 3.99825 27.1778C3.99825 26.5025 3.43965 25.9551 2.75059 25.9551C2.06153 25.9551 1.50293 26.5025 1.50293 27.1778C1.50293 27.8531 2.06153 28.4005 2.75059 28.4005Z" fill="white" stroke="white" stroke-width="3" stroke-linecap="round" stroke-linejoin="round"/>
</svg>
