<svg width="27" height="27" viewBox="0 0 27 27" fill="none" xmlns="http://www.w3.org/2000/svg">
<path d="M13.1467 26.941L3.8019 23.6426C3.387 23.4965 3.10933 23.1034 3.10933 22.6634V19.2117H10.3781C11.1957 19.21 11.965 18.8258 12.455 18.1719L13.4914 16.7875L14.5294 18.1719C15.0202 18.8258 15.7903 19.2109 16.6079 19.2117H23.8767V22.6634C23.8767 23.1034 23.5982 23.4957 23.1833 23.6426L13.8361 26.941C13.7247 26.9806 13.6084 27.0008 13.4906 27C13.3727 27 13.2565 26.9806 13.1451 26.941H13.1467ZM16.6096 17.6537C16.2818 17.6537 15.9727 17.4995 15.7782 17.2363L13.4978 14.1906L11.2175 17.2363C11.0214 17.4987 10.713 17.6537 10.3861 17.6537H1.03809C0.644985 17.6521 0.285787 17.4301 0.109012 17.0789C-0.0661474 16.727 -0.0282095 16.3048 0.208297 15.9899L3.32243 11.8318C3.51858 11.5703 3.82692 11.4169 4.15383 11.4161H22.8459C23.1736 11.4161 23.482 11.5703 23.6789 11.8318L26.793 15.9899C27.0279 16.3056 27.0659 16.727 26.8915 17.0789C26.7164 17.4309 26.3564 17.6537 25.9633 17.6537H16.6087H16.6096ZM21.6149 10.1681L21.2824 9.91622L20.9506 10.1681C20.5914 10.4425 20.0966 10.4538 19.7261 10.1947C19.3548 9.9364 19.1926 9.46819 19.3241 9.03632L19.4783 8.53986L19.0909 8.24279C18.7381 7.97156 18.596 7.50578 18.7381 7.0844C18.881 6.66301 19.2765 6.37967 19.7213 6.38048H20.145L20.2871 5.92196C20.4211 5.48686 20.8231 5.18979 21.2783 5.18979C21.7344 5.18979 22.1372 5.48686 22.2712 5.92196L22.4052 6.38048H22.8289C23.2745 6.37886 23.6708 6.66301 23.8129 7.0844C23.955 7.50578 23.8129 7.97156 23.4602 8.24279L23.0727 8.53986L23.2269 9.03632C23.3585 9.46819 23.1962 9.93721 22.8249 10.1947C22.6505 10.3158 22.4431 10.3812 22.2308 10.3812C22.0072 10.3788 21.7917 10.3037 21.6141 10.1681H21.6157H21.6149ZM6.0362 10.1681L5.70363 9.91622L5.37107 10.1681C5.01187 10.4425 4.51707 10.4538 4.14657 10.1947C3.77526 9.9364 3.61302 9.46819 3.74459 9.03632L3.89876 8.53986L3.51131 8.24279C3.15615 7.97317 3.01408 7.50578 3.15857 7.0844C3.30144 6.66301 3.69696 6.37967 4.14173 6.38048H4.5655L4.70756 5.92196C4.84156 5.48686 5.24354 5.1906 5.69879 5.18979C6.15404 5.18979 6.55522 5.48686 6.69002 5.92196L6.83208 6.38048H7.25586C7.70062 6.38048 8.09614 6.66301 8.23982 7.0844C8.38188 7.50659 8.23982 7.97237 7.88546 8.24279L7.49882 8.53986L7.65299 9.03632C7.78456 9.46819 7.62232 9.93721 7.25101 10.1947C7.07666 10.3158 6.86921 10.3812 6.65692 10.3812C6.43253 10.3796 6.21458 10.3045 6.03539 10.1681H6.037H6.0362ZM15.4835 9.16871L13.4922 7.83756L11.5033 9.16871C11.1304 9.41653 10.6412 9.39877 10.2885 9.12431C9.93572 8.84984 9.79769 8.38003 9.94622 7.95864L10.6582 5.94699L8.76288 4.67961C8.38188 4.42613 8.21237 3.95228 8.34556 3.51394C8.47955 3.07642 8.88234 2.77774 9.34002 2.77774H11.7793L12.5155 0.693425C12.6608 0.2785 13.0531 0 13.493 0C13.9329 0 14.3252 0.2785 14.4721 0.693425L15.2083 2.77774H17.646C18.1029 2.77774 18.5056 3.07722 18.6388 3.51394C18.7736 3.95147 18.6049 4.42613 18.2231 4.67961L16.3254 5.94699L17.0374 7.95864C17.1883 8.38003 17.0495 8.85065 16.6951 9.12431C16.5127 9.26638 16.2883 9.34307 16.0582 9.34307C15.8532 9.34307 15.653 9.28253 15.4819 9.16871H15.4835Z" fill="white"/>
</svg>
