<svg width="9" height="9" viewBox="0 0 9 9" fill="none" xmlns="http://www.w3.org/2000/svg">
<path d="M7.21967 0.21967C7.51256 -0.0732232 7.98732 -0.0732232 8.28022 0.21967C8.57311 0.512563 8.57311 0.987324 8.28022 1.28022L5.31049 4.24994L8.28022 7.21967C8.57311 7.51256 8.57311 7.98732 8.28022 8.28022C7.98732 8.57311 7.51256 8.57311 7.21967 8.28022L4.24994 5.31049L1.28022 8.28022C0.987324 8.57311 0.512563 8.57311 0.21967 8.28022C-0.0732232 7.98732 -0.0732232 7.51256 0.21967 7.21967L3.1894 4.24994L0.21967 1.28022C-0.0732233 0.987324 -0.0732233 0.512563 0.21967 0.21967C0.512563 -0.0732233 0.987324 -0.0732233 1.28022 0.21967L4.24994 3.1894L7.21967 0.21967Z" fill="white"/>
</svg>
