<svg width="243" height="259" viewBox="0 0 243 259" fill="none" xmlns="http://www.w3.org/2000/svg">
<path d="M169.763 143.63C169.763 143.63 170.499 129.323 166.706 124.723C162.913 120.123 163.695 117.981 165.682 116.6C167.669 115.219 171.977 114.751 173.757 119.487C175.539 124.223 176.018 133.984 176.018 133.984L169.761 143.628L169.763 143.63Z" fill="#FDF8F2"/>
<path d="M169.763 144.594C169.664 144.594 169.565 144.578 169.467 144.547C169.052 144.414 168.778 144.017 168.8 143.581C168.8 143.547 168.979 139.998 168.693 135.95C168.326 130.731 167.381 127.06 165.96 125.337C163.791 122.706 162.854 120.572 163.097 118.813C163.261 117.63 163.926 116.648 165.131 115.812C166.3 115 168.431 114.29 170.593 114.962C171.88 115.363 173.63 116.414 174.66 119.151C176.474 123.972 176.961 133.535 176.981 133.94C176.991 134.142 176.937 134.341 176.827 134.511L170.57 144.154C170.39 144.434 170.082 144.594 169.761 144.594H169.763ZM168.804 116.62C167.805 116.62 166.856 116.958 166.232 117.392C165.483 117.91 165.096 118.444 165.009 119.074C164.847 120.255 165.666 121.949 167.448 124.11C170.274 127.535 170.755 135.638 170.785 140.277L175.037 133.723C174.937 132.043 174.386 123.903 172.853 119.825C172.247 118.214 171.292 117.193 170.019 116.798C169.617 116.673 169.206 116.618 168.804 116.618V116.62Z" fill="#45382D"/>
<path d="M116.001 170.166H92.1943V178.69H116.001H139.807V170.166H116.001Z" fill="#E7DFCF"/>
<path d="M139.807 179.628H92.1946C91.6755 179.628 91.2559 179.208 91.2559 178.69V170.166C91.2559 169.648 91.6755 169.229 92.1946 169.229H139.807C140.326 169.229 140.746 169.648 140.746 170.166V178.69C140.746 179.208 140.326 179.628 139.807 179.628ZM93.1333 177.753H138.868V171.103H93.1333V177.753Z" fill="#45382D"/>
<path d="M73.2686 148.585C73.2686 148.585 67.022 150.112 59.119 161.442C51.216 172.77 55.6298 178.729 58.0992 180.155C60.0111 181.258 65.8745 183.465 69.3171 176.464C72.7597 169.462 72.7597 167.425 78.1122 164.242C83.4646 161.059 80.535 150.622 80.535 150.622L73.2686 148.585Z" fill="#FDF8F2"/>
<path d="M62.5111 182.339C60.1856 182.339 58.2676 181.363 57.6188 180.988C56.2462 180.197 54.5533 178.34 53.9208 175.509C52.7611 170.312 55.6786 164.691 58.3284 160.891C66.347 149.394 72.77 147.714 73.0396 147.649C73.2018 147.609 73.3701 147.613 73.5302 147.657L80.7966 149.694C81.121 149.785 81.3745 150.038 81.4657 150.362C81.5934 150.818 84.5292 161.551 78.609 165.072C74.5521 167.483 73.8222 169.071 71.8738 173.311C71.3974 174.347 70.8581 175.522 70.185 176.89C68.8509 179.603 67.0282 181.327 64.7656 182.015C63.9931 182.25 63.2328 182.343 62.5111 182.343V182.339ZM73.2849 149.589C72.1394 149.994 66.641 152.344 59.9119 161.99C55.5103 168.301 55.2487 172.596 55.8043 175.088C56.299 177.309 57.5641 178.729 58.5839 179.318C59.0685 179.597 61.6149 180.952 64.204 180.166C65.9354 179.64 67.3648 178.251 68.4535 176.038C69.1145 174.691 69.6497 173.529 70.1201 172.505C72.1293 168.129 73.0477 166.133 77.6216 163.414C79.9796 162.013 80.4175 158.769 80.3688 156.295C80.3283 154.203 79.9431 152.286 79.7363 151.399L73.287 149.591L73.2849 149.589Z" fill="#45382D"/>
<path d="M155.668 160.423C155.668 160.423 161.833 162.247 174.377 156.438C186.921 150.63 185.611 142.899 184.701 140.789C183.886 138.9 179.655 134.017 173.149 138.333C166.643 142.648 165.615 144.407 159.386 144.462C153.158 144.517 150.421 155.009 150.421 155.009L155.668 160.425V160.423Z" fill="#FDF8F2"/>
<path d="M158.435 161.658C156.505 161.658 155.496 161.377 155.394 161.347C155.234 161.3 155.09 161.213 154.975 161.093L149.727 155.677C149.494 155.436 149.403 155.09 149.486 154.764C149.606 154.307 152.487 143.557 159.376 143.497C164.098 143.456 165.527 142.452 169.349 139.771C170.284 139.115 171.342 138.372 172.613 137.53C175.298 135.748 177.915 135.217 180.391 135.952C183.361 136.833 185.088 139.251 185.585 140.407C186.264 141.982 186.595 144.691 185.484 147.572C183.993 151.438 180.393 154.714 174.783 157.311C166.955 160.938 161.521 161.658 158.435 161.658ZM156.163 159.547C157.357 159.773 163.291 160.51 173.972 155.564C187.199 149.439 183.959 141.504 183.815 141.17C183.395 140.198 181.948 138.425 179.843 137.801C177.944 137.236 175.869 137.686 173.684 139.135C172.433 139.965 171.385 140.7 170.46 141.348C166.517 144.116 164.716 145.377 159.394 145.424C156.651 145.448 154.636 148.03 153.428 150.19C152.408 152.017 151.773 153.869 151.504 154.738L156.163 159.545V159.547Z" fill="#45382D"/>
<path d="M159.433 131.844C154.462 116.822 142.798 111.35 138.273 110.141C133.747 108.932 133.62 105.877 134.83 99.766C135.968 94.0299 139.664 89.7598 141.79 84.4772C144.898 76.7529 142.516 67.4492 136.643 61.7152C132.669 57.8358 127.349 55.6308 121.923 54.7177C119.987 54.3917 117.968 54.1629 115.999 54.2581C107.076 54.6893 98.111 57.0988 92.6977 64.8495C88.5961 70.7232 87.6818 78.563 90.5364 85.1636C92.6956 90.1566 96.0835 94.2992 97.1662 99.766C98.3766 105.877 98.2488 108.932 93.7236 110.141C89.1983 111.35 77.5344 116.824 72.5631 131.844C72.5631 131.844 67.9101 147.756 74.9859 160.103C82.0596 172.45 93.979 173.023 93.979 173.023H138.015C138.015 173.023 149.933 172.45 157.008 160.103C164.082 147.756 159.431 131.844 159.431 131.844H159.433Z" fill="#FDF8F2"/>
<path d="M138.019 173.989H93.9833C93.967 173.989 93.9528 173.989 93.9366 173.989C93.8069 173.983 90.7332 173.817 86.7534 172.079C83.0938 170.482 77.938 167.192 74.1528 160.585C70.3817 154.005 69.9012 146.465 70.1627 141.297C70.4446 135.727 71.5941 131.743 71.6428 131.577C71.6468 131.567 71.6489 131.554 71.6529 131.544C77.4758 113.951 91.8585 109.645 93.4784 109.211C96.9737 108.278 97.513 106.46 96.2236 99.9544C95.5586 96.5953 93.9893 93.7688 92.3289 90.7742C91.4043 89.1059 90.4454 87.3788 89.6526 85.5464C86.6844 78.6825 87.5481 70.5411 91.9071 64.2988C96.6919 57.4471 104.556 53.8471 115.953 53.2964C117.713 53.2114 119.661 53.3612 122.084 53.7682C128.245 54.8028 133.512 57.3135 137.316 61.0268C143.635 67.1962 145.843 76.9878 142.685 84.8377C141.837 86.9414 140.748 88.8912 139.694 90.7763C138.021 93.7668 136.444 96.5913 135.777 99.9544C134.488 106.46 135.027 108.278 138.522 109.211C140.142 109.645 154.527 113.951 160.348 131.544C160.352 131.554 160.354 131.567 160.358 131.577C160.407 131.743 161.556 135.727 161.838 141.297C162.099 146.465 161.619 154.005 157.848 160.585C154.063 167.192 148.907 170.482 145.247 172.079C141.267 173.817 138.192 173.983 138.064 173.989C138.048 173.989 138.034 173.989 138.017 173.989H138.019ZM94.0116 172.061H137.991C138.242 172.045 141.036 171.828 144.554 170.277C149.452 168.119 153.363 164.535 156.175 159.625C162.866 147.947 158.669 132.686 158.513 132.127C156.412 125.79 152.899 120.55 148.072 116.553C143.441 112.718 139.212 111.386 138.026 111.07C132.381 109.562 132.778 105.166 133.888 99.5778C134.613 95.915 136.343 92.8233 138.013 89.8348C139.037 88.0024 140.098 86.1072 140.898 84.1169C143.773 76.9716 141.748 68.0425 135.972 62.4037C132.452 58.9677 127.54 56.6372 121.767 55.6674C119.485 55.2827 117.668 55.1409 116.05 55.2199C105.292 55.7403 97.9124 59.0689 93.4946 65.3982C89.5148 71.0979 88.722 78.5246 91.4287 84.781C92.1849 86.5284 93.1175 88.2109 94.0218 89.8408C95.6802 92.8334 97.3954 95.9252 98.1213 99.5798C99.2283 105.168 99.6277 109.564 93.9833 111.072C92.7972 111.39 88.5679 112.72 83.9372 116.555C79.1099 120.552 75.5963 125.792 73.4959 132.129C73.3418 132.674 69.1389 147.943 75.8335 159.627C78.6476 164.537 82.5565 168.121 87.4549 170.279C90.9684 171.828 93.7602 172.045 94.0177 172.063L94.0116 172.061Z" fill="#45382D"/>
<path d="M102.204 140.819C104.738 140.819 106.792 138.255 106.792 135.091C106.792 131.928 104.738 129.363 102.204 129.363C99.6704 129.363 97.6162 131.928 97.6162 135.091C97.6162 138.255 99.6704 140.819 102.204 140.819Z" fill="#45382D"/>
<path d="M129.802 140.819C132.336 140.819 134.39 138.255 134.39 135.091C134.39 131.928 132.336 129.363 129.802 129.363C127.268 129.363 125.214 131.928 125.214 135.091C125.214 138.255 127.268 140.819 129.802 140.819Z" fill="#45382D"/>
<path d="M92.0587 150.366C96.2823 150.366 99.7062 148.457 99.7062 146.102C99.7062 143.747 96.2823 141.838 92.0587 141.838C87.8351 141.838 84.4111 143.747 84.4111 146.102C84.4111 148.457 87.8351 150.366 92.0587 150.366Z" fill="#F09A9A"/>
<path d="M139.947 150.366C144.171 150.366 147.595 148.457 147.595 146.102C147.595 143.747 144.171 141.838 139.947 141.838C135.724 141.838 132.3 143.747 132.3 146.102C132.3 148.457 135.724 150.366 139.947 150.366Z" fill="#F09A9A"/>
<path d="M116.004 151.457C108.968 151.457 107.649 145.857 107.636 145.8C107.521 145.28 107.849 144.765 108.37 144.652C108.891 144.537 109.406 144.865 109.52 145.385C109.558 145.549 110.556 149.53 116.002 149.53C121.447 149.53 122.447 145.547 122.485 145.379C122.607 144.863 123.122 144.539 123.639 144.656C124.156 144.773 124.482 145.284 124.367 145.8C124.355 145.857 123.035 151.457 116 151.457H116.004Z" fill="#45382D"/>
<path d="M87.8541 147.584C87.7466 147.584 87.6412 147.546 87.556 147.469C87.3776 147.305 87.3675 147.027 87.5317 146.849L89.4618 144.762C89.626 144.584 89.9038 144.571 90.0822 144.737C90.2606 144.901 90.2708 145.179 90.1066 145.357L88.1764 147.444C88.0892 147.538 87.9716 147.586 87.8541 147.586V147.584Z" fill="#BA3932"/>
<path d="M91.0943 147.584C90.9868 147.584 90.8814 147.546 90.7963 147.469C90.6178 147.305 90.6077 147.027 90.7719 146.849L92.7021 144.762C92.8663 144.584 93.144 144.571 93.3225 144.737C93.5009 144.901 93.511 145.179 93.3468 145.357L91.4167 147.444C91.3295 147.538 91.2119 147.586 91.0943 147.586V147.584Z" fill="#BA3932"/>
<path d="M94.3335 147.584C94.2261 147.584 94.1207 147.546 94.0355 147.469C93.8571 147.305 93.847 147.027 94.0112 146.849L95.9413 144.762C96.1055 144.584 96.3833 144.571 96.5617 144.737C96.7401 144.901 96.7503 145.179 96.586 145.357L94.6559 147.444C94.5687 147.538 94.4511 147.586 94.3335 147.586V147.584Z" fill="#BA3932"/>
<path d="M135.743 147.584C135.635 147.584 135.53 147.546 135.445 147.469C135.266 147.305 135.256 147.027 135.42 146.849L137.35 144.762C137.515 144.584 137.792 144.571 137.971 144.737C138.149 144.901 138.159 145.179 137.995 145.357L136.065 147.444C135.978 147.538 135.86 147.586 135.743 147.586V147.584Z" fill="#BA3932"/>
<path d="M138.983 147.584C138.876 147.584 138.77 147.546 138.685 147.469C138.507 147.305 138.496 147.027 138.661 146.849L140.591 144.762C140.755 144.584 141.033 144.571 141.211 144.737C141.39 144.901 141.4 145.179 141.235 145.357L139.305 147.444C139.218 147.538 139.101 147.586 138.983 147.586V147.584Z" fill="#BA3932"/>
<path d="M142.222 147.584C142.115 147.584 142.009 147.546 141.924 147.469C141.746 147.305 141.736 147.027 141.9 146.849L143.83 144.762C143.994 144.584 144.272 144.571 144.45 144.737C144.629 144.901 144.639 145.179 144.475 145.357L142.545 147.444C142.457 147.538 142.34 147.586 142.222 147.586V147.584Z" fill="#BA3932"/>
<path d="M179.024 151.974C184.187 151.974 188.373 146.317 188.373 139.339C188.373 132.362 184.187 126.705 179.024 126.705C173.861 126.705 169.676 132.362 169.676 139.339C169.676 146.317 173.861 151.974 179.024 151.974Z" fill="#FDF8F2"/>
<path d="M179.025 152.937C173.338 152.937 168.711 146.837 168.711 139.339C168.711 131.842 173.338 125.741 179.025 125.741C184.712 125.741 189.338 131.842 189.338 139.339C189.338 146.837 184.712 152.937 179.025 152.937ZM179.025 127.669C174.402 127.669 170.641 132.905 170.641 139.339C170.641 145.774 174.402 151.01 179.025 151.01C183.647 151.01 187.408 145.774 187.408 139.339C187.408 132.905 183.647 127.669 179.025 127.669Z" fill="#45382D"/>
<path d="M116.001 194.479H75.8818V198.646C75.8818 202.02 78.6189 204.753 81.9966 204.753H150.005C153.383 204.753 156.12 202.02 156.12 198.646V194.479H116.001Z" fill="#44372C"/>
<path d="M150.006 205.719H81.9968C78.092 205.719 74.917 202.546 74.917 198.648V194.481C74.917 193.949 75.3488 193.518 75.8821 193.518H156.12C156.654 193.518 157.085 193.949 157.085 194.481V198.648C157.085 202.548 153.908 205.719 150.006 205.719ZM76.8471 195.443V198.648C76.8471 201.485 79.1584 203.791 81.9968 203.791H150.006C152.846 203.791 155.155 201.483 155.155 198.648V195.443H76.8471Z" fill="#45382D"/>
<path d="M83.5033 178.498H148.499C154.517 178.498 159.403 183.378 159.403 189.387V195.844C159.403 197.757 157.848 199.31 155.932 199.31H76.0687C74.1527 199.31 72.5977 197.757 72.5977 195.844V189.387C72.5977 183.378 77.4838 178.498 83.5013 178.498H83.5033Z" fill="#C7BEAF"/>
<path d="M155.932 200.276H76.0689C73.6238 200.276 71.6328 198.288 71.6328 195.846V189.389C71.6328 182.853 76.9569 177.536 83.5015 177.536H148.497C155.042 177.536 160.366 182.853 160.366 189.389V195.846C160.366 198.288 158.375 200.276 155.93 200.276H155.932ZM83.5035 179.462C78.0233 179.462 73.565 183.914 73.565 189.387V195.844C73.565 197.225 74.6902 198.346 76.0709 198.346H155.934C157.317 198.346 158.44 197.223 158.44 195.844V189.387C158.44 183.914 153.982 179.462 148.502 179.462H83.5056H83.5035Z" fill="#45382D"/>
<path d="M107.34 55.8798C106.05 56.1633 108.714 58.103 108.134 59.2874C107.554 60.4719 106.52 61.4154 106.083 62.6606C105.353 64.74 106.79 67.2973 108.949 67.7549C111.107 68.2125 113.464 66.4631 113.645 64.2662C113.714 63.4341 113.513 62.5837 113.694 61.7697C114.178 59.5587 117.367 58.8724 119.218 60.1803C121.069 61.4883 121.706 63.9646 121.666 66.2302C121.627 68.423 121.076 70.6077 120.068 72.5575C119.121 74.3899 117.726 76.2992 118.221 78.3017C118.639 79.9903 120.311 81.0837 121.982 81.5757C123.725 82.088 125.672 82.1143 127.308 81.3206C128.944 80.5269 130.183 78.816 130.114 77.0018C130.021 74.5519 127.764 72.6831 127.302 70.2736C126.86 67.9715 128.389 65.4629 130.637 64.7947C132.885 64.1265 135.539 65.394 136.429 67.5625C136.588 67.9472 137.273 68.8928 137.597 69.154C138.238 69.6703 138.964 69.4637 139.467 68.8138C139.971 68.1639 140.02 67.2993 140.657 66.7769C140.657 66.7769 132.147 50.4171 107.34 55.8818V55.8798Z" fill="#45382D"/>
<path d="M138.019 173.989H93.9833C93.967 173.989 93.9528 173.989 93.9366 173.989C93.8069 173.983 90.7333 173.817 86.7534 172.079C83.0938 170.482 77.938 167.192 74.1528 160.585C70.3817 154.005 69.9012 146.465 70.1627 141.297C70.4446 135.727 71.5941 131.743 71.6428 131.577C71.6468 131.567 71.6489 131.554 71.6529 131.544C77.4758 113.951 91.8585 109.645 93.4784 109.211C96.9737 108.278 97.513 106.46 96.2236 99.9544C95.5586 96.5953 93.9893 93.7688 92.3309 90.7742C91.4043 89.1059 90.4474 87.3788 89.6546 85.5464C86.6865 78.6825 87.5502 70.5411 91.9092 64.2988C96.694 57.4471 104.558 53.8471 115.955 53.2964C117.715 53.2114 119.663 53.3612 122.086 53.7682C128.247 54.8028 133.514 57.3135 137.318 61.0268C143.638 67.1962 145.845 76.9878 142.687 84.8377C141.839 86.9414 140.75 88.8912 139.696 90.7763C138.024 93.7668 136.446 96.5913 135.779 99.9544C134.49 106.46 135.029 108.278 138.524 109.211C140.144 109.645 154.529 113.951 160.35 131.544C160.354 131.554 160.356 131.567 160.36 131.577C160.409 131.743 161.558 135.727 161.84 141.297C162.102 146.465 161.621 154.005 157.85 160.585C154.065 167.192 148.909 170.482 145.249 172.079C141.269 173.817 138.194 173.983 138.066 173.989C138.05 173.989 138.036 173.989 138.019 173.989ZM94.0116 172.061H137.991C138.242 172.045 141.036 171.828 144.554 170.277C149.452 168.119 153.363 164.535 156.175 159.625C162.866 147.947 158.669 132.684 158.513 132.127C156.412 125.79 152.899 120.55 148.072 116.553C143.441 112.718 139.212 111.386 138.026 111.07C132.381 109.562 132.779 105.166 133.888 99.5778C134.613 95.915 136.343 92.8233 138.013 89.8348C139.037 88.0024 140.098 86.1072 140.898 84.1169C143.773 76.9716 141.748 68.0425 135.972 62.4037C132.452 58.9677 127.54 56.6372 121.767 55.6674C119.485 55.2827 117.668 55.1409 116.05 55.2199C105.292 55.7403 97.9145 59.0689 93.4946 65.3982C89.5148 71.0979 88.722 78.5246 91.4287 84.781C92.1849 86.5284 93.1175 88.2109 94.0218 89.8408C95.6802 92.8314 97.3954 95.9252 98.1192 99.5798C99.2262 105.168 99.6256 109.564 93.9812 111.072C92.7952 111.39 88.5659 112.72 83.9352 116.555C79.1079 120.552 75.5943 125.792 73.4938 132.129C73.3398 132.676 69.1389 147.945 75.8315 159.627C78.6456 164.537 82.5545 168.121 87.4528 170.279C90.9644 171.828 93.7562 172.045 94.0157 172.063L94.0116 172.061Z" fill="#45382D"/>
<path d="M64.7998 229.106C65.1567 229.042 65.4811 229.009 65.773 229.009C68.1431 228.88 70.4787 228.847 72.8488 228.718C75.2838 228.62 77.7492 228.426 80.249 228.199C80.5734 228.199 80.9302 228.07 81.2871 227.94C81.7412 227.713 82.0007 227.26 81.9359 226.741C81.9683 226.223 81.6115 225.867 81.0924 225.802C80.7032 225.77 80.2815 225.802 79.8597 225.802C78.7568 225.834 77.6539 225.931 76.5489 225.899C73.6922 225.867 70.87 225.834 68.0134 225.77C67.689 225.77 67.3646 225.737 66.9429 225.705C67.3646 224.279 69.2136 221.264 67.3321 219.936C66.5536 219.386 65.6777 219.418 64.7998 219.969C64.3457 220.293 63.8916 220.714 63.5023 221.167C61.6532 223.111 61.6857 223.208 60.2563 225.51C57.4544 225.45 54.7984 225.358 52.1506 225.322C52.7244 223.836 52.3919 222.232 51.1713 221.07C50.1982 220.163 49.0628 219.742 47.7956 219.612C44.2253 219.418 41.176 220.714 38.3842 222.854C36.9569 223.891 35.6897 225.154 34.8463 226.808C33.1595 230.147 34.3922 233.225 37.9301 234.296C39.2276 234.684 40.6245 234.814 41.987 235.073C43.2846 235.332 44.6815 235.624 46.0115 235.883C47.5361 236.304 47.7632 236.758 46.4332 237.956C43.7063 240.55 40.4948 242.202 36.9244 243.045C35.6593 243.336 34.4915 243.077 33.3865 242.461C32.7378 242.105 32.6404 241.878 32.7378 241.166C32.7702 240.971 32.8026 240.809 32.8675 240.647C33.0622 239.74 32.608 238.963 31.797 238.669C31.0509 238.345 30.2075 238.572 29.7534 239.414C29.429 240.062 29.137 240.742 28.9424 241.423C28.5855 243.628 29.5263 245.312 31.1807 246.511C33.8427 248.519 36.7947 249.299 40.0406 248.357C44.2273 247.224 47.7003 244.824 50.5226 241.455C51.1389 240.645 51.6579 239.641 52.0472 238.699C52.9231 236.203 52.0796 233.903 49.8413 232.607C48.8682 232.056 47.7652 231.603 46.6603 231.311C44.9085 230.89 43.1224 230.599 41.3382 230.275C40.657 230.145 39.9758 230.113 39.2297 229.627C41.3382 227.098 43.8705 225.446 47.3111 225.122C46.9542 225.77 46.6947 226.158 46.4352 226.612C46.0784 227.195 45.8837 227.81 46.3379 228.458C46.7596 229.009 47.4084 229.203 48.1869 228.944C48.6532 228.788 49.0871 228.588 49.4906 228.351C49.5311 228.387 49.5697 228.424 49.6143 228.456C49.9062 228.651 50.263 228.813 50.5874 228.845C52.1445 228.975 53.7036 229.104 55.1958 229.201C56.1366 229.266 57.0773 229.299 58.0849 229.363C55.8466 234.16 52.4385 241.907 55.4229 247.157C56.4285 248.874 59.0257 249.36 60.4206 247.481C61.1018 246.541 61.1018 245.634 60.4206 244.596C59.123 240.188 62.2047 234.128 64.8019 229.104L64.7998 229.106Z" fill="#412F75"/>
<path d="M79.337 238.505C79.7262 237.307 80.2128 236.205 80.6345 235.037C80.9265 234.162 80.7319 233.352 79.9858 232.735C79.2721 232.152 78.3962 232.119 77.4859 232.702C77.0642 232.929 76.7074 233.253 76.3181 233.512C75.6693 233.091 75.0854 232.573 74.4042 232.281C72.1659 231.244 69.8931 231.633 67.9792 233.091C64.5386 235.652 62.8842 239.119 63.0789 243.429C63.1762 244.531 63.533 245.535 64.2791 246.379C65.2523 247.546 66.5174 248.032 68.0765 247.708C69.6985 247.351 70.8359 246.315 71.9064 245.211C72.2308 244.887 72.5227 244.563 72.8471 244.207C73.0093 244.693 73.1066 245.049 73.2039 245.373C73.4959 246.215 73.95 246.928 74.6961 247.414C75.4747 247.932 76.3181 247.868 76.9993 247.349C77.6481 246.863 77.8427 246.086 77.5183 245.211C77.3237 244.693 77.3237 244.207 77.4859 243.656C78.1023 241.939 78.7186 240.22 79.3349 238.503L79.337 238.505ZM70.7365 242.069C67.4581 245.31 67.004 243.203 68.4333 239.833C68.8551 238.894 69.439 238.052 70.2499 237.305C71.0934 236.592 72.0341 236.203 73.1391 236.43C75.0205 236.819 72.6525 240.319 70.7365 242.069Z" fill="#412F75"/>
<path d="M103.254 246.25C103.449 245.861 103.611 245.44 103.676 244.986C103.968 242.231 105.168 239.38 105.85 236.689C106.498 234.16 106.271 231.471 102.993 230.856C99.4225 230.143 96.503 233.676 94.3924 236.073C94.36 233.642 92.3812 232.702 88.8433 234.097C89.2974 233.417 89.5569 232.769 89.6218 232.218C89.8813 230.016 86.7003 229.528 85.3702 230.923C82.6433 234.067 80.7619 239.058 79.594 243.304C79.4643 243.79 79.3994 244.373 79.3994 244.891C79.4643 246.155 80.3077 247.096 81.508 247.485C82.7082 247.809 84.0402 247.388 84.689 246.319C84.981 245.865 85.1432 245.347 85.3378 244.861C86.8625 241.133 92.1521 231.184 90.595 240.259C90.4977 240.809 90.4652 241.425 90.595 241.943C90.8869 243.369 92.2494 243.919 93.4192 243.012C93.8734 242.656 94.1978 242.105 94.587 241.652C101.663 232.642 101.012 233.354 98.0601 242.591C97.4113 244.632 96.9571 247.776 100.233 247.971C101.401 248.23 102.668 247.517 103.252 246.254L103.254 246.25Z" fill="#412F75"/>
<path d="M120 231.989C117.923 232.475 116.397 233.933 114.742 235.328C114.807 234.939 114.84 234.647 114.807 234.388C114.71 233.676 114.71 232.898 114.483 232.218C113.769 230.436 111.594 230.177 110.458 231.732C110.166 232.153 109.972 232.542 109.745 232.995C107.377 240.904 104.715 248.227 102.247 254.16C101.469 256.006 101.469 258.082 103.739 258.892C106.14 259.475 107.407 257.531 108.023 255.553C109.029 252.408 110.035 249.298 111.075 246.024C111.432 246.284 111.626 246.348 111.788 246.478C113.086 247.256 114.418 247.579 115.91 247.385C117.24 247.223 118.442 246.672 119.545 245.895C122.986 243.4 124.835 240.094 124.608 235.783C124.381 233.514 122.629 231.538 120 231.991V231.989ZM113.347 241.906C114.969 239.833 117.599 236.85 120.129 235.49C122.662 236.721 118.41 242.36 113.347 241.906Z" fill="#412F75"/>
<path d="M149.758 229.106C150.115 229.042 150.439 229.009 150.731 229.009C153.099 228.88 155.437 228.847 157.807 228.718C160.24 228.62 162.707 228.426 165.207 228.199C165.532 228.199 165.888 228.07 166.245 227.94C166.699 227.713 166.959 227.26 166.894 226.741C166.926 226.223 166.57 225.867 166.051 225.802C165.661 225.77 165.24 225.802 164.818 225.802C163.715 225.834 162.61 225.931 161.507 225.899C158.65 225.867 155.828 225.834 152.972 225.77C152.647 225.77 152.323 225.737 151.901 225.705C152.323 224.279 154.172 221.264 152.29 219.936C151.512 219.386 150.636 219.418 149.758 219.969C149.304 220.293 148.85 220.714 148.46 221.167C146.611 223.111 146.644 223.208 145.215 225.51C142.261 225.446 139.471 225.348 136.679 225.316C136.127 225.284 135.576 225.381 135.057 225.608C133.824 226.158 133.565 227.715 134.57 228.46C134.862 228.655 135.219 228.817 135.544 228.849C137.101 228.979 138.66 229.108 140.152 229.206C141.093 229.27 142.033 229.303 143.041 229.367C140.803 234.164 137.395 241.911 140.379 247.161C141.385 248.878 143.982 249.364 145.377 247.485C146.058 246.545 146.058 245.638 145.377 244.6C144.079 240.192 147.161 234.132 149.758 229.108V229.106Z" fill="#412F75"/>
<path d="M153.392 232.086C150.795 233.641 149.302 235.425 148.816 238.049C148.621 239.021 148.362 240.058 148.199 241.096C147.097 248.163 154.203 250.43 159.168 245.601C162.284 242.684 165.074 236.008 161.992 232.54C160.143 230.499 156.638 230.11 153.392 232.086ZM157.643 241.679C155.371 244.759 152.419 245.212 153.846 241.193C154.17 240.157 154.657 239.185 155.598 238.276C156.084 237.757 156.376 237.239 156.182 236.624C156.149 236.462 156.311 236.17 156.538 236.04C157.447 234.939 159.395 235.101 159.395 236.364C159.557 238.081 158.681 240.027 157.643 241.679Z" fill="#412F75"/>
<path d="M182.015 234.842C182.21 233.19 180.88 231.827 179.353 232.119C178.542 232.281 177.958 232.799 177.569 233.544C176.661 235.197 175.46 237.207 174.29 238.827C171.628 242.49 167.444 246.476 170.428 237.304C170.558 236.883 170.688 236.462 170.85 235.976C171.045 235.425 171.207 234.875 171.337 234.356C171.564 232.963 170.558 231.797 169.131 231.892C165.852 232.054 164.295 238.438 164.101 241.226C163.971 242.846 164.165 244.435 164.944 245.893C165.982 248.064 168.222 248.746 170.266 247.513C170.85 247.157 171.401 246.703 171.953 246.185C173.023 245.213 174.061 244.079 175.231 243.04C175.393 243.688 175.556 244.433 175.848 245.114C176.367 246.312 177.242 247.025 178.542 247.122C179.807 247.155 180.683 245.988 180.229 244.757C179.126 241.84 181.754 237.885 182.013 234.84L182.015 234.842Z" fill="#412F75"/>
<path d="M197.462 236.657C196.619 236.268 196.132 235.685 195.646 235.005C194.673 233.774 193.373 233.417 191.913 233.838C191.621 233.968 191.329 234.065 190.875 234.195C190.843 233.871 190.81 233.676 190.778 233.45C190.194 231.506 187.694 230.662 186.169 231.992C185.78 232.316 185.456 232.802 185.229 233.255C183.672 236.788 182.275 240.417 181.172 244.08C181.074 244.468 181.01 244.792 180.977 245.181C180.912 247.06 182.859 248.552 184.742 248.066C185.813 247.775 186.364 247.062 186.688 246.155C187.208 244.632 187.402 242.557 187.824 241.002C188.375 239.415 190.713 236.27 192.4 237.469C194.152 238.505 194.9 239.607 197.073 239.186C197.754 239.089 198.176 238.7 198.273 238.084C198.306 237.469 198.014 236.886 197.462 236.659V236.657Z" fill="#412F75"/>
<path d="M20.0909 102.843C19.8902 102.43 19.6104 102.068 19.2495 101.76C18.8907 101.452 18.4365 101.242 17.8891 101.13C17.4735 101.045 17.068 101.007 16.6727 101.015C16.2773 101.023 15.9103 101.047 15.5677 101.086C15.2251 101.124 14.9189 101.161 14.6472 101.193C14.3756 101.226 14.1647 101.228 14.0126 101.197C13.6355 101.12 13.4125 100.938 13.3436 100.648C13.2746 100.359 13.2706 100.015 13.3334 99.6159C13.3963 99.217 13.4774 98.7857 13.5808 98.3261C13.6842 97.8665 13.7146 97.4251 13.6741 97.004C13.6315 96.5828 13.4673 96.2062 13.1814 95.8721C12.8955 95.5401 12.4028 95.3012 11.7054 95.1594C10.8944 94.9934 10.2781 95.0946 9.86042 95.4611C9.44277 95.8276 9.12243 96.5484 8.90347 97.6235C8.81831 98.0386 8.7656 98.3747 8.74127 98.6359C8.71694 98.8971 8.68653 99.1218 8.64801 99.3101C8.61354 99.4802 8.5365 99.6159 8.41688 99.7191C8.29726 99.8224 8.16953 99.8953 8.03369 99.9358C7.89785 99.9783 7.75593 99.9965 7.60793 99.9965C7.45992 99.9965 7.3403 99.9864 7.24501 99.9661C7.03821 99.9236 6.84358 99.7657 6.66313 99.4944C6.48269 99.221 6.41781 98.9639 6.46647 98.7189C6.59623 98.0791 6.76653 97.4899 6.97333 96.9513C7.18216 96.4148 7.33422 95.9005 7.43559 95.4105C7.59779 94.6188 7.43559 94.0519 6.95711 93.7077C6.47661 93.3655 5.82985 93.1104 5.01887 92.9444C3.81051 92.6994 2.84342 92.9342 2.11759 93.651C1.39176 94.3677 0.844353 95.6312 0.475357 97.4413L0.221926 98.6865C0.0414828 99.5733 -0.029478 100.472 0.011071 101.383C0.05162 102.295 0.223953 103.135 0.530098 103.904C0.836243 104.674 1.28025 105.338 1.86416 105.899C2.44807 106.459 3.20228 106.834 4.12679 107.022C4.82626 107.164 5.48316 107.166 6.10153 107.026C6.7199 106.887 7.26326 106.709 7.72957 106.488C8.19791 106.269 8.59327 106.059 8.91969 105.86C9.2461 105.662 9.48332 105.577 9.63537 105.609C9.71039 105.625 9.79352 105.7 9.88475 105.836C9.97599 105.972 10.0875 106.142 10.2233 106.346C10.3592 106.551 10.5153 106.769 10.6937 107.002C10.8721 107.235 11.0769 107.464 11.306 107.686C11.604 107.964 12.0643 108.264 12.6867 108.585C13.3091 108.909 14.0633 109.16 14.9513 109.341C16.4233 109.64 17.6174 109.48 18.5298 108.861C19.4421 108.241 20.0544 107.168 20.3667 105.641C20.462 105.17 20.4924 104.69 20.4538 104.202C20.4153 103.714 20.2957 103.262 20.095 102.847L20.0909 102.843Z" fill="#412F75"/>
<path d="M24.0197 80.7374C23.1682 80.4337 22.3714 80.4964 21.6334 80.9277C20.8954 81.359 20.348 82.0737 19.9912 83.0699C19.8614 83.4323 19.7742 83.7644 19.7276 84.064C19.681 84.3637 19.6222 84.6148 19.5512 84.8132C19.4417 85.1209 19.2694 85.3416 19.0383 85.4732C18.8071 85.6049 18.5638 85.6251 18.3104 85.536C18.1117 85.4651 17.986 85.3437 17.9353 85.1716C17.8846 84.9995 17.8846 84.801 17.9353 84.5743C17.986 84.3475 18.0651 84.0984 18.1705 83.8312C18.278 83.5619 18.3753 83.3027 18.4665 83.0476C18.649 82.5394 18.7301 82.1 18.7098 81.7255C18.6916 81.3509 18.6044 81.033 18.4523 80.7759C18.3003 80.5167 18.1036 80.3081 17.8623 80.1522C17.6231 79.9943 17.3656 79.8668 17.0939 79.7696C16.8223 79.6724 16.5486 79.6056 16.2749 79.5691C16.0011 79.5327 15.7396 79.5509 15.4882 79.6258C15.2368 79.6987 15.0016 79.8404 14.7847 80.049C14.5677 80.2575 14.3893 80.5511 14.2535 80.9318C14.1562 81.2031 14.0548 81.5311 13.9494 81.9117C13.8439 82.2924 13.7162 82.6467 13.5702 82.9707C13.4222 83.2967 13.2479 83.5558 13.0451 83.7482C12.8424 83.9425 12.6052 83.9891 12.3335 83.8919C12.0071 83.7745 11.8591 83.5437 11.8915 83.1974C11.9239 82.8512 12.0273 82.4341 12.2017 81.9441C12.3761 81.4541 12.5687 80.9358 12.7755 80.3871C12.9823 79.8384 13.1141 79.2978 13.1729 78.7673C13.2296 78.2368 13.1485 77.7529 12.9255 77.3156C12.7045 76.8782 12.2483 76.5381 11.559 76.2911C10.9244 76.0643 10.2837 76.04 9.63698 76.2182C8.99022 76.3964 8.36982 76.7142 7.77375 77.1779C7.17768 77.6395 6.63636 78.2267 6.14369 78.9415C5.65304 79.6542 5.25566 80.4377 4.94952 81.2881C4.52173 82.4827 4.28451 83.6145 4.23991 84.6816C4.19531 85.7486 4.30884 86.7185 4.57849 87.5911C4.84814 88.4638 5.26174 89.2109 5.81929 89.8284C6.37684 90.446 7.03576 90.8914 7.79606 91.1627C8.25021 91.3247 8.72057 91.4118 9.20716 91.4219C9.69375 91.432 10.1702 91.3774 10.6325 91.2559C11.0947 91.1344 11.5326 90.9583 11.9422 90.7274C12.3517 90.4966 12.7045 90.2293 12.9965 89.9236C13.1465 89.794 13.2681 89.6786 13.3655 89.5814C13.4628 89.4822 13.5479 89.4478 13.6189 89.4721C13.7101 89.5045 13.7628 89.5997 13.777 89.7576C13.7912 89.9155 13.8054 90.12 13.8176 90.3711C13.8764 91.3531 14.1947 92.2743 14.7766 93.1348C15.3584 93.9974 16.1573 94.6088 17.173 94.9713C18.061 95.2892 18.8619 95.3965 19.5755 95.2932C20.2872 95.1899 20.9238 94.9571 21.4834 94.5947C22.0429 94.2322 22.5235 93.7767 22.9249 93.226C23.3263 92.6752 23.675 92.1043 23.967 91.513C24.2589 90.9238 24.5022 90.361 24.6948 89.8264C24.8854 89.2919 25.0436 88.8525 25.1672 88.5083C25.8931 86.4795 26.1607 84.7767 25.9681 83.3999C25.7755 82.0231 25.1267 81.1383 24.0197 80.7414V80.7374Z" fill="#412F75"/>
<path d="M29.4298 77.0974C30.1171 76.3118 30.7476 75.4068 31.3153 74.3802C31.8384 73.4367 32.2439 72.4142 32.5379 71.3107C32.8298 70.2072 32.9494 69.12 32.8947 68.0448C32.8399 66.9697 32.5703 65.9695 32.0837 65.0401C31.5971 64.1108 30.8389 63.3636 29.8109 62.7947C28.9168 62.3006 28.0836 62.0658 27.3111 62.0901C26.5386 62.1144 25.8067 62.3027 25.1133 62.657C24.422 63.0113 23.759 63.4811 23.1264 64.0662C22.4939 64.6514 21.8714 65.2588 21.2592 65.8865C21.1699 65.9695 21.0503 66.0849 20.9023 66.2327C20.7543 66.3825 20.5881 66.5222 20.4056 66.6518C20.2231 66.7814 20.0366 66.8826 19.844 66.9515C19.6514 67.0203 19.4872 67.0183 19.3534 66.9434C19.0492 66.7753 18.885 66.5688 18.8546 66.3218C18.8262 66.0748 18.8728 65.8419 18.9945 65.6232C19.2925 65.0847 19.6108 64.7222 19.9454 64.5319C20.2799 64.3436 20.6165 64.2039 20.953 64.1148C21.2896 64.0257 21.6079 63.9164 21.912 63.7868C22.2141 63.6572 22.4837 63.3819 22.7169 62.9607C22.9136 62.6064 23.0048 62.2338 22.9906 61.841C22.9764 61.4482 22.8892 61.0716 22.727 60.7072C22.5648 60.3427 22.354 60.0188 22.0945 59.7313C21.8349 59.4458 21.5612 59.2231 21.2754 59.0631C20.5678 58.6723 19.8339 58.5245 19.0756 58.6217C18.3173 58.7189 17.5753 58.9862 16.8495 59.4194C16.1236 59.8548 15.4383 60.4257 14.7916 61.1364C14.1448 61.8471 13.5893 62.6206 13.123 63.4628C12.385 64.7931 11.8781 66.0181 11.5984 67.1398C11.3186 68.2615 11.2456 69.2759 11.3794 70.185C11.5132 71.0961 11.8315 71.8918 12.3343 72.5762C12.8351 73.2605 13.5082 73.8356 14.3516 74.3012C15.3978 74.8783 16.3345 75.1233 17.1678 75.0322C17.999 74.9431 18.7613 74.6596 19.4547 74.1858C20.1481 73.7121 20.7949 73.1289 21.397 72.4385C21.9992 71.7501 22.5932 71.0941 23.1812 70.4725C23.2542 70.3814 23.3758 70.2619 23.5461 70.1121C23.7164 69.9643 23.8969 69.8286 24.0874 69.7031C24.278 69.5775 24.4706 69.4804 24.6632 69.4115C24.8558 69.3427 25.0201 69.3447 25.1539 69.4196C25.5411 69.6342 25.7479 69.8853 25.7763 70.1748C25.8027 70.4644 25.7378 70.7519 25.5776 71.0394C25.2613 71.6124 24.9167 72.0052 24.5456 72.2178C24.1746 72.4304 23.7833 72.6207 23.3697 72.7888C22.9582 72.9568 22.5466 73.1816 22.1391 73.461C21.7315 73.7424 21.3301 74.2344 20.9388 74.9411C20.734 75.3116 20.6347 75.6963 20.6448 76.0972C20.655 76.4981 20.7442 76.8828 20.9125 77.2513C21.0828 77.6198 21.3078 77.9599 21.5876 78.2677C21.8674 78.5775 22.1857 78.8286 22.5385 79.025C23.3474 79.4724 24.1544 79.6769 24.9572 79.6364C25.7601 79.598 26.5366 79.3611 27.2827 78.9257C28.0288 78.4924 28.7465 77.883 29.4359 77.0974H29.4298Z" fill="#412F75"/>
<path d="M22.5519 56.0441C22.9919 56.3883 23.4197 56.5907 23.8394 56.6495C24.2591 56.7102 24.6645 56.6677 25.0599 56.5239C25.4552 56.3802 25.8263 56.1574 26.173 55.8558C26.5217 55.5541 26.838 55.22 27.1238 54.8576C27.1948 54.7665 27.3104 54.6126 27.4705 54.3959C27.6287 54.1773 27.6733 54.0052 27.6043 53.8756C27.9977 54.0618 28.3667 54.3392 28.7134 54.7098C29.0601 55.0803 29.4189 55.4954 29.7899 55.957C30.161 56.4186 30.5583 56.8965 30.98 57.3865C31.4018 57.8764 31.8863 58.3361 32.4317 58.7653C33.1596 59.3363 33.8915 59.8364 34.6295 60.2697C35.3675 60.703 36.0852 60.9885 36.7806 61.1322C37.476 61.276 38.1491 61.2395 38.7938 61.0249C39.4406 60.8103 40.0367 60.3547 40.5861 59.6582C41.2045 58.8726 41.5025 58.1194 41.4782 57.4027C41.4539 56.6859 41.2369 56.0036 40.8314 55.3536C40.4239 54.7037 39.8907 54.0902 39.2318 53.5111C38.5728 52.932 37.9241 52.3935 37.2874 51.8954C36.7867 51.5026 36.2575 51.1725 35.6959 50.9033C35.1343 50.634 34.5889 50.389 34.0537 50.1642C33.5184 49.9415 33.0095 49.7309 32.527 49.5345C32.0445 49.3381 31.6086 49.1134 31.2213 48.8583C31.4038 48.6578 31.5842 48.4594 31.7667 48.259C31.9492 48.0585 32.1235 47.854 32.2898 47.6414C32.5757 47.279 32.8169 46.9166 33.0136 46.5582C33.2102 46.1978 33.3359 45.8455 33.3907 45.4952C33.4454 45.1469 33.4008 44.8048 33.2569 44.4727C33.115 44.1406 32.8372 43.8147 32.4297 43.4927C31.6876 42.9096 30.9476 42.6747 30.2137 42.7821C29.4797 42.8914 28.7762 43.185 28.1072 43.6608C27.4381 44.1386 26.8238 44.7096 26.2642 45.3717C25.7067 46.0358 25.218 46.6311 24.8024 47.1616C24.4091 47.6617 24.0178 48.1597 23.6245 48.6599C23.2311 49.16 22.854 49.6702 22.4911 50.1946C22.185 50.6157 21.9173 51.0794 21.6903 51.5856C21.4632 52.0918 21.3253 52.6081 21.2807 53.1345C21.2341 53.661 21.303 54.1732 21.4855 54.6713C21.668 55.1694 22.0268 55.627 22.556 56.0441H22.5519Z" fill="#412F75"/>
<path d="M33.0933 41.6446C33.511 42.0698 33.9388 42.3269 34.3726 42.4119C34.8085 42.499 35.135 42.4322 35.356 42.2176C35.5891 41.9888 35.7898 41.8349 35.9541 41.7539C36.1183 41.6749 36.3758 41.7721 36.7285 42.0475C37.134 42.3512 37.6247 42.7744 38.1984 43.317C38.7722 43.8596 39.3622 44.4407 39.9684 45.0583C40.4672 45.5665 40.974 46.1091 41.4849 46.6862C41.9959 47.2632 42.3932 47.735 42.6771 48.1055C42.9731 48.5165 43.1779 48.883 43.2894 49.2029C43.4029 49.5228 43.3826 49.7577 43.2306 49.9055C43.1333 50.0006 43.0643 50.1363 43.0217 50.3125C42.9792 50.4886 42.9629 50.687 42.9751 50.9037C42.9873 51.1223 43.0278 51.337 43.1008 51.5475C43.1738 51.7601 43.2853 51.9403 43.4333 52.0922C43.7983 52.4627 44.224 52.645 44.7147 52.6348C45.2053 52.6267 45.7183 52.489 46.2515 52.2218C46.7847 51.9545 47.328 51.6002 47.8775 51.1568C48.4269 50.7133 48.9419 50.2558 49.4244 49.784C50.5943 48.64 51.3525 47.5912 51.7033 46.6436C52.054 45.694 51.8979 44.8841 51.237 44.2099C51.089 44.0601 50.9106 43.9386 50.6997 43.8475C50.4888 43.7564 50.2719 43.6997 50.0469 43.6774C49.8218 43.6551 49.6069 43.6693 49.4021 43.7219C49.1974 43.7746 49.025 43.8677 48.8892 44.0034C48.7513 44.139 48.4898 44.0904 48.1046 43.8637C47.7193 43.6349 47.3118 43.3453 46.8861 42.9951C46.4603 42.6448 46.0751 42.3006 45.7304 41.9625C45.3858 41.6263 45.181 41.4239 45.1141 41.355C44.9924 41.2315 44.7937 41.029 44.518 40.7476C44.2423 40.4662 43.9382 40.1442 43.6077 39.7798C43.2772 39.4153 42.9467 39.0387 42.6183 38.648C42.2878 38.2572 41.9918 37.8867 41.7303 37.5364C41.4687 37.1861 41.2761 36.8824 41.1565 36.6232C41.0369 36.3641 41.0247 36.1859 41.12 36.0927C41.4768 35.7425 41.6654 35.3699 41.6836 34.9751C41.7019 34.5803 41.4951 34.1632 41.0632 33.7238C40.3354 32.9828 39.4311 32.7155 38.3525 32.922C37.2739 33.1285 36.1304 33.825 34.918 35.0115C34.3402 35.5785 33.8415 36.1616 33.4197 36.7629C32.998 37.3643 32.6959 37.9575 32.5135 38.5406C32.331 39.1238 32.2783 39.6806 32.3533 40.2131C32.4303 40.7436 32.6777 41.2234 33.0954 41.6486L33.0933 41.6446Z" fill="#412F75"/>
<path d="M44.2727 33.8351C44.5586 34.2218 45.0127 34.7725 45.6351 35.4852C46.2576 36.1979 46.9915 36.943 47.839 37.7185C48.6865 38.494 49.6313 39.231 50.6754 39.9336C51.7195 40.6361 52.8022 41.1707 53.9254 41.5392C55.0466 41.9097 56.1901 42.0474 57.3558 41.9542C58.5196 41.8611 59.6529 41.4116 60.7538 40.6017C61.7311 39.8829 62.4305 39.0386 62.8523 38.0708C63.274 37.103 63.4929 36.0704 63.5091 34.9709C63.5233 33.8715 63.3672 32.7437 63.0408 31.5876C62.7124 30.4315 62.2947 29.2855 61.7838 28.1577C61.2729 27.0279 60.6991 25.9507 60.0625 24.9242C59.4259 23.8997 58.8095 22.9845 58.2155 22.1787C57.7816 21.5895 57.3315 21.144 56.8692 20.8403C56.405 20.5366 55.9488 20.3402 55.5007 20.2511C55.0527 20.162 54.6289 20.1641 54.2295 20.2552C53.8301 20.3463 53.4753 20.5062 53.1651 20.733C52.5913 21.1562 52.1696 21.5976 51.9 22.0592C51.6303 22.5208 51.5431 23.1242 51.6364 23.8673C51.6749 24.2459 51.8493 24.74 52.1554 25.3494C52.4616 25.9609 52.8285 26.6351 53.2543 27.3741C53.6801 28.1132 54.12 28.8643 54.5762 29.6277C55.0324 30.391 55.4338 31.0996 55.7846 31.7496C56.1333 32.4015 56.3867 32.9624 56.5428 33.4321C56.6989 33.9039 56.6827 34.2076 56.4982 34.3433C56.2509 34.5255 55.892 34.4789 55.4237 34.2015C54.9553 33.9242 54.4241 33.5212 53.8301 32.9907C53.2361 32.4603 52.6075 31.8609 51.9446 31.1887C51.2816 30.5185 50.6328 29.8646 49.9982 29.2328C49.3636 28.6011 48.7655 28.0423 48.206 27.5584C47.6464 27.0745 47.176 26.7687 46.7949 26.6432C46.2292 26.461 45.7304 26.459 45.2986 26.6331C44.8647 26.8092 44.4248 27.0623 43.9747 27.3924C43.7111 27.5867 43.4638 27.8763 43.2326 28.261C43.0015 28.6457 42.8616 29.1134 42.8129 29.6621C42.7643 30.2128 42.8413 30.8364 43.0461 31.535C43.2509 32.2335 43.6604 33.0009 44.2788 33.8371L44.2727 33.8351Z" fill="#412F75"/>
<path d="M63.0063 24.205C63.2597 25.2842 63.5801 26.335 63.9673 27.3575C64.3546 28.38 64.756 29.3033 65.1737 30.1273C65.2608 30.2995 65.3683 30.5039 65.5001 30.7388C65.6298 30.9757 65.7636 31.2086 65.9035 31.4414C66.0414 31.6742 66.1874 31.897 66.3394 32.1116C66.4915 32.3262 66.6354 32.5064 66.7753 32.6522C67.0166 32.8749 67.3025 33.0976 67.6309 33.3204C67.9594 33.5431 68.304 33.7132 68.667 33.8326C69.0299 33.9521 69.3968 34.0189 69.7719 34.0351C70.147 34.0513 70.4977 33.9764 70.8242 33.8124C71.5804 33.4317 72.1055 33.0268 72.3975 32.5995C72.6894 32.1723 72.8496 31.7411 72.878 31.3078C72.9064 30.8724 72.8658 30.4412 72.7563 30.0119C72.6468 29.5827 72.5597 29.1737 72.4928 28.787C72.4258 28.4002 72.44 28.0419 72.5333 27.7159C72.6266 27.3879 72.9064 27.1085 73.3706 26.8736C73.6971 26.7096 73.9708 26.6306 74.1897 26.6387C74.4087 26.6468 74.6114 26.7055 74.798 26.8169C74.9845 26.9283 75.1588 27.0821 75.3231 27.2806C75.4873 27.479 75.6738 27.6754 75.8806 27.8718C76.2172 28.1978 76.5477 28.4995 76.872 28.7789C77.1964 29.0583 77.535 29.2689 77.8878 29.4146C78.2406 29.5604 78.6157 29.6293 79.013 29.6232C79.4084 29.6171 79.8483 29.4936 80.3309 29.2506C80.8458 28.9915 81.2189 28.625 81.4439 28.1553C81.671 27.6855 81.7987 27.1793 81.8251 26.6367C81.8535 26.0941 81.7967 25.5474 81.6568 24.9906C81.5169 24.4358 81.3426 23.9539 81.1337 23.5409C81.0121 23.2999 80.8925 23.0529 80.7749 22.7998C80.6573 22.5467 80.5377 22.2997 80.416 22.0588C80.0085 21.2509 79.528 20.3884 78.9786 19.4691C78.4271 18.5499 77.8148 17.6692 77.1397 16.8228C76.4645 15.9785 75.7326 15.203 74.946 14.5004C74.1593 13.7979 73.32 13.2471 72.4258 12.8442C71.5317 12.4433 70.593 12.2388 69.6057 12.2287C68.6183 12.2206 67.5843 12.4879 66.4996 13.0345C65.4494 13.563 64.6283 14.2413 64.0322 15.0694C63.4361 15.8975 63.0185 16.8026 62.7813 17.7846C62.5441 18.7666 62.4569 19.8113 62.5218 20.9229C62.5866 22.0325 62.7448 23.1278 62.9982 24.207L63.0063 24.205ZM69.555 21.1476C69.6259 20.7569 69.8348 20.4734 70.1794 20.2993C70.4714 20.1515 70.7856 20.1758 71.1222 20.3742C71.4588 20.5706 71.6919 20.7974 71.8217 21.0565C71.9616 21.3319 71.9899 21.6457 71.9088 21.998C71.8277 22.3503 71.6331 22.6055 71.3229 22.7614C71.031 22.9092 70.7329 22.9517 70.4308 22.8869C70.1288 22.8241 69.8915 22.6196 69.7172 22.2775C69.5347 21.917 69.48 21.5404 69.5509 21.1497L69.555 21.1476Z" fill="#412F75"/>
<path d="M79.947 16.7193C80.1031 17.4381 80.2632 18.0435 80.4275 18.5375C80.8999 19.9629 81.4676 21.194 82.1366 22.2286C82.8036 23.2653 83.5842 24.0711 84.4743 24.6482C85.3643 25.2252 86.3638 25.5654 87.4729 25.6646C88.5819 25.7638 89.8125 25.5917 91.1669 25.1442C91.7346 24.9579 92.3164 24.7251 92.9145 24.4457C93.5126 24.1683 94.0256 23.82 94.4574 23.405C94.8872 22.9899 95.1974 22.4979 95.384 21.9289C95.5705 21.362 95.5421 20.702 95.2927 19.9528C95.1893 19.643 95.0393 19.311 94.8426 18.9607C94.646 18.6104 94.4067 18.3047 94.1269 18.0414C93.8472 17.7803 93.5248 17.5859 93.1599 17.4644C92.7949 17.3429 92.4016 17.351 91.9799 17.4887C91.7062 17.5798 91.475 17.7114 91.2885 17.8835C91.102 18.0556 90.9317 18.2298 90.7756 18.4019C90.6195 18.574 90.4715 18.74 90.3316 18.8979C90.1917 19.0558 90.0376 19.1611 89.8734 19.2158C89.6909 19.2765 89.5125 19.2138 89.3401 19.0275C89.1678 18.8412 89.0097 18.6104 88.8657 18.333C88.7238 18.0556 88.6001 17.7782 88.4987 17.4968C88.3953 17.2174 88.3224 17.0129 88.2818 16.8853C87.9432 15.8628 87.633 14.8464 87.3492 13.8341C87.0653 12.8237 86.7551 11.8073 86.4166 10.7828C86.2827 10.3819 86.1104 9.90202 85.8955 9.34319C85.6806 8.78639 85.413 8.27008 85.0947 7.79832C84.7763 7.32655 84.4033 6.95198 83.9775 6.67661C83.5518 6.40125 83.055 6.35671 82.4874 6.54501C81.7737 6.77988 81.208 7.17065 80.7884 7.71328C80.3687 8.25793 80.0564 8.89167 79.8517 9.61855C79.6449 10.3454 79.5293 11.129 79.503 11.9672C79.4766 12.8075 79.503 13.6275 79.5881 14.4313C79.6712 15.2352 79.7908 15.9965 79.947 16.7132V16.7193Z" fill="#412F75"/>
<path d="M102.383 9.99779C102.932 10.6275 103.602 11.0891 104.388 11.3847C105.175 11.6803 106.024 11.8767 106.935 11.9739C107.845 12.0731 108.725 12.1845 109.57 12.308C109.688 12.3161 109.854 12.3465 110.073 12.4012C110.292 12.4558 110.507 12.5247 110.72 12.6097C110.933 12.6947 111.121 12.796 111.29 12.9134C111.456 13.0308 111.549 13.1665 111.565 13.3204C111.612 13.7618 111.523 14.0756 111.302 14.2619C111.079 14.4502 110.805 14.5595 110.479 14.5939C109.828 14.6628 109.309 14.6061 108.922 14.4239C108.534 14.2416 108.153 14.0311 107.78 13.7881C107.407 13.5472 106.987 13.3386 106.523 13.1645C106.059 12.9904 105.424 12.9458 104.619 13.0288C104.198 13.0734 103.825 13.2131 103.502 13.45C103.178 13.6869 102.914 13.9804 102.707 14.3307C102.503 14.681 102.353 15.0596 102.259 15.4666C102.166 15.8736 102.142 16.2765 102.182 16.6794C102.278 17.5986 102.574 18.3761 103.066 19.0099C103.559 19.6457 104.198 20.1437 104.98 20.5082C105.763 20.8706 106.675 21.1095 107.713 21.2229C108.751 21.3363 109.856 21.3323 111.024 21.2108C112.097 21.0994 113.169 20.8463 114.244 20.4535C115.316 20.0607 116.279 19.5343 117.129 18.8763C117.98 18.2162 118.647 17.4225 119.13 16.4911C119.614 15.5597 119.795 14.5109 119.671 13.3447C119.566 12.3303 119.28 11.5143 118.82 10.8948C118.357 10.2752 117.784 9.78317 117.096 9.42074C116.409 9.05629 115.645 8.78498 114.801 8.60073C113.958 8.4185 113.104 8.2545 112.236 8.11479C112.117 8.08847 111.955 8.0581 111.748 8.02165C111.541 7.98521 111.332 7.93054 111.119 7.85563C110.908 7.78071 110.718 7.68555 110.552 7.56609C110.383 7.44865 110.292 7.313 110.276 7.15912C110.239 6.81491 110.314 6.5598 110.501 6.39579C110.687 6.23179 110.904 6.13663 111.154 6.1103C111.766 6.04551 112.247 6.09816 112.593 6.26418C112.94 6.43021 113.246 6.62661 113.512 6.84933C113.777 7.07408 114.049 7.2725 114.329 7.44663C114.609 7.62076 114.988 7.68352 115.466 7.6329C115.87 7.59039 116.226 7.4527 116.541 7.21581C116.855 6.97892 117.115 6.6914 117.321 6.35125C117.528 6.01109 117.674 5.65271 117.761 5.27409C117.848 4.89749 117.875 4.54721 117.84 4.22123C117.755 3.41741 117.457 2.73305 116.942 2.16815C116.427 1.60325 115.785 1.14768 115.012 0.803475C114.24 0.45927 113.378 0.224401 112.425 0.100892C111.472 -0.0205919 110.517 -0.0327403 109.558 0.0664717C108.044 0.224401 106.746 0.509889 105.668 0.922934C104.587 1.33598 103.711 1.85836 103.042 2.48805C102.371 3.11977 101.898 3.83653 101.625 4.63832C101.349 5.44214 101.264 6.32088 101.363 7.27655C101.487 8.46305 101.826 9.37013 102.375 9.99982L102.383 9.99779Z" fill="#412F75"/>
<path d="M133.535 6.69141C133.997 6.71773 134.431 6.7076 134.838 6.66306C135.246 6.61852 135.609 6.51728 135.927 6.36137C136.243 6.20547 136.499 5.97465 136.689 5.66689C136.88 5.35913 136.989 4.94608 137.02 4.42775C137.073 3.48625 136.843 2.74722 136.335 2.20662C135.824 1.66804 135.181 1.26107 134.406 0.985704C133.63 0.71034 132.811 0.536213 131.947 0.457248C131.083 0.380308 130.315 0.323616 129.642 0.285146C129.007 0.248701 128.373 0.21428 127.738 0.177835C127.104 0.143415 126.467 0.127217 125.83 0.129241C125.309 0.119118 124.776 0.167711 124.231 0.270973C123.685 0.376259 123.182 0.558485 122.724 0.823725C122.266 1.08694 121.885 1.43722 121.581 1.87254C121.277 2.30786 121.106 2.86263 121.068 3.53484C121.037 4.09165 121.117 4.55936 121.307 4.93596C121.498 5.31256 121.765 5.62235 122.108 5.86329C122.451 6.10423 122.846 6.28038 123.294 6.39174C123.74 6.50311 124.196 6.57195 124.656 6.59827C124.772 6.60434 124.965 6.61042 125.234 6.61649C125.504 6.62256 125.672 6.5598 125.737 6.42819C125.81 6.85743 125.794 7.31705 125.688 7.81311C125.583 8.30917 125.447 8.83965 125.281 9.4086C125.115 9.97755 124.95 10.5748 124.79 11.2025C124.63 11.8302 124.531 12.4882 124.492 13.1807C124.442 14.1019 124.45 14.9908 124.517 15.8412C124.585 16.6936 124.76 17.4448 125.042 18.0967C125.323 18.7487 125.737 19.2772 126.284 19.6841C126.83 20.0911 127.546 20.3179 128.432 20.3685C129.431 20.4252 130.22 20.2369 130.794 19.8056C131.367 19.3743 131.805 18.8074 132.105 18.1008C132.405 17.3942 132.604 16.6065 132.701 15.7339C132.799 14.8632 132.87 14.023 132.914 13.2171C132.951 12.5834 132.916 11.9598 132.817 11.3483C132.716 10.7348 132.604 10.1456 132.482 9.5807C132.359 9.0158 132.239 8.47925 132.124 7.97104C132.008 7.46283 131.943 6.97892 131.931 6.51525C132.199 6.54967 132.466 6.58409 132.736 6.61851C133.003 6.65294 133.273 6.67723 133.543 6.69141H133.535Z" fill="#412F75"/>
<path d="M136.091 15.0678C136.053 15.2561 136.01 15.4829 135.966 15.7481C135.921 16.0154 135.88 16.2806 135.844 16.5479C135.808 16.8151 135.783 17.0804 135.769 17.3416C135.755 17.6048 135.755 17.8356 135.773 18.036C135.824 18.36 135.909 18.7123 136.026 19.0909C136.144 19.4696 136.308 19.8178 136.519 20.1357C136.728 20.4536 136.975 20.735 137.259 20.98C137.543 21.225 137.863 21.385 138.222 21.4578C139.051 21.6279 139.714 21.638 140.209 21.4842C140.702 21.3303 141.097 21.0934 141.389 20.7694C141.681 20.4455 141.918 20.083 142.101 19.6781C142.283 19.2732 142.468 18.8986 142.656 18.5544C142.845 18.2102 143.078 17.9389 143.356 17.7404C143.633 17.542 144.027 17.4954 144.536 17.6007C144.895 17.6736 145.156 17.7829 145.324 17.9247C145.491 18.0664 145.614 18.2405 145.689 18.441C145.766 18.6435 145.807 18.8743 145.813 19.1294C145.819 19.3865 145.841 19.6558 145.882 19.9393C145.943 20.405 146.014 20.8464 146.095 21.2655C146.176 21.6846 146.31 22.0612 146.496 22.3953C146.683 22.7274 146.934 23.0149 147.248 23.2578C147.563 23.4988 147.984 23.6749 148.511 23.7843C149.077 23.9017 149.596 23.845 150.065 23.6182C150.535 23.3915 150.948 23.0736 151.309 22.6666C151.668 22.2596 151.966 21.796 152.201 21.2736C152.437 20.7532 152.601 20.2653 152.694 19.8138C152.749 19.5505 152.808 19.2833 152.875 19.012C152.939 18.7406 153 18.4734 153.055 18.2102C153.237 17.3254 153.4 16.3515 153.54 15.2885C153.679 14.2275 153.748 13.1564 153.746 12.0752C153.742 10.994 153.653 9.93305 153.473 8.89437C153.294 7.85568 152.978 6.90203 152.53 6.03342C152.08 5.1648 151.472 4.4197 150.703 3.80013C149.935 3.18057 148.958 2.74727 147.769 2.5043C146.618 2.26741 145.551 2.28766 144.57 2.56707C143.587 2.84648 142.699 3.29597 141.9 3.91757C141.103 4.53916 140.383 5.30451 139.745 6.21362C139.104 7.12272 138.549 8.0784 138.076 9.08267C137.604 10.0849 137.2 11.1074 136.868 12.1481C136.535 13.1909 136.276 14.1627 136.089 15.0678H136.091ZM144.54 11.7391C144.621 11.3443 144.811 11.0143 145.111 10.751C145.412 10.4878 145.75 10.3967 146.127 10.4737C146.448 10.5405 146.679 10.7551 146.821 11.1175C146.963 11.482 147.003 11.8039 146.944 12.0853C146.881 12.387 146.709 12.6523 146.427 12.877C146.145 13.1038 145.833 13.1828 145.493 13.1119C145.172 13.0451 144.913 12.8952 144.716 12.6583C144.519 12.4215 144.459 12.1157 144.538 11.7371L144.54 11.7391Z" fill="#412F75"/>
<path d="M154.736 24.5327C155.097 25.2961 155.651 25.8326 156.399 26.1424C156.987 26.3854 157.546 26.44 158.082 26.3084C158.617 26.1748 159.107 25.9318 159.56 25.5775C160.01 25.2232 160.405 24.7818 160.75 24.2574C161.092 23.733 161.374 23.2045 161.597 22.67C161.832 22.101 162.011 21.5139 162.126 20.9044C162.242 20.297 162.362 19.7625 162.479 19.3008C162.597 18.8392 162.741 18.4828 162.909 18.2297C163.077 17.9766 163.331 17.92 163.667 18.0597C164.006 18.1994 164.174 18.4464 164.174 18.8007C164.174 19.155 164.136 19.5337 164.061 19.9406C163.986 20.3476 163.961 20.7323 163.988 21.0968C164.012 21.4612 164.223 21.7244 164.614 21.8864C164.934 22.018 165.257 21.9715 165.581 21.7406C165.906 21.5118 166.234 21.2506 166.562 20.9591C166.891 20.6675 167.215 20.4063 167.53 20.1735C167.846 19.9406 168.146 19.8819 168.43 19.9994C168.661 20.0945 168.748 20.3132 168.689 20.6533C168.63 20.9935 168.505 21.4005 168.308 21.8702C168.113 22.342 167.88 22.8502 167.613 23.3948C167.345 23.9395 167.104 24.47 166.889 24.9863C166.593 25.697 166.37 26.3591 166.22 26.9746C166.068 27.5881 166.037 28.155 166.127 28.6693C166.214 29.1856 166.431 29.6452 166.775 30.0461C167.12 30.449 167.637 30.7932 168.332 31.0828C169.026 31.3703 169.756 31.3237 170.518 30.941C171.28 30.5604 172.014 29.9874 172.716 29.2261C173.417 28.4648 174.068 27.5881 174.668 26.598C175.268 25.6079 175.755 24.6583 176.132 23.7512C176.604 22.6133 177.01 21.4227 177.35 20.1775C177.689 18.9323 177.872 17.7539 177.898 16.6383C177.922 15.5247 177.752 14.5306 177.383 13.6599C177.014 12.7893 176.359 12.1576 175.416 11.7668C174.883 11.5461 174.354 11.4732 173.833 11.5481C173.312 11.623 172.815 11.7769 172.343 12.0098C171.87 12.2406 171.42 12.524 170.99 12.8561C170.561 13.1882 170.167 13.4939 169.812 13.7733C169.456 14.0527 169.141 14.2815 168.87 14.4617C168.596 14.6399 168.371 14.6925 168.195 14.6196C168.016 14.5467 167.894 14.3503 167.83 14.0304C167.763 13.7126 167.706 13.3238 167.657 12.8642C167.607 12.4066 167.552 11.9146 167.489 11.3882C167.426 10.8617 167.317 10.3474 167.161 9.84532C167.004 9.34318 166.773 8.88357 166.467 8.46445C166.161 8.04533 165.749 7.72947 165.234 7.51687C164.148 7.06738 163.104 7.02486 162.096 7.38931C161.088 7.75376 160.166 8.34499 159.324 9.16298C158.483 9.98097 157.731 10.9407 157.066 12.0401C156.401 13.1396 155.857 14.1965 155.436 15.2088C154.978 16.3103 154.633 17.4441 154.4 18.6063C154.167 19.7706 154.075 20.8578 154.124 21.8662C154.173 22.8765 154.379 23.7633 154.74 24.5267L154.736 24.5327Z" fill="#412F75"/>
<path d="M174.938 30.8811C174.757 31.9258 174.794 32.8532 175.047 33.6631C175.299 34.4709 175.812 35.131 176.584 35.6372C177.63 36.3236 178.601 36.522 179.493 36.2324C180.386 35.9429 181.15 35.3152 181.784 34.3494C181.943 34.1085 182.091 33.8129 182.226 33.4667C182.362 33.1184 182.49 32.7944 182.608 32.4907C182.725 32.189 182.843 31.9481 182.958 31.772C183.074 31.5958 183.198 31.5492 183.325 31.6322C183.406 31.6849 183.473 31.7922 183.528 31.9542C183.583 32.1162 183.658 32.3105 183.753 32.5333C183.848 32.756 183.996 32.9969 184.195 33.2541C184.394 33.5112 184.688 33.7663 185.075 34.0194C186.59 35.0115 188.025 35.2221 189.379 34.6471C190.736 34.0741 192.051 32.8147 193.331 30.8669C193.86 30.0631 194.259 29.2269 194.531 28.3562C194.803 27.4876 194.914 26.6392 194.87 25.8152C194.823 24.9911 194.592 24.2116 194.174 23.4786C193.757 22.7457 193.13 22.1038 192.293 21.5551C191.954 21.3344 191.652 21.1806 191.384 21.0976C191.117 21.0145 190.871 20.9578 190.65 20.9275C190.427 20.8971 190.239 20.8769 190.085 20.8667C189.929 20.8566 189.805 20.8202 189.708 20.7574C189.627 20.7048 189.562 20.6096 189.513 20.4739C189.464 20.3383 189.402 20.1884 189.325 20.0224C189.248 19.8584 189.15 19.6843 189.029 19.5C188.907 19.3178 188.733 19.1518 188.507 19.004C187.492 18.3399 186.535 17.9815 185.635 17.9329C184.734 17.8843 183.865 18.0847 183.025 18.5363C182.186 18.9878 181.379 19.6499 180.598 20.5185C179.82 21.3891 179.039 22.4197 178.257 23.6102C177.369 24.9607 176.639 26.2485 176.065 27.4734C175.491 28.6964 175.114 29.8323 174.936 30.875L174.938 30.8811ZM185.624 26.7162C185.687 26.619 185.793 26.4935 185.943 26.3376C186.091 26.1817 186.255 26.048 186.433 25.9326C186.612 25.8192 186.792 25.7362 186.977 25.6856C187.161 25.633 187.325 25.6552 187.469 25.7504C187.615 25.8456 187.705 25.9792 187.741 26.1533C187.778 26.3254 187.784 26.5097 187.761 26.702C187.739 26.8944 187.694 27.0847 187.63 27.271C187.565 27.4593 187.5 27.601 187.437 27.6962C187.299 27.9067 187.074 28.0748 186.76 28.2023C186.446 28.3299 186.152 28.3036 185.878 28.1254C185.637 27.9675 185.499 27.7448 185.468 27.4593C185.436 27.1738 185.489 26.9268 185.626 26.7182L185.624 26.7162Z" fill="#412F75"/>
<path d="M206.507 48.2345C206.848 47.7162 207.164 47.206 207.458 46.7059C207.75 46.2057 208.026 45.7299 208.285 45.2784C208.543 44.8269 208.825 44.426 209.129 44.0757C209.303 44.2822 209.477 44.4888 209.652 44.6953C209.826 44.9018 210.007 45.1002 210.195 45.2946C210.517 45.6246 210.844 45.9122 211.174 46.1551C211.505 46.3981 211.839 46.5682 212.18 46.6694C212.519 46.7686 212.863 46.7706 213.212 46.6735C213.561 46.5763 213.922 46.3455 214.295 45.983C214.972 45.325 215.304 44.6265 215.294 43.8834C215.284 43.1423 215.085 42.4073 214.7 41.6805C214.315 40.9536 213.83 40.2712 213.246 39.6294C212.663 38.9896 212.135 38.4267 211.665 37.9448C211.221 37.4893 210.777 37.0357 210.335 36.5802C209.891 36.1246 209.435 35.6832 208.962 35.256C208.585 34.8976 208.16 34.5716 207.687 34.2801C207.215 33.9885 206.72 33.784 206.203 33.6686C205.686 33.5532 205.169 33.5532 204.65 33.6686C204.131 33.784 203.63 34.0776 203.146 34.5473C202.744 34.9361 202.487 35.3349 202.373 35.7419C202.258 36.1489 202.245 36.5559 202.337 36.9669C202.426 37.3759 202.598 37.7727 202.852 38.1574C203.105 38.5421 203.393 38.8985 203.715 39.2305C203.796 39.3135 203.932 39.4472 204.129 39.6335C204.324 39.8197 204.49 39.8865 204.628 39.8339C204.391 40.1984 204.066 40.5264 203.655 40.82C203.241 41.1135 202.781 41.4132 202.274 41.7189C201.765 42.0247 201.24 42.3547 200.696 42.707C200.153 43.0593 199.634 43.4784 199.137 43.9623C198.474 44.6062 197.88 45.2663 197.353 45.9385C196.826 46.6127 196.447 47.2849 196.212 47.9531C195.979 48.6233 195.924 49.2935 196.052 49.9616C196.179 50.6298 196.552 51.2818 197.169 51.9155C197.868 52.6323 198.574 53.0271 199.289 53.0979C200.003 53.1688 200.711 53.0453 201.41 52.7274C202.11 52.4116 202.789 51.9641 203.452 51.387C204.113 50.81 204.735 50.241 205.315 49.6782C205.771 49.2347 206.169 48.7549 206.509 48.2345H206.507Z" fill="#412F75"/>
<path d="M220.893 66.3095C222.248 65.3559 223.32 64.3294 224.113 63.2319C224.904 62.1325 225.429 61.0047 225.684 59.8486C225.94 58.6905 225.934 57.5303 225.666 56.3661C225.396 55.2018 224.875 54.068 224.099 52.9686C223.255 51.774 222.329 50.8122 221.321 50.0853C220.314 49.3585 219.231 48.8968 218.077 48.6964C216.922 48.4959 215.697 48.581 214.404 48.9515C213.108 49.322 211.754 50.0044 210.336 51.0025C208.982 51.9562 207.877 52.9706 207.02 54.0437C206.162 55.1168 205.576 56.2243 205.262 57.3643C204.948 58.5042 204.911 59.6725 205.152 60.8671C205.394 62.0617 205.933 63.2481 206.764 64.4286C207.585 65.5928 208.534 66.5262 209.607 67.2288C210.681 67.9314 211.829 68.3707 213.049 68.5489C214.27 68.725 215.547 68.6319 216.883 68.2695C218.217 67.9071 219.555 67.2531 220.893 66.3116V66.3095ZM214.633 60.7942C214.002 60.8367 213.532 60.6383 213.222 60.1989C212.921 59.7737 212.861 59.2635 213.041 58.6662C213.22 58.0689 213.641 57.5384 214.302 57.0727C214.649 56.8297 215.014 56.6354 215.397 56.4957C215.78 56.3539 216.145 56.2689 216.488 56.2385C216.832 56.2081 217.145 56.2345 217.429 56.3175C217.71 56.4005 217.929 56.5523 218.085 56.773C218.242 56.9937 218.312 57.2367 218.3 57.504C218.288 57.7712 218.211 58.0547 218.069 58.3544C217.927 58.654 217.729 58.9476 217.471 59.2351C217.214 59.5226 216.92 59.7818 216.589 60.0146C215.912 60.4925 215.259 60.7516 214.629 60.7942H214.633Z" fill="#412F75"/>
<path d="M226.086 84.9027C227.586 84.6556 229.149 84.1515 230.771 83.3902C233.317 82.1956 235.069 80.8431 236.03 79.3306C236.989 77.8181 237.125 76.3299 236.438 74.866C236.052 74.048 235.535 73.5682 234.883 73.4265C234.23 73.2847 233.382 73.4609 232.336 73.9509C231.708 74.2465 231.014 74.6251 230.252 75.0867C229.49 75.5504 228.587 76.0262 227.541 76.5182C226.041 77.2228 224.796 77.6501 223.805 77.808C222.813 77.9639 222.213 77.8161 221.998 77.3625C221.85 77.0487 221.945 76.7065 222.282 76.336C222.619 75.9655 223.04 75.6192 223.549 75.2953C224.056 74.9713 224.561 74.6879 225.064 74.4408C225.564 74.1938 225.903 74.0319 226.077 73.9488C226.582 73.7119 227.055 73.5155 227.495 73.3637C227.933 73.2098 228.358 73.0742 228.772 72.9567C229.183 72.8373 229.579 72.7158 229.958 72.5923C230.335 72.4688 230.716 72.3169 231.101 72.1367C233.315 71.098 234.019 69.7171 233.208 67.9921C232.879 67.2956 232.393 66.7469 231.748 66.348C231.103 65.9491 230.341 65.7102 229.465 65.6333C228.587 65.5563 227.604 65.6333 226.511 65.8701C225.418 66.105 224.255 66.514 223.016 67.0951C219.458 68.7635 217.102 70.6667 215.946 72.8028C214.791 74.9389 214.88 77.4273 216.214 80.266C216.804 81.5213 217.588 82.5337 218.57 83.3072C219.551 84.0806 220.672 84.601 221.937 84.8682C223.202 85.1355 224.585 85.1456 226.088 84.8986L226.086 84.9027Z" fill="#412F75"/>
<path d="M242.991 95.2635C242.952 94.4353 242.827 93.6417 242.616 92.8824C242.513 92.5118 242.387 92.2021 242.239 91.953C242.091 91.704 241.943 91.4954 241.795 91.3274C241.647 91.1573 241.519 91.0196 241.41 90.9103C241.298 90.8009 241.229 90.6916 241.199 90.5803C241.172 90.4871 241.187 90.3737 241.239 90.2401C241.292 90.1065 241.345 89.9506 241.395 89.7785C241.446 89.6043 241.489 89.4079 241.517 89.1913C241.547 88.9726 241.525 88.7337 241.454 88.4745C241.162 87.4176 240.599 86.6097 239.763 86.0509C238.928 85.4921 237.965 85.1155 236.87 84.9171C235.775 84.7207 234.634 84.6761 233.446 84.7834C232.256 84.8928 231.169 85.0831 230.186 85.3544C229.2 85.6257 228.168 86.0307 227.088 86.5692C226.007 87.1078 225.038 87.7233 224.18 88.4199C223.323 89.1143 222.656 89.8635 222.177 90.6633C221.699 91.463 221.567 92.2547 221.784 93.0322C222.116 94.2369 222.603 95.0509 223.24 95.4761C223.876 95.8992 224.752 95.9559 225.867 95.6482C226.127 95.5773 226.408 95.4194 226.711 95.1764C227.013 94.9334 227.299 94.7046 227.57 94.49C227.84 94.2754 228.085 94.1276 228.302 94.0486C228.519 93.9697 228.665 94.0587 228.736 94.3179C228.787 94.5022 228.679 94.7127 228.416 94.9456C228.15 95.1784 227.818 95.4396 227.418 95.7292C227.019 96.0187 226.581 96.3548 226.108 96.7354C225.634 97.1161 225.22 97.5352 224.868 97.9908C224.515 98.4484 224.247 98.9444 224.067 99.485C223.886 100.024 223.886 100.617 224.067 101.267C224.261 101.971 224.521 102.548 224.845 102.998C225.17 103.447 225.527 103.798 225.916 104.051C226.305 104.302 226.721 104.452 227.165 104.5C227.607 104.547 228.032 104.514 228.442 104.403C228.961 104.259 229.389 104.016 229.725 103.674C230.06 103.332 230.334 102.947 230.544 102.52C230.755 102.093 230.913 101.649 231.017 101.192C231.12 100.734 231.212 100.305 231.291 99.9042C231.37 99.5033 231.453 99.155 231.542 98.8614C231.629 98.5678 231.743 98.3816 231.883 98.3046C232.258 98.7197 232.635 99.1449 233.014 99.5782C233.393 100.011 233.845 100.382 234.37 100.686C234.893 100.989 235.524 101.186 236.256 101.273C236.99 101.36 237.886 101.257 238.944 100.965C240.003 100.674 240.83 100.23 241.426 99.6369C242.02 99.0436 242.442 98.3735 242.685 97.6284C242.928 96.8812 243.03 96.0956 242.991 95.2675V95.2635ZM236.765 93.2974C236.702 93.4351 236.613 93.5647 236.497 93.6862C236.382 93.8077 236.248 93.9089 236.102 93.9899C235.954 94.0709 235.824 94.1256 235.712 94.158C235.471 94.2248 235.187 94.2086 234.859 94.1094C234.532 94.0102 234.33 93.8218 234.253 93.5424C234.182 93.2833 234.239 93.0423 234.427 92.8196C234.616 92.5969 234.831 92.4531 235.072 92.3863C235.183 92.3559 235.331 92.3337 235.518 92.3235C235.704 92.3114 235.883 92.3235 236.051 92.3559C236.219 92.3883 236.375 92.4471 236.517 92.526C236.659 92.607 236.751 92.7204 236.793 92.8702C236.834 93.018 236.824 93.1618 236.761 93.2974H236.765Z" fill="#412F75"/>
</svg>
