<svg width="94" height="22" viewBox="0 0 94 22" fill="none" xmlns="http://www.w3.org/2000/svg">
<mask id="mask0_39_1243" style="mask-type:luminance" maskUnits="userSpaceOnUse" x="0" y="0" width="94" height="22">
<path d="M94 0H0V21.3931H94V0Z" fill="white"/>
</mask>
<g mask="url(#mask0_39_1243)">
<path d="M11.0863 0.738282C10.0708 0.737916 9.06072 0.886818 8.08867 1.1802C8.52796 1.94362 8.75825 2.80898 8.75639 3.68934C8.75698 4.57502 8.52423 5.44527 8.0815 6.21284C7.63877 6.98041 7.00161 7.61831 6.23393 8.06256C5.46624 8.50681 4.59502 8.74179 3.70764 8.74395C2.82025 8.74611 1.94789 8.51536 1.17805 8.07485C0.54765 10.1538 0.589975 12.3781 1.29901 14.4317C2.00804 16.4852 3.34768 18.2634 5.12746 19.5134C6.90723 20.7634 9.03655 21.4215 11.2126 21.3943C13.3887 21.367 15.5008 20.6557 17.2486 19.3616C18.9964 18.0674 20.2909 16.2563 20.9481 14.1856C21.6053 12.115 21.5917 9.89024 20.9092 7.82775C20.2268 5.76527 18.9102 3.97002 17.1467 2.69726C15.3832 1.42449 13.2626 0.739015 11.0863 0.738282Z" fill="#1D1D1D"/>
<path d="M6.78875 1.67102C6.30324 0.929251 5.5664 0.386724 4.71301 0.142672C3.85962 -0.101381 2.94672 -0.0306452 2.14129 0.34194C1.33586 0.714525 0.691748 1.36405 0.326763 2.17172C-0.0382226 2.97939 -0.0996811 3.8912 0.153629 4.74038C0.406938 5.58956 0.958084 6.31934 1.70625 6.79624C2.45442 7.27313 3.34961 7.46526 4.22806 7.33749C5.10651 7.20972 5.90952 6.77058 6.4902 6.1004C7.07087 5.43022 7.3904 4.5738 7.39035 3.68778C7.39029 2.97139 7.18101 2.27055 6.7881 1.67102" fill="#1D1D1D"/>
<path d="M35.3941 6.97917H32.2985V16.0375H30.0114V6.97917H26.8135V5.35645H35.6352L35.3941 6.97917Z" fill="#1D1D1D"/>
<path d="M44.4762 11.2605H40.2455V16.0362H37.9766V5.35645H40.2455V9.63778H44.4762V5.35645H46.7633V16.0362H44.4762V11.2605Z" fill="#1D1D1D"/>
<path d="M55.9508 13.5646H52.0119L51.2728 16.0375H48.917L52.6122 5.35645H55.4153L59.0956 16.0375H56.6872L55.9508 13.5646ZM55.5035 12.0188L53.9729 6.91771L52.4592 12.0214L55.5035 12.0188Z" fill="#1D1D1D"/>
<path d="M67.8179 6.97917H64.7224V16.0375H62.4352V6.97917H59.2373V5.35645H68.059L67.8179 6.97917Z" fill="#1D1D1D"/>
<path d="M77.5379 6.93259L72.0515 14.3675H77.5897L77.3492 16.0362H69.4033V14.4756L74.9895 6.97917H69.968V5.35645H77.5346L77.5379 6.93259Z" fill="#1D1D1D"/>
<path d="M82.7169 5.35645H80.4473V16.0368H82.7169V5.35645Z" fill="#1D1D1D"/>
<path d="M93.7577 6.97917H90.6628V16.0375H88.3757V6.97917H85.1777V5.35645H93.9995L93.7577 6.97917Z" fill="#1D1D1D"/>
</g>
</svg>
