<svg width="166" height="34" viewBox="0 0 166 34" fill="none" xmlns="http://www.w3.org/2000/svg">
<path d="M28.9954 10.4156C23.1672 4.57619 16.1064 12.9033 16.1064 12.9033V20.0953C16.1064 20.0953 20.5995 15.4417 22.7197 14.1978C23.7322 13.6035 25.0272 13.9312 25.4851 14.7743C25.9847 15.6964 25.8672 16.9492 24.8547 17.9026C24.4577 18.2765 16.0767 26.0837 16.0767 26.0837L7.70902 17.1041L16.1064 8.30627V0L0 17.1071L16.0767 33.8105L29.1114 21.4062C32.2574 18.342 32.0255 13.4515 28.9954 10.4156Z" fill="white"/>
<path d="M44.5644 14.9728C45.8965 14.9728 46.9135 15.7906 47.2822 17.176L47.3119 17.2683H48.5757L48.5445 17.1104C48.1862 15.1277 46.5492 13.7617 44.5644 13.7617C42.016 13.7617 40.3047 15.877 40.3047 19.0246C40.3047 22.2214 42.0026 24.2861 44.6313 24.2861C45.7434 24.2861 46.6786 23.9077 47.3922 23.1912C48.1668 22.4136 48.5415 21.3098 48.5415 20.0004V19.0559H44.6759V20.0987H47.3922C47.3179 21.8863 46.2459 23.0363 44.6313 23.0363C43.8418 23.0363 43.1445 22.786 42.6137 22.2542C41.8956 21.5332 41.5194 20.416 41.5224 19.0217C41.5194 17.6422 41.9089 16.4878 42.6196 15.7742C43.1385 15.2529 43.812 14.9728 44.5644 14.9728Z" fill="white"/>
<path d="M56.2517 13.8516L52.6953 24.1301H53.9948L54.9939 21.1508H58.7332L59.7308 24.1301H61.0318L57.4739 13.8516H56.2517ZM55.3894 20.1081L56.8628 15.7568L58.3377 20.1081H55.3894Z" fill="white"/>
<path d="M69.8375 22.2636L66.4907 13.8516H65.2031V24.1301H66.3926V16.6595L69.3096 24.1301H70.3519L73.3805 16.6581V24.1301H74.5699V13.8516H73.1694L69.8375 22.2636Z" fill="white"/>
<path d="M82.8881 18.5182L81.9024 18.2292C80.707 17.8821 80.1272 17.3488 80.1316 16.598C80.1286 16.1288 80.3204 15.7191 80.6862 15.4152C81.0579 15.1069 81.5917 14.9311 82.1879 14.9281C83.3758 14.9356 84.1697 15.5553 84.2604 16.5593L84.2723 16.6814H85.4826L85.4766 16.5057C85.4068 14.8671 84.0716 13.7021 82.231 13.7021H82.2012C80.3041 13.7021 78.9229 14.943 78.9169 16.6084C78.9214 17.894 79.7569 18.8355 81.3998 19.3405L82.5298 19.6831C83.8531 20.0749 84.3943 20.5486 84.3943 21.3232C84.3943 22.4047 83.4828 23.1286 82.1269 23.1346C80.8542 23.1286 80.0097 22.4791 79.9235 21.4587L79.9116 21.2993H78.6582L78.6686 21.4587C78.789 23.1718 80.1376 24.2786 82.1076 24.2786H82.1447C83.2539 24.2786 84.1712 23.9673 84.7987 23.3372C85.325 22.8069 85.6015 22.1321 85.5985 21.344C85.603 19.3136 83.5602 18.7148 82.8881 18.5182Z" fill="white"/>
<path d="M96.1081 20.5728C96.1081 22.0893 95.0955 23.1127 93.5805 23.1201C92.058 23.1142 91.053 22.0908 91.053 20.5743V13.8516H89.7148V20.6414C89.7148 21.6722 90.1059 22.5854 90.7764 23.2527C91.4574 23.929 92.4416 24.2791 93.5136 24.2791H93.5433C95.7557 24.2791 97.296 22.8103 97.296 20.6414V13.8516H96.1066V20.5728H96.1081Z" fill="white"/>
<path d="M108.016 21.9076L102.613 13.8516H101.475V24.1301H102.664V16.1754L108.088 24.1301H109.206V13.8516H108.016V21.9076Z" fill="white"/>
<path d="M117.672 20.0987H120.45C120.376 21.8863 119.304 23.0363 117.688 23.0363C116.9 23.0363 116.201 22.7875 115.672 22.2542C114.955 21.5332 114.578 20.416 114.58 19.0217C114.578 17.6422 114.966 16.4878 115.676 15.7742C116.195 15.2529 116.869 14.9728 117.622 14.9728C118.955 14.9728 119.97 15.7906 120.339 17.176L120.369 17.2683H121.634L121.603 17.1104C121.244 15.1277 119.609 13.7617 117.622 13.7617C115.074 13.7617 113.361 15.877 113.361 19.0246C113.361 22.2214 115.059 24.2861 117.686 24.2861C118.8 24.2861 119.78 23.9077 120.493 23.1897C121.267 22.4121 121.684 21.3083 121.684 19.9989V19.0544H117.67V20.0987H117.672Z" fill="white"/>
<path d="M125.557 15.0433H128.53V24.1301H129.72V15.0433H132.842V13.8516H125.557V15.0433Z" fill="white"/>
<path d="M137.896 19.6612H142.208V18.4695H137.896V15.0433H142.506V13.8516H136.707V24.1301H142.654V22.9384H137.896V19.6612Z" fill="white"/>
<path d="M150.746 14.9698C152.097 14.9698 153.178 15.8472 153.437 17.173L153.461 17.2683H154.704L154.674 17.1194C154.329 15.0964 152.75 13.7617 150.746 13.7617C148.183 13.7617 146.461 15.877 146.461 19.0246C146.461 22.1723 148.183 24.2861 150.746 24.2861C152.753 24.2861 154.332 22.9081 154.674 20.8867L154.704 20.6945H153.461L153.437 20.8331C153.175 22.1603 152.094 23.069 150.746 23.069C149.983 23.069 149.301 22.789 148.773 22.2587C148.053 21.5362 147.674 20.416 147.677 19.0217C147.674 17.6303 148.053 16.5101 148.773 15.7861C149.301 15.2558 149.983 14.9698 150.746 14.9698Z" fill="white"/>
<path d="M164.809 13.8516V18.4695H159.754V13.8516H158.564V24.1301H159.754V19.6612H164.809V24.1301H165.998V13.8516H164.809Z" fill="white"/>
</svg>
