<svg width="52" height="52" viewBox="0 0 52 52" fill="none" xmlns="http://www.w3.org/2000/svg">
<path d="M32.5006 4.33301C33.0753 4.33301 33.6264 4.56128 34.0327 4.96761C34.439 5.37394 34.6673 5.92504 34.6673 6.49967V8.66634H36.834C38.5579 8.66634 40.2112 9.35116 41.4302 10.5701C42.6492 11.7891 43.334 13.4424 43.334 15.1663V17.333H45.5006C46.0753 17.333 46.6264 17.5613 47.0327 17.9676C47.439 18.3739 47.6673 18.925 47.6673 19.4997C47.6673 20.0743 47.439 20.6254 47.0327 21.0317C46.6264 21.4381 46.0753 21.6663 45.5006 21.6663H43.334V30.333H45.5006C46.0753 30.333 46.6264 30.5613 47.0327 30.9676C47.439 31.3739 47.6673 31.925 47.6673 32.4997C47.6673 33.0743 47.439 33.6254 47.0327 34.0317C46.6264 34.4381 46.0753 34.6663 45.5006 34.6663H43.334V36.833C43.334 38.5569 42.6492 40.2102 41.4302 41.4292C40.2112 42.6482 38.5579 43.333 36.834 43.333H34.6673V45.4997C34.6673 46.0743 34.439 46.6254 34.0327 47.0317C33.6264 47.4381 33.0753 47.6663 32.5006 47.6663C31.926 47.6663 31.3749 47.4381 30.9686 47.0317C30.5623 46.6254 30.334 46.0743 30.334 45.4997V43.333H21.6673V45.4997C21.6673 46.0743 21.439 46.6254 21.0327 47.0317C20.6264 47.4381 20.0753 47.6663 19.5006 47.6663C18.926 47.6663 18.3749 47.4381 17.9686 47.0317C17.5623 46.6254 17.334 46.0743 17.334 45.4997V43.333H15.1673C13.4434 43.333 11.7901 42.6482 10.5711 41.4292C9.35214 40.2102 8.66732 38.5569 8.66732 36.833V34.6663H6.50065C5.92602 34.6663 5.37491 34.4381 4.96859 34.0317C4.56226 33.6254 4.33398 33.0743 4.33398 32.4997C4.33398 31.925 4.56226 31.3739 4.96859 30.9676C5.37491 30.5613 5.92602 30.333 6.50065 30.333H8.66732V21.6663H6.50065C5.92602 21.6663 5.37491 21.4381 4.96859 21.0317C4.56226 20.6254 4.33398 20.0743 4.33398 19.4997C4.33398 18.925 4.56226 18.3739 4.96859 17.9676C5.37491 17.5613 5.92602 17.333 6.50065 17.333H8.66732V15.1663C8.66732 13.4424 9.35214 11.7891 10.5711 10.5701C11.7901 9.35116 13.4434 8.66634 15.1673 8.66634H17.334V6.49967C17.334 5.92504 17.5623 5.37394 17.9686 4.96761C18.3749 4.56128 18.926 4.33301 19.5006 4.33301C20.0753 4.33301 20.6264 4.56128 21.0327 4.96761C21.439 5.37394 21.6673 5.92504 21.6673 6.49967V8.66634H30.334V6.49967C30.334 5.92504 30.5623 5.37394 30.9686 4.96761C31.3749 4.56128 31.926 4.33301 32.5006 4.33301ZM30.334 17.333H21.6673C20.518 17.333 19.4158 17.7896 18.6032 18.6022C17.7905 19.4149 17.334 20.5171 17.334 21.6663V30.333C17.334 31.4823 17.7905 32.5845 18.6032 33.3971C19.4158 34.2098 20.518 34.6663 21.6673 34.6663H30.334C31.4833 34.6663 32.5855 34.2098 33.3981 33.3971C34.2108 32.5845 34.6673 31.4823 34.6673 30.333V21.6663C34.6673 20.5171 34.2108 19.4149 33.3981 18.6022C32.5855 17.7896 31.4833 17.333 30.334 17.333ZM30.334 21.6663V30.333H21.6673V21.6663H30.334Z" fill="url(#paint0_linear_556_150)"/>
<defs>
<linearGradient id="paint0_linear_556_150" x1="26.0007" y1="4.33301" x2="26.0007" y2="47.6663" gradientUnits="userSpaceOnUse">
<stop stop-color="#B8A5DF"/>
<stop offset="1" stop-color="#7C60B5"/>
</linearGradient>
</defs>
</svg>
