<svg width="52" height="52" viewBox="0 0 52 52" fill="none" xmlns="http://www.w3.org/2000/svg">
<path d="M35 7.39551C33.2334 7.39525 31.4927 7.82718 29.9259 8.65465C28.3591 9.48211 27.0124 10.6807 26 12.1486C24.9876 10.6807 23.6409 9.48211 22.0741 8.65465C20.5073 7.82718 18.7666 7.39525 17 7.39551C14.0826 7.39551 11.2847 8.57052 9.22183 10.662C7.15893 12.7536 6 15.5903 6 18.5482C6 30.1449 19 39.7139 26 44.6048C33 39.7139 46 30.1449 46 18.5482C46 17.0836 45.7155 15.6333 45.1627 14.2802C44.6099 12.9271 43.7996 11.6977 42.7782 10.662C41.7567 9.62642 40.5441 8.80493 39.2095 8.24445C37.8749 7.68398 36.4445 7.39551 35 7.39551Z" fill="url(#paint0_linear_556_143)"/>
<defs>
<linearGradient id="paint0_linear_556_143" x1="26" y1="7.39551" x2="26" y2="44.6048" gradientUnits="userSpaceOnUse">
<stop stop-color="#EFA5A5"/>
<stop offset="1" stop-color="#F28080"/>
</linearGradient>
</defs>
</svg>
