<svg width="52" height="52" viewBox="0 0 52 52" fill="none" xmlns="http://www.w3.org/2000/svg">
<path d="M26.0007 47.6663C14.0342 47.6663 4.33398 37.9662 4.33398 25.9997C4.33398 14.0332 14.0342 4.33301 26.0007 4.33301C37.9672 4.33301 47.6673 14.0332 47.6673 25.9997C47.6673 37.9662 37.9672 47.6663 26.0007 47.6663ZM15.1673 25.9997C15.1673 28.8729 16.3087 31.6284 18.3403 33.66C20.372 35.6916 23.1275 36.833 26.0007 36.833C28.8738 36.833 31.6293 35.6916 33.661 33.66C35.6926 31.6284 36.834 28.8729 36.834 25.9997H32.5007C32.5007 27.7236 31.8158 29.3769 30.5968 30.5959C29.3779 31.8149 27.7246 32.4997 26.0007 32.4997C24.2767 32.4997 22.6234 31.8149 21.4045 30.5959C20.1855 29.3769 19.5007 27.7236 19.5007 25.9997H15.1673Z" fill="url(#paint0_linear_556_157)"/>
<defs>
<linearGradient id="paint0_linear_556_157" x1="26.0007" y1="4.33301" x2="26.0007" y2="47.6663" gradientUnits="userSpaceOnUse">
<stop stop-color="#B7D8AF"/>
<stop offset="1" stop-color="#85B679"/>
</linearGradient>
</defs>
</svg>
