<svg width="31" height="31" viewBox="0 0 31 31" fill="none" xmlns="http://www.w3.org/2000/svg">
<circle cx="15.5" cy="15.5" r="15.5" fill="#0E1F3E"/>
<g clip-path="url(#clip0_259_169)">
<path d="M16.8189 11.3713L16.7995 11.6102C16.6768 12.3752 15.9858 12.9304 15.1979 12.8755C14.4099 12.8174 13.8061 12.1622 13.7964 11.3875L13.8158 11.1486C13.9385 10.3836 14.6328 9.82839 15.4207 9.8865C16.2086 9.9446 16.8125 10.5934 16.8222 11.3713H16.8189Z" fill="white"/>
<path d="M20.1031 10.6967C19.3474 10.4837 18.9567 9.38944 19.4055 8.73741C19.7026 8.30164 19.5638 8.05633 19.2796 7.73031C18.9761 7.3817 18.6919 7.31068 18.2721 7.54632C17.6392 7.89816 16.4831 7.37524 16.3346 6.62637C16.2183 6.02598 15.8599 6.0389 15.411 6.00339C14.9331 5.96465 14.7716 6.21966 14.6586 6.61346C14.5456 7.01049 13.6737 7.50436 13.0989 7.48499C12.9891 7.44303 12.7857 7.41398 12.6565 7.29777C12.2012 6.89751 11.9041 7.16866 11.5618 7.47853C11.2098 7.79164 11.2453 8.06924 11.4552 8.4469C11.804 9.05374 11.2453 10.2448 10.5059 10.3707C10.0602 10.445 9.96011 10.6612 9.92459 10.9485L9.90845 11.4521C9.92782 11.7393 10.0118 11.9621 10.4445 12.0654C11.1775 12.2429 11.649 13.4727 11.2615 14.0537C11.0193 14.412 10.9709 14.6896 11.297 15.0253C11.6135 15.3546 11.8912 15.6515 12.3788 15.2803C12.5144 15.1738 12.7211 15.1609 12.8341 15.1222C13.4057 15.148 14.242 15.7 14.326 16.1002C14.4132 16.5069 14.5553 16.7684 15.0397 16.7652C15.4853 16.7652 15.8437 16.7974 16.002 16.2067C16.1989 15.4676 17.3873 15.0318 17.9944 15.4224C18.398 15.6903 18.6854 15.6419 19.0148 15.3126C19.3184 15.0092 19.4734 14.7703 19.2086 14.3184C18.8146 13.6309 19.2764 12.5721 20.0449 12.414C20.4615 12.3236 20.6294 12.1461 20.694 11.8297L20.7101 11.3262C20.6682 11.0066 20.5132 10.8194 20.1063 10.7L20.1031 10.6967ZM18.0105 11.6877C17.8426 13.0757 16.6349 14.1248 15.214 14.0796C13.79 14.0311 12.6597 12.8982 12.5855 11.5005L12.6016 11.0679C12.7728 9.68318 13.9805 8.63089 15.4013 8.68254C16.8254 8.73418 17.9556 9.86394 18.0299 11.2616L18.0105 11.6909V11.6877Z" fill="white"/>
<path d="M16.8189 11.3713L16.7995 11.6102C16.6768 12.3752 15.9858 12.9304 15.1979 12.8755C14.4099 12.8174 13.8061 12.1622 13.7964 11.3875L13.8158 11.1486C13.9385 10.3836 14.6328 9.82839 15.4207 9.8865C16.2086 9.9446 16.8125 10.5934 16.8222 11.3713H16.8189Z" fill="white"/>
<path d="M16.8189 11.3713L16.7995 11.6102C16.6768 12.3752 15.9858 12.9304 15.1979 12.8755C14.4099 12.8174 13.8061 12.1622 13.7964 11.3875L13.8158 11.1486C13.9385 10.3836 14.6328 9.82839 15.4207 9.8865C16.2086 9.9446 16.8125 10.5934 16.8222 11.3713H16.8189Z" fill="white"/>
<path d="M16.0472 20.0348C15.9762 19.6636 15.9051 19.2892 15.8309 18.918C15.8115 18.8211 15.7598 18.7792 15.6662 18.7824C15.5467 18.7824 15.4272 18.7856 15.3077 18.7824C15.1883 18.7824 15.0688 18.7824 14.9493 18.7824C14.8556 18.7824 14.804 18.8211 14.7846 18.918C14.7136 19.2892 14.6393 19.6636 14.5682 20.0348C14.5618 20.0671 14.5553 20.1091 14.5682 20.1381C14.7846 20.6513 15.0042 21.1614 15.227 21.6714C15.2399 21.7036 15.2722 21.7262 15.3077 21.7262C15.3433 21.7262 15.3723 21.7069 15.3885 21.6714C15.6081 21.1614 15.8276 20.6481 16.0472 20.1381C16.0601 20.1091 16.0537 20.0671 16.0472 20.0348Z" fill="white"/>
<path d="M15.7694 17.4427C15.6144 17.4427 15.4626 17.4395 15.3076 17.4395C15.1526 17.4395 15.0008 17.4395 14.8458 17.4427C14.6941 17.4427 14.594 17.5363 14.6101 17.6815C14.6295 17.8688 14.665 18.0592 14.7231 18.24C14.7748 18.3885 14.904 18.4724 15.0686 18.4788C15.1462 18.4788 15.2269 18.4788 15.3044 18.4788C15.3819 18.4788 15.4626 18.4788 15.5401 18.4788C15.7048 18.4724 15.8372 18.3917 15.8856 18.24C15.947 18.0624 15.9793 17.872 15.9987 17.6815C16.0148 17.5363 15.9147 17.4427 15.7629 17.4427H15.7694Z" fill="white"/>
<path d="M22.5992 23.0301L22.583 22.8881C22.5798 22.8203 22.5701 22.7493 22.5604 22.6848C22.4668 21.8907 22.1309 20.2832 22.0567 19.5795C22.047 19.4988 22.0405 19.4246 22.0276 19.3536C21.9275 18.7338 21.6853 18.5046 20.9426 18.2981C19.99 18.0301 19.0309 17.7719 18.0815 17.5105C17.9362 17.4685 17.7909 17.4298 17.6488 17.391C17.539 17.3491 17.4292 17.3039 17.3194 17.2651C17.3194 17.291 17.3194 17.3168 17.3162 17.3426C17.2129 19.4472 16.3862 21.3032 15.3109 23.127C14.2355 21.3065 13.4089 19.4472 13.3055 17.3426C13.3055 17.3168 13.3055 17.291 13.3023 17.2651C13.1893 17.3071 13.0795 17.3491 12.9729 17.391C12.8308 17.4298 12.6855 17.4685 12.5402 17.5105C11.5908 17.7719 10.6317 18.0334 9.67913 18.2981C8.93318 18.5046 8.69422 18.7371 8.59411 19.3536C8.58442 19.4246 8.57474 19.4988 8.56505 19.5795C8.49078 20.2832 8.15494 21.8939 8.06129 22.6848C8.05161 22.7525 8.04515 22.8236 8.03869 22.8881L8.02254 23.0301C7.9289 23.8178 8.22275 24.2632 9.07526 24.4827C11.0418 24.983 13.002 25.4769 14.9718 25.9578C15.0784 25.9837 15.1946 25.9966 15.3141 25.9966C15.4336 25.9966 15.5498 25.9837 15.6564 25.9578C17.6262 25.4769 19.5863 24.983 21.5529 24.4827C22.4054 24.2632 22.6993 23.8178 22.6056 23.0301H22.5992Z" fill="#9DADC2"/>
</g>
<defs>
<clipPath id="clip0_259_169">
<rect width="14.6154" height="20" fill="white" transform="translate(8 6)"/>
</clipPath>
</defs>
</svg>
