<svg width="12" height="12" viewBox="0 0 12 12" fill="none" xmlns="http://www.w3.org/2000/svg">
<path d="M10.9993 5.9999V9.9999C10.9993 10.2651 10.8939 10.5195 10.7064 10.707C10.5188 10.8945 10.2645 10.9999 9.99927 10.9999H1.99927C1.73405 10.9999 1.4797 10.8945 1.29216 10.707C1.10462 10.5195 0.999268 10.2651 0.999268 9.9999V5.9999C0.866659 5.9999 0.739482 5.94722 0.645714 5.85345C0.551946 5.75969 0.499268 5.63251 0.499268 5.4999V3.9999C0.499268 3.73468 0.604624 3.48033 0.792161 3.29279C0.979697 3.10526 1.23405 2.9999 1.49927 2.9999H3.08427C3.02776 2.83927 2.99901 2.67018 2.99927 2.4999C2.99927 2.10208 3.1573 1.72055 3.43861 1.43924C3.71991 1.15794 4.10144 0.999901 4.49927 0.999901C4.99927 0.999901 5.43927 1.2499 5.71427 1.6199V1.6149L5.99927 1.9999L6.28427 1.6149V1.6199C6.55927 1.2499 6.99927 0.999901 7.49927 0.999901C7.89709 0.999901 8.27862 1.15794 8.55993 1.43924C8.84123 1.72055 8.99927 2.10208 8.99927 2.4999C8.99952 2.67018 8.97078 2.83927 8.91427 2.9999H10.4993C10.7645 2.9999 11.0188 3.10526 11.2064 3.29279C11.3939 3.48033 11.4993 3.73468 11.4993 3.9999V5.4999C11.4993 5.63251 11.4466 5.75969 11.3528 5.85345C11.2591 5.94722 11.1319 5.9999 10.9993 5.9999ZM1.99927 9.9999H5.49927V5.9999H1.99927V9.9999ZM9.99927 9.9999V5.9999H6.49927V9.9999H9.99927ZM4.49927 1.9999C4.36666 1.9999 4.23948 2.05258 4.14571 2.14635C4.05195 2.24012 3.99927 2.36729 3.99927 2.4999C3.99927 2.63251 4.05195 2.75969 4.14571 2.85345C4.23948 2.94722 4.36666 2.9999 4.49927 2.9999C4.63188 2.9999 4.75905 2.94722 4.85282 2.85345C4.94659 2.75969 4.99927 2.63251 4.99927 2.4999C4.99927 2.36729 4.94659 2.24012 4.85282 2.14635C4.75905 2.05258 4.63188 1.9999 4.49927 1.9999ZM7.49927 1.9999C7.36666 1.9999 7.23948 2.05258 7.14571 2.14635C7.05195 2.24012 6.99927 2.36729 6.99927 2.4999C6.99927 2.63251 7.05195 2.75969 7.14571 2.85345C7.23948 2.94722 7.36666 2.9999 7.49927 2.9999C7.63188 2.9999 7.75905 2.94722 7.85282 2.85345C7.94659 2.75969 7.99927 2.63251 7.99927 2.4999C7.99927 2.36729 7.94659 2.24012 7.85282 2.14635C7.75905 2.05258 7.63188 1.9999 7.49927 1.9999ZM1.49927 3.9999V4.9999H5.49927V3.9999H1.49927ZM6.49927 3.9999V4.9999H10.4993V3.9999H6.49927Z" fill="white"/>
</svg>
