<svg width="12" height="12" viewBox="0 0 12 12" fill="none" xmlns="http://www.w3.org/2000/svg">
<path d="M7.95938 4.00021C7.95938 2.91779 7.0818 2.04035 5.99941 2.04025C4.91694 2.04025 4.03945 2.91773 4.03945 4.00021C4.03956 5.0826 4.917 5.96017 5.99941 5.96017C7.08174 5.96006 7.95927 5.08253 7.95938 4.00021ZM9.03926 4.00021C9.03915 5.679 7.67821 7.03995 5.99941 7.04005C4.32053 7.04005 2.95909 5.67906 2.95898 4.00021C2.95898 2.32126 4.32047 0.959778 5.99941 0.959778C7.67827 0.959883 9.03926 2.32133 9.03926 4.00021Z" fill="white"/>
<path d="M9.45938 10.5002C9.45938 9.58256 9.09458 8.70221 8.4457 8.05333C7.79688 7.40456 6.91695 7.0403 5.99941 7.04025C5.08177 7.04025 4.20141 7.40446 3.55254 8.05333C2.90366 8.70221 2.53945 9.58256 2.53945 10.5002C2.53935 10.7984 2.29739 11.0399 1.99922 11.0399C1.70105 11.0399 1.45909 10.7984 1.45898 10.5002C1.45898 9.29612 1.93765 8.14127 2.78906 7.28986C3.64048 6.43844 4.79533 5.95978 5.99941 5.95978C7.20343 5.95983 8.3584 6.43849 9.20977 7.28986C10.0611 8.14125 10.5393 9.29622 10.5393 10.5002C10.5392 10.7984 10.2972 11.0399 9.99902 11.0399C9.70094 11.0398 9.45948 10.7983 9.45938 10.5002Z" fill="white"/>
</svg>
