<svg width="18" height="18" viewBox="0 0 18 18" fill="none" xmlns="http://www.w3.org/2000/svg">
<path d="M12.75 1.5C12.3375 1.5 12 1.8375 12 2.25V3H6V2.25C6 1.8375 5.6625 1.5 5.25 1.5C4.8375 1.5 4.5 1.8375 4.5 2.25V3H3.75C2.9175 3 2.2575 3.675 2.2575 4.5L2.25 15C2.25 15.3978 2.40804 15.7794 2.68934 16.0607C2.97064 16.342 3.35218 16.5 3.75 16.5H14.25C15.075 16.5 15.75 15.825 15.75 15V4.5C15.75 3.675 15.075 3 14.25 3H13.5V2.25C13.5 1.8375 13.1625 1.5 12.75 1.5ZM14.25 15H3.75V7.5H14.25V15ZM8.25 9.75C8.25 9.3375 8.5875 9 9 9C9.4125 9 9.75 9.3375 9.75 9.75C9.75 10.1625 9.4125 10.5 9 10.5C8.5875 10.5 8.25 10.1625 8.25 9.75ZM5.25 9.75C5.25 9.3375 5.5875 9 6 9C6.4125 9 6.75 9.3375 6.75 9.75C6.75 10.1625 6.4125 10.5 6 10.5C5.5875 10.5 5.25 10.1625 5.25 9.75ZM11.25 9.75C11.25 9.3375 11.5875 9 12 9C12.4125 9 12.75 9.3375 12.75 9.75C12.75 10.1625 12.4125 10.5 12 10.5C11.5875 10.5 11.25 10.1625 11.25 9.75ZM8.25 12.75C8.25 12.3375 8.5875 12 9 12C9.4125 12 9.75 12.3375 9.75 12.75C9.75 13.1625 9.4125 13.5 9 13.5C8.5875 13.5 8.25 13.1625 8.25 12.75ZM5.25 12.75C5.25 12.3375 5.5875 12 6 12C6.4125 12 6.75 12.3375 6.75 12.75C6.75 13.1625 6.4125 13.5 6 13.5C5.5875 13.5 5.25 13.1625 5.25 12.75ZM11.25 12.75C11.25 12.3375 11.5875 12 12 12C12.4125 12 12.75 12.3375 12.75 12.75C12.75 13.1625 12.4125 13.5 12 13.5C11.5875 13.5 11.25 13.1625 11.25 12.75Z" fill="#798AA2"/>
</svg>
