<svg width="12" height="12" viewBox="0 0 12 12" fill="none" xmlns="http://www.w3.org/2000/svg">
<path d="M7.16616 1.53799C7.14576 1.53804 7.12548 1.54306 7.10815 1.55381L6.64175 1.85439L6.64058 1.85498C6.4493 1.97719 6.22713 2.04244 6.00015 2.04248C5.77307 2.04248 5.55048 1.97725 5.35913 1.85498L5.35796 1.85439L4.89272 1.55498L4.86401 1.54209C4.85416 1.53924 4.84391 1.538 4.83355 1.53799C4.81261 1.53799 4.79202 1.54374 4.77437 1.55498L4.30855 1.85439L4.30737 1.85498C4.11602 1.97725 3.89344 2.04248 3.66636 2.04248C3.43936 2.04246 3.21722 1.97718 3.02593 1.85498L3.02417 1.85439L2.56011 1.55557C2.55383 1.55181 2.54702 1.54921 2.54019 1.54678V10.4524C2.54763 10.4498 2.55511 10.4473 2.56187 10.4431L3.02417 10.146L3.02593 10.1448C3.21719 10.0227 3.43941 9.95793 3.66636 9.95791C3.86511 9.95791 4.06025 10.0077 4.23413 10.1021L4.30737 10.1448L4.30855 10.1454L4.77437 10.4448L4.80249 10.4577C4.81251 10.4607 4.823 10.4624 4.83355 10.4624C4.84393 10.4624 4.85414 10.4606 4.86401 10.4577L4.89272 10.4448L5.35796 10.146L5.35913 10.1448C5.55047 10.0226 5.77308 9.95791 6.00015 9.95791C6.22709 9.95795 6.44932 10.0227 6.64058 10.1448L6.64175 10.146L7.10698 10.4448C7.12459 10.4561 7.14527 10.4623 7.16616 10.4624C7.18715 10.4624 7.20824 10.4561 7.22593 10.4448L7.69175 10.1454L7.69292 10.1448C7.88418 10.0227 8.1064 9.95793 8.33335 9.95791C8.5321 9.95791 8.72724 10.0077 8.90112 10.1021L8.97437 10.1448L8.97554 10.146L9.43726 10.4431C9.44423 10.4475 9.45241 10.4503 9.46011 10.453V1.54678C9.45294 1.5493 9.44556 1.55159 9.43901 1.55557L8.97554 1.85439L8.97437 1.85498C8.78302 1.97725 8.56043 2.04248 8.33335 2.04248C8.10636 2.04246 7.88421 1.97718 7.69292 1.85498L7.69175 1.85439L7.22593 1.55498L7.19722 1.54209C7.18728 1.5392 7.17662 1.53799 7.16616 1.53799ZM6.49995 7.46006C6.79818 7.46006 7.04019 7.70206 7.04019 8.00029C7.04004 8.29841 6.7981 8.53994 6.49995 8.53994H3.99976C3.7017 8.53984 3.46025 8.29834 3.46011 8.00029C3.46011 7.70212 3.70161 7.46016 3.99976 7.46006H6.49995ZM7.99995 5.46025C8.29814 5.46025 8.54012 5.70173 8.54019 5.9999C8.54019 6.29814 8.29819 6.54014 7.99995 6.54014H3.99976C3.70161 6.54003 3.46011 6.29807 3.46011 5.9999C3.46018 5.70179 3.70165 5.46036 3.99976 5.46025H7.99995ZM6.99976 3.45986C7.29799 3.45986 7.53999 3.70186 7.53999 4.0001C7.53995 4.2983 7.29797 4.53975 6.99976 4.53975H3.99976C3.70163 4.53964 3.46014 4.29824 3.46011 4.0001C3.46011 3.70193 3.70161 3.45997 3.99976 3.45986H6.99976ZM10.54 10.4999C10.54 10.7757 10.4303 11.0402 10.2353 11.2353C10.0408 11.4297 9.77727 11.5387 9.5023 11.5394L9.50288 11.5399C9.5021 11.5399 9.50132 11.5394 9.50054 11.5394L9.49995 11.5399V11.5394C9.27431 11.54 9.05282 11.4774 8.86187 11.3571L8.85776 11.3542L8.39253 11.0548C8.37489 11.0436 8.35425 11.0378 8.33335 11.0378C8.31243 11.0378 8.29181 11.0435 8.27417 11.0548L7.80835 11.3542L7.80718 11.3548C7.61583 11.4771 7.39324 11.5423 7.16616 11.5423C6.93918 11.5422 6.717 11.477 6.52573 11.3548L6.52456 11.3542L6.05933 11.0548L6.03062 11.0419C6.02078 11.039 6.01049 11.0378 6.00015 11.0378C5.97928 11.0378 5.95859 11.0436 5.94097 11.0548L5.47573 11.3542L5.47397 11.3548C5.28266 11.477 5.06057 11.5423 4.83355 11.5423C4.60646 11.5423 4.38388 11.4771 4.19253 11.3548L4.19136 11.3542L3.72554 11.0548C3.7079 11.0436 3.68726 11.0378 3.66636 11.0378C3.64544 11.0378 3.62482 11.0435 3.60718 11.0548L3.14194 11.3542L3.13784 11.3571C2.94683 11.4774 2.72546 11.5401 2.49976 11.5394V11.5399L2.49858 11.5394L2.49683 11.5399V11.5394C2.22213 11.5385 1.95871 11.4296 1.7644 11.2353C1.56947 11.0402 1.45972 10.7757 1.45972 10.4999V1.4999C1.45975 1.22414 1.56942 0.959555 1.7644 0.764551L1.84058 0.69541C2.02485 0.544386 2.25656 0.46117 2.49683 0.460449H2.498L2.49976 0.459863V0.460449C2.69717 0.459823 2.89125 0.507813 3.0646 0.600488L3.13784 0.643262L3.14194 0.645605L3.60718 0.94502C3.62484 0.956305 3.6454 0.96258 3.66636 0.962598C3.6873 0.962598 3.70787 0.956276 3.72554 0.94502L4.19136 0.645605L4.19253 0.64502C4.38388 0.522746 4.60646 0.45752 4.83355 0.45752C5.06053 0.457537 5.28269 0.522831 5.47397 0.64502L5.47573 0.645605L5.94097 0.94502L5.96909 0.95791C5.97907 0.960825 5.98965 0.962598 6.00015 0.962598C6.02107 0.962561 6.04169 0.956287 6.05933 0.94502L6.52456 0.645605L6.52573 0.64502C6.71699 0.522809 6.93919 0.457575 7.16616 0.45752C7.39323 0.45752 7.61583 0.522754 7.80718 0.64502L7.80835 0.645605L8.27417 0.94502C8.29183 0.956304 8.31239 0.962578 8.33335 0.962598C8.35429 0.962598 8.37487 0.956274 8.39253 0.94502L8.85776 0.645605L8.86187 0.643262C9.05282 0.522982 9.27431 0.459771 9.49995 0.460449H9.50112L9.50288 0.459863L9.5023 0.460449C9.74279 0.460991 9.97467 0.544283 10.1591 0.69541L10.2353 0.764551L10.3044 0.840723C10.4561 1.02577 10.54 1.25855 10.54 1.4999V10.4999Z" fill="white"/>
</svg>
