<svg width="16" height="16" viewBox="0 0 16 16" fill="none" xmlns="http://www.w3.org/2000/svg">
<path d="M7.46696 0.370552C7.57831 0.0744257 7.9072 -0.0746731 8.20208 0.037151C8.3557 0.0951339 8.47633 0.217312 8.53406 0.370552L10.259 4.95534C10.3383 5.16553 10.5311 5.30945 10.7538 5.32395L15.4677 5.64285C15.7821 5.66356 16.0203 5.93691 15.9986 6.25271C15.9883 6.40491 15.9182 6.54676 15.8038 6.6472L12.1251 9.86835C11.9643 10.0092 11.8952 10.2276 11.9457 10.4358L13.1211 15.2908C13.1953 15.5983 13.0077 15.9079 12.7014 15.9835C12.5468 16.0218 12.3829 15.9928 12.2499 15.9037L8.31549 13.2738C8.12372 13.1454 7.87421 13.1454 7.68347 13.2738L3.74911 15.9037C3.48723 16.0787 3.13256 16.0083 2.95832 15.7443C2.86965 15.6107 2.84078 15.4461 2.87893 15.2908L4.05429 10.4358C4.10481 10.2276 4.03573 10.0092 3.87489 9.86835L0.196222 6.6472C-0.0419432 6.43908 -0.0666876 6.07772 0.140547 5.83854C0.240556 5.72361 0.381805 5.65321 0.533365 5.64285L5.24718 5.32395C5.46988 5.30841 5.66371 5.16449 5.74207 4.95534L7.46696 0.370552Z" fill="#FB5E14"/>
</svg>
