<svg width="12" height="12" viewBox="0 0 12 12" fill="none" xmlns="http://www.w3.org/2000/svg">
<path d="M9.05104 9.66641C9.05104 9.35831 9.04969 9.20574 9.0399 9.10625L9.02701 9.02071C8.95952 8.70596 8.77682 8.52289 8.61686 8.46934V8.46875C8.57588 8.4553 8.51014 8.45 8.16744 8.45H3.83444C3.48903 8.45 3.42569 8.45582 3.38561 8.46934L3.38444 8.46992C3.24455 8.51689 3.08759 8.66291 3.00533 8.90938L2.97487 9.02129C2.95337 9.12196 2.95084 9.25628 2.95084 9.667C2.95084 9.88474 2.9535 9.92149 2.95787 9.9418L2.97662 9.99922C2.98389 10.0149 2.99178 10.0272 2.99889 10.0361L3.01061 10.0479C3.04134 10.0496 3.0846 10.0502 3.16705 10.0502H8.83424C8.9168 10.0502 8.95993 10.0496 8.99069 10.0479L8.99127 10.0473C8.99413 10.0447 8.99858 10.0416 9.00299 10.0361C9.01721 10.0183 9.03427 9.98705 9.04401 9.9418L9.04928 9.87852C9.05047 9.83948 9.05104 9.77558 9.05104 9.66641ZM9.95104 9.66641C9.95104 9.83653 9.95312 9.99336 9.9235 10.1311C9.85208 10.4628 9.63099 10.7862 9.27252 10.9057L9.27194 10.9051C9.12134 10.9554 8.95285 10.9502 8.83424 10.9502H3.16705C3.04818 10.9502 2.87952 10.9551 2.72877 10.9045V10.9057C2.3704 10.7861 2.14921 10.4628 2.0778 10.1311C2.0482 9.9934 2.05084 9.83715 2.05084 9.667C2.05084 9.30297 2.04832 9.04993 2.09479 8.83262C2.21232 8.28443 2.56908 7.79365 3.09908 7.61621V7.6168C3.25999 7.56272 3.43857 7.55175 3.63346 7.55H8.36783C8.56307 7.55172 8.7416 7.56209 8.90221 7.61563H8.9028C9.43277 7.79307 9.78956 8.28387 9.90709 8.83203V8.83262C9.9535 9.04986 9.95104 9.30257 9.95104 9.66641Z" fill="white"/>
<path d="M6.00516 1.05C6.2368 1.0524 6.58098 1.11161 6.92859 1.25157C7.27729 1.39198 7.6685 1.62938 7.94637 2.0168L8.05418 2.17793C8.29216 2.56128 8.4316 2.99874 8.45848 3.45117L8.45906 3.45879C8.46752 3.65822 8.4528 3.87114 8.39871 4.08223C8.31192 4.42122 8.09845 4.91335 7.66687 5.51426C7.66355 5.51889 7.65983 5.52324 7.65633 5.52774C7.61843 5.5764 7.58763 5.63027 7.56375 5.68711C7.44921 6.01912 7.4372 6.6501 7.69148 7.91074C7.74062 8.15435 7.58293 8.39185 7.33933 8.44102C7.09571 8.49016 6.85821 8.33249 6.80906 8.08887C6.55207 6.81489 6.50931 5.9598 6.71941 5.37305C6.72153 5.36713 6.72408 5.3613 6.72644 5.35547C6.77963 5.22464 6.85013 5.10161 6.93562 4.98926L7.06863 4.79649C7.35472 4.36315 7.48024 4.041 7.52683 3.85899C7.55474 3.75008 7.56519 3.62745 7.55965 3.49688H7.55906C7.53722 3.15367 7.41924 2.82335 7.21746 2.54473L7.2157 2.54297C7.06873 2.33738 6.84183 2.18683 6.59285 2.08653C6.34559 1.98696 6.11453 1.95204 6.00047 1.95C5.88762 1.95197 5.66246 1.98645 5.42098 2.08535C5.1786 2.18467 4.95433 2.33436 4.80574 2.54239L4.80457 2.54473C4.60129 2.82542 4.48236 3.15854 4.4618 3.5045C4.45592 3.62344 4.46677 3.74262 4.49461 3.8584L4.5198 3.94512C4.59104 4.16735 4.7526 4.5251 5.08582 4.98867H5.08523C5.17097 5.1012 5.24169 5.22437 5.295 5.35547C5.29733 5.36121 5.29994 5.36722 5.30203 5.37305C5.41254 5.68086 5.44399 6.04804 5.42215 6.4793C5.40016 6.91341 5.32199 7.44217 5.19129 8.08887C5.14205 8.33247 4.90462 8.49026 4.66101 8.44102C4.41751 8.39171 4.26023 8.15429 4.30945 7.91074C4.4362 7.28364 4.50456 6.8039 4.52332 6.4336C4.5418 6.06841 4.50903 5.83753 4.45711 5.68711C4.43324 5.63038 4.40295 5.57632 4.36512 5.52774C4.36169 5.52333 4.35842 5.5188 4.35515 5.51426C3.92308 4.91318 3.71046 4.42084 3.62332 4.08282L3.62156 4.07754C3.5717 3.87391 3.5521 3.66405 3.56297 3.45469V3.45117C3.59368 2.93411 3.77126 2.43632 4.07508 2.0168H4.07566C4.35186 1.63152 4.73514 1.39339 5.07996 1.25215C5.42339 1.1115 5.76359 1.05237 5.99578 1.05H6.00516Z" fill="white"/>
<path d="M7.00132 6.0501C7.24985 6.0501 7.45132 6.25157 7.45132 6.5001C7.45132 6.74863 7.24985 6.9501 7.00132 6.9501H5.00151C4.75299 6.9501 4.55151 6.74863 4.55151 6.5001C4.55151 6.25157 4.75299 6.0501 5.00151 6.0501H7.00132Z" fill="white"/>
</svg>
