<svg width="40" height="40" viewBox="0 0 40 40" fill="none" xmlns="http://www.w3.org/2000/svg">
<path d="M20 4C21.4871 4.00014 23.0889 5.21958 22.996 7.03223L22.998 7.0332L22.3173 25.0498L22.3144 25.0488C22.2984 25.648 22.0506 26.2126 21.6269 26.6279C21.1898 27.0562 20.6041 27.2919 20 27.292C19.3957 27.292 18.8092 27.0563 18.372 26.6279C17.9485 26.2126 17.7005 25.6479 17.6845 25.0488L17.6826 25.0498L17.0009 7.0332L17.0039 7.03223C16.9109 5.21946 18.5127 4 20 4Z" fill="white"/>
<path d="M20.3008 30.7059C21.7908 30.8547 22.998 32.0952 22.998 33.663C22.998 35.335 21.6247 36.6344 20 36.6346C18.375 36.6346 17 35.3352 17 33.663C17 31.9908 18.375 30.6913 20 30.6913L20.3008 30.7059Z" fill="white"/>
</svg>
