<svg width="20" height="20" viewBox="0 0 20 20" fill="none" xmlns="http://www.w3.org/2000/svg">
<path d="M7.5013 14.1667V12.5M10.0013 14.1667V10.8333M12.5013 14.1667V9.16667M14.168 17.5H5.83464C5.39261 17.5 4.96868 17.3244 4.65612 17.0118C4.34356 16.6993 4.16797 16.2754 4.16797 15.8333V4.16667C4.16797 3.72464 4.34356 3.30072 4.65612 2.98816C4.96868 2.67559 5.39261 2.5 5.83464 2.5H10.4896C10.7106 2.50005 10.9226 2.58788 11.0788 2.74417L15.5905 7.25583C15.7468 7.41208 15.8346 7.624 15.8346 7.845V15.8333C15.8346 16.2754 15.659 16.6993 15.3465 17.0118C15.0339 17.3244 14.61 17.5 14.168 17.5Z" stroke="white" stroke-width="1.5" stroke-linecap="round" stroke-linejoin="round"/>
</svg>
