<svg width="12" height="12" viewBox="0 0 12 12" fill="none" xmlns="http://www.w3.org/2000/svg">
<path d="M7.66557 1.5C8.47948 1.5 9.23526 1.58904 9.80349 1.74273C10.0841 1.81864 10.3481 1.91795 10.5534 2.04929C10.7405 2.16893 11 2.39574 11 2.74767V6.57388C11 6.93417 10.7135 7.15639 10.5414 7.26232C10.3372 7.38801 10.0738 7.48729 9.79032 7.56522C9.33677 7.6899 8.76443 7.77619 8.14011 7.80743V9.22826C8.14011 9.57895 7.88593 9.80897 7.69519 9.93344C7.48804 10.0686 7.22106 10.171 6.93702 10.2494C6.3622 10.4081 5.5978 10.5 4.77441 10.5C3.95098 10.5 3.18612 10.4081 2.61126 10.2494C2.32732 10.171 2.06076 10.0686 1.85363 9.93344C1.66275 9.80886 1.40871 9.57897 1.40871 9.22826V7.33922L1.412 7.27435C1.44041 6.96978 1.66497 6.76796 1.83827 6.65392C1.71918 6.61013 1.60918 6.56319 1.5124 6.51058C1.40206 6.4506 1.28593 6.37272 1.19201 6.27046C1.09677 6.16673 1 6.0099 1 5.80853V3.89543L1.00384 3.82533C1.03957 3.48234 1.33224 3.27874 1.50911 3.18083C1.73409 3.0563 2.02585 2.96043 2.34244 2.88631C2.88225 2.75994 3.57686 2.67795 4.33827 2.65508C4.3785 2.3556 4.60762 2.15811 4.7777 2.04929C4.98303 1.91795 5.24705 1.81865 5.52765 1.74273C6.09586 1.58903 6.85166 1.50001 7.66557 1.5ZM6.93318 8.34469C6.3598 8.49809 5.59672 8.58637 4.77441 8.58637C3.95215 8.58637 3.18903 8.49806 2.61565 8.34469C2.54927 8.32693 2.48373 8.30757 2.41979 8.28714V9.13357C2.42152 9.13473 2.42287 9.13654 2.42473 9.13776C2.50698 9.19143 2.6592 9.25904 2.89269 9.32347C3.35292 9.45046 4.01841 9.53534 4.77441 9.53534C5.53039 9.53533 6.19591 9.45051 6.65613 9.32347C6.8896 9.25902 7.04182 9.19144 7.12409 9.13776C7.12574 9.13669 7.12695 9.13512 7.12848 9.1341V8.28714C7.06465 8.30754 6.99945 8.32696 6.93318 8.34469ZM4.77441 7.05621C4.01737 7.05621 3.35053 7.13883 2.88885 7.26232C2.79449 7.28757 2.71342 7.31406 2.64472 7.33922C2.71342 7.36439 2.79449 7.39088 2.88885 7.41612C3.35053 7.53962 4.01737 7.62224 4.77441 7.62224C5.53151 7.62223 6.19831 7.53964 6.65997 7.41612C6.7542 7.39091 6.83493 7.36435 6.90356 7.33922C6.83493 7.31409 6.7542 7.28753 6.65997 7.26232C6.19831 7.13881 5.53151 7.05621 4.77441 7.05621ZM9.80788 5.65159C9.24086 5.80986 8.48436 5.90793 7.66557 5.90793C6.8468 5.90792 6.07624 5.80982 5.49583 5.65264C5.44393 5.63858 5.39311 5.6226 5.34277 5.60713V6.10672C5.94496 6.13758 6.49459 6.21642 6.93318 6.33376C7.21637 6.40952 7.48237 6.50896 7.68916 6.63979C7.76858 6.69006 7.86065 6.76052 7.94152 6.85114C8.56035 6.83027 9.10949 6.74884 9.50998 6.63875C9.74252 6.57482 9.89967 6.50776 9.98837 6.45408V5.59614C9.92934 5.61541 9.86923 5.63447 9.80788 5.65159ZM2.01163 5.67199C2.01213 5.67227 2.01277 5.67276 2.01328 5.67304C2.12249 5.73237 2.3124 5.80285 2.58712 5.86922C3.03579 5.97758 3.64303 6.05775 4.33169 6.08265V5.13526C3.57287 5.11211 2.88069 5.03108 2.34244 4.90508C2.22802 4.87829 2.11761 4.84631 2.01163 4.81353V5.67199ZM9.80349 3.75262C9.23526 3.9063 8.47946 3.99483 7.66557 3.99483C6.85166 3.99482 6.09586 3.90632 5.52765 3.75262C5.46492 3.73565 5.40336 3.71657 5.34277 3.69716V4.57132C5.43908 4.61884 5.58115 4.67335 5.77233 4.72512C6.24696 4.85364 6.92215 4.94378 7.66557 4.94379C8.40905 4.94379 9.06707 4.85361 9.5237 4.72617C9.7507 4.6628 9.90294 4.59662 9.98837 4.54412V3.69716C9.92783 3.71656 9.86617 3.73566 9.80349 3.75262ZM4.33169 3.62026C3.63994 3.64307 3.03209 3.71778 2.58383 3.82272C2.48295 3.84633 2.39414 3.87128 2.31666 3.89543C2.39415 3.91958 2.48293 3.94505 2.58383 3.96867C3.03208 4.07359 3.63999 4.14727 4.33169 4.17008V3.62026ZM7.66557 2.46466C6.91765 2.46467 6.25908 2.54704 5.8036 2.67025C5.70977 2.69564 5.62963 2.72243 5.56166 2.74767C5.62962 2.77291 5.70977 2.79972 5.8036 2.8251C6.25908 2.94831 6.91765 3.03068 7.66557 3.03069C8.41345 3.03069 9.07204 2.94829 9.52754 2.8251C9.62129 2.79974 9.70155 2.77289 9.76948 2.74767C9.70153 2.72245 9.62132 2.69562 9.52754 2.67025C9.07204 2.54705 8.41347 2.46466 7.66557 2.46466Z" fill="white"/>
</svg>
