<svg width="40" height="40" viewBox="0 0 40 40" fill="none" xmlns="http://www.w3.org/2000/svg">
<path d="M31.3185 9C32.0693 9 32.7171 9.31277 33.2228 9.84863C33.7344 10.3908 34.0001 11.0594 34.0002 11.8047C34.0002 12.5492 33.7342 13.2167 33.2228 13.7578L33.2238 13.7588L17.797 30.1504L17.7961 30.1514C17.2904 30.6872 16.6425 31 15.8918 31C15.1412 30.9999 14.4931 30.6872 13.9875 30.1514L6.75799 22.4902C6.24027 21.9416 5.98042 21.262 6.00115 20.5078C6.02141 19.7719 6.29491 19.1144 6.79998 18.5791C7.31319 18.0353 7.97145 17.7286 8.72869 17.7305C9.38755 17.7322 9.97165 17.9654 10.4504 18.3857L10.6496 18.5771L10.6525 18.5811L15.8947 24.1748L29.4142 9.84863C29.9199 9.31282 30.5679 9.00012 31.3185 9ZM7.31658 19.5273C7.3133 19.5322 7.31004 19.5371 7.30681 19.542C7.3382 19.4944 7.37218 19.448 7.40838 19.4023L7.31658 19.5273Z" fill="white"/>
</svg>
