<svg width="18" height="18" viewBox="0 0 18 18" fill="none" xmlns="http://www.w3.org/2000/svg">
<path d="M9 5.25C8.7875 5.25 8.60925 5.322 8.46525 5.466C8.32125 5.61 8.2495 5.788 8.25 6L8.25 9C8.25 9.2125 8.322 9.3905 8.466 9.534C8.61 9.6775 8.788 9.7495 9 9.75C9.212 9.7505 9.39 9.6785 9.534 9.534C9.678 9.3895 9.75 9.2115 9.75 9L9.75 6C9.75 5.7875 9.678 5.60925 9.534 5.46525C9.39 5.32125 9.212 5.2495 9 5.25ZM9 11.25C8.7875 11.25 8.60925 11.322 8.46525 11.466C8.32125 11.61 8.2495 11.788 8.25 12C8.2505 12.212 8.3225 12.39 8.466 12.534C8.6095 12.678 8.7875 12.75 9 12.75C9.2125 12.75 9.3905 12.678 9.534 12.534C9.6775 12.39 9.7495 12.212 9.75 12C9.7505 11.788 9.6785 11.6098 9.534 11.4653C9.3895 11.3208 9.2115 11.249 9 11.25ZM9 1.5C10.0375 1.5 11.0125 1.697 11.925 2.091C12.8375 2.485 13.6313 3.01925 14.3063 3.69375C14.9813 4.36825 15.5155 5.162 15.909 6.075C16.3025 6.988 16.4995 7.963 16.5 9C16.5005 10.037 16.3035 11.012 15.909 11.925C15.5145 12.838 14.9802 13.6318 14.3062 14.3063C13.6322 14.9808 12.8385 15.515 11.925 15.909C11.0115 16.303 10.0365 16.5 9 16.5C7.9635 16.5 6.9885 16.303 6.075 15.909C5.1615 15.515 4.36775 14.9808 3.69375 14.3063C3.01975 13.6318 2.48525 12.838 2.09025 11.925C1.69525 11.012 1.4985 10.037 1.5 9C1.5015 7.963 1.6985 6.988 2.091 6.075C2.4835 5.162 3.01775 4.36825 3.69375 3.69375C4.36975 3.01925 5.1635 2.48475 6.075 2.09025C6.9865 1.69575 7.9615 1.499 9 1.5Z" fill="#FB5E14"/>
</svg>
