<svg width="32" height="32" viewBox="0 0 32 32" fill="none" xmlns="http://www.w3.org/2000/svg">
<path d="M17.3332 26.333C19.0281 26.3329 20.6968 25.9159 22.1925 25.1189C23.6882 24.3218 24.9649 23.169 25.91 21.7622C26.8552 20.3554 27.4398 18.7377 27.6123 17.0517C27.7849 15.3657 27.5401 13.6631 26.8995 12.094C26.2589 10.5249 25.2422 9.13748 23.939 8.05395C22.6358 6.97042 21.0861 6.22407 19.4264 5.88067C17.7667 5.53727 16.0481 5.60737 14.4219 6.08478C12.7957 6.5622 11.3119 7.43228 10.1012 8.61834C9.9117 8.80399 9.80368 9.05733 9.80093 9.32263C9.79818 9.58793 9.90093 9.84346 10.0866 10.033C10.2722 10.2225 10.5256 10.3306 10.7909 10.3333C11.0562 10.3361 11.3117 10.2333 11.5012 10.0477C12.6734 8.89934 14.1584 8.1226 15.7702 7.81487C17.382 7.50713 19.0488 7.68208 20.5615 8.31779C22.0743 8.9535 23.3657 10.0217 24.2738 11.3884C25.182 12.7551 25.6664 14.3594 25.6664 16.0003C25.6664 17.6412 25.182 19.2456 24.2738 20.6123C23.3657 21.979 22.0743 23.0472 20.5615 23.6829C19.0488 24.3186 17.382 24.4935 15.7702 24.1858C14.1584 23.8781 12.6734 23.1013 11.5012 21.953C11.4087 21.8558 11.2976 21.7782 11.1745 21.7249C11.0513 21.6716 10.9187 21.6436 10.7846 21.6426C10.6504 21.6415 10.5174 21.6675 10.3934 21.719C10.2695 21.7705 10.1572 21.8463 10.0632 21.9421C9.96925 22.0379 9.89551 22.1516 9.84639 22.2765C9.79727 22.4013 9.77378 22.5348 9.77733 22.669C9.78088 22.8031 9.81138 22.9351 9.86703 23.0572C9.92268 23.1793 10.0023 23.289 10.1012 23.3797C12.031 25.2749 14.6284 26.3357 17.3332 26.333Z" fill="#798AA2"/>
<path d="M15.2942 19.2929C15.1176 19.4825 15.0214 19.7332 15.026 19.9922C15.0306 20.2513 15.1355 20.4985 15.3187 20.6817C15.5019 20.8649 15.7491 20.9699 16.0082 20.9745C16.2673 20.979 16.518 20.8829 16.7075 20.7062L20.7076 16.7062C20.8948 16.5187 21 16.2646 21 15.9996C21 15.7346 20.8948 15.4804 20.7076 15.2929L16.7076 11.2929C16.616 11.1946 16.5056 11.1158 16.3829 11.0612C16.2603 11.0065 16.1279 10.9771 15.9936 10.9748C15.8593 10.9724 15.7259 10.9971 15.6014 11.0474C15.4769 11.0977 15.3638 11.1725 15.2688 11.2675C15.1739 11.3625 15.099 11.4756 15.0487 11.6001C14.9984 11.7246 14.9737 11.858 14.9761 11.9923C14.9785 12.1265 15.0079 12.2589 15.0625 12.3816C15.1172 12.5043 15.196 12.6147 15.2942 12.7062L17.5875 14.9996L5.33422 14.9996C5.069 14.9996 4.81464 15.1049 4.62711 15.2924C4.43957 15.48 4.33422 15.7343 4.33422 15.9996C4.33422 16.2648 4.43957 16.5191 4.62711 16.7067C4.81464 16.8942 5.069 16.9996 5.33422 16.9996L17.5875 16.9996L15.2942 19.2929Z" fill="#798AA2"/>
</svg>
