<svg width="20" height="20" viewBox="0 0 20 20" fill="none" xmlns="http://www.w3.org/2000/svg">
<path d="M10.501 3C6.35893 3 3.00194 5.90937 3.00194 9.5C3.00194 10.9875 3.58488 12.35 4.55155 13.4469C4.11508 14.6781 3.207 15.7219 3.19235 15.7344C2.99901 15.9531 2.94629 16.2719 3.0576 16.5469C3.16891 16.8219 3.42376 17 3.70498 17C5.5065 17 6.92722 16.1969 7.77965 15.5531C8.62622 15.8375 9.54016 16 10.501 16C14.643 16 18 13.0906 18 9.5C18 5.90937 14.643 3 10.501 3ZM10.501 14.5C9.71885 14.5 8.94551 14.3719 8.2044 14.1219L7.53944 13.8969L6.96823 14.3281C6.54934 14.6438 5.97519 14.9969 5.28387 15.2344C5.49771 14.8562 5.7057 14.4312 5.86681 13.9781L6.17731 13.1L5.57388 12.4187C5.04367 11.8156 4.40801 10.8187 4.40801 9.5C4.40801 6.74375 7.14106 4.5 10.501 4.5C13.8609 4.5 16.5939 6.74375 16.5939 9.5C16.5939 12.2563 13.8609 14.5 10.501 14.5Z" fill="#94A3B8"/>
</svg>
