<svg width="20" height="20" viewBox="0 0 20 20" fill="none" xmlns="http://www.w3.org/2000/svg">
<path d="M7.48675 17.2192H4.74508C3.73508 17.2192 2.91675 16.4008 2.91675 15.3908V10.0125C2.91736 9.62069 3.0017 9.23354 3.1641 8.87697C3.3265 8.5204 3.56323 8.20265 3.85841 7.945L8.80008 3.64084C9.13284 3.35136 9.55903 3.19193 10.0001 3.19193C10.4411 3.19193 10.8673 3.35136 11.2001 3.64084L16.1417 7.94584C16.4368 8.20339 16.6735 8.521 16.8359 8.87742C16.9983 9.23384 17.0827 9.62083 17.0834 10.0125V15.3908C17.0834 15.8756 16.8909 16.3405 16.5482 16.6834C16.2055 17.0262 15.7407 17.2189 15.2559 17.2192H12.7417V11.735C12.7417 10.9783 12.1284 10.3642 11.3709 10.3642H8.85842C8.10092 10.3642 7.48758 10.9783 7.48758 11.735L7.48675 17.2192ZM7.48675 17.2192H12.7426" stroke="#94A3B8" stroke-width="1.8" stroke-linejoin="round"/>
</svg>
