<svg width="20" height="20" viewBox="0 0 20 20" fill="none" xmlns="http://www.w3.org/2000/svg">
<path d="M3 5.5C3 5.10218 3.16389 4.72064 3.45561 4.43934C3.74733 4.15804 4.143 4 4.55556 4H5.91278C6.29143 4.00016 6.65701 4.13349 6.941 4.375L8.70811 5.875C8.9921 6.11651 9.35769 6.24984 9.73633 6.25H15.4444C15.857 6.25 16.2527 6.40804 16.5444 6.68934C16.8361 6.97064 17 7.35218 17 7.75V14.5C17 14.8978 16.8361 15.2794 16.5444 15.5607C16.2527 15.842 15.857 16 15.4444 16H4.55556C4.143 16 3.74733 15.842 3.45561 15.5607C3.16389 15.2794 3 14.8978 3 14.5V5.5Z" stroke="#94A3B8" stroke-width="1.5" stroke-linecap="round" stroke-linejoin="round"/>
</svg>
