<svg width="20" height="20" viewBox="0 0 20 20" fill="none" xmlns="http://www.w3.org/2000/svg">
<path d="M11.2115 2.41694C11.1406 2.29048 11.0373 2.18519 10.9122 2.11191C10.7872 2.03863 10.6448 2 10.4998 2C10.3549 2 10.2125 2.03863 10.0874 2.11191C9.96235 2.18519 9.85906 2.29048 9.78817 2.41694C9.62151 2.72027 9.46123 3.0275 9.30734 3.33861C8.8225 4.32274 8.41029 5.34101 8.07401 6.38527C7.95817 6.74444 7.61484 6.99361 7.22151 7.00444C6.02919 7.03579 4.84075 7.15416 3.66567 7.35861C3.02067 7.47194 2.77817 8.20694 3.23651 8.65527C3.34095 8.75805 3.44651 8.85944 3.55317 8.95944C4.35073 9.71265 5.19399 10.4159 6.07817 11.0653C6.38401 11.2894 6.50984 11.6736 6.39317 12.0253C5.94875 13.3611 5.63069 14.7358 5.44317 16.1311C5.35984 16.7603 6.03317 17.2044 6.61817 16.9044C7.77821 16.3096 8.88748 15.6207 9.93484 14.8444C10.0989 14.7247 10.2967 14.6602 10.4998 14.6602C10.7029 14.6602 10.9008 14.7247 11.0648 14.8444C12.112 15.621 13.2213 16.31 14.3815 16.9044C14.9657 17.2044 15.6398 16.7603 15.5565 16.1311C15.5243 15.895 15.489 15.6603 15.4507 15.4269C15.2582 14.2728 14.9759 13.1355 14.6065 12.0253C14.4898 11.6736 14.6148 11.2894 14.9215 11.0653C15.9246 10.3303 16.8742 9.5249 17.7632 8.65527C18.2215 8.20694 17.9798 7.47194 17.334 7.35861C16.1591 7.15296 14.9706 7.03458 13.7782 7.00444C13.5896 7.00144 13.4066 6.94038 13.2541 6.82958C13.1015 6.71878 12.9868 6.56363 12.9257 6.38527C12.4829 5.01083 11.9089 3.68137 11.2115 2.41694Z" stroke="#94A3B8" stroke-width="1.5" stroke-linecap="round" stroke-linejoin="round"/>
</svg>
