<svg width="118" height="37" viewBox="0 0 118 37" fill="none" xmlns="http://www.w3.org/2000/svg">
<path d="M107.814 36.3888V22.3438H112.412C115.438 22.3438 116.971 24.1091 116.971 26.5728C116.971 28.4545 116.079 29.8998 114.333 30.472L117.553 36.3888H115.962L112.916 30.7436L112.431 30.763H109.192V36.3888H107.814ZM109.192 29.5021H112.373C114.565 29.5021 115.613 28.3769 115.613 26.5728C115.613 24.7687 114.565 23.5853 112.354 23.5853H109.192V29.5021Z" fill="#0E1F3E"/>
<path d="M103.2 22.3438H104.578V31.636C104.578 34.5071 102.405 36.6216 99.2233 36.6216C96.0225 36.6216 93.8691 34.5071 93.8691 31.636V22.3438H95.2465V31.539C95.2465 33.7311 96.8178 35.3412 99.2233 35.3412C101.629 35.3412 103.2 33.7311 103.2 31.539V22.3438Z" fill="#0E1F3E"/>
<path d="M91.2314 29.3669C91.2314 33.7705 88.6901 36.5834 85.1401 36.5834C81.5706 36.5834 79.0293 33.7705 79.0293 29.3669C79.0293 24.9633 81.5706 22.1504 85.1401 22.1504C88.6901 22.1504 91.2314 24.9633 91.2314 29.3669ZM89.8929 29.3669C89.8929 25.6229 87.856 23.4501 85.1401 23.4501C82.4242 23.4501 80.3872 25.6229 80.3872 29.3669C80.3872 33.0916 82.4048 35.2837 85.1401 35.2837C87.856 35.2837 89.8929 33.111 89.8929 29.3669Z" fill="#0E1F3E"/>
<path d="M67.5684 23.5853V22.3438H77.8306V23.5853H73.4075V36.3888H72.0108V23.5853H67.5684Z" fill="#0E1F3E"/>
<path d="M52.0137 36.3888V22.3438H56.6113C59.6376 22.3438 61.1701 24.2255 61.1701 26.7086C61.1701 29.1723 59.6376 31.0734 56.6307 31.0734H53.391V36.3888H52.0137ZM53.391 29.8319H56.5725C58.7646 29.8319 59.8122 28.5127 59.8122 26.7086C59.8122 24.8851 58.7646 23.5853 56.5531 23.5853H53.391V29.8319Z" fill="#0E1F3E"/>
<path d="M35.3711 22.3438H36.9812L42.0056 34.4101H42.1414L47.1464 22.3438H48.776V36.3888H47.4568V25.1954H47.3404L42.6846 36.3888H41.4431L36.7872 25.1954H36.6708V36.3888H35.3711V22.3438Z" fill="#0E1F3E"/>
<path d="M23.1913 36.3888H21.7363L26.8383 22.3438H28.3321L33.4341 36.3888H31.9791L30.5048 32.218H24.6656L23.1913 36.3888ZM25.1118 30.9958H30.078L27.6337 24.1285H27.5367L25.1118 30.9958Z" fill="#0E1F3E"/>
<path d="M12.0195 23.5853V22.3438H22.2817V23.5853H17.8587V36.3888H16.462V23.5853H12.0195Z" fill="#0E1F3E"/>
<path d="M8.70549 25.875C8.56969 24.3425 7.25054 23.3725 5.42701 23.3725C3.48709 23.3725 2.16794 24.4589 2.16794 25.9332C2.16794 27.3882 3.60348 28.0672 4.94203 28.4357L6.39698 28.8431C8.16231 29.3475 10.238 30.2593 10.238 32.626C10.238 34.8957 8.4145 36.6222 5.33002 36.6222C2.43953 36.6222 0.5966 35.0897 0.441406 32.8394H1.85755C1.99335 34.4883 3.46769 35.3807 5.33002 35.3807C7.40574 35.3807 8.89948 34.2749 8.89948 32.6066C8.89948 31.2098 7.69673 30.5697 5.98959 30.0847L4.32126 29.5997C2.10974 28.9401 0.809992 27.815 0.809992 25.9914C0.809992 23.7023 2.82751 22.1504 5.46581 22.1504C8.10411 22.1504 9.96644 23.7217 10.0634 25.875H8.70549Z" fill="#0E1F3E"/>
<path d="M106.047 18.5105V0.251953H110.334V15.0051H118.001V18.5105H106.047Z" fill="#0E1F3E"/>
<path d="M90.6618 18.5105H86.0215L92.2254 0.251953H97.9249L104.104 18.5105H99.4884L98.2527 14.6016H91.8975L90.6618 18.5105ZM92.9315 11.3231H97.2187L95.1508 4.76616H94.9995L92.9315 11.3231Z" fill="#0E1F3E"/>
<path d="M74.3461 0.251953L78.5073 13.7189H78.6586L82.8197 0.251953H87.6113L81.4327 18.5105H75.7332L69.5293 0.251953H74.3461Z" fill="#0E1F3E"/>
<path d="M67.6115 0.251953V18.5105H63.3242V0.251953H67.6115Z" fill="#0E1F3E"/>
<path d="M45.8242 3.7574V0.251953H61.1826V3.7574H55.6344V18.5105H51.3724V3.7574H45.8242Z" fill="#0E1F3E"/>
<path d="M39.8471 5.67428C39.7462 4.33767 38.7627 3.55588 36.9973 3.55588C35.2572 3.55588 34.3746 4.31245 34.3494 5.34643C34.3241 6.48129 35.4338 7.03611 37.073 7.38917L38.6618 7.76746C42.1672 8.54925 44.21 10.2894 44.2352 13.2148C44.21 16.6698 41.5368 18.763 36.9973 18.763C32.4579 18.763 29.5073 16.695 29.4316 12.5086H33.5676C33.6684 14.274 34.9798 15.1819 36.9469 15.1819C38.7627 15.1819 39.8471 14.3748 39.8723 13.2148C39.8471 12.1556 38.914 11.6008 36.8965 11.1468L34.9798 10.6929C31.8274 9.96151 29.9108 8.39793 29.9108 5.64906C29.8856 2.26971 32.8866 0 37.0226 0C41.2341 0 43.9326 2.29493 43.983 5.67428H39.8471Z" fill="#0E1F3E"/>
<path d="M14.6016 18.5105V0.251953H27.2363V3.7574H18.8888V7.61591H26.5806V11.1214H18.8888V15.0051H27.2615V18.5105H14.6016Z" fill="#0E1F3E"/>
<path d="M0 18.5105V0.251953H12.3825V3.7574H4.28723V7.61591H11.5755V11.1214H4.28723V18.5105H0Z" fill="#0E1F3E"/>
</svg>
