<svg width="12" height="12" viewBox="0 0 12 12" fill="none" xmlns="http://www.w3.org/2000/svg">
<path d="M9.109 2.15281C9.31275 1.94906 9.64345 1.94906 9.84719 2.15281C10.0509 2.35655 10.0509 2.68725 9.84719 2.891L6.73819 6L9.84719 9.109C10.0509 9.31275 10.0509 9.64345 9.84719 9.84719C9.64345 10.0509 9.31275 10.0509 9.109 9.84719L6 6.73819L2.891 9.84719C2.68725 10.0509 2.35655 10.0509 2.15281 9.84719C1.94906 9.64345 1.94906 9.31275 2.15281 9.109L5.26181 6L2.15281 2.891C1.94906 2.68725 1.94906 2.35655 2.15281 2.15281C2.35655 1.94906 2.68725 1.94906 2.891 2.15281L6 5.26181L9.109 2.15281Z" fill="white"/>
</svg>
