<svg width="25" height="25" viewBox="0 0 25 25" fill="none" xmlns="http://www.w3.org/2000/svg">
<path d="M20.1562 1.61875e-07C21.2751 1.61875e-07 22.3482 0.444474 23.1394 1.23564C23.9305 2.02681 24.375 3.09987 24.375 4.21875V16.4062C24.375 17.4481 23.9896 18.453 23.2929 19.2276C22.5962 20.0022 21.6375 20.4916 20.6016 20.6016C20.4916 21.6375 20.0022 22.5962 19.2276 23.2929C18.453 23.9896 17.4481 24.375 16.4062 24.375H7.03125C5.16645 24.375 3.37802 23.6342 2.05941 22.3156C0.74079 20.997 1.61875e-07 19.2086 1.61875e-07 17.3438V7.96875C-0.000288286 6.92693 0.384925 5.92185 1.08144 5.14709C1.77796 4.37233 2.73653 3.8827 3.7725 3.7725C3.8827 2.73653 4.37233 1.77796 5.14709 1.08144C5.92185 0.384925 6.92693 -0.000288286 7.96875 1.61875e-07H20.1562ZM3.75 5.67188C3.22061 5.77994 2.74481 6.06759 2.40314 6.48614C2.06146 6.90469 1.87489 7.42844 1.875 7.96875V17.3438C1.875 18.7113 2.41825 20.0228 3.38523 20.9898C4.35222 21.9568 5.66373 22.5 7.03125 22.5H16.4062C16.9466 22.5001 17.4703 22.3135 17.8889 21.9719C18.3074 21.6302 18.5951 21.1544 18.7031 20.625H7.96875C6.84987 20.625 5.77681 20.1805 4.98564 19.3894C4.19447 18.5982 3.75 17.5251 3.75 16.4062V5.67188ZM11.25 4.6875C11.0014 4.6875 10.7629 4.78627 10.5871 4.96209C10.4113 5.1379 10.3125 5.37636 10.3125 5.625C10.3125 5.87364 10.4113 6.1121 10.5871 6.28791C10.7629 6.46373 11.0014 6.5625 11.25 6.5625H16.4869L8.71219 14.3372C8.62265 14.4237 8.55123 14.5271 8.50209 14.6415C8.45296 14.7559 8.4271 14.8789 8.42601 15.0034C8.42493 15.1279 8.44865 15.2513 8.49579 15.3665C8.54293 15.4817 8.61254 15.5864 8.70057 15.6744C8.78859 15.7625 8.89327 15.8321 9.00848 15.8792C9.1237 15.9263 9.24715 15.9501 9.37163 15.949C9.49611 15.9479 9.61913 15.922 9.7335 15.8729C9.84788 15.8238 9.95133 15.7524 10.0378 15.6628L17.8125 7.88812V13.125C17.8125 13.3736 17.9113 13.6121 18.0871 13.7879C18.2629 13.9637 18.5014 14.0625 18.75 14.0625C18.9986 14.0625 19.2371 13.9637 19.4129 13.7879C19.5887 13.6121 19.6875 13.3736 19.6875 13.125V5.625C19.6875 5.37636 19.5887 5.1379 19.4129 4.96209C19.2371 4.78627 18.9986 4.6875 18.75 4.6875H11.25Z" fill="#FB5E14"/>
</svg>
