<svg width="129" height="129" viewBox="0 0 129 129" fill="none" xmlns="http://www.w3.org/2000/svg">
<rect width="129" height="129" rx="20" fill="#ECE7DB"/>
<path d="M75.9721 36.4055H43.0539C39.1581 36.4055 36 39.5637 36 43.4594V95.1881C36 99.0838 39.1581 102.242 43.0539 102.242H75.9721C79.8679 102.242 83.026 99.0838 83.026 95.1881V43.4594C83.026 39.5637 79.8679 36.4055 75.9721 36.4055Z" fill="#977F68"/>
<path d="M45.7188 32.0036C46.3837 31.8029 47.0745 31.7014 47.7691 31.7026H80.6873C82.5581 31.7026 84.3523 32.4458 85.6752 33.7686C86.998 35.0915 87.7412 36.8857 87.7412 38.7565V90.4852C87.7424 91.1797 87.641 91.8706 87.4403 92.5355C88.8884 92.0956 90.1566 91.2016 91.0576 89.9856C91.9586 88.7696 92.4446 87.296 92.4438 85.7826V34.0539C92.4438 32.1831 91.7006 30.3889 90.3778 29.066C89.0549 27.7432 87.2607 27 85.3899 27H52.4717C50.9582 26.9992 49.4847 27.4852 48.2687 28.3862C47.0526 29.2873 46.1587 30.5555 45.7188 32.0036Z" fill="#977F68"/>
</svg>
