<svg width="21" height="21" viewBox="0 0 21 21" fill="none" xmlns="http://www.w3.org/2000/svg">
<path fill-rule="evenodd" clip-rule="evenodd" d="M19.8733 1.48793L11.3264 10.4995L19.8733 19.5111L20.0744 19.7231L19.8733 19.9351L19.0653 20.7871L18.8642 20.999L18.6632 20.7871L10.1162 11.7755L1.56551 20.7871L1.36445 20.999L1.16339 20.7871L0.355356 19.9351L0.154297 19.7231L0.355356 19.5111L8.90608 10.4995L0.355356 1.48793L0.154297 1.27195L0.355356 1.05996L1.16339 0.21199L1.36445 0L1.56551 0.21199L10.1162 9.22358L18.6632 0.21199L18.8642 0L19.0653 0.21199L19.8733 1.05996L20.0744 1.27195L19.8733 1.48793Z" fill="#977F68"/>
</svg>
