<svg width="56" height="56" viewBox="0 0 56 56" fill="none" xmlns="http://www.w3.org/2000/svg">
<path d="M28 56C12.5356 56 0 43.4644 0 28C0 12.5356 12.5356 0 28 0C43.4644 0 56 12.5384 56 28C56 43.4616 43.4644 56 28 56ZM28 14C27.2574 14 26.5452 14.295 26.0201 14.8201C25.495 15.3452 25.2 16.0574 25.2 16.8V30.8C25.2 31.5426 25.495 32.2548 26.0201 32.7799C26.5452 33.305 27.2574 33.6 28 33.6C28.7426 33.6 29.4548 33.305 29.9799 32.7799C30.505 32.2548 30.8 31.5426 30.8 30.8V16.8C30.8 16.0574 30.505 15.3452 29.9799 14.8201C29.4548 14.295 28.7426 14 28 14ZM28 42C28.7426 42 29.4548 41.705 29.9799 41.1799C30.505 40.6548 30.8 39.9426 30.8 39.2C30.8 38.4574 30.505 37.7452 29.9799 37.2201C29.4548 36.695 28.7426 36.4 28 36.4C27.2574 36.4 26.5452 36.695 26.0201 37.2201C25.495 37.7452 25.2 38.4574 25.2 39.2C25.2 39.9426 25.495 40.6548 26.0201 41.1799C26.5452 41.705 27.2574 42 28 42Z" fill="#222222"/>
</svg>
