<svg width="34" height="34" viewBox="0 0 34 34" fill="none" xmlns="http://www.w3.org/2000/svg">
<circle cx="17" cy="17" r="17" fill="#ECE7DB"/>
<path fill-rule="evenodd" clip-rule="evenodd" d="M22.868 10.5895C22.4371 10.1587 21.8527 9.91675 21.2434 9.91675C20.6341 9.91675 20.0498 10.1587 19.6189 10.5895L19.0773 11.1318L22.8688 14.9231L23.4095 14.3816C23.6229 14.1682 23.7922 13.9149 23.9077 13.6361C24.0232 13.3573 24.0827 13.0585 24.0827 12.7567C24.0827 12.4549 24.0232 12.1561 23.9077 11.8773C23.7922 11.5985 23.6229 11.3452 23.4095 11.1318L22.868 10.5895ZM21.785 16.0061L17.9935 12.2148L11.0311 19.1778C10.8787 19.3302 10.7723 19.5223 10.724 19.7323L9.9358 23.1445C9.90644 23.2712 9.9098 23.4033 9.94559 23.5283C9.98138 23.6533 10.0484 23.7671 10.1404 23.8591C10.2323 23.951 10.3462 24.0181 10.4712 24.0538C10.5962 24.0896 10.7283 24.093 10.8549 24.0636L14.268 23.2763C14.4777 23.2278 14.6696 23.1214 14.8218 22.9691L21.785 16.0061Z" fill="#977F68"/>
</svg>
