<svg width="153" height="31" viewBox="0 0 153 31" fill="none" xmlns="http://www.w3.org/2000/svg">
<path d="M135.271 6.38489L132.605 7.03589C132.326 6.44689 131.52 5.73389 130.714 5.29989L131.055 4.64889C131.148 4.55589 131.241 4.49389 131.427 4.52489C132.512 4.74189 134.248 5.36189 134.899 5.79589C135.147 5.91989 135.271 6.13689 135.271 6.38489ZM124.204 21.7609L123.832 21.4509C123.77 21.3579 123.77 21.2959 123.894 21.1409C128.327 16.8939 131.582 11.5309 132.605 7.03589L135.271 6.38489C135.271 6.63289 135.24 6.88089 135.178 7.06689C134.093 12.0889 130.249 17.5759 124.545 21.7609C124.421 21.8229 124.328 21.8229 124.204 21.7609ZM138.402 20.2729L131.799 12.8329L137.1 16.2119L138.619 16.9869C139.146 17.7309 139.828 18.8469 140.107 19.4979C140.293 19.9319 140.324 20.2419 140.231 20.4589C140.045 20.8309 139.456 21.0169 139.115 20.8929C138.929 20.8309 138.619 20.5209 138.402 20.2729ZM137.1 16.2119L136.976 16.3669L131.799 12.8329L132.543 11.4999L137.1 16.2119ZM151.825 14.7239L145.997 14.8169V13.4839L148.601 13.3909L149.593 12.8019C150.523 12.7709 151.763 12.8329 152.321 12.9569C152.6 13.0189 152.786 13.2359 152.786 13.4529C152.786 14.0109 152.6 14.4449 152.414 14.5689C152.259 14.6929 152.011 14.7239 151.825 14.7239ZM145.687 30.3479H144.416C144.292 29.0459 144.23 26.0079 144.23 24.6439V3.06789C143.672 2.41689 142.68 1.82789 141.595 1.48689L141.812 0.71189C141.843 0.618891 141.936 0.587891 142.153 0.587891C143.3 0.618892 145.253 1.02189 146.121 1.36289C146.4 1.48689 146.524 1.67289 146.524 2.01389L146.431 3.62589V23.8689C146.431 25.6669 146.152 28.5809 145.687 30.3479Z" fill="white"/>
<path d="M103.966 2.07612L104.183 1.79712C107.221 2.29312 110.631 2.38612 113.049 2.35512C113.328 2.35512 113.452 2.44812 113.514 2.63412C113.638 2.91312 113.607 3.59512 113.452 3.84312C113.359 3.99812 113.204 4.06012 113.018 4.06012C111.096 4.06012 108.306 4.12212 106.787 4.24612C106.477 4.24612 106.353 4.24612 106.136 4.12212C105.423 3.78112 104.555 3.03712 103.997 2.35512C103.904 2.23112 103.904 2.16912 103.966 2.07612ZM116.8 6.29212L117.823 5.82712C118.784 5.85812 120.179 6.01312 120.799 6.23012C120.985 6.29212 121.109 6.47812 121.109 6.63312C121.109 7.19112 120.799 7.65612 120.551 7.78012C119.931 7.68712 118.226 7.65612 117.513 7.65612C115.777 7.65612 104.927 7.74912 103.284 7.84212C102.664 7.87312 101.455 8.12112 100.835 8.33812C99.9363 8.02812 98.8513 7.43912 98.1693 6.85012C98.0763 6.78812 98.0453 6.69512 98.0763 6.60212L98.2933 6.19912C99.2233 6.35412 100.587 6.47812 101.331 6.47812C102.974 6.50912 114.94 6.38512 116.8 6.29212ZM110.693 24.9851H108.492V19.7771H110.693V24.9851ZM118.908 23.9621L120.024 23.4971C121.171 23.5281 122.783 23.7141 123.496 23.9621C123.744 24.0241 123.899 24.2101 123.899 24.4581C123.899 25.0161 123.558 25.4811 123.248 25.6051C122.411 25.5121 120.582 25.4501 119.652 25.4501C117.513 25.4501 103.315 25.6051 101.672 25.6981C100.897 25.7601 99.3163 26.0701 98.5413 26.3181C97.4253 25.9461 96.2783 25.3261 95.5343 24.6751C95.4413 24.6131 95.4103 24.5201 95.4413 24.3961L95.6583 23.9621C96.6813 24.1481 98.1073 24.2721 99.0993 24.2721C100.959 24.3031 116.738 24.1171 118.908 23.9621ZM116.645 14.8791C116.645 18.0721 113.669 20.3041 109.608 20.3041C105.516 20.3041 102.54 18.0721 102.54 14.8791C102.54 11.6861 105.516 9.48512 109.608 9.48512C113.669 9.48512 116.645 11.6861 116.645 14.8791ZM114.475 14.8791C114.475 12.4611 112.367 10.9731 109.608 10.9731C106.818 10.9731 104.71 12.4611 104.71 14.8791C104.71 17.3281 106.818 18.7851 109.608 18.7851C112.367 18.7851 114.475 17.3281 114.475 14.8791Z" fill="white"/>
<path d="M82.9853 5.51689L80.7533 5.17589C80.3503 4.71089 79.6373 4.27689 78.8933 3.96689L79.1413 3.25389C79.1723 3.16089 79.2653 3.09889 79.4823 3.12989C80.4433 3.16089 81.9933 3.50189 82.7373 3.78089C82.9853 3.87389 83.0473 4.02889 83.0473 4.27689L82.9853 5.51689ZM72.5073 6.84989L70.2443 6.53989C69.8413 6.13689 69.0663 5.73389 68.3223 5.54789L68.5083 4.80389C68.5393 4.74189 68.6323 4.67989 68.8803 4.67989C69.8413 4.67989 71.4533 4.83489 72.2283 5.05189C72.4763 5.11389 72.5693 5.26889 72.5383 5.54789L72.5073 6.84989ZM71.8873 18.6919H70.6783C70.4923 18.1959 70.4303 17.4209 70.4303 16.8629L70.2443 6.50889L72.5073 6.72589L72.4763 16.4909C72.4763 17.6379 72.1973 18.2889 71.8873 18.6919ZM82.5513 16.0569H80.7533V5.17589L82.9853 5.42389L82.8923 13.2049C82.8923 14.1349 82.7373 15.3129 82.5513 16.0569ZM81.0323 10.6009L72.1973 10.7249V9.36089L81.0323 9.23689V10.6009ZM82.2723 15.9019L83.2023 16.1809C83.3263 16.2119 83.4193 16.3049 83.4193 16.4599C83.4193 16.8009 83.2953 17.1729 83.1403 17.2969C80.9083 17.3279 74.4603 17.3899 72.2903 17.4209L72.3523 16.0569L80.9083 15.9639L82.2723 15.9019ZM90.7353 22.9389H89.4333C89.3093 21.6989 89.2783 19.0019 89.2783 17.5759V3.06789C88.7203 2.41689 87.7593 1.82789 86.6433 1.48689L86.8913 0.71189C86.9223 0.618891 87.0153 0.587891 87.2323 0.587891C88.3793 0.618892 90.3013 1.02189 91.1693 1.36289C91.4483 1.48689 91.5413 1.67289 91.5413 2.01389L91.4793 3.62589V16.8009C91.4793 18.9709 91.2003 21.3889 90.7353 22.9389ZM84.7833 7.31489L86.3953 8.55489C85.8063 8.61689 85.0313 8.80289 84.4733 8.98889C83.6673 8.67889 82.9233 8.21389 82.3653 7.74889C82.2723 7.68689 82.2413 7.56289 82.2723 7.46989L82.4273 7.12889C83.1713 7.25289 84.0393 7.31489 84.7833 7.31489ZM89.8053 7.12889V8.49289C88.8133 8.46189 87.0463 8.49289 86.3953 8.55489L84.7833 7.31489C85.8683 7.31489 88.4723 7.25289 89.8053 7.12889ZM84.5973 13.2669L86.1783 14.5069C85.6203 14.5689 84.8453 14.7549 84.2563 14.9719C83.4503 14.6309 82.7063 14.1969 82.1483 13.7319C82.0553 13.6389 82.0243 13.5149 82.0553 13.4219L82.2413 13.1119C82.9853 13.2049 83.8533 13.2669 84.5973 13.2669ZM89.7433 13.0809V14.4449C88.7203 14.3829 86.9223 14.4449 86.1783 14.5069L84.5973 13.2669C85.7133 13.2669 88.3483 13.2049 89.7433 13.0809ZM92.9053 29.1079L79.5753 29.2009L79.8853 27.8369C81.8693 27.8679 87.5113 27.8369 89.3403 27.7439L90.3323 27.2169C91.2313 27.1859 92.6263 27.3099 93.2463 27.4339C93.4633 27.4959 93.6493 27.6509 93.6493 27.8679C93.6493 28.4569 93.4633 28.8289 93.3083 28.9839C93.1843 29.0769 93.0603 29.1079 92.9053 29.1079ZM79.1103 24.4579H76.8473V22.5669C76.3513 22.1639 75.4833 21.8539 74.6773 21.6679L74.8013 20.9859C74.8323 20.8619 74.9563 20.7999 75.1423 20.7999C76.1653 20.7999 77.9323 20.8929 78.7073 21.0789C79.0173 21.1409 79.1413 21.3269 79.1413 21.6679L79.1103 23.0319V24.4579ZM79.8853 27.8369L79.6063 29.2009C77.5603 29.1699 76.8473 28.4879 76.8473 26.7829V23.9619H79.1103V27.0619C79.1103 27.5889 79.3273 27.8369 79.8853 27.8369Z" fill="white"/>
<path d="M41.0212 6.16803H38.7272V4.37003C38.2312 3.99803 37.4562 3.68803 36.6812 3.50203L36.8362 2.82003C36.8672 2.66503 36.9602 2.63403 37.1462 2.63403C38.1382 2.63403 39.8742 2.72703 40.6182 2.91303C40.9282 2.97503 41.0832 3.16103 41.0832 3.50203L41.0212 4.89703V6.16803ZM55.4672 28.767L41.8582 28.829L42.1992 27.496C44.2452 27.527 50.0112 27.496 51.9022 27.403L52.8942 26.845C53.8242 26.845 55.2192 26.938 55.8392 27.093C56.0562 27.124 56.2422 27.279 56.2422 27.496C56.2422 28.085 56.0252 28.488 55.9012 28.612C55.7772 28.736 55.6532 28.767 55.4672 28.767ZM55.5292 11.748L41.4552 11.965L41.7962 10.57C43.9352 10.601 50.0422 10.508 51.9642 10.384L52.9252 9.85703C53.8552 9.85703 55.2502 9.95003 55.8392 10.074C56.0562 10.136 56.2422 10.291 56.2422 10.539C56.2422 11.097 56.0872 11.469 55.9322 11.593C55.8392 11.717 55.6842 11.748 55.5292 11.748ZM41.8272 10.57L41.4552 11.965C39.5642 11.965 38.7272 11.097 38.7272 9.42303V5.79603H41.0212V9.73303C41.0212 10.353 41.2072 10.57 41.8272 10.57ZM42.2612 27.496L41.8892 28.829C39.9052 28.829 39.2232 28.116 39.2232 26.411V23.621H41.4862V26.69C41.4862 27.248 41.6722 27.496 42.2612 27.496ZM55.7462 15.902L56.8622 15.406C58.0092 15.437 59.6212 15.623 60.3342 15.871C60.5822 15.933 60.7372 16.119 60.7372 16.367C60.7372 16.925 60.3962 17.39 60.0862 17.514C59.2492 17.421 57.4202 17.359 56.4902 17.359C54.3512 17.359 40.1532 17.514 38.5102 17.607C37.7352 17.669 36.1542 17.979 35.3792 18.227C34.2632 17.855 33.1162 17.235 32.3722 16.584C32.2792 16.522 32.2482 16.429 32.2792 16.305L32.4962 15.871C33.5192 16.057 34.9452 16.181 35.9372 16.212C37.7972 16.243 53.5762 16.026 55.7462 15.902ZM41.4862 24.582H39.2232V22.598C38.6962 22.195 37.8592 21.854 37.0222 21.668L37.1772 20.986C37.2082 20.862 37.3012 20.8 37.5182 20.8C38.5102 20.8 40.3082 20.924 41.0832 21.079C41.3622 21.141 41.5482 21.327 41.5482 21.668L41.4862 23.094V24.582Z" fill="white"/>
<path d="M22.0703 26.9999V26.0699L26.3483 25.6979H27.0303L31.3393 26.0699V26.9999H22.0703ZM25.2633 26.9999C25.3253 23.5899 25.3253 20.0869 25.3253 16.5839V14.8789C25.3253 11.3759 25.3253 7.90388 25.2633 4.43188H28.1463C28.0843 7.87288 28.0843 11.3759 28.0843 14.8789V16.5839C28.0843 20.0869 28.0843 23.5589 28.1463 26.9999H25.2633ZM22.0703 5.39289V4.43188H31.3393V5.39289L27.0303 5.73388H26.3483L22.0703 5.39289Z" fill="white"/>
<path d="M0.341797 27.0001V26.0701L3.4108 25.7291H3.9378L7.2858 26.0701V27.0001H0.341797ZM2.6048 27.0001L10.1688 4.24609H11.9048L19.5928 27.0001H16.8028L9.9518 6.10609H10.6028L10.4788 6.54009L3.9068 27.0001H2.6048ZM5.9528 19.3121L6.0458 18.3201H15.5008L15.5938 19.3121H5.9528ZM12.9588 27.0001V26.0701L17.0818 25.7291H17.9808L22.0418 26.0701V27.0001H12.9588Z" fill="white"/>
</svg>
