<svg width="8" height="13" viewBox="0 0 8 13" fill="none" xmlns="http://www.w3.org/2000/svg">
<path fill-rule="evenodd" clip-rule="evenodd" d="M7.5233 5.7267C7.69227 5.89572 7.78719 6.12493 7.78719 6.36392C7.78719 6.60292 7.69227 6.83213 7.5233 7.00115L2.42461 12.0998C2.34146 12.1859 2.24201 12.2546 2.13205 12.3018C2.02208 12.3491 1.90381 12.3739 1.78414 12.375C1.66446 12.376 1.54578 12.3532 1.43501 12.3079C1.32425 12.2626 1.22361 12.1956 1.13899 12.111C1.05436 12.0264 0.987435 11.9258 0.942117 11.815C0.896798 11.7042 0.873994 11.5855 0.875034 11.4659C0.876074 11.3462 0.900938 11.2279 0.948174 11.118C0.995411 11.008 1.06407 10.9085 1.15016 10.8254L5.61163 6.36392L1.15016 1.90246C0.985978 1.73247 0.895131 1.50479 0.897185 1.26847C0.899238 1.03215 0.994028 0.806096 1.16114 0.638987C1.32825 0.471877 1.55431 0.377088 1.79063 0.375034C2.02695 0.372981 2.25462 0.463827 2.42461 0.628007L7.5233 5.7267Z" fill="#141414"/>
</svg>
