<svg width="7" height="13" viewBox="0 0 7 13" fill="none" xmlns="http://www.w3.org/2000/svg">
<path fill-rule="evenodd" clip-rule="evenodd" d="M0.26381 5.7267C0.0948414 5.89572 -8.01719e-05 6.12493 -8.01719e-05 6.36392C-8.01719e-05 6.60292 0.0948414 6.83213 0.26381 7.00115L5.3625 12.0998C5.44565 12.1859 5.5451 12.2546 5.65506 12.3018C5.76503 12.3491 5.8833 12.3739 6.00297 12.375C6.12265 12.376 6.24133 12.3532 6.3521 12.3079C6.46286 12.2626 6.5635 12.1956 6.64812 12.111C6.73275 12.0264 6.79967 11.9258 6.84499 11.815C6.89031 11.7042 6.91312 11.5855 6.91208 11.4659C6.91104 11.3462 6.88617 11.2279 6.83894 11.118C6.7917 11.008 6.72304 10.9085 6.63695 10.8254L2.17548 6.36392L6.63695 1.90246C6.80113 1.73247 6.89198 1.50479 6.88992 1.26847C6.88787 1.03215 6.79308 0.806096 6.62597 0.638987C6.45886 0.471877 6.2328 0.377088 5.99648 0.375034C5.76016 0.372981 5.53249 0.463827 5.3625 0.628007L0.26381 5.7267Z" fill="#BABABA"/>
</svg>
