<svg width="7" height="13" viewBox="0 0 7 13" fill="none" xmlns="http://www.w3.org/2000/svg">
<path fill-rule="evenodd" clip-rule="evenodd" d="M0.263811 7.0233C0.0948423 6.85428 -7.92576e-05 6.62507 -7.92576e-05 6.38608C-7.92576e-05 6.14708 0.0948423 5.91787 0.263811 5.74885L5.3625 0.650159C5.44565 0.564075 5.5451 0.495411 5.65506 0.448174C5.76503 0.400937 5.8833 0.376075 6.00297 0.375035C6.12265 0.373995 6.24133 0.396799 6.3521 0.442118C6.46286 0.487436 6.5635 0.554362 6.64812 0.638988C6.73275 0.723614 6.79967 0.824246 6.84499 0.935013C6.89031 1.04578 6.91312 1.16446 6.91208 1.28414C6.91104 1.40381 6.88617 1.52208 6.83894 1.63205C6.7917 1.74201 6.72304 1.84146 6.63695 1.92461L2.17548 6.38608L6.63695 10.8475C6.80113 11.0175 6.89198 11.2452 6.88992 11.4815C6.88787 11.7178 6.79308 11.9439 6.62597 12.111C6.45886 12.2781 6.2328 12.3729 5.99648 12.375C5.76016 12.377 5.53249 12.2862 5.3625 12.122L0.263811 7.0233Z" fill="#141414"/>
</svg>
