<svg width="24" height="25" viewBox="0 0 24 25" fill="none" xmlns="http://www.w3.org/2000/svg">
<rect y="0.799805" width="23.4" height="23.4" rx="3" fill="#E7EFF3"/>
<path fill-rule="evenodd" clip-rule="evenodd" d="M9.38646 6.38005C8.90787 5.87332 8.13325 5.87332 7.65467 6.38005L6.1707 7.95131C5.94398 8.19136 5.94298 8.58163 6.16845 8.823C6.39392 9.06437 6.76049 9.06544 6.9872 8.82539L7.94161 7.81484L7.94161 17.9822C7.94161 18.3226 8.20082 18.5986 8.52056 18.5986C8.8403 18.5986 9.09951 18.3226 9.09951 17.9822L9.09951 7.81484L10.0539 8.82539C10.2806 9.06544 10.6472 9.06437 10.8727 8.823C11.0981 8.58163 11.0971 8.19136 10.8704 7.95131L9.38646 6.38005ZM15.0584 7.0178C15.0584 6.67739 14.7992 6.40142 14.4794 6.40142C14.1597 6.40142 13.9005 6.67739 13.9005 7.0178L13.9005 17.1852L12.9461 16.1746C12.7194 15.9346 12.3528 15.9356 12.1273 16.177C11.9019 16.4184 11.9029 16.8086 12.1296 17.0487L13.6135 18.6199C14.0921 19.1267 14.8668 19.1267 15.3453 18.6199L16.8293 17.0487C17.056 16.8086 17.057 16.4184 16.8316 16.177C16.6061 15.9356 16.2395 15.9346 16.0128 16.1746L15.0584 17.1852L15.0584 7.0178Z" fill="#1090CB"/>
</svg>
