<svg width="32" height="32" viewBox="0 0 32 32" fill="none" xmlns="http://www.w3.org/2000/svg">
<circle cx="16" cy="16" r="16" fill="white"/>
<path fill-rule="evenodd" clip-rule="evenodd" d="M21.7996 9.66484C21.3738 9.23914 20.7963 9 20.1942 9C19.592 9 19.0145 9.23914 18.5887 9.66484L18.0535 10.2007L21.8004 13.9475L22.3348 13.4123C22.5457 13.2015 22.713 12.9511 22.8271 12.6756C22.9413 12.4001 23 12.1048 23 11.8065C23 11.5083 22.9413 11.213 22.8271 10.9375C22.713 10.6619 22.5457 10.4116 22.3348 10.2007L21.7996 9.66484ZM20.7293 15.0177L16.9825 11.271L10.102 18.1521C9.9514 18.3027 9.84622 18.4926 9.79844 18.7001L9.01955 22.0722C8.99053 22.1973 8.99386 22.3278 9.02923 22.4514C9.06459 22.5749 9.13083 22.6874 9.2217 22.7783C9.31257 22.8692 9.42508 22.9354 9.54862 22.9708C9.67217 23.0061 9.80269 23.0095 9.92787 22.9804L13.3008 22.2023C13.508 22.1544 13.6976 22.0493 13.848 21.8988L20.7293 15.0177Z" fill="#9FB2BB"/>
</svg>
