<svg width="24" height="24" viewBox="0 0 24 24" fill="none" xmlns="http://www.w3.org/2000/svg">
<rect width="23.4" height="23.4" rx="3" fill="#E7EFF3"/>
<path fill-rule="evenodd" clip-rule="evenodd" d="M14.3164 6.72089C14.6011 6.43751 14.9871 6.27832 15.3897 6.27832C15.7922 6.27832 16.1782 6.43751 16.4629 6.72089L16.4629 6.72092L16.5718 6.8293L16.5718 6.82933C16.8564 7.1128 17.0163 7.4972 17.0163 7.89802C17.0163 8.29884 16.8564 8.68325 16.5718 8.96671L16.5718 8.96674L16.0463 9.48995C15.885 9.65064 15.8365 9.91208 15.6752 10.0728C15.5132 10.234 15.251 10.2819 15.0891 10.4431L9.23955 16.2677C9.20721 16.2999 9.16669 16.3228 9.12232 16.3338L6.5909 16.964C6.50491 16.9854 6.41394 16.9603 6.35126 16.8979C6.28858 16.8355 6.26338 16.7449 6.28488 16.6592L6.91774 14.1386C6.92883 14.0944 6.95177 14.0541 6.98411 14.0219L12.8344 8.19656C12.9958 8.03587 13.0442 7.77443 13.2056 7.61374C13.3675 7.45247 13.6297 7.40465 13.7917 7.24338L14.3164 6.72092L14.3164 6.72089ZM16.2149 8.61141C15.8178 9.00685 15.1757 9.00685 14.7785 8.61141L14.6732 8.50653C14.2771 8.11208 14.2771 7.47075 14.6732 7.0763L14.6732 7.07627C14.8633 6.88713 15.121 6.78087 15.3897 6.78087C15.6584 6.78087 15.9161 6.88714 16.1061 7.0763L16.2149 7.18463C16.4049 7.37386 16.5116 7.63046 16.5116 7.89802C16.5116 8.16557 16.4049 8.42216 16.2149 8.61138L16.2149 8.61141ZM12.2254 16.3181C12.0024 16.3181 11.8216 16.4981 11.8216 16.7202C11.8216 16.9422 12.0024 17.1222 12.2254 17.1222H17.2882C17.5112 17.1222 17.692 16.9422 17.692 16.7202C17.692 16.4981 17.5112 16.3181 17.2882 16.3181H12.2254Z" fill="#1090CB"/>
</svg>
