<svg width="17" height="17" viewBox="0 0 17 17" fill="none" xmlns="http://www.w3.org/2000/svg">
<circle cx="8.37379" cy="8.37379" r="8.37379" fill="#EDF8FE"/>
<path fill-rule="evenodd" clip-rule="evenodd" d="M10.0082 4.69604C10.208 4.48673 10.4789 4.36914 10.7613 4.36914C11.0438 4.36914 11.3147 4.48673 11.5145 4.69604L11.5145 4.69606L11.5909 4.77612L11.5909 4.77614C11.7906 4.98551 11.9028 5.26945 11.9028 5.56551C11.9028 5.86157 11.7906 6.14551 11.5909 6.35488L11.5909 6.3549L11.2253 6.73812C11.1096 6.85933 11.0773 7.05065 10.9617 7.17186V7.17186V7.17186C10.8505 7.28841 10.6648 7.32555 10.5536 7.44211L6.44579 11.7477C6.42309 11.7715 6.39466 11.7883 6.36352 11.7965L4.58721 12.2619C4.52687 12.2778 4.46304 12.2592 4.41906 12.2131C4.37507 12.167 4.35739 12.1001 4.37248 12.0369L4.81656 10.1751C4.82434 10.1424 4.84044 10.1126 4.86313 10.0888L8.9652 5.78928C9.08085 5.66806 9.11313 5.47674 9.22877 5.35553V5.35553V5.35553C9.33997 5.23897 9.52566 5.20183 9.63686 5.08528L10.0082 4.69606L10.0082 4.69604ZM11.3404 6.09245C11.066 6.38007 10.6069 6.38007 10.3325 6.09245L10.2586 6.01498C9.97654 5.71933 9.97654 5.25421 10.2586 4.95856V4.95856L10.2586 4.95854C10.392 4.81883 10.5728 4.74034 10.7613 4.74034C10.9499 4.74034 11.1307 4.81883 11.2641 4.95856L11.3404 5.03858C11.4737 5.17834 11.5486 5.36788 11.5486 5.56551C11.5486 5.76313 11.4737 5.95266 11.3404 6.09243L11.3404 6.09245V6.09245ZM8.54096 11.7849C8.38448 11.7849 8.25764 11.9179 8.25764 12.0819C8.25764 12.2459 8.38448 12.3788 8.54096 12.3788H12.0936C12.25 12.3788 12.3769 12.2459 12.3769 12.0819C12.3769 11.9179 12.25 11.7849 12.0936 11.7849H8.54096Z" fill="#1090CB"/>
</svg>
