<svg width="32" height="31" viewBox="0 0 32 31" fill="none" xmlns="http://www.w3.org/2000/svg">
<g filter="url(#filter0_d_3071_6238)">
<path d="M18 21V6H20C20.55 6 21.021 6.196 21.413 6.588C21.805 6.98 22.0007 7.45067 22 8V19C22 19.55 21.8043 20.021 21.413 20.413C21.0217 20.805 20.5507 21.0007 20 21H18ZM10 6H14V4H10V6ZM8 21V4C8 3.45 8.196 2.97933 8.588 2.588C8.98 2.19667 9.45067 2.00067 10 2H14C14.55 2 15.021 2.196 15.413 2.588C15.805 2.98 16.0007 3.45067 16 4V21H8ZM4 21C3.45 21 2.97933 20.8043 2.588 20.413C2.19667 20.0217 2.00067 19.5507 2 19V8C2 7.45 2.196 6.97933 2.588 6.588C2.98 6.19667 3.45067 6.00067 4 6H6V21H4Z" fill="#ACC38D"/>
</g>
<defs>
<filter id="filter0_d_3071_6238" x="0" y="0" width="32" height="31" filterUnits="userSpaceOnUse" color-interpolation-filters="sRGB">
<feFlood flood-opacity="0" result="BackgroundImageFix"/>
<feColorMatrix in="SourceAlpha" type="matrix" values="0 0 0 0 0 0 0 0 0 0 0 0 0 0 0 0 0 0 127 0" result="hardAlpha"/>
<feOffset dx="4" dy="4"/>
<feGaussianBlur stdDeviation="3"/>
<feComposite in2="hardAlpha" operator="out"/>
<feColorMatrix type="matrix" values="0 0 0 0 0.67451 0 0 0 0 0.764706 0 0 0 0 0.552941 0 0 0 0.25 0"/>
<feBlend mode="normal" in2="BackgroundImageFix" result="effect1_dropShadow_3071_6238"/>
<feBlend mode="normal" in="SourceGraphic" in2="effect1_dropShadow_3071_6238" result="shape"/>
</filter>
</defs>
</svg>
