<svg width="54" height="58" viewBox="0 0 54 58" fill="none" xmlns="http://www.w3.org/2000/svg">
<path d="M40.4187 53.2007C41.1026 53.2007 41.6563 52.6444 41.6563 51.9572V50.0812L42.8506 51.281C43.3174 51.75 44.1317 51.75 44.5985 51.281L53.0993 42.7404C53.577 42.2605 53.577 41.4643 53.0993 40.9843L43.3717 31.2113L47.9207 26.641C48.2572 26.3029 48.3658 25.8011 48.2138 25.3539C48.0618 24.9067 47.6601 24.5795 47.1824 24.5359L41.6455 23.9142V7.42209H43.3174V19.8457C43.3174 20.5329 43.8711 21.0891 44.5551 21.0891C45.2391 21.0891 45.7927 20.5329 45.7927 19.8457V6.17862C45.7927 5.49145 45.2391 4.93517 44.5551 4.93517H41.6455V1.37934C41.6455 0.692175 41.0918 0.135895 40.4078 0.135895H11.1816C11.0839 0.135895 10.997 0.157708 10.921 0.168616L10.8342 0.190435C10.7147 0.223158 10.6062 0.277694 10.5193 0.343139L1.0957 6.77854C0.954562 6.8767 0.845995 6.9967 0.737428 7.18212C0.715714 7.21485 0.694001 7.24756 0.683145 7.29119C0.607148 7.44389 0.574577 7.59659 0.563721 7.7493V51.9572C0.563721 52.6444 1.11741 53.2007 1.80138 53.2007H4.71098V56.7565C4.71098 57.4437 5.26467 58 5.94865 58H44.5768C45.2608 58 45.8145 57.4437 45.8145 56.7565C45.8145 56.0694 45.2608 55.5131 44.5768 55.5131H7.17545V53.2007H40.4187ZM5.80751 6.57129L9.97648 3.72444V6.57129H5.80751ZM39.181 23.6415L25.393 22.0708C25.0239 22.0272 24.6439 22.1581 24.3833 22.4308C24.1119 22.7034 23.9925 23.0634 24.0251 23.4451L26.4787 45.3473C26.533 45.8163 26.8478 46.2199 27.2929 46.3835C27.7381 46.5363 28.2375 46.4272 28.574 46.089L33.123 41.5188L39.181 47.6052V50.7138H3.02819V9.04729H11.2141C11.8981 9.04729 12.4518 8.49101 12.4518 7.80384V2.61189H39.181V23.6415ZM40.7552 30.3387C40.5272 30.5677 40.397 30.884 40.397 31.2113C40.397 31.5385 40.5272 31.8548 40.7552 32.0838L50.4828 41.8569L43.73 48.6414L34.0024 38.8683C33.7635 38.6283 33.4595 38.5084 33.1338 38.5084C32.8081 38.5084 32.4933 38.6392 32.2653 38.8683L28.6609 42.4896L26.6632 24.6995L44.3705 26.7065L40.7552 30.3387Z" fill="#CCD2E3"/>
<path d="M5.8186 23.9251C5.8186 24.6123 6.3723 25.1685 7.05627 25.1685H19.1506C19.8346 25.1685 20.3883 24.6123 20.3883 23.9251C20.3883 23.2379 19.8346 22.6816 19.1506 22.6816H7.05627C6.3723 22.6816 5.8186 23.2379 5.8186 23.9251Z" fill="#CCD2E3"/>
<path d="M5.8186 29.5315C5.8186 30.2187 6.3723 30.775 7.05627 30.775H21.7454C22.4294 30.775 22.983 30.2187 22.983 29.5315C22.983 28.8444 22.4294 28.2881 21.7454 28.2881H7.05627C6.3723 28.2881 5.8186 28.8444 5.8186 29.5315Z" fill="#CCD2E3"/>
<path d="M21.7562 33.8945H7.05627C6.3723 33.8945 5.8186 34.4508 5.8186 35.1379C5.8186 35.8251 6.3723 36.3814 7.05627 36.3814H21.7454C22.4294 36.3814 22.983 35.8251 22.983 35.1379C22.983 34.4508 22.4294 33.8945 21.7562 33.8945Z" fill="#CCD2E3"/>
<path d="M21.7562 39.5009H7.05627C6.3723 39.5009 5.8186 40.0572 5.8186 40.7444C5.8186 41.4316 6.3723 41.9878 7.05627 41.9878H21.7454C22.4294 41.9878 22.983 41.4316 22.983 40.7444C22.983 40.0572 22.4294 39.5009 21.7562 39.5009Z" fill="#CCD2E3"/>
<path d="M21.7562 45.1073H7.05627C6.3723 45.1073 5.8186 45.6636 5.8186 46.3508C5.8186 47.038 6.3723 47.5942 7.05627 47.5942H21.7454C22.4294 47.5942 22.983 47.038 22.983 46.3508C22.983 45.6636 22.4294 45.1073 21.7562 45.1073Z" fill="#CCD2E3"/>
</svg>
