<svg width="12" height="14" viewBox="0 0 12 14" fill="none" xmlns="http://www.w3.org/2000/svg">
<path fill-rule="evenodd" clip-rule="evenodd" d="M9 12.5H3C2.60218 12.5 2.22064 12.342 1.93934 12.0607C1.65804 11.7794 1.5 11.3978 1.5 11V3C1.5 2.60218 1.65804 2.22064 1.93934 1.93934C2.22064 1.65804 2.60218 1.5 3 1.5H5V4C5 4.79565 5.31607 5.55871 5.87868 6.12132C6.44129 6.68393 7.20435 7 8 7H10.5V11C10.5 11.3978 10.342 11.7794 10.0607 12.0607C9.77936 12.342 9.39782 12.5 9 12.5ZM10.303 5.5C10.2369 5.38368 10.1555 5.27673 10.061 5.182L6.818 1.939C6.72327 1.84451 6.61632 1.76312 6.5 1.697V4C6.5 4.39782 6.65804 4.77936 6.93934 5.06066C7.22064 5.34196 7.60218 5.5 8 5.5H10.303ZM11.121 4.121C11.3997 4.39963 11.6208 4.73045 11.7716 5.09455C11.9224 5.45865 12 5.8489 12 6.243V11C12 11.7956 11.6839 12.5587 11.1213 13.1213C10.5587 13.6839 9.79565 14 9 14H3C2.20435 14 1.44129 13.6839 0.87868 13.1213C0.316071 12.5587 0 11.7956 0 11V3C0 2.20435 0.316071 1.44129 0.87868 0.87868C1.44129 0.31607 2.20435 2.15228e-08 3 2.15228e-08H5.757C6.1511 -4.7184e-05 6.54135 0.0775571 6.90545 0.228379C7.26955 0.379201 7.60037 0.600285 7.879 0.879L11.121 4.121Z" fill="#1090CB"/>
</svg>
