<svg width="13" height="15" viewBox="0 0 13 15" fill="none" xmlns="http://www.w3.org/2000/svg">
<path d="M6.74203 6.39323C5.97865 6.39323 5.25935 6.09469 4.71838 5.55572C4.1774 5.01474 3.88086 4.29744 3.88086 3.53206C3.88086 2.76868 4.1794 2.04938 4.71838 1.5084C5.83439 0.392382 7.64968 0.392382 8.76569 1.5084C9.88171 2.62442 9.88171 4.4397 8.76569 5.55572C8.22472 6.09469 7.50742 6.39323 6.74203 6.39323ZM6.74203 1.6727C6.26517 1.6727 5.79031 1.85503 5.42766 2.21568C4.70235 2.94099 4.70235 4.12113 5.42766 4.84644C5.77829 5.19707 6.24513 5.39142 6.74203 5.39142C7.23893 5.39142 7.70578 5.19707 8.05641 4.84644C8.78172 4.12113 8.78172 2.94099 8.05641 2.21568C7.69576 1.85302 7.2189 1.6727 6.74203 1.6727Z" fill="#C6C6C6"/>
<path d="M12.4989 14.7601C12.2704 14.7601 12.0621 14.6018 12.01 14.3674L11.1124 10.3601C10.8859 9.3483 10.0023 8.64102 8.96447 8.64102H4.52044C3.48256 8.64102 2.60096 9.3483 2.37255 10.3601L1.47493 14.3674C1.41482 14.6379 1.14633 14.8062 0.875844 14.7461C0.605355 14.686 0.435047 14.4175 0.497159 14.147L1.39478 10.1397C1.72538 8.66707 3.0097 7.63721 4.52044 7.63721H8.96447C10.4752 7.63721 11.7595 8.66707 12.0901 10.1397L12.9877 14.147C13.0479 14.4175 12.8775 14.6839 12.6091 14.7461C12.571 14.7561 12.5349 14.7601 12.4989 14.7601Z" fill="#C6C6C6"/>
</svg>
