<svg width="8" height="12" viewBox="0 0 8 12" fill="none" xmlns="http://www.w3.org/2000/svg">
<g clip-path="url(#clip0_3676_5470)">
<path d="M4 6C4 4.89796 4.89342 4 6 4C7.10204 4 8 4.89342 8 6C8 7.10204 7.10658 8 6 8C4.89796 8 4 7.10204 4 6Z" fill="#1ABCFE"/>
<path d="M0 10C0 8.89796 0.893424 8 2 8H4V10C4 11.102 3.10658 12 2 12C0.893424 12 0 11.1066 0 10Z" fill="#0ACF83"/>
<path d="M4 0.00453515V4H6C7.10204 4 8 3.10658 8 2C8 0.897959 7.10658 0 6 0H4V0.00453515Z" fill="#FF7262"/>
<path d="M0 2C0 3.10204 0.893424 4 2 4H4V0H2C0.893424 0 0 0.893424 0 2Z" fill="#F24E1E"/>
<path d="M0 6C0 7.10204 0.893424 8 2 8H4V4H2C0.893424 4 0 4.89796 0 6Z" fill="#A259FF"/>
</g>
<defs>
<clipPath id="clip0_3676_5470">
<rect width="8" height="12" fill="white"/>
</clipPath>
</defs>
</svg>
