<svg width="32" height="32" viewBox="0 0 32 32" fill="none" xmlns="http://www.w3.org/2000/svg">
<g filter="url(#filter0_d_3063_6227)">
<path d="M19 4H18V3C18 2.4 17.6 2 17 2C16.4 2 16 2.4 16 3V4H8V3C8 2.4 7.6 2 7 2C6.4 2 6 2.4 6 3V4H5C3.3 4 2 5.3 2 7V8H22V7C22 5.3 20.7 4 19 4ZM2 19C2 20.7 3.3 22 5 22H19C20.7 22 22 20.7 22 19V10H2V19ZM17 12C17.6 12 18 12.4 18 13C18 13.6 17.6 14 17 14C16.4 14 16 13.6 16 13C16 12.4 16.4 12 17 12ZM17 16C17.6 16 18 16.4 18 17C18 17.6 17.6 18 17 18C16.4 18 16 17.6 16 17C16 16.4 16.4 16 17 16ZM12 12C12.6 12 13 12.4 13 13C13 13.6 12.6 14 12 14C11.4 14 11 13.6 11 13C11 12.4 11.4 12 12 12ZM12 16C12.6 16 13 16.4 13 17C13 17.6 12.6 18 12 18C11.4 18 11 17.6 11 17C11 16.4 11.4 16 12 16ZM7 12C7.6 12 8 12.4 8 13C8 13.6 7.6 14 7 14C6.4 14 6 13.6 6 13C6 12.4 6.4 12 7 12ZM7 16C7.6 16 8 16.4 8 17C8 17.6 7.6 18 7 18C6.4 18 6 17.6 6 17C6 16.4 6.4 16 7 16Z" fill="#FDBD6F"/>
</g>
<defs>
<filter id="filter0_d_3063_6227" x="0" y="0" width="32" height="32" filterUnits="userSpaceOnUse" color-interpolation-filters="sRGB">
<feFlood flood-opacity="0" result="BackgroundImageFix"/>
<feColorMatrix in="SourceAlpha" type="matrix" values="0 0 0 0 0 0 0 0 0 0 0 0 0 0 0 0 0 0 127 0" result="hardAlpha"/>
<feOffset dx="4" dy="4"/>
<feGaussianBlur stdDeviation="3"/>
<feComposite in2="hardAlpha" operator="out"/>
<feColorMatrix type="matrix" values="0 0 0 0 0.992157 0 0 0 0 0.741176 0 0 0 0 0.435294 0 0 0 0.25 0"/>
<feBlend mode="normal" in2="BackgroundImageFix" result="effect1_dropShadow_3063_6227"/>
<feBlend mode="normal" in="SourceGraphic" in2="effect1_dropShadow_3063_6227" result="shape"/>
</filter>
</defs>
</svg>
