<svg width="12" height="12" viewBox="0 0 12 12" fill="none" xmlns="http://www.w3.org/2000/svg">
<path fill-rule="evenodd" clip-rule="evenodd" d="M8.98305 0.49666C9.30116 0.178649 9.73254 0 10.1823 0C10.6322 0 11.0635 0.178649 11.3816 0.49666L11.5033 0.618322C11.8213 0.936429 12 1.36785 12 1.81765C12 2.26745 11.8214 2.69884 11.5033 3.01695L10.9166 3.60372C10.7359 3.78437 10.682 4.07753 10.5014 4.25818C10.3207 4.43884 10.0276 4.49273 9.84691 4.67338L3.31006 11.2102C3.27392 11.2464 3.22864 11.272 3.17905 11.2844L0.350381 11.9916C0.254288 12.0156 0.152636 11.9874 0.0825971 11.9174C0.0125579 11.8474 -0.0155979 11.7457 0.0084253 11.6496L0.715594 8.82094C0.727989 8.77136 0.753627 8.72608 0.789766 8.68994L7.32661 2.1531C7.50727 1.97244 7.56116 1.67928 7.74181 1.49862C7.92246 1.31797 8.21563 1.26408 8.39629 1.08342L8.98305 0.49666ZM11.1045 2.6182C10.6613 3.06143 9.94267 3.06143 9.49944 2.6182L9.38177 2.50053C8.93856 2.05731 8.93856 1.33872 9.38177 0.895505C9.59412 0.68324 9.8821 0.563967 10.1823 0.563967C10.4826 0.563967 10.7706 0.683221 10.9829 0.895505L11.1045 1.01708C11.3168 1.22943 11.436 1.51739 11.436 1.81765C11.436 2.1179 11.3168 2.40585 11.1045 2.6182Z" fill="#1090CB"/>
</svg>
