<svg width="8" height="12" viewBox="0 0 8 12" fill="none" xmlns="http://www.w3.org/2000/svg">
<path d="M7.63636 0H1.54545C1.49545 0 1.45455 0.0482143 1.45455 0.107143V0.857143C1.45455 0.916071 1.49545 0.964286 1.54545 0.964286H7.18182V10.1786C7.18182 10.2375 7.22273 10.2857 7.27273 10.2857H7.90909C7.95909 10.2857 8 10.2375 8 10.1786V0.428571C8 0.191518 7.8375 0 7.63636 0ZM6.18182 1.71429H0.363636C0.1625 1.71429 0 1.9058 0 2.14286V9.25045C0 9.36429 0.0386363 9.47277 0.106818 9.55313L2.07614 11.8741C2.10114 11.9036 2.12955 11.9277 2.16023 11.9478V11.9732H2.20795C2.24773 11.9906 2.28977 12 2.33295 12H6.18182C6.38295 12 6.54545 11.8085 6.54545 11.5714V2.14286C6.54545 1.9058 6.38295 1.71429 6.18182 1.71429ZM2.15909 10.6098L1.18068 9.45536H2.15909V10.6098ZM5.72727 11.0357H2.88636V9.13393C2.88636 8.83795 2.68295 8.59821 2.43182 8.59821H0.818182V2.67857H5.72727V11.0357Z" fill="#A6DEF8"/>
</svg>
