<svg width="30" height="32" viewBox="0 0 30 32" fill="none" xmlns="http://www.w3.org/2000/svg">
<g filter="url(#filter0_d_3098_5456)">
<path d="M5.22831 3.57517C5.38502 3.36646 5.45239 3.10406 5.41562 2.84567C5.37885 2.58729 5.24094 2.35409 5.03224 2.19739C4.9289 2.1198 4.81129 2.06332 4.68612 2.03118C4.56095 1.99905 4.43068 1.99188 4.30274 2.01008C4.04436 2.04685 3.81116 2.18476 3.65446 2.39347C2.98982 3.27897 2.49083 4.27739 2.1816 5.34051C2.14152 5.46569 2.12695 5.59763 2.13872 5.72853C2.1505 5.85944 2.18839 5.98666 2.25016 6.10268C2.31193 6.21869 2.39632 6.32115 2.49835 6.40401C2.60038 6.48686 2.71798 6.54843 2.84421 6.58507C2.97043 6.62171 3.10272 6.63268 3.23326 6.61734C3.3638 6.60199 3.48993 6.56064 3.60422 6.49573C3.71851 6.43082 3.81863 6.34366 3.89867 6.23941C3.97871 6.13515 4.03704 6.01591 4.07022 5.88873C4.31548 5.0441 4.71157 4.26242 5.22831 3.57517ZM18.3438 2.39347C18.1872 2.18476 17.9542 2.04678 17.6959 2.00989C17.4377 1.973 17.1753 2.04021 16.9666 2.19674C16.7579 2.35327 16.62 2.58629 16.5831 2.84455C16.5462 3.10281 16.6134 3.36515 16.7699 3.57386C17.2924 4.26935 17.6847 5.05359 17.928 5.88873C17.9612 6.01591 18.0195 6.13515 18.0996 6.23941C18.1796 6.34366 18.2797 6.43082 18.394 6.49573C18.5083 6.56064 18.6344 6.60199 18.765 6.61734C18.8955 6.63268 19.0278 6.62171 19.154 6.58507C19.2802 6.54843 19.3978 6.48686 19.4999 6.40401C19.6019 6.32115 19.6863 6.21869 19.7481 6.10268C19.8098 5.98666 19.8477 5.85944 19.8595 5.72853C19.8713 5.59763 19.8567 5.46569 19.8166 5.34051C19.5074 4.27739 19.0084 3.27897 18.3438 2.39347Z" fill="#FF9E80"/>
<path fill-rule="evenodd" clip-rule="evenodd" d="M10.9982 2.65698C12.3895 2.65698 13.7239 3.2097 14.7078 4.19355C15.6916 5.1774 16.2444 6.51179 16.2444 7.90316V11.0233C16.2444 11.5453 16.4516 12.045 16.8214 12.4136L18.4832 14.0766C18.7291 14.3225 18.8674 14.656 18.8674 15.0039V15.7724C18.8674 16.1203 18.7293 16.4539 18.4833 16.6998C18.2373 16.9458 17.9037 17.084 17.5559 17.084H14.9328C14.9328 18.1275 14.5183 19.1283 13.7804 19.8662C13.0425 20.6041 12.0417 21.0186 10.9982 21.0186C9.95464 21.0186 8.95385 20.6041 8.21597 19.8662C7.47808 19.1283 7.06354 18.1275 7.06354 17.084H4.44045C4.09261 17.084 3.75901 16.9458 3.51305 16.6998C3.26709 16.4539 3.12891 16.1203 3.12891 15.7724V15.0039C3.12898 14.656 3.26721 14.3225 3.51319 14.0766L5.17492 12.4149C5.54396 12.0463 5.75154 11.5462 5.752 11.0246V7.90316C5.752 6.51179 6.30472 5.1774 7.28857 4.19355C8.27241 3.2097 9.6068 2.65698 10.9982 2.65698ZM10.9982 19.0513C10.4764 19.0513 9.97601 18.844 9.60707 18.4751C9.23813 18.1061 9.03086 17.6057 9.03086 17.084H12.9655C12.9655 17.6057 12.7582 18.1061 12.3893 18.4751C12.0203 18.844 11.5199 19.0513 10.9982 19.0513Z" fill="#FF9E80"/>
</g>
<defs>
<filter id="filter0_d_3098_5456" x="0.134766" y="0" width="29.7285" height="31.0186" filterUnits="userSpaceOnUse" color-interpolation-filters="sRGB">
<feFlood flood-opacity="0" result="BackgroundImageFix"/>
<feColorMatrix in="SourceAlpha" type="matrix" values="0 0 0 0 0 0 0 0 0 0 0 0 0 0 0 0 0 0 127 0" result="hardAlpha"/>
<feOffset dx="4" dy="4"/>
<feGaussianBlur stdDeviation="3"/>
<feComposite in2="hardAlpha" operator="out"/>
<feColorMatrix type="matrix" values="0 0 0 0 1 0 0 0 0 0.662745 0 0 0 0 0.615686 0 0 0 0.23 0"/>
<feBlend mode="normal" in2="BackgroundImageFix" result="effect1_dropShadow_3098_5456"/>
<feBlend mode="normal" in="SourceGraphic" in2="effect1_dropShadow_3098_5456" result="shape"/>
</filter>
</defs>
</svg>
