<svg width="242" height="202" viewBox="0 0 242 202" fill="none" xmlns="http://www.w3.org/2000/svg">
<path d="M189.877 55.6874C160.979 55.6874 137.577 79.0975 137.577 108.005C137.577 112.084 138.108 115.809 138.995 119.71L84.567 137.268C80.1348 128.578 73.0432 121.484 64.1787 117.227L71.4476 89.3837C71.6249 89.3837 71.9795 89.3837 72.1568 89.3837C96.8 89.3837 116.834 69.3433 116.834 44.6918C116.834 20.0404 96.8 0 72.1568 0C47.5135 0 27.4798 20.0404 27.4798 44.6918C27.4798 62.7814 38.2945 78.3881 53.8959 85.482L46.8044 112.794C46.0952 112.794 45.3861 112.616 44.6769 112.616C20.0337 112.616 0 132.657 0 157.308C0 181.96 20.0337 202 44.6769 202C69.3201 202 89.3538 181.96 89.3538 157.308C89.3538 156.244 89.3538 155.18 89.1765 154.116L145.732 135.849C154.951 150.392 171.261 159.968 189.7 159.968C218.598 159.968 242 136.558 242 107.651C242 78.7428 218.775 55.6874 189.877 55.6874ZM45.5634 44.8692C45.5634 30.1493 57.619 18.0896 72.3341 18.0896C87.0491 18.0896 99.1048 30.1493 99.1048 44.8692C99.1048 59.5891 87.0491 71.6488 72.3341 71.6488C57.619 71.6488 45.5634 59.7665 45.5634 44.8692ZM44.8542 184.265C30.1392 184.265 18.0835 172.205 18.0835 157.486C18.0835 142.766 30.1392 130.706 44.8542 130.706C59.5692 130.706 71.6249 142.766 71.6249 157.486C71.8022 172.205 59.7465 184.265 44.8542 184.265ZM189.877 142.411C170.907 142.411 155.305 126.982 155.305 107.828C155.305 88.8516 170.73 73.245 189.877 73.245C209.024 73.245 224.448 88.6743 224.448 107.828C224.448 126.982 208.847 142.411 189.877 142.411Z" fill="#A9A9A9"/>
</svg>
