<svg width="20" height="20" viewBox="0 0 20 20" fill="none" xmlns="http://www.w3.org/2000/svg">
<path d="M3.99997 8V11C3.99996 11.1555 3.96366 11.3089 3.89397 11.448L2.61997 14H17.384L16.108 11.448C16.0376 11.3091 16.0006 11.1557 16 11V8C16 6.4087 15.3678 4.88258 14.2426 3.75736C13.1174 2.63214 11.5913 2 9.99997 2C8.40867 2 6.88254 2.63214 5.75733 3.75736C4.63211 4.88258 3.99997 6.4087 3.99997 8ZM5.99997 16H0.999967C0.829438 16 0.661744 15.9564 0.512822 15.8733C0.363899 15.7902 0.238695 15.6704 0.149109 15.5253C0.0595235 15.3802 0.00853218 15.2146 0.000981029 15.0443C-0.00657012 14.8739 0.0295698 14.7045 0.105967 14.552L1.99997 10.764V8C1.99997 5.87827 2.84282 3.84344 4.34311 2.34315C5.8434 0.842855 7.87823 0 9.99997 0C12.1217 0 14.1565 0.842855 15.6568 2.34315C17.1571 3.84344 18 5.87827 18 8V10.764L19.894 14.552C19.9704 14.7045 20.0065 14.8739 19.999 15.0443C19.9914 15.2146 19.9404 15.3802 19.8508 15.5253C19.7612 15.6704 19.636 15.7902 19.4871 15.8733C19.3382 15.9564 19.1705 16 19 16H14C14 17.0609 13.5785 18.0783 12.8284 18.8284C12.0782 19.5786 11.0608 20 9.99997 20C8.9391 20 7.92168 19.5786 7.17154 18.8284C6.42139 18.0783 5.99997 17.0609 5.99997 16ZM12 16H7.99997C7.99997 16.5304 8.21068 17.0391 8.58575 17.4142C8.96083 17.7893 9.46953 18 9.99997 18C10.5304 18 11.0391 17.7893 11.4142 17.4142C11.7893 17.0391 12 16.5304 12 16Z" fill="#CCD2E3"/>
</svg>
