<svg width="17" height="17" viewBox="0 0 17 17" fill="none" xmlns="http://www.w3.org/2000/svg">
<rect width="16.7015" height="16.7015" rx="3" fill="#E7F3EA"/>
<path d="M4.56268 5C4.71191 5 4.85503 5.05744 4.96055 5.15968C5.06607 5.26191 5.12535 5.40058 5.12535 5.54517V7.72584C5.12535 7.87042 5.18463 8.00909 5.29015 8.11133C5.39568 8.21357 5.5388 8.271 5.68803 8.271H11.0841L10.3526 7.56774C10.2467 7.46508 10.1871 7.32585 10.1871 7.18067C10.1871 7.03549 10.2467 6.89626 10.3526 6.7936C10.4586 6.69094 10.6023 6.63327 10.7521 6.63327C10.9019 6.63327 11.0457 6.69094 11.1516 6.7936L12.8396 8.4291C12.8909 8.48095 12.931 8.54209 12.9578 8.60901C13.0141 8.74173 13.0141 8.89061 12.9578 9.02333C12.931 9.09025 12.8909 9.15139 12.8396 9.20324L11.1516 10.8387C11.0993 10.8898 11.0371 10.9304 10.9685 10.9581C10.8999 10.9858 10.8264 11 10.7521 11C10.6778 11 10.6043 10.9858 10.5357 10.9581C10.4671 10.9304 10.4049 10.8898 10.3526 10.8387C10.2999 10.7881 10.258 10.7278 10.2294 10.6613C10.2009 10.5949 10.1862 10.5236 10.1862 10.4517C10.1862 10.3797 10.2009 10.3084 10.2294 10.242C10.258 10.1756 10.2999 10.1153 10.3526 10.0646L11.0841 9.36134H5.68803C5.24033 9.36134 4.81098 9.18903 4.49441 8.88231C4.17785 8.57559 4 8.1596 4 7.72584V5.54517C4 5.40058 4.05928 5.26191 4.1648 5.15968C4.27033 5.05744 4.41344 5 4.56268 5Z" fill="#4FB067"/>
</svg>
