<svg width="14" height="13" viewBox="0 0 14 13" fill="none" xmlns="http://www.w3.org/2000/svg">
<path d="M1 11.6668H13V6.3335C13 5.80306 12.7893 5.29436 12.4142 4.91928C12.0391 4.54421 11.5304 4.3335 11 4.3335H3C2.46957 4.3335 1.96086 4.54421 1.58579 4.91928C1.21071 5.29436 1 5.80306 1 6.3335V11.6668Z" stroke="#B8B8B8" stroke-linecap="round" stroke-linejoin="round"/>
<path d="M1 8.202C1.21026 8.293 1.4376 8.33779 1.66667 8.33333C1.92633 8.33877 2.18342 8.28092 2.41572 8.16477C2.64802 8.04862 2.84855 7.87766 3 7.66667C3.15145 7.45567 3.35198 7.28472 3.58428 7.16857C3.81658 7.05242 4.07367 6.99456 4.33333 7C4.593 6.99456 4.85008 7.05242 5.08238 7.16857C5.31469 7.28472 5.51522 7.45567 5.66667 7.66667C5.81811 7.87766 6.01865 8.04862 6.25095 8.16477C6.48325 8.28092 6.74034 8.33877 7 8.33333C7.25966 8.33877 7.51675 8.28092 7.74905 8.16477C7.98135 8.04862 8.18189 7.87766 8.33333 7.66667C8.48478 7.45567 8.68531 7.28472 8.91762 7.16857C9.14992 7.05242 9.407 6.99456 9.66667 7C9.92633 6.99456 10.1834 7.05242 10.4157 7.16857C10.648 7.28472 10.8486 7.45567 11 7.66667C11.1514 7.87766 11.352 8.04862 11.5843 8.16477C11.8166 8.28092 12.0737 8.33877 12.3333 8.33333C12.5667 8.338 12.7947 8.292 13 8.202M7 1L7.97667 2.092C8.15095 2.27936 8.26763 2.5129 8.3128 2.76477C8.35797 3.01663 8.32971 3.27617 8.23139 3.51241C8.13308 3.74865 7.96886 3.95161 7.75835 4.09707C7.54783 4.24253 7.2999 4.32434 7.04416 4.33274C6.78842 4.34113 6.53566 4.27577 6.31605 4.14443C6.09645 4.0131 5.91927 3.82134 5.80567 3.59206C5.69207 3.36278 5.64685 3.10565 5.67539 2.85137C5.70394 2.59708 5.80505 2.35639 5.96667 2.158L7 1Z" stroke="#B8B8B8" stroke-linecap="round" stroke-linejoin="round"/>
</svg>
