<svg width="181" height="37" viewBox="0 0 181 37" fill="none" xmlns="http://www.w3.org/2000/svg">
<path d="M31.6602 11.3407C25.2964 4.98265 17.5867 14.0494 17.5867 14.0494V21.8802C17.5867 21.8802 22.4927 16.8132 24.8077 15.4589C25.9133 14.8117 27.3273 15.1685 27.8273 16.0866C28.3728 17.0906 28.2445 18.4546 27.139 19.4927C26.7055 19.8998 17.5542 28.4005 17.5542 28.4005L8.41751 18.6233L17.5867 9.04403V0L0 18.6266L17.5542 36.8136L31.7869 23.3075C35.2221 19.9712 34.9688 14.6463 31.6602 11.3407Z" fill="#0C1631"/>
<path d="M48.4055 16.3089C49.8601 16.3089 50.9706 17.1993 51.3732 18.7078L51.4056 18.8083H52.7856L52.7515 18.6364C52.3602 16.4776 50.5728 14.9902 48.4055 14.9902C45.623 14.9902 43.7544 17.2934 43.7544 20.7206C43.7544 24.2013 45.6084 26.4494 48.4786 26.4494C49.6929 26.4494 50.7141 26.0374 51.4933 25.2572C52.3391 24.4106 52.7482 23.2087 52.7482 21.783V20.7547H48.5273V21.89H51.4933C51.4121 23.8364 50.2416 25.0885 48.4786 25.0885C47.6165 25.0885 46.8552 24.8161 46.2756 24.237C45.4915 23.452 45.0807 22.2355 45.084 20.7174C45.0807 19.2154 45.5061 17.9584 46.2821 17.1815C46.8487 16.6138 47.5841 16.3089 48.4055 16.3089Z" fill="#0C1631"/>
<path d="M61.1752 15.0781L57.292 26.2696H58.7109L59.8018 23.0257H63.8848L64.9741 26.2696H66.3946L62.5097 15.0781H61.1752ZM60.2337 21.8903L61.8425 17.1526L63.4529 21.8903H60.2337Z" fill="#0C1631"/>
<path d="M75.9909 24.2373L72.3366 15.0781H70.9307V26.2696H72.2294V18.1355L75.4146 26.2696H76.5526L79.8596 18.1339V26.2696H81.1583V15.0781H79.629L75.9909 24.2373Z" fill="#0C1631"/>
<path d="M90.2613 20.1618L89.1849 19.8471C87.8797 19.4692 87.2465 18.8885 87.2514 18.0711C87.2482 17.5601 87.4576 17.1141 87.8569 16.7832C88.2628 16.4475 88.8456 16.2561 89.4966 16.2528C90.7937 16.2609 91.6607 16.9357 91.7597 18.0289L91.7727 18.1619H93.0942L93.0877 17.9705C93.0114 16.1863 91.5535 14.918 89.5437 14.918H89.5112C87.4397 14.918 85.9316 16.2691 85.9251 18.0824C85.9299 19.4822 86.8423 20.5072 88.6362 21.0571L89.87 21.4301C91.3149 21.8567 91.9058 22.3725 91.9058 23.2159C91.9058 24.3934 90.9106 25.1817 89.4301 25.1882C88.0404 25.1817 87.1183 24.4745 87.0241 23.3635L87.0111 23.19H85.6426L85.6539 23.3635C85.7854 25.2288 87.2579 26.4339 89.409 26.4339H89.4495C90.6606 26.4339 91.6623 26.0949 92.3474 25.4088C92.9221 24.8314 93.224 24.0966 93.2208 23.2386C93.2256 21.0279 90.995 20.3759 90.2613 20.1618Z" fill="#0C1631"/>
<path d="M104.699 22.3964C104.699 24.0476 103.593 25.1618 101.939 25.1699C100.276 25.1635 99.1789 24.0492 99.1789 22.398V15.0781H97.7178V22.471C97.7178 23.5934 98.1447 24.5877 98.8769 25.3143C99.6204 26.0507 100.695 26.4318 101.866 26.4318H101.898C104.314 26.4318 105.996 24.8326 105.996 22.471V15.0781H104.697V22.3964H104.699Z" fill="#0C1631"/>
<path d="M117.686 23.8497L111.786 15.0781H110.542V26.2696H111.841V17.6084L117.764 26.2696H118.984V15.0781H117.686V23.8497Z" fill="#0C1631"/>
<path d="M128.238 21.89H131.272C131.191 23.8364 130.02 25.0885 128.255 25.0885C127.395 25.0885 126.632 24.8177 126.054 24.237C125.272 23.452 124.859 22.2355 124.862 20.7174C124.859 19.2154 125.283 17.9584 126.059 17.1815C126.626 16.6138 127.361 16.3089 128.184 16.3089C129.639 16.3089 130.747 17.1993 131.15 18.7078L131.183 18.8083H132.564L132.53 18.6364C132.139 16.4776 130.353 14.9902 128.184 14.9902C125.401 14.9902 123.531 17.2934 123.531 20.7206C123.531 24.2013 125.385 26.4494 128.254 26.4494C129.47 26.4494 130.54 26.0374 131.319 25.2556C132.163 24.4089 132.619 23.2071 132.619 21.7814V20.753H128.236V21.89H128.238Z" fill="#0C1631"/>
<path d="M136.842 16.3757H140.089V26.2696H141.388V16.3757H144.797V15.0781H136.842V16.3757Z" fill="#0C1631"/>
<path d="M150.317 21.4038H155.025V20.1062H150.317V16.3757H155.349V15.0781H149.018V26.2696H155.512V24.9721H150.317V21.4038Z" fill="#0C1631"/>
<path d="M164.347 16.3056C165.822 16.3056 167.003 17.261 167.285 18.7045L167.311 18.8083H168.668L168.636 18.6461C168.259 16.4435 166.535 14.9902 164.347 14.9902C161.548 14.9902 159.668 17.2934 159.668 20.7206C159.668 24.1478 161.548 26.4494 164.347 26.4494C166.538 26.4494 168.262 24.9491 168.636 22.7481L168.668 22.5388H167.311L167.285 22.6897C166.999 24.1348 165.819 25.1242 164.347 25.1242C163.514 25.1242 162.769 24.8193 162.192 24.2419C161.407 23.4552 160.993 22.2355 160.996 20.7174C160.993 19.2025 161.407 17.9827 162.192 17.1945C162.769 16.6171 163.514 16.3056 164.347 16.3056Z" fill="#0C1631"/>
<path d="M179.701 15.0781V20.1062H174.181V15.0781H172.882V26.2696H174.181V21.4038H179.701V26.2696H181V15.0781H179.701Z" fill="#0C1631"/>
</svg>
