<svg width="24" height="24" viewBox="0 0 24 24" fill="none" xmlns="http://www.w3.org/2000/svg">
<path d="M2 19.2501C2 17.7914 2.52677 16.3924 3.46442 15.3609C4.40208 14.3295 5.67381 13.75 6.99986 13.75H16.9996C18.3256 13.75 19.5973 14.3295 20.535 15.3609C21.4727 16.3924 21.9994 17.7914 21.9994 19.2501C21.9994 19.9794 21.736 20.6789 21.2672 21.1947C20.7984 21.7104 20.1625 22.0001 19.4995 22.0001H4.49993C3.83691 22.0001 3.20104 21.7104 2.73221 21.1947C2.26338 20.6789 2 19.9794 2 19.2501Z" stroke="#CCD2E3" stroke-width="2" stroke-linejoin="round"/>
<path d="M12.0068 10.8886C14.4613 10.8886 16.4511 8.89884 16.4511 6.44432C16.4511 3.98979 14.4613 2 12.0068 2C9.55229 2 7.5625 3.98979 7.5625 6.44432C7.5625 8.89884 9.55229 10.8886 12.0068 10.8886Z" stroke="#CCD2E3" stroke-width="2"/>
</svg>
