<svg width="22" height="22" viewBox="0 0 22 22" fill="none" xmlns="http://www.w3.org/2000/svg">
<circle cx="11" cy="11" r="10" fill="white" stroke="#BABABA" stroke-width="2"/>
<path d="M9.5625 13.5312C9.56771 12.8906 9.63021 12.3724 9.75 11.9766C9.86979 11.5807 10.0365 11.2656 10.25 11.0312C10.4688 10.7917 10.7604 10.5573 11.125 10.3281C11.4948 10.0938 11.7812 9.83854 11.9844 9.5625C12.1927 9.28125 12.2969 8.95833 12.2969 8.59375C12.2969 8.30729 12.2292 8.05729 12.0938 7.84375C11.9583 7.625 11.7734 7.45573 11.5391 7.33594C11.3099 7.21615 11.0521 7.15625 10.7656 7.15625C10.4948 7.15625 10.2422 7.21354 10.0078 7.32812C9.77344 7.44271 9.58073 7.61719 9.42969 7.85156C9.28385 8.08594 9.20312 8.36979 9.1875 8.70312H7.23438C7.25 8.02604 7.41667 7.45052 7.73438 6.97656C8.05208 6.4974 8.47656 6.13802 9.00781 5.89844C9.53906 5.65365 10.1302 5.53125 10.7812 5.53125C11.4792 5.53125 12.0964 5.65625 12.6328 5.90625C13.1745 6.15104 13.5938 6.5026 13.8906 6.96094C14.1927 7.41927 14.3438 7.95312 14.3438 8.5625C14.3438 9.16667 14.2005 9.6875 13.9141 10.125C13.6328 10.5625 13.224 10.9427 12.6875 11.2656C12.375 11.4531 12.125 11.6484 11.9375 11.8516C11.7552 12.0495 11.6198 12.2812 11.5312 12.5469C11.4427 12.8125 11.3958 13.1406 11.3906 13.5312V13.6719H9.5625V13.5312ZM10.5312 17.125C10.3125 17.125 10.1094 17.0703 9.92188 16.9609C9.73438 16.8516 9.58594 16.7031 9.47656 16.5156C9.36719 16.3281 9.3125 16.125 9.3125 15.9062C9.3125 15.6927 9.36719 15.4948 9.47656 15.3125C9.58594 15.125 9.73438 14.9766 9.92188 14.8672C10.1094 14.7578 10.3125 14.7031 10.5312 14.7031C10.7396 14.7031 10.9349 14.7578 11.1172 14.8672C11.3047 14.9766 11.4531 15.125 11.5625 15.3125C11.6771 15.4948 11.7344 15.6927 11.7344 15.9062C11.7344 16.125 11.6771 16.3281 11.5625 16.5156C11.4531 16.7031 11.3047 16.8516 11.1172 16.9609C10.9349 17.0703 10.7396 17.125 10.5312 17.125Z" fill="#BABABA"/>
</svg>
