<svg width="14" height="14" viewBox="0 0 14 14" fill="none" xmlns="http://www.w3.org/2000/svg">
<path d="M6.53405 1.17261C6.66247 1.06141 6.82825 1 7 1C7.17175 1 7.33753 1.06141 7.46595 1.17261L13.7816 6.64651C13.9136 6.76879 13.9917 6.93632 13.9994 7.11372C14.0071 7.29111 13.9437 7.46447 13.8227 7.59717C13.7018 7.72987 13.5326 7.81153 13.3511 7.82489C13.1695 7.83824 12.9897 7.78226 12.8497 7.66876L12.6139 7.46554V12.6315C12.6139 12.9945 12.466 13.3425 12.2028 13.5992C11.9396 13.8558 11.5826 14 11.2104 14H2.78959C2.41736 14 2.06039 13.8558 1.79718 13.5992C1.53398 13.3425 1.38612 12.9945 1.38612 12.6315V7.46554L1.15033 7.66876C1.01031 7.78226 0.830518 7.83824 0.648943 7.82489C0.467367 7.81153 0.298227 7.72987 0.177252 7.59717C0.0562778 7.46447 -0.00705775 7.29111 0.00062556 7.11372C0.00830887 6.93632 0.0864093 6.76879 0.218428 6.64651L6.53405 1.17261ZM2.78959 6.2476V12.6315H4.89479V9.21034C4.89479 9.02887 4.96873 8.85483 5.10033 8.72651C5.23193 8.59819 5.41042 8.5261 5.59653 8.5261H8.40347C8.58958 8.5261 8.76807 8.59819 8.89967 8.72651C9.03127 8.85483 9.10521 9.02887 9.10521 9.21034V12.6315H11.2104V6.24828L7 2.59924L2.78959 6.2476ZM7.70174 12.6315V9.89458H6.29826V12.6315H7.70174Z" fill="#1090CB"/>
</svg>
