<svg width="22" height="22" viewBox="0 0 22 22" fill="none" xmlns="http://www.w3.org/2000/svg">
<path d="M21.3781 5.34523L16.652 0.619369C16.2553 0.222787 15.7174 0 15.1566 0C14.5958 0 14.0579 0.222787 13.6613 0.619369L0.619724 13.662C0.422648 13.8579 0.266397 14.091 0.16002 14.3477C0.0536428 14.6045 -0.000744693 14.8797 7.70091e-06 15.1576V19.8846C7.70091e-06 20.4456 0.222845 20.9837 0.619498 21.3804C1.01615 21.7771 1.55413 22 2.11508 22H6.84121C7.11907 22.0008 7.39432 21.9464 7.65102 21.84C7.90771 21.7336 8.14073 21.5773 8.33656 21.3802L16.7397 12.9766L17.1797 14.4458L13.4857 18.1404C13.2473 18.3788 13.1134 18.7022 13.1134 19.0394C13.1134 19.3767 13.2473 19.7001 13.4857 19.9385C13.7241 20.177 14.0475 20.3109 14.3846 20.3109C14.7218 20.3109 15.0451 20.177 15.2835 19.9385L19.5137 15.7077C19.6757 15.5454 19.7907 15.3424 19.8466 15.12C19.9024 14.8976 19.897 14.6643 19.8309 14.4447L18.7797 10.9405L21.3802 8.33962C21.5769 8.14299 21.7329 7.90951 21.8392 7.65253C21.9456 7.39555 22.0002 7.12011 22 6.84199C21.9998 6.56386 21.9448 6.2885 21.8381 6.03167C21.7313 5.77484 21.575 5.54158 21.3781 5.34523ZM3.91289 13.9614L11.4214 6.4516L15.5458 10.5767L8.03728 18.0864L3.91289 13.9614ZM2.53809 16.1826L5.81645 19.4615H2.53809V16.1826ZM17.3436 8.77857L13.2192 4.65349L15.1587 2.71364L19.2831 6.83872L17.3436 8.77857Z" fill="#CCD2E3"/>
</svg>
