<svg width="12" height="12" viewBox="0 0 12 12" fill="none" xmlns="http://www.w3.org/2000/svg">
<circle cx="6" cy="6" r="6" fill="#D9D9D9"/>
<path d="M6.3326 5.99973L8.67293 3.65895L8.72798 3.60285L8.67293 3.54779L8.45167 3.32753L8.39662 3.27246L8.34156 3.32753L6.00123 5.6683L3.65986 3.32753L3.6048 3.27246L3.54975 3.32753L3.32849 3.54779L3.27344 3.60285L3.32849 3.65895L5.66987 5.99973L3.32849 8.34051L3.27344 8.39558L3.32849 8.45064L3.54975 8.67194L3.6048 8.72701L3.65986 8.67194L6.00123 6.33116L8.34156 8.67194L8.39662 8.72701L8.45167 8.67194L8.67293 8.45064L8.72798 8.39558L8.67293 8.34051L6.3326 5.99973Z" fill="white"/>
</svg>
