<svg width="215" height="231" viewBox="0 0 215 231" fill="none" xmlns="http://www.w3.org/2000/svg">
<path d="M203.179 230.043H11.0308C4.98163 230.043 0 225.24 0 219.012C0 212.963 4.98163 207.982 11.0308 207.982H203.179C209.229 207.982 214.21 212.963 214.21 219.012C214.21 225.24 209.229 230.043 203.179 230.043Z" fill="#A9A9A9"/>
<path d="M36.1137 120.093L97.3166 181.296L97.4946 181.474C99.9854 183.965 103.366 185.388 107.28 185.388C111.194 185.388 114.574 183.787 117.065 181.474L117.243 181.296L178.446 120.093C182.716 115.823 182.716 108.884 178.446 104.614C174.176 100.344 167.237 100.344 162.967 104.614L118.489 149.093V11.0308C117.955 4.98163 113.151 0 107.102 0C101.053 0 96.0712 4.98163 96.0712 11.0308V149.093L51.5924 104.614C49.4574 102.479 46.6108 101.412 43.7641 101.412C40.9175 101.412 38.0708 102.479 35.9358 104.614C31.8438 108.884 31.8438 115.823 36.1137 120.093Z" fill="#A9A9A9"/>
</svg>
