<svg width="59" height="47" viewBox="0 0 59 47" fill="none" xmlns="http://www.w3.org/2000/svg">
<path d="M54.2727 0.664001H4.20154C1.88907 0.664001 0 2.5619 0 4.88519V42.2433C0 44.5665 1.88907 46.4644 4.20154 46.4644H54.2727C56.5851 46.4644 58.4742 44.5665 58.4742 42.2433V4.88519C58.4742 2.551 56.596 0.664001 54.2727 0.664001ZM56.0097 9.27V42.2433C56.0097 43.2031 55.2389 43.9775 54.2835 43.9775H4.20154C3.24615 43.9775 2.47533 43.1922 2.47533 42.2433V9.27H56.0097ZM56.0097 4.88519V6.794H2.47533V4.88519C2.47533 3.92534 3.25701 3.15091 4.20154 3.15091H54.2727C55.228 3.14 56.0097 3.92534 56.0097 4.88519Z" fill="#CCD2E3"/>
<path d="M6.50293 6.19405C7.18048 6.19405 7.72974 5.64223 7.72974 4.96151C7.72974 4.2808 7.18048 3.72897 6.50293 3.72897C5.82538 3.72897 5.27612 4.2808 5.27612 4.96151C5.27612 5.64223 5.82538 6.19405 6.50293 6.19405Z" fill="#CCD2E3"/>
<path d="M10.4331 6.19405C11.1107 6.19405 11.6599 5.64223 11.6599 4.96151C11.6599 4.2808 11.1107 3.72897 10.4331 3.72897C9.75556 3.72897 9.2063 4.2808 9.2063 4.96151C9.2063 5.64223 9.75556 6.19405 10.4331 6.19405Z" fill="#CCD2E3"/>
<path d="M14.3743 3.72897C13.6903 3.72897 13.1475 4.28525 13.1475 4.96151C13.1475 5.63778 13.7012 6.19405 14.3743 6.19405C15.0474 6.19405 15.6119 5.63778 15.6119 4.96151C15.6119 4.28525 15.0474 3.72897 14.3743 3.72897Z" fill="#CCD2E3"/>
<path d="M30.1273 14.4074H37.7596C38.4435 14.4074 38.9972 13.8511 38.9972 13.164C38.9972 12.4768 38.4435 11.9205 37.7596 11.9205H30.1273C29.4433 11.9205 28.8896 12.4768 28.8896 13.164C28.8896 13.8511 29.4433 14.4074 30.1273 14.4074Z" fill="#CCD2E3"/>
<path d="M14.6022 14.4074H20.9316C21.6156 14.4074 22.1693 13.8511 22.1693 13.164C22.1693 12.4768 21.6156 11.9205 20.9316 11.9205H14.6022C13.9182 11.9205 13.3645 12.4768 13.3645 13.164C13.3645 13.8511 13.9291 14.4074 14.6022 14.4074Z" fill="#CCD2E3"/>
<path d="M24.6122 14.4074H26.447C27.1309 14.4074 27.6846 13.8511 27.6846 13.164C27.6846 12.4768 27.1309 11.9205 26.447 11.9205H24.6122C23.9282 11.9205 23.3745 12.4768 23.3745 13.164C23.3745 13.8511 23.9282 14.4074 24.6122 14.4074Z" fill="#CCD2E3"/>
<path d="M5.91735 14.4074H9.68463C10.3686 14.4074 10.9223 13.8511 10.9223 13.164C10.9223 12.4768 10.3686 11.9205 9.68463 11.9205H5.91735C5.23338 11.9205 4.67969 12.4768 4.67969 13.164C4.67969 13.8511 5.24424 14.4074 5.91735 14.4074Z" fill="#CCD2E3"/>
<path d="M30.9202 16.4689H21.8331C21.1492 16.4689 20.5955 17.0252 20.5955 17.7124C20.5955 18.3996 21.1492 18.9558 21.8331 18.9558H30.9202C31.6042 18.9558 32.1579 18.3996 32.1579 17.7124C32.1579 17.0252 31.6042 16.4689 30.9202 16.4689Z" fill="#CCD2E3"/>
<path d="M5.91735 18.9449H14.8958C15.5798 18.9449 16.1335 18.3887 16.1335 17.7015C16.1335 17.0143 15.5798 16.458 14.8958 16.458H5.91735C5.23338 16.458 4.67969 17.0143 4.67969 17.7015C4.67969 18.3887 5.24424 18.9449 5.91735 18.9449Z" fill="#CCD2E3"/>
</svg>
