<svg width="24" height="24" viewBox="0 0 24 24" fill="none" xmlns="http://www.w3.org/2000/svg">
<rect width="24" height="24" rx="12" fill="#D94242"/>
<path d="M12.397 6.00284C10.7543 5.95322 9.15895 6.55643 7.96004 7.68041C6.76113 8.80439 6.05636 10.3576 6 12C6.05636 13.6424 6.76113 15.1956 7.96004 16.3196C9.15895 17.4436 10.7543 18.0468 12.397 17.9972C14.0396 18.0468 15.635 17.4436 16.8339 16.3196C18.0328 15.1956 18.7376 13.6424 18.794 12C18.7376 10.3576 18.0328 8.80439 16.8339 7.68041C15.635 6.55643 14.0396 5.95322 12.397 6.00284ZM6.99953 12C7.01736 10.7541 7.5192 9.56403 8.39887 8.68157L15.6674 15.9981C14.7055 16.6586 13.5638 17.0075 12.397 16.9976C11.0194 17.0474 9.67811 16.5496 8.66661 15.613C7.65512 14.6764 7.05571 13.3774 6.99953 12ZM16.3951 15.3184L9.12652 8.00189C10.0885 7.34144 11.2302 6.99252 12.397 7.00236C13.7746 6.95259 15.1158 7.45044 16.1273 8.38701C17.1388 9.32358 17.7382 10.6226 17.7944 12C17.7766 13.2459 17.2747 14.436 16.3951 15.3184Z" fill="white" stroke="white"/>
</svg>
