<svg width="53" height="54" viewBox="0 0 53 54" fill="none" xmlns="http://www.w3.org/2000/svg">
<path d="M52.989 14.4515V5.62835C52.989 0.16081 29.2081 0 26.5 0C23.7919 0 0 0.16081 0 5.62835V14.4515C0 15.5986 1.01965 16.5849 3.03703 17.3889V19.651C0.997724 20.4229 0 21.3877 0 22.5992V31.4223C0 32.5694 1.01965 33.5557 3.03703 34.3597V36.6004C0.997724 37.3722 0 38.3371 0 39.5485V48.3717C0 53.8392 23.7809 54 26.5 54C29.2191 54 53 53.8392 53 48.3717V39.5485C53 38.3371 52.0023 37.3722 49.963 36.6004V34.3597C51.9803 33.5557 53 32.5694 53 31.4223V22.5992C53 21.3877 52.0023 20.4229 49.963 19.651V17.3889C51.9694 16.5849 52.989 15.5986 52.989 14.4515ZM50.3906 39.57C50.3686 39.5914 50.3467 39.6021 50.3138 39.6236L50.1823 39.7201C50.1494 39.7415 50.1165 39.7737 50.0616 39.8058C50.0178 39.8273 49.963 39.8594 49.9081 39.8809L49.7108 39.9774C49.656 40.0095 49.6012 40.031 49.5354 40.0631C49.4586 40.0953 49.3819 40.1275 49.2942 40.1596L49.0639 40.2454C48.9872 40.2775 48.9104 40.3097 48.8227 40.3419C48.735 40.374 48.6254 40.4062 48.5267 40.4384L48.2307 40.5348C48.132 40.567 48.0333 40.5992 47.9237 40.6313C47.8031 40.6635 47.6605 40.7064 47.518 40.7385L47.2 40.8243C47.0794 40.8565 46.9588 40.8886 46.8273 40.9208C46.6847 40.9529 46.5203 40.9958 46.3558 41.028L45.9173 41.1245C45.7966 41.1459 45.687 41.1781 45.5664 41.1995C45.4129 41.2317 45.2375 41.2639 45.0621 41.296L44.5468 41.3925C44.4042 41.4139 44.2727 41.4461 44.1301 41.4675C43.9437 41.4997 43.7464 41.5319 43.549 41.564L43.0337 41.6498C42.8583 41.682 42.6938 41.7034 42.5074 41.7356C42.2662 41.7677 42.0141 41.7999 41.7619 41.832L41.2247 41.9071C41.0602 41.9285 40.8957 41.95 40.7203 41.9714C40.4572 42.0036 40.1721 42.0357 39.898 42.0679L39.306 42.1322C39.1305 42.1537 38.9551 42.1751 38.7687 42.1858C38.5275 42.2073 38.2863 42.2287 38.0341 42.2502L37.3544 42.3145C37.1241 42.3359 36.8939 42.3574 36.6417 42.3788C36.3347 42.4002 36.0168 42.4217 35.6878 42.4431L34.9752 42.486C34.7669 42.4967 34.5585 42.5182 34.3502 42.5289C33.9446 42.5503 33.5279 42.5718 33.1003 42.5932L32.4754 42.6254C32.289 42.6361 32.0916 42.6468 31.8943 42.6575C31.5763 42.6683 31.2474 42.679 30.9185 42.6897L29.9537 42.7111C29.7344 42.7219 29.5041 42.7219 29.2739 42.7326C27.4758 42.7647 25.5132 42.7647 23.7151 42.7326C10.3171 42.4646 3.49752 40.4812 2.57654 39.5807C2.741 39.4413 3.12474 39.1733 3.94704 38.8624C3.95801 38.8731 3.97993 38.8839 3.9909 38.8946L4.12247 38.9911C8.17915 42.0143 22.8709 42.2609 25.7764 42.2716C26.1492 42.2716 26.4123 42.2716 26.489 42.2716C26.5658 42.2716 26.8289 42.2716 27.2017 42.2716C30.1072 42.2502 44.7989 42.0036 48.8995 38.9589L48.9872 38.8946C48.9981 38.8839 49.0201 38.8731 49.031 38.8624C49.4915 39.034 50.0288 39.2805 50.3906 39.5593V39.57ZM43.1982 38.7552L43.0556 38.5086C42.7048 38.5837 42.3211 38.648 41.8825 38.7231L41.7838 38.7445C41.411 38.8088 41.0054 38.8731 40.5997 38.9267L40.3695 38.9589C39.9748 39.0125 39.5581 39.0661 39.1305 39.1197L38.8016 39.1626C38.4398 39.2055 38.0561 39.2484 37.6723 39.2912L37.0912 39.3556C36.6636 39.3985 36.2031 39.4306 35.7536 39.4735L35.2383 39.5164C34.7778 39.5485 34.2954 39.5807 33.802 39.6129L33.2538 39.645C32.7604 39.6772 32.2342 39.6986 31.7079 39.7201L31.1378 39.7522C30.5457 39.7737 29.9208 39.7951 29.2849 39.8058L28.8792 39.8166C27.3333 39.8487 25.6558 39.8487 24.0989 39.8166L23.6932 39.8058C23.0683 39.7951 22.4433 39.7737 21.8403 39.7522L21.018 39.7094C20.5794 39.6879 20.1409 39.6665 19.7242 39.645L18.8252 39.5914C18.4524 39.57 18.0906 39.5485 17.7398 39.5164L16.8517 39.4413C16.5228 39.4092 16.2048 39.3877 15.8978 39.3556C15.7333 39.3448 15.5799 39.3234 15.4154 39.302L14.9768 39.2591C14.7027 39.2269 14.4396 39.2055 14.1874 39.1733L13.2993 39.0554C13.0691 39.0232 12.8389 39.0018 12.6305 38.9696L11.7973 38.841C11.5999 38.8088 11.4026 38.7767 11.2162 38.7445C11.0846 38.7231 10.964 38.7016 10.8324 38.6802L10.4377 38.6051C10.2733 38.573 10.0978 38.5408 9.94435 38.5086C9.79086 38.4765 9.65929 38.4443 9.51676 38.4229L9.13302 38.3371C9.02338 38.3157 8.9247 38.2942 8.82602 38.2728C8.63964 38.2299 8.47518 38.187 8.2559 38.1334L7.86119 38.0369C7.71866 37.994 7.59806 37.9619 7.46649 37.919L7.04986 37.7904C6.92925 37.7475 6.83058 37.7153 6.72094 37.6724L6.56744 37.6188C6.50165 37.5974 6.44684 37.5759 6.39201 37.5545C6.3043 37.5223 6.23852 37.4902 6.11791 37.4258L6.0302 37.383C5.98635 37.3615 5.93153 37.3401 5.88767 37.3186C5.85478 37.2972 5.82189 37.2865 5.79996 37.265L5.69032 37.2007C5.64646 37.1793 5.60261 37.1471 5.58068 37.1257L5.53682 37.0721C5.52586 37.0614 5.50393 37.0399 5.482 37.0185V35.1209C6.69901 35.4211 8.12433 35.6998 9.73604 35.9357C14.2203 36.6111 19.9326 36.997 25.8093 37.0292H26.4452H27.0811C32.9578 37.0077 38.6591 36.6218 43.1543 35.9357C44.777 35.6998 46.2023 35.4211 47.4084 35.1209V37.0185C47.3864 37.0399 47.3645 37.0613 47.3316 37.1042C47.2549 37.1686 47.1562 37.2329 47.0246 37.2972C46.893 37.3722 46.7396 37.4473 46.5422 37.5223C46.3558 37.5974 46.1475 37.6724 45.8953 37.7582C45.6541 37.8332 45.4019 37.919 45.084 38.0048C44.8099 38.0798 44.5029 38.1656 44.1192 38.2513C43.8012 38.3264 43.4504 38.4014 43.0885 38.4765L43.1982 38.7552ZM48.3184 32.355C47.4193 32.6444 46.29 32.9232 44.9743 33.1805L44.3055 33.3091C44.152 33.3413 43.9876 33.3627 43.8341 33.3949L43.7464 33.4056C43.4613 33.4485 43.1763 33.5021 42.8802 33.545C42.65 33.5771 42.4197 33.6093 42.1895 33.6415C41.9592 33.6736 41.729 33.7058 41.4878 33.7379L41.411 33.7487C40.2379 33.8988 39.0319 34.0381 37.8258 34.1346L37.7491 34.1453C36.3457 34.274 34.8546 34.3705 33.3196 34.4455L32.9359 34.4669C32.3767 34.4884 31.8175 34.5098 31.2474 34.5313C30.7211 34.5527 30.1839 34.5634 29.6357 34.5742L28.8353 34.5849C27.3004 34.6063 25.6667 34.6063 24.1318 34.5849L23.3314 34.5742C22.7942 34.5634 22.2679 34.542 21.7526 34.5313C21.1605 34.5098 20.5794 34.4884 20.0093 34.4669L19.6694 34.4455C16.5556 34.2954 13.6831 34.0381 11.1065 33.6843L10.9859 33.6736C10.5912 33.62 10.2075 33.5664 9.83471 33.5021L9.67025 33.4806C7.63095 33.159 5.94249 32.7838 4.64874 32.3657C4.61585 32.355 4.58295 32.355 4.56103 32.355C4.5391 32.355 4.5391 32.355 4.5391 32.3657C2.90546 31.8511 2.55461 31.4866 2.47787 31.3794V25.3008L2.56558 25.3437C2.741 25.4187 2.91643 25.4937 3.10281 25.5688L3.2892 25.6438C3.54137 25.7403 3.81547 25.8368 4.08957 25.9226L4.23211 25.9655C4.46235 26.0405 4.70356 26.1048 4.95573 26.1799C5.04344 26.2013 5.13115 26.2228 5.25176 26.2549C5.46007 26.3085 5.66839 26.3621 5.88767 26.4157L6.21659 26.4908C6.43587 26.5444 6.66611 26.5873 6.89636 26.6301L7.21432 26.6945C7.48842 26.7481 7.76252 26.8017 8.04758 26.8553L8.24493 26.8874C8.59578 26.9518 8.95759 27.0054 9.3194 27.0697L9.51676 27.1018C9.81279 27.1447 10.1088 27.1876 10.4158 27.2305L11.9069 27.4235C12.17 27.4556 12.4441 27.4878 12.7402 27.52L13.0362 27.5521C13.3542 27.5843 13.6831 27.6164 14.001 27.6486L14.1545 27.6593C14.5383 27.6915 14.911 27.7236 15.2948 27.7558L15.5579 27.7773C15.843 27.7987 16.1281 27.8201 16.4131 27.8416L20.8864 28.0989L26.3136 28.2275L27.9363 28.2168C28.3091 28.2061 28.7367 28.2061 29.2191 28.1954L35.4137 27.9273C35.6659 27.9166 35.929 27.8952 36.1922 27.8737L37.6394 27.7665C38.0122 27.7344 38.3959 27.7022 38.7687 27.67L41.3891 27.3913C41.6523 27.3591 41.9044 27.327 42.1676 27.2948L42.5184 27.2519C42.8144 27.2091 43.1105 27.1662 43.4065 27.1233L43.6148 27.0911C43.9766 27.0375 44.3384 26.9732 44.6893 26.9089L44.8976 26.866C45.1717 26.8124 45.4458 26.7695 45.7199 26.7159L46.0379 26.6516C46.2681 26.6087 46.4874 26.5551 46.7067 26.5122L47.0465 26.4372C47.2658 26.3836 47.4741 26.33 47.7373 26.2656L47.9785 26.2013C48.2197 26.137 48.4609 26.0619 48.746 25.9762L48.8556 25.944C49.1297 25.8583 49.4038 25.7618 49.656 25.6653L49.8424 25.5902C50.0288 25.5152 50.2042 25.4401 50.3796 25.3651L50.4673 25.3222V31.3365C50.3906 31.4544 50.0397 31.8297 48.3842 32.355H48.3184ZM50.3906 22.6206C50.3686 22.6421 50.3357 22.6635 50.3029 22.6849L50.1603 22.7814C50.1384 22.8029 50.1055 22.8243 50.0726 22.8457C50.0178 22.8779 49.952 22.9101 49.8862 22.9422L49.6889 23.0387C49.645 23.0602 49.6012 23.0816 49.5463 23.103C49.4477 23.1459 49.338 23.1888 49.2284 23.2317L49.0091 23.3175C48.9543 23.3389 48.8995 23.3603 48.8337 23.3818C48.7021 23.4247 48.5486 23.4783 48.3951 23.5211L48.1429 23.6069C48.0772 23.6284 48.0114 23.6498 47.9346 23.6712C47.7702 23.7141 47.5838 23.7677 47.3974 23.8106L46.8492 23.95C46.6409 24.0036 46.4106 24.0465 46.1804 24.1001L45.5883 24.2287C45.3691 24.2716 45.1169 24.3145 44.8757 24.3681L44.5029 24.4431C44.3823 24.4646 44.2727 24.486 44.1521 24.5074C43.8999 24.5503 43.6367 24.5932 43.3736 24.6361L42.946 24.7004C42.8144 24.7219 42.6829 24.7433 42.5403 24.7647C42.332 24.7969 42.1127 24.8291 41.8935 24.8505L41.2685 24.9363C41.1041 24.9577 40.9286 24.9792 40.7532 25.0006C40.512 25.0328 40.2489 25.0542 39.9857 25.0864L39.3608 25.1507C39.1744 25.1721 38.988 25.1936 38.7906 25.215C38.4069 25.2579 37.9903 25.2901 37.5846 25.3222L36.6636 25.3973C36.1922 25.4294 35.6878 25.4616 35.1177 25.5045L34.3722 25.5581C33.9994 25.5795 33.6047 25.601 33.2209 25.6117L32.5302 25.6438C32.3329 25.6546 32.1355 25.6653 31.9272 25.676C31.5654 25.6867 31.1707 25.6974 30.7869 25.7082L30.0304 25.7296C29.7892 25.7403 29.548 25.7403 29.2958 25.751C27.4977 25.7832 25.5352 25.7832 23.7371 25.751C10.3171 25.5152 3.49752 23.5319 2.57654 22.6313C2.741 22.492 3.12474 22.2239 3.94704 21.913C7.75155 25.0328 22.7832 25.2901 25.7873 25.3115C26.1601 25.3115 26.4123 25.3115 26.489 25.3115C26.5767 25.3115 26.818 25.3115 27.1907 25.3115C30.0852 25.2901 44.6893 25.0542 48.8118 22.0631L48.9762 21.9452C48.9872 21.9345 49.0091 21.9238 49.0201 21.913C49.4806 22.0953 50.0288 22.3312 50.3906 22.6099V22.6206ZM43.1872 21.7951L43.0666 21.5485C42.7158 21.6236 42.332 21.6879 41.9373 21.763L41.7948 21.7844C41.411 21.8487 41.0054 21.913 40.5778 21.9774L40.3695 22.0095C39.9528 22.0739 39.5143 22.1275 39.0648 22.1811L38.8126 22.2132C38.385 22.2668 37.9464 22.3097 37.4859 22.3526L37.0912 22.3955C36.6636 22.4384 36.2031 22.4705 35.7317 22.5134L35.2383 22.5563C34.7778 22.5884 34.2844 22.6206 33.7911 22.6528L33.2429 22.6849C32.7385 22.7171 32.2122 22.7385 31.686 22.76L31.1158 22.7814C30.5238 22.8029 29.8988 22.8243 29.2629 22.835L28.8573 22.8457C27.3113 22.8779 25.6229 22.8779 24.077 22.8457L23.6713 22.835C23.0463 22.8243 22.4214 22.8029 21.8184 22.7814L21.1934 22.7493C20.6891 22.7278 20.1847 22.7064 19.6914 22.6742L18.8142 22.6206C18.4415 22.5992 18.0687 22.5777 17.7069 22.5456L17.0271 22.492C16.6324 22.4598 16.2377 22.4276 15.8649 22.3848L15.24 22.3204C14.8782 22.2775 14.5054 22.2454 14.1545 22.2025L13.4857 22.1167C13.1787 22.0739 12.8827 22.0417 12.5976 21.9988L12.0165 21.913C11.7315 21.8702 11.4464 21.8273 11.1833 21.7844L10.5693 21.6665C10.35 21.6236 10.1198 21.5914 9.91146 21.5485L9.3523 21.4306C9.16591 21.3877 8.96856 21.3449 8.79313 21.302L8.32168 21.184C8.14626 21.1412 7.9818 21.0983 7.8283 21.0554L7.45552 20.9375C7.31299 20.8946 7.18142 20.8517 7.06082 20.8195C7.006 20.7981 6.95118 20.7767 6.90732 20.7659L6.75383 20.7123C6.63322 20.6694 6.51262 20.6266 6.41394 20.5837L6.24948 20.5086C6.13984 20.455 6.01924 20.4122 5.89863 20.3371L5.83285 20.2942C5.7561 20.2513 5.67935 20.1977 5.59164 20.1227C5.55875 20.1013 5.54779 20.0798 5.52586 20.0584V18.1608C6.74286 18.4717 8.17915 18.7397 9.79086 18.9756C14.2751 19.651 19.9764 20.0369 25.8531 20.0691H26.489H27.1249C33.0017 20.0476 38.7029 19.6617 43.1872 18.9863C44.8099 18.7504 46.2352 18.4717 47.4522 18.1715V20.0691C47.4303 20.0905 47.4084 20.112 47.3755 20.1549C47.1671 20.3264 46.4545 20.7767 44.174 21.3127C43.8451 21.3877 43.4942 21.4628 43.1214 21.5378L43.1872 21.7951ZM48.3184 15.3842C47.4193 15.6736 46.301 15.9524 44.9853 16.1989L43.7464 16.4241C43.4613 16.4669 43.1763 16.5205 42.8802 16.5634L41.422 16.7671C40.2489 16.9172 39.0428 17.0566 37.8368 17.1638L37.8587 17.4318L37.76 17.1745C36.3566 17.2924 34.8655 17.3996 33.3306 17.4747L32.9468 17.4961C32.3877 17.5176 31.8285 17.539 31.2584 17.5605C30.7321 17.5819 30.1949 17.5926 29.6467 17.6033L28.8463 17.6141C27.3113 17.6355 25.6887 17.6355 24.1318 17.6141L23.3424 17.6033C22.8051 17.5926 22.2789 17.5712 21.7635 17.5605C21.1715 17.539 20.5904 17.5176 20.0203 17.4961L19.6804 17.4854C16.5556 17.3353 13.694 17.078 11.1504 16.735L10.9969 16.7135C10.6132 16.6599 10.2294 16.6063 9.8676 16.5527L9.68122 16.5205C7.65288 16.1989 5.96442 15.8237 4.68163 15.4056C4.63777 15.3949 4.60488 15.3842 4.58295 15.3842C4.57199 15.3842 4.56103 15.3842 4.56103 15.3949C2.92739 14.8803 2.57654 14.5158 2.49979 14.4086V8.32996L2.58751 8.37284C2.76293 8.44789 2.94932 8.52293 3.13571 8.59798L3.31113 8.67302C3.5633 8.76951 3.8374 8.86599 4.12247 8.95176L4.25403 8.99464C4.49524 9.06968 4.73645 9.14473 4.98862 9.20905L5.27369 9.2841C5.49297 9.3377 5.70128 9.39131 5.92056 9.44491L6.24948 9.51995C6.47973 9.57356 6.69901 9.61644 6.94022 9.67004L7.24721 9.73437C7.52131 9.78797 7.80637 9.84157 8.09144 9.89518L8.26686 9.92734C8.62867 9.98094 8.99048 10.0453 9.36326 10.0989L9.52772 10.1203C9.83471 10.1632 10.1417 10.2061 10.4487 10.249L10.7776 10.2918C11.0408 10.324 11.3039 10.3562 11.578 10.3883L11.9288 10.4312C12.2029 10.4634 12.477 10.4955 12.7621 10.5277L13.0581 10.5599C13.398 10.592 13.7379 10.6242 14.0778 10.6563L14.0997 10.3883L14.1765 10.6671C14.5602 10.6992 14.9439 10.7314 15.3277 10.7636L19.9326 11.0637C20.2724 11.0852 20.6014 11.0959 20.9303 11.1066L26.204 11.2353L27.9801 11.2245C28.3529 11.2245 28.7805 11.2138 29.2739 11.2031L36.5759 10.8493C36.8719 10.8279 37.1789 10.8064 37.475 10.785L37.6833 10.7636C38.067 10.7314 38.4398 10.6992 38.8235 10.6671L38.8016 10.399L38.9551 10.6563C39.284 10.6242 39.6239 10.592 39.9528 10.5599L40.2708 10.5277C40.5449 10.4955 40.808 10.4634 41.0821 10.4419L41.4439 10.399C41.7071 10.3669 41.9702 10.3347 42.2224 10.3026L42.5732 10.2597C42.8802 10.2168 43.1763 10.1739 43.4723 10.131L43.6587 10.0989C44.0205 10.0453 44.3823 9.98094 44.7441 9.91662L44.9305 9.88446C45.2156 9.83085 45.4897 9.77725 45.7638 9.72365L46.0817 9.65932C46.312 9.61644 46.5422 9.56284 46.7615 9.50923L47.0904 9.43419C47.3097 9.38058 47.518 9.32698 47.7263 9.27338L48.0223 9.19833C48.2745 9.13401 48.5157 9.05896 48.746 8.98392L48.8885 8.94104C49.1736 8.85527 49.4367 8.75879 49.6889 8.6623L49.8753 8.58726C50.0616 8.51221 50.248 8.43717 50.4235 8.36212L50.5112 8.31924V14.3443C50.4344 14.4622 50.0836 14.8374 48.4499 15.3627L48.3184 15.3842ZM50.3796 5.66051C50.3467 5.68195 50.3138 5.71412 50.27 5.73556L50.1494 5.82132C50.1165 5.84276 50.0836 5.86421 50.0397 5.89637C49.9849 5.92853 49.9191 5.96069 49.8533 5.98213L49.6669 6.0679C49.6121 6.10006 49.5573 6.1215 49.4915 6.15366C49.4257 6.19655 49.338 6.22871 49.2503 6.26087L49.0201 6.34664C48.9543 6.3788 48.8666 6.40024 48.7789 6.4324C48.6911 6.46456 48.5815 6.49673 48.4719 6.52889L48.1978 6.61465C48.0881 6.64681 47.9894 6.67898 47.8688 6.71114C47.7482 6.7433 47.6167 6.77546 47.4851 6.80762L47.2 6.88267C47.0685 6.91483 46.9369 6.95771 46.7834 6.98988C46.6409 7.02204 46.4874 7.0542 46.3339 7.08636L45.9392 7.19357C45.7966 7.22573 45.6651 7.25789 45.5116 7.29005C45.3471 7.32222 45.1717 7.35438 44.9963 7.38654L44.5906 7.46159C44.4152 7.49375 44.2507 7.52591 44.0643 7.55807C43.8889 7.59023 43.7135 7.61167 43.5271 7.64384L43.0337 7.71888C42.8473 7.75104 42.65 7.78321 42.4417 7.81537C42.2772 7.83681 42.0908 7.85825 41.9154 7.89041L41.2466 7.97618C41.0602 8.00834 40.8629 8.02978 40.6545 8.05122C40.4243 8.08338 40.1831 8.10483 39.9309 8.13699L39.306 8.20131C39.1086 8.22275 38.9113 8.24419 38.692 8.26563C38.4288 8.28708 38.1547 8.31924 37.8806 8.34068L37.2118 8.39428C37.0035 8.41572 36.7952 8.43717 36.5759 8.44789C36.3237 8.46933 36.0496 8.49077 35.7865 8.50149L34.9861 8.55509C34.7778 8.57653 34.5585 8.59798 34.3173 8.6087C34.0213 8.63014 33.7034 8.64086 33.3964 8.65158L32.5192 8.69446C32.3109 8.70518 32.0916 8.7159 31.8724 8.72662C31.4009 8.74806 30.9075 8.75879 30.4142 8.76951L29.2629 8.79095C27.4648 8.82311 25.5132 8.82311 23.7151 8.79095C10.2075 8.54437 3.37691 6.52889 2.55461 5.63907C3.45366 4.64205 11.2052 2.43359 26.489 2.43359C41.5645 2.43359 49.3819 4.60989 50.4125 5.61763L50.3796 5.66051ZM2.49979 42.2502L2.58751 42.293C2.76293 42.3681 2.93835 42.4431 3.19053 42.5396L3.32209 42.5932C3.57427 42.6897 3.84837 42.7862 4.13343 42.872L4.265 42.9148C4.50621 42.9899 4.74741 43.0649 4.99959 43.1292L5.28465 43.2043C5.49297 43.2579 5.71225 43.3115 5.93153 43.3651L6.26045 43.4401C6.49069 43.4938 6.70997 43.5366 6.95118 43.5902L7.25817 43.6546C7.53227 43.7082 7.81734 43.7618 8.1024 43.8154L8.27782 43.8475C8.63964 43.9119 9.00145 43.9655 9.36326 44.0298L9.53868 44.0619C9.84568 44.1048 10.1417 44.1477 10.4487 44.1906L10.7886 44.2335C11.0517 44.2656 11.3149 44.2978 11.578 44.33L13.0581 44.5015C13.398 44.5337 13.7269 44.5658 14.0668 44.598L14.1765 44.6087C14.5602 44.6409 14.9439 44.673 15.3277 44.7052L15.5031 44.7159C15.8211 44.7373 16.1281 44.7695 16.435 44.791L18.9239 44.9518C19.2528 44.9732 19.5817 44.9839 19.9326 45.0054L20.9193 45.0482L26.4452 45.1769L27.9692 45.1662C28.342 45.1555 28.7696 45.1555 29.2629 45.1447L33.1223 45.0054C33.4402 44.9946 33.7582 44.9732 34.0761 44.9518L37.6723 44.7052C38.0561 44.673 38.4288 44.6409 38.8126 44.6087L38.9441 44.598C39.2731 44.5658 39.6129 44.5337 39.9419 44.5015L40.2598 44.4693C40.5339 44.4372 40.7971 44.405 41.0712 44.3836L41.433 44.3407C41.6961 44.3085 41.9592 44.2764 42.2443 44.2335L42.5623 44.1906C42.8693 44.1477 43.1653 44.1048 43.4613 44.0619L43.6477 44.0298C44.0095 43.9762 44.3713 43.9119 44.7222 43.8475L44.9086 43.8154C45.1936 43.7618 45.4677 43.7082 45.7418 43.6546L46.0598 43.5902C46.29 43.5474 46.5203 43.4938 46.7396 43.4401L47.0685 43.3651C47.2878 43.3115 47.4961 43.2579 47.7044 43.2043L48.0004 43.1292C48.2526 43.0649 48.4938 42.9899 48.7789 42.9041L48.8666 42.872C49.1516 42.7862 49.4148 42.6897 49.6779 42.5932L49.8643 42.5182C50.0507 42.4431 50.2371 42.3681 50.4125 42.293L50.5002 42.2502V48.2752C49.9739 49.24 42.2991 51.5557 26.5 51.5557C10.9311 51.5557 3.02607 49.24 2.49979 48.3073V42.2502Z" fill="#CCD2E3"/>
</svg>
