<svg width="16" height="16" viewBox="0 0 16 16" fill="none" xmlns="http://www.w3.org/2000/svg">
<path d="M15.5529 0.915732C15.2884 0.836293 15.0008 0.936101 14.8475 1.15812C13.2144 3.51074 10.7688 4.51494 6.66702 4.51494H4.6329H0.629756C0.281291 4.51494 0 4.78788 0 5.12601V10.3955C0 10.7336 0.281291 11.0065 0.629756 11.0065H2.40567V11.5952C2.40567 13.5323 4.03044 15.1109 6.02886 15.1109H6.38782C8.38415 15.1109 10.011 13.5343 10.011 11.5952V11.3039C12.1984 11.7541 13.7182 12.7359 14.8475 14.3613C14.9672 14.5324 15.1645 14.6302 15.3702 14.6302C15.4311 14.6302 15.4941 14.622 15.555 14.6037C15.8195 14.5263 16 14.288 16 14.0191V1.50032C15.9979 1.23145 15.8174 0.995171 15.5529 0.915732ZM1.25951 5.73708H4.00315V9.7844H1.25951V5.73708ZM8.74941 11.5932C8.74941 12.8581 7.68932 13.8867 6.38573 13.8867H6.02676C4.72317 13.8867 3.66308 12.8581 3.66308 11.5932V11.0045H4.63081H6.66492C7.41223 11.0045 8.10496 11.0391 8.74731 11.1084V11.5932H8.74941ZM14.7384 12.3142C13.4264 11.0514 11.7554 10.2997 9.5429 9.97587C9.49252 9.96161 9.44004 9.95346 9.38546 9.95346C8.55628 9.84143 7.65573 9.7844 6.66702 9.7844H5.26266V5.73708H6.66702C10.3889 5.73708 12.9079 4.96509 14.7384 3.20521V12.3142Z" fill="white"/>
</svg>
