<svg width="8" height="8" viewBox="0 0 8 8" fill="none" xmlns="http://www.w3.org/2000/svg">
<path d="M1.90438 3.02218L0.646927 4.27957C0.442882 4.48089 0.280676 4.72058 0.169651 4.98485C0.0586254 5.24911 0.000973075 5.53272 1.27662e-05 5.81936C-0.000947543 6.10599 0.0548035 6.38998 0.164056 6.65498C0.273308 6.91998 0.433904 7.16075 0.636595 7.36344C0.839287 7.56612 1.08007 7.72671 1.34508 7.83595C1.6101 7.9452 1.8941 8.00095 2.18075 7.99999C2.4674 7.99903 2.75103 7.94138 3.0153 7.83036C3.27958 7.71934 3.51928 7.55714 3.72061 7.3531L4.1395 6.93424C4.19614 6.87959 4.24133 6.8142 4.27243 6.7419C4.30353 6.6696 4.31991 6.59183 4.32063 6.51313C4.32136 6.43443 4.30639 6.35637 4.27662 6.28351C4.24685 6.21065 4.20287 6.14445 4.14724 6.08877C4.09161 6.03309 4.02545 5.98905 3.95261 5.95921C3.87978 5.92937 3.80173 5.91434 3.72303 5.91498C3.64432 5.91563 3.56653 5.93194 3.49419 5.96297C3.42186 5.994 3.35643 6.03913 3.30172 6.09572L2.88205 6.51498C2.69647 6.69888 2.4456 6.80178 2.18433 6.80117C1.92306 6.80056 1.67267 6.69649 1.48795 6.51173C1.30323 6.32697 1.19922 6.07656 1.19869 5.8153C1.19816 5.55405 1.30114 5.30322 1.4851 5.1177L2.74255 3.86031C2.87846 3.72435 3.05109 3.63099 3.23928 3.59168C3.42747 3.55238 3.62304 3.56883 3.80202 3.63902C3.86577 3.66431 3.92558 3.69013 3.98143 3.71647L4.16479 3.80222C4.4098 3.91287 4.5983 3.96029 4.83817 3.72082C5.18276 3.37624 5.09345 3.05814 4.67338 2.76849C4.25493 2.48057 3.74884 2.34829 3.243 2.39463C2.73717 2.44097 2.26354 2.66301 1.90438 3.02218ZM4.27939 0.64729L3.8605 1.06616C3.75247 1.1779 3.69265 1.3276 3.69393 1.48301C3.69521 1.63842 3.75748 1.78712 3.86733 1.89707C3.97718 2.00702 4.12583 2.06943 4.28125 2.07085C4.43667 2.07227 4.58643 2.0126 4.69828 1.90468L5.11756 1.48581C5.20867 1.39143 5.31766 1.31614 5.43818 1.26434C5.5587 1.21253 5.68833 1.18524 5.8195 1.18406C5.95068 1.18288 6.08078 1.20784 6.20221 1.25748C6.32364 1.30712 6.43396 1.38044 6.52675 1.47317C6.61954 1.5659 6.69292 1.67618 6.74263 1.79757C6.79234 1.91897 6.81738 2.04905 6.81627 2.18022C6.81517 2.31139 6.78795 2.44103 6.73621 2.56157C6.68447 2.68211 6.60924 2.79114 6.5149 2.8823L5.25745 4.13969C5.12154 4.27565 4.94891 4.36901 4.76072 4.40832C4.57253 4.44762 4.37696 4.43117 4.19798 4.36098C4.13423 4.33569 4.07442 4.30987 4.01857 4.28352L3.83521 4.19778C3.5902 4.08713 3.40131 4.03971 3.16183 4.27918C2.81724 4.62376 2.90655 4.94186 3.32662 5.23151C3.74507 5.51943 4.25116 5.65171 4.757 5.60537C5.26283 5.55903 5.73646 5.33699 6.09562 4.97782L7.35307 3.72043C7.55712 3.51911 7.71932 3.27942 7.83035 3.01515C7.94137 2.75089 7.99903 2.46728 7.99999 2.18064C8.00095 1.89401 7.9452 1.61002 7.83594 1.34502C7.72669 1.08002 7.5661 0.839245 7.36341 0.636563C7.16071 0.433882 6.91993 0.273294 6.65492 0.164047C6.3899 0.0548002 6.1059 -0.000948064 5.81925 1.21972e-05C5.5326 0.000972459 5.24897 0.0586223 4.9847 0.169642C4.72042 0.280662 4.48072 0.443255 4.27939 0.64729Z" fill="#787878"/>
</svg>
