<svg width="15" height="12" viewBox="0 0 15 12" fill="none" xmlns="http://www.w3.org/2000/svg">
<path d="M1 2.42857C1 2.04969 1.15051 1.68633 1.41842 1.41842C1.68633 1.15051 2.04969 1 2.42857 1H12.4286C12.8075 1 13.1708 1.15051 13.4387 1.41842C13.7066 1.68633 13.8571 2.04969 13.8571 2.42857V9.57143C13.8571 9.95031 13.7066 10.3137 13.4387 10.5816C13.1708 10.8495 12.8075 11 12.4286 11H2.42857C2.04969 11 1.68633 10.8495 1.41842 10.5816C1.15051 10.3137 1 9.95031 1 9.57143V2.42857Z" stroke="#B8B8B8" stroke-linecap="round" stroke-linejoin="round"/>
<path d="M1 2.42871L7.42857 6.71442L13.8571 2.42871" stroke="#B8B8B8" stroke-linecap="round" stroke-linejoin="round"/>
</svg>
