<svg width="49" height="49" viewBox="0 0 49 49" fill="none" xmlns="http://www.w3.org/2000/svg">
<path fill-rule="evenodd" clip-rule="evenodd" d="M13.3265 2.45C12.6566 3.99579 12.3114 5.66393 12.3125 7.35C12.3125 8.64956 12.8261 9.8959 13.7404 10.8148C14.6546 11.7338 15.8946 12.25 17.1875 12.25H31.8125C33.1054 12.25 34.3454 11.7338 35.2596 10.8148C36.1739 9.8959 36.6875 8.64956 36.6875 7.35C36.6875 5.60805 36.3267 3.9494 35.6735 2.45H39.125C40.4179 2.45 41.6579 2.96625 42.5721 3.88518C43.4864 4.8041 44 6.05044 44 7.35V44.1C44 45.3996 43.4864 46.6459 42.5721 47.5648C41.6579 48.4838 40.4179 49 39.125 49H9.875C8.58207 49 7.34209 48.4838 6.42785 47.5648C5.51361 46.6459 5 45.3996 5 44.1V7.35C5 6.05044 5.51361 4.8041 6.42785 3.88518C7.34209 2.96625 8.58207 2.45 9.875 2.45H13.3265ZM24.5 29.4H17.1875C16.541 29.4 15.921 29.6581 15.4639 30.1176C15.0068 30.5771 14.75 31.2002 14.75 31.85C14.75 32.4998 15.0068 33.1229 15.4639 33.5824C15.921 34.0419 16.541 34.3 17.1875 34.3H24.5C25.1465 34.3 25.7665 34.0419 26.2236 33.5824C26.6807 33.1229 26.9375 32.4998 26.9375 31.85C26.9375 31.2002 26.6807 30.5771 26.2236 30.1176C25.7665 29.6581 25.1465 29.4 24.5 29.4ZM31.8125 19.6H17.1875C16.5662 19.6007 15.9687 19.8398 15.5169 20.2685C15.0652 20.6972 14.7933 21.283 14.7569 21.9064C14.7205 22.5298 14.9223 23.1436 15.321 23.6225C15.7198 24.1013 16.2854 24.4091 16.9023 24.4829L17.1875 24.5H31.8125C32.459 24.5 33.079 24.2419 33.5361 23.7824C33.9932 23.3229 34.25 22.6998 34.25 22.05C34.25 21.4002 33.9932 20.7771 33.5361 20.3176C33.079 19.8581 32.459 19.6 31.8125 19.6ZM24.5 0C25.5288 2.34319e-05 26.5461 0.218255 27.4852 0.640433C28.4244 1.06261 29.2644 1.67923 29.9503 2.45C30.9935 3.6211 31.6663 5.12785 31.7906 6.7914L31.8125 7.35H17.1875C17.1875 5.57375 17.8139 3.9445 18.8572 2.6754L19.0497 2.45C20.3904 0.9457 22.3355 0 24.5 0Z" fill="#C6C6C6"/>
</svg>
