<svg width="14" height="14" viewBox="0 0 14 14" fill="none" xmlns="http://www.w3.org/2000/svg">
<path d="M7.42602 7.42768L13.4349 7.4271L13.5776 7.42576L13.5776 7.2844L13.5763 6.71766L13.5763 6.5763L13.4349 6.57632L7.4261 6.57689L7.42534 0.566706L7.42535 0.425353L7.284 0.425367L6.71725 0.424088L6.5759 0.424101L6.57455 0.566787L6.57532 6.57697L0.565132 6.57621L0.423779 6.57622L0.423763 6.71758L0.423711 7.28566L0.423698 7.42701L0.565051 7.427L6.57523 7.42776L6.57466 13.4366L6.57465 13.578L6.716 13.5779L7.28408 13.5779L7.42543 13.5779L7.42545 13.4365L7.42602 7.42768Z" fill="#1090CB"/>
</svg>
