<svg width="14" height="16" viewBox="0 0 14 16" fill="none" xmlns="http://www.w3.org/2000/svg">
<path d="M5.45078 0.795238L0.336734 12.0111C0.174184 12.3612 0.336734 12.7864 0.686839 12.9489L5.58832 15.1871C5.93843 15.3496 6.36355 15.1871 6.5261 14.837L11.6401 3.62109C11.8027 3.27099 11.6401 2.84586 11.29 2.68331L6.38856 0.445132C6.03846 0.282583 5.61333 0.445132 5.45078 0.795238Z" fill="#016938"/>
<path d="M2.88676 1.2205L2.22406 13.5242C2.19905 13.9118 2.51165 14.2494 2.89926 14.2744L8.27589 14.562C8.66351 14.587 9.00111 14.2744 9.02611 13.8868L9.68881 1.58311C9.71382 1.1955 9.40123 0.857893 9.01361 0.832886L3.63699 0.545299C3.24937 0.532795 2.91177 0.832886 2.88676 1.2205Z" fill="#027B38"/>
<path d="M0.812619 2.83352L5.10142 14.387C5.23896 14.7496 5.65158 14.9372 6.01419 14.7996L11.0657 12.9241C11.4283 12.7865 11.6159 12.3739 11.4783 12.0113L7.20205 0.457803C7.06451 0.0951939 6.65188 -0.0923627 6.28927 0.0451788L1.23775 1.92075C0.862634 2.05829 0.675078 2.47091 0.812619 2.83352Z" fill="#89BC49"/>
<path d="M0.812619 2.83352L5.10142 14.387C5.23896 14.7496 5.65158 14.9372 6.01419 14.7996L11.0657 12.9241C11.4283 12.7865 11.6159 12.3739 11.4783 12.0113L7.20205 0.457803C7.06451 0.0951939 6.65188 -0.0923627 6.28927 0.0451788L1.23775 1.92075C0.862634 2.05829 0.675078 2.47091 0.812619 2.83352Z" fill="#92C142"/>
<mask id="mask0_2296_5589" style="mask-type:luminance" maskUnits="userSpaceOnUse" x="0" y="0" width="12" height="15">
<path d="M0.810666 2.83352L5.09946 14.387C5.237 14.7496 5.64963 14.9372 6.01224 14.7996L11.0638 12.9241C11.4264 12.7865 11.6139 12.3739 11.4764 12.0113L7.2001 0.457803C7.06256 0.0951939 6.64993 -0.0923627 6.28732 0.0451788L1.23579 1.92075C0.860681 2.05829 0.673125 2.47091 0.810666 2.83352Z" fill="white"/>
</mask>
<g mask="url(#mask0_2296_5589)">
<path d="M2.33574 1.35776C2.36075 1.40777 2.37325 1.44529 2.39826 1.4953L5.12408 0.469991C5.11158 0.419976 5.09907 0.382465 5.07407 0.332449L7.07467 -0.405273L7.79989 1.54532C7.74987 1.57032 7.69986 1.59533 7.64984 1.62034L11.0759 10.8481C11.1259 10.8231 11.1884 10.8106 11.2384 10.7981L12.0637 13.0238L10.1131 13.749C10.0381 13.624 9.96304 13.4989 9.91303 13.3614L7.1747 14.3742C7.22471 14.5117 7.26223 14.6618 7.27473 14.7993L5.38666 15.4995L4.56141 13.2739C4.59892 13.2614 4.63643 13.2363 4.67394 13.2238L1.24791 3.99606C1.2104 4.00856 1.17289 4.02106 1.13538 4.03357L0.410156 2.08298L2.33574 1.35776ZM1.77307 3.68346L5.27413 13.0988C5.88681 13.0738 6.48699 13.3489 6.86211 13.824L9.78799 12.7362C9.76298 12.111 10.0381 11.5108 10.5382 11.1232L7.04966 1.73287C6.42447 1.75788 5.82429 1.4953 5.43667 1.00765L2.51079 2.09548C2.5358 2.70817 2.26072 3.30835 1.77307 3.68346Z" fill="#3C9C36"/>
</g>
<path d="M6.73516 8.95547C7.82269 8.55139 8.44887 7.53637 8.13378 6.68837C7.8187 5.84036 6.68166 5.48048 5.59414 5.88456C4.50661 6.28864 3.88043 7.30366 4.19551 8.15167C4.5106 8.99968 5.64764 9.35955 6.73516 8.95547Z" fill="#3C9C36"/>
<path d="M3.68666 3.40923L4.1368 4.6096C4.29935 5.03472 4.76198 5.24729 5.18711 5.08474L5.26214 5.05973C5.68726 4.89718 5.89983 4.43454 5.73728 4.00941L5.29965 2.80905C5.1371 2.38392 4.67446 2.17136 4.24933 2.33391L4.17431 2.35891C3.74918 2.52146 3.53661 2.9841 3.68666 3.40923Z" fill="#3C9C36"/>
<path d="M6.46329 10.8614L6.91343 12.0617C7.07598 12.4869 7.53862 12.6994 7.96375 12.5369L8.03877 12.5119C8.4639 12.3493 8.67646 11.8867 8.51391 11.4616L8.06378 10.2612C7.90123 9.83607 7.43859 9.62351 7.01346 9.78606L6.93844 9.81106C6.52581 9.97361 6.30074 10.4363 6.46329 10.8614Z" fill="#3C9C36"/>
<path d="M12.0161 15.9994H0.712715C0.325098 15.9994 0 15.6868 0 15.2867V6.9842C0 6.59658 0.312594 6.27148 0.712715 6.27148H12.0161C12.4037 6.27148 12.7288 6.58408 12.7288 6.9842V15.2867C12.7288 15.6868 12.4037 15.9994 12.0161 15.9994Z" fill="#F49C0B"/>
<path d="M10.5158 15.2748H10.1406C10.0906 15.2748 10.0531 15.2373 10.0531 15.1872C10.0531 15.1372 10.0906 15.0997 10.1406 15.0997H10.5158C10.5658 15.0997 10.6033 15.1372 10.6033 15.1872C10.6033 15.2247 10.5658 15.2748 10.5158 15.2748ZM9.20286 15.2748H8.82775C8.77773 15.2748 8.74022 15.2373 8.74022 15.1872C8.74022 15.1372 8.77773 15.0997 8.82775 15.0997H9.20286C9.25288 15.0997 9.29039 15.1372 9.29039 15.1872C9.29039 15.2247 9.25288 15.2748 9.20286 15.2748ZM7.88996 15.2748H7.51485C7.46484 15.2748 7.42732 15.2373 7.42732 15.1872C7.42732 15.1372 7.46484 15.0997 7.51485 15.0997H7.88996C7.93998 15.0997 7.97749 15.1372 7.97749 15.1872C7.97749 15.2247 7.93998 15.2748 7.88996 15.2748ZM6.56456 15.2748H6.18945C6.13944 15.2748 6.10192 15.2373 6.10192 15.1872C6.10192 15.1372 6.13944 15.0997 6.18945 15.0997H6.56456C6.61458 15.0997 6.65209 15.1372 6.65209 15.1872C6.66459 15.2247 6.62708 15.2748 6.56456 15.2748ZM5.25167 15.2748H4.87655C4.82654 15.2748 4.78903 15.2373 4.78903 15.1872C4.78903 15.1372 4.82654 15.0997 4.87655 15.0997H5.25167C5.30168 15.0997 5.33919 15.1372 5.33919 15.1872C5.3517 15.2247 5.30168 15.2748 5.25167 15.2748ZM3.93877 15.2748H3.56366C3.51364 15.2748 3.47613 15.2373 3.47613 15.1872C3.47613 15.1372 3.51364 15.0997 3.56366 15.0997H3.93877C3.98879 15.0997 4.0263 15.1372 4.0263 15.1872C4.0388 15.2247 3.98879 15.2748 3.93877 15.2748ZM2.62587 15.2748H2.25076C2.20075 15.2748 2.16323 15.2373 2.16323 15.1872C2.16323 15.1372 2.20075 15.0997 2.25076 15.0997H2.62587C2.67589 15.0997 2.7134 15.1372 2.7134 15.1872C2.7134 15.2247 2.67589 15.2748 2.62587 15.2748ZM1.31298 15.2748C1.15043 15.2748 1.02539 15.1497 1.02539 14.9997V14.9122C1.02539 14.8621 1.0629 14.8246 1.11292 14.8246C1.16293 14.8246 1.20044 14.8621 1.20044 14.9122V14.9997C1.20044 15.0497 1.23795 15.0872 1.28797 15.0872C1.33799 15.0872 1.388 15.1247 1.388 15.1747C1.4005 15.2247 1.36299 15.2748 1.31298 15.2748ZM11.4535 15.2623C11.4035 15.2623 11.366 15.2247 11.366 15.1872C11.3535 15.1372 11.391 15.0872 11.441 15.0747C11.4911 15.0622 11.5161 15.0247 11.5161 14.9872V14.8746C11.5161 14.8246 11.5536 14.7871 11.6036 14.7871C11.6536 14.7871 11.6911 14.8246 11.6911 14.8746V14.9872C11.6911 15.1247 11.5911 15.2373 11.4535 15.2623ZM1.12542 14.0619C1.07541 14.0619 1.03789 14.0244 1.03789 13.9744V13.5993C1.03789 13.5492 1.07541 13.5117 1.12542 13.5117C1.17544 13.5117 1.21295 13.5492 1.21295 13.5993V13.9744C1.21295 14.0244 1.17544 14.0619 1.12542 14.0619ZM11.6161 14.0369C11.5661 14.0369 11.5286 13.9994 11.5286 13.9494V13.5742C11.5286 13.5242 11.5661 13.4867 11.6161 13.4867C11.6661 13.4867 11.7036 13.5242 11.7036 13.5742V13.9494C11.7036 13.9869 11.6661 14.0369 11.6161 14.0369ZM1.12542 12.749C1.07541 12.749 1.03789 12.7115 1.03789 12.6615V12.2864C1.03789 12.2363 1.07541 12.1988 1.12542 12.1988C1.17544 12.1988 1.21295 12.2363 1.21295 12.2864V12.6615C1.21295 12.7115 1.17544 12.749 1.12542 12.749ZM1.12542 11.4361C1.07541 11.4361 1.03789 11.3986 1.03789 11.3486V10.9735C1.03789 10.9234 1.07541 10.8859 1.12542 10.8859C1.17544 10.8859 1.21295 10.9234 1.21295 10.9735V11.3486C1.21295 11.3861 1.17544 11.4361 1.12542 11.4361ZM1.12542 10.1232C1.07541 10.1232 1.03789 10.0857 1.03789 10.0357V9.66057C1.03789 9.61055 1.07541 9.57304 1.12542 9.57304C1.17544 9.57304 1.21295 9.61055 1.21295 9.66057V10.0357C1.21295 10.0732 1.17544 10.1232 1.12542 10.1232ZM1.12542 8.79781C1.07541 8.79781 1.03789 8.76029 1.03789 8.71028V8.33517C1.03789 8.28515 1.07541 8.24764 1.12542 8.24764C1.17544 8.24764 1.21295 8.28515 1.21295 8.33517V8.71028C1.21295 8.76029 1.17544 8.79781 1.12542 8.79781ZM11.6161 8.7728C11.5661 8.7728 11.5286 8.73529 11.5286 8.68527V8.31016C11.5286 8.26014 11.5661 8.22263 11.6161 8.22263C11.6661 8.22263 11.7036 8.26014 11.7036 8.31016V8.68527C11.7036 8.73529 11.6661 8.7728 11.6161 8.7728ZM1.12542 7.48491C1.07541 7.48491 1.03789 7.4474 1.03789 7.39738V7.28485C1.03789 7.14731 1.13792 7.02227 1.27547 7.00977C1.32548 7.00977 1.3755 7.03477 1.3755 7.08479C1.388 7.1348 1.35049 7.18482 1.30047 7.18482C1.25046 7.19732 1.22545 7.23483 1.22545 7.27235V7.38488C1.21295 7.4474 1.17544 7.48491 1.12542 7.48491ZM11.6161 7.4599C11.5661 7.4599 11.5286 7.42239 11.5286 7.37238V7.29735C11.5286 7.24734 11.4911 7.20983 11.441 7.20983C11.391 7.20983 11.341 7.17231 11.341 7.1223C11.341 7.07228 11.3785 7.03477 11.4285 7.03477C11.5786 7.03477 11.7036 7.15981 11.7036 7.30986V7.38488C11.7036 7.42239 11.6661 7.4599 11.6161 7.4599ZM10.4782 7.19732H10.1031C10.0531 7.19732 10.0156 7.15981 10.0156 7.1098C10.0156 7.05978 10.0531 7.02227 10.1031 7.02227H10.4782C10.5283 7.02227 10.5658 7.05978 10.5658 7.1098C10.5658 7.15981 10.5283 7.19732 10.4782 7.19732ZM9.16535 7.19732H8.79024C8.74022 7.19732 8.70271 7.15981 8.70271 7.1098C8.70271 7.05978 8.74022 7.02227 8.79024 7.02227H9.16535C9.21537 7.02227 9.25288 7.05978 9.25288 7.1098C9.25288 7.15981 9.21537 7.19732 9.16535 7.19732ZM7.85245 7.19732H7.47734C7.42732 7.19732 7.38981 7.15981 7.38981 7.1098C7.38981 7.05978 7.42732 7.02227 7.47734 7.02227H7.85245C7.90247 7.02227 7.93998 7.05978 7.93998 7.1098C7.93998 7.15981 7.90247 7.19732 7.85245 7.19732ZM6.53956 7.19732H6.16444C6.11443 7.19732 6.07692 7.15981 6.07692 7.1098C6.07692 7.05978 6.11443 7.02227 6.16444 7.02227H6.53956C6.58957 7.02227 6.62708 7.05978 6.62708 7.1098C6.62708 7.15981 6.58957 7.19732 6.53956 7.19732ZM5.22666 7.19732H4.85155C4.80153 7.19732 4.76402 7.15981 4.76402 7.1098C4.76402 7.05978 4.80153 7.02227 4.85155 7.02227H5.22666C5.27668 7.02227 5.31419 7.05978 5.31419 7.1098C5.31419 7.15981 5.27668 7.19732 5.22666 7.19732ZM3.91376 7.19732H3.53865C3.48864 7.19732 3.45112 7.15981 3.45112 7.1098C3.45112 7.05978 3.48864 7.02227 3.53865 7.02227H3.91376C3.96378 7.02227 4.00129 7.05978 4.00129 7.1098C4.00129 7.15981 3.96378 7.19732 3.91376 7.19732ZM2.58836 7.19732H2.21325C2.16323 7.19732 2.12572 7.15981 2.12572 7.1098C2.12572 7.05978 2.16323 7.02227 2.21325 7.02227H2.58836C2.63838 7.02227 2.67589 7.05978 2.67589 7.1098C2.67589 7.15981 2.65088 7.19732 2.58836 7.19732Z" fill="#FBCA76"/>
<path opacity="0.5" d="M0.56267 15.2492V7.02171C0.56267 6.60909 0.900272 6.27148 1.3129 6.27148H0.750227C0.337602 6.27148 0 6.60909 0 7.02171V15.2492C0 15.6618 0.337602 15.9994 0.750227 15.9994H1.3129C0.900272 15.9994 0.56267 15.6618 0.56267 15.2492Z" fill="#F9C187"/>
<path d="M12.7425 12.6366H9.27895C8.49121 12.6366 7.85352 11.999 7.85352 11.2112V11.0612C7.85352 10.2734 8.49121 9.63574 9.27895 9.63574H12.7425C12.9426 9.63574 13.0926 9.79829 13.0926 9.98585V12.274C13.1051 12.4741 12.9426 12.6366 12.7425 12.6366Z" fill="#D17311"/>
</svg>
