<svg width="52" height="46" viewBox="0 0 52 46" fill="none" xmlns="http://www.w3.org/2000/svg">
<path fill-rule="evenodd" clip-rule="evenodd" d="M50.3506 8.13013C51.0406 8.13013 51.6006 8.69019 51.6006 9.38013H51.6106V44.0402C51.6106 44.1902 51.5707 44.3302 51.5207 44.4702C51.5107 44.5001 51.5007 44.5402 51.4806 44.5702C51.4707 44.5852 51.4657 44.6001 51.4607 44.6151C51.4557 44.6301 51.4507 44.6451 51.4407 44.6602C51.3907 44.7501 51.3207 44.8302 51.2507 44.9001L51.2407 44.9102C51.1407 45.0101 51.0207 45.0902 50.8907 45.1501C50.8606 45.1602 50.8207 45.1802 50.7906 45.1902C50.7111 45.2186 50.6316 45.2438 50.5502 45.2603C50.4884 45.2727 50.4255 45.2802 50.3606 45.2802H10.5707C10.0906 45.2802 9.65062 45.0001 9.44066 44.5602L0.460682 25.4702C0.27068 25.0802 0.300648 24.6301 0.530628 24.2701C0.76067 23.9102 1.15068 23.6902 1.58068 23.6902L6.75066 23.6702V17.0802C6.75066 16.3901 7.31066 15.8302 8.00066 15.8302H12.5207V1.68018C12.5207 0.990173 13.0807 0.430176 13.7707 0.430176H44.5707C45.2607 0.430176 45.8207 0.990173 45.8207 1.68018V8.13013H50.3506ZM45.7607 33.4202L49.1006 39.3002V10.6301V10.6201H45.8207V33.1201C45.8207 33.2302 45.7906 33.3202 45.7607 33.4202ZM40.5107 24.1602L43.3307 29.1301V2.93018H15.0306V23.6301L39.4206 23.5302C39.8707 23.4802 40.2906 23.7701 40.5107 24.1602ZM9.25066 23.6602L12.5306 23.6501V18.3302H9.25066V23.6602ZM3.54064 26.1902L11.3506 42.7902H48.2007L38.6907 26.0402L3.54064 26.1902ZM20.6211 18.3301C19.9311 18.3301 19.3711 17.77 19.3711 17.0801C19.3711 16.3901 19.9311 15.8301 20.6211 15.8301H37.7311C38.4211 15.8301 38.9811 16.3901 38.9811 17.0801C38.9811 17.77 38.4211 18.3301 37.7311 18.3301H20.6211ZM19.3711 9.38013C19.3711 10.0701 19.9311 10.6301 20.6211 10.6301H37.7311C38.4211 10.6301 38.9811 10.0701 38.9811 9.38013C38.9811 8.69019 38.4211 8.13013 37.7311 8.13013H20.6211C19.9311 8.13013 19.3711 8.69019 19.3711 9.38013Z" fill="#CCD2E3"/>
</svg>
