<svg width="46" height="45" viewBox="0 0 46 45" fill="none" xmlns="http://www.w3.org/2000/svg">
<path fill-rule="evenodd" clip-rule="evenodd" d="M40.0508 0.00976562C40.7408 0.00976562 41.3008 0.569763 41.3008 1.25977V23.1097H43.9008C44.5908 23.1097 45.1508 23.6698 45.1608 24.3597V43.6097C45.1608 44.2998 44.6008 44.8597 43.9108 44.8597H1.55078C0.860779 44.8597 0.300781 44.2998 0.300781 43.6097V24.3597C0.300781 23.6698 0.860779 23.1097 1.55078 23.1097H4.15076V1.25977C4.15076 0.569763 4.71075 0.00976562 5.40076 0.00976562H40.0508ZM33.5308 23.7898C33.7408 23.3698 34.1708 23.1097 34.6407 23.1097H38.8108V2.50977H6.65076H6.64075V23.1097H10.8108C11.2808 23.1097 11.7108 23.3698 11.9208 23.7898L14.2208 28.2498H31.2308L33.5308 23.7898ZM12.3508 30.0698L10.0508 25.6097H2.80078V42.3698H42.6508V25.6097H35.4008L33.1008 30.0698C32.8908 30.4897 32.4608 30.7498 31.9908 30.7498H13.4608C12.9908 30.7498 12.5608 30.4897 12.3508 30.0698ZM13.1016 17.9097C12.4116 17.9097 11.8516 17.3496 11.8516 16.6597C11.8516 15.9697 12.4116 15.4097 13.1016 15.4097H32.3516C33.0416 15.4097 33.6016 15.9697 33.6016 16.6597C33.6016 17.3496 33.0416 17.9097 32.3516 17.9097H13.1016ZM11.8516 8.95972C11.8516 9.64966 12.4116 10.2097 13.1016 10.2097H32.3516C33.0416 10.2097 33.6016 9.64966 33.6016 8.95972C33.6016 8.26978 33.0416 7.70972 32.3516 7.70972H13.1016C12.4116 7.70972 11.8516 8.26978 11.8516 8.95972Z" fill="#CCD2E3"/>
</svg>
