<svg width="15" height="12" viewBox="0 0 15 12" fill="none" xmlns="http://www.w3.org/2000/svg">
<path d="M11.7692 3.30817C9.97802 3.30817 8.52747 4.69886 8.52747 6.41616C8.52747 6.65847 8.56044 6.87972 8.61538 7.1115L5.24176 8.15452C4.96703 7.63828 4.52747 7.21686 3.97802 6.964L4.42857 5.30992C4.43956 5.30992 4.46154 5.30992 4.47253 5.30992C6 5.30992 7.24176 4.1194 7.24176 2.65496C7.24176 1.19052 6 0 4.47253 0C2.94505 0 1.7033 1.19052 1.7033 2.65496C1.7033 3.72959 2.37363 4.65672 3.34066 5.07814L2.9011 6.70062C2.85714 6.70062 2.81319 6.69008 2.76923 6.69008C1.24176 6.69008 0 7.8806 0 9.34504C0 10.8095 1.24176 12 2.76923 12C4.2967 12 5.53846 10.8095 5.53846 9.34504C5.53846 9.28183 5.53846 9.21861 5.52747 9.1554L9.03297 8.07024C9.60439 8.93415 10.6154 9.50307 11.7582 9.50307C13.5494 9.50307 15 8.11238 15 6.39508C15 4.67779 13.5604 3.30817 11.7692 3.30817ZM2.82418 2.6655C2.82418 1.79104 3.57143 1.07463 4.48352 1.07463C5.3956 1.07463 6.14286 1.79104 6.14286 2.6655C6.14286 3.53995 5.3956 4.25637 4.48352 4.25637C3.57143 4.25637 2.82418 3.55048 2.82418 2.6655ZM2.78022 10.9464C1.86813 10.9464 1.12088 10.23 1.12088 9.35557C1.12088 8.48112 1.86813 7.76471 2.78022 7.76471C3.69231 7.76471 4.43956 8.48112 4.43956 9.35557C4.45055 10.23 3.7033 10.9464 2.78022 10.9464ZM11.7692 8.46005C10.5934 8.46005 9.62637 7.54346 9.62637 6.40562C9.62637 5.27831 10.5824 4.35119 11.7692 4.35119C12.956 4.35119 13.9121 5.26778 13.9121 6.40562C13.9121 7.54346 12.9451 8.46005 11.7692 8.46005Z" fill="#1090CB"/>
</svg>
