<svg width="17" height="17" viewBox="0 0 17 17" fill="none" xmlns="http://www.w3.org/2000/svg">
<path d="M16.7345 0.85053C16.7561 0.775075 16.757 0.695237 16.7373 0.619282C16.7176 0.543327 16.678 0.474019 16.6225 0.418535C16.567 0.363051 16.4977 0.323408 16.4218 0.303713C16.3458 0.284018 16.266 0.284986 16.1905 0.306519L13.9809 0.937671C9.6268 2.18193 5.41132 3.86796 1.40013 5.96946L0.85674 6.25392C0.795778 6.28603 0.743208 6.33202 0.703263 6.38816C0.663318 6.44431 0.637114 6.50905 0.626759 6.57717C0.616404 6.64529 0.622189 6.7149 0.643647 6.78037C0.665105 6.84585 0.701638 6.90538 0.750303 6.95416L4.32932 10.5332C4.40903 10.6131 4.51639 10.6593 4.62922 10.6624C4.74205 10.6654 4.85172 10.6249 4.93558 10.5494L5.59723 9.95369C7.20971 8.50194 8.94026 7.18696 10.7709 6.02237L10.9521 5.90722C10.9919 5.88108 11.0199 5.88045 11.0386 5.88294C11.0683 5.88832 11.0955 5.90292 11.1164 5.92465C11.1413 5.94954 11.1544 5.9788 11.1581 6.00245C11.1606 6.02112 11.16 6.04913 11.1338 6.08897L11.0187 6.2701C9.8538 8.10098 8.53884 9.83192 7.08735 11.4451L6.49167 12.1067C6.41649 12.1905 6.37626 12.2999 6.37927 12.4124C6.38228 12.525 6.4283 12.6321 6.50786 12.7117L10.0869 16.2907C10.1357 16.3396 10.1954 16.3763 10.2611 16.3978C10.3268 16.4193 10.3966 16.4251 10.4649 16.4146C10.5332 16.4041 10.5981 16.3777 10.6543 16.3374C10.7105 16.2972 10.7564 16.2443 10.7884 16.1831L11.0722 15.6403C13.1734 11.6293 14.8593 7.414 16.1034 3.06019L16.7345 0.85053Z" fill="#1090CB"/>
</svg>
