<svg width="12" height="14" viewBox="0 0 12 14" fill="none" xmlns="http://www.w3.org/2000/svg">
<path d="M5.94907 0.96197C8.39632 0.96197 10.3799 2.94555 10.3799 5.3928C10.3799 6.53755 9.94509 7.5784 9.23323 8.36336C8.26742 9.4273 7.44205 10.6086 6.88795 11.9361L6.69171 12.4056C6.55319 12.7346 6.25113 12.9 5.94907 12.9C5.64701 12.9 5.34495 12.7346 5.20643 12.4056L5.01019 11.9342C4.47148 10.6432 3.70768 9.45809 2.74379 8.44802C1.95112 7.61688 1.47783 6.47983 1.52208 5.23119C1.60289 2.95709 3.46719 1.07356 5.73936 0.967741C5.80862 0.963893 5.87788 0.96197 5.94907 0.96197ZM5.94907 0C5.86442 0 5.77976 0.00192394 5.69318 0.00577182C2.91309 0.134676 0.658236 2.41454 0.558191 5.19656C0.506244 6.6626 1.0334 8.05361 2.0454 9.1137C2.92079 10.0295 3.61918 11.1031 4.12133 12.3074L4.31757 12.7788C4.59269 13.4387 5.23336 13.8658 5.94714 13.8658C6.66093 13.8658 7.3016 13.4387 7.57672 12.7788L7.77296 12.3094C8.24433 11.1819 8.95234 10.1045 9.94317 9.01366C10.8436 8.0209 11.3399 6.73571 11.3399 5.39665C11.3419 2.42032 8.92156 0 5.94907 0Z" fill="#C6C6C6"/>
<path d="M5.94619 7.08427C6.83874 7.08427 7.5623 6.36071 7.5623 5.46816C7.5623 4.57561 6.83874 3.85205 5.94619 3.85205C5.05363 3.85205 4.33008 4.57561 4.33008 5.46816C4.33008 6.36071 5.05363 7.08427 5.94619 7.08427Z" fill="#C6C6C6"/>
</svg>
