<svg width="49" height="49" viewBox="0 0 49 49" fill="none" xmlns="http://www.w3.org/2000/svg">
<path d="M22.098 25.2261C21.9734 24.9613 21.9059 24.6705 21.9059 24.3589V0.101929C9.6137 1.25999 0 11.6098 0 24.2031C0 37.5805 10.8388 48.4185 24.2055 48.4185C26.1729 48.4185 28.078 48.1848 29.9104 47.7434L22.1136 25.278C22.1032 25.2625 22.1032 25.2417 22.098 25.2261Z" fill="#C6C6C6"/>
<path d="M43.7754 13.8688C45.4521 17.0366 46.3293 20.5679 46.3293 24.2031C46.3293 32.2783 41.9585 39.6369 35.0182 43.5214L28.9707 26.0985L43.7754 13.8688ZM44.3152 10.7322L26.5361 25.4182L33.8295 46.4295C42.405 42.7061 48.4057 34.1582 48.4057 24.2031C48.4057 19.2177 46.9004 14.5803 44.3152 10.7322Z" fill="#C6C6C6"/>
<path d="M41.7249 7.50208C37.7123 3.29048 32.1995 0.522549 26.043 0.0603638V20.464L41.7249 7.50208Z" fill="#C6C6C6"/>
</svg>
