<svg width="10" height="8" viewBox="0 0 10 8" fill="none" xmlns="http://www.w3.org/2000/svg">
<path fill-rule="evenodd" clip-rule="evenodd" d="M5.4322 6.3969C5.31952 6.50865 5.16671 6.57143 5.00738 6.57143C4.84805 6.57143 4.69525 6.50865 4.58257 6.3969L1.18344 3.02484C1.12605 2.96986 1.08027 2.90408 1.04878 2.83136C1.01729 2.75863 1.00072 2.68041 1.00002 2.60127C0.999329 2.52212 1.01453 2.44363 1.04474 2.37037C1.07496 2.29711 1.11957 2.23056 1.17599 2.17459C1.23241 2.11862 1.2995 2.07436 1.37334 2.04439C1.44719 2.01442 1.52631 1.99933 1.60609 2.00002C1.68588 2.00071 1.76472 2.01715 1.83803 2.04839C1.91134 2.07963 1.97764 2.12505 2.03307 2.18198L5.00738 5.1326L7.9817 2.18198C8.09502 2.0734 8.2468 2.01331 8.40435 2.01467C8.5619 2.01603 8.7126 2.07872 8.82401 2.18924C8.93542 2.29976 8.99861 2.44926 8.99998 2.60556C9.00135 2.76185 8.94078 2.91242 8.83133 3.02484L5.4322 6.3969Z" fill="#1090CB" stroke="#1090CB" stroke-width="0.2"/>
</svg>
