<svg width="33" height="32" viewBox="0 0 33 32" fill="none" xmlns="http://www.w3.org/2000/svg">
<g filter="url(#filter0_d_3071_6239)">
<path d="M12.5 2C18.023 2 22.5 6.477 22.5 12C22.5 17.523 18.023 22 12.5 22C6.977 22 2.5 17.523 2.5 12C2.5 6.477 6.977 2 12.5 2ZM12.5 6C12.2348 6 11.9804 6.10536 11.7929 6.29289C11.6054 6.48043 11.5 6.73478 11.5 7V12C11.5001 12.2652 11.6055 12.5195 11.793 12.707L14.793 15.707C14.9816 15.8892 15.2342 15.99 15.4964 15.9877C15.7586 15.9854 16.0094 15.8802 16.1948 15.6948C16.3802 15.5094 16.4854 15.2586 16.4877 14.9964C16.49 14.7342 16.3892 14.4816 16.207 14.293L13.5 11.586V7C13.5 6.73478 13.3946 6.48043 13.2071 6.29289C13.0196 6.10536 12.7652 6 12.5 6Z" fill="#57A6CA"/>
</g>
<defs>
<filter id="filter0_d_3071_6239" x="0.5" y="0" width="32" height="32" filterUnits="userSpaceOnUse" color-interpolation-filters="sRGB">
<feFlood flood-opacity="0" result="BackgroundImageFix"/>
<feColorMatrix in="SourceAlpha" type="matrix" values="0 0 0 0 0 0 0 0 0 0 0 0 0 0 0 0 0 0 127 0" result="hardAlpha"/>
<feOffset dx="4" dy="4"/>
<feGaussianBlur stdDeviation="3"/>
<feComposite in2="hardAlpha" operator="out"/>
<feColorMatrix type="matrix" values="0 0 0 0 0.341176 0 0 0 0 0.65098 0 0 0 0 0.792157 0 0 0 0.25 0"/>
<feBlend mode="normal" in2="BackgroundImageFix" result="effect1_dropShadow_3071_6239"/>
<feBlend mode="normal" in="SourceGraphic" in2="effect1_dropShadow_3071_6239" result="shape"/>
</filter>
</defs>
</svg>
