<svg width="16" height="16" viewBox="0 0 16 16" fill="none" xmlns="http://www.w3.org/2000/svg">
<g clip-path="url(#clip0_3415_6858)">
<path d="M8.05541 7.56423V15M8.05541 15L10.6798 12.3756M8.05541 15L5.43102 12.3756M4.55622 3.65914C5.21083 3.75275 5.81724 4.05672 6.28395 4.52519M12.8668 9.75122C14.1956 9.75122 15.0538 8.67435 15.0538 7.34553C15.0537 6.81945 14.8812 6.30788 14.5627 5.88918C14.2442 5.47048 13.7972 5.16774 13.2902 5.02732C13.2122 4.0462 12.8056 3.12006 12.1361 2.39864C11.4666 1.67722 10.5733 1.20268 9.60074 1.05175C8.62816 0.900811 7.63311 1.0823 6.77645 1.56688C5.91979 2.05146 5.25159 2.81079 4.8799 3.72213C4.09733 3.5052 3.26063 3.60803 2.55388 4.008C1.84713 4.40796 1.32821 5.07231 1.11128 5.85488C0.894345 6.63745 0.997175 7.47414 1.39714 8.1809C1.79711 8.88765 2.46146 9.40657 3.24403 9.6235" stroke="white" stroke-linecap="round" stroke-linejoin="round"/>
</g>
<defs>
<clipPath id="clip0_3415_6858">
<rect width="16" height="16" fill="white"/>
</clipPath>
</defs>
</svg>
