<svg width="11" height="15" viewBox="0 0 11 15" fill="none" xmlns="http://www.w3.org/2000/svg">
<path d="M3.24489 0.0152254C3.9914 -0.0925781 4.61911 0.386085 4.91613 1.00823L5.6467 2.53912C6.05202 3.38864 5.81912 4.38545 5.20481 5.01253C4.84187 5.38263 4.47713 5.80549 4.2656 6.17863C4.25152 6.2052 4.24714 6.23623 4.25328 6.26593C4.44887 7.37661 5.16714 8.47401 5.80789 9.2609C5.8402 9.29829 5.88225 9.32494 5.92886 9.33756C5.97547 9.35017 6.02458 9.3482 6.07013 9.33188L7.50991 8.86043C7.89775 8.73339 8.31423 8.73989 8.69829 8.87897C9.08235 9.01805 9.4138 9.2824 9.64405 9.63328L10.6861 11.2219C10.9687 11.6527 11.1117 12.2373 10.8951 12.7994C10.7017 13.3016 10.3275 14.0259 9.64695 14.5076C8.94064 15.0071 7.97318 15.1969 6.70725 14.7422C5.29282 14.2335 3.95663 12.9581 2.84863 11.327C1.73411 9.68566 0.81663 7.63549 0.260275 5.49764C-0.265654 3.47936 0.0516422 2.12043 0.79852 1.24548C1.51896 0.401269 2.55125 0.115058 3.24489 0.0152254ZM4.10586 1.43261C3.94033 1.08605 3.64513 0.914854 3.36804 0.954711C2.75192 1.04353 1.98041 1.28382 1.47368 1.87787C0.993389 2.44081 0.66088 3.4323 1.1332 5.24787C1.66384 7.28551 2.53749 9.23281 3.58609 10.7766C4.64121 12.3303 5.84012 13.4273 7.00064 13.8444C8.03475 14.2161 8.69941 14.0323 9.13986 13.7211C9.60566 13.3912 9.89217 12.867 10.0552 12.4441C10.1298 12.2505 10.0975 12 9.93962 11.7594L8.89754 10.1712C8.77696 9.98735 8.60337 9.84886 8.40222 9.77597C8.20106 9.70308 7.98292 9.69963 7.77976 9.76613L6.33997 10.2376C5.90967 10.3784 5.42503 10.2528 5.11896 9.87697C4.45213 9.0582 3.60239 7.80251 3.36224 6.43789C3.31637 6.18214 3.36065 5.91763 3.48684 5.69351C3.7614 5.20992 4.19605 4.71683 4.57239 4.33268C4.94003 3.95765 5.04435 3.39965 4.83644 2.9635L4.10586 1.43261Z" fill="#B8B8B8"/>
</svg>
