<svg width="20" height="20" viewBox="0 0 20 20" fill="none" xmlns="http://www.w3.org/2000/svg">
<path d="M7.25 8.91593C7.25 8.47384 7.42562 8.04986 7.73823 7.73725C8.05083 7.42464 8.47482 7.24902 8.91691 7.24902H14.3333C14.5522 7.24902 14.7689 7.29214 14.9712 7.37591C15.1734 7.45968 15.3572 7.58246 15.512 7.73725C15.6667 7.89204 15.7895 8.0758 15.8733 8.27803C15.9571 8.48027 16.0002 8.69703 16.0002 8.91593V14.3323C16.0002 14.5512 15.9571 14.768 15.8733 14.9702C15.7895 15.1724 15.6667 15.3562 15.512 15.511C15.3572 15.6658 15.1734 15.7885 14.9712 15.8723C14.7689 15.9561 14.5522 15.9992 14.3333 15.9992H8.91691C8.69801 15.9992 8.48125 15.9561 8.27901 15.8723C8.07677 15.7885 7.89301 15.6658 7.73823 15.511C7.58344 15.3562 7.46066 15.1724 7.37689 14.9702C7.29312 14.768 7.25 14.5512 7.25 14.3323V8.91593Z" stroke="#999999" stroke-width="1.6" stroke-linecap="round" stroke-linejoin="round"/>
<path d="M4.63251 12.5858C4.44063 12.4768 4.28104 12.3189 4.16994 12.1282C4.05885 11.9375 4.00021 11.7208 4 11.5002V5.25003C4 4.56251 4.56251 4 5.25003 4H11.5002C11.9689 4 12.2239 4.24063 12.4377 4.62501" stroke="#999999" stroke-width="1.6" stroke-linecap="round" stroke-linejoin="round"/>
</svg>
