<svg width="51" height="40" viewBox="0 0 51 40" fill="none" xmlns="http://www.w3.org/2000/svg">
<path d="M50.1397 28.6295V3.11066C50.1397 1.39694 48.7485 0 47.0303 0H25.0724H3.11459C1.39637 0 0.0051906 1.39175 0.0051906 3.11066V28.6295C0.0051906 30.3484 1.39637 31.7402 3.11459 31.7402H20.468C20.468 31.7558 20.4628 31.7765 20.4628 31.7921V34.3887H0.934376C0.420469 34.3887 0 34.8041 0 35.3182V38.3043C0 38.8184 0.420469 39.2338 0.934376 39.2338H25.0724H49.2105C49.7244 39.2338 50.1449 38.8184 50.1449 38.3043V35.3182C50.1449 34.8041 49.7244 34.3887 49.2105 34.3887H29.682V31.7921C29.682 31.7765 29.682 31.7558 29.6768 31.7402H47.0355C48.7485 31.735 50.1397 30.3432 50.1397 28.6295ZM44.2998 26.0174H5.83985V5.44236H44.2998V26.0174Z" fill="#C6C6C6"/>
</svg>
