<svg width="50" height="50" viewBox="0 0 50 50" fill="none" xmlns="http://www.w3.org/2000/svg">
<path d="M0 12.2222V16.1111H14.0573C14.5134 16.1107 14.9506 15.9349 15.2729 15.6223L21.2156 9.86445L17.7041 6.46445C16.7369 5.5273 15.4252 5.00058 14.0573 5H7.45413C5.47717 5 3.58118 5.76091 2.18327 7.11534C0.785345 8.46977 0 10.3068 0 12.2222Z" fill="#F4F4F4"/>
<path d="M0 37.7779V19.4445H14.0573C14.735 19.4445 15.4061 19.3151 16.0322 19.0639C16.6583 18.8126 17.2272 18.4443 17.7064 17.98L25.367 10.5556H38.4174C39.3963 10.5556 40.3656 10.7424 41.27 11.1053C42.1744 11.4683 42.9961 12.0003 43.6883 12.6709C44.3805 13.3416 44.9295 14.1377 45.3041 15.014C45.6787 15.8902 45.8716 16.8293 45.8716 17.7778V23.5218C44.7088 23.1823 43.477 23 42.2018 23C35.1083 23 29.3578 28.6412 29.3578 35.6C29.3578 39.3362 31.0154 42.6926 33.6486 45H7.45413C5.47717 45 3.58118 44.2391 2.18327 42.8847C0.785345 41.5302 0 39.6932 0 37.7779Z" fill="#F4F4F4"/>
<path d="M48.8532 33.9125H43.6927V28.85C43.6927 28.2288 43.1791 27.725 42.5459 27.725H41.3991C40.7658 27.725 40.2523 28.2288 40.2523 28.85V33.9125H35.0917C34.4585 33.9125 33.945 34.4163 33.945 35.0375V36.1625C33.945 36.7837 34.4585 37.2875 35.0917 37.2875H40.2523V42.35C40.2523 42.9713 40.7658 43.475 41.3991 43.475H42.5459C43.1791 43.475 43.6927 42.9713 43.6927 42.35V37.2875H48.8532C49.4865 37.2875 50 36.7837 50 36.1625V35.0375C50 34.4163 49.4865 33.9125 48.8532 33.9125Z" fill="#F4F4F4"/>
</svg>
