<svg width="10" height="10" viewBox="0 0 10 10" fill="none" xmlns="http://www.w3.org/2000/svg">
<path d="M9.77374 8.68358L6.09016 5L9.77374 1.31642C10.0754 1.01474 10.0754 0.526226 9.77374 0.22626C9.47205 -0.0737058 8.98353 -0.07542 8.68358 0.22626L5 3.90984L1.31642 0.22626C1.01474 -0.07542 0.526226 -0.07542 0.22626 0.22626C-0.0737058 0.527942 -0.07542 1.01646 0.22626 1.31642L3.90984 5L0.22626 8.68358C-0.07542 8.98526 -0.07542 9.47379 0.22626 9.77374C0.527942 10.0737 1.01646 10.0754 1.31642 9.77374L5 6.09016L8.68358 9.77374C8.98526 10.0754 9.47379 10.0754 9.77374 9.77374C10.0754 9.47379 10.0754 8.98526 9.77374 8.68358Z" fill="white"/>
</svg>
