<svg width="24" height="24" viewBox="0 0 24 24" fill="none" xmlns="http://www.w3.org/2000/svg">
<g clip-path="url(#clip0_3972_7093)">
<path d="M12.6667 8.33333C12.6667 8.06812 12.772 7.81376 12.9596 7.62623C13.1471 7.43869 13.4015 7.33333 13.6667 7.33333H18.3333C18.5986 7.33333 18.8529 7.43869 19.0404 7.62623C19.228 7.81376 19.3333 8.06812 19.3333 8.33333C19.3333 8.59855 19.228 8.8529 19.0404 9.04044C18.8529 9.22798 18.5986 9.33333 18.3333 9.33333H13.6667C13.4015 9.33333 13.1471 9.22798 12.9596 9.04044C12.772 8.8529 12.6667 8.59855 12.6667 8.33333ZM13.6667 14.6667C13.4015 14.6667 13.1471 14.772 12.9596 14.9596C12.772 15.1471 12.6667 15.4015 12.6667 15.6667C12.6667 15.9319 12.772 16.1862 12.9596 16.3738C13.1471 16.5613 13.4015 16.6667 13.6667 16.6667H18.3333C18.5986 16.6667 18.8529 16.5613 19.0404 16.3738C19.228 16.1862 19.3333 15.9319 19.3333 15.6667C19.3333 15.4015 19.228 15.1471 19.0404 14.9596C18.8529 14.772 18.5986 14.6667 18.3333 14.6667H13.6667ZM10.3733 7.70667C10.4716 7.61512 10.5504 7.50472 10.605 7.38205C10.6597 7.25939 10.6891 7.12697 10.6915 6.9927C10.6938 6.85843 10.6691 6.72505 10.6188 6.60054C10.5685 6.47602 10.4937 6.36291 10.3987 6.26795C10.3038 6.17299 10.1906 6.09813 10.0661 6.04784C9.94161 5.99754 9.80824 5.97284 9.67397 5.97521C9.5397 5.97758 9.40728 6.00697 9.28462 6.06163C9.16195 6.11628 9.05155 6.19508 8.96 6.29333L7 8.25333L6.37333 7.62667C6.18377 7.45003 5.93304 7.35386 5.67397 7.35843C5.4149 7.363 5.16772 7.46795 4.9845 7.65117C4.80129 7.83439 4.69634 8.08157 4.69177 8.34064C4.6872 8.59971 4.78336 8.85043 4.96 9.04L6.29333 10.3733C6.48083 10.5606 6.735 10.6658 7 10.6658C7.265 10.6658 7.51917 10.5606 7.70667 10.3733L10.3733 7.70667ZM10.3733 13.6267C10.5606 13.8142 10.6658 14.0683 10.6658 14.3333C10.6658 14.5983 10.5606 14.8525 10.3733 15.04L7.70667 17.7067C7.51917 17.8939 7.265 17.9991 7 17.9991C6.735 17.9991 6.48083 17.8939 6.29333 17.7067L4.96 16.3733C4.86175 16.2818 4.78295 16.1714 4.72829 16.0487C4.67364 15.9261 4.64425 15.7936 4.64188 15.6594C4.63951 15.5251 4.66421 15.3917 4.7145 15.2672C4.7648 15.1427 4.83966 15.0296 4.93462 14.9346C5.02957 14.8397 5.14269 14.7648 5.2672 14.7145C5.39172 14.6642 5.52509 14.6395 5.65936 14.6419C5.79363 14.6442 5.92605 14.6736 6.04872 14.7283C6.17138 14.7829 6.28178 14.8618 6.37333 14.96L7 15.5867L8.96 13.6267C9.1475 13.4394 9.40167 13.3342 9.66667 13.3342C9.93167 13.3342 10.1858 13.4394 10.3733 13.6267ZM4.33333 0C3.18406 0 2.08186 0.456546 1.2692 1.2692C0.456546 2.08186 0 3.18406 0 4.33333V19.6667C0 20.8159 0.456546 21.9181 1.2692 22.7308C2.08186 23.5435 3.18406 24 4.33333 24H19.6667C20.8159 24 21.9181 23.5435 22.7308 22.7308C23.5435 21.9181 24 20.8159 24 19.6667V4.33333C24 3.18406 23.5435 2.08186 22.7308 1.2692C21.9181 0.456546 20.8159 0 19.6667 0H4.33333ZM2 4.33333C2 3.04533 3.04533 2 4.33333 2H19.6667C20.9547 2 22 3.04533 22 4.33333V19.6667C22 20.2855 21.7542 20.879 21.3166 21.3166C20.879 21.7542 20.2855 22 19.6667 22H4.33333C3.71449 22 3.121 21.7542 2.68342 21.3166C2.24583 20.879 2 20.2855 2 19.6667V4.33333Z" fill="#CCD2E3"/>
</g>
<defs>
<clipPath id="clip0_3972_7093">
<rect width="24" height="24" fill="white"/>
</clipPath>
</defs>
</svg>
