<svg width="54" height="55" viewBox="0 0 54 55" fill="none" xmlns="http://www.w3.org/2000/svg">
<path d="M12.723 10.2627H23.4712C24.1551 10.2627 24.7088 9.70647 24.7088 9.0193C24.7088 8.33213 24.1551 7.77585 23.4712 7.77585H12.723C12.039 7.77585 11.4854 8.33213 11.4854 9.0193C11.4854 9.70647 12.039 10.2627 12.723 10.2627Z" fill="#CCD2E3"/>
<path d="M12.723 28.969H23.4712C24.1551 28.969 24.7088 28.4127 24.7088 27.7255C24.7088 27.0383 24.1551 26.4821 23.4712 26.4821H12.723C12.039 26.4821 11.4854 27.0383 11.4854 27.7255C11.4854 28.4127 12.039 28.969 12.723 28.969Z" fill="#CCD2E3"/>
<path d="M12.723 47.6753H23.4712C24.1551 47.6753 24.7088 47.119 24.7088 46.4318C24.7088 45.7446 24.1551 45.1884 23.4712 45.1884H12.723C12.039 45.1884 11.4854 45.7446 11.4854 46.4318C11.4854 47.119 12.039 47.6753 12.723 47.6753Z" fill="#CCD2E3"/>
<path d="M46.8567 7.7867H45.1413V3.00923C45.1413 1.59126 43.9905 0.445984 42.59 0.445984H3.11505C1.70367 0.445984 0.563721 1.60216 0.563721 3.00923V15.0511C0.563721 16.469 1.71453 17.6143 3.11505 17.6143H8.13084V19.1414H3.11505C1.70367 19.1414 0.563721 20.2976 0.563721 21.7046V33.7465C0.563721 35.1644 1.71453 36.3097 3.11505 36.3097H8.13084V37.8368H3.11505C1.70367 37.8368 0.563721 38.993 0.563721 40.4V52.431C0.563721 53.8489 1.71453 54.9942 3.11505 54.9942H42.5792C43.9905 54.9942 45.1305 53.838 45.1305 52.431V47.6535H50.9388V53.7617C50.9388 54.4488 51.4925 55.0051 52.1765 55.0051C52.8605 55.0051 53.4141 54.4488 53.4141 53.7617V14.3639C53.4141 10.7426 50.472 7.7867 46.8567 7.7867ZM42.666 3.00923V15.0511C42.666 15.0947 42.6226 15.1383 42.5792 15.1383H3.11505C3.07162 15.1383 3.02819 15.0947 3.02819 15.0511V3.00923C3.02819 2.9656 3.07162 2.92198 3.11505 2.92198H42.5792C42.6226 2.92198 42.666 2.9656 42.666 3.00923ZM42.5792 19.1414H37.5634V17.6143H42.5792C43.9905 17.6143 45.1305 16.4581 45.1305 15.0511V10.2736H46.8458C49.104 10.2736 50.9388 12.117 50.9388 14.3857V26.493H45.1305V21.7155C45.1413 20.2976 43.9905 19.1414 42.5792 19.1414ZM42.666 21.7155V33.7574C42.666 33.801 42.6226 33.8446 42.5792 33.8446H3.11505C3.07162 33.8446 3.02819 33.801 3.02819 33.7574V21.7155C3.02819 21.6719 3.07162 21.6283 3.11505 21.6283H42.5792C42.6226 21.6283 42.666 21.661 42.666 21.7155ZM42.5792 37.8477H37.5634V36.3206H42.5792C43.9905 36.3206 45.1305 35.1644 45.1305 33.7574V28.9799H50.9388V45.1993H45.1305V40.4218C45.1413 39.0039 43.9905 37.8477 42.5792 37.8477ZM35.088 17.6143V19.1414H10.6062V17.6143H35.088ZM35.088 36.3206V37.8477H10.6062V36.3206H35.088ZM42.666 40.4109V52.4419C42.666 52.4855 42.6226 52.5291 42.5792 52.5291H3.11505C3.07162 52.5291 3.02819 52.4855 3.02819 52.4419V40.4109C3.02819 40.3673 3.07162 40.3237 3.11505 40.3237H42.5792C42.6226 40.3237 42.666 40.3673 42.666 40.4109Z" fill="#CCD2E3"/>
</svg>
