<svg width="13" height="12" viewBox="0 0 13 12" fill="none" xmlns="http://www.w3.org/2000/svg">
<path fill-rule="evenodd" clip-rule="evenodd" d="M8.8517 0.489755C9.15097 0.176165 9.55682 0 9.98 0C10.4032 0 10.809 0.176165 11.1083 0.489755L11.1083 0.489784L11.2228 0.609726L11.2228 0.609756C11.522 0.923441 11.6901 1.34883 11.6901 1.79238C11.6901 2.23593 11.522 2.66132 11.2228 2.97501L11.2228 2.97504L10.675 3.54916C10.5018 3.73075 10.4534 4.01739 10.2801 4.19898C10.1135 4.3736 9.83535 4.42924 9.66876 4.60386L3.51451 11.0544C3.48051 11.09 3.43791 11.1153 3.39126 11.1275L0.730031 11.8249C0.639626 11.8485 0.543992 11.8208 0.478098 11.7517C0.412205 11.6827 0.385716 11.5824 0.408317 11.4877L1.07363 8.69831C1.08529 8.64942 1.10941 8.60477 1.14341 8.56913L7.28905 2.12762C7.46231 1.94602 7.51067 1.65939 7.68393 1.47779C7.85053 1.30317 8.12873 1.24753 8.29533 1.07291L8.85167 0.489784L8.8517 0.489755ZM10.8476 2.58182C10.4364 3.01273 9.74866 3.01273 9.33755 2.58183L9.22682 2.46577C8.80422 2.02282 8.80422 1.326 9.22682 0.883055L9.22684 0.883025C9.42662 0.673712 9.69753 0.556127 9.98 0.556127C10.2625 0.556127 10.5334 0.673723 10.7332 0.883055L10.8476 1.00294C11.0473 1.21233 11.1595 1.4963 11.1595 1.79238C11.1595 2.08845 11.0473 2.3724 10.8476 2.58179L10.8476 2.58182ZM6.65346 11.1102C6.41903 11.1102 6.22899 11.3094 6.22899 11.5551C6.22899 11.8008 6.41903 12 6.65346 12H11.9759C12.2104 12 12.4004 11.8008 12.4004 11.5551C12.4004 11.3094 12.2104 11.1102 11.9759 11.1102H6.65346Z" fill="#1090CB"/>
</svg>
