<svg width="14" height="14" viewBox="0 0 14 14" fill="none" xmlns="http://www.w3.org/2000/svg">
<path d="M11.625 0H2.875V0.875C2.875 1.90137 3.13225 2.69063 3.40525 3.23488C3.52512 3.4755 3.64763 3.66625 3.75 3.80888V5.712C3.19945 6.20443 2.75901 6.80748 2.45745 7.48176C2.1559 8.15604 2.00002 8.88636 2 9.625V10.5H6.375V13.125C6.375 13.3571 6.46719 13.5796 6.63128 13.7437C6.79538 13.9078 7.01794 14 7.25 14C7.48206 14 7.70462 13.9078 7.86872 13.7437C8.03281 13.5796 8.125 13.3571 8.125 13.125V10.5H12.5V9.625C12.5 8.88636 12.3441 8.15604 12.0425 7.48176C11.741 6.80748 11.3005 6.20443 10.75 5.712V3.80888C10.8524 3.66625 10.9749 3.4755 11.0948 3.23488C11.3678 2.69063 11.625 1.90137 11.625 0.875V0Z" fill="#E4E4E4"/>
</svg>
