<svg width="45" height="45" viewBox="0 0 45 45" fill="none" xmlns="http://www.w3.org/2000/svg">
<path fill-rule="evenodd" clip-rule="evenodd" d="M4.92188 0C2.20496 0 0 2.20496 0 4.92188V40.0781C0 41.3835 0.518555 42.6354 1.44153 43.5585C2.36462 44.4814 3.61646 45 4.92188 45H40.0781C41.3835 45 42.6354 44.4814 43.5585 43.5585C44.4814 42.6354 45 41.3835 45 40.0781V4.92188C45 2.20496 42.795 0 40.0781 0H4.92188ZM4.42468 4.42468C4.55652 4.29285 4.73535 4.21875 4.92188 4.21875H40.0781C40.2646 4.21875 40.4435 4.29285 40.5753 4.42468C40.7072 4.55652 40.7812 4.73535 40.7812 4.92188V40.0781C40.7812 40.2646 40.7072 40.4435 40.5753 40.5753C40.4435 40.7072 40.2646 40.7812 40.0781 40.7812H4.92188C4.53369 40.7812 4.21875 40.4663 4.21875 40.0781V4.92188C4.21875 4.73535 4.29285 4.55652 4.42468 4.42468ZM11.8678 20.3053C12.2634 19.9098 12.7999 19.6875 13.3594 19.6875H26.0156C26.5751 19.6875 27.1116 19.9098 27.5072 20.3053C27.9027 20.7009 28.125 21.2374 28.125 21.7969C28.125 22.3563 27.9027 22.8928 27.5072 23.2885C27.1116 23.684 26.5751 23.9062 26.0156 23.9062H13.3594C12.7999 23.9062 12.2634 23.684 11.8678 23.2885C11.4723 22.8928 11.25 22.3563 11.25 21.7969C11.25 21.2374 11.4723 20.7009 11.8678 20.3053ZM14.6803 11.8678C14.2848 12.2634 14.0625 12.7999 14.0625 13.3594C14.0625 13.9188 14.2848 14.4553 14.6803 14.851C15.0759 15.2465 15.6124 15.4688 16.1719 15.4688H31.6406C32.2001 15.4688 32.7366 15.2465 33.1322 14.851C33.5277 14.4553 33.75 13.9188 33.75 13.3594C33.75 12.7999 33.5277 12.2634 33.1322 11.8678C32.7366 11.4723 32.2001 11.25 31.6406 11.25H16.1719C15.6124 11.25 15.0759 11.4723 14.6803 11.8678ZM17.4928 28.7428C17.8884 28.3473 18.4249 28.125 18.9844 28.125H31.6406C32.2001 28.125 32.7366 28.3473 33.1322 28.7428C33.5277 29.1384 33.75 29.6749 33.75 30.2344C33.75 30.7938 33.5277 31.3303 33.1322 31.726C32.7366 32.1215 32.2001 32.3438 31.6406 32.3438H18.9844C18.4249 32.3438 17.8884 32.1215 17.4928 31.726C17.0973 31.3303 16.875 30.7938 16.875 30.2344C16.875 29.6749 17.0973 29.1384 17.4928 28.7428Z" fill="#CCD2E3"/>
</svg>
