<svg width="11" height="12" viewBox="0 0 11 12" fill="none" xmlns="http://www.w3.org/2000/svg">
<g id="ep:arrow-up-bold">
<g clip-path="url(#clip0_191_10)">
<path id="Vector" d="M1.05367 4.24341C1.17445 4.11801 1.33823 4.04756 1.509 4.04756C1.67977 4.04756 1.84355 4.11801 1.96432 4.24341L5.15223 7.55456L8.34013 4.24341C8.4616 4.12157 8.62428 4.05414 8.79314 4.05567C8.962 4.05719 9.12353 4.12754 9.24294 4.25156C9.36234 4.37559 9.43007 4.54336 9.43154 4.71875C9.43301 4.89414 9.36809 5.06311 9.25078 5.18927L5.60755 8.97334C5.48678 9.09874 5.323 9.16919 5.15223 9.16919C4.98145 9.16919 4.81768 9.09874 4.6969 8.97334L1.05367 5.18926C0.932938 5.06382 0.865113 4.89371 0.865113 4.71634C0.865113 4.53897 0.932939 4.36885 1.05367 4.24341Z" fill="#A3A3A3"/>
</g>
</g>
<defs>
<clipPath id="clip0_191_10">
<rect width="10.3043" height="10.7027" rx="5" transform="matrix(1 1.81605e-07 1.68338e-07 -1 0 11.4055)" fill="white"/>
</clipPath>
</defs>
</svg>
