<svg width="43" height="49" viewBox="0 0 43 49" fill="none" xmlns="http://www.w3.org/2000/svg">
<path fill-rule="evenodd" clip-rule="evenodd" d="M42.21 19.71C42.24 19.8101 42.26 19.91 42.27 20.01C42.28 20.03 42.29 20.0601 42.28 20.08V47.6801C42.28 48.37 41.72 48.9301 41.03 48.9301H6.38C5.69 48.9301 5.13 48.37 5.13 47.6801V44.86H1.25C0.559998 44.86 0 44.3 0 43.61V1.25C0 0.559998 0.559998 0 1.25 0H21.75C22.1 0 22.44 0.150024 22.66 0.409973L26.01 4.07001H27.55C27.58 4.07001 27.6 4.08002 27.62 4.08002C27.75 4.09003 27.87 4.12 27.99 4.15997C28.03 4.17999 28.06 4.19 28.1 4.21002C28.24 4.28003 28.37 4.35999 28.48 4.47998L41.95 19.23C42.0068 19.2925 42.054 19.3583 42.0932 19.4272C42.123 19.4796 42.1484 19.5338 42.17 19.59C42.19 19.63 42.2 19.67 42.21 19.71ZM31.03 10.97L28.81 8.54004V18.83H38.2L31.03 10.97ZM22.64 4.07001L21.2 2.5H2.5V42.35H5.13V5.32001C5.13 4.63 5.69 4.07001 6.38 4.07001H22.64ZM27.56 21.33C26.87 21.33 26.31 20.77 26.31 20.08V6.56995H7.63V46.4301H39.79V21.33H27.56Z" fill="#CCD2E3"/>
</svg>
