<svg width="14" height="17" viewBox="0 0 14 17" fill="none" xmlns="http://www.w3.org/2000/svg">
<path d="M12.5358 1.55566C10.5849 -0.518555 7.40799 -0.518555 5.45918 1.55566L0.0538653 7.2983C0.0186583 7.33573 1.91462e-05 7.38637 1.91462e-05 7.43922C1.91462e-05 7.49207 0.0186583 7.54271 0.0538653 7.58014L0.818065 8.39266C0.852996 8.42963 0.900281 8.45039 0.949574 8.45039C0.998866 8.45039 1.04615 8.42963 1.08108 8.39266L6.4864 2.65002C7.1574 1.9366 8.05 1.54465 8.99852 1.54465C9.94704 1.54465 10.8396 1.9366 11.5086 2.65002C12.1796 3.36345 12.5482 4.31248 12.5482 5.31876C12.5482 6.32725 12.1796 7.27408 11.5086 7.9875L5.99971 13.8424L5.10711 14.7915C4.2725 15.6788 2.91599 15.6788 2.08138 14.7915C1.67753 14.3621 1.45593 13.7918 1.45593 13.1841C1.45593 12.5763 1.67753 12.006 2.08138 11.5766L7.54675 5.76795C7.68551 5.62263 7.86776 5.54116 8.06243 5.54116H8.0645C8.25918 5.54116 8.43935 5.62263 8.57604 5.76795C8.7148 5.91548 8.78935 6.10925 8.78935 6.31624C8.78935 6.52101 8.71272 6.71479 8.57604 6.86011L4.10889 11.6053C4.07368 11.6427 4.05504 11.6933 4.05504 11.7462C4.05504 11.799 4.07368 11.8497 4.10889 11.8871L4.87309 12.6996C4.90802 12.7366 4.9553 12.7574 5.0046 12.7574C5.05389 12.7574 5.10117 12.7366 5.1361 12.6996L9.60118 7.95227C10.0133 7.51409 10.2391 6.93278 10.2391 6.31403C10.2391 5.69529 10.0112 5.11178 9.60118 4.6758C8.75 3.7708 7.36657 3.77301 6.51539 4.6758L5.98522 5.24169L1.05209 10.4845C0.717271 10.8384 0.451867 11.2594 0.271269 11.7232C0.0906712 12.187 -0.00152772 12.6843 1.91462e-05 13.1863C1.91462e-05 14.2058 0.374871 15.1636 1.05209 15.8836C1.75416 16.6279 2.67368 17 3.59321 17C4.51273 17 5.43226 16.6279 6.13226 15.8836L12.5358 9.07966C13.4781 8.07558 14 6.73901 14 5.31876C14.0021 3.89631 13.4802 2.55974 12.5358 1.55566Z" fill="#1090CB"/>
</svg>
