<svg width="14" height="15" viewBox="0 0 14 15" fill="none" xmlns="http://www.w3.org/2000/svg">
<path d="M7.3598 14.538C3.84806 14.538 0.992188 11.6821 0.992188 8.17035C0.992188 4.65861 3.84806 1.80273 7.3598 1.80273C10.8715 1.80273 13.7274 4.65861 13.7274 8.17035C13.7274 11.6821 10.8696 14.538 7.3598 14.538ZM7.3598 2.78752C4.39166 2.78752 1.97697 5.20221 1.97697 8.17035C1.97697 11.1385 4.39166 13.5532 7.3598 13.5532C10.3279 13.5532 12.7426 11.1385 12.7426 8.17035C12.7426 5.20221 10.3279 2.78752 7.3598 2.78752Z" fill="#C6C6C6"/>
<path d="M9.4552 10.7582C9.32915 10.7582 9.2031 10.7109 9.10659 10.6144L7.01097 8.51683C6.9184 8.42426 6.86719 8.30018 6.86719 8.16822V4.59542C6.86719 4.32362 7.08778 4.10303 7.35958 4.10303C7.63138 4.10303 7.85197 4.32362 7.85197 4.59542V7.96535L9.80381 9.91719C9.99683 10.1102 9.99683 10.4214 9.80381 10.6144C9.70731 10.7109 9.58125 10.7582 9.4552 10.7582Z" fill="#C6C6C6"/>
<path d="M1.21017 4.02219C1.08412 4.02219 0.958069 3.97492 0.86156 3.87841C0.668542 3.68539 0.668542 3.3742 0.86156 3.18119L3.12066 0.92406C3.31367 0.731042 3.62486 0.731042 3.81788 0.92406C4.0109 1.11708 4.0109 1.42827 3.81788 1.62129L1.55879 3.87841C1.46228 3.97492 1.33623 4.02219 1.21017 4.02219Z" fill="#C6C6C6"/>
<path d="M13.5064 4.02219C13.3803 4.02219 13.2543 3.97492 13.1577 3.87841L10.9006 1.62129C10.7076 1.42827 10.7076 1.11708 10.9006 0.92406C11.0936 0.731042 11.4048 0.731042 11.5978 0.92406L13.855 3.18315C14.048 3.37617 14.048 3.68736 13.855 3.88038C13.7585 3.97492 13.6324 4.02219 13.5064 4.02219Z" fill="#C6C6C6"/>
</svg>
