<svg width="16" height="17" viewBox="0 0 16 17" fill="none" xmlns="http://www.w3.org/2000/svg">
<rect width="16" height="17" rx="3" fill="#FFE9E9"/>
<path d="M11.819 10.9469L8.87213 8L11.819 5.05314C12.0603 4.81179 12.0603 4.42098 11.819 4.18101C11.5776 3.94104 11.1868 3.93966 10.9469 4.18101L8 7.12787L5.05314 4.18101C4.81179 3.93966 4.42098 3.93966 4.18101 4.18101C3.94104 4.42235 3.93966 4.81317 4.18101 5.05314L7.12787 8L4.18101 10.9469C3.93966 11.1882 3.93966 11.579 4.18101 11.819C4.42235 12.0589 4.81317 12.0603 5.05314 11.819L8 8.87213L10.9469 11.819C11.1882 12.0603 11.579 12.0603 11.819 11.819C12.0603 11.579 12.0603 11.1882 11.819 10.9469Z" fill="#FF5656"/>
</svg>
