<svg width="14" height="14" viewBox="0 0 14 14" fill="none" xmlns="http://www.w3.org/2000/svg">
<path fill-rule="evenodd" clip-rule="evenodd" d="M4.83333 0.832357C4.83333 0.372119 4.46024 -0.000976562 4 -0.000976562C3.53976 -0.000976562 3.16667 0.372119 3.16667 0.832357V1.84766H2.8C1.4798 1.84766 0.8204 1.84766 0.4102 2.26656C0 2.68546 0 3.35884 0 4.70705C0 5.04303 0 5.21245 0.1022 5.31753C0.2051 5.4219 0.3703 5.4219 0.7 5.4219H13.3C13.629 5.4219 13.7949 5.4219 13.8978 5.31753C14 5.21245 14 5.04375 14 4.70706V4.70705V4.70704C14 3.35884 14 2.68546 13.5898 2.26656C13.2512 1.9208 12.7429 1.86043 11.8333 1.84989V0.832357C11.8333 0.372119 11.4602 -0.000976562 11 -0.000976562C10.5398 -0.000976562 10.1667 0.372119 10.1667 0.832357V1.84766H4.83333V0.832357ZM0.4102 13.5812C0 13.1623 0 12.4889 0 11.1407V7.56644C0 7.23046 0 7.06104 0.1022 6.95596C0.2051 6.85159 0.3703 6.85159 0.7 6.85159H13.3C13.629 6.85159 13.7949 6.85159 13.8978 6.95596C14 7.06104 14 7.22974 14 7.56643V7.56644V11.1407V11.1407C14 12.4889 14 13.1623 13.5898 13.5812C13.1796 14.0001 12.5202 14.0001 11.2 14.0001H2.8C1.4798 14.0001 0.8204 14.0001 0.4102 13.5812Z" fill="#DF8993"/>
</svg>
