<svg width="54" height="80" viewBox="0 0 54 80" fill="none" xmlns="http://www.w3.org/2000/svg">
<path d="M26.9464 38.1074C37.3959 38.1074 45.8987 29.6011 45.8987 19.1474C45.8987 8.69367 37.3959 0.187378 26.9464 0.187378C16.497 0.187378 7.99414 8.69367 7.99414 19.1474C7.99414 29.6011 16.497 38.1074 26.9464 38.1074Z" fill="#C6C6C6"/>
<path d="M26.9464 40.787C20.9197 40.787 15.3497 42.776 10.8543 46.1359C4.27218 51.0538 0 58.9109 0 67.7444V71.1199V76.1727C0 78.2863 1.71822 80.0052 3.82575 80.0052H50.0618C52.1746 80.0052 53.8876 78.2863 53.8876 76.1727V67.7444C53.8876 52.8765 41.803 40.787 26.9464 40.787Z" fill="#C6C6C6"/>
</svg>
