<svg width="16" height="16" viewBox="0 0 16 16" fill="none" xmlns="http://www.w3.org/2000/svg">
<g clip-path="url(#clip0_2296_5658)">
<path d="M9.51818 15.5298C8.47471 12.3183 8.47471 8.85889 9.51818 5.64741L8.17583 5.21094C6.70994 8.30976 6.13936 11.8974 6.6823 15.5298H9.51818Z" fill="#FFF176"/>
<path d="M12.8997 7.37596L13.1044 6.45301L12.4615 7.27654L10.7068 6.88243L10.9115 5.95949L10.2686 6.78301L7.76562 6.21419C8.88327 5.01184 10.5221 4.41537 12.1597 4.78596C13.7974 5.15654 15.0286 6.40301 15.5303 7.97066L12.8997 7.37596Z" fill="#8BC24A"/>
<path d="M12.0396 2.50723L11.4202 1.80135L11.6996 2.80723L10.3396 3.99429L9.72022 3.28841L10.0002 4.29429L8.05905 5.99194C7.7561 4.37959 8.2514 2.69782 9.5214 1.58782C10.7914 0.477821 12.5214 0.210763 14.0814 0.726057L12.0396 2.50723Z" fill="#8BC24A"/>
<path d="M4.98993 3.58423L5.4111 3.10306L5.28522 3.84247L6.46581 4.87482L6.8864 4.39365L6.7611 5.13306L8.4464 6.60718C8.53346 5.40835 7.98699 4.08247 6.88169 3.11776C5.7764 2.15306 4.39522 1.78953 3.21875 2.03541L4.98993 3.58423Z" fill="#8BC24A"/>
<path d="M3.18129 7.20379L3.08247 6.25379L3.63306 7.15615L5.44011 6.96497L5.34129 6.01497L5.89188 6.91732L8.4707 6.64321C7.48894 5.30556 5.9107 4.51321 4.22364 4.69203C2.53659 4.87085 1.156 5.97615 0.470703 7.49085L3.18129 7.20379Z" fill="#8BC24A"/>
<path d="M8.23518 7.52895C8.62503 7.52895 8.94106 7.21292 8.94106 6.82307C8.94106 6.43322 8.62503 6.11719 8.23518 6.11719C7.84533 6.11719 7.5293 6.43322 7.5293 6.82307C7.5293 7.21292 7.84533 7.52895 8.23518 7.52895Z" fill="#FFD54F"/>
<path d="M9.64729 7.7643C10.0371 7.7643 10.3532 7.44827 10.3532 7.05842C10.3532 6.66857 10.0371 6.35254 9.64729 6.35254C9.25744 6.35254 8.94141 6.66857 8.94141 7.05842C8.94141 7.44827 9.25744 7.7643 9.64729 7.7643Z" fill="#FFD54F"/>
</g>
<defs>
<clipPath id="clip0_2296_5658">
<rect width="16" height="16" fill="white"/>
</clipPath>
</defs>
</svg>
