<svg width="81" height="77" viewBox="0 0 81 77" fill="none" xmlns="http://www.w3.org/2000/svg">
<g filter="url(#filter0_d_3071_6240)">
<path d="M39.9501 53.3158V60.1579H53.75V67H19.2501V60.1579H33.0501V53.3158H5.42251C4.96944 53.3122 4.52153 53.2202 4.10433 53.0449C3.68714 52.8697 3.30884 52.6147 2.99104 52.2945C2.67324 51.9742 2.42216 51.5951 2.25214 51.1786C2.08211 50.7622 1.99647 50.3166 2.00011 49.8674V5.44842C2.00011 3.54289 3.56986 2 5.42251 2H67.5776C69.4682 2 71 3.53605 71 5.445V49.8674C71 51.7729 69.4302 53.3158 67.5776 53.3158H39.9501Z" fill="#1090CB"/>
</g>
<defs>
<filter id="filter0_d_3071_6240" x="0" y="0" width="81" height="77" filterUnits="userSpaceOnUse" color-interpolation-filters="sRGB">
<feFlood flood-opacity="0" result="BackgroundImageFix"/>
<feColorMatrix in="SourceAlpha" type="matrix" values="0 0 0 0 0 0 0 0 0 0 0 0 0 0 0 0 0 0 127 0" result="hardAlpha"/>
<feOffset dx="4" dy="4"/>
<feGaussianBlur stdDeviation="3"/>
<feComposite in2="hardAlpha" operator="out"/>
<feColorMatrix type="matrix" values="0 0 0 0 0.0627451 0 0 0 0 0.564706 0 0 0 0 0.796078 0 0 0 0.25 0"/>
<feBlend mode="normal" in2="BackgroundImageFix" result="effect1_dropShadow_3071_6240"/>
<feBlend mode="normal" in="SourceGraphic" in2="effect1_dropShadow_3071_6240" result="shape"/>
</filter>
</defs>
</svg>
