<svg width="52" height="52" viewBox="0 0 52 52" fill="none" xmlns="http://www.w3.org/2000/svg">
<path d="M1.01271 43.1316C-0.305797 44.3676 -0.342134 46.4552 0.934848 47.7327L4.10135 50.9005C5.37833 52.178 7.4651 52.1468 8.70056 50.8226L31.4111 26.5345L25.2909 20.417L1.01271 43.1316Z" fill="#C6C6C6"/>
<path d="M26.8638 18.9422L32.8801 24.961L34.9825 22.7072L29.1167 16.839L26.8638 18.9422Z" fill="#C6C6C6"/>
<path d="M50.2594 18.8643C50.2594 18.8591 50.2543 18.8539 50.2543 18.8487C50.2231 18.776 50.1868 18.7085 50.1556 18.6514C50.8408 17.6751 50.7474 16.3249 49.8805 15.4524L40.7703 6.33857C40.4537 6.02179 39.9346 6.02179 39.6179 6.33857L39.7581 6.19835C37.0795 6.13084 36.9238 3.36292 36.9238 3.36292L34.4633 0.901395C33.9079 0.345734 33.0046 0.345734 32.444 0.901395L29.6097 3.73682L26.9156 6.43204C26.3602 6.9877 26.3602 7.8913 26.9156 8.45215L29.3761 10.9137C31.5511 11.2045 32.2104 13.7491 32.2104 13.7491L32.0599 13.8997C31.7432 14.2165 31.7432 14.7358 32.0599 15.0526L32.6413 15.6342L31.4058 16.8702L34.9564 20.4222L36.1919 19.1863L41.17 24.1665C42.0265 25.0233 43.3554 25.1272 44.3262 24.478C48.6139 27.973 44.7207 35.7678 45.8419 34.6461C53.1923 27.2875 51.225 20.9467 50.2594 18.8643Z" fill="#C6C6C6"/>
</svg>
