<svg width="18" height="13" viewBox="0 0 18 13" fill="none" xmlns="http://www.w3.org/2000/svg">
<path d="M14.3398 10.9375H13.4023L14.3398 12.8125H15.2773L14.3398 10.9375Z" fill="url(#paint0_linear_2296_5641)"/>
<path d="M4.02734 10.9375H4.96484L4.02734 12.8125H3.08984L4.02734 10.9375Z" fill="url(#paint1_linear_2296_5641)"/>
<path d="M5.633 10.9375C5.13296 10.9375 4.68103 10.6395 4.48407 10.1798L1.9386 4.24045C1.41233 3.01252 1.75955 1.59947 2.99413 1.08897C4.31278 0.543687 6.3405 0 9.18375 0C12.027 0 14.0547 0.543687 15.3734 1.08897C16.608 1.59947 16.9552 3.01252 16.4289 4.24045L13.8834 10.1798C13.6865 10.6395 13.2345 10.9375 12.7345 10.9375H5.633Z" fill="url(#paint2_linear_2296_5641)"/>
<path d="M4.16914 10.9375C3.06513 10.9375 2.09182 10.2133 1.77458 9.15588L0.916816 6.29669C0.676218 5.49467 1.27677 4.6875 2.1141 4.6875H2.41324C2.91786 4.6875 3.37299 4.99092 3.56708 5.45673L4.72894 8.24519C4.77746 8.36164 4.89124 8.4375 5.01739 8.4375H13.3507C13.4769 8.4375 13.5907 8.36164 13.6392 8.24519L14.8011 5.45673C14.9952 4.99092 15.4503 4.6875 15.9548 4.6875H16.2541C17.0914 4.6875 17.6919 5.49467 17.4513 6.29669L16.5936 9.15588C16.2763 10.2133 15.303 10.9375 14.199 10.9375H4.16914Z" fill="url(#paint3_linear_2296_5641)"/>
<defs>
<linearGradient id="paint0_linear_2296_5641" x1="14.1836" y1="10.3125" x2="14.1836" y2="12.8125" gradientUnits="userSpaceOnUse">
<stop stop-color="#602E00"/>
<stop offset="1" stop-color="#A45914"/>
</linearGradient>
<linearGradient id="paint1_linear_2296_5641" x1="4.18359" y1="10.3125" x2="4.18359" y2="12.8125" gradientUnits="userSpaceOnUse">
<stop stop-color="#602E00"/>
<stop offset="1" stop-color="#A45914"/>
</linearGradient>
<linearGradient id="paint2_linear_2296_5641" x1="9.0275" y1="0" x2="9.0275" y2="10.9375" gradientUnits="userSpaceOnUse">
<stop stop-color="#21BED2"/>
<stop offset="1" stop-color="#027E8E"/>
</linearGradient>
<linearGradient id="paint3_linear_2296_5641" x1="9.18407" y1="4.6875" x2="9.18407" y2="12.1875" gradientUnits="userSpaceOnUse">
<stop stop-color="#2BBED2"/>
<stop offset="1" stop-color="#0695A9"/>
</linearGradient>
</defs>
</svg>
