<svg width="14" height="15" viewBox="0 0 14 15" fill="none" xmlns="http://www.w3.org/2000/svg">
<path d="M13.5987 7.33201L13.5987 7.33107L13.5987 7.19877L13.5988 6.7987L13.1987 6.79873L13.0655 6.79874L13.0655 6.79874L7.80159 6.79924L7.80092 1.53421L7.80092 1.53412L7.80093 1.40097L7.80097 1.00089L7.40089 1.00093L7.26813 1.00094L6.73439 0.99974V0.999739L6.73345 0.999739L6.60021 0.999752L6.204 0.99979L6.20027 1.39598L6.199 1.53047L6.19898 1.53047L6.19898 1.5343L6.19965 6.79931L0.934634 6.79864L0.934545 6.79864L0.801307 6.79865L0.40139 6.79869L0.401345 7.19861L0.401331 7.33185L0.40133 7.33186L0.401281 7.86732L0.401268 8.00056L0.40123 8.40063L0.801307 8.4006L0.934455 8.40058L0.934544 8.40058L6.19958 8.40125L6.19908 13.6651L6.59906 13.6652L6.19908 13.6651L6.19907 13.7984L6.19904 14.1984L6.59911 14.1984L6.73235 14.1984L7.26781 14.1983L7.26777 13.7983L7.26781 14.1983L7.40105 14.1983L7.80097 14.1983L7.80101 13.7984L7.80102 13.6651L7.80152 8.40119L13.0655 8.40068L13.0655 8.4007L13.0692 8.40067L13.2037 8.3994L13.5999 8.39566L13.5999 7.99945L13.5999 7.86622L13.5999 7.86528L13.5987 7.33201Z" fill="#1090CB" stroke="#1090CB" stroke-width="0.8"/>
</svg>
