<svg width="56" height="47" viewBox="0 0 56 47" fill="none" xmlns="http://www.w3.org/2000/svg">
<path d="M36.5497 0.947906H18.9159C8.46649 0.947906 0 9.41784 0 19.8715C0 30.32 8.46649 38.79 18.9159 38.79H29.9052L35.8853 46.8081L42.3999 37.8604C49.9788 35.3937 55.4604 28.274 55.4604 19.8663C55.4604 9.41784 46.994 0.947906 36.5497 0.947906ZM14.3271 21.9384C13.1591 21.9384 12.2092 20.988 12.2092 19.8196C12.2092 18.6511 13.1591 17.7008 14.3271 17.7008C15.5003 17.7008 16.445 18.6511 16.445 19.8196C16.445 20.988 15.4951 21.9384 14.3271 21.9384ZM28.0624 21.9384C26.8945 21.9384 25.9445 20.988 25.9445 19.8196C25.9445 18.6511 26.8945 17.7008 28.0624 17.7008C29.2356 17.7008 30.1804 18.6511 30.1804 19.8196C30.1804 20.988 29.2304 21.9384 28.0624 21.9384ZM41.7978 21.9384C40.6246 21.9384 39.6799 20.988 39.6799 19.8196C39.6799 18.6511 40.6298 17.7008 41.7978 17.7008C42.9657 17.7008 43.9157 18.6511 43.9157 19.8196C43.9157 20.988 42.9657 21.9384 41.7978 21.9384Z" fill="#C6C6C6"/>
</svg>
