<svg width="10" height="8" viewBox="0 0 10 8" fill="none" xmlns="http://www.w3.org/2000/svg">
<path fill-rule="evenodd" clip-rule="evenodd" d="M0.0422863 0.352572C0.0843662 0.24818 0.155595 0.158965 0.246966 0.0962089C0.338337 0.0334523 0.445747 -2.842e-05 0.555616 1.81012e-08H6.11114C6.62183 1.02738e-08 7.12752 0.103463 7.59934 0.304482C8.07116 0.505501 8.49986 0.800139 8.86098 1.17157C9.22209 1.54301 9.50854 1.98396 9.70398 2.46927C9.89941 2.95457 10 3.47471 10 4C10 4.52529 9.89941 5.04543 9.70398 5.53073C9.50854 6.01604 9.22209 6.45699 8.86098 6.82843C8.49986 7.19986 8.07116 7.4945 7.59934 7.69552C7.12752 7.89654 6.62183 8 6.11114 8H1.11117C0.963827 8 0.82252 7.9398 0.718334 7.83263C0.614148 7.72547 0.555616 7.58012 0.555616 7.42857C0.555616 7.27702 0.614148 7.13167 0.718334 7.02451C0.82252 6.91735 0.963827 6.85714 1.11117 6.85714H6.11114C6.84784 6.85714 7.55438 6.55612 8.07531 6.02031C8.59624 5.48449 8.8889 4.75776 8.8889 4C8.8889 3.24224 8.59624 2.51551 8.07531 1.97969C7.55438 1.44388 6.84784 1.14286 6.11114 1.14286H1.89672L2.89282 2.16743C2.99402 2.2752 3.05002 2.41955 3.04875 2.56937C3.04749 2.7192 2.98906 2.86252 2.88606 2.96847C2.78305 3.07442 2.64371 3.13451 2.49805 3.13581C2.35239 3.13712 2.21205 3.07952 2.10727 2.97543L0.162841 0.975428C0.0851012 0.895517 0.0321521 0.793684 0.0106928 0.682813C-0.0107665 0.571941 0.00022838 0.457014 0.0422863 0.352572Z" fill="#1090CB"/>
</svg>
