<svg width="19" height="19" viewBox="0 0 19 19" fill="none" xmlns="http://www.w3.org/2000/svg">
<path d="M18.5701 16.4988L11.5713 9.5L18.5701 2.5012C19.1433 1.92801 19.1433 0.999829 18.5701 0.429894C17.9969 -0.140041 17.0687 -0.143298 16.4988 0.429894L9.5 7.42869L2.5012 0.429894C1.92801 -0.143298 0.999829 -0.143298 0.429894 0.429894C-0.140041 1.00309 -0.143298 1.93127 0.429894 2.5012L7.42869 9.5L0.429894 16.4988C-0.143298 17.072 -0.143298 18.0002 0.429894 18.5701C1.00309 19.14 1.93127 19.1433 2.5012 18.5701L9.5 11.5713L16.4988 18.5701C17.072 19.1433 18.0002 19.1433 18.5701 18.5701C19.1433 18.0002 19.1433 17.072 18.5701 16.4988Z" fill="#BFBFBF"/>
</svg>
