<svg width="32" height="32" viewBox="0 0 32 32" fill="none" xmlns="http://www.w3.org/2000/svg">
<g filter="url(#filter0_d_3071_6237)">
<path fill-rule="evenodd" clip-rule="evenodd" d="M4.22222 4.22222C4.51691 4.22222 4.79952 4.10516 5.0079 3.89679C5.21627 3.68841 5.33333 3.4058 5.33333 3.11111C5.33333 2.81643 5.4504 2.53381 5.65877 2.32544C5.86714 2.11706 6.14976 2 6.44444 2C6.73913 2 7.02174 2.11706 7.23012 2.32544C7.43849 2.53381 7.55556 2.81643 7.55556 3.11111C7.55556 3.4058 7.67262 3.68841 7.88099 3.89679C8.08937 4.10516 8.37198 4.22222 8.66667 4.22222H9.77778C10.0725 4.22222 10.3551 4.10516 10.5635 3.89679C10.7718 3.68841 10.8889 3.4058 10.8889 3.11111C10.8889 2.81643 11.006 2.53381 11.2143 2.32544C11.4227 2.11706 11.7053 2 12 2C12.2947 2 12.5773 2.11706 12.7857 2.32544C12.994 2.53381 13.1111 2.81643 13.1111 3.11111C13.1111 3.4058 13.2282 3.68841 13.4365 3.89679C13.6449 4.10516 13.9275 4.22222 14.2222 4.22222H15.3333C15.628 4.22222 15.9106 4.10516 16.119 3.89679C16.3274 3.68841 16.4444 3.4058 16.4444 3.11111C16.4444 2.81643 16.5615 2.53381 16.7699 2.32544C16.9783 2.11706 17.2609 2 17.5556 2C17.8502 2 18.1329 2.11706 18.3412 2.32544C18.5496 2.53381 18.6667 2.81643 18.6667 3.11111C18.6667 3.4058 18.7837 3.68841 18.9921 3.89679C19.2005 4.10516 19.4831 4.22222 19.7778 4.22222C20.3671 4.22222 20.9324 4.45635 21.3491 4.8731C21.7659 5.28984 22 5.85507 22 6.44444V7.55556C22 7.85024 21.8829 8.13286 21.6746 8.34123C21.4662 8.5496 21.1836 8.66667 20.8889 8.66667H3.11111C2.81643 8.66667 2.53381 8.5496 2.32544 8.34123C2.11706 8.13286 2 7.85024 2 7.55556V6.44444C2 5.85507 2.23413 5.28984 2.65087 4.8731C3.06762 4.45635 3.63285 4.22222 4.22222 4.22222ZM2 19.7778V12C2 11.7053 2.11706 11.4227 2.32544 11.2143C2.53381 11.006 2.81643 10.8889 3.11111 10.8889H20.8889C21.1836 10.8889 21.4662 11.006 21.6746 11.2143C21.8829 11.4227 22 11.7053 22 12V19.7778C22 20.3671 21.7659 20.9324 21.3491 21.3491C20.9324 21.7659 20.3671 22 19.7778 22H4.22222C3.63285 22 3.06762 21.7659 2.65087 21.3491C2.23413 20.9324 2 20.3671 2 19.7778ZM8.67778 13.1111C8.67778 12.8164 8.56071 12.5338 8.35234 12.3254C8.14397 12.1171 7.86135 12 7.56667 12C7.27198 12 6.98937 12.1171 6.78099 12.3254C6.57262 12.5338 6.45556 12.8164 6.45556 13.1111C6.45556 13.4058 6.57262 13.6884 6.78099 13.8968C6.98937 14.1052 7.27198 14.2222 7.56667 14.2222C7.86135 14.2222 8.14397 14.1052 8.35234 13.8968C8.56071 13.6884 8.67778 13.4058 8.67778 13.1111ZM10.9 13.1111C10.9 12.8164 11.0171 12.5338 11.2254 12.3254C11.4338 12.1171 11.7164 12 12.0111 12C12.3058 12 12.5884 12.1171 12.7968 12.3254C13.0052 12.5338 13.1222 12.8164 13.1222 13.1111C13.1222 13.4058 13.0052 13.6884 12.7968 13.8968C12.5884 14.1052 12.3058 14.2222 12.0111 14.2222C11.7164 14.2222 11.4338 14.1052 11.2254 13.8968C11.0171 13.6884 10.9 13.4058 10.9 13.1111ZM17.5667 13.1111C17.5667 12.8164 17.4496 12.5338 17.2412 12.3254C17.0329 12.1171 16.7502 12 16.4556 12C16.1609 12 15.8783 12.1171 15.6699 12.3254C15.4615 12.5338 15.3444 12.8164 15.3444 13.1111C15.3444 13.4058 15.4615 13.6884 15.6699 13.8968C15.8783 14.1052 16.1609 14.2222 16.4556 14.2222C16.7502 14.2222 17.0329 14.1052 17.2412 13.8968C17.4496 13.6884 17.5667 13.4058 17.5667 13.1111ZM6.45556 17.5556C6.45556 17.2609 6.57262 16.9783 6.78099 16.7699C6.98937 16.5615 7.27198 16.4444 7.56667 16.4444C7.86135 16.4444 8.14397 16.5615 8.35234 16.7699C8.56071 16.9783 8.67778 17.2609 8.67778 17.5556C8.67778 17.8502 8.56071 18.1329 8.35234 18.3412C8.14397 18.5496 7.86135 18.6667 7.56667 18.6667C7.27198 18.6667 6.98937 18.5496 6.78099 18.3412C6.57262 18.1329 6.45556 17.8502 6.45556 17.5556ZM13.1222 17.5556C13.1222 17.2609 13.0052 16.9783 12.7968 16.7699C12.5884 16.5615 12.3058 16.4444 12.0111 16.4444C11.7164 16.4444 11.4338 16.5615 11.2254 16.7699C11.0171 16.9783 10.9 17.2609 10.9 17.5556C10.9 17.8502 11.0171 18.1329 11.2254 18.3412C11.4338 18.5496 11.7164 18.6667 12.0111 18.6667C12.3058 18.6667 12.5884 18.5496 12.7968 18.3412C13.0052 18.1329 13.1222 17.8502 13.1222 17.5556ZM15.3444 17.5556C15.3444 17.2609 15.4615 16.9783 15.6699 16.7699C15.8783 16.5615 16.1609 16.4444 16.4556 16.4444C16.7502 16.4444 17.0329 16.5615 17.2412 16.7699C17.4496 16.9783 17.5667 17.2609 17.5667 17.5556C17.5667 17.8502 17.4496 18.1329 17.2412 18.3412C17.0329 18.5496 16.7502 18.6667 16.4556 18.6667C16.1609 18.6667 15.8783 18.5496 15.6699 18.3412C15.4615 18.1329 15.3444 17.8502 15.3444 17.5556Z" fill="#93D0D0"/>
</g>
<defs>
<filter id="filter0_d_3071_6237" x="0" y="0" width="32" height="32" filterUnits="userSpaceOnUse" color-interpolation-filters="sRGB">
<feFlood flood-opacity="0" result="BackgroundImageFix"/>
<feColorMatrix in="SourceAlpha" type="matrix" values="0 0 0 0 0 0 0 0 0 0 0 0 0 0 0 0 0 0 127 0" result="hardAlpha"/>
<feOffset dx="4" dy="4"/>
<feGaussianBlur stdDeviation="3"/>
<feComposite in2="hardAlpha" operator="out"/>
<feColorMatrix type="matrix" values="0 0 0 0 0.541176 0 0 0 0 0.815686 0 0 0 0 0.815686 0 0 0 0.25 0"/>
<feBlend mode="normal" in2="BackgroundImageFix" result="effect1_dropShadow_3071_6237"/>
<feBlend mode="normal" in="SourceGraphic" in2="effect1_dropShadow_3071_6237" result="shape"/>
</filter>
</defs>
</svg>
