<svg width="19" height="21" viewBox="0 0 19 21" fill="none" xmlns="http://www.w3.org/2000/svg">
<path d="M1 7.33333V17.8889C1 18.4488 1.22388 18.9858 1.6224 19.3817C2.02091 19.7776 2.56141 20 3.125 20H15.875C16.4386 20 16.9791 19.7776 17.3776 19.3817C17.7761 18.9858 18 18.4488 18 17.8889V7.33333M1 7.33333V5.22222C1 4.66232 1.22388 4.12535 1.6224 3.72944C2.02091 3.33353 2.56141 3.11111 3.125 3.11111H5.25M1 7.33333H18M18 7.33333V5.22222C18 4.66232 17.7761 4.12535 17.3776 3.72944C16.9791 3.33353 16.4386 3.11111 15.875 3.11111H13.75M5.25 3.11111H13.75M5.25 3.11111V1M13.75 3.11111V1" stroke="#CCD2E3" stroke-width="2" stroke-linecap="round" stroke-linejoin="round"/>
</svg>
