<svg width="41" height="41" viewBox="0 0 41 41" fill="none" xmlns="http://www.w3.org/2000/svg">
<path d="M17.5681 25.3772C17.5681 24.6937 17.6852 24.0356 17.902 23.4244H4.39348C3.22826 23.4244 2.11076 23.8873 1.28682 24.7113C0.462884 25.5353 0 26.653 0 27.8183V28.9451C0 30.687 0.624851 32.3743 1.75739 33.7003C4.81331 37.2818 9.47431 39.0511 15.6154 39.0511C16.3913 39.0511 17.1444 39.0224 17.8746 38.9651C17.6716 38.3623 17.568 37.7304 17.5681 37.0943V36.0515C16.9393 36.0971 16.2884 36.1198 15.6154 36.1198C10.2671 36.1198 6.42816 34.665 3.98147 31.7982C3.30155 31.003 2.92765 29.9913 2.92704 28.9451V27.8163C2.92755 27.4282 3.08208 27.0562 3.35667 26.7819C3.63126 26.5077 4.00346 26.3537 4.39153 26.3537H17.5681V25.3772ZM15.6154 0C16.8976 -1.91071e-08 18.1671 0.252559 19.3517 0.743257C20.5362 1.23396 21.6125 1.95318 22.5191 2.85988C23.4257 3.76657 24.1449 4.84297 24.6355 6.02762C25.1262 7.21227 25.3787 8.48197 25.3787 9.76423C25.3787 11.0465 25.1262 12.3162 24.6355 13.5008C24.1449 14.6855 23.4257 15.7619 22.5191 16.6686C21.6125 17.5753 20.5362 18.2945 19.3517 18.7852C18.1671 19.2759 16.8976 19.5285 15.6154 19.5285C13.026 19.5285 10.5427 18.4997 8.71173 16.6686C6.88075 14.8374 5.85212 12.3539 5.85212 9.76423C5.85212 7.1746 6.88075 4.69103 8.71173 2.85988C10.5427 1.02873 13.026 0 15.6154 0ZM15.6154 2.92927C14.7179 2.92927 13.8292 3.10606 13 3.44955C12.1709 3.79304 11.4175 4.2965 10.7828 4.93118C10.1482 5.56587 9.6448 6.31935 9.30134 7.1486C8.95789 7.97786 8.78111 8.86665 8.78111 9.76423C8.78111 10.6618 8.95789 11.5506 9.30134 12.3799C9.6448 13.2091 10.1482 13.9626 10.7828 14.5973C11.4175 15.232 12.1709 15.7354 13 16.0789C13.8292 16.4224 14.7179 16.5992 15.6154 16.5992C17.428 16.5992 19.1663 15.8791 20.448 14.5973C21.7297 13.3155 22.4497 11.577 22.4497 9.76423C22.4497 7.95149 21.7297 6.21299 20.448 4.93118C19.1663 3.64938 17.428 2.92927 15.6154 2.92927ZM19.5207 25.3772C19.5207 24.3414 19.9322 23.348 20.6646 22.6155C21.397 21.883 22.3903 21.4715 23.4261 21.4715H37.0947C38.1304 21.4715 39.1238 21.883 39.8562 22.6155C40.5885 23.348 41 24.3414 41 25.3772V37.0943C41 38.1302 40.5885 39.1236 39.8562 39.8561C39.1238 40.5885 38.1304 41 37.0947 41H23.4261C22.3903 41 21.397 40.5885 20.6646 39.8561C19.9322 39.1236 19.5207 38.1302 19.5207 37.0943V25.3772ZM24.4024 27.3301C24.1435 27.3301 23.8951 27.433 23.712 27.6161C23.5289 27.7992 23.4261 28.0475 23.4261 28.3065C23.4261 28.5655 23.5289 28.8138 23.712 28.9969C23.8951 29.1801 24.1435 29.2829 24.4024 29.2829H36.1184C36.3773 29.2829 36.6256 29.1801 36.8087 28.9969C36.9918 28.8138 37.0947 28.5655 37.0947 28.3065C37.0947 28.0475 36.9918 27.7992 36.8087 27.6161C36.6256 27.433 36.3773 27.3301 36.1184 27.3301H24.4024ZM24.4024 33.1886C24.1435 33.1886 23.8951 33.2915 23.712 33.4746C23.5289 33.6577 23.4261 33.9061 23.4261 34.165C23.4261 34.424 23.5289 34.6724 23.712 34.8555C23.8951 35.0386 24.1435 35.1415 24.4024 35.1415H36.1184C36.3773 35.1415 36.6256 35.0386 36.8087 34.8555C36.9918 34.6724 37.0947 34.424 37.0947 34.165C37.0947 33.9061 36.9918 33.6577 36.8087 33.4746C36.6256 33.2915 36.3773 33.1886 36.1184 33.1886H24.4024Z" fill="#CCD2E3"/>
</svg>
