<svg width="22" height="22" viewBox="0 0 22 22" fill="none" xmlns="http://www.w3.org/2000/svg">
<g clip-path="url(#clip0_3972_7683)">
<path d="M10 11.25C12.8881 11.25 15.25 8.88807 15.25 6C15.25 3.11193 12.8881 0.75 10 0.75C7.11193 0.75 4.75 3.11193 4.75 6C4.75 8.88807 7.11193 11.25 10 11.25ZM10 2.08333C12.1536 2.08333 13.9167 3.8464 13.9167 6C13.9167 8.1536 12.1536 9.91667 10 9.91667C7.8464 9.91667 6.08333 8.1536 6.08333 6C6.08333 3.8464 7.8464 2.08333 10 2.08333Z" fill="#222222" stroke="#222222" stroke-width="0.5"/>
<path d="M0.75 22V22.25H1H1.86364H2.11364V22V19.2222C2.11364 15.9091 4.17258 13.3611 6.61364 13.3611H14.3864C16.8274 13.3611 18.8864 15.9091 18.8864 19.2222V22V22.25H19.1364H20H20.25V22V19.2222C20.25 15.1464 17.6885 11.75 14.3864 11.75H6.61364C3.31152 11.75 0.75 15.1464 0.75 19.2222V22Z" fill="#222222" stroke="#222222" stroke-width="0.5"/>
</g>
<defs>
<clipPath id="clip0_3972_7683">
<rect width="22" height="22" fill="white"/>
</clipPath>
</defs>
</svg>
