<svg width="24" height="24" viewBox="0 0 24 24" fill="none" xmlns="http://www.w3.org/2000/svg">
<rect width="24" height="24" rx="12" fill="#2D9DD2"/>
<path d="M6.66602 11.9997C6.66602 12.1765 6.73625 12.3461 6.86128 12.4711C6.9863 12.5961 7.15587 12.6663 7.33268 12.6663C7.50949 12.6663 7.67906 12.5961 7.80409 12.4711C7.92911 12.3461 7.99935 12.1765 7.99935 11.9997C7.99935 11.8229 7.92911 11.6533 7.80409 11.5283C7.67906 11.4032 7.50949 11.333 7.33268 11.333C7.15587 11.333 6.9863 11.4032 6.86128 11.5283C6.73625 11.6533 6.66602 11.8229 6.66602 11.9997ZM11.3327 11.9997C11.3327 12.1765 11.4029 12.3461 11.5279 12.4711C11.653 12.5961 11.8225 12.6663 11.9993 12.6663C12.1762 12.6663 12.3457 12.5961 12.4708 12.4711C12.5958 12.3461 12.666 12.1765 12.666 11.9997C12.666 11.8229 12.5958 11.6533 12.4708 11.5283C12.3457 11.4032 12.1762 11.333 11.9993 11.333C11.8225 11.333 11.653 11.4032 11.5279 11.5283C11.4029 11.6533 11.3327 11.8229 11.3327 11.9997ZM15.9993 11.9997C15.9993 12.1765 16.0696 12.3461 16.1946 12.4711C16.3196 12.5961 16.4892 12.6663 16.666 12.6663C16.8428 12.6663 17.0124 12.5961 17.1374 12.4711C17.2624 12.3461 17.3327 12.1765 17.3327 11.9997C17.3327 11.8229 17.2624 11.6533 17.1374 11.5283C17.0124 11.4032 16.8428 11.333 16.666 11.333C16.4892 11.333 16.3196 11.4032 16.1946 11.5283C16.0696 11.6533 15.9993 11.8229 15.9993 11.9997Z" stroke="white" stroke-width="1.66667" stroke-linecap="round" stroke-linejoin="round"/>
</svg>
