<svg width="98" height="98" viewBox="0 0 98 98" fill="none" xmlns="http://www.w3.org/2000/svg">
<path d="M38.1557 61.5493V61.44C30.8232 58.0651 26.5135 50.5627 26.5135 40.8993C26.5135 28.4923 36.6018 18.4041 49.0088 18.4041C61.4036 18.4041 71.4919 28.4923 71.4919 40.8993C71.4919 50.5505 67.1822 58.0651 59.8497 61.44V61.5493C71.1398 64.5479 79.5406 73.0094 82.9884 84.2752C92.239 75.3645 98.0054 62.8604 98.0054 48.9966C97.9933 21.9368 76.0565 0 48.9966 0C21.9368 0 0 21.9368 0 48.9966C0 62.8604 5.76645 75.3645 15.0171 84.2752C18.4527 73.0094 26.8535 64.5479 38.1557 61.5493Z" fill="#A6DEF8"/>
<path d="M56.269 66.9276C54.8486 66.6605 53.8167 65.4101 53.8167 63.9655V59.3887C53.8167 58.0897 54.6544 56.9365 55.8805 56.5237C61.9626 54.5085 65.4467 48.8149 65.4467 40.8996C65.4467 31.8311 58.0657 24.4501 48.9972 24.4501C39.9287 24.4501 32.5355 31.8311 32.5355 40.8996C32.5355 48.8149 36.0196 54.5085 42.1017 56.5237C43.34 56.9365 44.1776 58.0897 44.1776 59.3887V63.9655C44.1776 65.4101 43.1457 66.6605 41.7254 66.9276C30.6659 69.0157 22.6172 77.3679 20.1406 88.5973C28.2379 94.5094 38.2048 98.0057 48.9972 98.0057C59.7895 98.0057 69.7564 94.5094 77.8537 88.5973C75.3772 77.3679 67.3284 69.0157 56.269 66.9276Z" fill="#A6DEF8"/>
<path d="M38.1557 61.5493V61.44C30.8232 58.0651 26.5135 50.5627 26.5135 40.8993C26.5135 28.4923 36.6018 18.4041 49.0088 18.4041C61.4036 18.4041 71.4919 28.4923 71.4919 40.8993C71.4919 50.5505 67.1822 58.0651 59.8497 61.44V61.5493C71.1398 64.5479 79.5406 73.0094 82.9884 84.2752C92.239 75.3645 98.0054 62.8604 98.0054 48.9966C97.9933 21.9368 76.0565 0 48.9966 0C21.9368 0 0 21.9368 0 48.9966C0 62.8604 5.76645 75.3645 15.0171 84.2752C18.4527 73.0094 26.8535 64.5479 38.1557 61.5493Z" fill="#A6DEF8"/>
<path d="M56.269 66.9276C54.8486 66.6605 53.8167 65.4101 53.8167 63.9655V59.3887C53.8167 58.0897 54.6544 56.9365 55.8805 56.5237C61.9626 54.5085 65.4467 48.8149 65.4467 40.8996C65.4467 31.8311 58.0657 24.4501 48.9972 24.4501C39.9287 24.4501 32.5355 31.8311 32.5355 40.8996C32.5355 48.8149 36.0196 54.5085 42.1017 56.5237C43.34 56.9365 44.1776 58.0897 44.1776 59.3887V63.9655C44.1776 65.4101 43.1457 66.6605 41.7254 66.9276C30.6659 69.0157 22.6172 77.3679 20.1406 88.5973C28.2379 94.5094 38.2048 98.0057 48.9972 98.0057C59.7895 98.0057 69.7564 94.5094 77.8537 88.5973C75.3772 77.3679 67.3284 69.0157 56.269 66.9276Z" fill="#A6DEF8"/>
</svg>
