<svg width="26" height="17" viewBox="0 0 26 17" fill="none" xmlns="http://www.w3.org/2000/svg">
<path d="M1.62551 0C2.05662 0 2.47007 0.162739 2.77491 0.452415C3.07976 0.742091 3.25101 1.13498 3.25101 1.54464V7.7232C3.25101 8.13287 3.42227 8.52575 3.72711 8.81543C4.03195 9.1051 4.44541 9.26784 4.87652 9.26784H20.4651L18.352 7.27526C18.0459 6.98439 17.8739 6.5899 17.8739 6.17856C17.8739 5.76722 18.0459 5.37273 18.352 5.08187C18.6581 4.79101 19.0732 4.6276 19.5061 4.6276C19.939 4.6276 20.3541 4.79101 20.6602 5.08187L25.5367 9.71579C25.6847 9.86269 25.8007 10.0359 25.8781 10.2255C26.0406 10.6016 26.0406 11.0234 25.8781 11.3994C25.8007 11.5891 25.6847 11.7623 25.5367 11.9092L20.6602 16.5431C20.5091 16.6879 20.3293 16.8028 20.1312 16.8812C19.9331 16.9596 19.7207 17 19.5061 17C19.2915 17 19.079 16.9596 18.8809 16.8812C18.6829 16.8028 18.5031 16.6879 18.352 16.5431C18.1996 16.3995 18.0787 16.2287 17.9962 16.0404C17.9136 15.8522 17.8711 15.6503 17.8711 15.4464C17.8711 15.2425 17.9136 15.0406 17.9962 14.8524C18.0787 14.6641 18.1996 14.4933 18.352 14.3497L20.4651 12.3571H4.87652C3.58319 12.3571 2.34282 11.8689 1.4283 10.9999C0.513774 10.1309 -2.15323e-07 8.95219 -2.15323e-07 7.7232V1.54464C-2.15323e-07 1.13498 0.171257 0.742091 0.476098 0.452415C0.78094 0.162739 1.1944 0 1.62551 0Z" fill="#D9D9D9"/>
</svg>
