<svg width="116" height="116" viewBox="0 0 116 116" fill="none" xmlns="http://www.w3.org/2000/svg">
<circle cx="58" cy="58" r="58" fill="white"/>
<path d="M41.3333 78C41.3333 78 38 78 38 74.6667C38 71.3333 41.3333 61.3333 58 61.3333C74.6667 61.3333 78 71.3333 78 74.6667C78 78 74.6667 78 74.6667 78H41.3333ZM58 58C60.6522 58 63.1957 56.9464 65.0711 55.0711C66.9464 53.1957 68 50.6522 68 48C68 45.3478 66.9464 42.8043 65.0711 40.9289C63.1957 39.0536 60.6522 38 58 38C55.3478 38 52.8043 39.0536 50.9289 40.9289C49.0536 42.8043 48 45.3478 48 48C48 50.6522 49.0536 53.1957 50.9289 55.0711C52.8043 56.9464 55.3478 58 58 58Z" fill="#1090CB"/>
</svg>
