<svg width="206" height="206" viewBox="0 0 206 206" fill="none" xmlns="http://www.w3.org/2000/svg">
<path d="M28.6043 90.4216L8.11611 84.9318L11.5207 72.2258L14.2091 72.9461L11.6386 82.5393L17.836 84.1999L20.1638 75.5123L22.8239 76.225L20.496 84.9127L29.4384 87.3088L28.6043 90.4216Z" fill="white"/>
<path d="M35.0658 68.7453L17.2768 57.193L24.5209 46.0381L26.8551 47.5539L21.3662 56.0061L26.7471 59.5005L31.8531 51.638L34.1627 53.1379L29.0567 61.0004L34.4868 64.5267L40.0396 55.9762L42.3738 57.4921L35.0658 68.7453Z" fill="white"/>
<path d="M48.3088 30.5806C46.9141 29.1842 44.8517 29.384 42.962 30.9143C40.9357 32.5552 40.4903 34.6122 41.6334 36.0239C42.9056 37.5948 45.0925 36.804 46.6484 36.0719L48.5925 35.2139C51.1155 34.0001 54.6741 33.041 57.1122 36.0052C59.3387 38.8013 58.7896 42.6388 54.8963 45.7916C51.2079 48.7784 47.3921 48.8148 44.799 45.9384L47.3035 43.9104C48.9194 45.58 51.191 45.173 53.1263 43.6058C55.221 41.9096 55.8799 39.6042 54.5936 37.9693C53.4093 36.5533 51.5866 37.0492 49.4647 38.0135L47.0826 39.0754C43.8516 40.4855 41.1017 40.4881 39.2396 38.1886C36.9349 35.3426 37.9547 31.3879 41.2788 28.696C44.6257 25.9858 48.5195 25.9993 50.7449 28.6078L48.3088 30.5806Z" fill="white"/>
<path d="M61.9858 19.2191L60.9884 16.6208L76.3323 10.7308L77.3297 13.3292L71.1758 15.6915L77.7797 32.8952L74.7711 34.0501L68.1671 16.8464L61.9858 19.2191Z" fill="white"/>
<path d="M97.9757 7.90289L99.0858 29.0848L95.8676 29.2534L94.7575 8.07155L97.9757 7.90289Z" fill="white"/>
<path d="M120.899 10.6701L122.121 28.8621L122.347 28.9228L132.502 13.779L135.869 14.6813L122.993 33.1904L119.399 32.2274L117.532 9.76778L120.899 10.6701Z" fill="white"/>
<path d="M136.971 37.627L134.097 35.7602L152.037 22.1198L155.158 24.1462L150.018 46.0998L147.144 44.2329L148.57 38.4868L141.641 33.9872L136.971 37.627ZM143.895 32.2373L149.251 35.7158L151.553 26.4162L151.43 26.3364L143.895 32.2373Z" fill="white"/>
<path d="M156.237 52.4017L172.721 39.0533L174.75 41.5577L160.429 53.1547L166.457 60.5998L164.294 62.3513L156.237 52.4017Z" fill="white"/>
<path d="M192.306 104.166C194.256 103.858 195.306 102.072 195.179 99.6439C195.043 97.0401 193.64 95.4707 191.826 95.5658C189.808 95.6715 189.162 97.9057 188.84 99.5948L188.391 101.672C187.89 104.426 186.574 107.869 182.743 108.099C179.172 108.257 176.391 105.557 176.128 100.554C175.88 95.8147 178.093 92.7063 181.945 92.2992L182.113 95.5174C179.813 95.8433 178.807 97.9203 178.937 100.407C179.078 103.099 180.556 104.987 182.635 104.907C184.476 104.781 185.146 103.015 185.614 100.732L186.155 98.1806C186.913 94.7378 188.527 92.5116 191.482 92.3567C195.139 92.1651 197.739 95.3145 197.963 99.586C198.188 103.887 195.889 107.029 192.47 107.296L192.306 104.166Z" fill="white"/>
<path d="M192.837 120.525L195.525 121.245L191.271 137.121L188.583 136.4L190.289 130.033L172.489 125.264L173.323 122.151L191.123 126.92L192.837 120.525Z" fill="white"/>
<path d="M167.992 139.468L169.859 136.593L183.5 154.534L181.473 157.654L159.52 152.515L161.386 149.64L167.133 151.066L171.632 144.137L167.992 139.468ZM173.382 146.392L169.904 151.748L179.203 154.049L179.283 153.926L173.382 146.392Z" fill="white"/>
<path d="M170.719 171.854L167.669 174.325L152.111 165.774L151.907 165.94L157.036 182.935L153.985 185.406L140.637 168.922L143.027 166.986L152.67 178.893L152.829 178.764L148.032 162.971L150.013 161.367L164.505 169.347L164.641 169.237L154.98 157.306L157.371 155.37L170.719 171.854Z" fill="white"/>
<path d="M134.626 171.701L142.227 191.503L135.171 194.212C130.576 195.975 127.245 194.084 125.838 190.419C124.442 186.782 125.641 183.12 130.236 181.357L134.284 179.803L131.617 172.856L134.626 171.701ZM135.271 182.374L131.524 183.812C128.597 184.935 128.024 187.038 128.874 189.254C129.735 191.497 131.558 192.648 134.485 191.525L138.232 190.087L135.271 182.374Z" fill="white"/>
<path d="M85.0936 195.334L84.3732 198.022L68.4977 193.769L69.2181 191.08L75.5853 192.786L80.3547 174.986L83.4676 175.821L78.6981 193.62L85.0936 195.334Z" fill="white"/>
<path d="M47.1048 170.767C50.7907 165.091 56.4558 163.845 61.0505 166.829C65.6943 169.844 66.8352 175.511 63.1493 181.186C59.4475 186.887 53.8229 188.125 49.1791 185.109C44.5844 182.125 43.403 176.467 47.1048 170.767ZM49.783 172.506C46.9747 176.831 47.7439 180.649 50.7907 182.627C53.862 184.622 57.6629 183.772 60.4712 179.447C63.2795 175.123 62.5102 171.305 59.4389 169.31C56.3922 167.332 52.5913 168.182 49.783 172.506Z" fill="white"/>
<path d="M23.9762 161.129L21.9481 158.625L32.7856 149.849C36.2464 147.046 40.8071 147.651 43.9967 151.59C47.2232 155.574 46.8477 160.138 43.387 162.94L32.5494 171.716L30.5213 169.212L41.154 160.602C43.3852 158.795 43.748 155.938 41.72 153.433C39.7103 150.952 36.8401 150.712 34.6088 152.519L23.9762 161.129Z" fill="white"/>
<path d="M33.949 137.205L14.1469 144.806L11.4381 137.75C9.67429 133.155 11.3739 129.898 15.0115 128.501C17.6783 127.478 20.1642 127.904 21.977 129.97L28.311 122.517L29.6234 125.936L23.6999 132.823L23.7734 133.015L25.3273 137.063L32.7941 134.196L33.949 137.205ZM22.7289 138.06L21.2906 134.313C20.1672 131.386 18.4197 130.676 16.1769 131.537C13.9342 132.398 13.0012 134.137 14.1246 137.064L15.563 140.811L22.7289 138.06Z" fill="white"/>
</svg>
