<svg width="206" height="206" viewBox="0 0 206 206" fill="none" xmlns="http://www.w3.org/2000/svg">
<g filter="url(#filter0_d_2361_1981)">
<path d="M28.6043 90.4212L8.11611 84.9314L11.5207 72.2253L14.2091 72.9456L11.6386 82.5389L17.836 84.1994L20.1638 75.5118L22.8239 76.2245L20.496 84.9122L29.4384 87.3083L28.6043 90.4212Z" fill="#7200FF"/>
</g>
<g filter="url(#filter1_d_2361_1981)">
<path d="M35.0658 68.7448L17.2768 57.1925L24.5209 46.0376L26.8551 47.5534L21.3662 56.0056L26.7471 59.5L31.8531 51.6375L34.1627 53.1374L29.0567 60.9999L34.4868 64.5263L40.0396 55.9757L42.3738 57.4916L35.0658 68.7448Z" fill="#7200FF"/>
</g>
<g filter="url(#filter2_d_2361_1981)">
<path d="M48.3088 30.5801C46.9141 29.1837 44.8517 29.3835 42.962 30.9138C40.9357 32.5547 40.4903 34.6118 41.6334 36.0234C42.9056 37.5944 45.0925 36.8035 46.6484 36.0714L48.5925 35.2134C51.1155 33.9996 54.6741 33.0405 57.1122 36.0047C59.3387 38.8008 58.7896 42.6383 54.8963 45.7911C51.2079 48.7779 47.3921 48.8143 44.799 45.938L47.3035 43.9099C48.9194 45.5795 51.191 45.1725 53.1263 43.6053C55.221 41.9091 55.8799 39.6037 54.5936 37.9688C53.4093 36.5528 51.5866 37.0487 49.4647 38.013L47.0826 39.0749C43.8516 40.485 41.1017 40.4876 39.2396 38.1881C36.9349 35.3421 37.9547 31.3874 41.2788 28.6956C44.6257 25.9853 48.5195 25.9988 50.7449 28.6073L48.3088 30.5801Z" fill="#7200FF"/>
</g>
<g filter="url(#filter3_d_2361_1981)">
<path d="M61.9858 19.2187L60.9884 16.6203L76.3323 10.7303L77.3297 13.3287L71.1758 15.691L77.7797 32.8947L74.7711 34.0496L68.1671 16.8459L61.9858 19.2187Z" fill="#7200FF"/>
</g>
<g filter="url(#filter4_d_2361_1981)">
<path d="M97.9757 7.9024L99.0858 29.0843L95.8676 29.2529L94.7575 8.07107L97.9757 7.9024Z" fill="#7200FF"/>
</g>
<g filter="url(#filter5_d_2361_1981)">
<path d="M120.899 10.6696L122.121 28.8616L122.347 28.9223L132.502 13.7785L135.869 14.6808L122.993 33.1899L119.399 32.227L117.532 9.76729L120.899 10.6696Z" fill="#7200FF"/>
</g>
<g filter="url(#filter6_d_2361_1981)">
<path d="M136.971 37.6265L134.097 35.7597L152.037 22.1193L155.158 24.1457L150.018 46.0993L147.144 44.2324L148.57 38.4864L141.641 33.9867L136.971 37.6265ZM143.895 32.2368L149.251 35.7153L151.553 26.4157L151.43 26.3359L143.895 32.2368Z" fill="#7200FF"/>
</g>
<g filter="url(#filter7_d_2361_1981)">
<path d="M156.237 52.4013L172.721 39.0528L174.75 41.5573L160.429 53.1542L166.457 60.5993L164.294 62.3508L156.237 52.4013Z" fill="#7200FF"/>
</g>
<g filter="url(#filter8_d_2361_1981)">
<path d="M192.306 104.165C194.256 103.858 195.306 102.072 195.179 99.6434C195.043 97.0396 193.64 95.4702 191.826 95.5653C189.808 95.6711 189.162 97.9052 188.84 99.5943L188.391 101.671C187.89 104.426 186.574 107.869 182.743 108.099C179.172 108.257 176.391 105.557 176.128 100.554C175.88 95.8142 178.093 92.7059 181.945 92.2987L182.113 95.5169C179.813 95.8428 178.807 97.9198 178.937 100.407C179.078 103.098 180.556 104.986 182.635 104.907C184.476 104.781 185.146 103.015 185.614 100.731L186.155 98.1801C186.913 94.7373 188.527 92.5111 191.482 92.3562C195.139 92.1646 197.739 95.3141 197.963 99.5855C198.188 103.886 195.889 107.029 192.47 107.296L192.306 104.165Z" fill="#7200FF"/>
</g>
<g filter="url(#filter9_d_2361_1981)">
<path d="M192.837 120.524L195.525 121.245L191.271 137.12L188.583 136.4L190.289 130.033L172.489 125.263L173.323 122.15L191.123 126.92L192.837 120.524Z" fill="#7200FF"/>
</g>
<g filter="url(#filter10_d_2361_1981)">
<path d="M167.992 139.467L169.859 136.593L183.5 154.533L181.473 157.654L159.52 152.514L161.386 149.64L167.133 151.066L171.632 144.137L167.992 139.467ZM173.382 146.391L169.904 151.747L179.203 154.049L179.283 153.926L173.382 146.391Z" fill="#7200FF"/>
</g>
<g filter="url(#filter11_d_2361_1981)">
<path d="M170.719 171.854L167.669 174.324L152.111 165.774L151.907 165.94L157.036 182.934L153.985 185.405L140.637 168.921L143.027 166.985L152.67 178.893L152.829 178.764L148.032 162.97L150.013 161.366L164.505 169.347L164.641 169.236L154.98 157.306L157.371 155.37L170.719 171.854Z" fill="#7200FF"/>
</g>
<g filter="url(#filter12_d_2361_1981)">
<path d="M134.626 171.7L142.227 191.502L135.171 194.211C130.576 195.975 127.245 194.084 125.838 190.419C124.442 186.781 125.641 183.12 130.236 181.356L134.284 179.802L131.617 172.855L134.626 171.7ZM135.271 182.373L131.524 183.812C128.597 184.935 128.024 187.038 128.874 189.253C129.735 191.496 131.558 192.648 134.485 191.525L138.232 190.086L135.271 182.373Z" fill="#7200FF"/>
</g>
<g filter="url(#filter13_d_2361_1981)">
<path d="M85.0936 195.334L84.3732 198.022L68.4977 193.768L69.2181 191.08L75.5853 192.786L80.3547 174.986L83.4676 175.82L78.6981 193.62L85.0936 195.334Z" fill="#7200FF"/>
</g>
<g filter="url(#filter14_d_2361_1981)">
<path d="M47.1048 170.766C50.7907 165.091 56.4558 163.844 61.0505 166.828C65.6943 169.844 66.8352 175.51 63.1493 181.186C59.4475 186.886 53.8229 188.124 49.1791 185.108C44.5844 182.125 43.403 176.467 47.1048 170.766ZM49.783 172.506C46.9747 176.83 47.7439 180.648 50.7907 182.627C53.862 184.621 57.6629 183.771 60.4712 179.447C63.2795 175.122 62.5102 171.304 59.4389 169.31C56.3922 167.331 52.5913 168.181 49.783 172.506Z" fill="#7200FF"/>
</g>
<g filter="url(#filter15_d_2361_1981)">
<path d="M23.9762 161.129L21.9481 158.624L32.7856 149.848C36.2464 147.046 40.8071 147.65 43.9967 151.589C47.2232 155.573 46.8477 160.137 43.387 162.94L32.5494 171.716L30.5213 169.211L41.154 160.601C43.3852 158.795 43.748 155.937 41.72 153.433C39.7103 150.951 36.8401 150.712 34.6088 152.519L23.9762 161.129Z" fill="#7200FF"/>
</g>
<g filter="url(#filter16_d_2361_1981)">
<path d="M33.949 137.204L14.1469 144.806L11.4381 137.749C9.67429 133.154 11.3739 129.897 15.0115 128.501C17.6783 127.477 20.1642 127.904 21.977 129.969L28.311 122.517L29.6234 125.936L23.6999 132.823L23.7734 133.014L25.3273 137.062L32.7941 134.196L33.949 137.204ZM22.7289 138.059L21.2906 134.312C20.1672 131.386 18.4197 130.676 16.1769 131.537C13.9342 132.398 13.0012 134.137 14.1246 137.063L15.563 140.81L22.7289 138.059Z" fill="#7200FF"/>
</g>
<defs>
<filter id="filter0_d_2361_1981" x="4.61609" y="68.7251" width="30.8928" height="25.1963" filterUnits="userSpaceOnUse" color-interpolation-filters="sRGB">
<feFlood flood-opacity="0" result="BackgroundImageFix"/>
<feColorMatrix in="SourceAlpha" type="matrix" values="0 0 0 0 0 0 0 0 0 0 0 0 0 0 0 0 0 0 127 0" result="hardAlpha"/>
<feOffset/>
<feGaussianBlur stdDeviation="1.75"/>
<feColorMatrix type="matrix" values="0 0 0 0 0.447059 0 0 0 0 0 0 0 0 0 1 0 0 0 1 0"/>
<feBlend mode="normal" in2="BackgroundImageFix" result="effect1_dropShadow_2361_1981"/>
<feBlend mode="normal" in="SourceGraphic" in2="effect1_dropShadow_2361_1981" result="shape"/>
</filter>
<filter id="filter1_d_2361_1981" x="13.7769" y="42.4395" width="32.0969" height="29.8052" filterUnits="userSpaceOnUse" color-interpolation-filters="sRGB">
<feFlood flood-opacity="0" result="BackgroundImageFix"/>
<feColorMatrix in="SourceAlpha" type="matrix" values="0 0 0 0 0 0 0 0 0 0 0 0 0 0 0 0 0 0 127 0" result="hardAlpha"/>
<feOffset/>
<feGaussianBlur stdDeviation="1.75"/>
<feColorMatrix type="matrix" values="0 0 0 0 0.447059 0 0 0 0 0 0 0 0 0 1 0 0 0 1 0"/>
<feBlend mode="normal" in2="BackgroundImageFix" result="effect1_dropShadow_2361_1981"/>
<feBlend mode="normal" in="SourceGraphic" in2="effect1_dropShadow_2361_1981" result="shape"/>
</filter>
<filter id="filter2_d_2361_1981" x="31.472" y="20.3467" width="33.0488" height="33.9409" filterUnits="userSpaceOnUse" color-interpolation-filters="sRGB">
<feFlood flood-opacity="0" result="BackgroundImageFix"/>
<feColorMatrix in="SourceAlpha" type="matrix" values="0 0 0 0 0 0 0 0 0 0 0 0 0 0 0 0 0 0 127 0" result="hardAlpha"/>
<feOffset/>
<feGaussianBlur stdDeviation="1.75"/>
<feColorMatrix type="matrix" values="0 0 0 0 0.447059 0 0 0 0 0 0 0 0 0 1 0 0 0 1 0"/>
<feBlend mode="normal" in2="BackgroundImageFix" result="effect1_dropShadow_2361_1981"/>
<feBlend mode="normal" in="SourceGraphic" in2="effect1_dropShadow_2361_1981" result="shape"/>
</filter>
<filter id="filter3_d_2361_1981" x="57.4884" y="7.23047" width="29.9452" height="32.6919" filterUnits="userSpaceOnUse" color-interpolation-filters="sRGB">
<feFlood flood-opacity="0" result="BackgroundImageFix"/>
<feColorMatrix in="SourceAlpha" type="matrix" values="0 0 0 0 0 0 0 0 0 0 0 0 0 0 0 0 0 0 127 0" result="hardAlpha"/>
<feOffset/>
<feGaussianBlur stdDeviation="1.75"/>
<feColorMatrix type="matrix" values="0 0 0 0 0.447059 0 0 0 0 0 0 0 0 0 1 0 0 0 1 0"/>
<feBlend mode="normal" in2="BackgroundImageFix" result="effect1_dropShadow_2361_1981"/>
<feBlend mode="normal" in="SourceGraphic" in2="effect1_dropShadow_2361_1981" result="shape"/>
</filter>
<filter id="filter4_d_2361_1981" x="91.2574" y="4.40234" width="11.3284" height="28.3506" filterUnits="userSpaceOnUse" color-interpolation-filters="sRGB">
<feFlood flood-opacity="0" result="BackgroundImageFix"/>
<feColorMatrix in="SourceAlpha" type="matrix" values="0 0 0 0 0 0 0 0 0 0 0 0 0 0 0 0 0 0 127 0" result="hardAlpha"/>
<feOffset/>
<feGaussianBlur stdDeviation="1.75"/>
<feColorMatrix type="matrix" values="0 0 0 0 0.447059 0 0 0 0 0 0 0 0 0 1 0 0 0 1 0"/>
<feBlend mode="normal" in2="BackgroundImageFix" result="effect1_dropShadow_2361_1981"/>
<feBlend mode="normal" in="SourceGraphic" in2="effect1_dropShadow_2361_1981" result="shape"/>
</filter>
<filter id="filter5_d_2361_1981" x="108.542" y="6.26709" width="30.8274" height="32.4019" filterUnits="userSpaceOnUse" color-interpolation-filters="sRGB">
<feFlood flood-opacity="0" result="BackgroundImageFix"/>
<feColorMatrix in="SourceAlpha" type="matrix" values="0 0 0 0 0 0 0 0 0 0 0 0 0 0 0 0 0 0 127 0" result="hardAlpha"/>
<feOffset/>
<feGaussianBlur stdDeviation="1.75"/>
<feColorMatrix type="matrix" values="0 0 0 0 0.447059 0 0 0 0 0 0 0 0 0 1 0 0 0 1 0"/>
<feBlend mode="normal" in2="BackgroundImageFix" result="effect1_dropShadow_2361_1981"/>
<feBlend mode="normal" in="SourceGraphic" in2="effect1_dropShadow_2361_1981" result="shape"/>
</filter>
<filter id="filter6_d_2361_1981" x="130.597" y="14.4707" width="34.4739" height="35.1284" filterUnits="userSpaceOnUse" color-interpolation-filters="sRGB">
<feFlood flood-opacity="0" result="BackgroundImageFix"/>
<feColorMatrix in="SourceAlpha" type="matrix" values="0 0 0 0 0 0 0 0 0 0 0 0 0 0 0 0 0 0 127 0" result="hardAlpha"/>
<feOffset/>
<feGaussianBlur stdDeviation="1.75"/>
<feColorMatrix type="matrix" values="0 0 0 0 0.447059 0 0 0 0 0 0 0 0 0 1 0 0 0 1 0"/>
<feBlend mode="normal" in2="BackgroundImageFix" result="effect1_dropShadow_2361_1981"/>
<feBlend mode="normal" in="SourceGraphic" in2="effect1_dropShadow_2361_1981" result="shape"/>
</filter>
<filter id="filter7_d_2361_1981" x="152.737" y="35.5527" width="31.541" height="30.2983" filterUnits="userSpaceOnUse" color-interpolation-filters="sRGB">
<feFlood flood-opacity="0" result="BackgroundImageFix"/>
<feColorMatrix in="SourceAlpha" type="matrix" values="0 0 0 0 0 0 0 0 0 0 0 0 0 0 0 0 0 0 127 0" result="hardAlpha"/>
<feOffset/>
<feGaussianBlur stdDeviation="1.75"/>
<feColorMatrix type="matrix" values="0 0 0 0 0.447059 0 0 0 0 0 0 0 0 0 1 0 0 0 1 0"/>
<feBlend mode="normal" in2="BackgroundImageFix" result="effect1_dropShadow_2361_1981"/>
<feBlend mode="normal" in="SourceGraphic" in2="effect1_dropShadow_2361_1981" result="shape"/>
</filter>
<filter id="filter8_d_2361_1981" x="172.213" y="87.9814" width="29.6536" height="23.9424" filterUnits="userSpaceOnUse" color-interpolation-filters="sRGB">
<feFlood flood-opacity="0" result="BackgroundImageFix"/>
<feColorMatrix in="SourceAlpha" type="matrix" values="0 0 0 0 0 0 0 0 0 0 0 0 0 0 0 0 0 0 127 0" result="hardAlpha"/>
<feOffset/>
<feGaussianBlur stdDeviation="1.75"/>
<feColorMatrix type="matrix" values="0 0 0 0 0.447059 0 0 0 0 0 0 0 0 0 1 0 0 0 1 0"/>
<feBlend mode="normal" in2="BackgroundImageFix" result="effect1_dropShadow_2361_1981"/>
<feBlend mode="normal" in="SourceGraphic" in2="effect1_dropShadow_2361_1981" result="shape"/>
</filter>
<filter id="filter9_d_2361_1981" x="167.283" y="112.255" width="31.7421" height="28.3652" filterUnits="userSpaceOnUse" color-interpolation-filters="sRGB">
<feFlood flood-opacity="0" result="BackgroundImageFix"/>
<feColorMatrix in="SourceAlpha" type="matrix" values="0 0 0 0 0 0 0 0 0 0 0 0 0 0 0 0 0 0 127 0" result="hardAlpha"/>
<feOffset/>
<feGaussianBlur stdDeviation="1.75"/>
<feColorMatrix type="matrix" values="0 0 0 0 0.447059 0 0 0 0 0 0 0 0 0 1 0 0 0 1 0"/>
<feBlend mode="normal" in2="BackgroundImageFix" result="effect1_dropShadow_2361_1981"/>
<feBlend mode="normal" in="SourceGraphic" in2="effect1_dropShadow_2361_1981" result="shape"/>
</filter>
<filter id="filter10_d_2361_1981" x="156.02" y="133.093" width="35.1285" height="34.4741" filterUnits="userSpaceOnUse" color-interpolation-filters="sRGB">
<feFlood flood-opacity="0" result="BackgroundImageFix"/>
<feColorMatrix in="SourceAlpha" type="matrix" values="0 0 0 0 0 0 0 0 0 0 0 0 0 0 0 0 0 0 127 0" result="hardAlpha"/>
<feOffset/>
<feGaussianBlur stdDeviation="1.75"/>
<feColorMatrix type="matrix" values="0 0 0 0 0.447059 0 0 0 0 0 0 0 0 0 1 0 0 0 1 0"/>
<feBlend mode="normal" in2="BackgroundImageFix" result="effect1_dropShadow_2361_1981"/>
<feBlend mode="normal" in="SourceGraphic" in2="effect1_dropShadow_2361_1981" result="shape"/>
</filter>
<filter id="filter11_d_2361_1981" x="137.136" y="151.87" width="37.083" height="37.0356" filterUnits="userSpaceOnUse" color-interpolation-filters="sRGB">
<feFlood flood-opacity="0" result="BackgroundImageFix"/>
<feColorMatrix in="SourceAlpha" type="matrix" values="0 0 0 0 0 0 0 0 0 0 0 0 0 0 0 0 0 0 127 0" result="hardAlpha"/>
<feOffset/>
<feGaussianBlur stdDeviation="1.75"/>
<feColorMatrix type="matrix" values="0 0 0 0 0.447059 0 0 0 0 0 0 0 0 0 1 0 0 0 1 0"/>
<feBlend mode="normal" in2="BackgroundImageFix" result="effect1_dropShadow_2361_1981"/>
<feBlend mode="normal" in="SourceGraphic" in2="effect1_dropShadow_2361_1981" result="shape"/>
</filter>
<filter id="filter12_d_2361_1981" x="117.204" y="168.2" width="28.5229" height="32.146" filterUnits="userSpaceOnUse" color-interpolation-filters="sRGB">
<feFlood flood-opacity="0" result="BackgroundImageFix"/>
<feColorMatrix in="SourceAlpha" type="matrix" values="0 0 0 0 0 0 0 0 0 0 0 0 0 0 0 0 0 0 127 0" result="hardAlpha"/>
<feOffset/>
<feGaussianBlur stdDeviation="1.75"/>
<feColorMatrix type="matrix" values="0 0 0 0 0.447059 0 0 0 0 0 0 0 0 0 1 0 0 0 1 0"/>
<feBlend mode="normal" in2="BackgroundImageFix" result="effect1_dropShadow_2361_1981"/>
<feBlend mode="normal" in="SourceGraphic" in2="effect1_dropShadow_2361_1981" result="shape"/>
</filter>
<filter id="filter13_d_2361_1981" x="64.9977" y="169.78" width="28.3654" height="31.7422" filterUnits="userSpaceOnUse" color-interpolation-filters="sRGB">
<feFlood flood-opacity="0" result="BackgroundImageFix"/>
<feColorMatrix in="SourceAlpha" type="matrix" values="0 0 0 0 0 0 0 0 0 0 0 0 0 0 0 0 0 0 127 0" result="hardAlpha"/>
<feOffset/>
<feGaussianBlur stdDeviation="1.75"/>
<feColorMatrix type="matrix" values="0 0 0 0 0.447059 0 0 0 0 0 0 0 0 0 1 0 0 0 1 0"/>
<feBlend mode="normal" in2="BackgroundImageFix" result="effect1_dropShadow_2361_1981"/>
<feBlend mode="normal" in="SourceGraphic" in2="effect1_dropShadow_2361_1981" result="shape"/>
</filter>
<filter id="filter14_d_2361_1981" x="37.6691" y="158.126" width="34.916" height="35.6997" filterUnits="userSpaceOnUse" color-interpolation-filters="sRGB">
<feFlood flood-opacity="0" result="BackgroundImageFix"/>
<feColorMatrix in="SourceAlpha" type="matrix" values="0 0 0 0 0 0 0 0 0 0 0 0 0 0 0 0 0 0 127 0" result="hardAlpha"/>
<feOffset/>
<feGaussianBlur stdDeviation="1.75"/>
<feColorMatrix type="matrix" values="0 0 0 0 0.447059 0 0 0 0 0 0 0 0 0 1 0 0 0 1 0"/>
<feBlend mode="normal" in2="BackgroundImageFix" result="effect1_dropShadow_2361_1981"/>
<feBlend mode="normal" in="SourceGraphic" in2="effect1_dropShadow_2361_1981" result="shape"/>
</filter>
<filter id="filter15_d_2361_1981" x="18.4481" y="141.555" width="34.3585" height="33.6611" filterUnits="userSpaceOnUse" color-interpolation-filters="sRGB">
<feFlood flood-opacity="0" result="BackgroundImageFix"/>
<feColorMatrix in="SourceAlpha" type="matrix" values="0 0 0 0 0 0 0 0 0 0 0 0 0 0 0 0 0 0 127 0" result="hardAlpha"/>
<feOffset/>
<feGaussianBlur stdDeviation="1.75"/>
<feColorMatrix type="matrix" values="0 0 0 0 0.447059 0 0 0 0 0 0 0 0 0 1 0 0 0 1 0"/>
<feBlend mode="normal" in2="BackgroundImageFix" result="effect1_dropShadow_2361_1981"/>
<feBlend mode="normal" in="SourceGraphic" in2="effect1_dropShadow_2361_1981" result="shape"/>
</filter>
<filter id="filter16_d_2361_1981" x="5.00891" y="119.017" width="32.4401" height="29.2886" filterUnits="userSpaceOnUse" color-interpolation-filters="sRGB">
<feFlood flood-opacity="0" result="BackgroundImageFix"/>
<feColorMatrix in="SourceAlpha" type="matrix" values="0 0 0 0 0 0 0 0 0 0 0 0 0 0 0 0 0 0 127 0" result="hardAlpha"/>
<feOffset/>
<feGaussianBlur stdDeviation="1.75"/>
<feColorMatrix type="matrix" values="0 0 0 0 0.447059 0 0 0 0 0 0 0 0 0 1 0 0 0 1 0"/>
<feBlend mode="normal" in2="BackgroundImageFix" result="effect1_dropShadow_2361_1981"/>
<feBlend mode="normal" in="SourceGraphic" in2="effect1_dropShadow_2361_1981" result="shape"/>
</filter>
</defs>
</svg>
