<svg width="15" height="14" viewBox="0 0 15 14" fill="none" xmlns="http://www.w3.org/2000/svg">
<path d="M14 10.3889L11.6217 8.01061C11.4863 7.87522 11.3026 7.79915 11.1111 7.79915C10.9196 7.79915 10.7359 7.87522 10.6005 8.01061L10.1773 8.43383C10.0418 8.56923 9.85817 8.64529 9.66667 8.64529C9.47516 8.64529 9.29149 8.56923 9.15606 8.43383L7.07678 6.35456C6.8059 6.08376 6.43857 5.93164 6.05556 5.93164C5.67254 5.93164 5.30521 6.08376 5.03433 6.35456L1 10.3889M14 1.72222V11.8333C14 12.0249 13.9239 12.2086 13.7885 12.344C13.653 12.4795 13.4693 12.5556 13.2778 12.5556H1.72222C1.53068 12.5556 1.34698 12.4795 1.21153 12.344C1.07609 12.2086 1 12.0249 1 11.8333V1.72222C1 1.53068 1.07609 1.34698 1.21153 1.21153C1.34698 1.07609 1.53068 1 1.72222 1H13.2778C13.4693 1 13.653 1.07609 13.7885 1.21153C13.9239 1.34698 14 1.53068 14 1.72222ZM10.3889 3.88889C10.3889 4.08043 10.3128 4.26413 10.1774 4.39958C10.0419 4.53502 9.85821 4.61111 9.66667 4.61111C9.47512 4.61111 9.29142 4.53502 9.15598 4.39958C9.02054 4.26413 8.94444 4.08043 8.94444 3.88889C8.94444 3.69734 9.02054 3.51364 9.15598 3.3782C9.29142 3.24276 9.47512 3.16667 9.66667 3.16667C9.85821 3.16667 10.0419 3.24276 10.1774 3.3782C10.3128 3.51364 10.3889 3.69734 10.3889 3.88889Z" stroke="black" stroke-width="1.4" stroke-linecap="round" stroke-linejoin="round"/>
</svg>
