<svg width="17" height="19" viewBox="0 0 17 19" fill="none" xmlns="http://www.w3.org/2000/svg">
<path d="M0.584657 0.0835898C0.681158 0.0283878 0.79049 -0.000439625 0.901663 5.06801e-06C1.01284 0.000449761 1.12193 0.0301509 1.21799 0.0861231L11.1525 5.88112L8.07826 8.64752L0.266724 1.61752V0.633323C0.266632 0.521814 0.295983 0.412257 0.35181 0.315728C0.407636 0.219199 0.487959 0.139121 0.584657 0.0835898ZM0.266724 3.32246V15.6775L7.13206 9.49999L0.266724 3.32246ZM0.266724 17.3825V18.3667C0.266691 18.4781 0.296062 18.5876 0.35187 18.684C0.407679 18.7805 0.48795 18.8605 0.584578 18.916C0.681206 18.9715 0.79077 19.0006 0.902207 19.0002C1.01364 18.9998 1.12301 18.97 1.21926 18.9139L11.1525 13.1189L8.07826 10.3525L0.266724 17.3825ZM12.3013 12.4488L16.418 10.0472C16.5137 9.99143 16.5931 9.91156 16.6482 9.81555C16.7034 9.71953 16.7324 9.61073 16.7324 9.49999C16.7324 9.38925 16.7034 9.28045 16.6482 9.18443C16.5931 9.08842 16.5137 9.00855 16.418 8.95279L12.3013 6.55119L9.02446 9.49999L12.3013 12.4488Z" fill="white"/>
</svg>
