<svg width="19" height="17" viewBox="0 0 19 17" fill="none" xmlns="http://www.w3.org/2000/svg">
<path d="M17.1369 0.788086C17.8464 0.788086 18.4221 1.36127 18.4221 2.06683V14.9314C18.4221 15.6383 17.8464 16.2102 17.1369 16.2102C16.4275 16.2102 15.8518 15.637 15.8518 14.9314V2.06683C15.8518 1.35999 16.4275 0.788086 17.1369 0.788086ZM11.9963 4.64361C12.3371 4.64361 12.664 4.77901 12.905 5.02003C13.146 5.26104 13.2814 5.58793 13.2814 5.92878V14.925C13.2814 15.2658 13.146 15.5927 12.905 15.8338C12.664 16.0748 12.3371 16.2102 11.9963 16.2102C11.6554 16.2102 11.3285 16.0748 11.0875 15.8338C10.8465 15.5927 10.7111 15.2658 10.7111 14.925V5.92878C10.7111 5.58793 10.8465 5.26104 11.0875 5.02003C11.3285 4.77901 11.6554 4.64361 11.9963 4.64361ZM6.85556 8.49913C7.56497 8.49913 8.14073 9.07103 8.14073 9.77659V14.9327C8.14073 15.6383 7.56497 16.2102 6.85556 16.2102C6.14614 16.2102 5.57038 15.6383 5.57038 14.9327V9.77659C5.57089 9.60832 5.60453 9.44181 5.66939 9.28654C5.73425 9.13128 5.82906 8.99031 5.9484 8.87169C6.06774 8.75307 6.20927 8.65911 6.36492 8.59519C6.52057 8.53126 6.68729 8.49862 6.85556 8.49913ZM1.71486 12.3546C2.42428 12.3546 3.00003 12.9201 3.00003 13.6193V14.9456C2.99903 15.1131 2.96495 15.2788 2.89975 15.4331C2.83456 15.5874 2.73953 15.7273 2.62012 15.8448C2.50071 15.9623 2.35927 16.0551 2.20393 16.1178C2.04858 16.1805 1.88238 16.2119 1.71486 16.2102C1.00545 16.2102 0.429688 15.6447 0.429688 14.9456V13.6193C0.430694 13.4517 0.464773 13.2861 0.529969 13.1317C0.595165 12.9774 0.690195 12.8375 0.809603 12.72C0.929012 12.6025 1.07045 12.5098 1.2258 12.4471C1.38115 12.3844 1.54735 12.353 1.71486 12.3546Z" fill="black"/>
</svg>
