<svg width="14" height="11" viewBox="0 0 14 11" fill="none" xmlns="http://www.w3.org/2000/svg">
<path d="M4.78796 7.94453L12.4609 0.271608C12.642 0.0905362 12.8532 0 13.0946 0C13.3361 0 13.5473 0.0905362 13.7284 0.271608C13.9095 0.45268 14 0.667854 14 0.91713C14 1.16641 13.9095 1.38128 13.7284 1.56175L5.42171 9.89106C5.24064 10.0721 5.02939 10.1627 4.78796 10.1627C4.54653 10.1627 4.33528 10.0721 4.15421 9.89106L0.261162 5.99801C0.0800896 5.81694 -0.00682502 5.60207 0.000417858 5.35339C0.00766074 5.10472 0.10212 4.88955 0.283795 4.70787C0.465471 4.5262 0.680645 4.43566 0.929317 4.43626C1.17799 4.43687 1.39286 4.5274 1.57393 4.70787L4.78796 7.94453Z" fill="white"/>
</svg>
