<svg width="50" height="50" viewBox="0 0 50 50" fill="none" xmlns="http://www.w3.org/2000/svg">
<circle cx="25" cy="25" r="25" fill="#E5E5EA"/>
<path d="M25 25C23.4875 25 22.1927 24.4615 21.1156 23.3844C20.0385 22.3073 19.5 21.0125 19.5 19.5C19.5 17.9875 20.0385 16.6927 21.1156 15.6156C22.1927 14.5385 23.4875 14 25 14C26.5125 14 27.8073 14.5385 28.8844 15.6156C29.9615 16.6927 30.5 17.9875 30.5 19.5C30.5 21.0125 29.9615 22.3073 28.8844 23.3844C27.8073 24.4615 26.5125 25 25 25ZM14 33.25V32.15C14 31.3708 14.2008 30.6549 14.6023 30.0022C15.0038 29.3496 15.5363 28.8509 16.2 28.5062C17.6208 27.7958 19.0646 27.2632 20.5312 26.9085C21.9979 26.5537 23.4875 26.3759 25 26.375C26.5125 26.3741 28.0021 26.5519 29.4687 26.9085C30.9354 27.2651 32.3792 27.7977 33.8 28.5062C34.4646 28.85 34.9976 29.3487 35.3991 30.0022C35.8006 30.6558 36.0009 31.3717 36 32.15V33.25C36 34.0062 35.731 34.6539 35.1929 35.1929C34.6548 35.7319 34.0072 36.0009 33.25 36H16.75C15.9937 36 15.3466 35.731 14.8085 35.1929C14.2704 34.6548 14.0009 34.0072 14 33.25Z" fill="#C7C7CC"/>
</svg>
