<svg width="10" height="9" viewBox="0 0 10 9" fill="none" xmlns="http://www.w3.org/2000/svg">
<path d="M1.26901 6.80211L1.32147 6.65941L1.2189 6.54719C0.610485 5.88148 0.251296 5.06394 0.251296 4.17857C0.251296 2.04851 2.33348 0.25 5.00065 0.25C7.66781 0.25 9.75 2.04851 9.75 4.17857C9.75 6.30863 7.66781 8.10714 5.00065 8.10714C4.38748 8.10714 3.80414 8.00717 3.26347 7.83203L3.14226 7.79277L3.03926 7.86777C2.49473 8.26432 1.59866 8.75 0.469985 8.75C0.385918 8.75 0.305219 8.69843 0.268915 8.61194C0.232599 8.52543 0.249715 8.42575 0.310363 8.3577L0.312839 8.35513L0.321859 8.34535C0.328193 8.33838 0.336427 8.32914 0.346285 8.31786C0.36607 8.29522 0.393334 8.26328 0.426302 8.22309C0.492205 8.14275 0.581638 8.02857 0.680092 7.88908C0.875677 7.61198 1.11308 7.22629 1.26901 6.80211ZM3.39205 7.38745L3.39226 7.38752C3.91117 7.55631 4.45282 7.64286 5.00065 7.64286C7.32098 7.64286 9.31262 6.13987 9.31262 4.17857C9.31262 2.21727 7.32098 0.714286 5.00065 0.714286C2.68032 0.714286 0.688675 2.21727 0.688675 4.17857C0.688675 5.11301 1.15568 5.81146 1.53117 6.22334L1.53181 6.22403L1.83105 6.5498L1.67664 6.97088C1.67662 6.97095 1.67659 6.97102 1.67656 6.97109C1.57558 7.24492 1.44416 7.50449 1.30693 7.73848L0.971178 8.31099L1.6012 8.10227C2.0923 7.93958 2.49791 7.69861 2.79243 7.48462L2.79262 7.48448L3.07017 7.28242L3.39205 7.38745Z" fill="black" stroke="#B4B4B4" stroke-width="0.5"/>
</svg>
