<svg width="72" height="72" viewBox="0 0 72 72" fill="none" xmlns="http://www.w3.org/2000/svg">
<path fill-rule="evenodd" clip-rule="evenodd" d="M6.54545 6.54545V19.6364H19.6364V6.54545H6.54545ZM1.30909 0C0.5861 0 0 0.5861 0 1.30909V24.8727C0 25.5957 0.5861 26.1818 1.30909 26.1818H24.8727C25.5957 26.1818 26.1818 25.5957 26.1818 24.8727V1.30909C26.1818 0.5861 25.5957 0 24.8727 0H1.30909Z" fill="white"/>
<path fill-rule="evenodd" clip-rule="evenodd" d="M6.54545 52.3636V64.7999H18.9818V52.3636H6.54545ZM1.30909 45.8181C0.5861 45.8181 0 46.4042 0 47.1272V70.0363C0 70.7593 0.5861 71.3454 1.30909 71.3454H24.2182C24.9412 71.3454 25.5273 70.7593 25.5273 70.0363V47.1272C25.5273 46.4042 24.9412 45.8181 24.2182 45.8181H1.30909Z" fill="white"/>
<path fill-rule="evenodd" clip-rule="evenodd" d="M52.3636 6.54545V19.6364H65.4545V6.54545H52.3636ZM47.1272 0C46.4042 0 45.8181 0.5861 45.8181 1.30909V24.8727C45.8181 25.5957 46.4042 26.1818 47.1272 26.1818H70.6908C71.4138 26.1818 71.9999 25.5957 71.9999 24.8727V1.30909C71.9999 0.5861 71.4138 0 70.6908 0H47.1272Z" fill="white"/>
<path d="M32.7273 1.30909C32.7273 0.5861 33.3134 0 34.0364 0H37.9637C38.6866 0 39.2727 0.5861 39.2727 1.30909V24.8727C39.2727 25.5957 38.6866 26.1818 37.9637 26.1818H34.0364C33.3134 26.1818 32.7273 25.5957 32.7273 24.8727V1.30909Z" fill="white"/>
<path d="M32.7273 34.0364C32.7273 33.3134 33.3134 32.7273 34.0364 32.7273H44.5091C45.2321 32.7273 45.8182 33.3134 45.8182 34.0364V37.9637C45.8182 38.6866 45.2321 39.2727 44.5091 39.2727H34.0364C33.3134 39.2727 32.7273 38.6866 32.7273 37.9637V34.0364Z" fill="white"/>
<path d="M32.7273 66.1091C32.7273 65.3861 33.3134 64.8 34.0364 64.8H46.4727C47.1957 64.8 47.7818 65.3861 47.7818 66.1091V70.0364C47.7818 70.7594 47.1957 71.3455 46.4727 71.3455H34.0364C33.3134 71.3455 32.7273 70.7594 32.7273 70.0364V66.1091Z" fill="white"/>
<path d="M52.3635 47.1272C52.3635 46.4042 52.9496 45.8181 53.6726 45.8181H70.6908C71.4138 45.8181 71.9999 46.4042 71.9999 47.1272V51.0545C71.9999 51.7775 71.4138 52.3636 70.6908 52.3636H53.6726C52.9496 52.3636 52.3635 51.7775 52.3635 51.0545V47.1272Z" fill="white"/>
<path d="M70.6909 49.0908C71.4139 49.0908 72 49.6769 72 50.3999L72 70.0363C72 70.7593 71.4139 71.3454 70.6909 71.3454L66.7636 71.3454C66.0406 71.3454 65.4545 70.7593 65.4545 70.0363L65.4545 50.3999C65.4545 49.6769 66.0406 49.0908 66.7636 49.0908L70.6909 49.0908Z" fill="white"/>
<path d="M59.5637 60.2183C60.2867 60.2183 60.8728 60.8044 60.8728 61.5274L60.8728 70.0364C60.8728 70.7594 60.2867 71.3455 59.5637 71.3455L55.6364 71.3455C54.9134 71.3455 54.3273 70.7594 54.3273 70.0364L54.3273 61.5274C54.3273 60.8044 54.9134 60.2183 55.6364 60.2183L59.5637 60.2183Z" fill="white"/>
<path d="M32.7273 48.4363C32.7273 47.7133 33.3134 47.1272 34.0364 47.1272H43.2C43.923 47.1272 44.5091 47.7133 44.5091 48.4363V56.9454C44.5091 57.6684 43.923 58.2545 43.2 58.2545H34.0364C33.3134 58.2545 32.7273 57.6684 32.7273 56.9454V48.4363Z" fill="white"/>
<path d="M54.9819 34.0364C54.9819 33.3134 55.568 32.7273 56.291 32.7273H70.691C71.414 32.7273 72.0001 33.3134 72.0001 34.0364V37.9637C72.0001 38.6866 71.414 39.2727 70.691 39.2727H56.291C55.568 39.2727 54.9819 38.6866 54.9819 37.9637V34.0364Z" fill="white"/>
<path d="M1.30909 39.2727C0.5861 39.2727 -2.56192e-08 38.6866 -5.72222e-08 37.9636L-2.28889e-07 34.0363C-2.60492e-07 33.3134 0.5861 32.7273 1.30909 32.7273L24.8727 32.7272C25.5957 32.7272 26.1818 33.3133 26.1818 34.0363L26.1818 37.9636C26.1818 38.6866 25.5957 39.2727 24.8727 39.2727L1.30909 39.2727Z" fill="white"/>
</svg>
