<svg width="49" height="48" viewBox="0 0 49 48" fill="none" xmlns="http://www.w3.org/2000/svg">
<ellipse cx="24.5" cy="24" rx="24.5" ry="24" fill="#7200FF" fill-opacity="0.3"/>
<path d="M24.1022 12C23.5068 12 22.9622 12.5061 23.0021 13.1002L23.5521 27.9523C23.5521 28.0982 23.6101 28.2381 23.7133 28.3412C23.8164 28.4444 23.9563 28.5024 24.1022 28.5024C24.2481 28.5024 24.388 28.4444 24.4912 28.3412C24.5943 28.2381 24.6523 28.0982 24.6523 27.9523L25.2024 13.1002C25.2423 12.5061 24.6977 12 24.1022 12Z" fill="#7200FF" stroke="#7200FF" stroke-width="3" stroke-linecap="round" stroke-linejoin="round"/>
<path d="M24.1021 36.2032C24.7097 36.2032 25.2023 35.7107 25.2023 35.1031C25.2023 34.4955 24.7097 34.0029 24.1021 34.0029C23.4945 34.0029 23.002 34.4955 23.002 35.1031C23.002 35.7107 23.4945 36.2032 24.1021 36.2032Z" fill="#7200FF" stroke="#7200FF" stroke-width="3" stroke-linecap="round" stroke-linejoin="round"/>
</svg>
