<svg width="107" height="90" viewBox="0 0 107 90" fill="none" xmlns="http://www.w3.org/2000/svg">
<mask id="mask0_2396_359" style="mask-type:alpha" maskUnits="userSpaceOnUse" x="0" y="42" width="63" height="48">
<rect y="42.353" width="62.4706" height="47.6471" fill="#D9D9D9"/>
</mask>
<g mask="url(#mask0_2396_359)">
<path fill-rule="evenodd" clip-rule="evenodd" d="M3.78955 45.8629C6.19772 43.6042 9.44151 42.353 12.8024 42.353H49.708C53.0689 42.353 56.3127 43.6042 58.7208 45.8629C61.1328 48.1252 62.5104 51.218 62.5104 54.4682V130.621C62.5104 133.871 61.1328 136.964 58.7208 139.226C56.3127 141.485 53.0689 142.736 49.708 142.736H12.8024C9.44151 142.736 6.19772 141.485 3.78955 139.226C1.37762 136.964 0 133.871 0 130.621V54.4682C0 51.218 1.37762 48.1252 3.78955 45.8629ZM12.8024 45.8145C10.2905 45.8145 7.90208 46.7515 6.15758 48.3877C4.41683 50.0204 3.46149 52.2102 3.46149 54.4682V130.621C3.46149 132.879 4.41683 135.069 6.15758 136.702C7.90209 138.338 10.2905 139.275 12.8024 139.275H49.708C52.2199 139.275 54.6083 138.338 56.3528 136.702C58.0936 135.069 59.0489 132.879 59.0489 130.621V54.4682C59.0489 52.2102 58.0936 50.0204 56.3528 48.3877C54.6083 46.7515 52.2199 45.8145 49.708 45.8145H40.3671V51.0067C40.3671 51.9626 39.5922 52.7375 38.6363 52.7375H23.8741C22.9182 52.7375 22.1433 51.9626 22.1433 51.0067V45.8145H12.8024ZM25.6048 45.8145V49.276H36.9056V45.8145H25.6048Z" fill="white"/>
<path d="M24.1287 44.4912H37.9746V50.5997H24.1287V44.4912Z" fill="white"/>
</g>
<path fill-rule="evenodd" clip-rule="evenodd" d="M66.4728 4.00235V12.0071H74.4775V4.00235H66.4728ZM63.2709 0C62.8288 0 62.4705 0.358383 62.4705 0.800471V15.2089C62.4705 15.651 62.8288 16.0094 63.2709 16.0094H77.6794C78.1215 16.0094 78.4799 15.651 78.4799 15.2089V0.800471C78.4799 0.358383 78.1215 0 77.6794 0H63.2709Z" fill="white"/>
<path fill-rule="evenodd" clip-rule="evenodd" d="M66.5754 32.5659V40.3654H74.3749V32.5659H66.5754ZM63.2915 28.4609C62.838 28.4609 62.4705 28.8285 62.4705 29.2819V43.6494C62.4705 44.1028 62.838 44.4703 63.2915 44.4703H77.6589C78.1123 44.4703 78.4799 44.1028 78.4799 43.6494V29.2819C78.4799 28.8285 78.1123 28.4609 77.6589 28.4609H63.2915Z" fill="white"/>
<path fill-rule="evenodd" clip-rule="evenodd" d="M94.934 4.00235V12.0071H102.939V4.00235H94.934ZM91.7321 0C91.29 0 90.9316 0.358383 90.9316 0.800471V15.2089C90.9316 15.651 91.29 16.0094 91.7321 16.0094H106.141C106.583 16.0094 106.941 15.651 106.941 15.2089V0.800471C106.941 0.358383 106.583 0 106.141 0H91.7321Z" fill="white"/>
<path d="M82.927 0.800471C82.927 0.358383 83.3252 0 83.8164 0H86.4846C86.9759 0 87.3741 0.358383 87.3741 0.800471V15.2089C87.3741 15.651 86.9759 16.0094 86.4846 16.0094H83.8164C83.3252 16.0094 82.927 15.651 82.927 15.2089V0.800471Z" fill="white"/>
<path d="M82.927 21.346C82.927 20.8547 83.2854 20.4565 83.7275 20.4565H90.1312C90.5733 20.4565 90.9317 20.8547 90.9317 21.346V24.0142C90.9317 24.5054 90.5733 24.9036 90.1312 24.9036H83.7275C83.2854 24.9036 82.927 24.5054 82.927 24.0142V21.346Z" fill="white"/>
<path d="M82.927 40.9128C82.927 40.4216 83.2733 40.0234 83.7004 40.0234H91.0477C91.4749 40.0234 91.8211 40.4216 91.8211 40.9128V43.5811C91.8211 44.0723 91.4749 44.4705 91.0477 44.4705H83.7004C83.2733 44.4705 82.927 44.0723 82.927 43.5811V40.9128Z" fill="white"/>
<path d="M95.3789 29.3503C95.3789 28.8591 95.724 28.4609 96.1497 28.4609H106.17C106.596 28.4609 106.941 28.8591 106.941 29.3503V32.0186C106.941 32.5098 106.596 32.908 106.17 32.908H96.1497C95.724 32.908 95.3789 32.5098 95.3789 32.0186V29.3503Z" fill="white"/>
<path d="M106.23 30.2402C106.623 30.2402 106.941 30.615 106.941 31.0773L106.941 43.6337C106.941 44.096 106.623 44.4708 106.23 44.4708L104.095 44.4708C103.702 44.4708 103.384 44.096 103.384 43.6337L103.384 31.0773C103.384 30.615 103.702 30.2402 104.095 30.2402L106.23 30.2402Z" fill="white"/>
<path d="M99.8259 37.3555C100.317 37.3555 100.715 37.7302 100.715 38.1926L100.715 43.6337C100.715 44.096 100.317 44.4708 99.8259 44.4708L97.1577 44.4708C96.6665 44.4708 96.2683 44.096 96.2683 43.6337L96.2683 38.1926C96.2683 37.7302 96.6665 37.3555 97.1577 37.3555L99.8259 37.3555Z" fill="white"/>
<path d="M82.927 30.1877C82.927 29.7254 83.281 29.3506 83.7176 29.3506H89.2517C89.6883 29.3506 90.0423 29.7254 90.0423 30.1877V35.6288C90.0423 36.0911 89.6883 36.4659 89.2517 36.4659H83.7176C83.281 36.4659 82.927 36.0911 82.927 35.6288V30.1877Z" fill="white"/>
<path d="M97.1577 21.346C97.1577 20.8547 97.4947 20.4565 97.9103 20.4565H106.189C106.604 20.4565 106.941 20.8547 106.941 21.346V24.0142C106.941 24.5054 106.604 24.9036 106.189 24.9036H97.9103C97.4947 24.9036 97.1577 24.5054 97.1577 24.0142V21.346Z" fill="white"/>
<path d="M63.2709 24.9033C62.8288 24.9033 62.4705 24.5051 62.4705 24.0139L62.4705 21.3457C62.4705 20.8545 62.8288 20.4563 63.2709 20.4563L77.6794 20.4563C78.1215 20.4563 78.4799 20.8545 78.4799 21.3457L78.4799 24.0139C78.4799 24.5051 78.1215 24.9033 77.6794 24.9033L63.2709 24.9033Z" fill="white"/>
<path d="M23.2942 64.5884H26.4706L28.5883 62.4707H34.9412L37.0589 64.5884H40.2353C40.797 64.5884 41.3356 64.8115 41.7327 65.2086C42.1299 65.6057 42.353 66.1444 42.353 66.706V79.4119C42.353 79.9735 42.1299 80.5121 41.7327 80.9093C41.3356 81.3064 40.797 81.5295 40.2353 81.5295H23.2942C22.7325 81.5295 22.1939 81.3064 21.7968 80.9093C21.3996 80.5121 21.1765 79.9735 21.1765 79.4119V66.706C21.1765 66.1444 21.3996 65.6057 21.7968 65.2086C22.1939 64.8115 22.7325 64.5884 23.2942 64.5884ZM31.7647 67.7648C30.3607 67.7648 29.0141 68.3226 28.0212 69.3154C27.0284 70.3083 26.4706 71.6549 26.4706 73.0589C26.4706 74.463 27.0284 75.8096 28.0212 76.8024C29.0141 77.7953 30.3607 78.3531 31.7647 78.3531C33.1688 78.3531 34.5154 77.7953 35.5083 76.8024C36.5011 75.8096 37.0589 74.463 37.0589 73.0589C37.0589 71.6549 36.5011 70.3083 35.5083 69.3154C34.5154 68.3226 33.1688 67.7648 31.7647 67.7648ZM31.7647 69.8825C32.6072 69.8825 33.4151 70.2171 34.0109 70.8128C34.6066 71.4085 34.9412 72.2165 34.9412 73.0589C34.9412 73.9014 34.6066 74.7093 34.0109 75.305C33.4151 75.9007 32.6072 76.2354 31.7647 76.2354C30.9223 76.2354 30.1143 75.9007 29.5186 75.305C28.9229 74.7093 28.5883 73.9014 28.5883 73.0589C28.5883 72.2165 28.9229 71.4085 29.5186 70.8128C30.1143 70.2171 30.9223 69.8825 31.7647 69.8825Z" fill="#7200FF"/>
</svg>
