<svg width="19" height="20" viewBox="0 0 19 20" fill="none" xmlns="http://www.w3.org/2000/svg">
<path d="M12.6244 18.9904C13.6434 17.2254 13.5135 15.0743 12.4863 13.2295L16.0263 7.09808L16.4593 7.34808C16.8038 7.54699 17.2133 7.60089 17.5975 7.49793C17.9818 7.39496 18.3094 7.14356 18.5083 6.79904C18.7072 6.45451 18.7611 6.04508 18.6582 5.66081C18.5552 5.27654 18.3038 4.94891 17.9593 4.75L10.1651 0.25C9.82054 0.0510876 9.4111 -0.00281529 9.02683 0.100149C8.64257 0.203114 8.31494 0.454512 8.11603 0.799038C7.91711 1.14356 7.86321 1.553 7.96617 1.93727C8.06914 2.32154 8.32054 2.64916 8.66506 2.84808L9.09808 3.09808L5.55808 9.22954C3.44684 9.26231 1.519 10.2254 0.5 11.9904L5.69615 14.9904L3.69615 18.4545C3.42115 18.9308 3.58586 19.5455 4.06218 19.8205C4.53849 20.0955 5.1532 19.9308 5.4282 19.4545L7.4282 15.9904L12.6244 18.9904Z" fill="#7200FF"/>
</svg>
