<svg width="36" height="36" viewBox="0 0 36 36" fill="none" xmlns="http://www.w3.org/2000/svg">
<path fill-rule="evenodd" clip-rule="evenodd" d="M18 2.51163C9.44601 2.51163 2.51163 9.44601 2.51163 18C2.51163 26.554 9.44601 33.4884 18 33.4884C26.554 33.4884 33.4884 26.554 33.4884 18C33.4884 9.44601 26.554 2.51163 18 2.51163ZM0 18C0 8.05887 8.05887 0 18 0C27.9411 0 36 8.05887 36 18C36 27.9411 27.9411 36 18 36C8.05887 36 0 27.9411 0 18Z" fill="#E5E5EA"/>
<path fill-rule="evenodd" clip-rule="evenodd" d="M14.5311 24.7451C13.4758 25.0502 12.5722 25.4954 11.9257 26.0553C11.4014 26.5094 10.6083 26.4525 10.1542 25.9282C9.70015 25.404 9.75705 24.6109 10.2813 24.1568C11.2848 23.2876 12.5528 22.7019 13.8396 22.3305L13.8493 22.3277L13.8493 22.3278C15.2014 21.9494 16.5995 21.7607 18.0035 21.7673C19.4237 21.7675 20.8536 21.9532 22.1612 22.3305L22.1613 22.3305C23.4472 22.7016 24.7178 23.2874 25.7205 24.1576C26.2443 24.6122 26.3004 25.4054 25.8458 25.9292C25.3912 26.453 24.598 26.5091 24.0742 26.0545C23.4293 25.4948 22.5232 25.0491 21.4649 24.7437M14.5311 24.7451C15.6584 24.4301 16.8239 24.2732 17.9943 24.2789V24.2789H18.0004C19.2114 24.2789 20.4058 24.4381 21.4649 24.7437" fill="#E5E5EA"/>
<path d="M12.9768 16.7442C14.1328 16.7442 15.0698 15.8071 15.0698 14.6511C15.0698 13.4952 14.1328 12.5581 12.9768 12.5581C11.8209 12.5581 10.8838 13.4952 10.8838 14.6511C10.8838 15.8071 11.8209 16.7442 12.9768 16.7442Z" fill="#E5E5EA"/>
<path d="M23.0237 16.7442C24.1796 16.7442 25.1167 15.8071 25.1167 14.6511C25.1167 13.4952 24.1796 12.5581 23.0237 12.5581C21.8677 12.5581 20.9307 13.4952 20.9307 14.6511C20.9307 15.8071 21.8677 16.7442 23.0237 16.7442Z" fill="#E5E5EA"/>
</svg>
