<svg width="13" height="12" viewBox="0 0 13 12" fill="none" xmlns="http://www.w3.org/2000/svg">
<path d="M12 8.94444L9.98761 6.93206C9.87301 6.81749 9.7176 6.75313 9.55556 6.75313C9.39351 6.75313 9.2381 6.81749 9.1235 6.93206L8.76539 7.29017C8.65079 7.40473 8.49538 7.46909 8.33333 7.46909C8.17129 7.46909 8.01588 7.40473 7.90128 7.29017L6.14189 5.53078C5.91269 5.30165 5.60187 5.17293 5.27778 5.17293C4.95369 5.17293 4.64287 5.30165 4.41367 5.53078L1 8.94444M12 1.61111V10.1667C12 10.3287 11.9356 10.4842 11.821 10.5988C11.7064 10.7134 11.551 10.7778 11.3889 10.7778H1.61111C1.44903 10.7778 1.2936 10.7134 1.17899 10.5988C1.06438 10.4842 1 10.3287 1 10.1667V1.61111C1 1.44903 1.06438 1.2936 1.17899 1.17899C1.2936 1.06438 1.44903 1 1.61111 1H11.3889C11.551 1 11.7064 1.06438 11.821 1.17899C11.9356 1.2936 12 1.44903 12 1.61111ZM8.94444 3.44444C8.94444 3.60652 8.88006 3.76196 8.76545 3.87657C8.65085 3.99117 8.49541 4.05556 8.33333 4.05556C8.17126 4.05556 8.01582 3.99117 7.90121 3.87657C7.78661 3.76196 7.72222 3.60652 7.72222 3.44444C7.72222 3.28237 7.78661 3.12693 7.90121 3.01232C8.01582 2.89772 8.17126 2.83333 8.33333 2.83333C8.49541 2.83333 8.65085 2.89772 8.76545 3.01232C8.88006 3.12693 8.94444 3.28237 8.94444 3.44444Z" stroke="#B4B4B4" stroke-linecap="round" stroke-linejoin="round"/>
</svg>
