<svg width="34" height="27" viewBox="0 0 34 27" fill="none" xmlns="http://www.w3.org/2000/svg">
<path fill-rule="evenodd" clip-rule="evenodd" d="M0.400024 1.99999C0.400024 1.11634 1.11637 0.399994 2.00002 0.399994H32C32.8837 0.399994 33.6 1.11634 33.6 1.99999C33.6 2.88365 32.8837 3.59999 32 3.59999H2.00002C1.11637 3.59999 0.400024 2.88365 0.400024 1.99999ZM0.400024 13.25C0.400024 12.3663 1.11637 11.65 2.00002 11.65H32C32.8837 11.65 33.6 12.3663 33.6 13.25C33.6 14.1336 32.8837 14.85 32 14.85H2.00002C1.11637 14.85 0.400024 14.1336 0.400024 13.25ZM0.400024 24.5C0.400024 23.6163 1.11637 22.9 2.00002 22.9H32C32.8837 22.9 33.6 23.6163 33.6 24.5C33.6 25.3836 32.8837 26.1 32 26.1H2.00002C1.11637 26.1 0.400024 25.3836 0.400024 24.5Z" fill="white"/>
</svg>
