<svg width="21" height="14" viewBox="0 0 21 14" fill="none" xmlns="http://www.w3.org/2000/svg">
<path d="M16.5821 13.8787C15.4625 13.8787 14.4573 13.6217 13.5662 13.1076C12.6866 12.5936 11.9897 11.851 11.4756 10.88C10.973 9.90899 10.7217 8.73234 10.7217 7.35006C10.7217 6.32192 10.8702 5.40231 11.1672 4.59122C11.4756 3.78014 11.8926 3.09471 12.4181 2.53495C12.955 1.96376 13.5776 1.52965 14.2859 1.23264C15.0056 0.935618 15.7881 0.787109 16.6335 0.787109C17.5245 0.787109 18.2728 0.952754 18.8782 1.28404C19.4951 1.61533 19.9921 1.98089 20.3691 2.38073L19.3066 3.64876C18.9868 3.34032 18.6212 3.07757 18.21 2.86052C17.7987 2.63205 17.2903 2.51781 16.6849 2.51781C15.9081 2.51781 15.2226 2.71201 14.6286 3.10042C14.046 3.48883 13.589 4.03717 13.2578 4.74544C12.9379 5.45372 12.778 6.30479 12.778 7.29866C12.778 8.29252 12.9322 9.15502 13.2406 9.88614C13.5491 10.6058 14.0003 11.1599 14.5943 11.5483C15.1884 11.9367 15.9195 12.1309 16.7877 12.1309C17.1761 12.1309 17.5417 12.0795 17.8844 11.9767C18.2385 11.8625 18.5241 11.7082 18.7412 11.514V8.56669H16.2565V6.92167H20.5575V12.3879C20.1349 12.8106 19.5808 13.1648 18.8954 13.4504C18.21 13.7359 17.4389 13.8787 16.5821 13.8787Z" fill="black"/>
<path d="M4.23907 13.8787C3.58791 13.8787 3.0053 13.7987 2.49123 13.6388C1.97716 13.4788 1.52592 13.2675 1.13751 13.0047C0.749106 12.742 0.406393 12.4678 0.109375 12.1822L1.05184 10.897C1.29173 11.1369 1.55448 11.3597 1.84008 11.5653C2.12567 11.7595 2.44554 11.9195 2.79967 12.0451C3.16523 12.1708 3.57078 12.2336 4.0163 12.2336C4.48468 12.2336 4.90736 12.1365 5.28434 11.9423C5.66133 11.7367 5.95834 11.4454 6.17539 11.0684C6.39245 10.6914 6.50097 10.2459 6.50097 9.73183C6.50097 8.95501 6.27821 8.34955 5.83268 7.91545C5.39858 7.48134 4.82168 7.26429 4.10198 7.26429C3.70215 7.26429 3.35944 7.32712 3.07384 7.45278C2.78825 7.56702 2.46267 7.74409 2.09711 7.98399L1.12038 7.36711L1.49736 1.36963H7.88896V3.04892H3.21093L2.91962 6.27042C3.19379 6.13334 3.46796 6.03052 3.74213 5.96198C4.0163 5.88202 4.31903 5.84203 4.65032 5.84203C5.3586 5.84203 6.00404 5.97912 6.58665 6.25329C7.16926 6.51604 7.63192 6.933 7.97464 7.50419C8.31735 8.06396 8.48871 8.78365 8.48871 9.66328C8.48871 10.5543 8.28879 11.314 7.88896 11.9423C7.48913 12.5706 6.96363 13.0504 6.31248 13.3817C5.67275 13.713 4.98161 13.8787 4.23907 13.8787Z" fill="black"/>
</svg>
