<svg width="31" height="18" viewBox="0 0 31 18" fill="none" xmlns="http://www.w3.org/2000/svg">
<path d="M6.20157 4.50071C5.91753 4.50071 5.64512 4.61354 5.44427 4.81439C5.24343 5.01524 5.13059 5.28765 5.13059 5.57169V11.9976C5.13059 12.2816 5.24343 12.554 5.44427 12.7549C5.64512 12.9557 5.91753 13.0685 6.20157 13.0685H19.0533C19.3373 13.0685 19.6098 12.9557 19.8106 12.7549C20.0115 12.554 20.1243 12.2816 20.1243 11.9976V5.57169C20.1243 5.28765 20.0115 5.01524 19.8106 4.81439C19.6098 4.61354 19.3373 4.50071 19.0533 4.50071H6.20157ZM0.84668 5.0362C0.84668 3.75801 1.35444 2.53218 2.25825 1.62837C3.16206 0.724554 4.3879 0.216797 5.66608 0.216797H23.8727C25.1509 0.216797 26.3767 0.724554 27.2805 1.62837C28.1844 2.53218 28.6921 3.75801 28.6921 5.0362V5.57169H29.2276C29.6537 5.57169 30.0623 5.74094 30.3635 6.04221C30.6648 6.34348 30.8341 6.75209 30.8341 7.17815V10.3911C30.8341 10.8171 30.6648 11.2258 30.3635 11.527C30.0623 11.8283 29.6537 11.9976 29.2276 11.9976H28.6921V12.533C28.6921 13.8112 28.1844 15.0371 27.2805 15.9409C26.3767 16.8447 25.1509 17.3524 23.8727 17.3524H5.66608C4.3879 17.3524 3.16206 16.8447 2.25825 15.9409C1.35444 15.0371 0.84668 13.8112 0.84668 12.533V5.0362ZM5.66608 2.35875C4.95598 2.35875 4.27496 2.64084 3.77284 3.14296C3.27072 3.64508 2.98864 4.3261 2.98864 5.0362V12.533C2.98864 13.2431 3.27072 13.9242 3.77284 14.4263C4.27496 14.9284 4.95598 15.2105 5.66608 15.2105H23.8727C24.5828 15.2105 25.2638 14.9284 25.7659 14.4263C26.2681 13.9242 26.5502 13.2431 26.5502 12.533V5.0362C26.5502 4.3261 26.2681 3.64508 25.7659 3.14296C25.2638 2.64084 24.5828 2.35875 23.8727 2.35875H5.66608Z" fill="black"/>
</svg>
