<svg width="22" height="22" viewBox="0 0 22 22" fill="none" xmlns="http://www.w3.org/2000/svg">
<path fill-rule="evenodd" clip-rule="evenodd" d="M5.74719 1.14702C6.77846 0.719859 7.88376 0.5 9 0.5C10.1162 0.5 11.2215 0.719859 12.2528 1.14702C13.2841 1.57419 14.2211 2.20029 15.0104 2.98959C15.7997 3.77889 16.4258 4.71592 16.853 5.74719C17.2801 6.77846 17.5 7.88376 17.5 9C17.5 10.1162 17.2801 11.2215 16.853 12.2528C16.6187 12.8183 16.3247 13.3554 15.9767 13.8554L21.0607 18.9393C21.6464 19.5251 21.6464 20.4749 21.0607 21.0607C20.4749 21.6464 19.5251 21.6464 18.9393 21.0607L13.8554 15.9767C13.3554 16.3247 12.8183 16.6187 12.2528 16.853C11.2215 17.2801 10.1162 17.5 9 17.5C7.88376 17.5 6.77846 17.2801 5.74719 16.853C4.71592 16.4258 3.77889 15.7997 2.98959 15.0104C2.20029 14.2211 1.57419 13.2841 1.14702 12.2528C0.719859 11.2215 0.5 10.1162 0.5 9C0.5 7.88376 0.719859 6.77846 1.14702 5.74719C1.57419 4.71592 2.20029 3.77889 2.98959 2.98959C3.77889 2.20029 4.71592 1.57419 5.74719 1.14702ZM9 3.5C8.27773 3.5 7.56253 3.64226 6.89524 3.91866C6.22795 4.19506 5.62163 4.60019 5.11091 5.11091C4.60019 5.62163 4.19506 6.22795 3.91866 6.89524C3.64226 7.56253 3.5 8.27773 3.5 9C3.5 9.72227 3.64226 10.4375 3.91866 11.1048C4.19506 11.772 4.60019 12.3784 5.11091 12.8891C5.62164 13.3998 6.22795 13.8049 6.89524 14.0813C7.56253 14.3577 8.27773 14.5 9 14.5C9.72227 14.5 10.4375 14.3577 11.1048 14.0813C11.772 13.8049 12.3784 13.3998 12.8891 12.8891C13.3998 12.3784 13.8049 11.772 14.0813 11.1048C14.3577 10.4375 14.5 9.72227 14.5 9C14.5 8.27773 14.3577 7.56253 14.0813 6.89524C13.8049 6.22795 13.3998 5.62164 12.8891 5.11091C12.3784 4.60019 11.772 4.19506 11.1048 3.91866C10.4375 3.64226 9.72227 3.5 9 3.5Z" fill="black"/>
</svg>
