<svg width="18" height="18" viewBox="0 0 18 18" fill="none" xmlns="http://www.w3.org/2000/svg">
<path d="M9 10.0422L1.27772 17.7645C1.14033 17.9019 0.97154 17.9755 0.771344 17.9853C0.571148 17.9951 0.392541 17.9215 0.235525 17.7645C0.0785081 17.6075 0 17.4338 0 17.2434C0 17.053 0.0785081 16.8793 0.235525 16.7223L7.9578 9L0.235525 1.27772C0.0981352 1.14033 0.0245335 0.97154 0.0147199 0.771344C0.00490641 0.571148 0.0785081 0.392541 0.235525 0.235525C0.392541 0.0785081 0.566241 0 0.756624 0C0.947007 0 1.12071 0.0785081 1.27772 0.235525L9 7.9578L16.7223 0.235525C16.8597 0.0981352 17.0289 0.0245335 17.2301 0.0147199C17.4293 0.00490641 17.6075 0.0785081 17.7645 0.235525C17.9215 0.392541 18 0.566241 18 0.756624C18 0.947007 17.9215 1.12071 17.7645 1.27772L10.0422 9L17.7645 16.7223C17.9019 16.8597 17.9755 17.0289 17.9853 17.2301C17.9951 17.4293 17.9215 17.6075 17.7645 17.7645C17.6075 17.9215 17.4338 18 17.2434 18C17.053 18 16.8793 17.9215 16.7223 17.7645L9 10.0422Z" fill="black"/>
</svg>
