<svg width="18" height="20" viewBox="0 0 18 20" fill="none" xmlns="http://www.w3.org/2000/svg">
<path d="M15.925 1.13705C15.6438 0.855711 15.3099 0.632546 14.9424 0.480319C14.575 0.328091 14.1811 0.249785 13.7833 0.249878C13.3855 0.249971 12.9917 0.328461 12.6243 0.48086C12.2568 0.633259 11.9231 0.85658 11.642 1.13805L2.135 10.6581C1.56853 11.2258 1.25028 11.995 1.25 12.7971V16.0001C1.25 16.4141 1.586 16.7501 2 16.7501H5.223C6.026 16.7501 6.796 16.4301 7.363 15.8631L16.863 6.35705C17.4297 5.78903 17.7479 5.01942 17.7479 4.21705C17.7479 3.41469 17.4297 2.64508 16.863 2.07705L15.925 1.13705ZM1 18.2501C0.801088 18.2501 0.610322 18.3291 0.46967 18.4697C0.329018 18.6104 0.25 18.8011 0.25 19.0001C0.25 19.199 0.329018 19.3897 0.46967 19.5304C0.610322 19.671 0.801088 19.7501 1 19.7501H17C17.1989 19.7501 17.3897 19.671 17.5303 19.5304C17.671 19.3897 17.75 19.199 17.75 19.0001C17.75 18.8011 17.671 18.6104 17.5303 18.4697C17.3897 18.3291 17.1989 18.2501 17 18.2501H1Z" fill="black"/>
</svg>
