<svg width="608" height="97" viewBox="0 0 608 97" fill="none" xmlns="http://www.w3.org/2000/svg">
<path d="M545.522 95.2232V1.29732H567.577V77.1905H607.015V95.2232H545.522Z" fill="white"/>
<path d="M466.386 95.2232H442.515L474.429 1.29732H503.749L535.533 95.2232H511.792L505.435 75.1148H472.743L466.386 95.2232ZM478.062 58.2496H500.116L489.478 24.5193H488.7L478.062 58.2496Z" fill="white"/>
<path d="M382.45 1.29732L403.855 70.5741H404.634L426.039 1.29732H450.689L418.904 95.2232H389.585L357.671 1.29732H382.45Z" fill="white"/>
<path d="M347.811 1.29732V95.2232H325.757V1.29732H347.811Z" fill="white"/>
<path d="M235.723 19.33V1.29732H314.729V19.33H286.188V95.2232H264.264V19.33H235.723Z" fill="white"/>
<path d="M204.976 29.1897C204.457 22.3139 199.398 18.2922 190.317 18.2922C181.365 18.2922 176.825 22.1841 176.695 27.5032C176.565 33.3411 182.273 36.1952 190.706 38.0114L198.879 39.9574C216.912 43.9791 227.42 52.9306 227.55 67.9795C227.42 85.7528 213.668 96.5205 190.317 96.5205C166.965 96.5205 151.786 85.8825 151.397 64.347H172.673C173.192 73.4282 179.938 78.0986 190.057 78.0986C199.398 78.0986 204.976 73.9472 205.106 67.9795C204.976 62.5308 200.176 59.6767 189.798 57.3415L179.938 55.0063C163.722 51.2441 153.862 43.2007 153.862 29.0599C153.732 11.6759 169.17 0 190.446 0C212.112 0 225.993 11.8056 226.252 29.1897H204.976Z" fill="white"/>
<path d="M75.1147 95.2232V1.29732H140.11V19.33H97.1692V39.179H136.737V57.2118H97.1692V77.1905H140.24V95.2232H75.1147Z" fill="white"/>
<path d="M0 95.2232V1.29732H63.6983V19.33H22.0544V39.179H59.5469V57.2118H22.0544V95.2232H0Z" fill="white"/>
</svg>
