<svg width="608" height="189" viewBox="0 0 608 189" fill="none" xmlns="http://www.w3.org/2000/svg">
<path d="M554.62 187.193V114.942H578.271C593.839 114.942 601.722 124.024 601.722 136.697C601.722 146.377 597.132 153.812 588.15 156.756L604.716 187.193H596.533L580.865 158.153L578.371 158.253H561.705V187.193H554.62ZM561.705 151.766H578.071C589.348 151.766 594.737 145.978 594.737 136.697C594.737 127.417 589.348 121.329 577.971 121.329H561.705V151.766Z" fill="white"/>
<path d="M530.881 114.942H537.966V162.744C537.966 177.513 526.789 188.391 510.423 188.391C493.957 188.391 482.88 177.513 482.88 162.744V114.942H489.965V162.245C489.965 173.521 498.049 181.804 510.423 181.804C522.797 181.804 530.881 173.521 530.881 162.245V114.942Z" fill="white"/>
<path d="M469.32 151.068C469.32 173.721 456.247 188.191 437.985 188.191C419.623 188.191 406.55 173.721 406.55 151.068C406.55 128.415 419.623 113.945 437.985 113.945C456.247 113.945 469.32 128.415 469.32 151.068ZM462.434 151.068C462.434 131.808 451.956 120.631 437.985 120.631C424.014 120.631 413.535 131.808 413.535 151.068C413.535 170.228 423.914 181.505 437.985 181.505C451.956 181.505 462.434 170.328 462.434 151.068Z" fill="white"/>
<path d="M347.584 121.329V114.942H400.375V121.329H377.622V187.193H370.436V121.329H347.584Z" fill="white"/>
<path d="M267.573 187.193V114.942H291.224C306.792 114.942 314.676 124.622 314.676 137.396C314.676 150.07 306.792 159.85 291.324 159.85H274.658V187.193H267.573ZM274.658 153.463H291.025C302.301 153.463 307.69 146.677 307.69 137.396C307.69 128.015 302.301 121.329 290.925 121.329H274.658V153.463Z" fill="white"/>
<path d="M181.962 114.942H190.245L216.091 177.014H216.79L242.537 114.942H250.919V187.193H244.133V129.612H243.535L219.584 187.193H213.197L189.247 129.612H188.648V187.193H181.962V114.942Z" fill="white"/>
<path d="M119.303 187.193H111.819L138.065 114.942H145.749L171.995 187.193H164.51L156.926 165.737H126.888L119.303 187.193ZM129.183 159.45H154.73L142.156 124.123H141.657L129.183 159.45Z" fill="white"/>
<path d="M61.8342 121.329V114.942H114.625V121.329H91.8721V187.193H84.687V121.329H61.8342Z" fill="white"/>
<path d="M44.7814 133.105C44.0829 125.221 37.2969 120.232 27.9163 120.232C17.9369 120.232 11.1509 125.82 11.1509 133.404C11.1509 140.889 18.5357 144.382 25.4214 146.278L32.906 148.373C41.9872 150.968 52.6651 155.658 52.6651 167.833C52.6651 179.509 43.2845 188.391 27.4173 188.391C12.548 188.391 3.06764 180.507 2.26929 168.931H9.55423C10.2528 177.413 17.8371 182.004 27.4173 182.004C38.0952 182.004 45.7794 176.316 45.7794 167.733C45.7794 160.548 39.5921 157.255 30.8103 154.76L22.228 152.265C10.8515 148.872 4.16537 143.084 4.16537 133.704C4.16537 121.928 14.5439 113.945 28.1159 113.945C41.6878 113.945 51.268 122.028 51.767 133.105H44.7814Z" fill="white"/>
<path d="M545.522 95.2232V1.29736H567.577V77.1905H607.015V95.2232H545.522Z" fill="white"/>
<path d="M466.386 95.2232H442.515L474.429 1.29736H503.749L535.533 95.2232H511.792L505.435 75.1148H472.743L466.386 95.2232ZM478.062 58.2497H500.116L489.478 24.5194H488.7L478.062 58.2497Z" fill="white"/>
<path d="M382.45 1.29736L403.855 70.5742H404.634L426.039 1.29736H450.689L418.904 95.2232H389.585L357.671 1.29736H382.45Z" fill="white"/>
<path d="M347.811 1.29736V95.2232H325.757V1.29736H347.811Z" fill="white"/>
<path d="M235.723 19.3301V1.29736H314.729V19.3301H286.188V95.2232H264.264V19.3301H235.723Z" fill="white"/>
<path d="M204.976 29.1897C204.457 22.3139 199.398 18.2922 190.317 18.2922C181.365 18.2922 176.825 22.1842 176.695 27.5032C176.565 33.3411 182.273 36.1952 190.706 38.0114L198.879 39.9574C216.912 43.9791 227.42 52.9306 227.55 67.9795C227.42 85.7528 213.668 96.5205 190.317 96.5205C166.965 96.5205 151.786 85.8825 151.397 64.347H172.673C173.192 73.4282 179.938 78.0986 190.057 78.0986C199.398 78.0986 204.976 73.9472 205.106 67.9795C204.976 62.5308 200.176 59.6767 189.798 57.3415L179.938 55.0063C163.722 51.2441 153.862 43.2007 153.862 29.0599C153.732 11.6759 169.17 0 190.446 0C212.112 0 225.993 11.8056 226.252 29.1897H204.976Z" fill="white"/>
<path d="M75.1147 95.2232V1.29736H140.11V19.3301H97.1692V39.1791H136.737V57.2118H97.1692V77.1905H140.24V95.2232H75.1147Z" fill="white"/>
<path d="M0 95.2232V1.29736H63.6983V19.3301H22.0544V39.1791H59.5469V57.2118H22.0544V95.2232H0Z" fill="white"/>
</svg>
