<svg width="603" height="76" viewBox="0 0 603 76" fill="none" xmlns="http://www.w3.org/2000/svg">
<path d="M552.62 74.1931V1.94243H576.271C591.839 1.94243 599.722 11.0237 599.722 23.6975C599.722 33.3775 595.132 40.8121 586.15 43.756L602.716 74.1931H594.533L578.865 45.1531L576.371 45.2529H559.705V74.1931H552.62ZM559.705 38.7663H576.071C587.348 38.7663 592.737 32.9783 592.737 23.6975C592.737 14.4166 587.348 8.32923 575.971 8.32923H559.705V38.7663Z" fill="white"/>
<path d="M528.881 1.94243H535.966V49.7436C535.966 64.5131 524.789 75.3906 508.423 75.3906C491.957 75.3906 480.88 64.5131 480.88 49.7436V1.94243H487.965V49.2447C487.965 60.5214 496.049 68.8042 508.423 68.8042C520.797 68.8042 528.881 60.5214 528.881 49.2447V1.94243Z" fill="white"/>
<path d="M467.32 38.0678C467.32 60.7209 454.247 75.191 435.985 75.191C417.623 75.191 404.55 60.7209 404.55 38.0678C404.55 15.4146 417.623 0.944496 435.985 0.944496C454.247 0.944496 467.32 15.4146 467.32 38.0678ZM460.434 38.0678C460.434 18.8076 449.956 7.63068 435.985 7.63068C422.014 7.63068 411.535 18.8076 411.535 38.0678C411.535 57.2282 421.914 68.5049 435.985 68.5049C449.956 68.5049 460.434 57.328 460.434 38.0678Z" fill="white"/>
<path d="M345.584 8.32923V1.94243H398.375V8.32923H375.622V74.1931H368.436V8.32923H345.584Z" fill="white"/>
<path d="M265.573 74.1931V1.94243H289.224C304.792 1.94243 312.676 11.6224 312.676 24.396C312.676 37.0698 304.792 46.8496 289.324 46.8496H272.658V74.1931H265.573ZM272.658 40.4628H289.025C300.301 40.4628 305.69 33.6768 305.69 24.396C305.69 15.0154 300.301 8.32923 288.925 8.32923H272.658V40.4628Z" fill="white"/>
<path d="M179.962 1.94243H188.245L214.091 64.0141H214.79L240.537 1.94243H248.919V74.1931H242.133V16.6121H241.535L217.584 74.1931H211.197L187.247 16.6121H186.648V74.1931H179.962V1.94243Z" fill="white"/>
<path d="M117.303 74.1931H109.819L136.065 1.94243H143.749L169.995 74.1931H162.51L154.926 52.7374H124.888L117.303 74.1931ZM127.183 46.4504H152.73L140.156 11.1235H139.657L127.183 46.4504Z" fill="white"/>
<path d="M59.8342 8.32923V1.94243H112.625V8.32923H89.8721V74.1931H82.687V8.32923H59.8342Z" fill="white"/>
<path d="M42.7814 20.1049C42.0829 12.2212 35.2969 7.2315 25.9163 7.2315C15.9369 7.2315 9.15093 12.82 9.15093 20.4043C9.15093 27.8888 16.5357 31.3816 23.4214 33.2777L30.906 35.3733C39.9872 37.968 50.6651 42.6583 50.6651 54.8331C50.6651 66.509 41.2845 75.3906 25.4173 75.3906C10.548 75.3906 1.06764 67.5069 0.269287 55.9308H7.55423C8.25279 64.4133 15.8371 69.0038 25.4173 69.0038C36.0952 69.0038 43.7794 63.3156 43.7794 54.7333C43.7794 47.5482 37.5921 44.255 28.8103 41.7601L20.228 39.2653C8.85155 35.8723 2.16537 30.0843 2.16537 20.7037C2.16537 8.928 12.5439 0.944496 26.1159 0.944496C39.6878 0.944496 49.268 9.02779 49.767 20.1049H42.7814Z" fill="white"/>
</svg>
