<svg width="36" height="36" viewBox="0 0 36 36" fill="none" xmlns="http://www.w3.org/2000/svg">
<circle opacity="0.5" cx="18" cy="18" r="18" fill="black"/>
<g clip-path="url(#clip0_1727_456)">
<path d="M16.842 23.684C18.3601 23.6838 19.8344 23.1756 21.0301 22.2403L24.7898 26L25.9991 24.7907L22.2395 21.031C23.1752 19.8351 23.6837 18.3605 23.684 16.842C23.684 13.0695 20.6145 10 16.842 10C13.0695 10 10 13.0695 10 16.842C10 20.6145 13.0695 23.684 16.842 23.684ZM16.842 11.7105C19.672 11.7105 21.9735 14.012 21.9735 16.842C21.9735 19.672 19.672 21.9735 16.842 21.9735C14.012 21.9735 11.7105 19.672 11.7105 16.842C11.7105 14.012 14.012 11.7105 16.842 11.7105Z" fill="white"/>
</g>
<defs>
<clipPath id="clip0_1727_456">
<rect width="16" height="16" fill="white" transform="translate(10 10)"/>
</clipPath>
</defs>
</svg>
