<svg width="32" height="32" viewBox="0 0 32 32" fill="none" xmlns="http://www.w3.org/2000/svg">
<path fill-rule="evenodd" clip-rule="evenodd" d="M21.1231 25.4701C19.5365 25.9889 17.8083 26.2739 16 26.2739C8.26801 26.2739 2 21.0639 2 14.6369C2 8.21004 8.26801 3 16 3C23.732 3 30 8.21004 30 14.6369C30 17.7578 28.522 20.5917 26.1161 22.6815C26.6936 24.0269 27.5521 25.5375 28.8284 27.0489C28.9276 27.1671 28.9907 27.3107 29.0103 27.463C29.03 27.6152 29.0054 27.7699 28.9394 27.9089C28.8734 28.0479 28.7687 28.1655 28.6376 28.248C28.5065 28.3305 28.3543 28.3746 28.1988 28.375C28.1634 28.375 24.8929 27.9837 21.1231 25.4701ZM10 17C11.1046 17 12 16.1046 12 15C12 13.8954 11.1046 13 10 13C8.89543 13 8 13.8954 8 15C8 16.1046 8.89543 17 10 17ZM18 15C18 16.1046 17.1046 17 16 17C14.8954 17 14 16.1046 14 15C14 13.8954 14.8954 13 16 13C17.1046 13 18 13.8954 18 15ZM22 17C23.1046 17 24 16.1046 24 15C24 13.8954 23.1046 13 22 13C20.8954 13 20 13.8954 20 15C20 16.1046 20.8954 17 22 17Z" fill="white"/>
</svg>
