<svg width="22" height="22" viewBox="0 0 22 22" fill="none" xmlns="http://www.w3.org/2000/svg">
<path d="M11 2.9C8.85175 2.9 6.79148 3.75339 5.27244 5.27244C3.75339 6.79148 2.9 8.85175 2.9 11C2.9 13.1483 3.75339 15.2085 5.27244 16.7276C6.79148 18.2466 8.85175 19.1 11 19.1C13.1483 19.1 15.2085 18.2466 16.7276 16.7276C18.2466 15.2085 19.1 13.1483 19.1 11C19.1 8.85175 18.2466 6.79148 16.7276 5.27244C15.2085 3.75339 13.1483 2.9 11 2.9ZM0.875 11C0.875 5.40796 5.40796 0.875 11 0.875C16.592 0.875 21.125 5.40796 21.125 11C21.125 16.592 16.592 21.125 11 21.125C5.40796 21.125 0.875 16.592 0.875 11Z" fill="white"/>
<path d="M11.0002 8.97578C11.2687 8.97578 11.5263 9.08246 11.7161 9.27234C11.906 9.46222 12.0127 9.71975 12.0127 9.98828V16.0633C12.0127 16.3318 11.906 16.5893 11.7161 16.7792C11.5263 16.9691 11.2687 17.0758 11.0002 17.0758C10.7317 17.0758 10.4741 16.9691 10.2842 16.7792C10.0944 16.5893 9.9877 16.3318 9.9877 16.0633V9.98828C9.9877 9.71975 10.0944 9.46222 10.2842 9.27234C10.4741 9.08246 10.7317 8.97578 11.0002 8.97578ZM12.5189 6.44453C12.5189 6.84733 12.3589 7.23363 12.0741 7.51845C11.7893 7.80327 11.403 7.96328 11.0002 7.96328C10.5974 7.96328 10.2111 7.80327 9.92628 7.51845C9.64146 7.23363 9.48145 6.84733 9.48145 6.44453C9.48145 6.04173 9.64146 5.65543 9.92628 5.37061C10.2111 5.08579 10.5974 4.92578 11.0002 4.92578C11.403 4.92578 11.7893 5.08579 12.0741 5.37061C12.3589 5.65543 12.5189 6.04173 12.5189 6.44453Z" fill="white"/>
</svg>
