<svg width="21" height="18" viewBox="0 0 21 18" fill="none" xmlns="http://www.w3.org/2000/svg">
<path d="M7.34819 15.4055C7.05818 15.1768 6.76132 14.948 6.46141 14.7167C5.19261 13.7386 3.86909 12.7182 2.77775 11.4894C1.44561 9.98954 0.5 8.21878 0.5 5.9166C0.5 3.6454 1.78369 1.72736 3.5568 0.916874C5.29837 0.120807 7.60292 0.356542 9.74973 2.58731L10.11 2.96167L10.4703 2.58731C12.617 0.3566 14.9215 0.121307 16.6631 0.917725C18.4363 1.72859 19.72 3.64694 19.72 5.91761C19.72 8.21931 18.7746 9.99007 17.4426 11.4898C16.3495 12.7207 15.0231 13.7424 13.752 14.7215C13.4544 14.9507 13.1599 15.1776 12.872 15.4043L12.8715 15.4048C12.3424 15.8227 11.8542 16.2023 11.379 16.4801C10.9037 16.7579 10.4886 16.9046 10.11 16.9046C9.73148 16.9046 9.3165 16.7577 8.84099 16.4798C8.36569 16.202 7.87751 15.8226 7.34819 15.4055ZM7.34819 15.4055L7.03914 15.7974L7.34806 15.4054C7.3481 15.4054 7.34815 15.4055 7.34819 15.4055Z" fill="white" stroke="#E3E2E1"/>
</svg>
