<svg width="21" height="21" viewBox="0 0 21 21" fill="none" xmlns="http://www.w3.org/2000/svg">
<circle cx="10.5" cy="10.5" r="10.5" fill="white"/>
<path fill-rule="evenodd" clip-rule="evenodd" d="M9.44715 4.94141C9.08597 4.94141 8.79317 5.2342 8.79317 5.59539V8.86528H7.8122C7.54769 8.86528 7.30923 9.02462 7.208 9.26899C7.10678 9.51337 7.16273 9.79466 7.34977 9.98169L10.2927 12.9246C10.5481 13.18 10.9621 13.18 11.2175 12.9246L14.1604 9.98169C14.3475 9.79466 14.4034 9.51337 14.3022 9.26899C14.201 9.02462 13.9625 8.86528 13.698 8.86528H12.717V5.59539C12.717 5.2342 12.4242 4.94141 12.0631 4.94141H9.44715Z" fill="#C7C7C7"/>
<path fill-rule="evenodd" clip-rule="evenodd" d="M6.17578 15.404C6.17578 15.0428 6.46858 14.75 6.82976 14.75H14.6775C15.0387 14.75 15.3315 15.0428 15.3315 15.404C15.3315 15.7652 15.0387 16.058 14.6775 16.058H6.82976C6.46858 16.058 6.17578 15.7652 6.17578 15.404Z" fill="#C7C7C7"/>
</svg>
