<svg width="68" height="68" viewBox="0 0 68 68" fill="none" xmlns="http://www.w3.org/2000/svg">
<path d="M17.9894 64.0016L3.34147e-05 68L3.99843 50.0106C1.36577 45.0851 -0.00781142 39.5849 3.34147e-05 34C3.34147e-05 15.2218 15.2218 0 34 0C52.7782 0 68 15.2218 68 34C68 52.7782 52.7782 68 34 68C28.4151 68.0078 22.9149 66.6342 17.9894 64.0016ZM17 34C17 38.5087 18.7911 42.8327 21.9792 46.0208C25.1673 49.2089 29.4913 51 34 51C38.5087 51 42.8327 49.2089 46.0208 46.0208C49.2089 42.8327 51 38.5087 51 34H44.2C44.2 36.7052 43.1254 39.2996 41.2125 41.2125C39.2996 43.1253 36.7052 44.2 34 44.2C31.2948 44.2 28.7004 43.1253 26.7875 41.2125C24.8747 39.2996 23.8 36.7052 23.8 34H17Z" fill="#EEEBE9"/>
</svg>
