<svg width="20" height="20" viewBox="0 0 20 20" fill="none" xmlns="http://www.w3.org/2000/svg">
<g clip-path="url(#clip0_600_1346)">
<path d="M10 19C7.48771 19 5.35943 18.1287 3.61514 16.3861C1.87171 14.6427 1 12.5153 1 10.0039C1 7.49243 1.87171 5.36414 3.61514 3.619C5.35857 1.87386 7.48686 1.00086 10 1C11.5283 1 12.9593 1.363 14.293 2.089C15.6259 2.815 16.7003 3.82857 17.5163 5.12971V1H18.802V7.72429H12.0777V6.43857H16.8349C16.1646 5.15714 15.2226 4.14443 14.0089 3.40043C12.7951 2.65643 11.4589 2.28486 10 2.28571C7.85714 2.28571 6.03571 3.03571 4.53571 4.53571C3.03571 6.03571 2.28571 7.85714 2.28571 10C2.28571 12.1429 3.03571 13.9643 4.53571 15.4643C6.03571 16.9643 7.85714 17.7143 10 17.7143C11.65 17.7143 13.1393 17.2429 14.4679 16.3C15.7964 15.3571 16.7286 14.1143 17.2643 12.5714H18.6297C18.0623 14.4966 16.9849 16.0493 15.3974 17.2296C13.81 18.4099 12.0109 19 10 19Z" fill="#999999" stroke="#999999" stroke-width="0.5"/>
</g>
<defs>
<clipPath id="clip0_600_1346">
<rect width="20" height="20" fill="white"/>
</clipPath>
</defs>
</svg>
