<svg width="20" height="20" viewBox="0 0 20 20" fill="none" xmlns="http://www.w3.org/2000/svg">
<path d="M17.0002 17.0002L13.381 13.381M13.381 13.381C14.0001 12.7619 14.4912 12.027 14.8262 11.2181C15.1612 10.4093 15.3337 9.54234 15.3337 8.66684C15.3337 7.79134 15.1612 6.92441 14.8262 6.11555C14.4912 5.30669 14.0001 4.57174 13.381 3.95267C12.7619 3.3336 12.027 2.84252 11.2181 2.50748C10.4093 2.17244 9.54234 2 8.66684 2C7.79134 2 6.92441 2.17244 6.11555 2.50748C5.30669 2.84252 4.57174 3.3336 3.95267 3.95267C2.7024 5.20295 2 6.89868 2 8.66684C2 10.435 2.7024 12.1307 3.95267 13.381C5.20295 14.6313 6.89868 15.3337 8.66684 15.3337C10.435 15.3337 12.1307 14.6313 13.381 13.381Z" stroke="#222222" stroke-width="2.08333" stroke-linecap="round" stroke-linejoin="round"/>
</svg>
