<svg width="20" height="20" viewBox="0 0 20 20" fill="none" xmlns="http://www.w3.org/2000/svg">
<path d="M18 19L14.4024 15.4024M14.4024 15.4024C15.1314 14.6733 15.7097 13.8079 16.1042 12.8553C16.4988 11.9028 16.7018 10.8819 16.7018 9.85092C16.7018 8.81992 16.4988 7.79902 16.1042 6.8465C15.7097 5.89399 15.1314 5.02851 14.4024 4.29948C13.6733 3.57046 12.8079 2.99216 11.8553 2.59762C10.9028 2.20307 9.88192 2 8.85092 2C7.81992 2 6.79902 2.20307 5.8465 2.59762C4.89399 2.99216 4.02851 3.57046 3.29948 4.29948C1.82715 5.77181 1 7.76873 1 9.85092C1 11.9331 1.82715 13.93 3.29948 15.4024C4.77181 16.8747 6.76873 17.7018 8.85092 17.7018C10.9331 17.7018 12.93 16.8747 14.4024 15.4024ZM5.48641 9.85092H8.85092M8.85092 9.85092H12.2154M8.85092 9.85092V6.48641M8.85092 9.85092V13.2154" stroke="#9F9893" stroke-width="1.66667" stroke-linecap="round" stroke-linejoin="round"/>
</svg>
