<svg width="80" height="80" viewBox="0 0 80 80" fill="none" xmlns="http://www.w3.org/2000/svg">
<g clip-path="url(#clip0_2135_904)">
<path d="M79 40C79 18.4688 61.5312 1 40 1C18.4688 1 1 18.4688 1 40C1 61.5312 18.4688 79 40 79C61.5312 79 79 61.5312 79 40Z" stroke="#BFBFBF" stroke-width="2" stroke-miterlimit="10"/>
<path d="M38.7512 21.2501L39.9471 46.6563L41.1408 21.2501C41.1482 21.0876 41.1224 20.9254 41.0649 20.7733C41.0075 20.6212 40.9196 20.4824 40.8067 20.3654C40.6938 20.2485 40.5582 20.1557 40.4083 20.0929C40.2583 20.0301 40.0971 19.9985 39.9346 20.0001C39.7739 20.0016 39.6152 20.0354 39.468 20.0996C39.3207 20.1638 39.1879 20.2571 39.0774 20.3737C38.967 20.4904 38.8812 20.6281 38.8251 20.7787C38.7691 20.9293 38.7439 21.0896 38.7512 21.2501Z" fill="#BFBFBF" stroke="#BFBFBF" stroke-width="3" stroke-linecap="round" stroke-linejoin="round"/>
<path d="M40 62.4766C39.4067 62.4766 38.8266 62.2566 38.3333 61.8446C37.8399 61.4325 37.4554 60.8468 37.2284 60.1616C37.0013 59.4764 36.9419 58.7224 37.0576 57.995C37.1734 57.2675 37.4591 56.5994 37.8787 56.0749C38.2982 55.5505 38.8328 55.1933 39.4147 55.0486C39.9967 54.9039 40.5999 54.9782 41.148 55.262C41.6962 55.5458 42.1648 56.0265 42.4944 56.6432C42.8241 57.2599 43 57.9849 43 58.7266C43 59.7211 42.6839 60.6749 42.1213 61.3782C41.5587 62.0815 40.7956 62.4766 40 62.4766Z" fill="#BFBFBF"/>
</g>
<defs>
<clipPath id="clip0_2135_904">
<rect width="80" height="80" fill="white"/>
</clipPath>
</defs>
</svg>
