<svg width="26" height="24" viewBox="0 0 26 24" fill="none" xmlns="http://www.w3.org/2000/svg">
<path d="M14.125 2.13793V4.03448H15.6026C16.0586 4.03448 16.5071 4.15586 16.9031 4.38496L18.8381 5.50165C18.8961 5.53504 18.9581 5.55173 19.0241 5.55173H22.3751C22.6735 5.55173 22.9596 5.67161 23.1706 5.88501C23.3816 6.09842 23.5001 6.38785 23.5001 6.68965C23.5001 6.99146 23.3816 7.28088 23.1706 7.49428C22.9596 7.70768 22.6735 7.82758 22.3751 7.82758H21.7346L24.9011 14.9465C24.9947 15.1571 25.0227 15.3915 24.9815 15.6186C24.9402 15.8457 24.8316 16.0547 24.6701 16.2179L23.8751 15.4138L24.6686 16.2195L24.6671 16.2225L24.6641 16.2255L24.6551 16.2346L24.6461 16.2422L24.6311 16.2574L24.5636 16.3181C24.2466 16.5861 23.9036 16.8137 23.5346 17.0008C22.8341 17.3558 21.8201 17.6896 20.5001 17.6896C19.4493 17.7021 18.4103 17.4662 17.4656 17.0008C17.0973 16.8148 16.7519 16.5857 16.4366 16.3181L16.3691 16.2574L16.3451 16.2346L16.3361 16.2255L16.3301 16.2195V16.2179C16.1685 16.0547 16.0599 15.8457 16.0187 15.6186C15.9774 15.3915 16.0055 15.1571 16.0991 14.9465L19.2671 7.82758H19.0241C18.5666 7.82758 18.1181 7.70774 17.7221 7.47711L15.7871 6.36042C15.7304 6.32764 15.6663 6.31038 15.6011 6.31034H14.125V20.7242H17.8751C18.1734 20.7242 18.4596 20.844 18.6705 21.0574C18.8816 21.2709 19.0001 21.5603 19.0001 21.8621C19.0001 22.1639 18.8816 22.4533 18.6705 22.6667C18.4596 22.8801 18.1734 23 17.8751 23H8.12494C7.82656 23 7.54042 22.8801 7.32946 22.6667C7.11844 22.4533 6.99993 22.1639 6.99993 21.8621C6.99993 21.5603 7.11844 21.2709 7.32946 21.0574C7.54042 20.844 7.82656 20.7242 8.12494 20.7242H11.875V6.31034H10.3989C10.3337 6.31038 10.2696 6.32764 10.2129 6.36042L8.27944 7.47863C7.88194 7.70621 7.43344 7.82758 6.97593 7.82758H6.73293L9.90094 14.9465C9.99454 15.1571 10.0226 15.3915 9.98128 15.6186C9.94006 15.8457 9.83146 16.0547 9.66994 16.2179L8.87494 15.4138L9.66844 16.2195L9.66694 16.2225L9.66394 16.2255L9.65494 16.2346L9.63094 16.2574L9.56344 16.3181C9.24646 16.5861 8.90344 16.8137 8.53444 17.0008C7.83394 17.3558 6.81993 17.6896 5.49991 17.6896C4.44918 17.7021 3.41009 17.4662 2.46538 17.0008C2.09709 16.8148 1.75172 16.5857 1.43636 16.3181L1.36886 16.2574L1.34486 16.2346L1.33586 16.2255L1.32986 16.2195V16.2179C1.16837 16.0547 1.05979 15.8457 1.01853 15.6186C0.97727 15.3915 1.00529 15.1571 1.09886 14.9465L4.2669 7.82758H3.62489C3.32652 7.82758 3.04037 7.70768 2.82939 7.49428C2.6184 7.28088 2.49988 6.99146 2.49988 6.68965C2.49988 6.38785 2.6184 6.09842 2.82939 5.88501C3.04037 5.67161 3.32652 5.55173 3.62489 5.55173H6.97593C7.0417 5.55195 7.10638 5.53468 7.16344 5.50165L9.09544 4.38345C9.49294 4.15586 9.94144 4.03448 10.3989 4.03448H11.875V2.13793C11.875 1.83613 11.9935 1.5467 12.2045 1.33329C12.4155 1.11989 12.7016 1 13 1C13.2984 1 13.5845 1.11989 13.7955 1.33329C14.0065 1.5467 14.125 1.83613 14.125 2.13793ZM18.5426 14.9996C18.9701 15.2044 19.6196 15.4138 20.5001 15.4138C21.3806 15.4138 22.0301 15.2044 22.4576 14.9996L20.5001 10.5996L18.5426 14.9996ZM3.54239 14.9996C3.96989 15.2044 4.6194 15.4138 5.49991 15.4138C6.38042 15.4138 7.02994 15.2044 7.45744 14.9996L5.49991 10.5996L3.54239 14.9996Z" fill="#977F68" stroke="#977F68" stroke-width="0.5"/>
</svg>
