<svg width="77" height="68" viewBox="0 0 77 68" fill="none" xmlns="http://www.w3.org/2000/svg">
<path fill-rule="evenodd" clip-rule="evenodd" d="M52.0149 60.2154C47.6992 61.6058 42.9985 62.3694 38.08 62.3694C17.049 62.3694 0 48.4076 0 31.1847C0 13.9619 17.049 0 38.08 0C59.111 0 76.16 13.9619 76.16 31.1847C76.16 39.548 72.1398 47.1424 65.5957 52.7425C67.1665 56.3481 69.5018 60.3961 72.9733 64.4462C73.243 64.7631 73.4146 65.1479 73.4681 65.556C73.5215 65.964 73.4546 66.3784 73.2751 66.7509C73.0956 67.1233 72.811 67.4385 72.4543 67.6597C72.0977 67.8808 71.6838 67.9988 71.2608 68C71.1646 68 62.2686 66.9514 52.0149 60.2154ZM21.76 37.5172C24.7644 37.5172 27.2 35.1177 27.2 32.1576C27.2 29.1976 24.7644 26.798 21.76 26.798C18.7556 26.798 16.32 29.1976 16.32 32.1576C16.32 35.1177 18.7556 37.5172 21.76 37.5172ZM43.52 32.1576C43.52 35.1177 41.0844 37.5172 38.08 37.5172C35.0756 37.5172 32.64 35.1177 32.64 32.1576C32.64 29.1976 35.0756 26.798 38.08 26.798C41.0844 26.798 43.52 29.1976 43.52 32.1576ZM54.4 37.5172C57.4044 37.5172 59.84 35.1177 59.84 32.1576C59.84 29.1976 57.4044 26.798 54.4 26.798C51.3956 26.798 48.96 29.1976 48.96 32.1576C48.96 35.1177 51.3956 37.5172 54.4 37.5172Z" fill="#EEEEEE"/>
</svg>
