<svg width="19" height="18" viewBox="0 0 19 18" fill="none" xmlns="http://www.w3.org/2000/svg">
<path d="M17.375 16.875L13.5749 13.0749M13.5749 13.0749C14.2249 12.4249 14.7406 11.6532 15.0923 10.8039C15.4441 9.95463 15.6252 9.04437 15.6252 8.1251C15.6252 7.20583 15.4441 6.29557 15.0924 5.44628C14.7406 4.59699 14.2249 3.8253 13.5749 3.17528C12.9249 2.52526 12.1532 2.00964 11.3039 1.65785C10.4546 1.30606 9.54437 1.125 8.6251 1.125C7.70583 1.125 6.79557 1.30606 5.94628 1.65785C5.09699 2.00964 4.3253 2.52526 3.67528 3.17528C2.36251 4.48806 1.625 6.26856 1.625 8.1251C1.625 9.98164 2.36251 11.7621 3.67528 13.0749C4.98806 14.3877 6.76856 15.1252 8.6251 15.1252C10.4816 15.1252 12.2621 14.3877 13.5749 13.0749Z" stroke="white" stroke-width="1.5" stroke-linecap="round" stroke-linejoin="round"/>
</svg>
