<svg width="16" height="20" viewBox="0 0 16 20" fill="none" xmlns="http://www.w3.org/2000/svg">
<path fill-rule="evenodd" clip-rule="evenodd" d="M11.5556 8.18182H15.9467C15.982 8.37977 15.9999 8.58059 16 8.78182V17.2727C16 17.996 15.7191 18.6897 15.219 19.2012C14.7189 19.7127 14.0406 20 13.3333 20H2.66667C1.95942 20 1.28115 19.7127 0.781049 19.2012C0.280952 18.6897 0 17.996 0 17.2727V2.72727C0 2.00396 0.280952 1.31026 0.781049 0.7988C1.28115 0.287337 1.95942 0 2.66667 0H7.41333C7.6101 0.000114241 7.80645 0.0183699 8 0.0545454V4.54545C8 5.50988 8.3746 6.4348 9.0414 7.11675C9.7082 7.7987 10.6126 8.18182 11.5556 8.18182ZM7.11111 11.8182H3.55556C3.31981 11.8182 3.09372 11.914 2.92702 12.0844C2.76032 12.2549 2.66667 12.4862 2.66667 12.7273C2.66667 12.9684 2.76032 13.1996 2.92702 13.3701C3.09372 13.5406 3.31981 13.6364 3.55556 13.6364H7.11111C7.34686 13.6364 7.57295 13.5406 7.73965 13.3701C7.90635 13.1996 8 12.9684 8 12.7273C8 12.4862 7.90635 12.2549 7.73965 12.0844C7.57295 11.914 7.34686 11.8182 7.11111 11.8182ZM2.92702 17.0065C3.09372 17.177 3.31981 17.2727 3.55556 17.2727H12.4444C12.6802 17.2727 12.9063 17.177 13.073 17.0065C13.2397 16.836 13.3333 16.6047 13.3333 16.3636C13.3333 16.1225 13.2397 15.8913 13.073 15.7208C12.9063 15.5503 12.6802 15.4545 12.4444 15.4545H3.55556C3.31981 15.4545 3.09372 15.5503 2.92702 15.7208C2.76032 15.8913 2.66667 16.1225 2.66667 16.3636C2.66667 16.6047 2.76032 16.836 2.92702 17.0065ZM10 1V4.33055C10.0013 4.77291 10.1776 5.19677 10.4904 5.50957C10.8032 5.82237 11.2271 5.99868 11.6694 6H15C14.9583 5.94992 14.9082 5.89983 14.8664 5.8581L10.1419 1.13356C10.1002 1.09182 10.0501 1.04174 10 1Z" fill="white"/>
</svg>
