<svg width="16" height="16" viewBox="0 0 16 16" fill="none" xmlns="http://www.w3.org/2000/svg">
<g clip-path="url(#clip0_1857_461)">
<mask id="mask0_1857_461" style="mask-type:luminance" maskUnits="userSpaceOnUse" x="0" y="0" width="16" height="16">
<path d="M16 0H0V16H16V0Z" fill="white"/>
</mask>
<g mask="url(#mask0_1857_461)">
<path d="M12.4624 9.35643H8.33267C7.40014 9.35643 6.60083 8.56008 6.60083 7.631V3.58285C6.66744 3.05195 6.26779 2.65377 5.73492 2.72013C2.07142 3.25104 -0.659551 6.70191 0.139758 10.6836C0.606021 13.2718 2.73751 15.3291 5.33526 15.86C9.2652 16.6563 12.7955 13.9354 13.3283 10.2855C13.395 9.75461 12.9953 9.35643 12.4624 9.35643Z" fill="#977F68"/>
<path d="M15.9926 7.10084C15.7928 5.30904 14.9935 3.64997 13.6613 2.32271C12.3957 1.06181 10.6639 0.199089 8.86543 0C8.39917 0 7.99951 0.398178 7.99951 0.862719V7.36629C7.99951 7.76447 8.33256 8.02992 8.66561 8.02992H15.1933C15.6596 8.02992 16.0592 7.63175 15.9926 7.10084Z" fill="#977F68"/>
</g>
</g>
<defs>
<clipPath id="clip0_1857_461">
<rect width="16" height="16" fill="white"/>
</clipPath>
</defs>
</svg>
