<svg width="16" height="16" viewBox="0 0 16 16" fill="none" xmlns="http://www.w3.org/2000/svg">
<g clip-path="url(#clip0_1719_920)">
<path d="M12.4624 9.35718H8.33267C7.40014 9.35718 6.60083 8.56083 6.60083 7.63175V3.5836C6.66744 3.0527 6.26779 2.65452 5.73492 2.72088C2.07142 3.25179 -0.659551 6.70266 0.139758 10.6844C0.606021 13.2726 2.73751 15.3299 5.33526 15.8608C9.2652 16.6571 12.7955 13.9362 13.3283 10.2863C13.395 9.75536 12.9953 9.35718 12.4624 9.35718Z" fill="white"/>
<path d="M15.9927 7.10084C15.7929 5.30904 14.9936 3.64997 13.6614 2.32271C12.3958 1.06181 10.664 0.199089 8.86554 0C8.39928 0 7.99962 0.398178 7.99962 0.862719V7.36629C7.99962 7.76447 8.33267 8.02992 8.66572 8.02992H15.1934C15.6597 8.02992 16.0593 7.63175 15.9927 7.10084Z" fill="white"/>
</g>
<defs>
<clipPath id="clip0_1719_920">
<rect width="16" height="16" fill="white"/>
</clipPath>
</defs>
</svg>
