<svg width="8" height="8" viewBox="0 0 8 8" fill="none" xmlns="http://www.w3.org/2000/svg">
<path fill-rule="evenodd" clip-rule="evenodd" d="M0.234315 0.234315C0.546734 -0.0781049 1.05327 -0.0781049 1.36569 0.234315L4 2.86863L6.63431 0.234315C6.94673 -0.0781049 7.45327 -0.0781049 7.76569 0.234315C8.0781 0.546734 8.0781 1.05327 7.76569 1.36569L5.13137 4L7.76569 6.63431C8.0781 6.94673 8.0781 7.45327 7.76569 7.76569C7.45327 8.0781 6.94673 8.0781 6.63431 7.76569L4 5.13137L1.36569 7.76569C1.05327 8.0781 0.546734 8.0781 0.234315 7.76569C-0.0781049 7.45327 -0.0781049 6.94673 0.234315 6.63431L2.86863 4L0.234315 1.36569C-0.0781049 1.05327 -0.0781049 0.546734 0.234315 0.234315Z" fill="#B5B5B5"/>
</svg>
