<svg width="34" height="33" viewBox="0 0 34 33" fill="none" xmlns="http://www.w3.org/2000/svg">
<path d="M11.7355 10.7109L11.4563 10.7446L1.36912 11.9606L1.36883 11.9606C1.18388 11.9828 1.00819 12.0584 0.862735 12.1796C0.717205 12.3009 0.607929 12.4628 0.548969 12.6469C0.489993 12.831 0.484144 13.0287 0.532202 13.2162C0.580225 13.4036 0.679796 13.572 0.818021 13.702L11.7355 10.7109ZM11.7355 10.7109L11.8517 10.4549L16.1085 1.08229C16.1882 0.906905 16.3151 0.759562 16.4731 0.656818C16.6311 0.554129 16.8139 0.5 17 0.5C17.1861 0.5 17.369 0.554128 17.5269 0.656818C17.6849 0.759561 17.8118 0.906904 17.8915 1.08229L22.1468 10.4534L22.263 10.7094L22.5421 10.743L32.6308 11.9606L32.6312 11.9606C32.8161 11.9828 32.9918 12.0584 33.1373 12.1796C33.2828 12.3009 33.3921 12.4628 33.451 12.6469C33.51 12.831 33.5159 13.0287 33.4678 13.2162C33.4198 13.4036 33.3202 13.5721 33.1819 13.7021C33.1819 13.7022 33.1818 13.7022 33.1818 13.7022L25.7229 20.7105L25.5215 20.8997L25.5746 21.1709L27.5547 31.2939L27.5548 31.2944C27.5922 31.4847 27.5751 31.6819 27.5057 31.8622C27.4363 32.0425 27.3179 32.1976 27.1658 32.3099C27.0137 32.4222 26.8339 32.4872 26.6479 32.4983C26.4619 32.5094 26.2762 32.4661 26.1127 32.3729L26.1122 32.3726L17.2472 27.3307L17 27.1901L16.7528 27.3307L7.88798 32.3725C7.72459 32.4653 7.53914 32.5083 7.35342 32.4971C7.16767 32.4859 6.98822 32.421 6.83633 32.3089C6.68436 32.1967 6.56612 32.0419 6.49669 31.862C6.42723 31.682 6.40986 31.4851 6.4469 31.295L8.4269 21.1693L8.47994 20.8981L8.27849 20.7089L0.818237 13.7023L11.7355 10.7109Z" fill="#F5F5F5" stroke="#EEEBE9"/>
</svg>
