<svg width="67" height="67" viewBox="0 0 67 67" fill="none" xmlns="http://www.w3.org/2000/svg">
<path d="M45.5966 45.3439L63.361 63.2656M2 17.1717L10.5697 19.4926M5.63689 37.9778L11.9118 31.6506M17.0393 2L19.3341 10.6429M37.6569 5.67015L31.382 11.9973M34.8242 63.2294L22.1975 25.0702C22.0461 24.6144 22.0237 24.125 22.1327 23.657C22.2418 23.189 22.478 22.761 22.8149 22.4211C23.1517 22.0811 23.5759 21.8427 24.0396 21.7327C24.5033 21.6226 24.9883 21.6453 25.44 21.7981L63.2534 34.5299C63.7662 34.7035 64.2113 35.0364 64.525 35.481C64.8388 35.9256 65.005 36.459 64.9999 37.0048C64.9948 37.5505 64.8186 38.0807 64.4965 38.5192C64.1745 38.9577 63.7232 39.2821 63.2073 39.4458L46.5852 44.7184C46.1914 44.8421 45.833 45.0598 45.5404 45.3532C45.2479 45.6466 45.0299 46.007 44.905 46.4036L39.6905 63.1829C39.5294 63.7054 39.2082 64.1629 38.773 64.4895C38.3379 64.816 37.8113 64.9947 37.269 64.9999C36.7268 65.0051 36.1969 64.8364 35.7557 64.5182C35.3145 64.2001 34.9847 63.7488 34.814 63.2294H34.8242Z" stroke="#BFBFBF" stroke-width="3" stroke-linecap="round" stroke-linejoin="round"/>
</svg>
