<svg width="21" height="15" viewBox="0 0 21 15" fill="none" xmlns="http://www.w3.org/2000/svg">
<path d="M0.1239 8.30666C0.209257 8.90455 0.529162 9.45359 1.02395 9.85136C1.51873 10.2491 2.1546 10.4685 2.81295 10.4685C3.4713 10.4685 4.10717 10.2491 4.60195 9.85136C5.09674 9.45359 5.41664 8.90455 5.502 8.30666H0.1239ZM14.7764 13.307C14.7766 13.3576 14.7659 13.4077 14.7449 13.4544C14.7239 13.5012 14.6931 13.5437 14.6542 13.5795C14.6152 13.6154 14.569 13.6438 14.518 13.6633C14.4671 13.6827 14.4125 13.6928 14.3573 13.6929H6.52176C6.2916 13.6929 6.10176 13.5198 6.10176 13.307C6.10254 13.2055 6.14713 13.1083 6.22581 13.0368C6.30449 12.9652 6.41088 12.9251 6.52176 12.9251H14.3569C14.5887 12.9251 14.7764 13.0959 14.7764 13.307ZM6.14754 13.8894H14.7311V15H6.14754V13.8894ZM15.498 8.30666C15.583 8.90485 15.9027 9.45428 16.3975 9.85249C16.8922 10.2507 17.5282 10.4705 18.1868 10.4708C18.8455 10.471 19.4817 10.2514 19.9763 9.85306C20.471 9.45473 20.7903 8.90499 20.8744 8.30666H15.498ZM20.7266 7.53385L18.5245 4.75573H19.7018C19.9882 4.75573 20.2188 4.5407 20.2188 4.27489C20.2188 4.01139 19.9878 3.79866 19.7018 3.79866H13.4656C13.2806 3.33157 12.9645 2.91738 12.5491 2.59782C12.1336 2.27826 11.6336 2.0646 11.0993 1.97838V0.479306C11.0993 0.212726 10.8658 1.40968e-06 10.5764 1.40968e-06L10.5277 0.00500218L10.479 1.40968e-06C10.4103 -0.000151583 10.3422 0.0121501 10.2787 0.0361974C10.2152 0.0602448 10.1576 0.0955626 10.109 0.140116C10.0605 0.184669 10.0221 0.237577 9.99598 0.295791C9.96987 0.354005 9.95661 0.416375 9.95694 0.479306V1.97761C9.42282 2.06396 8.92296 2.27767 8.5077 2.59722C8.09244 2.91678 7.77643 3.3309 7.5915 3.79789H1.35408C1.06974 3.79789 0.8379 4.01062 0.8379 4.27412C0.8379 4.54031 1.06974 4.75496 1.35408 4.75496H2.47758L0.2751 7.53308H0V8.04624H5.62716V7.53308H5.3508L3.14916 4.75573H8.26014C8.26014 4.64725 8.27316 4.5407 8.2908 4.43876C8.30886 4.39068 8.32104 4.34182 8.32104 4.29143C8.41589 3.92604 8.61869 3.59161 8.90724 3.32476C9.19578 3.0579 9.55894 2.86892 9.95694 2.77851V8.04739H9.9351C9.89016 10.0292 8.86074 11.7576 7.33362 12.7289H13.7235C12.196 11.7576 11.1674 10.0292 11.1199 8.04739H11.0998V2.77851C11.4977 2.86898 11.8608 3.05799 12.1492 3.32484C12.4377 3.59169 12.6404 3.92609 12.7352 4.29143C12.7375 4.34169 12.748 4.3908 12.7667 4.43876C12.7835 4.54108 12.794 4.64725 12.794 4.75573H17.8517L15.6492 7.53385H15.3745V8.04701H21V7.53385H20.7266ZM2.5893 7.53385H0.8316L2.5893 5.3162V7.53385ZM3.03912 7.53385V5.3162L4.79682 7.53385H3.03912ZM17.9626 7.53385H16.204L17.9626 5.3162V7.53385ZM18.4103 7.53385V5.3162L20.1701 7.53385H18.4103ZM3.33522 3.1301C3.33137 3.25451 3.2747 3.37265 3.17725 3.4594C3.0798 3.54615 2.94927 3.59469 2.81337 3.59469C2.67747 3.59469 2.54694 3.54615 2.44949 3.4594C2.35204 3.37265 2.29537 3.25451 2.29152 3.1301C2.29152 2.86621 2.52588 2.65079 2.81442 2.65079C3.1017 2.65041 3.33522 2.86621 3.33522 3.1301ZM18.7089 3.10471C18.7089 3.37052 18.4754 3.58132 18.1873 3.58132C18.1187 3.58173 18.0508 3.56969 17.9874 3.54589C17.924 3.5221 17.8664 3.48703 17.8179 3.4427C17.7693 3.39838 17.7309 3.34569 17.7048 3.28767C17.6787 3.22965 17.6653 3.16747 17.6656 3.10471C17.6628 3.04035 17.6742 2.97614 17.6991 2.91592C17.7241 2.85571 17.7621 2.80073 17.8108 2.75428C17.8595 2.70783 17.918 2.67088 17.9826 2.64564C18.0473 2.62039 18.1169 2.60738 18.1873 2.60738C18.2576 2.60738 18.3272 2.62039 18.3919 2.64564C18.4566 2.67088 18.515 2.70783 18.5637 2.75428C18.6125 2.80073 18.6504 2.85571 18.6754 2.91592C18.7003 2.97614 18.7117 3.04035 18.7089 3.10471Z" fill="#CFCFCF"/>
</svg>
