<svg width="20" height="20" viewBox="0 0 20 20" fill="none" xmlns="http://www.w3.org/2000/svg">
<path d="M16.3499 4.79727V6.8C16.3499 7.25245 16.7483 7.65 17.1999 7.65C17.6515 7.65 18.0499 7.25245 18.0499 6.8V2.7696C18.0499 2.31645 17.6836 1.95 17.2319 1.95H13.1679C12.7137 1.95 12.3499 2.35023 12.3499 2.8C12.3499 3.25245 12.7483 3.65 13.1999 3.65H15.1821L9.38951 9.45112L9.38949 9.45115C9.23612 9.60493 9.15 9.81326 9.15 10.0305C9.15 10.2476 9.23612 10.456 9.38949 10.6098L9.38953 10.6098C9.46549 10.6858 9.55569 10.7461 9.65496 10.7872C9.75423 10.8284 9.86063 10.8495 9.96809 10.8495C10.0755 10.8495 10.182 10.8284 10.2812 10.7872C10.3805 10.7461 10.4707 10.6858 10.5467 10.6098L10.5467 10.6098L16.3499 4.79727ZM3.86967 3.86967C4.01032 3.72902 4.20109 3.65 4.4 3.65H8.4136C8.63903 3.65 8.85523 3.56045 9.01464 3.40104C9.17405 3.24163 9.2636 3.02543 9.2636 2.8C9.2636 2.57457 9.17405 2.35837 9.01464 2.19896C8.85523 2.03955 8.63903 1.95 8.4136 1.95H4.4C3.75022 1.95 3.12705 2.20812 2.66759 2.66759C2.20812 3.12705 1.95 3.75022 1.95 4.4V15.6C1.95 16.2498 2.20812 16.8729 2.66759 17.3324C3.12705 17.7919 3.75022 18.05 4.4 18.05H15.6C16.2498 18.05 16.8729 17.7919 17.3324 17.3324C17.7919 16.8729 18.05 16.2498 18.05 15.6V11.3896C18.05 11.1642 17.9604 10.948 17.801 10.7886C17.6416 10.6292 17.4254 10.5396 17.2 10.5396C16.9746 10.5396 16.7584 10.6292 16.599 10.7886C16.4396 10.948 16.35 11.1642 16.35 11.3896V15.6C16.35 15.7989 16.271 15.9897 16.1303 16.1303C15.9897 16.271 15.7989 16.35 15.6 16.35H4.4C4.20109 16.35 4.01032 16.271 3.86967 16.1303C3.72902 15.9897 3.65 15.7989 3.65 15.6V4.4C3.65 4.20109 3.72902 4.01032 3.86967 3.86967Z" fill="#999999" stroke="#999999" stroke-width="0.1"/>
</svg>
