<svg width="56" height="56" viewBox="0 0 56 56" fill="none" xmlns="http://www.w3.org/2000/svg">
<path fill-rule="evenodd" clip-rule="evenodd" d="M28 56C31.677 56 35.318 55.2758 38.7151 53.8686C42.1123 52.4615 45.1989 50.399 47.799 47.799C50.399 45.1989 52.4615 42.1123 53.8686 38.7151C55.2758 35.318 56 31.677 56 28C56 24.323 55.2758 20.682 53.8686 17.2849C52.4615 13.8877 50.399 10.8011 47.799 8.20101C45.1989 5.60097 42.1123 3.5385 38.7151 2.13137C35.318 0.724241 31.677 -5.47918e-08 28 0C20.5739 1.10657e-07 13.452 2.94999 8.20101 8.20101C2.94999 13.452 0 20.5739 0 28C0 35.4261 2.94999 42.548 8.20101 47.799C13.452 53.05 20.5739 56 28 56ZM27.2782 39.3244L42.8338 20.6578L38.0551 16.6756L24.6773 32.7258L17.7551 25.8004L13.356 30.1996L22.6893 39.5329L25.0973 41.9409L27.2782 39.3244Z" fill="#008113"/>
</svg>
