<svg width="36" height="36" viewBox="0 0 36 36" fill="none" xmlns="http://www.w3.org/2000/svg">
<rect width="36" height="36" rx="4" fill="white"/>
<path fill-rule="evenodd" clip-rule="evenodd" d="M21.1111 16.3636H24.9533C24.9843 16.5418 24.9999 16.7225 25 16.9036V24.5455C25 25.1964 24.7542 25.8208 24.3166 26.2811C23.879 26.7414 23.2855 27 22.6667 27H13.3333C12.7145 27 12.121 26.7414 11.6834 26.2811C11.2458 25.8208 11 25.1964 11 24.5455V11.4545C11 10.8036 11.2458 10.1792 11.6834 9.71892C12.121 9.2586 12.7145 9 13.3333 9H17.4867C17.6588 9.0001 17.8306 9.01653 18 9.04909V13.0909C18 13.9589 18.3278 14.7913 18.9112 15.4051C19.4947 16.0188 20.286 16.3636 21.1111 16.3636ZM17.2222 19.6364H14.1111C13.9048 19.6364 13.707 19.7226 13.5611 19.876C13.4153 20.0294 13.3333 20.2375 13.3333 20.4545C13.3333 20.6715 13.4153 20.8796 13.5611 21.0331C13.707 21.1865 13.9048 21.2727 14.1111 21.2727H17.2222C17.4285 21.2727 17.6263 21.1865 17.7722 21.0331C17.9181 20.8796 18 20.6715 18 20.4545C18 20.2375 17.9181 20.0294 17.7722 19.876C17.6263 19.7226 17.4285 19.6364 17.2222 19.6364ZM14.1111 24.5455H21.8889C22.0952 24.5455 22.293 24.4593 22.4389 24.3058C22.5847 24.1524 22.6667 23.9443 22.6667 23.7273C22.6667 23.5103 22.5847 23.3022 22.4389 23.1487C22.293 22.9953 22.0952 22.9091 21.8889 22.9091H14.1111C13.9048 22.9091 13.707 22.9953 13.5611 23.1487C13.4153 23.3022 13.3333 23.5103 13.3333 23.7273C13.3333 23.9443 13.4153 24.1524 13.5611 24.3058C13.707 24.4593 13.9048 24.5455 14.1111 24.5455ZM20 10V13.3306C20.0011 13.7729 20.1421 14.1968 20.3923 14.5096C20.6426 14.8224 20.9817 14.9987 21.3356 15H24C23.9666 14.9499 23.9265 14.8998 23.8932 14.8581L20.1135 10.1336C20.0801 10.0918 20.0401 10.0417 20 10Z" fill="url(#paint0_linear_2177_1599)"/>
<defs>
<linearGradient id="paint0_linear_2177_1599" x1="18" y1="9" x2="18" y2="27" gradientUnits="userSpaceOnUse">
<stop stop-color="#6593F5"/>
<stop offset="1" stop-color="#466AE2"/>
</linearGradient>
</defs>
</svg>
