<svg width="18" height="18" viewBox="0 0 18 18" fill="none" xmlns="http://www.w3.org/2000/svg">
<path d="M9 0C13.9707 0 18 4.0293 18 9C18 13.9707 13.9707 18 9 18C4.0293 18 0 13.9707 0 9C0 4.0293 4.0293 0 9 0ZM8.991 7.2H8.1C7.87061 7.20025 7.64997 7.28809 7.48317 7.44556C7.31637 7.60304 7.21599 7.81826 7.20254 8.04726C7.1891 8.27625 7.26361 8.50174 7.41084 8.67765C7.55807 8.85356 7.76691 8.96661 7.9947 8.9937L8.1 9V13.491C8.1 13.959 8.4546 14.346 8.91 14.3946L9.009 14.4H9.45C9.63928 14.4 9.82375 14.3403 9.97716 14.2295C10.1306 14.1186 10.2451 13.9622 10.3045 13.7825C10.3639 13.6028 10.3652 13.4089 10.3081 13.2284C10.2509 13.048 10.1384 12.8901 9.9864 12.7773L9.9 12.7206V8.109C9.9 7.641 9.5454 7.254 9.09 7.2054L8.991 7.2ZM9 4.5C8.7613 4.5 8.53239 4.59482 8.3636 4.7636C8.19482 4.93239 8.1 5.1613 8.1 5.4C8.1 5.63869 8.19482 5.86761 8.3636 6.0364C8.53239 6.20518 8.7613 6.3 9 6.3C9.23869 6.3 9.46761 6.20518 9.6364 6.0364C9.80518 5.86761 9.9 5.63869 9.9 5.4C9.9 5.1613 9.80518 4.93239 9.6364 4.7636C9.46761 4.59482 9.23869 4.5 9 4.5Z" fill="white"/>
</svg>
