<svg width="22" height="17" viewBox="0 0 22 17" fill="none" xmlns="http://www.w3.org/2000/svg">
<path d="M13.2158 5.11719C13.2158 4.66963 13.3936 4.24041 13.7101 3.92394C14.0265 3.60748 14.4558 3.42969 14.9033 3.42969C15.3509 3.42969 15.7801 3.60748 16.0966 3.92394C16.413 4.24041 16.5908 4.66963 16.5908 5.11719C16.5908 5.56474 16.413 5.99396 16.0966 6.31043C15.7801 6.6269 15.3509 6.80469 14.9033 6.80469C14.4558 6.80469 14.0265 6.6269 13.7101 6.31043C13.3936 5.99396 13.2158 5.56474 13.2158 5.11719Z" fill="white"/>
<path fill-rule="evenodd" clip-rule="evenodd" d="M5.64244 0.230745C9.18515 -0.0769148 12.7479 -0.0769148 16.2906 0.230745L17.9893 0.379244C18.7789 0.448393 19.5224 0.781109 20.1 1.32388C20.6777 1.86666 21.056 2.58794 21.1742 3.37174C21.6844 6.76517 21.6844 10.2158 21.1742 13.6092C21.056 14.393 20.6777 15.1143 20.1 15.6571C19.5224 16.1999 18.7789 16.5326 17.9893 16.6017L16.2906 16.7491C12.7468 17.0574 9.18506 17.0574 5.64244 16.7491L3.94369 16.6017C3.15385 16.5328 2.41016 16.2002 1.83227 15.6574C1.25438 15.1146 0.875885 14.3932 0.757688 13.6092C0.247437 10.2158 0.247437 6.76517 0.757688 3.37174C0.875836 2.58794 1.25417 1.86666 1.83183 1.32388C2.4095 0.781109 3.15293 0.448393 3.94256 0.379244L5.64244 0.230745ZM16.1443 1.91262C12.6986 1.61223 9.23328 1.61223 5.78756 1.91262L4.08881 2.05999C3.67693 2.09643 3.28922 2.27016 2.9879 2.55333C2.68658 2.83649 2.48912 3.21267 2.42719 3.62149C2.13732 5.54593 2.02023 7.49244 2.07731 9.43774L6.43219 5.08174C6.51347 5.0006 6.61046 4.9369 6.71722 4.89456C6.82398 4.85221 6.93827 4.83211 7.05307 4.83548C7.16787 4.83885 7.28078 4.86562 7.38488 4.91416C7.48897 4.96269 7.58206 5.03197 7.65844 5.11774L11.7894 9.76399L14.6357 8.81449C14.7917 8.76226 14.9596 8.75679 15.1187 8.79877C15.2779 8.84075 15.4212 8.92833 15.5312 9.05074L19.4901 13.4495L19.5058 13.3595C19.9913 10.1316 19.9913 6.84934 19.5058 3.62149C19.4438 3.21249 19.2462 2.83619 18.9447 2.553C18.6431 2.26982 18.2551 2.09619 17.8431 2.05999L16.1443 1.91262ZM18.4134 14.777L14.6458 10.5909L11.7951 11.5404C11.6384 11.5927 11.4698 11.5979 11.3102 11.5553C11.1506 11.5127 11.0071 11.4242 10.8973 11.3007L6.99244 6.90762L2.21794 11.681C2.27269 12.242 2.34206 12.8011 2.42606 13.3584C2.48781 13.7676 2.68534 14.1441 2.98691 14.4275C3.28847 14.711 3.67656 14.8847 4.08881 14.921L5.78756 15.0684C9.23344 15.3676 12.6984 15.3676 16.1443 15.0684L17.8431 14.921C18.0433 14.903 18.2368 14.8535 18.4134 14.777Z" fill="white"/>
</svg>
