<svg width="17" height="18" viewBox="0 0 17 18" fill="none" xmlns="http://www.w3.org/2000/svg">
<path d="M11.1565 4.52138L5.16943 10.3915C4.99578 10.5559 4.85727 10.7526 4.76198 10.9701C4.66669 11.1876 4.61654 11.4215 4.61444 11.6582C4.61234 11.8949 4.65834 12.1296 4.74976 12.3487C4.84118 12.5677 4.97618 12.7668 5.14689 12.9342C5.3176 13.1015 5.5206 13.2339 5.74404 13.3235C5.96748 13.4131 6.20689 13.4583 6.4483 13.4562C6.68971 13.4541 6.92828 13.405 7.1501 13.3115C7.37192 13.2181 7.57254 13.0823 7.74025 12.9121L13.571 7.04197C14.2334 6.36957 14.5999 5.46899 14.5916 4.53421C14.5833 3.59943 14.2009 2.70524 13.5267 2.04422C12.8525 1.3832 11.9405 1.00826 10.9871 1.00013C10.0337 0.992012 9.11513 1.35136 8.42932 2.00079L2.59769 7.86999C1.5747 8.87298 1 10.2333 1 11.6518C1 13.0702 1.5747 14.4305 2.59769 15.4335C3.62067 16.4365 5.00813 17 6.45484 17C7.90155 17 9.28901 16.4365 10.312 15.4335L16 9.86917" stroke="#C7C7C7" stroke-width="2" stroke-linecap="round" stroke-linejoin="round"/>
</svg>
