<svg width="67" height="62" viewBox="0 0 67 62" fill="none" xmlns="http://www.w3.org/2000/svg">
<path fill-rule="evenodd" clip-rule="evenodd" d="M45.7589 54.5802C41.9622 55.8217 37.8269 56.5036 33.5 56.5036C14.9985 56.5036 0 44.0367 0 28.658C0 13.2794 14.9985 0.8125 33.5 0.8125C52.0015 0.8125 67 13.2794 67 28.658C67 36.1258 63.4633 42.907 57.7063 47.9075C59.0881 51.127 61.1426 54.7416 64.1966 58.358C64.4339 58.6409 64.5848 58.9846 64.6318 59.3489C64.6788 59.7133 64.62 60.0833 64.4621 60.4159C64.3042 60.7484 64.0538 61.0299 63.74 61.2273C63.4263 61.4248 63.0622 61.5302 62.6901 61.5312C62.6054 61.5312 54.7794 60.5949 45.7589 54.5802ZM19.1426 34.3115C21.7857 34.3115 23.9283 32.1689 23.9283 29.5258C23.9283 26.8827 21.7857 24.7401 19.1426 24.7401C16.4995 24.7401 14.3569 26.8827 14.3569 29.5258C14.3569 32.1689 16.4995 34.3115 19.1426 34.3115ZM38.2858 29.5258C38.2858 32.1689 36.1432 34.3115 33.5001 34.3115C30.857 34.3115 28.7144 32.1689 28.7144 29.5258C28.7144 26.8827 30.857 24.7401 33.5001 24.7401C36.1432 24.7401 38.2858 26.8827 38.2858 29.5258ZM47.857 34.3115C50.5001 34.3115 52.6427 32.1689 52.6427 29.5258C52.6427 26.8827 50.5001 24.7401 47.857 24.7401C45.2139 24.7401 43.0713 26.8827 43.0713 29.5258C43.0713 32.1689 45.2139 34.3115 47.857 34.3115Z" fill="#FAF8F2"/>
</svg>
