<svg width="19" height="20" viewBox="0 0 19 20" fill="none" xmlns="http://www.w3.org/2000/svg">
<path d="M12.5511 4.96155L5.8156 11.5654C5.62025 11.7504 5.46442 11.9717 5.35723 12.2164C5.25003 12.461 5.19361 12.7242 5.19125 12.9904C5.18889 13.2567 5.24064 13.5208 5.34348 13.7673C5.44633 14.0137 5.5982 14.2376 5.79025 14.4259C5.9823 14.6142 6.21067 14.7631 6.46204 14.864C6.71341 14.9648 6.98275 15.0155 7.25433 15.0132C7.52592 15.0109 7.79432 14.9556 8.04386 14.8505C8.29341 14.7454 8.51911 14.5926 8.70779 14.4011L15.2674 7.79722C16.0125 7.04076 16.4249 6.02762 16.4155 4.97599C16.4062 3.92436 15.976 2.91839 15.2175 2.17475C14.4591 1.43111 13.433 1.00929 12.3605 1.00015C11.2879 0.991013 10.2545 1.39528 9.48299 2.12589L2.9224 8.72873C1.77154 9.8571 1.125 11.3875 1.125 12.9832C1.125 14.579 1.77154 16.1094 2.9224 17.2377C4.07325 18.3661 5.63414 19 7.26169 19C8.88925 19 10.4501 18.3661 11.601 17.2377L18 10.9778" stroke="white" stroke-width="1.5" stroke-linecap="round" stroke-linejoin="round"/>
</svg>
