<svg width="40" height="40" viewBox="0 0 40 40" fill="none" xmlns="http://www.w3.org/2000/svg">
<g clip-path="url(#clip0_209_1128)">
<g filter="url(#filter0_i_209_1128)">
<path d="M35.1405 4.9117C31.3005 2.33167 26.9804 2.57167 23.5404 4.3917L20.0003 15.0118H23.3204C24.6604 15.0118 25.6204 16.3119 25.2404 17.5919L21.6003 29.7321C21.4203 30.3121 20.5603 30.1321 20.6203 29.532L22.0004 17.0119H18.6603C17.3403 17.0119 16.3803 15.7319 16.7403 14.4718L19.1003 6.25172C15.4003 2.79167 9.42018 1.65166 4.54011 5.0917C1.64007 7.15173 4.22651e-05 10.4118 4.22651e-05 13.9918C-0.019958 21.6119 7.06014 27.412 17.3203 36.5922C18.8403 37.9522 21.1603 37.9722 22.7004 36.6121C32.6605 27.772 40.4406 21.4519 39.9806 13.3718C39.8006 9.91177 38.0006 6.85173 35.1405 4.9117Z" fill="url(#paint0_linear_209_1128)"/>
</g>
</g>
<defs>
<filter id="filter0_i_209_1128" x="0" y="3" width="40" height="36.6223" filterUnits="userSpaceOnUse" color-interpolation-filters="sRGB">
<feFlood flood-opacity="0" result="BackgroundImageFix"/>
<feBlend mode="normal" in="SourceGraphic" in2="BackgroundImageFix" result="shape"/>
<feColorMatrix in="SourceAlpha" type="matrix" values="0 0 0 0 0 0 0 0 0 0 0 0 0 0 0 0 0 0 127 0" result="hardAlpha"/>
<feOffset dy="2"/>
<feGaussianBlur stdDeviation="1"/>
<feComposite in2="hardAlpha" operator="arithmetic" k2="-1" k3="1"/>
<feColorMatrix type="matrix" values="0 0 0 0 0 0 0 0 0 0 0 0 0 0 0 0 0 0 0.25 0"/>
<feBlend mode="normal" in2="shape" result="effect1_innerShadow_209_1128"/>
</filter>
<linearGradient id="paint0_linear_209_1128" x1="20" y1="3" x2="20" y2="37.6222" gradientUnits="userSpaceOnUse">
<stop stop-color="#977F68"/>
<stop offset="1" stop-color="#B49E89"/>
</linearGradient>
<clipPath id="clip0_209_1128">
<rect width="40" height="40" fill="white"/>
</clipPath>
</defs>
</svg>
