<svg width="50" height="56" viewBox="0 0 50 56" fill="none" xmlns="http://www.w3.org/2000/svg">
<path d="M34.2528 47.0033C34.2528 49.3907 33.3044 51.6802 31.6163 53.3683C29.9282 55.0564 27.6387 56.0047 25.2514 56.0047C22.8641 56.0047 20.5745 55.0564 18.8864 53.3683C17.1984 51.6802 16.25 49.3907 16.25 47.0033C16.25 44.616 17.1984 42.3265 18.8864 40.6384C20.5745 38.9503 22.8641 38.002 25.2514 38.002C27.6387 38.002 29.9282 38.9503 31.6163 40.6384C33.3044 42.3265 34.2528 44.616 34.2528 47.0033Z" fill="url(#paint0_linear_1359_459)"/>
<path d="M25.2476 1.99609C19.8761 1.99609 14.7247 4.1299 10.9265 7.9281C7.12827 11.7263 4.99447 16.8778 4.99447 22.2492V33.0554L0.655798 43.9201C0.519908 44.2613 0.469595 44.6306 0.50925 44.9957C0.548906 45.3608 0.677323 45.7107 0.883296 46.0147C1.08927 46.3188 1.36654 46.5679 1.6909 46.7401C2.01526 46.9124 2.37685 47.0027 2.74412 47.003H47.7511C48.1183 47.0027 48.4799 46.9124 48.8043 46.7401C49.1287 46.5679 49.4059 46.3188 49.6119 46.0147C49.8179 45.7107 49.9463 45.3608 49.9859 44.9957C50.0256 44.6306 49.9753 44.2613 49.8394 43.9201L45.5007 33.0509V22.2492C45.5007 16.8778 43.3669 11.7263 39.5687 7.9281C35.7705 4.1299 30.6191 1.99609 25.2476 1.99609Z" fill="url(#paint1_linear_1359_459)"/>
<circle cx="39.5" cy="7.5" r="7.5" fill="#FF0000"/>
<defs>
<linearGradient id="paint0_linear_1359_459" x1="25.3099" y1="44.753" x2="25.3099" y2="56.0047" gradientUnits="userSpaceOnUse">
<stop offset="0.152" stop-color="#EB4824"/>
<stop offset="1" stop-color="#FFCD0F" stop-opacity="0.988"/>
</linearGradient>
<linearGradient id="paint1_linear_1359_459" x1="50.0734" y1="46.985" x2="6.70023" y2="7.95952" gradientUnits="userSpaceOnUse">
<stop stop-color="#FF6F47"/>
<stop offset="1" stop-color="#FFCD0F"/>
</linearGradient>
</defs>
</svg>
