<svg width="20" height="20" viewBox="0 0 20 20" fill="none" xmlns="http://www.w3.org/2000/svg">
<path d="M1.00336 8.69407C0.992616 8.57035 1.00771 8.44574 1.04768 8.32816C1.08765 8.21058 1.15162 8.10259 1.23554 8.01105C1.31946 7.91951 1.42149 7.84641 1.53516 7.79639C1.64883 7.74637 1.77165 7.72052 1.89584 7.72049H3.60688C3.84453 7.72049 4.07245 7.8149 4.24049 7.98294C4.40854 8.15099 4.50294 8.37891 4.50294 8.61656V17.1292C4.50294 17.3668 4.40854 17.5948 4.24049 17.7628C4.07245 17.9308 3.84453 18.0253 3.60688 18.0253H2.63644C2.41217 18.0253 2.19603 17.9413 2.03071 17.7897C1.86539 17.6382 1.76291 17.4301 1.74351 17.2067L1.00336 8.69407ZM7.19114 8.33654C7.19114 7.96198 7.42412 7.62685 7.76238 7.46735C8.50119 7.11878 9.75971 6.41851 10.3274 5.47182C11.059 4.25137 11.197 2.0466 11.2194 1.54167C11.2225 1.47088 11.2207 1.40009 11.2302 1.3302C11.3516 0.455189 13.0402 1.47715 13.6876 2.55781C14.0393 3.14384 14.0841 3.914 14.0474 4.51571C14.0075 5.15909 13.8189 5.78051 13.6339 6.3979L13.2396 7.71377H18.1039C18.2423 7.71376 18.3789 7.74584 18.5029 7.80747C18.6268 7.86911 18.7348 7.95863 18.8184 8.06901C18.9019 8.1794 18.9588 8.30764 18.9845 8.44369C19.0101 8.57973 19.0039 8.71988 18.9663 8.85312L16.5604 17.3729C16.5073 17.5608 16.3943 17.7262 16.2385 17.844C16.0827 17.9617 15.8928 18.0254 15.6975 18.0253H8.08721C7.84956 18.0253 7.62164 17.9308 7.45359 17.7628C7.28555 17.5948 7.19114 17.3668 7.19114 17.1292V8.33654Z" stroke="#999999" stroke-width="1.5" stroke-linecap="round" stroke-linejoin="round"/>
</svg>
