<svg width="20" height="20" viewBox="0 0 20 20" fill="none" xmlns="http://www.w3.org/2000/svg">
<g clip-path="url(#clip0_1970_457)">
<path d="M11.2169 10L19.7981 1.41714L20 1.21143L19.7981 1.00953L18.9869 0.201904L18.785 0L18.5831 0.201904L10.0019 8.78476L1.41687 0.201904L1.21501 0L1.01314 0.201904L0.201866 1.00953L0 1.21143L0.201866 1.41714L8.7869 10L0.201866 18.5829L0 18.7848L0.201866 18.9867L1.01314 19.7981L1.21501 20L1.41687 19.7981L10.0019 11.2152L18.5831 19.7981L18.785 20L18.9869 19.7981L19.7981 18.9867L20 18.7848L19.7981 18.5829L11.2169 10Z" fill="#989898"/>
</g>
<defs>
<clipPath id="clip0_1970_457">
<rect width="20" height="20" fill="white"/>
</clipPath>
</defs>
</svg>
