<svg width="34" height="33" viewBox="0 0 34 33" fill="none" xmlns="http://www.w3.org/2000/svg">
<path fill-rule="evenodd" clip-rule="evenodd" d="M18.3467 0.875526C18.228 0.614142 18.0381 0.392775 17.7994 0.237617C17.5608 0.0824576 17.2833 0 17 0C16.7167 0 16.4392 0.0824576 16.2006 0.237617C15.9619 0.392775 15.772 0.614142 15.6533 0.875526L11.3965 10.2481L1.30928 11.4642C1.02784 11.4979 0.761816 11.6129 0.542686 11.7955C0.323556 11.978 0.160495 12.2206 0.0728002 12.4943C-0.0148943 12.7681 -0.0235506 13.0617 0.0478556 13.3403C0.119262 13.6189 0.267741 13.8709 0.475722 14.0665L7.93619 21.0734L5.95613 31.1994C5.90113 31.4817 5.92684 31.7741 6.03021 32.042C6.13358 32.3099 6.31029 32.5421 6.53945 32.7112C6.76861 32.8803 7.04064 32.9792 7.32337 32.9962C7.60611 33.0132 7.88773 32.9477 8.13494 32.8072L17 27.7653L25.8651 32.8072C26.1124 32.9483 26.3944 33.0143 26.6776 32.9974C26.9607 32.9806 27.2332 32.8816 27.4627 32.7122C27.6922 32.5428 27.869 32.3102 27.9723 32.0418C28.0756 31.7734 28.1009 31.4805 28.0454 31.1979L26.0653 21.0749L33.5243 14.0665C33.7323 13.8709 33.8807 13.6189 33.9521 13.3403C34.0236 13.0617 34.0149 12.7681 33.9272 12.4943C33.8395 12.2206 33.6764 11.978 33.4573 11.7955C33.2382 11.6129 32.9722 11.4979 32.6907 11.4642L22.602 10.2466L18.3467 0.875526Z" fill="url(#paint0_linear_1759_6536)"/>
<defs>
<linearGradient id="paint0_linear_1759_6536" x1="17" y1="0" x2="17" y2="33" gradientUnits="userSpaceOnUse">
<stop stop-color="#FFE680"/>
<stop offset="1" stop-color="#FFD21F"/>
</linearGradient>
</defs>
</svg>
