<svg width="11" height="7" viewBox="0 0 11 7" fill="none" xmlns="http://www.w3.org/2000/svg">
<path fill-rule="evenodd" clip-rule="evenodd" d="M6.01327 6.14691C5.87074 6.30313 5.67744 6.3909 5.4759 6.3909C5.27436 6.3909 5.08106 6.30313 4.93853 6.14691L0.638793 1.43274C0.566198 1.35587 0.508294 1.26391 0.468459 1.16224C0.428625 1.06057 0.407658 0.951224 0.406781 0.840574C0.405904 0.729925 0.425135 0.620192 0.463352 0.517778C0.501569 0.415365 0.558008 0.322321 0.629374 0.244077C0.700738 0.165833 0.785601 0.103956 0.879011 0.0620548C0.972422 0.0201541 1.07251 -0.000930502 1.17343 3.1016e-05C1.27435 0.000992534 1.37409 0.0239811 1.46682 0.0676553C1.55955 0.111329 1.64342 0.174814 1.71354 0.254406L5.4759 4.37941L9.23826 0.254407C9.38161 0.102608 9.57361 0.0186129 9.7729 0.0205116C9.97219 0.0224103 10.1628 0.110051 10.3037 0.264558C10.4447 0.419064 10.5246 0.628075 10.5263 0.846572C10.5281 1.06507 10.4515 1.27557 10.313 1.43274L6.01327 6.14691Z" fill="white"/>
</svg>
