<svg width="24" height="24" viewBox="0 0 24 24" fill="none" xmlns="http://www.w3.org/2000/svg">
<path fill-rule="evenodd" clip-rule="evenodd" d="M16.6316 14.0488C18.3206 14.0488 19.9404 14.7271 21.1347 15.9347C22.3291 17.1423 23 18.7801 23 20.4878V22.2439C23 22.7096 22.817 23.1563 22.4913 23.4856C22.1656 23.815 21.7238 24 21.2631 24C20.8025 24 20.3608 23.815 20.035 23.4856C19.7093 23.1563 19.5264 22.7096 19.5264 22.2439V20.4878C19.5264 19.7116 19.2213 18.9671 18.6784 18.4182C18.1356 17.8694 17.3993 17.561 16.6316 17.561H7.36842C6.60069 17.561 5.8644 17.8694 5.32154 18.4182C4.77867 18.9671 4.47369 19.7116 4.47369 20.4878V22.2439C4.47369 22.7096 4.2907 23.1563 3.96498 23.4856C3.63926 23.815 3.19748 24 2.73684 24C2.2762 24 1.83443 23.815 1.50871 23.4856C1.18299 23.1563 1 22.7096 1 22.2439V20.4878C1 18.7801 1.67096 17.1423 2.86527 15.9347C4.05958 14.7271 5.67941 14.0488 7.36842 14.0488H16.6316ZM12 0C13.689 0 15.3089 0.678395 16.5032 1.88595C17.6975 3.09349 18.3684 4.73129 18.3684 6.43903C18.3684 8.14672 17.6975 9.78458 16.5032 10.9921C15.3089 12.1996 13.689 12.878 12 12.878C10.311 12.878 8.69112 12.1996 7.49684 10.9921C6.30254 9.78458 5.63158 8.14672 5.63158 6.43903C5.63158 4.73129 6.30254 3.09349 7.49684 1.88595C8.69112 0.678395 10.311 0 12 0ZM12 3.5122C11.2323 3.5122 10.496 3.82056 9.95309 4.36944C9.41022 4.91833 9.10526 5.66278 9.10526 6.43903C9.10526 7.21527 9.41022 7.95975 9.95309 8.5086C10.496 9.05752 11.2323 9.36585 12 9.36585C12.7677 9.36585 13.504 9.05752 14.0469 8.5086C14.5898 7.95975 14.8947 7.21527 14.8947 6.43903C14.8947 5.66278 14.5898 4.91833 14.0469 4.36944C13.504 3.82056 12.7677 3.5122 12 3.5122Z" fill="#977F68"/>
</svg>
