<svg width="12" height="12" viewBox="0 0 12 12" fill="none" xmlns="http://www.w3.org/2000/svg">
<path fill-rule="evenodd" clip-rule="evenodd" d="M10.9711 0.569864C10.6061 0.20498 10.1111 0 9.59499 0C9.07888 0 8.58389 0.20498 8.21889 0.569864L7.76019 1.0292L10.9717 4.24067L11.4298 3.78198C11.6106 3.60124 11.754 3.38667 11.8518 3.1505C11.9496 2.91434 12 2.66122 12 2.40559C12 2.14997 11.9496 1.89685 11.8518 1.66068C11.754 1.42452 11.6106 1.20994 11.4298 1.0292L10.9711 0.569864ZM10.0537 5.15805L6.84213 1.94658L0.944545 7.84466C0.815487 7.97373 0.725332 8.1365 0.684376 8.31437L0.0167613 11.2047C-0.00811437 11.312 -0.00526101 11.4239 0.0250524 11.5298C0.0553659 11.6357 0.112141 11.7321 0.190029 11.81C0.267917 11.8879 0.364352 11.9446 0.470249 11.9749C0.576146 12.0053 0.688017 12.0081 0.795321 11.9832L3.68637 11.3163C3.86402 11.2752 4.02655 11.1851 4.15546 11.0561L10.0537 5.15805Z" fill="#C6C6C6"/>
</svg>
