<svg width="21" height="20" viewBox="0 0 21 20" fill="none" xmlns="http://www.w3.org/2000/svg">
<path fill-rule="evenodd" clip-rule="evenodd" d="M18.6602 1.875C18.6602 0.839453 17.8164 0 16.7765 0H4.84648C2.76579 0 1.0791 1.67891 1.0791 3.75V16.25C1.0791 18.3211 2.76579 20 4.84648 20H17.4044C18.0978 20 18.6602 19.4402 18.6602 18.7852C18.6602 18.3273 18.4009 17.9445 18.0323 17.7266V14.5484C18.4169 14.1719 18.6602 13.6797 18.6602 13.125V1.875ZM16.1486 17.5H4.84648C4.15304 17.5 3.59068 16.9402 3.59068 16.25C3.59068 15.5598 4.15304 15 4.84648 15H16.1486V17.5ZM4.97838 10.3479C4.98582 10.1745 5.08584 10.005 6.26721 7.65044C6.54008 7.11028 7.31422 7.11333 7.58371 7.66417C8.76018 10.003 8.87619 10.1781 8.8874 10.3597C8.88882 10.3827 8.88856 10.4059 8.88856 10.4336C8.88856 11.0931 8.01094 11.6406 6.92638 11.6406C5.84182 11.6406 4.96426 11.0928 4.978 10.4199C4.978 10.3927 4.97742 10.3703 4.97838 10.3479ZM6.92546 7.99223L5.82205 10.1758H8.03148L6.92546 7.99223ZM12.1548 5.69731C12.4269 5.15761 13.2004 5.15944 13.4705 5.69731C14.6462 8.0351 14.7518 8.21138 14.7609 8.39252C14.7621 8.41569 14.7617 8.43893 14.7617 8.46678C14.7617 9.12642 13.8979 9.67375 12.8134 9.67375C11.7288 9.67375 10.8512 9.14 10.8512 8.46678C10.8512 8.43977 10.8508 8.41745 10.8521 8.39523C10.8619 8.22163 10.9725 8.05375 12.1548 5.69731ZM12.7997 6.03911L11.6954 8.22264H13.9047L12.7997 6.03911ZM10.3602 10.664H12.5538C12.9739 10.664 13.2897 10.9921 13.2897 11.4102C13.2897 11.5313 13.1799 11.6406 13.0444 11.6406H9.62437C9.48947 11.6406 9.3791 11.5307 9.3791 11.3965V6.16728C9.28866 6.13371 9.22887 6.09099 9.16142 6.04216L7.08167 6.73241C7.03013 6.74958 6.97764 6.75749 6.92638 6.75749C6.72081 6.75749 6.52949 6.62825 6.46098 6.42363C6.37529 6.16881 6.51402 5.89263 6.77155 5.80718L8.66967 5.18169C8.6682 5.16826 8.66638 5.15492 8.66457 5.14159C8.66044 5.11134 8.65631 5.08109 8.65631 5.04973C8.65631 4.3756 9.19162 3.82903 9.86888 3.82903C10.3179 3.82903 10.7065 4.07195 10.9202 4.43038L12.657 3.8542C12.9155 3.7683 13.192 3.90761 13.2775 4.16289C13.3634 4.41863 13.2245 4.69521 12.9674 4.78056L11.0313 5.42311C10.9231 5.75636 10.6795 6.02817 10.3602 6.16728V10.664Z" fill="url(#paint0_linear_1294_1491)"/>
<defs>
<linearGradient id="paint0_linear_1294_1491" x1="9.86964" y1="0" x2="9.86964" y2="20" gradientUnits="userSpaceOnUse">
<stop offset="0.015" stop-color="#D18973"/>
<stop offset="0.465" stop-color="#AB674E"/>
<stop offset="0.785" stop-color="#B65740"/>
<stop offset="0.95" stop-color="#C56A61"/>
</linearGradient>
</defs>
</svg>
