<svg width="11" height="13" viewBox="0 0 11 13" fill="none" xmlns="http://www.w3.org/2000/svg">
<path fill-rule="evenodd" clip-rule="evenodd" d="M3.78185 0.0703125C3.36415 0.0703125 3.02554 0.408921 3.02554 0.826615V4.60813H1.89109C1.58519 4.60813 1.30942 4.7924 1.19236 5.07501C1.0753 5.35762 1.14 5.68292 1.3563 5.89922L4.75966 9.30258C5.05502 9.59793 5.53388 9.59793 5.82924 9.30258L9.2326 5.89922C9.4489 5.68292 9.51361 5.35762 9.39655 5.07501C9.27948 4.7924 9.00371 4.60813 8.69781 4.60813H7.56336V0.826615C7.56336 0.408921 7.22475 0.0703125 6.80706 0.0703125H3.78185Z" fill="#ADADAD"/>
<path fill-rule="evenodd" clip-rule="evenodd" d="M0 12.1743C0 11.7566 0.338608 11.418 0.756303 11.418H9.83193C10.2496 11.418 10.5882 11.7566 10.5882 12.1743C10.5882 12.592 10.2496 12.9306 9.83193 12.9306H0.756303C0.338608 12.9306 0 12.592 0 12.1743Z" fill="#ADADAD"/>
</svg>
