<svg width="53" height="63" viewBox="0 0 53 63" fill="none" xmlns="http://www.w3.org/2000/svg">
<path d="M6.36 0C4.67322 0 3.05553 0.663748 1.8628 1.84523C0.67007 3.02671 0 4.62914 0 6.3V56.7C0 58.3709 0.67007 59.9733 1.8628 61.1548C3.05553 62.3363 4.67322 63 6.36 63H46.64C48.3268 63 49.9445 62.3363 51.1372 61.1548C52.3299 59.9733 53 58.3709 53 56.7V25.1423C53 23.2286 52.2315 21.3937 50.8668 20.0392L32.4996 1.84538C31.3069 0.663878 29.6893 7.83555e-05 28.0026 0H6.36ZM3.975 6.3C3.975 5.67343 4.22628 5.07251 4.67355 4.62946C5.12082 4.18641 5.72746 3.9375 6.36 3.9375H26.5V21C26.5 22.3924 27.0584 23.7277 28.0523 24.7123C29.0463 25.6969 30.3944 26.25 31.8 26.25H49.025V56.7C49.025 57.3266 48.7737 57.9275 48.3265 58.3705C47.8792 58.8136 47.2725 59.0625 46.64 59.0625H6.36C5.72746 59.0625 5.12082 58.8136 4.67355 58.3705C4.22628 57.9275 3.975 57.3266 3.975 56.7V6.3ZM47.541 22.3125H31.8C31.4486 22.3125 31.1116 22.1742 30.8631 21.9281C30.6146 21.6819 30.475 21.3481 30.475 21V5.4075L47.541 22.3125Z" fill="#BFBFBF"/>
</svg>
