<svg width="35" height="35" viewBox="0 0 35 35" fill="none" xmlns="http://www.w3.org/2000/svg">
<path d="M13.6265 21.981V21.942C11.0079 20.7368 9.46876 18.0574 9.46876 14.6063C9.46876 10.1754 13.0716 6.57264 17.5025 6.57264C21.929 6.57264 25.5318 10.1754 25.5318 14.6063C25.5318 18.0531 23.9927 20.7368 21.3741 21.942V21.981C25.4061 23.0519 28.4063 26.0738 29.6376 30.0971C32.9412 26.9149 35.0006 22.4493 35.0006 17.4981C34.9963 7.83427 27.162 0 17.4981 0C7.83427 0 0 7.83427 0 17.4981C0 22.4493 2.05937 26.9149 5.36303 30.0971C6.58998 26.0738 9.59015 23.0519 13.6265 21.981Z" fill="#977F68"/>
<path d="M20.0939 23.9024C19.5866 23.807 19.2181 23.3604 19.2181 22.8445V21.21C19.2181 20.7461 19.5173 20.3343 19.9552 20.1868C22.1272 19.4672 23.3715 17.4338 23.3715 14.607C23.3715 11.3684 20.7355 8.73242 17.4969 8.73242C14.2583 8.73242 11.618 11.3684 11.618 14.607C11.618 17.4338 12.8623 19.4672 15.0343 20.1868C15.4766 20.3343 15.7757 20.7461 15.7757 21.21V22.8445C15.7757 23.3604 15.4072 23.807 14.8999 23.9024C10.9503 24.6481 8.07585 27.6309 7.19141 31.6413C10.0832 33.7527 13.6426 35.0013 17.4969 35.0013C21.3512 35.0013 24.9106 33.7527 27.8024 31.6413C26.918 27.6309 24.0435 24.6481 20.0939 23.9024Z" fill="#977F68"/>
</svg>
