<svg width="224" height="200" viewBox="0 0 224 200" fill="none" xmlns="http://www.w3.org/2000/svg">
<path d="M220.801 164.09L133.351 12.22C131.166 8.4993 128.046 5.41424 124.301 3.27065C120.556 1.12707 116.316 -0.000610352 112.001 -0.000610352C107.686 -0.000610352 103.446 1.12707 99.7009 3.27065C95.956 5.41424 92.8362 8.4993 90.651 12.22L3.20096 164.09C1.09832 167.689 -0.00976562 171.782 -0.00976562 175.95C-0.00976562 180.118 1.09832 184.211 3.20096 187.81C5.35827 191.553 8.47266 194.655 12.2246 196.797C15.9765 198.94 20.2308 200.045 24.551 200H199.451C203.768 200.041 208.018 198.934 211.766 196.792C215.514 194.65 218.625 191.55 220.781 187.81C222.887 184.213 223.998 180.121 224.002 175.953C224.005 171.785 222.901 167.691 220.801 164.09ZM104.001 80C104.001 77.8783 104.844 75.8435 106.344 74.3432C107.844 72.8429 109.879 72 112.001 72C114.123 72 116.158 72.8429 117.658 74.3432C119.158 75.8435 120.001 77.8783 120.001 80V120C120.001 122.122 119.158 124.157 117.658 125.657C116.158 127.157 114.123 128 112.001 128C109.879 128 107.844 127.157 106.344 125.657C104.844 124.157 104.001 122.122 104.001 120V80ZM112.001 168C109.628 168 107.308 167.296 105.334 165.978C103.361 164.659 101.823 162.785 100.914 160.592C100.006 158.4 99.7685 155.987 100.232 153.659C100.695 151.331 101.837 149.193 103.516 147.515C105.194 145.837 107.332 144.694 109.66 144.231C111.988 143.768 114.4 144.005 116.593 144.913C118.786 145.822 120.66 147.36 121.979 149.333C123.297 151.307 124.001 153.627 124.001 156C124.001 159.183 122.737 162.235 120.486 164.485C118.236 166.736 115.184 168 112.001 168Z" fill="#977F68"/>
</svg>
