<svg width="450" height="365" viewBox="0 0 450 365" fill="none" xmlns="http://www.w3.org/2000/svg">
<path d="M2.7671 202.129C4.6734 216.677 11.818 230.037 22.8681 239.716C33.9183 249.395 48.1194 254.733 62.8226 254.733C77.5257 254.733 91.7268 249.395 102.777 239.716C113.827 230.037 120.972 216.677 122.878 202.129H2.7671ZM330.007 323.805C330.011 325.035 329.772 326.254 329.303 327.391C328.834 328.529 328.146 329.563 327.276 330.435C326.407 331.307 325.374 331.999 324.236 332.473C323.099 332.946 321.879 333.191 320.646 333.193H145.653C140.512 333.193 136.273 328.981 136.273 323.805C136.29 321.334 137.286 318.97 139.043 317.228C140.8 315.487 143.176 314.51 145.653 314.51H320.637C325.814 314.51 330.007 318.666 330.007 323.805ZM137.295 337.977H328.994V365H137.295V337.977ZM346.122 202.129C348.021 216.685 355.161 230.054 366.21 239.744C377.259 249.434 391.463 254.782 406.173 254.79C420.883 254.795 435.091 249.451 446.138 239.758C457.186 230.065 464.316 216.688 466.195 202.129H346.122ZM462.894 183.324L413.714 115.723H440.006C446.404 115.723 451.553 110.49 451.553 104.022C451.553 97.6104 446.394 92.4341 440.006 92.4341H300.732C296.6 81.0683 289.54 70.9897 280.262 63.2136C270.985 55.4376 259.817 50.2387 247.885 48.1406V11.6631C247.885 5.17634 242.67 3.43022e-05 236.207 3.43022e-05L235.119 0.12172L234.031 3.43022e-05C232.496 -0.00368851 230.976 0.295652 229.558 0.880805C228.14 1.46596 226.852 2.32536 225.768 3.40949C224.685 4.49361 223.826 5.78104 223.243 7.19758C222.661 8.61412 222.364 10.1318 222.372 11.6631V48.1219C210.443 50.223 199.279 55.4232 190.005 63.1991C180.731 70.975 173.674 81.0519 169.544 92.4154H30.2411C23.8909 92.4154 18.7131 97.5917 18.7131 104.004C18.7131 110.481 23.8909 115.704 30.2411 115.704H55.3326L6.1439 183.305H0V195.792H125.673V183.305H119.501L70.3312 115.723H184.476C184.476 113.083 184.767 110.49 185.161 108.01C185.565 106.84 185.837 105.651 185.837 104.425C187.955 95.5338 192.484 87.3959 198.928 80.9024C205.372 74.409 213.483 69.8104 222.372 67.6103V195.82H221.884C220.88 244.045 197.89 286.101 163.784 309.736H306.491C272.376 286.101 249.405 244.045 248.345 195.82H247.895V67.6103C256.782 69.8119 264.89 74.4111 271.333 80.9045C277.775 87.3979 282.303 95.5349 284.42 104.425C284.47 105.648 284.705 106.843 285.124 108.01C285.499 110.5 285.734 113.083 285.734 115.723H398.688L349.499 183.324H343.364V195.811H469V183.324H462.894ZM57.8277 183.324H18.5724L57.8277 129.361V183.324ZM67.8737 183.324V129.361L107.129 183.324H67.8737ZM401.164 183.324H361.89L401.164 129.361V183.324ZM411.163 183.324V129.361L450.465 183.324H411.163ZM74.4866 76.1657C74.4005 79.1931 73.1349 82.0678 70.9586 84.1788C68.7823 86.2898 65.8669 87.4707 62.8319 87.4707C59.7969 87.4707 56.8816 86.2898 54.7053 84.1788C52.529 82.0678 51.2634 79.1931 51.1773 76.1657C51.1773 69.7445 56.4113 64.5026 62.8554 64.5026C69.2713 64.4933 74.4866 69.7445 74.4866 76.1657ZM417.832 75.5479C417.832 82.016 412.617 87.1455 406.182 87.1455C404.652 87.1554 403.135 86.8624 401.719 86.2834C400.303 85.7044 399.016 84.851 397.932 83.7725C396.849 82.6939 395.99 81.4117 395.407 80C394.823 78.5882 394.526 77.0751 394.532 75.5479C394.469 73.982 394.724 72.4195 395.281 70.9542C395.838 69.4889 396.686 68.151 397.774 67.0208C398.862 65.8906 400.168 64.9914 401.612 64.3772C403.057 63.7629 404.612 63.4463 406.182 63.4463C407.753 63.4463 409.307 63.7629 410.752 64.3772C412.197 64.9914 413.502 65.8906 414.59 67.0208C415.678 68.151 416.526 69.4889 417.083 70.9542C417.64 72.4195 417.895 73.982 417.832 75.5479Z" fill="#8F765F"/>
</svg>
