<svg width="130" height="130" viewBox="0 0 130 130" fill="none" xmlns="http://www.w3.org/2000/svg">
<circle cx="65" cy="65" r="64" fill="white" stroke="#977F68" stroke-width="2"/>
<path d="M42.4167 86C42.4167 86 38 86 38 81.5833C38 77.1667 42.4167 63.9167 64.5 63.9167C86.5833 63.9167 91 77.1667 91 81.5833C91 86 86.5833 86 86.5833 86H42.4167ZM64.5 59.5C68.0141 59.5 71.3843 58.104 73.8692 55.6192C76.354 53.1343 77.75 49.7641 77.75 46.25C77.75 42.7359 76.354 39.3657 73.8692 36.8808C71.3843 34.396 68.0141 33 64.5 33C60.9859 33 57.6157 34.396 55.1308 36.8808C52.646 39.3657 51.25 42.7359 51.25 46.25C51.25 49.7641 52.646 53.1343 55.1308 55.6192C57.6157 58.104 60.9859 59.5 64.5 59.5Z" fill="#977F68"/>
</svg>
