<svg width="43" height="40" viewBox="0 0 43 40" fill="none" xmlns="http://www.w3.org/2000/svg">
<g filter="url(#filter0_i_1374_727)">
<path d="M23.5156 2.06897V5.51724H26.1629C26.9799 5.51724 27.7834 5.73793 28.493 6.15448L31.9599 8.18483C32.0638 8.24552 32.1749 8.27586 32.2931 8.27586H38.2971C38.8317 8.27586 39.3443 8.49384 39.7224 8.88185C40.1004 9.26985 40.3127 9.7961 40.3127 10.3448C40.3127 10.8936 40.1004 11.4198 39.7224 11.8078C39.3443 12.1958 38.8317 12.4138 38.2971 12.4138H37.1495L42.8229 25.3572C42.9905 25.7402 43.0407 26.1664 42.9668 26.5793C42.8929 26.9922 42.6983 27.3722 42.409 27.669L40.9846 26.2069L42.4063 27.6717L42.4036 27.6772L42.3982 27.6828L42.3821 27.6993L42.366 27.7131L42.3391 27.7407L42.2182 27.851C41.6502 28.3384 41.0357 28.7522 40.3745 29.0924C39.1195 29.7379 37.3027 30.3448 34.9377 30.3448C33.0551 30.3674 31.1934 29.9386 29.5008 29.0924C28.8409 28.7542 28.2221 28.3376 27.6571 27.851L27.5362 27.7407L27.4932 27.6993L27.4771 27.6828L27.4663 27.6717V27.669C27.177 27.3722 26.9824 26.9922 26.9085 26.5793C26.8346 26.1664 26.8848 25.7402 27.0524 25.3572L32.7285 12.4138H32.2931C31.4734 12.4138 30.6699 12.1959 29.9603 11.7766L26.4934 9.74621C26.392 9.68662 26.2771 9.65524 26.1602 9.65517H23.5156V35.8621H30.2345C30.7691 35.8621 31.2817 36.0801 31.6598 36.4681C32.0378 36.8561 32.2501 37.3823 32.2501 37.931C32.2501 38.4798 32.0378 39.006 31.6598 39.394C31.2817 39.782 30.7691 40 30.2345 40H12.7655C12.2309 40 11.7183 39.782 11.3402 39.394C10.9622 39.006 10.7499 38.4798 10.7499 37.931C10.7499 37.3823 10.9622 36.8561 11.3402 36.4681C11.7183 36.0801 12.2309 35.8621 12.7655 35.8621H19.4844V9.65517H16.8398C16.7229 9.65524 16.608 9.68662 16.5066 9.74621L13.0423 11.7793C12.3301 12.1931 11.5266 12.4138 10.7069 12.4138H10.2715L15.9476 25.3572C16.1152 25.7402 16.1654 26.1664 16.0915 26.5793C16.0176 26.9922 15.823 27.3722 15.5337 27.669L14.1093 26.2069L15.531 27.6717L15.5283 27.6772L15.5229 27.6828L15.5068 27.6993L15.4638 27.7407L15.3429 27.851C14.7749 28.3384 14.1604 28.7522 13.4992 29.0924C12.2441 29.7379 10.4274 30.3448 8.06234 30.3448C6.17978 30.3674 4.31808 29.9386 2.62547 29.0924C1.96563 28.7542 1.34683 28.3376 0.781821 27.851L0.660882 27.7407L0.617881 27.6993L0.601756 27.6828L0.591006 27.6717V27.669C0.301671 27.3722 0.107123 26.9922 0.0331988 26.5793C-0.0407254 26.1664 0.0094726 25.7402 0.177126 25.3572L5.85319 12.4138H4.70293C4.16835 12.4138 3.65566 12.1958 3.27765 11.8078C2.89964 11.4198 2.68728 10.8936 2.68728 10.3448C2.68728 9.7961 2.89964 9.26985 3.27765 8.88185C3.65566 8.49384 4.16835 8.27586 4.70293 8.27586H10.7069C10.8247 8.27628 10.9405 8.24488 11.0428 8.18483L14.5044 6.15172C15.2166 5.73793 16.0201 5.51724 16.8398 5.51724H19.4844V2.06897C19.4844 1.52024 19.6967 0.993992 20.0747 0.605986C20.4527 0.21798 20.9654 0 21.5 0C22.0346 0 22.5473 0.21798 22.9253 0.605986C23.3033 0.993992 23.5156 1.52024 23.5156 2.06897ZM31.4304 25.4538C32.1964 25.8262 33.3601 26.2069 34.9377 26.2069C36.5152 26.2069 37.6789 25.8262 38.4449 25.4538L34.9377 17.4538L31.4304 25.4538ZM4.55512 25.4538C5.32106 25.8262 6.48476 26.2069 8.06234 26.2069C9.63992 26.2069 10.8036 25.8262 11.5696 25.4538L8.06234 17.4538L4.55512 25.4538Z" fill="#937C66" fill-opacity="0.3"/>
</g>
<defs>
<filter id="filter0_i_1374_727" x="0" y="0" width="43" height="42" filterUnits="userSpaceOnUse" color-interpolation-filters="sRGB">
<feFlood flood-opacity="0" result="BackgroundImageFix"/>
<feBlend mode="normal" in="SourceGraphic" in2="BackgroundImageFix" result="shape"/>
<feColorMatrix in="SourceAlpha" type="matrix" values="0 0 0 0 0 0 0 0 0 0 0 0 0 0 0 0 0 0 127 0" result="hardAlpha"/>
<feOffset dy="2"/>
<feGaussianBlur stdDeviation="1"/>
<feComposite in2="hardAlpha" operator="arithmetic" k2="-1" k3="1"/>
<feColorMatrix type="matrix" values="0 0 0 0 0 0 0 0 0 0 0 0 0 0 0 0 0 0 0.25 0"/>
<feBlend mode="normal" in2="shape" result="effect1_innerShadow_1374_727"/>
</filter>
</defs>
</svg>
