<svg width="43" height="36" viewBox="0 0 43 36" fill="none" xmlns="http://www.w3.org/2000/svg">
<g filter="url(#filter0_i_1374_729)">
<path d="M3.90909 17.5909C1.75909 17.5909 0 15.8318 0 13.6818V3.90909C0 1.75909 1.75909 0 3.90909 0H19.5455C21.6955 0 23.4545 1.75909 23.4545 3.90909V13.6818C23.4545 15.8318 21.6955 17.5909 19.5455 17.5909H15.6364V23.4545L9.77273 17.5909H3.90909ZM39.0909 29.3182C41.2409 29.3182 43 27.5591 43 25.4091V15.6364C43 13.4864 41.2409 11.7273 39.0909 11.7273H27.3636V13.6818C27.3636 17.9818 23.8455 21.5 19.5455 21.5V25.4091C19.5455 27.5591 21.3045 29.3182 23.4545 29.3182H27.3636V35.1818L33.2273 29.3182H39.0909Z" fill="#937C66" fill-opacity="0.3"/>
</g>
<defs>
<filter id="filter0_i_1374_729" x="0" y="0" width="43" height="37.1816" filterUnits="userSpaceOnUse" color-interpolation-filters="sRGB">
<feFlood flood-opacity="0" result="BackgroundImageFix"/>
<feBlend mode="normal" in="SourceGraphic" in2="BackgroundImageFix" result="shape"/>
<feColorMatrix in="SourceAlpha" type="matrix" values="0 0 0 0 0 0 0 0 0 0 0 0 0 0 0 0 0 0 127 0" result="hardAlpha"/>
<feOffset dy="2"/>
<feGaussianBlur stdDeviation="1"/>
<feComposite in2="hardAlpha" operator="arithmetic" k2="-1" k3="1"/>
<feColorMatrix type="matrix" values="0 0 0 0 0 0 0 0 0 0 0 0 0 0 0 0 0 0 0.25 0"/>
<feBlend mode="normal" in2="shape" result="effect1_innerShadow_1374_729"/>
</filter>
</defs>
</svg>
