<svg width="35" height="41" viewBox="0 0 35 41" fill="none" xmlns="http://www.w3.org/2000/svg">
<g filter="url(#filter0_i_1374_725)">
<path fill-rule="evenodd" clip-rule="evenodd" d="M35 23.748V34.5305C35 36.2463 34.3086 37.8919 33.0779 39.1051C31.8472 40.3184 30.178 41 28.4375 41H6.5625C4.82202 41 3.15283 40.3184 1.92212 39.1051C0.691414 37.8919 9.68339e-06 36.2463 9.68339e-06 34.5305V23.748H35ZM17.5 0.0264995C20.4094 0.0264995 23.1525 0.725205 25.5653 1.96519L26.8909 0.658354C27.0927 0.452386 27.3341 0.288099 27.601 0.175079C27.8679 0.0620595 28.1549 0.00256963 28.4454 8.14224e-05C28.7358 -0.00240678 29.0239 0.0521564 29.2927 0.160587C29.5615 0.269018 29.8058 0.429145 30.0112 0.631624C30.2166 0.834104 30.379 1.07488 30.489 1.33991C30.599 1.60493 30.6543 1.8889 30.6518 2.17524C30.6493 2.46158 30.5889 2.74455 30.4743 3.00765C30.3596 3.27076 30.193 3.50871 29.9841 3.70764L29.2184 4.46242C31.0409 6.07869 32.4977 8.05525 33.4938 10.2634C34.49 12.4716 35.0031 14.8618 35 17.2785V19.435H9.68339e-06V17.2785C-0.00257204 14.862 0.511115 12.4721 1.50763 10.2643C2.50414 8.05654 3.96113 6.08041 5.78376 4.46458L5.01594 3.7098C4.60548 3.30544 4.37477 2.7569 4.37456 2.18484C4.37436 1.61278 4.60468 1.06408 5.01485 0.659432C5.42502 0.254785 5.98145 0.0273433 6.56173 0.0271411C7.14201 0.0269389 7.6986 0.253993 8.10907 0.658354L9.43469 1.96519C11.9265 0.690586 14.6927 0.025647 17.5 0.0264995ZM10.9375 8.6525C10.3573 8.6525 9.80094 8.8797 9.39071 9.28412C8.98047 9.68855 8.75 10.2371 8.75 10.809C8.75 11.3809 8.98047 11.9295 9.39071 12.3339C9.80094 12.7383 10.3573 12.9655 10.9375 12.9655C11.5177 12.9655 12.0741 12.7383 12.4843 12.3339C12.8945 11.9295 13.125 11.3809 13.125 10.809C13.125 10.2371 12.8945 9.68855 12.4843 9.28412C12.0741 8.8797 11.5177 8.6525 10.9375 8.6525ZM24.0625 8.6525C23.4823 8.6525 22.9259 8.8797 22.5157 9.28412C22.1055 9.68855 21.875 10.2371 21.875 10.809C21.875 11.3809 22.1055 11.9295 22.5157 12.3339C22.9259 12.7383 23.4823 12.9655 24.0625 12.9655C24.6427 12.9655 25.1991 12.7383 25.6093 12.3339C26.0195 11.9295 26.25 11.3809 26.25 10.809C26.25 10.2371 26.0195 9.68855 25.6093 9.28412C25.1991 8.8797 24.6427 8.6525 24.0625 8.6525Z" fill="#937C66" fill-opacity="0.3"/>
</g>
<defs>
<filter id="filter0_i_1374_725" x="0" y="0" width="35" height="43" filterUnits="userSpaceOnUse" color-interpolation-filters="sRGB">
<feFlood flood-opacity="0" result="BackgroundImageFix"/>
<feBlend mode="normal" in="SourceGraphic" in2="BackgroundImageFix" result="shape"/>
<feColorMatrix in="SourceAlpha" type="matrix" values="0 0 0 0 0 0 0 0 0 0 0 0 0 0 0 0 0 0 127 0" result="hardAlpha"/>
<feOffset dy="2"/>
<feGaussianBlur stdDeviation="1"/>
<feComposite in2="hardAlpha" operator="arithmetic" k2="-1" k3="1"/>
<feColorMatrix type="matrix" values="0 0 0 0 0 0 0 0 0 0 0 0 0 0 0 0 0 0 0.25 0"/>
<feBlend mode="normal" in2="shape" result="effect1_innerShadow_1374_725"/>
</filter>
</defs>
</svg>
