<svg width="36" height="40" viewBox="0 0 36 40" fill="none" xmlns="http://www.w3.org/2000/svg">
<g filter="url(#filter0_i_1374_721)">
<path d="M19.864 20H9.88209C9.35261 20 8.84483 20.2107 8.47043 20.5858C8.09604 20.9608 7.88571 21.4696 7.88571 22C7.88571 22.5304 8.09604 23.0391 8.47043 23.4142C8.84483 23.7893 9.35261 24 9.88209 24H19.864C20.3935 24 20.9013 23.7893 21.2757 23.4142C21.65 23.0391 21.8604 22.5304 21.8604 22C21.8604 21.4696 21.65 20.9608 21.2757 20.5858C20.9013 20.2107 20.3935 20 19.864 20ZM21.8604 36H5.88933C5.35985 36 4.85206 35.7893 4.47767 35.4142C4.10328 35.0391 3.89294 34.5304 3.89294 34V6C3.89294 5.46956 4.10328 4.96086 4.47767 4.58578C4.85206 4.21071 5.35985 4 5.88933 4H15.8712V9.99999C15.8712 11.5913 16.5022 13.1174 17.6254 14.2426C18.7486 15.3678 20.272 16 21.8604 16H27.8495V18C27.8495 18.5304 28.0599 19.0391 28.4343 19.4142C28.8086 19.7893 29.3164 20 29.8459 20C30.3754 20 30.8832 19.7893 31.2576 19.4142C31.632 19.0391 31.8423 18.5304 31.8423 18V14C31.8509 13.9605 31.8509 13.9195 31.8423 13.88C31.824 13.6938 31.7768 13.5116 31.7025 13.34V13.16C31.6088 12.9531 31.4805 12.7637 31.3232 12.6L19.3449 0.6C19.1755 0.440529 18.9796 0.31193 18.766 0.22C18.766 0.22 18.6662 0.22 18.6063 0.22C18.4091 0.106861 18.1924 0.0322089 17.9674 0H5.98914C4.40072 0 2.87736 0.632141 1.75418 1.75736C0.630998 2.88258 0 4.4087 0 6V34C0 35.5913 0.630998 37.1174 1.75418 38.2426C2.87736 39.3678 4.40072 40 5.98914 40H21.9602C22.4897 40 22.9975 39.7893 23.3719 39.4142C23.7462 39.0391 23.9566 38.5304 23.9566 38C23.9566 37.4695 23.7462 36.9608 23.3719 36.5858C22.9975 36.2107 22.4897 36 21.9602 36H21.8604ZM19.864 6.82L25.0147 12H21.8604C21.3309 12 20.8231 11.7893 20.4487 11.4142C20.0743 11.0391 19.864 10.5304 19.864 9.99999V6.82ZM30.9838 36.58C30.8879 36.4952 30.788 36.4151 30.6844 36.34C30.4646 36.1979 30.2212 36.0963 29.9657 36.04C29.645 35.9756 29.3134 35.9912 29.0001 36.0854C28.6868 36.1796 28.4014 36.3494 28.1689 36.58C27.9818 36.7659 27.8333 36.9871 27.732 37.2308C27.6306 37.4745 27.5784 37.736 27.5784 38C27.5784 38.264 27.6306 38.5254 27.732 38.7691C27.8333 39.0128 27.9818 39.234 28.1689 39.42C28.5408 39.7895 29.0427 39.9978 29.5664 40C29.8951 40.0016 30.2191 39.922 30.5096 39.7681C30.8002 39.6141 31.0483 39.3908 31.232 39.1177C31.4156 38.8447 31.5292 38.5304 31.5625 38.2028C31.5959 37.8753 31.5479 37.5445 31.423 37.24C31.3142 36.9971 31.1658 36.774 30.9838 36.58ZM19.864 28H9.88209C9.35261 28 8.84483 28.2107 8.47043 28.5858C8.09604 28.9608 7.88571 29.4695 7.88571 30C7.88571 30.5304 8.09604 31.0391 8.47043 31.4142C8.84483 31.7893 9.35261 32 9.88209 32H19.864C20.3935 32 20.9013 31.7893 21.2757 31.4142C21.65 31.0391 21.8604 30.5304 21.8604 30C21.8604 29.4695 21.65 28.9608 21.2757 28.5858C20.9013 28.2107 20.3935 28 19.864 28ZM29.5664 22C28.5144 21.9993 27.4809 22.2762 26.5697 22.8029C25.6585 23.3295 24.9018 24.0873 24.3758 25C24.2447 25.2285 24.1599 25.4806 24.126 25.742C24.0922 26.0033 24.1101 26.2688 24.1787 26.5232C24.2473 26.7777 24.3652 27.0161 24.5258 27.2248C24.6864 27.4336 24.8864 27.6087 25.1145 27.74C25.3426 27.8713 25.5942 27.9563 25.8551 27.9902C26.116 28.0241 26.381 28.0062 26.635 27.9375C26.889 27.8687 27.1269 27.7506 27.3353 27.5897C27.5437 27.4289 27.7184 27.2285 27.8495 27C28.025 26.6955 28.2775 26.4428 28.5816 26.2672C28.8856 26.0916 29.2305 25.9995 29.5815 26C29.9324 26.0006 30.277 26.0938 30.5805 26.2702C30.8841 26.4467 31.1358 26.7002 31.3103 27.0053C31.4849 27.3103 31.5761 27.656 31.5748 28.0076C31.5735 28.3591 31.4797 28.7041 31.3028 29.0078C31.126 29.3115 30.8723 29.5631 30.5675 29.7373C30.2626 29.9115 29.9174 30.0021 29.5664 30C29.0369 30 28.5291 30.2107 28.1548 30.5858C27.7804 30.9608 27.57 31.4695 27.57 32C27.57 32.5304 27.7804 33.0391 28.1548 33.4142C28.5291 33.7893 29.0369 34 29.5664 34C31.1548 34 32.6782 33.3678 33.8014 32.2426C34.9246 31.1174 35.5556 29.5913 35.5556 28C35.5556 26.4087 34.9246 24.8826 33.8014 23.7573C32.6782 22.6321 31.1548 22 29.5664 22ZM9.88209 16H11.8785C12.4079 16 12.9157 15.7893 13.2901 15.4142C13.6645 15.0391 13.8749 14.5304 13.8749 14C13.8749 13.4696 13.6645 12.9609 13.2901 12.5858C12.9157 12.2107 12.4079 12 11.8785 12H9.88209C9.35261 12 8.84483 12.2107 8.47043 12.5858C8.09604 12.9609 7.88571 13.4696 7.88571 14C7.88571 14.5304 8.09604 15.0391 8.47043 15.4142C8.84483 15.7893 9.35261 16 9.88209 16Z" fill="#937C66" fill-opacity="0.3"/>
</g>
<defs>
<filter id="filter0_i_1374_721" x="0" y="0" width="35.5557" height="42" filterUnits="userSpaceOnUse" color-interpolation-filters="sRGB">
<feFlood flood-opacity="0" result="BackgroundImageFix"/>
<feBlend mode="normal" in="SourceGraphic" in2="BackgroundImageFix" result="shape"/>
<feColorMatrix in="SourceAlpha" type="matrix" values="0 0 0 0 0 0 0 0 0 0 0 0 0 0 0 0 0 0 127 0" result="hardAlpha"/>
<feOffset dy="2"/>
<feGaussianBlur stdDeviation="1"/>
<feComposite in2="hardAlpha" operator="arithmetic" k2="-1" k3="1"/>
<feColorMatrix type="matrix" values="0 0 0 0 0 0 0 0 0 0 0 0 0 0 0 0 0 0 0.25 0"/>
<feBlend mode="normal" in2="shape" result="effect1_innerShadow_1374_721"/>
</filter>
</defs>
</svg>
