<svg width="36" height="36" viewBox="0 0 36 36" fill="none" xmlns="http://www.w3.org/2000/svg">
<g filter="url(#filter0_d_1090_511)">
<path d="M30.7998 28.6667H5.20004C4.02184 28.6667 3.06672 29.6218 3.06672 30.8V31.8667C3.06672 33.0449 4.02184 34 5.20004 34H30.7998C31.978 34 32.9331 33.0449 32.9331 31.8667V30.8C32.9331 29.6218 31.978 28.6667 30.7998 28.6667Z" fill="white"/>
<path d="M9.46667 14.8002H6.2667C5.6776 14.8002 5.20004 15.2777 5.20004 15.8668V26.5334C5.20004 27.1225 5.6776 27.6001 6.2667 27.6001H9.46667C10.0558 27.6001 10.5333 27.1225 10.5333 26.5334V15.8668C10.5333 15.2777 10.0558 14.8002 9.46667 14.8002Z" fill="white"/>
<path d="M19.5999 14.8002H16.3999C15.8108 14.8002 15.3333 15.2777 15.3333 15.8668V26.5334C15.3333 27.1225 15.8108 27.6001 16.3999 27.6001H19.5999C20.189 27.6001 20.6666 27.1225 20.6666 26.5334V15.8668C20.6666 15.2777 20.189 14.8002 19.5999 14.8002Z" fill="white"/>
<path d="M29.7332 14.8002H26.5332C25.9441 14.8002 25.4665 15.2777 25.4665 15.8668V26.5334C25.4665 27.1225 25.9441 27.6001 26.5332 27.6001H29.7332C30.3223 27.6001 30.7998 27.1225 30.7998 26.5334V15.8668C30.7998 15.2777 30.3223 14.8002 29.7332 14.8002Z" fill="white"/>
<path d="M33.5095 11.7694L18.5763 2.16952C18.4044 2.05885 18.2043 2 17.9998 2C17.7953 2 17.5952 2.05885 17.4233 2.16952L2.49006 11.7694C2.29616 11.894 2.14784 12.0781 2.06728 12.294C1.98673 12.5099 1.97827 12.7461 2.04319 12.9673C2.1081 13.1884 2.24289 13.3826 2.42738 13.5207C2.61187 13.6588 2.83614 13.7335 3.06661 13.7335H32.933C33.1635 13.7335 33.3878 13.6588 33.5723 13.5207C33.7568 13.3826 33.8915 13.1884 33.9565 12.9673C34.0214 12.7461 34.0129 12.5099 33.9324 12.294C33.8518 12.0781 33.7034 11.894 33.5095 11.7694Z" fill="white"/>
</g>
<defs>
<filter id="filter0_d_1090_511" x="0" y="0" width="35.9995" height="36" filterUnits="userSpaceOnUse" color-interpolation-filters="sRGB">
<feFlood flood-opacity="0" result="BackgroundImageFix"/>
<feColorMatrix in="SourceAlpha" type="matrix" values="0 0 0 0 0 0 0 0 0 0 0 0 0 0 0 0 0 0 127 0" result="hardAlpha"/>
<feOffset/>
<feGaussianBlur stdDeviation="1"/>
<feComposite in2="hardAlpha" operator="out"/>
<feColorMatrix type="matrix" values="0 0 0 0 0.729167 0 0 0 0 0.600833 0 0 0 0 0.528646 0 0 0 0.25 0"/>
<feBlend mode="normal" in2="BackgroundImageFix" result="effect1_dropShadow_1090_511"/>
<feBlend mode="normal" in="SourceGraphic" in2="effect1_dropShadow_1090_511" result="shape"/>
</filter>
</defs>
</svg>
