<svg width="24" height="24" viewBox="0 0 24 24" fill="none" xmlns="http://www.w3.org/2000/svg">
<path fill-rule="evenodd" clip-rule="evenodd" d="M16.2849 17.5103V6.7434C16.2849 6.09075 16.4563 5.42218 16.7392 4.99973C16.7939 4.91387 16.8652 4.83979 16.9489 4.78182C17.0326 4.72386 17.127 4.68319 17.2267 4.66218C17.3263 4.64117 17.4291 4.64025 17.5291 4.65948C17.6291 4.67871 17.7242 4.71769 17.8089 4.77415C17.8937 4.83061 17.9663 4.90341 18.0225 4.98828C18.0788 5.07315 18.1175 5.1684 18.1365 5.26843C18.1554 5.36846 18.1543 5.47128 18.133 5.57085C18.1117 5.67042 18.0708 5.76474 18.0126 5.8483C17.956 5.94921 17.9139 6.05763 17.8877 6.17034C17.8437 6.3381 17.8155 6.53769 17.8155 6.7434V8.32667H19.3461C19.6709 8.32667 19.9823 8.19766 20.2119 7.96803C20.4416 7.73839 20.5706 7.42694 20.5706 7.10218V6.18381C20.5706 5.45311 20.2803 4.75234 19.7636 4.23566C19.247 3.71898 18.5462 3.42871 17.8155 3.42871H8.93794C8.12605 3.42871 7.34742 3.75123 6.77333 4.32532C6.19923 4.89941 5.87671 5.67805 5.87671 6.48994V17.5103C5.87671 17.9975 5.6832 18.4647 5.33875 18.8091C4.99429 19.1536 4.52711 19.3471 4.03998 19.3471C3.8776 19.3471 3.72187 19.4116 3.60706 19.5264C3.49224 19.6412 3.42773 19.7969 3.42773 19.9593C3.42773 20.1217 3.49224 20.2774 3.60706 20.3922C3.72187 20.5071 3.8776 20.5716 4.03998 20.5716H13.2237C14.0355 20.5716 14.8142 20.249 15.3883 19.675C15.9624 19.1009 16.2849 18.3222 16.2849 17.5103ZM9.76692 7.71443C9.76692 7.29198 10.1098 6.94912 10.5322 6.94912H12.9053C13.1083 6.94912 13.3029 7.02975 13.4464 7.17327C13.59 7.31679 13.6706 7.51145 13.6706 7.71443C13.6706 7.9174 13.59 8.11206 13.4464 8.25558C13.3029 8.3991 13.1083 8.47973 12.9053 8.47973H10.5322C10.3293 8.47973 10.1346 8.3991 9.99107 8.25558C9.84755 8.11206 9.76692 7.9174 9.76692 7.71443ZM8.95141 10.6226C8.74844 10.6226 8.55378 10.7032 8.41025 10.8467C8.26673 10.9903 8.1861 11.1849 8.1861 11.3879C8.1861 11.5909 8.26673 11.7855 8.41025 11.929C8.55378 12.0726 8.74844 12.1532 8.95141 12.1532H12.9053C13.1083 12.1532 13.3029 12.0726 13.4464 11.929C13.59 11.7855 13.6706 11.5909 13.6706 11.3879C13.6706 11.1849 13.59 10.9903 13.4464 10.8467C13.3029 10.7032 13.1083 10.6226 12.9053 10.6226H8.95141ZM8.18488 15.0614C8.18488 14.6389 8.52773 14.2961 8.95141 14.2961H12.9053C13.0058 14.2961 13.1053 14.3159 13.1982 14.3543C13.291 14.3928 13.3754 14.4491 13.4464 14.5202C13.5175 14.5913 13.5739 14.6756 13.6123 14.7685C13.6508 14.8613 13.6706 14.9609 13.6706 15.0614C13.6706 15.1619 13.6508 15.2614 13.6123 15.3542C13.5739 15.4471 13.5175 15.5315 13.4464 15.6025C13.3754 15.6736 13.291 15.73 13.1982 15.7684C13.1053 15.8069 13.0058 15.8267 12.9053 15.8267H8.95018C8.74742 15.8263 8.55308 15.7456 8.40982 15.6021C8.26656 15.4586 8.18488 15.2641 8.18488 15.0614Z" fill="#64748B"/>
</svg>
