<svg width="18" height="20" viewBox="0 0 18 20" fill="none" xmlns="http://www.w3.org/2000/svg">
<path d="M4 15V5C4 4.71667 4.09583 4.47917 4.2875 4.2875C4.47917 4.09583 4.71667 4 5 4C5.28333 4 5.52083 4.09583 5.7125 4.2875C5.90417 4.47917 6 4.71667 6 5V15C6 15.2833 5.90417 15.5208 5.7125 15.7125C5.52083 15.9042 5.28333 16 5 16C4.71667 16 4.47917 15.9042 4.2875 15.7125C4.09583 15.5208 4 15.2833 4 15ZM8 19V1C8 0.716667 8.09583 0.479167 8.2875 0.2875C8.47917 0.0958333 8.71667 0 9 0C9.28333 0 9.52083 0.0958333 9.7125 0.2875C9.90417 0.479167 10 0.716667 10 1V19C10 19.2833 9.90417 19.5208 9.7125 19.7125C9.52083 19.9042 9.28333 20 9 20C8.71667 20 8.47917 19.9042 8.2875 19.7125C8.09583 19.5208 8 19.2833 8 19ZM0 11V9C0 8.71667 0.0958333 8.47917 0.2875 8.2875C0.479167 8.09583 0.716667 8 1 8C1.28333 8 1.52083 8.09583 1.7125 8.2875C1.90417 8.47917 2 8.71667 2 9V11C2 11.2833 1.90417 11.5208 1.7125 11.7125C1.52083 11.9042 1.28333 12 1 12C0.716667 12 0.479167 11.9042 0.2875 11.7125C0.0958333 11.5208 0 11.2833 0 11ZM12 15V5C12 4.71667 12.0958 4.47917 12.2875 4.2875C12.4792 4.09583 12.7167 4 13 4C13.2833 4 13.5208 4.09583 13.7125 4.2875C13.9042 4.47917 14 4.71667 14 5V15C14 15.2833 13.9042 15.5208 13.7125 15.7125C13.5208 15.9042 13.2833 16 13 16C12.7167 16 12.4792 15.9042 12.2875 15.7125C12.0958 15.5208 12 15.2833 12 15ZM16 11V9C16 8.71667 16.0958 8.47917 16.2875 8.2875C16.4792 8.09583 16.7167 8 17 8C17.2833 8 17.5208 8.09583 17.7125 8.2875C17.9042 8.47917 18 8.71667 18 9V11C18 11.2833 17.9042 11.5208 17.7125 11.7125C17.5208 11.9042 17.2833 12 17 12C16.7167 12 16.4792 11.9042 16.2875 11.7125C16.0958 11.5208 16 11.2833 16 11Z" fill="black"/>
</svg>
