<svg width="20" height="20" viewBox="0 0 20 20" fill="none" xmlns="http://www.w3.org/2000/svg">
<path d="M8.39685 2.17797C8.67851 1.54463 9.54602 1.5138 9.88602 2.08297L9.93518 2.17797L10.8035 4.13213C11.5617 5.8379 12.8227 7.27152 14.4177 8.2413L14.686 8.3988L16.2277 9.26547C16.3502 9.33408 16.4537 9.43227 16.5286 9.5511C16.6035 9.66992 16.6474 9.8056 16.6565 9.94577C16.6655 10.0859 16.6393 10.2261 16.5803 10.3536C16.5212 10.481 16.4313 10.5917 16.3185 10.6755L16.2285 10.7338L14.686 11.6005C13.0588 12.5158 11.7499 13.9061 10.9343 15.5855L10.8035 15.8671L9.93518 17.8213C9.65352 18.4546 8.78601 18.4855 8.44601 17.9163L8.39685 17.8213L7.52851 15.8671C6.77029 14.1614 5.50936 12.7277 3.91435 11.758L3.64601 11.6005L2.10435 10.7338C1.98179 10.6652 1.87835 10.567 1.80346 10.4482C1.72856 10.3293 1.6846 10.1937 1.67557 10.0535C1.66654 9.91333 1.69273 9.77313 1.75176 9.64568C1.81079 9.51823 1.90077 9.40757 2.01351 9.3238L2.10352 9.26547L3.64601 8.3988C5.2732 7.48351 6.58211 6.09319 7.39768 4.4138L7.52851 4.13213L8.39685 2.17797ZM16.0168 1.76713C16.4304 2.70687 17.1358 3.48828 18.0285 3.99547C18.1618 4.07047 18.1618 4.26213 18.0285 4.33713C17.1354 4.8444 16.4296 5.62613 16.016 6.5663C16.0002 6.60169 15.9745 6.63174 15.9419 6.65283C15.9094 6.67392 15.8714 6.68514 15.8327 6.68514C15.7939 6.68514 15.756 6.67392 15.7234 6.65283C15.6909 6.63174 15.6652 6.60169 15.6493 6.5663C15.2356 5.62644 14.5298 4.84502 13.6368 4.33797C13.6067 4.32078 13.5817 4.29592 13.5642 4.26592C13.5468 4.23591 13.5376 4.20183 13.5376 4.16713C13.5376 4.13244 13.5468 4.09836 13.5642 4.06835C13.5817 4.03835 13.6067 4.01349 13.6368 3.9963C14.5301 3.48882 15.2359 2.70678 15.6493 1.7663C15.6652 1.73091 15.6909 1.70086 15.7234 1.67977C15.756 1.65868 15.7939 1.64746 15.8327 1.64746C15.8714 1.64746 15.9094 1.65868 15.9419 1.67977C15.9745 1.70086 16.0002 1.73091 16.016 1.7663L16.0168 1.76713Z" fill="#0DF259"/>
</svg>
