<svg width="241" height="38" viewBox="0 0 241 38" fill="none" xmlns="http://www.w3.org/2000/svg">
<path d="M165.92 19.8429C165.92 11.5895 159.229 4.89872 150.976 4.89872C142.722 4.89872 136.032 11.5895 136.032 19.8429C136.032 28.0964 142.722 34.7872 150.976 34.7872V37.0863C141.453 37.0863 133.732 29.3662 133.732 19.8429C133.732 10.3197 141.453 2.59961 150.976 2.59961C160.499 2.59961 168.219 10.3197 168.219 19.8429C168.219 29.3662 160.499 37.0863 150.976 37.0863V34.7872C159.229 34.7872 165.92 28.0964 165.92 19.8429Z" fill="#13EC80" fill-opacity="0.8"/>
<path d="M161.895 19.8432C161.895 13.8118 157.005 8.92243 150.974 8.92243C144.943 8.92243 140.053 13.8118 140.053 19.8432C140.053 25.8746 144.943 30.764 150.974 30.764V31.3388C144.625 31.3388 139.479 26.192 139.479 19.8432C139.479 13.4944 144.625 8.34766 150.974 8.34766C157.323 8.34766 162.47 13.4944 162.47 19.8432C162.47 26.192 157.323 31.3388 150.974 31.3388V30.764C157.005 30.764 161.895 25.8746 161.895 19.8432Z" fill="#13EC80" fill-opacity="0.4"/>
<path d="M154.041 3.36529C154.041 5.05831 152.669 6.43077 150.976 6.43077C149.283 6.43077 147.91 5.05831 147.91 3.36529C147.91 1.67227 149.283 0.299805 150.976 0.299805C152.669 0.299805 154.041 1.67227 154.041 3.36529Z" fill="#13EC80"/>
<path d="M240.15 0.149414V10.1064H238.967V0.149414H240.15Z" fill="#13EC80" stroke="#13EC81" stroke-width="0.3"/>
<path d="M233.113 0.149414L233.147 0.25293L236.307 9.90918L236.371 10.1064H235.131L235.097 10.002L234.303 7.54004H230.135L229.341 10.002L229.307 10.1064H228.066L228.131 9.90918L231.29 0.25293L231.323 0.149414H233.113ZM230.479 6.44043H233.958L232.219 1.05371L230.479 6.44043Z" fill="#13EC80" stroke="#13EC81" stroke-width="0.3"/>
<path d="M114.871 34.6332V6.18553H104.865V0.299805H131.351V6.18553H121.345V34.6332H114.871Z" fill="#1A1A1A"/>
<path d="M81.9102 34.6332V0.299805H88.0902V19.2813H88.973L97.0169 10.3055H105.061L93.8287 22.077L105.453 34.6332H97.5073L88.973 24.9708H88.0902V34.6332H81.9102Z" fill="#1A1A1A"/>
<path d="M64.9395 34.6885V10.3608H71.0214V13.1075H71.9042C72.2639 12.1265 72.8607 11.4071 73.6945 10.9494C74.5283 10.4916 75.5011 10.2627 76.6128 10.2627H79.5557V15.756H76.5147C74.9452 15.756 73.6536 16.1729 72.6399 17.0068C71.6263 17.8406 71.1195 19.124 71.1195 20.857V34.6885H64.9395Z" fill="#1A1A1A"/>
<path d="M48.9497 34.8143C46.53 34.8143 44.3555 34.3238 42.4263 33.3429C40.4971 32.3619 38.9766 30.9395 37.8649 29.0757C36.7531 27.2119 36.1973 24.972 36.1973 22.3562V21.5714C36.1973 18.9555 36.7531 16.7157 37.8649 14.8519C38.9766 12.9881 40.4971 11.5657 42.4263 10.5847C44.3555 9.60376 46.53 9.11328 48.9497 9.11328C51.3694 9.11328 53.5438 9.60376 55.473 10.5847C57.4022 11.5657 58.9227 12.9881 60.0345 14.8519C61.1462 16.7157 61.7021 18.9555 61.7021 21.5714V22.3562C61.7021 24.972 61.1462 27.2119 60.0345 29.0757C58.9227 30.9395 57.4022 32.3619 55.473 33.3429C53.5438 34.3238 51.3694 34.8143 48.9497 34.8143ZM48.9497 29.3209C50.8462 29.3209 52.4157 28.7078 53.6583 27.4817C54.9008 26.2555 55.5221 24.4979 55.5221 22.209V21.7185C55.5221 19.4296 54.909 17.6721 53.6828 16.4459C52.4566 15.2197 50.8789 14.6066 48.9497 14.6066C47.0532 14.6066 45.4836 15.2197 44.2411 16.4459C42.9985 17.6721 42.3773 19.4296 42.3773 21.7185V22.209C42.3773 24.4979 42.9985 26.2555 44.2411 27.4817C45.4836 28.7078 47.0532 29.3209 48.9497 29.3209Z" fill="#1A1A1A"/>
<path d="M3.43334 34.9732L0 10.6455H6.13097L8.28906 30.8041H9.17192L12.311 10.6455H22.2186L25.3577 30.8041H26.2405L28.3986 10.6455H34.5296L31.0963 34.9732H20.8453L17.7062 14.8146H16.8234L13.6843 34.9732H3.43334Z" fill="#1A1A1A"/>
<path d="M202.076 34.6332V0.299805H224.148V6.18553H208.55V14.3765H222.774V20.2622H208.55V28.7475H224.442V34.6332H202.076Z" fill="#1A1A1A"/>
<path d="M171.668 34.6332V0.299805H183.979L190.797 30.2189H191.679V0.299805H198.056V34.6332H185.745L178.927 4.7141H178.044V34.6332H171.668Z" fill="#1A1A1A"/>
</svg>
