<svg width="112" height="122" viewBox="0 0 112 122" fill="none" xmlns="http://www.w3.org/2000/svg">
<path d="M5.59961 117H106.4" stroke="white" stroke-width="10" stroke-linecap="round" stroke-linejoin="round"/>
<path d="M5.59961 55.4C5.59961 50.1192 5.59961 47.4816 7.24041 45.8408C8.88121 44.2 11.5188 44.2 16.7996 44.2C22.0804 44.2 24.718 44.2 26.3588 45.8408C27.9996 47.4816 27.9996 50.1192 27.9996 55.4V89C27.9996 94.2808 27.9996 96.9184 26.3588 98.5592C24.718 100.2 22.0804 100.2 16.7996 100.2C11.5188 100.2 8.88121 100.2 7.24041 98.5592C5.59961 96.9184 5.59961 94.2808 5.59961 89V55.4ZM44.7996 33C44.7996 27.7192 44.7996 25.0816 46.4404 23.4408C48.0812 21.8 50.7188 21.8 55.9996 21.8C61.2804 21.8 63.918 21.8 65.5588 23.4408C67.1996 25.0816 67.1996 27.7192 67.1996 33V89C67.1996 94.2808 67.1996 96.9184 65.5588 98.5592C63.918 100.2 61.2804 100.2 55.9996 100.2C50.7188 100.2 48.0812 100.2 46.4404 98.5592C44.7996 96.9184 44.7996 94.2808 44.7996 89V33ZM83.9996 16.2C83.9996 10.9192 83.9996 8.2816 85.6404 6.6408C87.2812 5 89.9188 5 95.1996 5C100.48 5 103.118 5 104.759 6.6408C106.4 8.2816 106.4 10.9192 106.4 16.2V89C106.4 94.2808 106.4 96.9184 104.759 98.5592C103.118 100.2 100.48 100.2 95.1996 100.2C89.9188 100.2 87.2812 100.2 85.6404 98.5592C83.9996 96.9184 83.9996 94.2808 83.9996 89V16.2Z" stroke="white" stroke-width="10"/>
</svg>
