<svg width="38" height="26" viewBox="0 0 38 26" fill="none" xmlns="http://www.w3.org/2000/svg">
<path d="M26.0997 12.6287L35.8387 4.16733V20.9934L26.0997 12.6287ZM13.5502 14.0616L16.9702 17.0303C17.5069 17.4863 18.2068 17.7618 18.9715 17.7618H18.9984H19.019C19.7853 17.7618 20.4852 17.4848 21.0282 17.0256L21.0235 17.0288L24.4435 14.06L34.8397 22.9884H3.15875L13.5502 14.0616ZM3.1445 2.16125H34.8587L19.6254 15.3916C19.4549 15.5284 19.2424 15.6022 19.0238 15.6006H19.0016H18.981C18.7616 15.6021 18.5485 15.5277 18.3778 15.39L18.3793 15.3916L3.1445 2.16125ZM2.16125 4.16575L11.8987 12.6271L2.16125 20.9871V4.16575ZM36.3612 0.300833C35.9812 0.110833 35.5347 0 35.0613 0H2.94342C2.4847 0.0018158 2.03248 0.108508 1.62133 0.311917L1.63875 0.304C1.1477 0.547013 0.734186 0.92219 0.444686 1.38735C0.155187 1.8525 0.00118649 2.3892 0 2.93708L0 22.2094C0.000838223 22.9894 0.31105 23.7372 0.862569 24.2887C1.41409 24.8402 2.16187 25.1504 2.94183 25.1513H35.0566C35.8365 25.1504 36.5843 24.8402 37.1358 24.2887C37.6874 23.7372 37.9976 22.9894 37.9984 22.2094V2.93708C37.9984 1.786 37.335 0.7885 36.3692 0.30875L36.3517 0.300833H36.3612Z" fill="white"/>
</svg>
