<svg width="27" height="35" viewBox="0 0 27 35" fill="none" xmlns="http://www.w3.org/2000/svg">
<path d="M14.9587 0.580373C14.5784 0.20876 14.0627 0 13.5249 0C12.9872 0 12.4715 0.20876 12.0912 0.580373L0.619107 11.7939C0.425418 11.9768 0.270924 12.1955 0.164642 12.4373C0.0583598 12.6792 0.00241644 12.9393 7.65677e-05 13.2025C-0.0022633 13.4657 0.0490476 13.7267 0.151014 13.9703C0.252981 14.2139 0.403562 14.4352 0.593971 14.6214C0.784379 14.8075 1.0108 14.9547 1.26003 15.0543C1.50926 15.154 1.77629 15.2042 2.04556 15.2019C2.31483 15.1996 2.58094 15.1449 2.82835 15.041C3.07577 14.9371 3.29954 14.7861 3.48661 14.5968L11.497 6.76695V33.0178C11.497 33.5435 11.7106 34.0477 12.091 34.4194C12.4713 34.7912 12.9871 35 13.5249 35C14.0628 35 14.5786 34.7912 14.9589 34.4194C15.3392 34.0477 15.5529 33.5435 15.5529 33.0178V6.76695L23.5632 14.5968C23.9457 14.9579 24.458 15.1577 24.9897 15.1532C25.5214 15.1486 26.03 14.9402 26.406 14.5726C26.782 14.2051 26.9953 13.708 26.9999 13.1882C27.0045 12.6685 26.8001 12.1678 26.4307 11.7939L14.9587 0.580373Z" fill="white"/>
</svg>
