<svg width="124" height="124" viewBox="0 0 124 124" fill="none" xmlns="http://www.w3.org/2000/svg">
<path d="M5.75 62C5.75 69.3869 7.20495 76.7014 10.0318 83.5259C12.8586 90.3505 17.0019 96.5515 22.2252 101.775C27.4485 106.998 33.6495 111.141 40.4741 113.968C47.2986 116.795 54.6131 118.25 62 118.25C69.3869 118.25 76.7014 116.795 83.5259 113.968C90.3505 111.141 96.5515 106.998 101.775 101.775C106.998 96.5515 111.141 90.3505 113.968 83.5259C116.795 76.7014 118.25 69.3869 118.25 62C118.25 54.6131 116.795 47.2986 113.968 40.4741C111.141 33.6495 106.998 27.4485 101.775 22.2252C96.5515 17.0019 90.3505 12.8586 83.5259 10.0318C76.7014 7.20495 69.3869 5.75 62 5.75C54.6131 5.75 47.2986 7.20495 40.4741 10.0318C33.6495 12.8586 27.4485 17.0019 22.2252 22.2252C17.0019 27.4485 12.8586 33.6495 10.0318 40.4741C7.20495 47.2986 5.75 54.6131 5.75 62Z" stroke="white" stroke-width="10" stroke-linecap="round" stroke-linejoin="round"/>
<path d="M79.5 43.25C78.3678 41.286 76.7228 39.6669 74.7411 38.566C72.7595 37.465 70.5157 36.9237 68.25 37H55.75C52.4348 37 49.2554 38.317 46.9112 40.6612C44.567 43.0054 43.25 46.1848 43.25 49.5C43.25 52.8152 44.567 55.9946 46.9112 58.3388C49.2554 60.683 52.4348 62 55.75 62H68.25C71.5652 62 74.7446 63.317 77.0888 65.6612C79.433 68.0054 80.75 71.1848 80.75 74.5C80.75 77.8152 79.433 80.9946 77.0888 83.3388C74.7446 85.683 71.5652 87 68.25 87H55.75C53.4843 87.0763 51.2405 86.535 49.2589 85.434C47.2772 84.3331 45.6322 82.714 44.5 80.75M62 30.75V93.25" stroke="white" stroke-width="10" stroke-linecap="round" stroke-linejoin="round"/>
</svg>
