<svg width="138" height="100" viewBox="0 0 138 100" fill="none" xmlns="http://www.w3.org/2000/svg">
<path d="M87.75 0C101.011 0 113.729 5.26784 123.105 14.6447C132.482 24.0215 137.75 36.7392 137.75 50C137.75 63.2608 132.482 75.9785 123.105 85.3553C113.729 94.7322 101.011 100 87.75 100C74.4892 100 61.7715 94.7322 52.3947 85.3553C43.0178 75.9785 37.75 63.2608 37.75 50C37.75 36.7392 43.0178 24.0215 52.3947 14.6447C61.7715 5.26784 74.4892 0 87.75 0ZM87.75 12.5C77.8044 12.5 68.2661 16.4509 61.2335 23.4835C54.2009 30.5161 50.25 40.0544 50.25 50C50.25 59.9456 54.2009 69.4839 61.2335 76.5165C68.2661 83.5491 77.8044 87.5 87.75 87.5C97.6956 87.5 107.234 83.5491 114.267 76.5165C121.299 69.4839 125.25 59.9456 125.25 50C125.25 40.0544 121.299 30.5161 114.267 23.4835C107.234 16.4509 97.6956 12.5 87.75 12.5ZM81.5 25H90.875V48.625L105.438 63.1875L98.8125 69.8125L81.5 52.5V25ZM6.5 87.5C4.8424 87.5 3.25268 86.8415 2.08058 85.6694C0.90848 84.4973 0.25 82.9076 0.25 81.25C0.25 79.5924 0.90848 78.0027 2.08058 76.8306C3.25268 75.6585 4.8424 75 6.5 75H30.4375C32.375 79.4375 34.875 83.625 37.75 87.5H6.5ZM12.75 56.25C11.0924 56.25 9.50268 55.5915 8.33058 54.4194C7.15848 53.2473 6.5 51.6576 6.5 50C6.5 48.3424 7.15848 46.7527 8.33058 45.5806C9.50268 44.4085 11.0924 43.75 12.75 43.75H25.5625L25.25 50L25.5625 56.25H12.75ZM19 25C17.3424 25 15.7527 24.3415 14.5806 23.1694C13.4085 21.9973 12.75 20.4076 12.75 18.75C12.75 17.0924 13.4085 15.5027 14.5806 14.3306C15.7527 13.1585 17.3424 12.5 19 12.5H37.75C34.875 16.375 32.375 20.5625 30.4375 25H19Z" fill="white"/>
</svg>
