<svg width="25" height="25" viewBox="0 0 25 25" fill="none" xmlns="http://www.w3.org/2000/svg">
<path d="M20.7996 23.9998L12.7988 15.999L4.79805 23.9998C4.37366 24.4241 3.79807 24.6626 3.19789 24.6626C2.59772 24.6626 2.02212 24.4241 1.59774 23.9998C1.17335 23.5754 0.934929 22.9998 0.93493 22.3996C0.934929 21.7994 1.17335 21.2238 1.59774 20.7994L9.59851 12.7987L1.59774 4.79789C1.17335 4.3735 0.93493 3.79791 0.934931 3.19773C0.93493 2.59756 1.17335 2.02196 1.59774 1.59758C2.02212 1.17319 2.59772 0.934771 3.19789 0.93477C3.79807 0.93477 4.37366 1.17319 4.79805 1.59758L12.7988 9.59835L20.7996 1.59757C21.224 1.17319 21.7996 0.934769 22.3998 0.934769C22.9999 0.934768 23.5755 1.17319 23.9999 1.59757C24.4243 2.02196 24.6627 2.59756 24.6627 3.19773C24.6627 3.79791 24.4243 4.3735 23.9999 4.79789L15.9991 12.7987L23.9999 20.7994C24.4243 21.2238 24.6627 21.7994 24.6627 22.3996C24.6627 22.9998 24.4243 23.5754 23.9999 23.9998C23.5755 24.4241 22.9999 24.6626 22.3998 24.6626C21.7996 24.6626 21.224 24.4241 20.7996 23.9998Z" fill="black"/>
</svg>
