<svg width="344" height="79" viewBox="0 0 344 79" fill="none" xmlns="http://www.w3.org/2000/svg">
<path d="M40.5729 3.31446C36.8565 3.31311 33.1602 3.85802 29.6029 4.93162C31.2105 7.72533 32.0533 10.8921 32.0465 14.1137C32.0486 17.3548 31.1969 20.5394 29.5767 23.3483C27.9565 26.1572 25.6247 28.4915 22.8154 30.1172C20.006 31.7429 16.8177 32.6029 13.5703 32.6108C10.3228 32.6187 7.13038 31.7743 4.3131 30.1622C2.00612 37.77 2.16101 45.9099 4.75575 53.4247C7.35049 60.9395 12.253 67.4467 18.7662 72.0209C25.2794 76.5951 33.0717 79.0036 41.0352 78.9039C48.9988 78.8041 56.7281 76.2013 63.1242 71.4654C69.5204 66.7295 74.2578 60.1017 76.6628 52.5242C79.0677 44.9468 79.0179 36.8055 76.5204 29.258C74.0229 21.7104 69.2048 15.1408 62.7512 10.4832C56.2976 5.82561 48.537 3.31714 40.5729 3.31446Z" fill="white" fill-opacity="0.3"/>
<path d="M24.8438 6.72632C23.0671 4.01187 20.3705 2.02652 17.2475 1.13343C14.1245 0.240331 10.7837 0.499184 7.83617 1.86264C4.88866 3.22609 2.53149 5.60301 1.19581 8.55862C-0.139878 11.5142 -0.364789 14.851 0.562212 17.9585C1.48921 21.066 3.50616 23.7366 6.24413 25.4818C8.9821 27.2269 12.2581 27.9301 15.4728 27.4625C18.6876 26.9949 21.6262 25.3879 23.7512 22.9354C25.8762 20.4829 27.0456 17.3489 27.0454 14.1066C27.0452 11.485 26.2793 8.92027 24.8414 6.72632" fill="white" fill-opacity="0.3"/>
<path d="M129.527 26.1531H118.199V59.3015H109.829V26.1531H98.126V20.2148H130.41L129.527 26.1531Z" fill="white" fill-opacity="0.3"/>
<path d="M162.763 41.8204H147.281V59.2967H138.978V20.2148H147.281V35.8822H162.763V20.2148H171.133V59.2967H162.763V41.8204Z" fill="white" fill-opacity="0.3"/>
<path d="M204.755 50.2481H190.34L187.636 59.2976H179.015L192.537 20.2109H202.796L216.264 59.2976H207.45L204.755 50.2481ZM203.118 44.5915L197.517 25.9243L191.977 44.601L203.118 44.5915Z" fill="white" fill-opacity="0.3"/>
<path d="M248.184 26.1531H236.856V59.3015H228.486V26.1531H216.783V20.2148H249.067L248.184 26.1531Z" fill="white" fill-opacity="0.3"/>
<path d="M283.754 25.9827L263.677 53.1903H283.944L283.064 59.2967H253.985V53.5857L274.428 26.1531H256.052V20.2148H283.742L283.754 25.9827Z" fill="white" fill-opacity="0.3"/>
<path d="M302.707 20.2148H294.401V59.2991H302.707V20.2148Z" fill="white" fill-opacity="0.3"/>
<path d="M343.116 26.1531H331.79V59.3015H323.42V26.1531H311.717V20.2148H344L343.116 26.1531Z" fill="white" fill-opacity="0.3"/>
</svg>
