<svg width="200" height="46" viewBox="0 0 200 46" fill="none" xmlns="http://www.w3.org/2000/svg">
<path d="M23.5887 1.56934C21.428 1.56856 19.279 1.88537 17.2108 2.50958C18.1455 4.13388 18.6355 5.97505 18.6315 7.84817C18.6328 9.73256 18.1376 11.5842 17.1956 13.2173C16.2536 14.8504 14.898 16.2076 13.2646 17.1528C11.6312 18.098 9.77758 18.598 7.88953 18.6026C6.00148 18.6072 4.14541 18.1162 2.50746 17.179C1.16619 21.6022 1.25624 26.3349 2.76481 30.7041C4.27338 35.0733 7.12367 38.8567 10.9104 41.5162C14.6972 44.1757 19.2276 45.576 23.8576 45.518C28.4875 45.46 32.9813 43.9467 36.7 41.1932C40.4187 38.4397 43.173 34.5862 44.5712 30.1806C45.9695 25.7749 45.9405 21.0415 44.4885 16.6533C43.0364 12.265 40.2352 8.44534 36.4831 5.73735C32.731 3.02936 28.2191 1.5709 23.5887 1.56934Z" fill="white"/>
<path d="M14.4441 3.55534C13.4111 1.97712 11.8433 0.822813 10.0276 0.303555C8.21191 -0.215703 6.26958 -0.0652022 4.55591 0.727528C2.84225 1.52026 1.4718 2.90223 0.695236 4.62066C-0.0813242 6.33909 -0.212087 8.27911 0.326868 10.0859C0.865822 11.8926 2.03847 13.4453 3.63031 14.46C5.22215 15.4747 7.12679 15.8835 8.99583 15.6116C10.8649 15.3398 12.5734 14.4054 13.8089 12.9795C15.0443 11.5536 15.7242 9.73143 15.7241 7.84631C15.724 6.32207 15.2787 4.83093 14.4427 3.55534" fill="white"/>
<path d="M75.3063 14.8491H68.7201V34.122H63.8539V14.8491H57.0498V11.3965H75.8194L75.3063 14.8491Z" fill="white"/>
<path d="M94.6297 23.9583H85.6283V34.1192H80.8008V11.3965H85.6283V20.5057H94.6297V11.3965H99.4959V34.1192H94.6297V23.9583Z" fill="white"/>
<path d="M119.044 28.8575H110.663L109.091 34.119H104.078L111.94 11.3936H117.904L125.735 34.119H120.61L119.044 28.8575ZM118.092 25.5688L114.835 14.7154L111.615 25.5743L118.092 25.5688Z" fill="white"/>
<path d="M144.294 14.8491H137.707V34.122H132.841V14.8491H126.037V11.3965H144.807L144.294 14.8491Z" fill="white"/>
<path d="M164.974 14.75L153.3 30.5689H165.084L164.572 34.1192H147.666V30.7988L159.551 14.8491H148.867V11.3965H164.967L164.974 14.75Z" fill="white"/>
<path d="M175.993 11.3965H171.164V34.1206H175.993V11.3965Z" fill="white"/>
<path d="M199.486 14.8491H192.901V34.122H188.035V14.8491H181.23V11.3965H200L199.486 14.8491Z" fill="white"/>
</svg>
